<svg viewBox="0 0 476.52 678.85" xmlns="http://www.w3.org/2000/svg" xmlns:xlink="http://www.w3.org/1999/xlink" id="Layer_1" overflow="hidden"><defs></defs><g><path d="M466.75 629.48 331.26 678.85 181.55 564.7 329.4 540.97 466.75 629.48Z" stroke-width="0" fill="#01484D"/><path d="M470.67 625.72 335.18 675.1 185.48 560.95 333.33 537.22 470.67 625.72Z" stroke-width="0" fill="#99B6B8"/><path d="M470.73 621.2 335.24 670.57 185.53 556.42 333.38 532.69 470.73 621.2Z" stroke-width="0" fill="#CCDADB"/><path d="M476.52 619.48 341.04 668.86 191.33 554.71 339.18 530.98 476.52 619.48Z" stroke-width="0" fill="#FFFFFF"/><line x1="431.63" y1="609.09" x2="344.2" y2="636.19" stroke="#01484D" stroke-width="3" stroke-miterlimit="10" fill="none"/><line x1="406.22" y1="595.2" x2="318.79" y2="622.31" stroke="#01484D" stroke-width="3" stroke-miterlimit="10" fill="none"/><line x1="385.72" y1="581.82" x2="298.29" y2="608.93" stroke="#01484D" stroke-width="3" stroke-miterlimit="10" fill="none"/><line x1="363.08" y1="570.32" x2="275.65" y2="597.43" stroke="#01484D" stroke-width="3" stroke-miterlimit="10" fill="none"/><line x1="341.69" y1="558.41" x2="304.3" y2="567.65" stroke="#01484D" stroke-width="3" stroke-miterlimit="10" fill="none"/></g><g><path d="M4.12 479.51C7.38 457.89 10.04 444.56 10.04 444.56L78.45 454.33C78.45 454.33 94.44 463.66 91.78 464.55 91.34 474.32 88.23 500.09 88.23 500.09L4.12 479.51Z" stroke-width="0" fill="#EBBA9D"/><path d="M78.46 454.34 10.05 444.57C10.05 444.57 7.99 454.88 5.27 472.07 32.04 481.36 60.32 486.27 88.66 486.52 89.03 486.52 89.41 486.52 89.79 486.52 90.64 478.74 91.56 469.56 91.79 464.56 94.46 463.67 78.46 454.34 78.46 454.34Z" stroke-width="0" fill="#EB977D"/><path d="M345.89 510.31 420.08 510.31 406.75 460.56 339.23 470.78 345.89 510.31Z" stroke-width="0" fill="#EBBA9D"/><path d="M343.7 497.3C366.28 490.35 388.38 481.87 409.79 471.9L406.75 460.55 339.23 470.77 343.7 497.3Z" stroke-width="0" fill="#EB977D"/><path d="M195.86 0.16C99.81-3.56 74.9 60.52 70.83 104.54 66.76 148.57 23.26 205.18 53.2 239.47 83.15 273.77 147.23 279.94 187.49 276.59 227.75 273.24 290.43 254.81 309.6 232.23 328.77 209.65 298.42 170.43 296.6 126.18 294.78 81.93 275.4 3.24 195.85 0.16Z" stroke-width="0" fill="#01484D"/><path d="M113.55 268.2C58.02 289.97 43.8 304.18 26.03 327.28 8.27 350.39 0 469.56 0 469.56 0 469.56 73.13 478.33 89.12 479.22L86.9 510.32 345.89 510.32 345 481.89 416.97 467.67C416.97 467.67 376.1 345.06 363.66 316.63 351.22 288.2 281.03 267.76 257.49 258.43L185.08 266.87 113.56 268.2Z" stroke-width="0" fill="#F89F47"/><path d="M148.2 216.23C148.2 216.23 149.53 223.78 145.98 239.77 142.43 255.76 113.55 268.2 113.55 268.2 113.55 268.2 169.08 309.07 201.51 322.4 201.51 322.4 247.27 283.31 257.48 258.43 257.48 258.43 240.6 251.77 231.71 245.1 222.83 238.44 223.27 214.89 223.27 214.89L148.19 216.22Z" stroke-width="0" fill="#EBBA9D"/><path d="M319.7 550.3 321.68 567.18 307.82 557.16 239.94 439.82C238.04 436.54 239.17 432.34 242.45 430.45L242.45 430.45C245.73 428.56 249.92 429.68 251.82 432.96L319.71 550.31Z" stroke-width="0" fill="#01484D"/><path d="M206.69 499.06C220.31 498.47 232.75 486.62 242.82 484.84 252.89 483.06 271.25 490.76 283.69 491.95 296.13 493.13 305.93 494.92 302.64 507.35 302.64 507.35 307.97 515.64 299.68 523.93 299.68 523.93 305.01 527.48 292.57 534.59 292.57 534.59 295.53 539.92 284.87 544.07 274.21 548.22 220.31 551.18 204.31 554.14 188.32 557.1 119.02 573.09 71.04 560.06 23.06 547.03-3.59 525.71 4.11 479.5 4.11 479.5 193.06 499.64 206.68 499.05Z" stroke-width="0" fill="#EBBA9D"/><path d="M224.2 227.69 214.27 215.06 148.21 216.23C148.21 216.23 149.54 223.78 145.99 239.77 145.18 243.43 143.03 246.9 140.21 250.08 141.97 251.06 143.77 251.97 145.6 252.8 172.86 265.2 206.58 261.74 230.98 244.47 227.08 240.92 225.15 233.96 224.2 227.68Z" stroke-width="0" fill="#EB977D"/><path d="M267.43 126.67C273.82 164.64 262.82 247.77 194.95 247.51 121.71 247.22 113.06 168.73 113.06 168.73 113.06 168.73 93.45 167.93 93.63 149.74 93.81 131.55 113.46 131.86 113.46 131.86 113.46 131.86 187.72 115.98 204.53 71.75 204.53 71.75 239.4 121.17 267.43 126.67Z" stroke-width="0" fill="#EBBA9D"/><path d="M111.18 147.33C110.35 146.34 109.34 145.5 108.29 144.75 107.81 144.41 107.28 144.15 106.75 143.88 106.12 143.57 105.47 143.19 104.77 143.09 104.07 142.99 103.42 143.09 102.96 143.71 102.57 144.23 102.43 145.05 102.83 145.62 103.46 146.52 104.37 147.17 105.16 147.91 105.85 148.56 106.54 149.19 107.16 149.91 106.38 150.32 105.69 150.99 105.25 151.62 104.5 152.66 104.05 154.12 104.17 155.41 104.42 158.3 107.12 161.14 110.22 160.23 112.9 159.45 114.03 156.52 113.91 153.94 113.79 151.46 112.76 149.21 111.19 147.32Z" stroke-width="0" fill="#EB977D"/><path d="M205.9 93.56C205.9 93.56 238.25 127.16 267.43 126.67 239.39 121.17 204.53 71.75 204.53 71.75 187.72 115.98 113.46 131.86 113.46 131.86 155.28 131.93 192.79 116.32 205.9 93.56Z" stroke-width="0" fill="#EB977D"/><path d="M112.36 489.35C106.85 487.7 100.93 487.4 95.23 486.74 89.31 486.05 83.38 485.36 77.47 484.61 71.72 483.88 65.98 483.12 60.23 482.38 57.28 482 54.33 481.58 51.38 481.21 48.33 480.82 45.12 480.19 42.05 480.45 41.05 480.53 40.94 481.75 41.82 482.12 44.53 483.26 47.59 483.64 50.48 484.17 53.41 484.7 56.35 485.16 59.29 485.64 65.17 486.6 71.07 487.46 76.98 488.26 82.57 489.02 88.16 489.75 93.76 490.43 99.77 491.17 106 492.27 112.05 491.76 113.4 491.65 113.76 489.76 112.38 489.34Z" stroke-width="0" fill="#EB977D"/><path d="M303.81 507.46C304.24 507.3 304.6 506.97 304.74 506.38 305.29 504.13 305.51 501.67 304.7 499.45 304 497.54 302.67 496.05 301.03 494.88 299.38 493.71 297.48 492.94 295.52 492.49 294.41 492.23 293.29 492.07 292.16 491.94 291.12 491.82 289.94 491.79 288.95 492.19 288.71 492.29 288.65 492.58 288.88 492.74 290.45 493.82 292.67 493.85 294.46 494.37 296.08 494.84 297.73 495.52 299.04 496.61 300.16 497.55 301.04 498.73 301.57 500.1 302.11 501.52 302.03 503.02 301.73 504.47 301.71 504.47 301.69 504.44 301.67 504.43 300.29 503.89 298.61 504.19 297.15 504.22 295.77 504.24 294.38 504.25 293 504.25 289.89 504.24 286.78 504.15 283.67 504 280.68 503.85 277.7 503.61 274.71 503.42 271.99 503.25 268.67 502.48 266.04 503.37 265.7 503.49 265.67 503.89 265.95 504.09 268.27 505.79 271.9 505.92 274.67 506.34 277.66 506.79 280.66 507.04 283.68 507.24 286.79 507.45 289.9 507.56 293.01 507.58 294.62 507.59 296.24 507.58 297.85 507.55 298.64 507.53 299.41 507.55 300.16 507.47 300.23 507.65 300.33 507.81 300.51 507.95 302.81 509.8 302.99 513.43 302.63 516.14 302.43 517.64 301.94 519.16 300.93 520.32 300.74 520.54 300.54 520.73 300.33 520.92 299.16 520.27 297.79 520.52 296.47 520.55 294.82 520.59 293.17 520.61 291.51 520.62 288.2 520.62 284.9 520.58 281.59 520.52 278.29 520.46 274.99 520.33 271.68 520.27 270.03 520.24 268.38 520.21 266.74 520.23 265.72 520.23 264.58 520.1 263.89 520.95 263.88 520.97 263.87 520.99 263.89 521.01 264.41 522.07 265.75 522.14 266.82 522.35 268.43 522.66 270.07 522.92 271.7 523.13 274.99 523.55 278.29 523.78 281.61 523.92 284.92 524.06 288.22 524.06 291.53 523.97 293.18 523.92 294.84 523.86 296.49 523.78 297.13 523.75 297.76 523.75 298.36 523.7 298.41 524.54 298.5 525.37 298.25 526.25 297.87 527.6 297.03 528.79 295.86 529.56 293.23 531.28 289.33 531.28 286.32 531.69 282.8 532.17 279.29 532.74 275.77 533.24 273.9 533.51 272.03 533.74 270.16 534.01 268.51 534.25 266.65 534.35 265.19 535.21 264.67 535.51 264.82 536.24 265.35 536.42 267.23 537.08 269.56 536.68 271.51 536.53 273.73 536.36 275.94 536.16 278.15 535.96 282.52 535.56 286.86 535.05 291.2 534.42 291.24 534.42 291.28 534.41 291.32 534.4 291.11 535.54 290.95 536.63 290.37 537.7 289.74 538.86 288.84 539.84 287.8 540.65 285.81 542.17 283.39 543.03 280.99 543.66 278.42 544.34 275.78 544.76 273.16 545.16 271.48 545.42 269.8 545.67 268.12 545.93 266.62 546.16 265 546.29 263.7 547.14 263.47 547.29 263.51 547.64 263.78 547.72 265.33 548.19 267.01 547.82 268.59 547.61 270.47 547.36 272.34 547.1 274.22 546.85 277.32 546.44 280.45 546.19 283.49 545.4 286.12 544.72 288.66 543.59 290.71 541.77 292.86 539.87 294.84 536.83 294.24 533.85 294.24 533.85 294.24 533.85 294.24 533.84 296.47 533.26 298.52 532.27 299.96 530.3 301.27 528.51 302.15 525.66 301.55 523.35 302.21 523.08 302.83 522.73 303.36 522.23 304.95 520.7 305.67 518.54 305.88 516.39 306.16 513.39 305.69 509.96 303.87 507.49Z" stroke-width="0" fill="#EB977D"/><path d="M307.82 557.16 321.68 567.18 319.7 550.3C310.14 548.36 307.82 557.16 307.82 557.16Z" stroke-width="0" fill="#EB977D"/><path d="M321.68 567.18 320.96 561.02C319.23 561.43 317.73 562.3 316.46 563.4L321.68 567.18Z" stroke-width="0" fill="#222859"/><path d="M257.42 442.65C254.21 443.42 251.13 444.86 248.63 446.8 247.53 447.65 246.53 448.6 245.61 449.62L248.48 454.58C249.44 453.44 250.56 452.38 251.66 451.6 253.49 450.3 255.46 449.27 257.61 448.65 258.64 448.35 259.61 448.21 260.58 448.11L257.42 442.64Z" stroke-width="0" fill="#FFCE5E"/><path d="M175.71 129.61C172.25 127.92 168.33 127.39 164.58 128.39 162.48 128.95 160.64 129.95 158.97 131.31 158.17 131.96 157.38 132.69 156.85 133.58 156.27 134.54 155.62 135.92 156.05 137.03 156.39 137.9 157.03 138.48 157.99 138.51 159 138.55 159.7 137.95 160.49 137.42 160.94 137.12 161.36 136.79 161.77 136.45 161.77 136.45 161.88 136.36 161.95 136.31 162.05 136.25 162.35 136.04 162.39 136.01 163.03 135.59 163.72 135.25 164.41 134.92 164.33 134.97 165.11 134.65 165.19 134.62 165.57 134.5 165.96 134.39 166.35 134.3 166.54 134.26 166.73 134.22 166.92 134.19 166.96 134.19 166.99 134.18 167.01 134.18 167.42 134.15 167.83 134.12 168.24 134.13 168.6 134.13 168.97 134.16 169.33 134.19 169.37 134.21 170.03 134.32 170.17 134.35 170.57 134.44 170.97 134.56 171.36 134.69 171.51 134.74 171.66 134.8 171.81 134.86 171.89 134.89 171.99 134.94 172.03 134.96 172.81 135.37 173.55 135.83 174.32 136.25 175.24 136.75 176.11 137.27 177.2 137.24 178.72 137.19 179.8 136.06 179.79 134.54 179.78 132.27 177.53 130.53 175.68 129.63Z" stroke-width="0" fill="#222859"/><path d="M239.1 129.61C235.64 127.92 231.72 127.39 227.97 128.39 225.87 128.95 224.03 129.95 222.36 131.31 221.56 131.96 220.77 132.69 220.24 133.58 219.66 134.54 219.01 135.92 219.44 137.03 219.78 137.9 220.42 138.48 221.38 138.51 222.39 138.55 223.09 137.95 223.88 137.42 224.33 137.12 224.75 136.79 225.16 136.45 225.16 136.45 225.27 136.36 225.34 136.31 225.44 136.25 225.74 136.04 225.78 136.01 226.42 135.59 227.11 135.25 227.8 134.92 227.72 134.97 228.5 134.65 228.58 134.62 228.96 134.5 229.35 134.39 229.74 134.3 229.93 134.26 230.12 134.22 230.31 134.19 230.35 134.19 230.38 134.18 230.4 134.18 230.81 134.15 231.22 134.12 231.63 134.13 231.99 134.13 232.36 134.16 232.72 134.19 232.76 134.21 233.42 134.32 233.56 134.35 233.96 134.44 234.36 134.56 234.75 134.69 234.9 134.74 235.05 134.8 235.2 134.86 235.27 134.89 235.38 134.94 235.42 134.96 236.2 135.37 236.94 135.83 237.71 136.25 238.63 136.75 239.5 137.27 240.59 137.24 242.11 137.19 243.19 136.06 243.18 134.54 243.17 132.27 240.92 130.53 239.07 129.63Z" stroke-width="0" fill="#222859"/><path d="M176.04 161.21C176.07 160.52 176.07 159.82 175.98 159.12 175.77 157.31 175.46 155.74 174.54 154.12 173.54 152.37 171.9 150.94 169.93 150.4 166.1 149.36 161.87 151.55 160.28 155.14 159.64 156.57 159.26 157.89 159.01 159.42 158.29 163.86 158.61 169.02 162.6 171.9 166.61 174.79 172.71 173.72 174.85 169.04 175.65 167.28 176 165.61 176.12 163.67 176.17 162.85 176.12 162.03 176.04 161.22Z" stroke-width="0" fill="#222859"/><path d="M236.83 161.21C236.86 160.52 236.86 159.82 236.77 159.12 236.56 157.31 236.25 155.74 235.33 154.12 234.33 152.37 232.69 150.94 230.72 150.4 226.89 149.36 222.66 151.55 221.07 155.14 220.43 156.57 220.05 157.89 219.8 159.42 219.08 163.86 219.4 169.02 223.39 171.9 227.4 174.79 233.5 173.72 235.64 169.04 236.44 167.28 236.79 165.61 236.91 163.67 236.96 162.85 236.91 162.03 236.83 161.22Z" stroke-width="0" fill="#222859"/><path d="M209.24 180.59C208.26 179.61 206.82 179.65 205.57 179.99 204.73 180.23 203.94 180.87 203.16 181.27 202.84 181.43 201.64 182.35 201.33 182.24 201.34 182.24 202.13 181.94 201.5 182.16 201.35 182.21 201.21 182.27 201.06 182.32 200.77 182.42 200.47 182.51 200.17 182.59 199.83 182.68 199.49 182.75 199.15 182.82 199.14 182.82 199.11 182.82 199.09 182.83 198.97 182.84 198.77 182.87 198.71 182.88 197.93 182.95 197.16 182.92 196.38 182.88 196.26 182.88 196.2 182.87 196.17 182.87 195.86 182.83 195.56 182.79 195.24 182.77 195.1 182.77 194.52 182.69 194.43 182.69 193 182.42 191.69 181.76 190.21 181.86 189.72 181.89 189.32 182.24 189.31 182.76 189.29 184.34 190.28 185.4 191.45 186.34 192.7 187.34 194.03 188.19 195.6 188.58 198.59 189.34 201.93 189.29 204.85 188.25 206.89 187.52 209.1 186.16 209.84 184.02 210.24 182.87 210.13 181.5 209.23 180.6Z" stroke-width="0" fill="#EB977D"/><path d="M177.09 151.68C176.88 150.94 176.5 150.29 175.96 149.74 175.66 149.51 175.37 149.28 175.07 149.05 174.38 148.65 173.65 148.45 172.85 148.45 172.25 148.43 171.68 148.55 171.16 148.83 170.62 149.01 170.14 149.31 169.75 149.74 169.32 150.14 169.02 150.61 168.84 151.15 168.56 151.67 168.44 152.24 168.46 152.84 168.51 153.23 168.56 153.62 168.62 154.01 168.83 154.75 169.21 155.4 169.75 155.95 170.05 156.18 170.34 156.41 170.64 156.64 171.33 157.04 172.06 157.24 172.86 157.24 173.46 157.26 174.03 157.14 174.55 156.86 175.09 156.68 175.57 156.38 175.96 155.95 176.39 155.55 176.69 155.08 176.87 154.54 177.15 154.02 177.27 153.45 177.25 152.85 177.2 152.46 177.15 152.07 177.09 151.68Z" stroke-width="0" fill="#FFFFFF"/><path d="M238.64 151.68C238.43 150.94 238.05 150.29 237.51 149.74 237.21 149.51 236.92 149.28 236.62 149.05 235.93 148.65 235.2 148.45 234.4 148.45 233.8 148.43 233.23 148.55 232.71 148.83 232.17 149.01 231.69 149.31 231.3 149.74 230.87 150.14 230.57 150.61 230.39 151.15 230.11 151.67 229.99 152.24 230.01 152.84 230.06 153.23 230.11 153.62 230.17 154.01 230.38 154.75 230.76 155.4 231.3 155.95 231.6 156.18 231.89 156.41 232.19 156.64 232.88 157.04 233.61 157.24 234.41 157.24 235.01 157.26 235.58 157.14 236.1 156.86 236.64 156.68 237.12 156.38 237.51 155.95 237.94 155.55 238.24 155.08 238.42 154.54 238.7 154.02 238.82 153.45 238.8 152.85 238.75 152.46 238.7 152.07 238.64 151.68Z" stroke-width="0" fill="#FFFFFF"/><path d="M160.03 179.88C160.03 184.33 153.94 187.93 146.43 187.93 138.92 187.93 132.83 184.32 132.83 179.88 132.83 175.44 138.92 171.83 146.43 171.83 153.94 171.83 160.03 175.44 160.03 179.88Z" stroke-width="0" fill="#ED6C6B"/><ellipse cx="248.4" cy="179.88" rx="13.6" ry="8.05" stroke-width="0" fill="#ED6C6B"/><path d="M189.28 337.09C192.88 338.64 196.5 340.12 200.14 341.59 203.39 342.9 206.94 345.24 210.1 342.6 213.43 339.82 216.35 336.37 219.37 333.26 222.47 330.05 225.56 326.84 228.6 323.58 234.68 317.05 240.67 310.45 246.64 303.81 257.64 291.57 268.53 279.1 278.82 266.22 277.21 265.64 275.65 265.08 274.12 264.53 265.71 274.54 257.32 284.56 248.66 294.36 237.37 307.13 225.7 319.54 213.84 331.78 212.51 333.15 211.17 334.51 209.84 335.89 209.12 336.64 208.38 337.7 207.53 338.31 206.43 339.11 205.79 338.78 204.58 338.34 200.95 337.01 197.37 335.59 193.8 334.12 186.57 331.14 179.43 327.91 172.41 324.47 158.81 317.8 145.59 310.27 132.98 301.87 120.62 293.64 108.93 284.49 97.82 274.65 96.83 275.07 95.85 275.5 94.89 275.92 115.98 296.78 141.12 313.54 167.5 326.92 174.65 330.55 181.92 333.93 189.28 337.1Z" stroke-width="0" fill="#7C5024"/><path d="M94.28 374.14C94.17 373.82 93.67 373.77 93.58 374.14 92.66 377.95 92.33 381.87 91.57 385.72 91.18 385.31 90.79 384.89 90.39 384.5 89.81 383.94 89.22 383.4 88.58 382.91 87.85 382.34 87.16 381.78 86.25 381.54 85.62 381.38 85.17 382.04 85.45 382.58 85.8 383.27 86.33 383.79 86.85 384.35 87.35 384.89 87.85 385.43 88.34 385.97 88.83 386.52 89.31 387.08 89.77 387.65 89.83 387.72 89.88 387.79 89.94 387.86 89.95 387.87 90.02 387.96 90.05 388 90.08 388.04 90.13 388.11 90.14 388.12 90.19 388.19 90.25 388.26 90.3 388.33 90.47 388.56 90.63 388.79 90.8 389.02 89.82 392.81 88.72 396.56 87.53 400.28 84.76 408.93 82.21 417.7 81.83 426.83 81.44 436.28 82.98 445.69 84.46 454.99 85.21 459.72 85.95 464.45 86.48 469.21 87.03 474.14 86.86 479.09 87.3 484 87.47 485.85 90.39 486.59 90.8 484.47 91.7 479.87 91.2 474.76 90.76 470.13 90.33 465.62 89.59 461.14 88.85 456.67 87.24 446.95 85.42 437.19 85.71 427.29 85.99 417.84 88.91 408.99 91.46 399.98 92.36 396.8 93.24 393.62 93.9 390.39 94.17 390.06 94.26 389.6 94.15 389.15 94.15 389.15 94.15 389.13 94.14 389.13 94.29 388.33 94.44 387.54 94.56 386.74 95.16 382.6 95.69 378.15 94.29 374.13Z" stroke-width="0" fill="#7C5024"/><path d="M348.98 451.43C348.07 441.53 343.76 432.8 340.16 423.68 336.44 414.27 333.89 404.32 332.87 394.25 332.32 388.83 332.16 383.38 332.45 377.94 332.55 376.19 332.68 374.45 332.85 372.71 333.1 372.74 333.36 372.71 333.58 372.55 333.95 372.27 334.12 372.04 334.29 371.62 334.31 371.56 334.35 371.5 334.36 371.44 334.33 371.58 334.28 371.63 334.36 371.46 334.48 371.2 334.61 370.95 334.74 370.69 335.02 370.15 335.3 369.62 335.64 369.12 335.72 369 335.8 368.89 335.89 368.77 335.91 368.74 335.97 368.69 335.99 368.64 335.99 368.64 336 368.63 336.01 368.62 336.15 368.45 336.29 368.28 336.43 368.1 336.48 368.04 336.52 367.98 336.57 367.91 336.57 367.91 336.57 367.91 336.57 367.9 336.71 367.6 337.06 367.37 337.22 367.08 337.33 366.8 337.36 366.72 337.32 366.87 337.3 366.93 337.3 366.94 337.33 366.89 337.37 366.85 337.43 366.75 337.46 366.71 337.57 366.54 337.61 366.36 337.61 366.18 337.69 365.96 337.71 365.72 337.55 365.52 337.39 365.33 337.18 365.29 336.95 365.29 336.77 365.24 336.58 365.22 336.37 365.29 336.25 365.34 336.13 365.39 336.01 365.44 335.98 365.45 335.95 365.46 335.92 365.48 335.85 365.51 335.86 365.5 335.96 365.45 335.65 365.45 335.24 365.85 335 366.03 334.44 366.46 333.97 366.94 333.54 367.49 333.51 367.53 333.48 367.57 333.45 367.6 333.79 365.39 334.17 363.17 334.02 360.94 333.99 360.46 333.37 360.26 333.11 360.69 330.73 364.59 330.2 369.86 329.64 374.32 329.02 379.26 328.86 384.28 329.01 389.26 329.32 399.24 331.05 409.25 334.14 418.74 337.29 428.44 342.47 437.55 344.28 447.66 346.03 457.45 344.65 467.49 343.49 477.26 342.21 488.04 341.28 499.16 344.26 509.75 344.85 511.86 348.13 510.97 347.55 508.84 342.35 489.87 350.73 470.6 348.97 451.42Z" stroke-width="0" fill="#7C5024"/><path d="M410.79 449.24C400.69 451.76 390.56 454.19 380.41 456.52 373.84 458.03 367.26 459.49 360.67 460.88 357.3 461.59 353.9 462.22 350.55 463.05 350.07 463.17 345.71 463.89 346.71 465.47 347.8 467.2 350.57 466.2 352.25 465.96 355.67 465.46 359.06 464.77 362.45 464.13 369.08 462.88 375.7 461.59 382.29 460.19 392.28 458.08 402.24 455.76 412.16 453.31 411.73 452.02 411.27 450.66 410.79 449.24Z" stroke-width="0" fill="#7C5024"/><path d="M4.22 454.69C8.05 455.39 11.89 456 15.74 456.57 23.31 457.69 30.88 458.61 38.49 459.37 53.92 460.9 69.71 462.64 85.22 462.22 88.07 462.14 88 457.83 85.22 457.58 69.86 456.2 54.4 456.02 39.02 454.67 31.43 454.01 23.84 453.27 16.26 452.52 12.39 452.14 8.52 451.73 4.64 451.35 3.59 451.25 2.55 451.14 1.52 451.04 1.42 452.12 1.33 453.16 1.24 454.16 2.22 454.34 3.21 454.52 4.21 454.7Z" stroke-width="0" fill="#7C5024"/><path d="M180.04 200.3C181.12 197.98 216.51 196.62 219.93 200.09 223.35 203.56 214.36 219.64 199.31 218.56 183.69 217.44 177.95 204.8 180.04 200.3Z" stroke-width="0" fill="#222859"/><path d="M215.19 212.48C205.99 207.29 194.05 207.45 184.9 212.66 188.12 215.67 192.86 218.1 199.32 218.57 205.99 219.05 211.46 216.15 215.2 212.48Z" stroke-width="0" fill="#ED6C6B"/><path d="M180.04 200.3C179.76 200.9 179.63 201.64 179.64 202.48 181.83 204.25 185.41 204.51 188.44 204.42 199.14 204.08 209.84 203.73 220.54 203.39 220.78 201.96 220.6 200.78 219.93 200.09 216.51 196.62 181.12 197.98 180.04 200.3Z" stroke-width="0" fill="#FFFFFF"/></g></svg>