<svg viewBox="0 0 61.57 45.6" xmlns="http://www.w3.org/2000/svg" xmlns:xlink="http://www.w3.org/1999/xlink" id="Isolation_Mode" overflow="hidden"><style>
.MsftOfcThm_Background1_Fill_v2 {
 fill:#FFFFFF; 
}
</style>
<defs></defs><path d="M20.81 32.53C23.04 30.5 24.41 29.34 25.68 28.08 33.94 19.86 42.17 11.63 50.41 3.39 53.16 0.65 56.03-1.72 59.82 1.68 62.55 4.13 62.08 7.49 58.45 11.14 48 21.64 37.53 32.11 27.01 42.54 22.94 46.58 20.35 46.61 16.36 42.73 11.71 38.21 7.15 33.59 2.57 28.98-0.11 26.29-1.22 23.05 1.79 20.23 4.63 17.57 7.94 18.31 10.56 21.15 13.93 24.81 17.22 28.54 20.8 32.52Z" class="MsftOfcThm_Background1_Fill_v2" stroke-width="0" fill="#FFFFFF"/></svg>