<svg viewBox="0 0 86.5 86.62" xmlns="http://www.w3.org/2000/svg" xmlns:xlink="http://www.w3.org/1999/xlink" id="Isolation_Mode" overflow="hidden"><style>
.MsftOfcThm_Background1_Fill_v2 {
 fill:#FFFFFF; 
}
</style>
<defs></defs><path d="M29.8 43.39C20.54 34.32 11.86 26.05 3.46 17.51-2.47 11.47-0.3 2.52 7.37 0.39 11.49-0.75 14.85 0.71 17.75 3.67 26.02 12.12 34.34 20.54 43.38 29.72 50.43 22.46 57.11 15.57 63.8 8.69 65.55 6.9 67.29 5.1 69.11 3.39 73.76-0.96 79.97-1.08 83.85 3.03 87.56 6.97 87.4 13.12 83.19 17.43 75.62 25.18 67.91 32.79 60.26 40.47 59.45 41.28 58.69 42.14 57.35 43.58 64.31 50.44 71.15 57.18 77.99 63.94 79.89 65.82 81.86 67.63 83.63 69.62 87.44 73.9 87.43 79.86 83.74 83.64 79.9 87.57 73.64 87.68 69.36 83.52 61.59 75.97 54.01 68.22 46.33 60.57 45.41 59.65 44.42 58.81 42.82 57.33 34.9 65.45 27.13 73.41 19.36 81.38 18.55 82.21 17.78 83.11 16.91 83.87 12.65 87.55 6.6 87.45 2.88 83.67-0.88 79.86-1.04 73.78 2.92 69.68 9.86 62.48 17.01 55.47 24.11 48.42 25.64 46.9 27.35 45.55 29.81 43.39Z" class="MsftOfcThm_Background1_Fill_v2" stroke-width="0" fill="#FFFFFF"/></svg>