<svg viewBox="0 0 429.48 1178.12" xmlns="http://www.w3.org/2000/svg" xmlns:xlink="http://www.w3.org/1999/xlink" id="Layer_1" overflow="hidden"><defs></defs><g id="Character"><g id="Bottom"><path d="M21.4 1017.59C23.21 980.7 20.87 956.41 22.47 892.39L22.47 892.39C22.83 873.19 23.53 852.62 24.81 834.34 29.12 772.86 38.46 751.84 39.33 739.98 39.33 739.98 41 644.32 45.04 509.79 46.94 446.5 65.09 422.34 79.54 388.76L250.95 391.75C270.05 474.66 276.36 657.96 275.73 743.39 275.41 786.95 255.47 981.49 255.12 986.85 253.88 1005.86 256.67 1016.61 264 1024.61 279.35 1041.37 301.7 1051.96 320.94 1066.58 318.15 1074.06 291.7 1077.33 280.24 1071.63 261.94 1062.52 243.77 1048.63 237.53 1043.93 221.72 1032.02 198.04 1028.35 197.79 1010.24 197.75 1007.99 196.83 1002.13 196.95 1001.77 196.66 991.2 181.13 870.96 176.5 835.04 172.37 803.06 173.27 750.21 173.27 750.21L160.2 619.51C160.2 619.51 146.95 697.12 135.62 750.51 127.22 790.09 109.07 871.75 97.83 914.98 89.83 945.76 80.57 982.51 74.05 1016.36 74.77 1030.03 60.81 1101 57.42 1117.48 54.03 1133.96 18.66 1134.37 16.41 1106.02 14.91 1087.15 20.96 1026.64 21.4 1017.59Z" stroke-width="0" fill="#FFAAA8"/><g><path d="M344.64 1092.67C345.62 1092.7 346.8 1103.69 341.36 1108.2 335.08 1113.41 316.83 1121.73 293.12 1117.95 269.41 1114.16 256.72 1106.33 247.42 1097.97 238.12 1089.61 225.08 1077.82 214.38 1075.11 204.44 1072.59 193.71 1067.69 190.59 1064.46 187.48 1061.23 188.29 1047.28 188.29 1047.28L344.64 1092.67Z" stroke-width="0" fill="#1A2E35"/><path d="M196.14 992.61C196.14 992.61 193.78 993.1 193.08 996.32 192.24 1000.15 193.6 1011.98 191.86 1018.25 189.44 1026.97 187.49 1044.91 188.61 1052.1 189.73 1059.29 205.9 1064.71 216.2 1069.03 226.73 1073.44 238.81 1082.27 249.37 1091.62 260.3 1101.29 283.57 1111.35 299.08 1112.01 322.75 1113.02 338.26 1106.92 343.23 1098.41 349.38 1087.88 348.38 1078.12 321.51 1064.55 316.42 1061.98 298.62 1050.6 292.56 1046.49 286.16 1042.14 280.04 1037.34 274.42 1031.98 271.58 1029.27 268.87 1026.41 266.34 1023.4 264.11 1020.75 260.96 1017.53 259.69 1014.27 259.4 1013.53 259.21 1012.67 258.96 1011.91 258.22 1009.7 257.73 1007.67 257.36 1005.38 256.98 1003.07 256.8 999.71 254.68 998.28 252.25 996.63 247.79 996.7 244.99 996.84 241.46 997.01 233.62 998.55 230.19 999.37 224.07 1000.83 222.36 1002.53 219.88 1006.28 217.98 1009.16 217.6 1012.85 217.37 1016.23 217.26 1017.84 217.25 1019.47 217.19 1021.08 217.17 1021.77 217.42 1023.02 216.48 1022.7 215.58 1022.4 214.64 1019.96 214.32 1019.13 213.61 1017.3 213.18 1015.36 212.4 1013.56 211.51 1011.5 210.5 1009.39 209.17 1007.61 207.93 1005.95 206.57 1004.36 204.98 1003.03 203.54 1001.82 201.67 1001.19 200.4 999.83 198.79 998.11 196.26 993.98 196.15 992.61Z" stroke-width="0" fill="#2B454E"/><path d="M325.83 1066.77C291.48 1068.22 276.68 1092.86 274.87 1106.13 283.28 1109.42 291.99 1111.7 299.07 1112 322.74 1113.01 339.22 1106.95 344.19 1098.43 349.99 1088.49 349.88 1076.81 325.83 1066.77Z" stroke-width="0" fill="#FAFAFA"/><g><path d="M271.01 1069.14C270.64 1069.14 270.27 1068.99 269.96 1068.73 269.26 1068.12 269.19 1067.04 269.79 1066.33 274.72 1060.53 292.12 1049.61 304.54 1051.34 305.46 1051.47 306.1 1052.33 305.98 1053.25 305.86 1054.18 305.04 1054.83 304.1 1054.71 292.5 1053.13 276.24 1063.95 272.33 1068.56 271.99 1068.96 271.51 1069.16 271.02 1069.15Z" stroke-width="0" fill="#F0F0F0"/><path d="M256.48 1059.99C256.11 1059.99 255.74 1059.85 255.43 1059.58 254.73 1058.97 254.66 1057.89 255.26 1057.18 260.2 1051.37 277.6 1040.44 290.01 1042.19 290.93 1042.31 291.57 1043.18 291.45 1044.1 291.33 1045.03 290.52 1045.68 289.57 1045.56 277.98 1043.97 261.71 1054.8 257.8 1059.41 257.46 1059.81 256.97 1060.01 256.49 1060Z" stroke-width="0" fill="#F0F0F0"/><path d="M243.07 1049.63C242.7 1049.62 242.33 1049.48 242.02 1049.22 241.32 1048.61 241.25 1047.53 241.85 1046.82 246.78 1041.01 264.24 1030.1 276.61 1031.83 277.53 1031.95 278.17 1032.81 278.04 1033.74 277.92 1034.67 277.11 1035.32 276.16 1035.2 264.58 1033.62 248.3 1044.44 244.39 1049.05 244.05 1049.45 243.56 1049.65 243.08 1049.64Z" stroke-width="0" fill="#F0F0F0"/><path d="M229.93 1039.28C229.57 1039.28 229.2 1039.14 228.9 1038.88 228.19 1038.28 228.1 1037.2 228.69 1036.48 235.48 1028.24 253.9 1019.67 266.3 1021.39 267.22 1021.52 267.86 1022.38 267.74 1023.3 267.62 1024.23 266.8 1024.86 265.86 1024.76 254.69 1023.21 237.29 1031.35 231.26 1038.66 230.92 1039.08 230.42 1039.28 229.93 1039.27Z" stroke-width="0" fill="#F0F0F0"/></g></g><g><path d="M68.52 1130.33C67.57 1146.76 65.05 1157.65 59.3 1167.28 53.55 1176.91 42.73 1179.93 31.76 1177.1 20.8 1174.27 6.76 1166.72 3.63 1152.54 0.5 1138.36-1.33 1128.65 1.17 1113.41L68.52 1130.32Z" stroke-width="0" fill="#1A2E35"/><path d="M21.72 1010.03C17.2 1010.39 17.17 1033.75 14.55 1055.83 11.74 1079.51 4.78 1089.29 2.27 1108.7-0.6 1130.88 3.01 1140.79 10.65 1154.2 18.29 1167.62 45.36 1180.79 58.72 1161.59 69.61 1145.94 68.87 1128.6 69.1 1106.43 69.33 1083.22 70.84 1067.58 73.28 1050.36 76.09 1030.51 77.97 1018.19 74.05 1016.34 73.75 1018.78 73.45 1021.87 73.13 1024.27 72.73 1027.22 71.85 1033.02 71.85 1033.02 71.39 1034.25 70.2 1035.65 69.79 1033.64 69.51 1032.28 69.65 1030.87 69.79 1029.51 70.46 1023.39 67.42 1022.89 65.79 1022.42 62.24 1021.39 45.36 1018.4 41.98 1018.16 38.53 1017.92 26.61 1017.38 25.07 1019.38 24.02 1020.73 23.87 1022.99 23.55 1025.79 23.16 1029.13 23.09 1031.21 22.31 1030.52 21.38 1029.7 21.46 1023.38 21.52 1021.88 21.58 1020.44 21.65 1017.17 21.67 1015.73 21.69 1014.31 21.65 1011.43 21.74 1010.01Z" stroke-width="0" fill="#2B454E"/><path d="M0.48 1121.55C-0.31 1135.32 2.92 1144.76 8.91 1155.26 16.55 1168.68 45.8 1181.89 59.16 1162.7 65.81 1153.15 67.59 1141.85 68.52 1130.33 60.53 1115.52 13.11 1108.96 0.48 1121.56Z" stroke-width="0" fill="#FAFAFA"/><g><path d="M58.67 1106.2C58.48 1106.18 58.29 1106.13 58.11 1106.04 57.93 1105.95 37.03 1097.16 16.68 1101.93 15.78 1102.12 14.88 1101.57 14.67 1100.65 14.46 1099.73 15.03 1098.82 15.93 1098.61 37.45 1093.58 58.76 1102.59 59.56 1102.97 60.39 1103.38 60.75 1104.39 60.35 1105.24 60.04 1105.9 59.35 1106.27 58.67 1106.2Z" stroke-width="0" fill="#F0F0F0"/><path d="M17.71 1085.4C17.08 1085.33 16.51 1084.9 16.29 1084.25 16 1083.36 16.47 1082.39 17.34 1082.09 37.6 1075.14 60.07 1085.61 60.92 1086.06 61.74 1086.49 62.06 1087.52 61.62 1088.35 61.19 1089.18 60.16 1089.48 59.36 1089.07 59.17 1088.97 37.27 1078.82 18.42 1085.31 18.19 1085.39 17.95 1085.41 17.71 1085.39Z" stroke-width="0" fill="#F0F0F0"/><path d="M18.43 1069.81C17.81 1069.75 17.25 1069.33 17.02 1068.69 16.71 1067.8 17.16 1066.83 18.03 1066.51 40.31 1058.42 61.64 1069.87 62.43 1070.35 63.22 1070.84 63.47 1071.89 62.99 1072.69 62.51 1073.49 61.46 1073.75 60.69 1073.26 60.52 1073.15 39.9 1062.19 19.16 1069.71 18.91 1069.8 18.67 1069.83 18.43 1069.8Z" stroke-width="0" fill="#F0F0F0"/><path d="M19.55 1054.47C18.94 1054.41 18.38 1054 18.15 1053.37 17.83 1052.49 18.26 1051.51 19.13 1051.18 40.01 1043.25 62.97 1054.99 63.83 1055.5 64.63 1055.96 64.9 1057.01 64.44 1057.82 63.98 1058.64 62.96 1058.93 62.15 1058.44 61.95 1058.33 39.69 1047 20.3 1054.36 20.05 1054.45 19.79 1054.49 19.54 1054.46Z" stroke-width="0" fill="#ECECEC"/></g></g><path d="M67.59 388.55C47.25 426.17 34.4 445.3 34.4 547.21 34.4 659.12 35.49 717.8 35.05 731.29 34.61 744.78 22.5 774.6 21.07 841.4 19.85 897.99 19.62 940.93 19.62 940.93 19.62 940.93 25.88 954.42 50.89 956.71 73.97 958.83 90.98 950.13 90.98 950.13 90.98 950.13 120.81 856.83 129.08 816.7 138.64 770.3 158 659.85 158 659.85L169.05 750.12C169.05 750.12 166.31 785.85 171.26 829.57 177.86 887.9 186.49 932.28 186.49 932.28 186.49 932.28 207.47 938.52 227.21 938.24 246.95 937.95 261.83 929.28 261.83 929.28 261.83 929.28 277.1 805.17 279.61 722.81 281.62 656.78 279.9 489.81 275 392.17L67.6 388.55Z" stroke-width="0" fill="#01484D"/><path d="M174.34 526.88 157.99 659.86 169.04 750.13 167.8 660.09 183.61 543.3C199.29 539.49 232.17 525.37 242 498.09 217.81 523.75 174.33 526.87 174.33 526.87ZM102.43 445.62C105.21 434.95 108.13 424.34 111.43 413.66 105.52 423.13 101.08 433.48 97.29 443.98 93.47 454.49 90.48 465.27 87.86 476.12 85.37 487 83.3 497.97 81.88 509.04 80.43 520.09 79.45 531.26 79.68 542.46 82.31 531.59 84.76 520.81 87.2 510.02 89.69 499.25 92.02 488.46 94.6 477.74 97.05 466.99 99.71 456.31 102.43 445.62ZM86.69 437.6C90.23 431.09 93.8 424.56 97.05 417.68 91.49 422.81 86.63 428.57 82.16 434.62 77.66 440.65 73.69 447.08 70.05 453.7 66.52 460.38 63.33 467.26 60.86 474.44 58.36 481.59 56.44 489.02 55.81 496.63L65.83 476.63C69.23 470.08 72.59 463.53 76.13 457.08 79.56 450.56 83.18 444.14 86.68 437.6ZM74.78 832.74C69.23 863.92 64.09 895.18 59.34 926.5 66.49 895.63 73.24 864.7 79.59 833.7 86.03 802.68 92.09 771.73 98.11 740.52 103.74 709.23 107.55 677.71 110.58 646.16 113.68 614.61 115.94 583.01 117.85 551.37 113.53 582.76 109.64 614.2 105.73 645.6 101.71 676.98 97.64 708.34 91.93 739.36 86.07 770.34 80.22 801.57 74.77 832.74ZM243.13 676.11C243.8 691.26 244.68 706.5 244.42 721.48 244.1 736.53 243.19 751.77 242.42 766.94L240.13 812.52C238.58 842.91 237.36 873.33 236.5 903.78 240.04 873.53 243.07 843.23 245.52 812.88 247.99 782.5 250.31 752.25 251.34 721.6 251.27 690.8 248.72 660.55 246.06 630.17 243.31 599.83 239.73 569.57 235.14 539.46L240.69 630.59C241.51 645.77 242.46 660.94 243.13 676.12Z" stroke-width="0" fill="#01363A"/></g><g id="Top"><path d="M97.67 252.55C106.56 258.24 117.29 262.21 127.8 263.46 132.14 263.98 136.25 263.32 140.65 263.94 146.22 264.73 151.82 265.26 157.44 265.49 179.37 266.39 201.49 262.95 222.08 255.3 233.06 251.22 243.71 245.9 252.6 238.27 261.49 230.64 268.52 220.53 271.11 209.11 273.69 197.69 271.43 184.95 263.88 176 258.11 169.15 249.43 164.45 246.11 156.13 244.68 152.56 244.38 148.56 242.58 145.16 238.46 137.39 228.32 135.37 221.64 129.64 214.67 123.67 214 116.09 214.12 107.59 214.25 97.81 214.58 87.7 213.53 77.92 213.3 75.76 212.98 73.61 212.55 71.47 211.03 63.92 208.28 56.43 203.69 50.19 199.55 44.57 195.57 39.86 189.13 37.71 187.06 31.95 184.92 28.35 181.45 24.15 177.6 19.47 172.92 15.49 167.87 12.16 140.48-5.88 105.23-2.67 78.03 13.96 62.38 23.52 46.54 36.84 41.51 55.24 38.95 64.61 38.99 76.07 44.04 84.64 46.69 89.13 51.25 90.85 54.22 94.75 60.08 102.43 56.11 118.88 54.31 127.65 51.21 142.78 49.08 158.19 49.92 173.67 51.78 208.05 69.21 234.33 97.68 252.55Z" id="Hair" stroke-width="0" fill="#591A03"/><g id="Arm"><path d="M215 190.82C200.3 206.17 201.76 246.35 222.37 286.04 241.31 322.53 251.12 336.13 267.33 360.18 281.37 381.01 293.3 383.05 317.63 369.17 355.22 347.73 401.03 303.03 416.1 290.25 420.09 286.87 426.44 278.3 428.13 273.41 430.58 266.3 429.01 258.2 428.66 252.29 428.03 241.61 427.73 230.92 426.99 220.25 426.65 215.4 427.59 209.84 424.33 205.77 423.67 204.95 422.17 204.07 421.29 204.36 421.29 204.36 420.96 199.82 420.87 197.75 420.7 193.95 419.66 186.9 415.1 185.86 411.32 184.99 409.06 193.92 409.06 193.92 409.06 193.92 410.85 185.35 409.2 181.46 407.13 176.61 402.86 173.91 400.34 177.14 397.82 180.37 396.77 184.88 396.77 184.88 395.51 184.29 393.4 184.85 391.8 185.92 387.58 188.76 386.22 194.18 385.17 198.83 383.92 204.33 383.24 209.95 383.14 215.59 383.04 221.3 383.52 227.11 382.09 232.64 381.15 236.28 379.18 239.86 376.21 242.23 372.66 245.07 370.76 250.87 372.67 259.74 373.41 263.2 374.14 270.65 365 276.25 345.79 288.01 305.72 307.55 305.59 306.28 305.59 306.28 287.03 268.62 267.18 235.87 250.6 208.52 235.81 195.48 215.03 190.82Z" stroke-width="0" fill="#FFAAA8"/><path d="M324.67 301.93C328.9 298.35 338.35 290.96 338.35 290.96L338.35 290.96C321.7 299.57 305.65 307.09 305.56 306.28 305.56 306.28 300.36 295.73 292.52 280.94L237.8 314.36C247.69 331.43 255.66 342.9 266.34 358.72 268.49 357.43 270.62 356.37 272.55 355.83 281.18 353.39 287.04 350.62 293.07 346.38 299.09 342.15 304.31 334.33 308.7 325.05 313.1 315.77 320.43 305.51 324.66 301.93Z" stroke-width="0" fill="#FF9090"/><path d="M409.74 249.89C408.73 248.94 407.61 248.08 406.33 247.28 403.28 245.37 399.81 244.1 396.2 243.93 395.87 243.91 396.05 244.52 396.29 244.58 400.54 245.68 404.72 247.8 407.83 250.93 412.38 255.51 413.88 261.61 414.95 267.81 414.99 268.02 415.19 268.3 415.35 268.15 415.4 268.11 415.41 268.04 415.42 267.97 415.98 263.99 415.73 259.2 413.89 255.55 412.76 253.29 411.43 251.46 409.75 249.89Z" stroke-width="0" fill="#FF9090"/><path d="M426.23 208C425.44 206.28 424.3 204.06 421.82 203.86L421.39 196.43C421.15 193.77 420.7 191.06 419.35 188.58 418.67 187.37 417.68 186.2 416.3 185.56 415.08 184.73 412.8 185.21 411.95 186.38 411.3 187.09 410.81 187.85 410.38 188.63 410.45 187.65 410.53 186.67 410.51 185.67 410.58 182.81 409.5 179.82 407.54 177.71 406.58 176.63 405.38 175.65 403.84 175.28 402.26 174.88 400.5 175.8 399.75 177.06 398.14 179.28 397.14 181.78 396.43 184.37 393.07 183.79 390.36 186.14 388.63 188.47 386.79 191.09 385.89 194.16 385.2 197.17 383.83 203.22 383.13 209.41 383.13 215.58 383.36 209.41 384.28 203.28 385.86 197.33 386.63 194.37 387.52 191.38 389.3 188.95 389.89 188.12 390.6 187.37 391.41 186.74 391.83 186.42 392.24 186.13 392.73 185.96 393.26 185.77 393.82 185.66 394.38 185.57 395.48 185.38 396.62 185.34 397.52 186.11 398.3 186.78 398.73 187.79 398.97 188.77 399.03 189.04 399.08 189.31 399.12 189.58 399.39 191.39 399.29 193.3 399.05 195.17 398.36 198.9 397.89 202.84 397.75 206.67 397.58 210.53 397.56 214.39 397.82 218.25L398.84 229.76 398.18 218.23C398.04 214.39 398.18 210.54 398.47 206.72 398.74 202.86 399.3 199.15 400.12 195.33 400.42 193.4 400.6 191.42 400.37 189.41 400.19 187.63 399.38 185.42 397.41 184.45 398.11 182.05 399.12 179.67 400.6 177.69 401.33 176.61 402.46 176.09 403.63 176.36 404.8 176.64 405.86 177.48 406.7 178.47 408.47 180.5 409.37 183 409.28 185.71 409.28 187.07 409.2 188.42 409.05 189.77 408.9 191.1 408.65 192.42 408.51 193.75 408.23 196.46 408.34 199.21 408.42 201.94 408.5 204.7 408.62 207.45 408.77 210.2 409.1 215.61 409.44 221.04 410.26 226.4 409.68 221.01 409.58 215.59 409.49 210.18 409.47 207.81 409.46 205.44 409.49 203.07 409.51 201.69 409.53 200.3 409.57 198.92 409.59 198.23 409.61 197.54 409.64 196.85 409.65 196.51 409.66 196.16 409.69 195.82 409.71 195.55 409.78 195.3 409.79 195.02 409.79 194.63 409.84 194.25 409.9 193.86 410.1 192.65 410.59 191.48 411.1 190.37 411.59 189.3 412.2 188.27 412.98 187.39 414.5 185.45 417.14 187.18 418.24 189.25 419.92 192.41 420.1 195.85 420.44 199.33 420.62 201.2 420.58 203.08 420.6 204.96 420.63 206.9 420.62 208.83 420.66 210.77 420.73 214.64 420.88 218.51 421.23 222.37 421.29 223.02 421.4 223.68 421.42 224.33 421.18 217.84 421.55 211.36 421.99 204.9 422.56 205.02 423.29 205.44 423.74 205.9 424.35 206.59 424.91 207.49 425.3 208.4 426.07 210.27 426.32 212.34 426.4 214.41 426.43 218.6 426.73 222.88 426.97 227.06L428.68 252.29 427.75 227C427.56 222.76 427.31 218.62 427.34 214.37 427.29 212.25 427.06 210.06 426.25 208Z" stroke-width="0" fill="#FF9090"/><path d="M381.2 226.9C378.34 217.94 371.88 215.37 368.78 217.96 365.68 220.55 369.93 231.07 370.44 238.46 370.95 245.85 371.47 280.86 388.42 284.93L388.9 245.08C386.02 243.3 383.42 233.84 381.2 226.9Z" stroke-width="0" fill="#FFAAA8"/><path d="M388.9 245.08C387 243.68 386.11 241.36 385.14 239.29 384.23 237.15 383.44 234.95 382.68 232.76 381.16 228.4 380.24 223.66 377.06 220.37 375.56 218.76 373.5 217.48 371.39 217.56 370.39 217.59 369.31 218.07 368.81 218.79 368.29 219.56 368.24 220.73 368.27 221.82 368.55 226.31 370.05 230.8 370.8 235.42 371.6 244.81 371.72 253.99 373.79 263.05 374.79 267.55 376.18 271.99 378.41 276.01 380.54 280.01 383.85 283.7 388.43 284.93 383.8 283.94 380.18 280.34 377.81 276.35 375.45 272.29 373.97 267.79 372.87 263.26 370.63 254.2 370.31 244.7 369.4 235.64 368.75 231.1 367.33 226.65 367.09 221.84 367.09 220.65 367.09 219.34 367.88 218.15 368.76 216.98 370.07 216.54 371.36 216.48 373.97 216.45 376.17 217.97 377.76 219.72 383.99 227.3 382.78 237.89 388.91 245.07Z" stroke-width="0" fill="#FF9090"/></g><path d="M234.17 326.79C260.81 301.3 287.45 275.8 314.09 250.31 287.8 221.3 255.52 197.75 219.87 181.56 215.22 179.45 210.04 177.42 205.13 178.82 199.53 180.42 196.06 185.97 193.84 191.35 187.25 207.3 186.95 225.31 190.11 242.27 193.27 259.23 199.7 275.4 206.27 291.36" stroke-width="0" fill="#2FC3B0"/><path d="M37.1 457.16C47.63 406.95 63.45 402.19 59.53 364.01 56.36 333.13 40.37 304.24 39.93 284.93 38.85 237.46 54.97 217.51 64.66 209.32L103.81 195.97C111.07 194.35 124.69 191.3 135.71 189.75 160.18 186.3 168.47 190.59 177.62 191.53 182.13 191.99 195.27 187.72 195.27 187.72 208.04 189.89 214.97 190.81 214.99 190.83 214.99 190.83 235.27 208.56 251.62 231.81 264.06 249.49 271.73 264.63 273.43 306.96 276.02 371.53 278.39 388.79 279.74 460.76 253.22 496.23 81.43 508.81 37.09 457.17Z" id="Chest" stroke-width="0" fill="#2FC3B0"/><g id="Head"><g><path d="M180.89 176C179.38 166.25 176.21 132.31 176.21 132.31 176.49 134.83 185.79 143.71 195.98 134.44 208.92 122.68 207.17 106 198.46 98.4 189.29 90.39 176.09 95.91 173.9 111.21 169.37 116.95 162.18 112.5 165.96 96.94 167.35 91.25 162.27 87.75 159.45 83.94 156.61 80.1 155.59 75.02 154.93 70.39 152.98 56.83 148.07 45.04 132.21 45.36 125.63 45.49 119.27 48.01 113.72 51.55 110.96 53.31 107.98 55.43 104.75 54.91 101.53 54.39 99.38 51.45 96.9 49.33 92.97 45.97 87.22 43.92 82.32 46.11 73.76 49.94 69.66 61.45 68.05 69.94 65.41 83.92 64.27 98.24 64.76 112.46 65.99 148.38 76.46 164.29 87.07 171.77 93 175.95 100.76 178.09 114.21 176.99 114.21 176.99 114.46 177.58 115.17 184.16 115.81 190.18 112.51 193.35 103.8 195.95 110.69 206.17 129.39 231.46 180.35 225.28 219.83 220.49 195.26 187.7 195.26 187.7 189.4 187.08 182.6 187.08 180.88 175.98Z" stroke-width="0" fill="#FFAAA8"/><path d="M114.23 177.01C138.36 174.6 160.37 164 167.23 144.22 167.23 144.22 167.37 159.16 154.18 169.39 137.23 182.54 115.2 184.19 115.2 184.19L114.24 177.02Z" stroke-width="0" fill="#FF9090"/><g><path d="M123.74 81.52 138.48 87.6C140.07 83.38 138.06 78.6 133.99 76.93 129.92 75.25 125.33 77.31 123.74 81.53Z" stroke-width="0" fill="#1A2E35"/><path d="M74.69 84.44 90.1 79.92C89 75.58 84.66 73.08 80.41 74.32 76.15 75.57 73.59 80.09 74.69 84.43Z" stroke-width="0" fill="#1A2E35"/><path d="M89.93 97.63C89.9 100.77 86.52 103.28 82.39 103.24 78.25 103.2 74.92 100.63 74.95 97.49 74.98 94.35 78.38 99.27 82.52 99.31 86.66 99.35 89.97 94.49 89.94 97.62Z" stroke-width="0" fill="#1A2E35"/><path d="M137.96 98.75C137.93 101.89 134.55 104.4 130.42 104.36 126.28 104.32 122.95 101.75 122.98 98.61 123.01 95.47 126.41 100.39 130.55 100.43 134.69 100.47 138 95.61 137.97 98.74Z" stroke-width="0" fill="#1A2E35"/><path d="M107.34 88.77 110.34 126.87 89.36 122.04 107.34 88.77Z" stroke-width="0" fill="#FF9090"/><path d="M126.78 130.96C125.74 130.76 124.68 130.99 123.67 131.19 122.68 131.38 121.7 131.65 120.76 132.02 119.32 132.59 117.9 133.24 116.54 133.99 113.84 135.47 110.81 137.54 109.25 140.46 108.8 141.31 110.24 142.4 110.88 141.94 112.23 140.96 113.46 139.79 114.79 138.77 116.09 137.78 117.51 136.95 118.94 136.19 120.32 135.46 121.75 134.89 123.17 134.29 123.93 133.97 124.69 133.64 125.44 133.3 126.14 132.99 126.96 132.78 127.43 132.11 127.73 131.68 127.14 131.03 126.77 130.96Z" stroke-width="0" fill="#C76668"/></g></g></g><path d="M64.67 209.32C22.58 226.26 24.77 270.3 54.63 316.54 81.91 358.78 93.11 371.97 104.63 386.21 128.4 415.59 139.03 414.15 167.23 401.93 205.35 385.41 235.01 364.7 254.57 354.1 269.78 345.86 271.13 347.26 282.94 341.99 297.53 335.48 310.63 304.83 321.92 299.21 321.92 299.21 335.53 292.71 338.36 290.96 337.07 289.69 333.84 287.35 333.45 287.08 330.19 284.81 326.65 282.07 322.41 282.85 321.77 282.97 321.14 283.16 320.49 283.12 319.05 283.03 317.96 281.85 316.87 280.91 313.59 278.06 309 276.78 304.72 277.53 303.64 277.72 302.53 278.03 301.47 277.78 300.79 277.62 300.19 277.24 299.6 276.86 297.5 275.52 295.36 274.16 292.96 273.48 287.69 272 281.99 274.11 277.61 277.38 273.22 280.65 269.79 285 265.89 288.85 263.86 290.86 255.52 301.46 253.28 303.24 242.25 312.04 182.38 329.69 151.46 339.61L104.69 267.18C104.69 267.18 82.36 221.37 64.67 209.31Z" stroke-width="0" fill="#FFAAA8"/><path d="M151.45 339.61C137.13 344.69 129.79 352.02 127.56 358.72 125.33 347.24 138.32 336.58 147.3 333.14L151.46 339.61Z" stroke-width="0" fill="#FF9090"/></g></g><path d="M123.71 338.56C132.13 333.34 141.97 327.51 143.48 317.72 144.52 310.97 141.13 304.41 137.85 298.42 124.72 274.45 111.43 250.25 93.23 229.85 86.87 222.72 79.81 216 71.28 211.71 62.75 207.42 52.53 205.78 43.55 209.01 31.99 213.16 24.33 224.73 21.76 236.74 19.19 248.75 20.95 261.23 23.27 273.29 27.98 297.73 35.12 321.87 46.06 344.28 51.53 355.49 57.9 366.56 65.6 376.41 75.55 389.15 83.24 372.88 90.8 365.08 100.64 354.94 111.71 346.01 123.72 338.56Z" stroke-width="0" fill="#2FC3B0"/></svg>