<svg viewBox="0 0 697 652.28" xmlns="http://www.w3.org/2000/svg" xmlns:xlink="http://www.w3.org/1999/xlink" id="Layer_1" overflow="hidden"><defs><clipPath id="clippath-1"><rect x="309.09" y="294.49" width="16.8" height="87.29" stroke-width="0" fill="none"/></clipPath><clipPath id="clippath-2"><rect x="482.13" y="301.41" width="38.42" height="102.56" stroke-width="0" fill="none"/></clipPath><clipPath id="clippath-4"><rect x="54.97" y="432.5" width="361.02" height="164.27" stroke-width="0" fill="none"/></clipPath><clipPath id="clippath-5"><rect x="206.03" y="432.5" width="82.02" height="149.07" stroke-width="0" fill="none"/></clipPath><clipPath id="clippath-6"><rect x="405.18" y="183.6" width="38.07" height="21.92" stroke-width="0" fill="none"/></clipPath><clipPath id="clippath-7"><rect x="464.61" y="126.62" width="24.52" height="13.95" stroke-width="0" fill="none"/></clipPath><clipPath id="clippath-9"><rect x="491.73" y="18.32" width="29.13" height="28.46" stroke-width="0" fill="none"/></clipPath><clipPath id="clippath-10"><rect x="437.12" y="35.02" width="74.19" height="70.35" stroke-width="0" fill="none"/></clipPath></defs><g><path d="M279.1 339.67C279.1 339.67 268.69 465.8 265.11 472.65 253.02 495.83 169.64 537.43 169.64 537.43L126.27 529.67 96.14 556.38 116.98 571.73 140.6 562C153.71 563.94 166.97 564.71 180.21 564.3 202.47 563.65 313.43 535.89 330.46 505.43 347.5 474.97 347.26 333.48 347.26 333.48L279.09 339.68Z" stroke-width="0" fill="#FCB370"/><path d="M350.67 387.01C350.67 387.01 380.54 275.63 338.36 246.2 296.19 216.77 267.84 369.52 267.84 369.52L350.67 387Z" stroke-width="0" fill="#F36648"/><path d="M330.49 589.72 326.5 443.39 323.74 242.94 409.64 221.63 469.8 221.06 571.55 252.75 575 301.85C575 301.85 571.86 527.88 572.61 534.67 573.53 542.99 599.36 594.64 599.36 594.64 491.92 622.48 329 597.23 330.49 589.72" stroke-width="0" fill="#F36648"/><g opacity="0.2"><g clip-path="url(#clippath-1)"><path d="M325.89 381.78 324.44 294.49 309.09 378.23 325.89 381.78Z" stroke-width="0"/></g></g><g opacity="0.2"><g clip-path="url(#clippath-2)"><path d="M509.33 390.13C506.65 389.69 495.72 386.46 495.72 386.46L520.54 301.41 482.12 394.86 507.14 403.98 509.32 390.14Z" stroke-width="0"/></g></g><path d="M518.88 320.65C518.88 320.65 502.02 460.83 490.29 474.23 470.47 496.88 370.79 558.37 370.79 558.37L319.65 542.11C316.07 541.05 312.17 541.8 309.33 544.1L275.5 571.53 278.89 574.22C280.35 575.38 282.43 575.56 284.08 574.68L289.38 571.85 283.54 577.92 285.49 579.47C287.43 581.01 290.08 581.51 292.49 580.78L307.84 576.17 293.84 586.1C297.11 588.69 301.57 589.5 305.61 588.21L328.06 581.09C343.6 584.17 359.4 585.96 375.26 586.44 401.97 587.3 526.55 539.6 549.07 506.71 571.58 473.82 591.84 339.38 591.84 339.38L518.88 320.64Z" stroke-width="0" fill="#FCB370"/><path d="M588.6 411.52C588.6 411.52 616.24 284.11 574.07 254.68 531.9 225.25 495.73 386.47 495.73 386.47L588.6 411.52Z" stroke-width="0" fill="#F36648"/><path d="M255.53 582.25 333.38 579.95 415.99 577.52C415.99 577.52 415.99 577.56 415.99 577.57 416.13 583.7 409.44 588.84 401.03 589.06L318.49 591.49 271.28 592.88C271.21 592.88 271.13 592.88 271.06 592.88L271.05 592.88 139.66 596.75C131.33 596.94 124.48 592.18 124.34 586.1L255.53 582.23Z" stroke-width="0" fill="#1A2E35"/><path d="M137.23 596.22 283.82 591.9C286.35 591.81 288.33 590.09 288.25 588.06 288.24 587.68 288.15 587.3 287.99 586.95L218.37 439.37C216.59 435.15 211.6 432.37 206.03 432.52L59.35 436.85C56.87 436.92 54.91 438.6 54.97 440.59 54.98 441.01 55.09 441.42 55.27 441.81L124.89 589.39C126.69 593.6 131.67 596.36 137.23 596.24" stroke-width="0" fill="#1A2E35"/><g opacity="0.7"><g clip-path="url(#clippath-4)"><path d="M59.36 436.83 206.04 432.51C211.61 432.36 216.6 435.14 218.38 439.36L285.37 581.37 333.38 579.95 415.99 577.52 415.99 577.57C416.13 583.7 409.44 588.84 401.03 589.06L318.49 591.49 271.28 592.88C271.21 592.88 271.13 592.88 271.06 592.88L271.05 592.88 139.65 596.75C137.01 596.81 134.55 596.33 132.37 595.5 128.93 594.45 126.13 592.26 124.88 589.34L55.26 441.76C55.07 441.37 54.97 440.96 54.96 440.54 54.9 438.55 56.86 436.88 59.34 436.8" stroke-width="0" fill="#FFFFFF"/></g></g><path d="M149.79 513.83C153.17 520.91 159.74 525.65 164.49 524.51 169.25 523.37 170.33 516.79 167.04 509.69 163.75 502.59 157.12 497.96 152.36 499.11 147.6 500.25 146.36 506.57 149.78 513.84" stroke-width="0" fill="#FFFFFF"/><g opacity="0.3"><g clip-path="url(#clippath-5)"><line x1="288.05" y1="581.29" x2="285.37" y2="581.37" stroke="#000000" stroke-width="0" stroke-linecap="round" stroke-linejoin="round" fill="none"/><path d="M218.37 439.36 285.36 581.37 278.57 581.57 206.03 432.51C211.6 432.37 216.6 435.14 218.37 439.36" stroke-width="0"/></g></g><path d="M472.36 231.68C472.36 231.68 456.8 200.89 466.88 149.88 460.71 147 468.87 134.23 468.61 129.13L404.24 177.12C407.23 192.89 404.2 224.13 401.93 237.4L426.75 259.95 472.35 231.67Z" stroke-width="0" fill="#FCB370"/><g opacity="0.2"><g clip-path="url(#clippath-6)"><path d="M405.92 186.57 443.25 183.6C436.96 194.67 432.53 204.39 405.2 205.51 405.2 205.51 404.97 191.85 405.92 186.57" stroke-width="0"/></g></g><path d="M380.21 34.65C368.74 48.17 363.75 87.2 389.91 85.96 416.07 84.72 399.92 11.41 380.21 34.65" stroke-width="0" fill="#591A03"/><path d="M487.87 107.28C473.4 148.35 466.06 171.8 438.86 187.04 324.95 233.26 337.35 38.19 425.43 27.02 470.38 22.52 502.35 66.21 487.88 107.28" stroke-width="0" fill="#FCB370"/><path d="M521.6 55.2C515.7 15.15 450.64 17.16 431.17 24.34 428.26 25.41 457.56 52.33 455.7 50.98L470.22 61.13C490.67 71.49 453.78 104.46 471.36 140.23 510.28 135.2 524.6 84.41 521.6 55.2" stroke-width="0" fill="#591A03"/><path d="M494.45 146.83C483.19 167.81 442.37 173.36 452.97 140.97 461.31 109.1 510.78 109.32 494.45 146.83" stroke-width="0" fill="#FCB370"/><path d="M425.54 102.47C422.74 112.6 412.46 109.46 415.43 99.48 418.23 89.35 428.5 92.49 425.54 102.47" stroke-width="0" fill="#1A2E35"/><path d="M382.14 91.15C379.34 101.28 369.06 98.14 372.03 88.16 374.83 78.03 385.1 81.17 382.14 91.15" stroke-width="0" fill="#1A2E35"/><path d="M396.73 92.71C396.73 92.71 377.14 110.11 370.33 117.53 374.75 124.6 385.71 125.05 385.71 125.05L396.73 92.72Z" stroke-width="0" fill="#FD8735"/><path d="M440.8 85.13C440.08 85.21 439.33 84.91 438.87 84.27 433.37 76.74 425.71 77.01 425.63 77.01 417.32 71.51 434.61 70.33 442.23 81.85 443.19 83.08 442.34 85 440.8 85.13" stroke-width="0" fill="#1A2E35"/><g opacity="0.2"><g clip-path="url(#clippath-7)"><path d="M465.54 140.57C465.45 140.57 465.35 140.56 465.26 140.53 464.77 140.37 464.5 139.85 464.65 139.36 466.62 133.16 473.96 127.1 480.04 126.65 482.87 126.45 486.63 127.24 489.03 132.14 489.26 132.6 489.07 133.16 488.6 133.39 488.13 133.61 487.58 133.43 487.35 132.96 485.79 129.77 483.37 128.27 480.18 128.51 474.86 128.9 468.17 134.44 466.43 139.92 466.3 140.32 465.94 140.57 465.54 140.57" stroke-width="0"/></g></g><path d="M369.04 67.87C367.61 67.16 367.57 64.92 369.01 64.19 379.08 58.68 387.5 63.24 387.9 63.39 390.26 64.63 388.32 68.38 385.95 67.07 384.85 65.29 376.73 65.45 369.03 67.87" stroke-width="0" fill="#1A2E35"/><path d="M504.81 119.28C504.81 119.28 475.94 78.05 440.69 58.83 401.67 37.55 373.07 43.88 373.07 43.88 373.07 43.88 366.38 37.33 370.68 33.62 374.98 29.91 378.98 33.16 378.98 33.16 378.98 33.16 420.84-11.44 470.83 2.81 520.82 17.07 537.46 47.94 535.43 50.18 525.15 61.58 519.25 43.89 519.25 43.89 519.25 43.89 531.4 60.1 517.4 93.21L513.26 106.17C513.26 106.17 516.69 121.3 504.81 119.28" stroke-width="0" fill="#FBA92D"/><path d="M439.85 56.97C434.51 55.16 430.56 49.82 430.39 44.19 430.28 40.48 431.64 36.92 432.58 33.33 433.53 29.74 434.03 25.76 432.34 22.46 430.89 19.64 427.85 17.71 424.69 17.6 421.52 17.49 418.36 19.2 416.71 21.92 417.9 19.69 417.08 16.82 415.42 14.91 413.76 13.01 411.43 11.85 409.16 10.74 405.07 8.75 400.49 6.71 396.13 8.01 391.77 9.31 389.01 13.63 387.49 17.92 385.53 23.45 385.01 29.66 387 35.18 389.67 42.57 396.51 47.83 403.88 50.51 411.26 53.19 419.23 53.67 427.07 54.12" stroke-width="0" fill="#591A03"/><g opacity="0.2"><g clip-path="url(#clippath-9)"><path d="M520.86 46.78C520.86 46.78 515.17 27.82 491.73 18.32L520.86 46.78Z" stroke-width="0"/></g></g><g opacity="0.3"><g clip-path="url(#clippath-10)"><path d="M510.48 105.37C496.38 77.7 466.9 49.76 437.12 35.87L437.51 35.02C467.46 49 497.12 77.1 511.31 104.95L510.48 105.37Z" stroke-width="0"/></g></g><path d="M389.04 140.61C392.1 146.01 394.77 151.63 397.02 157.41 398.08 157.19 399.18 156.99 400.23 156.71 414.73 153.46 420.41 147.19 422.24 141.17 423.08 138.21 423.22 135.1 422.63 132.08 422.34 130.37 421.81 128.71 421.07 127.14 414.4 133.46 401.16 137.53 393.96 139.4 390.82 140.06 389.04 140.61 389.04 140.61" stroke-width="0" fill="#1A2E35"/><path d="M393.81 139.3 396.3 144.2C409.92 141.11 419.1 137.15 422.47 131.98 422.18 130.27 421.65 128.61 420.91 127.04 414.2 133.43 400.99 137.43 393.8 139.3" stroke-width="0" fill="#FFFFFF"/><path d="M400.08 156.61C414.58 153.36 420.26 147.09 422.09 141.07 416.6 142.4 411.39 144.7 406.7 147.85 403.63 150.01 401.32 153.07 400.08 156.61" stroke-width="0" fill="#DC5753"/></g><rect x="0" y="588.28" rx="28.66" ry="28.66" width="697" height="64" stroke-width="0" fill="#591A03"/></svg>