<svg viewBox="0 0 362.7 548.22" xmlns="http://www.w3.org/2000/svg" xmlns:xlink="http://www.w3.org/1999/xlink" id="Layer_1" overflow="hidden"><defs></defs><g><path d="M5.61 474.04 10.63 475.89C16.9 479.81 25.23 477.88 29.15 471.62L95.52 364.32C99.44 358.05 97.51 349.72 91.25 345.8L68.15 336.4C63.76 333.66 58.36 333.78 54.18 336.25 51.81 337.65 50.02 339.85 48.86 342.35L5.99 448.32C2.07 454.59-0.66 470.13 5.6 474.04Z" stroke-width="0" fill="#E07A5B"/><path d="M0 456.25C0 456.25 3.32 444.13 13.67 444.88 13.67 444.88 27.44 443.42 34.44 453.82 34.44 453.82 41.44 464.23 41.6 479.08 41.6 479.08 41.73 491.46 34.83 490.95 34.83 490.95 27.93 490.44 27.8 478.07L24.38 480.29 21.11 497.36C21.11 497.36 31.64 515.45 24.79 519.89 17.94 524.34 0.29 483.47 0.29 483.47L0.01 456.24Z" stroke-width="0" fill="#E07A5B"/></g><path d="M53.41 357.58 86.89 367.54C90.69 368.61 94.68 366.36 95.74 362.56L130.75 248.44C134.62 234.61 126.47 220.12 112.64 216.24L112.64 216.24C98.81 212.37 84.32 220.52 80.44 234.35L48.41 348.72C47.34 352.52 49.59 356.51 53.39 357.57Z" stroke-width="0" fill="#E07A5B"/><path d="M111.42 355.38C111.42 355.38 75.73 535.46 76.85 534.76 77.97 534.06 172.87 547.79 160.15 541.89 157.84 540.82 170.73 469.54 170.73 469.54L178.38 468.6C178.38 468.6 168.75 549.02 177.98 548.21 187.21 547.41 271.67 542.66 271.14 539.43 270.62 536.2 237.95 381.32 237.95 381.32L111.42 355.37Z" stroke-width="0" fill="#021621"/><path d="M127.53 175.42C123.05 176.66 95.74 193.25 95.74 193.25L53.05 276.86 109 324.34 117.97 278.7 88.14 430.53C88.14 430.53 205.94 468.07 257.4 435.84L253.55 292.28 284.82 314.06 304.3 235.7C304.3 235.7 288.6 191.05 207.08 176.24 207.08 176.24 156.18 167.51 127.54 175.41Z" stroke-width="0" fill="#00A99C"/><path d="M141.03 172.99C132.41 183.47 125.55 207.59 159.2 211.68 159.2 211.68 215.24 216.47 213.26 191.51 213.26 191.51 214.95 183.92 209.82 176.81 208.9 176.63 208.01 176.44 207.07 176.27 207.07 176.27 169.74 169.88 141.03 173Z" stroke-width="0" fill="#007F75"/><path d="M145.26 144.02 147.21 187.4C148.12 195.81 155.39 202.09 163.86 201.81L183.2 201.16C192.63 200.84 199.79 192.59 198.74 183.24L197.06 142.88 145.26 144.02Z" stroke-width="0" fill="#E07A5B"/><path d="M147.02 165.67C148.3 165.29 177.21 166.29 181.86 154.91L146.26 154.91C146.26 154.91 147.03 165.67 147.03 165.67Z" stroke-width="0" fill="#A04F3C"/><path d="M339.29 214.02 315.94 300.23C312.07 317.3 296.59 328.7 286.46 322.71L271.23 313.69C264.81 309.89 261.45 302.51 262.8 295.19 265.99 277.91 274.58 245.5 296.77 216.35 298.77 213.73 302.57 204.5 302.57 204.5L339.28 214.01Z" stroke-width="0" fill="#E07A5B"/><g><path d="M131.11 117.23 108.92 112.09 102.81 69.82 113.09 55.72 123.75 64.16 131.11 117.23Z" stroke-width="0" fill="#312838"/><path d="M111.27 31.46 223.39 31.46 223.39 144.56C223.39 150.63 218.46 155.55 212.4 155.55L122.26 155.55C116.19 155.55 111.27 150.62 111.27 144.56L111.27 31.46 111.27 31.46Z" stroke-width="0" fill="#E07A5B" transform="matrix(0.999788 -0.0205934 0.0205934 0.999788 -1.89 3.46)"/><path d="M144.76 81.39C144.18 82 138.24 97.01 135.28 104.56 134.29 107.09 135.55 109.95 138.1 110.9 141.1 112.02 145.21 113.05 149.17 112.37" stroke="#A04F3C" stroke-width="0.78" stroke-linecap="round" stroke-linejoin="round" fill="none"/><path d="M165.46 68.7C170.75 67.64 176.51 69.31 180.4 73.03" stroke="#312838" stroke-width="1.56" stroke-linecap="round" stroke-linejoin="round" fill="none"/><path d="M136.65 67.49C131.42 67.01 126.05 68.22 121.55 70.9" stroke="#312838" stroke-width="1.56" stroke-linecap="round" stroke-linejoin="round" fill="none"/><path d="M220.81 103.86C216.27 100.66 211.64 97.13 209.24 92.11 206.84 87.09 207.48 80.16 212.1 77.06 206.14 72.72 204.2 63.69 207.85 57.28 203.89 53.37 203.2 46.58 206.29 41.95 205.03 42.4 203.76 42.86 202.44 43.12 194.62 44.66 186.3 37.67 186.45 29.68 183.69 33.99 180.69 38.51 176.07 40.69 168.04 44.47 158.05 39.29 153.63 31.58 151.47 36.35 147.09 40.06 142.04 41.38 136.99 42.71 131.36 41.63 127.15 38.53 127.54 45.75 120.04 52.26 112.98 50.83 113.39 58.48 112.96 66.05 108.76 72.46 111.09 77.68 111.33 83.58 109.81 89.1 109.35 90.76 108.72 92.39 108.56 94.11 108.4 95.88 108.76 97.65 108.99 99.41 109.48 103.02 110.16 107.76 109.67 111.37 107.82 112.24 108.03 112.37 106.57 110.93 105.12 109.5 104.08 106.3 103.31 104.41 100.44 97.39 97.58 89.31 100.92 82.5 95 78.21 95.21 67.84 101.29 63.78 96.29 58.13 92.06 48.24 97.24 42.75 98.06 41.89 98.99 41.1 99.55 40.05 100.04 39.14 100.21 38.1 100.44 37.1 102.93 26.5 114.43 18.92 125.11 20.84 126.57 15.56 132.3 11.86 137.69 12.7 139.44 12.97 141.53 13.56 142.75 12.27 143.26 11.73 143.47 10.97 143.75 10.28 145.04 7.1 148.17 4.97 151.46 4.03 154.75 3.09 158.23 3.17 161.65 3.26 166.11 3.37 171.32 3.89 173.67 7.7 176.28 3.69 180.82 1.18 185.52 0.36 190.22-0.46 195.09 0.27 199.65 1.68 205.92 3.62 212.63 8.25 212.37 14.82 218.16 12.13 225.61 13.68 229.85 18.46 234.08 23.24 234.74 30.86 231.4 36.31 236.97 39.28 239.7 46.7 237.39 52.59 244.79 60.27 245.87 73.29 239.84 82.1 242.59 84.71 243.44 89.13 241.87 92.58 240.2 96.23 236.35 98.39 232.52 99.56 228.69 100.73 224.64 101.15 220.91 102.63" stroke-width="0" fill="#001A55"/><path d="M245.42 96.89C242.57 111.05 233.25 123.08 225.88 121.6 218.51 120.12 217.31 105.38 220.17 91.22 223.02 77.06 229.25 66.66 236.62 68.14 243.99 69.62 248.28 82.73 245.42 96.89Z" stroke-width="0" fill="#E07A5B"/><path d="M229.13 100.03C228.47 94.84 231.1 89.53 235.64 86.93 236.03 86.71 235.68 86.1 235.29 86.32 230.55 89.03 227.74 94.6 228.43 100.03 228.49 100.47 229.19 100.48 229.13 100.03L229.13 100.03Z" stroke-width="0" fill="#312838"/><path d="M174.59 85.92C174.25 89.92 171.91 92.99 169.36 92.78 166.82 92.56 165.03 89.14 165.37 85.14 165.71 81.14 168.05 78.07 170.6 78.28 173.15 78.49 174.93 81.92 174.59 85.92Z" stroke-width="0" fill="#312838"/><path d="M166.77 83.07C167.06 82.03 168.02 80.46 169.24 80.82 170.46 81.18 169.67 82.87 169.41 83.74 169.15 84.6 169.53 86.5 168.12 86.18 166.71 85.86 166.49 84.1 166.78 83.06Z" stroke-width="0" fill="#8D7D9D"/><path d="M135.86 87.65C135.52 91.65 133.18 94.72 130.63 94.51 128.09 94.29 126.3 90.87 126.64 86.87 126.98 82.87 129.32 79.8 131.87 80.01 134.41 80.23 136.2 83.65 135.86 87.65Z" stroke-width="0" fill="#312838"/><path d="M128.04 84.81C128.33 83.77 129.29 82.2 130.51 82.56 131.73 82.92 130.94 84.61 130.68 85.48 130.42 86.34 130.8 88.24 129.39 87.92 127.98 87.6 127.76 85.84 128.05 84.8Z" stroke-width="0" fill="#8D7D9D"/></g><path d="M290.98 224.48C290.98 224.48 270.12 258.15 265.35 283.44" stroke="#312838" stroke-width="0.34" stroke-linecap="round" stroke-linejoin="round" fill="none"/><path d="M143.05 206.77C147.55 208.93 164.4 218.03 202.29 205.97" stroke="#312838" stroke-width="0.34" stroke-linecap="round" stroke-linejoin="round" fill="none"/><path d="M125.82 150.86C125.82 150.86 133.47 156.81 153.58 155.84" stroke="#312838" stroke-width="0.34" stroke-linecap="round" stroke-linejoin="round" fill="none"/><path d="M295.4 215.65C295.4 215.65 297.73 185.54 310.43 173.34L312.77 144.29C312.92 142.57 314.37 141.25 316.1 141.27L316.1 141.27C322.56 141.34 327.78 146.13 328.81 152.51 329.93 159.44 330.29 158.35 332.32 170.17 332.32 170.17 362.96 174.3 354.99 208.46 354.99 208.46 355.94 230.96 324.84 226.14 324.84 226.14 298.25 224.31 295.4 215.66Z" stroke-width="0" fill="#E07A5B"/><path d="M353.03 215C353.29 213.53 341.04 212.86 331.86 212.57 327.31 212.42 324.16 217.29 326.01 221.61L326.01 221.61C326.97 223.84 329.07 225.3 331.43 225.37L347.68 225.83C347.68 225.83 351.33 224.53 353.03 215.01Z" stroke-width="0" fill="#E07A5B"/><path d="M356.62 213.02C355.72 213.84 354.55 214.54 353.03 215L328.45 212.9C324.91 212.6 322.29 209.37 322.61 205.68L322.61 205.68C322.94 201.85 326.29 199.08 329.94 199.6L353.65 203C358.32 203.67 360.17 209.76 356.62 213.02Z" stroke-width="0" fill="#E07A5B"/><path d="M362.19 192.08C362.33 192.6 362.45 193.13 362.56 193.68 363.55 198.97 359.35 203.8 354.18 203.36L331.17 201.39C326.76 201.01 323.58 196.86 324.22 192.29L324.29 191.81C324.87 187.7 328.37 184.7 332.36 184.91L354.91 186.09C358.33 186.27 361.28 188.66 362.2 192.08Z" stroke-width="0" fill="#E07A5B"/><path d="M345.29 171.29C345.29 171.29 360.49 170.68 358.29 181.84 358.29 181.84 356.85 187.24 352.84 185.84L332.35 184.88C328.63 184.71 325.95 181.14 326.68 177.34L327.02 175.57C327.63 172.42 330.39 170.23 333.47 170.45L345.29 171.3Z" stroke-width="0" fill="#E07A5B"/><path d="M330.45 213.07C325.9 212.92 324.16 217.29 326.01 221.6L326.01 221.6C326.97 223.83 329.07 225.29 331.43 225.36L347.68 225.82" stroke="#312838" stroke-width="0.2" stroke-linecap="round" stroke-linejoin="round" fill="none"/><path d="M353.03 215 328.45 212.9C324.91 212.6 322.29 209.37 322.61 205.68L322.61 205.68C322.81 203.29 324.2 201.31 326.1 200.29" stroke="#312838" stroke-width="0.2" stroke-linecap="round" stroke-linejoin="round" fill="none"/><path d="M354.17 203.36 331.16 201.39C326.75 201.01 323.57 196.86 324.21 192.29L324.28 191.81C324.86 187.7 328.36 184.7 332.35 184.91" stroke="#312838" stroke-width="0.2" stroke-linecap="round" stroke-linejoin="round" fill="none"/><path d="M352.85 185.84 332.36 184.88C328.64 184.71 325.96 181.14 326.69 177.34L327.03 175.57C327.64 172.42 330.4 170.23 333.48 170.45L345.3 171.3" stroke="#312838" stroke-width="0.2" stroke-linecap="round" stroke-linejoin="round" fill="none"/><path d="M137.48 125.96C137.48 125.96 159.35 137.98 174.3 120.92L137.48 125.96Z" stroke-width="0" fill="#FFFFFF"/></svg>