<svg viewBox="0 0 869.4 1155.25" xmlns="http://www.w3.org/2000/svg" xmlns:xlink="http://www.w3.org/1999/xlink" id="Layer_1" overflow="hidden"><defs></defs><path d="M297.78 447.09C297.78 447.09 192.99 423.92 181.2 296.5 169.41 169.08 250.63 69.97 339.7 63.54 339.7 63.54 422.23-12.4 456.28 1.76 490.34 15.92 482.48 57.1 482.48 57.1 482.48 57.1 532.26 30.07 562.39 54.53 592.52 78.98 565.01 112.45 565.01 112.45 565.01 112.45 609.55 108.59 627.89 139.48 646.23 170.37 587.28 216.7 587.28 216.7 587.28 216.7 629.2 368.58 525.71 431.64 422.23 494.71 297.78 447.08 297.78 447.08Z" stroke-width="0" fill="#001A55"/><path d="M312.74 506.57C312.74 506.57 221.8 525.41 162.81 568.02 103.82 610.62 34.29 790.1 10.42 856.41-26.45 958.82 43.19 1024.37 84.16 1029.28 125.13 1034.2 182.48 958 182.48 958L174.29 1085.81C174.29 1085.81 447.93 1243.11 687.17 1084.17L684.71 970.29C684.71 970.29 769.1 1029.28 808.42 1009.62 863.51 982.07 880.52 903.93 862.49 841.66 844.47 779.39 716.66 577.85 675.69 549.99 634.73 522.13 502 495.92 502 495.92L384.02 486.09 312.74 506.57Z" stroke-width="0" fill="#FFC236"/><path d="M268.5 1019.45 277.51 1027.65 607.69 734.34 598.68 726.14 268.5 1019.45Z" stroke-width="0" fill="#FFFFFF"/><path d="M517.57 1019.45 268.5 1019.45 349.61 726.14 598.68 726.14 517.57 1019.45Z" stroke-width="0" fill="#FFFFFF"/><path d="M526.99 1012.9 277.92 1012.9 359.03 719.59 608.1 719.59 526.99 1012.9Z" stroke-width="0" fill="#FFFFFF"/><path d="M526.58 1027.65 277.51 1027.65 358.62 734.34 607.69 734.34 526.58 1027.65Z" stroke-width="0" fill="#CCD1DD"/><path d="M406.33 684.23 231.34 542.82C231.34 542.82 230.04 536.89 233.88 532.28 237.72 527.67 243.69 527.54 243.69 527.54L418.68 668.95 431.54 693.78 406.33 684.22Z" stroke-width="0" fill="#001A55"/><path d="M321.76 426.28 312.75 506.57C312.75 506.57 417.62 549.17 502.01 495.92L483.17 426.28 321.77 426.28Z" stroke-width="0" fill="#FBBA9C"/><path d="M47.29 860.51C47.29 860.51 162.81 734.34 188.21 702.39 213.61 670.44 229.99 643.4 248.02 622.92 266.04 602.44 316.84 595.88 334.05 595.06 351.26 594.24 381.57 616.36 387.3 623.74 393.03 631.12 392.22 636.85 379.11 638.49 379.11 638.49 390.58 649.96 375.01 658.15 375.01 658.15 379.93 667.16 363.54 670.44 347.15 673.72 337.78 668.19 322.21 676.38 306.64 684.57 173.46 926.88 158.71 948.18 158.71 948.18 57.94 953.1 47.29 860.51Z" stroke-width="0" fill="#FBBA9C"/><path d="M846.73 883.98C815.08 871.74 593.64 844.81 555.44 830.76 527.28 820.41 484.84 778.45 470.49 780.01 446.83 782.58 486.14 824.47 486.14 824.47 486.14 824.47 438.23 799.08 421.89 789.76 405.55 780.44 396.88 796.84 407.32 806.03 417.75 815.22 456.17 841.66 456.17 841.66 456.17 841.66 417.63 820.32 396.53 812.16 375.43 804 377.23 828.32 390.08 835.01 390.08 835.01 380.35 846.28 390.79 855.47 390.79 855.47 387.06 873.1 398.5 879.92 409.94 886.74 479.15 920.55 502.83 920.68 573.8 921.06 719.16 993.01 773.04 1001.08 843.77 1011.67 846.75 883.98 846.75 883.98Z" stroke-width="0" fill="#FBBA9C"/><path d="M483.16 426.28 321.76 426.28 313.74 497.77C319.79 500.94 326.38 503.21 333.07 504.52 347.99 507.43 363.4 506.26 378.49 504.4 401.94 501.51 425.19 496.99 448.01 490.87 460.42 487.54 474.62 483.02 485.27 474.93 488.32 472.62 491.23 470.01 494.45 468L483.16 426.27Z" stroke-width="0" fill="#FF977D"/><path d="M549.7 281.41C554.24 327.72 562.08 475.03 422.39 489.18 282.7 503.33 259.71 363.64 259.71 363.64 259.71 363.64 223.46 369.83 222.58 333.58 221.7 297.33 256.1 298 256.1 298 256.1 298 318.07 258.43 349.01 196.54 349.01 196.54 365.81 221.3 392.33 225.72 418.85 230.14 422.39 205.38 422.39 205.38 422.39 205.38 440.96 229.25 463.06 231.02 485.16 232.79 484.28 212.45 484.28 212.45 484.28 212.45 545.28 236.32 549.7 281.41Z" stroke-width="0" fill="#FBBA9C"/><g><path d="M239.92 325.28C239.92 325.28 239.98 325.33 240.01 325.35 239.99 325.33 239.96 325.31 239.94 325.29 239.94 325.29 239.93 325.28 239.92 325.27Z" stroke-width="0" fill="#FF977D"/><path d="M258.33 333.19C256.9 328.8 254.32 324.65 250.96 321.47 249.15 319.76 247.09 318.22 244.88 317.06 243.72 316.45 242.47 315.81 241.18 315.55 239.53 315.21 237.37 314.9 235.88 315.93 234.64 316.78 233.74 318.37 234.26 319.91 234.77 321.41 235.84 322.37 237.08 323.26 237.07 323.26 237.06 323.24 237.05 323.23 237.07 323.24 237.09 323.26 237.11 323.27 237.15 323.3 237.19 323.34 237.23 323.37 237.29 323.41 237.3 323.42 237.34 323.44 237.63 323.67 237.92 323.92 238.23 324.13 238.61 324.4 239.02 324.63 239.41 324.89 239.59 325.01 239.76 325.14 239.94 325.26 239.89 325.22 239.84 325.18 239.81 325.15 239.85 325.2 239.91 325.23 239.96 325.28 239.99 325.3 240.02 325.32 240.05 325.34 240.42 325.6 240.23 325.49 240.03 325.34 240.3 325.59 240.61 325.82 240.87 326.06 241.56 326.69 242.22 327.36 242.83 328.07 242.88 328.13 243.01 328.28 243.14 328.44 243.21 328.54 243.32 328.67 243.39 328.77 243.18 328.96 242.95 329.13 242.75 329.33 240.62 331.47 239.45 335.2 239.54 338.21 239.67 342.72 242.17 346.58 246.64 347.82 250.74 348.95 255.19 346.7 257.44 343.29 259.36 340.38 259.41 336.41 258.36 333.18Z" stroke-width="0" fill="#FF977D"/></g><path d="M484.28 212.45C484.28 212.45 485.16 232.79 463.06 231.02 440.96 229.25 422.39 205.38 422.39 205.38 422.39 205.38 418.85 230.14 392.33 225.72 365.81 221.3 349.01 196.54 349.01 196.54 324.52 245.52 280.62 280.5 263.37 292.96 280.61 284.97 326.31 261.3 354.78 223.5 354.78 223.5 374.44 239.48 393.49 240.09 412.54 240.7 422.99 227.8 422.99 227.8 422.99 227.8 448.18 243.78 465.39 242.55 482.6 241.32 491.81 229.64 491.81 229.64 491.81 229.64 519.94 238.93 543.41 260.87 526.81 229.11 484.28 212.45 484.28 212.45Z" stroke-width="0" fill="#FF977D"/><path d="M418.68 668.95C418.68 668.95 405.86 670.78 406.33 684.23L431.54 693.79 418.68 668.95Z" stroke-width="0" fill="#FF977D"/><path d="M431.54 693.78 426.83 684.68C425.01 685.83 423.13 687.55 421.69 690.04L431.54 693.77Z" stroke-width="0" fill="#617CB0"/><path d="M49.08 858.55C47.96 859.78 47.29 860.5 47.29 860.5 57.94 953.08 158.71 948.16 158.71 948.16 161.67 943.88 169.39 931.18 179.95 913.56 160.32 913.61 140.77 912.37 121.75 907.72 92.57 900.58 64.33 884.21 49.07 858.54Z" stroke-width="0" fill="#FF977D"/><path d="M846.73 883.98C845.05 883.33 842.79 882.63 840.09 881.9 836.66 892.92 833.08 903.91 828.16 914.34 817.62 936.67 801.15 955.84 782.39 971.89 772.23 980.59 761.36 988.37 750.15 995.68 758.87 998.22 766.61 1000.11 773.02 1001.07 843.75 1011.66 846.73 883.97 846.73 883.97Z" stroke-width="0" fill="#FF977D"/><path d="M489.91 823.63C484.14 819.18 478.98 813.79 474.83 807.81 472.48 804.42 470.4 800.84 468.65 797.11 466.91 793.4 465.9 789.37 464.09 785.71 463.44 784.4 461.24 785.02 461.32 786.46 461.51 790.01 462.93 793.58 464.26 796.84 465.6 800.12 467.14 803.3 468.92 806.36 472.54 812.6 477.09 818.41 482.38 823.32 483.65 824.5 484.97 825.63 486.33 826.72 487.63 827.75 489.35 829.61 491.17 829.19 492.13 828.97 492.69 828.36 492.79 827.41 492.99 825.55 491.18 824.61 489.91 823.63Z" stroke-width="0" fill="#FF977D"/><path d="M461.74 841.83C460.41 839.21 457.05 837.9 454.64 836.42 451.76 834.66 448.9 832.86 446.06 831.05 440.38 827.42 434.71 823.75 429.12 819.98 423.79 816.39 418.38 812.86 413.21 809.03 410.71 807.18 408.22 805.05 406.62 802.33 404.82 799.27 404.92 796.47 405.47 793.1 405.74 791.46 403.85 790.69 402.86 792 399.29 796.68 402.41 803.69 405.72 807.56 410.15 812.74 416.48 816.69 421.93 820.72 428.07 825.26 434.38 829.61 440.8 833.73 444.09 835.84 447.4 837.92 450.73 839.96 453.49 841.65 456.86 844.59 460.22 844.49 461.61 844.45 462.36 843.03 461.75 841.83Z" stroke-width="0" fill="#FF977D"/><path d="M454.41 857.65C447.4 854.84 439.93 852.9 432.79 850.43 425.43 847.88 418.14 845.13 410.96 842.12 404.27 839.33 397.14 836.71 390.98 832.84 387.95 830.94 385.17 828.53 383.51 825.31 381.6 821.6 382.07 818.22 382.64 814.28 382.74 813.58 381.96 812.97 381.38 813.55 376.84 818.02 379.73 826.24 383.17 830.51 384.8 832.53 386.83 834.18 388.98 835.7 384.98 839.04 384.31 846.01 385.85 850.64 386.54 852.73 387.66 854.44 389.02 855.88 388.24 857.47 388.06 859.63 387.92 861.14 387.64 864.07 387.96 867.07 388.8 869.89 390.58 875.93 394.57 880.91 400.05 884 406.96 887.9 414.91 890.31 422.27 893.21 426.21 894.76 430.14 896.34 434.1 897.85 437.52 899.16 441.69 901.69 445.43 900.93 446.22 900.77 446.72 899.65 446.23 898.97 444.29 896.31 440.75 895.53 437.8 894.36 434.52 893.06 431.23 891.79 427.93 890.53 420.93 887.85 413.88 885.27 406.92 882.49 400.98 880.12 395.92 876.78 393.35 870.71 392.27 868.17 391.71 865.4 391.67 862.65 391.65 861.31 391.76 859.97 392.03 858.65 392.04 858.58 392.07 858.52 392.08 858.45 394.05 859.79 396.27 860.85 398.55 861.78 413.67 867.95 428.69 874.38 443.84 880.49 444.89 880.91 445.95 880.18 446.53 879.4 446.8 879.04 446.8 878.63 446.86 878.2 447 877.09 446.01 876.26 445.11 875.9 432.42 870.77 419.6 865.93 406.88 860.89 401.68 858.83 394.38 856.97 391.1 852.04 389.72 849.96 389.17 847.43 389.32 844.96 389.49 842.12 390.82 840.22 392.2 837.87 395.63 839.88 399.32 841.53 402.75 843.15 410.71 846.89 418.8 850.35 426.99 853.53 435.39 856.79 444.33 860.4 453.21 862.08 456.14 862.64 457.13 858.76 454.42 857.67Z" stroke-width="0" fill="#FF977D"/><path d="M391.09 634.47C391.46 633.03 389.9 631.85 388.61 632.56 386.03 633.98 384.02 635.6 380.92 635.7 377.32 635.81 373.92 634.19 370.83 632.52 364.26 628.98 357.91 625.09 351.07 622.07 344.82 619.31 338.32 617.29 331.48 616.74 325.54 616.26 317.61 616.54 313.04 620.92 312.48 621.46 312.89 622.56 313.7 622.51 317.27 622.3 320.71 621.15 324.29 620.94 328.17 620.71 332.05 621.01 335.84 621.82 343.66 623.5 350.92 627.05 357.88 630.89 364.07 634.3 370.47 639.04 377.57 640.24 378.14 640.34 378.76 640.4 379.39 640.44 379.41 640.53 379.39 640.63 379.43 640.72 380.64 643.52 381.73 646.08 380.26 649.09 378.87 651.93 375.62 653.55 372.64 654.05 365.42 655.27 357.49 651.53 351.01 648.79 344.75 646.14 338.54 643.39 331.83 642.06 327.06 641.12 319.02 639.7 315.07 643.36 314.79 643.62 314.93 644.13 315.3 644.22 317.14 644.69 318.99 644.37 320.88 644.33 323.14 644.29 325.37 644.46 327.59 644.86 331.85 645.63 335.96 647.09 339.93 648.82 347.69 652.2 355.37 656.39 363.69 658.24 366.31 658.82 369.1 659.09 371.82 658.88 371.86 669.6 358.89 671.87 350.67 671.69 340.11 671.45 328.96 670.47 318.61 673.21 317.06 673.62 317.39 675.97 318.99 675.98 325.55 676.05 332.09 675.27 338.66 675.39 344.8 675.5 351.02 676.36 357.16 675.79 366.18 674.94 376.68 669.06 375.77 658.61 375.76 658.45 375.69 658.33 375.65 658.2 378.44 657.41 381.01 655.98 383.01 653.57 385.83 650.17 386.78 643.5 383.39 640.25 386.89 639.68 390.19 637.98 391.09 634.48Z" stroke-width="0" fill="#FF977D"/><path d="M386.52 283.21C384.48 281.18 381.87 279.37 379.33 278.02 374.01 275.18 367.82 273.68 361.79 273.75 355.93 273.82 350.23 275.34 345.16 278.28 340.26 281.12 334.63 286.26 334.55 292.27 334.51 295.53 337.61 297.46 340.57 296.86 342.79 296.41 344.46 295.32 346.33 294.11 348.02 293.02 349.83 292.21 351.64 291.35 351.75 291.3 351.84 291.26 351.92 291.22 352.37 291.05 352.82 290.88 353.28 290.73 354.23 290.42 355.19 290.16 356.16 289.92 356.59 289.81 357.02 289.71 357.46 289.61 357.57 289.59 358.09 289.5 358.43 289.43 358.68 289.4 358.97 289.37 359.05 289.37 359.62 289.33 360.19 289.3 360.76 289.29 361.68 289.29 362.58 289.33 363.5 289.39 363.62 289.39 363.66 289.39 363.75 289.4 363.77 289.4 363.77 289.4 363.79 289.41 364.23 289.51 364.69 289.57 365.13 289.67 366.13 289.89 367.13 290.16 368.1 290.48 368.09 290.48 368.6 290.65 368.97 290.78 369.21 290.88 369.61 291.04 369.69 291.08 371.52 291.95 373.21 292.97 374.88 294.11 374.98 294.19 375.09 294.29 375.26 294.43 375.72 294.81 376.21 295.15 376.69 295.5 376.71 295.54 376.73 295.59 376.84 295.74 377.63 296.79 379.13 297.27 380.31 297.72 382.65 298.62 385.44 297.5 387.16 295.91 390.9 292.44 389.83 286.5 386.5 283.18Z" stroke-width="0" fill="#19235A"/><path d="M498.76 281.57C496.73 279.54 494.11 277.73 491.57 276.38 486.25 273.54 480.06 272.04 474.03 272.11 468.17 272.18 462.47 273.7 457.4 276.64 452.5 279.48 446.87 284.62 446.79 290.63 446.75 293.89 449.85 295.82 452.81 295.22 455.03 294.77 456.7 293.68 458.57 292.47 460.26 291.38 462.07 290.57 463.88 289.71 463.99 289.66 464.08 289.62 464.16 289.58 464.61 289.41 465.06 289.24 465.52 289.09 466.47 288.78 467.43 288.52 468.4 288.28 468.83 288.17 469.26 288.07 469.7 287.97 469.8 287.95 470.33 287.86 470.67 287.8 470.92 287.77 471.21 287.74 471.29 287.74 471.86 287.7 472.43 287.67 473 287.66 473.92 287.66 474.82 287.7 475.74 287.76 475.86 287.76 475.9 287.76 475.99 287.77 476.01 287.77 476.01 287.77 476.03 287.78 476.47 287.88 476.93 287.94 477.37 288.04 478.37 288.26 479.37 288.53 480.34 288.85 480.33 288.85 480.84 289.02 481.21 289.15 481.45 289.25 481.85 289.41 481.93 289.45 483.76 290.32 485.45 291.34 487.12 292.48 487.21 292.56 487.33 292.65 487.5 292.8 487.96 293.17 488.45 293.52 488.93 293.87 488.95 293.91 488.97 293.96 489.08 294.11 489.87 295.16 491.37 295.64 492.55 296.09 494.89 296.99 497.68 295.87 499.4 294.28 503.14 290.81 502.07 284.87 498.74 281.55Z" stroke-width="0" fill="#19235A"/><path d="M375.37 326.26C373.62 322.65 370.5 319.68 366.7 318.35 362.19 316.77 357.4 318.35 353.87 321.29 350.82 323.83 348.96 327.74 348.29 331.6 347.69 335.04 347.31 338.68 347.68 342.16 348.36 348.6 350.74 357.29 356.29 361.16 375.05 374.25 380.64 337.06 375.38 326.25Z" stroke-width="0" fill="#19235A"/><path d="M485.98 322.17C484.22 318.56 481.11 315.59 477.31 314.26 472.8 312.68 468.01 314.26 464.48 317.2 461.43 319.74 459.57 323.64 458.89 327.51 458.29 330.95 457.91 334.59 458.28 338.07 458.96 344.51 461.34 353.2 466.89 357.07 485.87 370.31 491.23 332.96 485.98 322.16Z" stroke-width="0" fill="#19235A"/><path d="M425.55 364.34C423.64 364.36 422.26 365.09 420.6 365.91 420.49 365.97 420.37 366.02 420.25 366.08 419.91 366.24 420.02 366.19 420.58 365.95 420.45 366.08 420.05 366.16 419.87 366.23 419.33 366.43 418.79 366.62 418.26 366.82 417.12 367.24 415.95 367.57 414.76 367.8 414.71 367.8 414.53 367.84 414.35 367.87 414.21 367.89 414.02 367.92 413.96 367.92 413.32 367.98 412.68 368.02 412.04 368.02 411.47 368.02 410.89 368.02 410.32 367.97 410.07 367.95 409.81 367.93 409.56 367.91 409.49 367.91 409.51 367.91 409.46 367.91 409.44 367.91 409.46 367.91 409.44 367.91 408.25 367.66 407.04 367.54 405.85 367.27 404.74 367.02 403.7 366.63 402.63 366.28 402.07 366.1 401.48 365.86 400.91 365.71 400.14 365.5 399.4 365.72 398.64 365.83 397.74 365.96 397.05 367.05 397.06 367.9 397.1 369.68 397.94 370.97 399.18 372.2 400.18 373.19 401.47 374.05 402.69 374.77 405.57 376.48 408.72 377.17 412.03 377.46 414.99 377.72 418.07 377.41 420.94 376.65 422.51 376.24 424.06 375.5 425.47 374.69 427.49 373.53 428.98 372.15 429.73 369.88 430.62 367.19 428.24 364.33 425.53 364.36Z" stroke-width="0" fill="#FF977D"/><path d="M442.84 402.88C438.56 402.21 434.1 405.34 430.31 407.02 426.6 408.66 422.4 409.87 418.34 410.09 414.06 410.33 409.84 409.73 405.71 408.6 403.57 408.01 401.55 407.23 399.46 406.48 397.68 405.83 395.37 404.87 393.48 405.5 392.7 405.76 392.36 406.33 392.26 407.11 391.96 409.37 394.03 411.75 395.55 413.21 397.43 415.01 399.95 416.61 402.29 417.73 407.33 420.14 412.75 421.36 418.34 421.29 424.02 421.22 429.48 419.95 434.59 417.48 437.08 416.28 439.63 414.72 441.42 412.58 443.11 410.56 445.16 408.34 444.83 405.51 444.71 404.43 444.09 403.1 442.85 402.9Z" stroke-width="0" fill="#FF977D"/><path d="M379.76 322.19C379.42 320.97 378.8 319.91 377.91 319.01 377.42 318.63 376.94 318.26 376.45 317.88 375.32 317.23 374.11 316.9 372.81 316.89 371.82 316.85 370.89 317.06 370.03 317.51 369.14 317.8 368.36 318.3 367.71 319 367.01 319.65 366.51 320.43 366.22 321.32 365.77 322.18 365.56 323.11 365.6 324.1 365.69 324.74 365.77 325.38 365.86 326.02 366.2 327.24 366.82 328.3 367.72 329.2 368.21 329.58 368.69 329.95 369.18 330.33 370.31 330.98 371.52 331.31 372.82 331.31 373.81 331.35 374.74 331.14 375.6 330.69 376.49 330.4 377.27 329.9 377.92 329.2 378.62 328.55 379.12 327.77 379.41 326.88 379.86 326.02 380.07 325.09 380.03 324.1 379.94 323.46 379.86 322.82 379.77 322.18Z" stroke-width="0" fill="#FFFFFF"/><path d="M490.37 318.09C490.03 316.87 489.41 315.81 488.51 314.91 488.02 314.53 487.54 314.16 487.05 313.78 485.92 313.13 484.71 312.8 483.41 312.79 482.42 312.75 481.49 312.96 480.63 313.41 479.74 313.7 478.96 314.2 478.31 314.9 477.61 315.55 477.11 316.33 476.82 317.22 476.37 318.08 476.16 319.01 476.2 320 476.29 320.64 476.37 321.28 476.46 321.92 476.8 323.14 477.42 324.2 478.32 325.1 478.81 325.47 479.29 325.85 479.78 326.23 480.91 326.88 482.12 327.21 483.42 327.21 484.41 327.25 485.34 327.04 486.2 326.59 487.09 326.3 487.87 325.8 488.52 325.1 489.22 324.45 489.72 323.67 490.01 322.78 490.46 321.92 490.67 320.99 490.63 320 490.54 319.36 490.46 318.72 490.37 318.08Z" stroke-width="0" fill="#FFFFFF"/><path d="M530.71 502.1C526.87 501.23 523.33 500.44 520.13 499.74 518.14 502.07 516.1 504.36 513.95 506.56 501.08 519.69 485.6 530.24 469 538.08 431.44 555.81 385.57 559.07 346.64 543.91 336.43 539.94 326.7 534.58 317.88 528.08 310.64 522.75 304.66 516.14 298.19 510.05 296.16 510.57 293.94 511.15 291.57 511.79 300.38 527.58 319.05 539.49 334.5 547.04 355.46 557.28 378.75 561.8 402 561.72 443.3 561.58 484.99 546.62 515.54 518.53 521.03 513.48 526.09 507.96 530.72 502.11Z" stroke-width="0" fill="#BF9229"/><path d="M696.51 819.5C694.66 810.42 692.72 801.35 690.59 792.33 686.33 774.28 681.68 756.32 676.61 738.48 671.54 720.62 666.05 702.89 660.18 685.28 658.55 680.4 656.83 675.56 655.07 670.73 655.25 670.68 655.43 670.69 655.61 670.6 657.66 669.53 658.73 667.04 659.64 665.04 660.55 663.05 661.1 661.94 662.13 660.01 663.13 658.13 664.36 656.32 665.23 654.38 665.67 653.4 666.25 652.38 666.27 651.29 666.29 650.1 665.58 648.71 664.3 648.55 663.14 648.4 662.15 648.72 661.32 649.55 660.55 650.31 659.75 651.23 659.17 652.15 658.14 653.77 657.19 655.45 656.27 657.13 655.29 658.91 654.37 660.73 653.49 662.56 653.23 663.1 652.96 663.7 652.72 664.32 652.38 663.41 652.06 662.5 651.72 661.59 648.61 653.24 646.09 644.56 640.66 637.41 640.22 636.83 639.11 637.19 639.13 637.94 639.43 646.54 642.58 654.49 645.02 662.68 647.66 671.54 650.19 680.43 652.79 689.3 657.88 706.68 662.65 724.17 667.08 741.73 671.51 759.31 675.64 776.96 679.41 794.69 681.25 803.36 683.1 812.03 684.86 820.72 686.55 829.11 687.29 838.6 692.4 845.7 693.99 847.91 697.99 847 698.67 844.45 700.81 836.32 698.15 827.54 696.51 819.5Z" stroke-width="0" fill="#BF9229"/><path d="M852.16 887.19C850.33 871.65 836.05 859.07 820.74 856.96 818.28 856.62 815.61 859.59 817.99 861.68 823.11 866.16 829.46 868.85 834.7 873.14 841.68 878.86 843.49 885.66 843.41 894.44 843.26 911.67 841.25 929.25 836.07 945.72 831.31 960.84 823.56 975.16 812.52 986.62 807.45 991.88 801.71 996.43 795.41 1000.14 791.83 1002.25 788.14 1004.03 784.31 1005.62 781.52 1006.78 779.75 1006.94 778.53 1009.64 778.21 1010.35 778.36 1011.03 779.01 1011.49 784.03 1014.98 794.23 1008.72 798.92 1006.15 805.84 1002.36 812.2 997.45 817.89 991.99 831.04 979.35 840.08 963.32 845.53 945.99 851.3 927.67 854.42 906.38 852.16 887.2Z" stroke-width="0" fill="#BF9229"/><path d="M190.54 933.07C190.86 929.19 191.14 925.26 191.23 921.37 191.33 917.2 190.3 913.63 189.51 909.61 189.46 909.35 189.13 909.42 189.05 909.61 187.5 913.31 185.79 916.52 185.04 920.54 184.3 924.53 183.77 928.6 183.27 932.63 182.84 936.12 182.39 939.61 181.99 943.11 176.63 943.53 170.71 945.82 165.99 946.53 157.56 947.79 148.9 948.09 140.41 947.35 123.2 945.83 106.12 940.04 91.82 930.31 78.74 921.42 68.27 908.87 61.35 894.69 57.92 887.65 55.39 880.08 53.82 872.41 52.14 864.25 52.64 856.23 52.05 848 51.84 845 47.69 844.29 46.74 847.28 41.87 862.69 46.65 882.01 53 896.28 60.16 912.36 71.64 926.38 85.9 936.67 100.99 947.55 118.93 953.63 137.33 955.59 146.92 956.61 156.58 956.58 166.15 955.39 170.5 954.85 176.36 954.37 181.35 952.69 181.5 953.92 181.81 955.06 182.44 955.98 183.38 957.35 185.21 957.71 186.47 956.5 188.59 954.48 189.05 950.74 189.32 947.5 189.35 947.46 189.39 947.44 189.42 947.4 189.95 946.67 189.89 945.83 189.53 945.12 189.54 945.02 189.55 944.89 189.56 944.79 189.97 940.9 190.21 936.99 190.53 933.09Z" stroke-width="0" fill="#BF9229"/></svg>