<svg viewBox="0 0 332.6 1085.54" xmlns="http://www.w3.org/2000/svg" xmlns:xlink="http://www.w3.org/1999/xlink" id="Layer_1" overflow="hidden"><defs></defs><path d="M27.61 915.04C9.28 919.89 0.59 930.58 0.04 954.48-0.51 978.38 5.12 1008.43 17.17 1017.27 29.21 1026.11 42.28 1019.32 47.51 1008.93 52.75 998.55 65.89 959.59 56.54 944.88 47.19 930.17 27.61 915.03 27.61 915.03Z" stroke-width="0" fill="#531C10"/><path d="M57.41 892.21C57.41 892.21 28.72 912.27 20.3 921.83 11.88 931.39 25.83 958.77 36.7 958.05 47.57 957.34 89.35 936.15 89.35 936.15L57.42 892.2Z" stroke-width="0" fill="#EBBA9D"/><path d="M286.1 530.21C286.1 530.21 308.68 659.46 306.39 730.66 304.1 801.85 332.11 1065.71 332.11 1065.71L43.87 888.23C43.87 888.23 157.35 766.24 176.24 732.41 195.13 698.59 170.67 643.52 170.67 643.52L182.19 539.03 286.1 530.21Z" stroke-width="0" fill="#004254"/><path d="M192.48 1009.68C184 1026.63 186.27 1040.23 203.83 1056.45 221.4 1072.67 247.66 1088.32 262.26 1085.13 276.86 1081.94 280.4 1067.65 276.08 1056.86 271.76 1046.06 251.22 1010.44 234.01 1007.73 216.79 1005.02 192.49 1009.69 192.49 1009.69Z" stroke-width="0" fill="#531C10"/><path d="M184.59 984.27C184.59 984.27 193.62 1018.1 199.71 1029.28 205.8 1040.46 236.31 1036.73 239.36 1026.27 242.41 1015.81 236.81 969.31 236.81 969.31L184.59 984.27Z" stroke-width="0" fill="#EBBA9D"/><path d="M57.95 540.67C57.95 540.67 54.54 566.19 61.38 648.39 68.22 730.6 174.16 988.6 174.16 988.6L250.77 977.65C250.77 977.65 207.71 654.85 205.23 624.86 202.75 594.88 195.24 527.09 195.24 527.09L57.94 540.66Z" stroke-width="0" fill="#004254"/><path d="M131.7 196.67C131.7 196.67 79.71 213.22 56.7 236.71 33.7 260.2 8.47 366.62 9.81 394.35 11.15 422.09 38.08 461.44 70.81 442.04 70.81 442.04 52.17 529.96 47.29 545.4 47.29 545.4 204.98 596.99 298.25 532.85 298.25 532.85 290.44 446.73 282.95 413.49 282.95 413.49 292.54 417.84 310.86 411.24 336.77 401.9 337.57 375.26 320.91 345.51 305.52 318.03 280.01 229.16 261.71 218.4 243.4 207.64 204.23 199.39 204.23 199.39L157.5 190.66 131.7 196.66Z" stroke="#866311" stroke-miterlimit="10" fill="#FFC43A"/><path d="M47.29 545.41C47.29 545.41 204.98 597 298.25 532.86" stroke="#866311" stroke-miterlimit="10" fill="#FFC43A"/><path d="M134.43 192.48C122.78 196.12 121.59 199.2 122.35 205.5 123.11 211.8 157.42 226.42 163.08 228.25 168.74 230.08 178.88 213.83 178.88 213.83 178.88 213.83 192.5 224.37 200.36 223.69 208.22 223 211.31 201.21 207.8 197.92 204.3 194.63 134.42 192.48 134.42 192.48Z" stroke-width="0" fill="#FFFFFF"/><path d="M216.07 17.11C186.74-3.36 156.59 2.44 142.01 9.94 142.48 5.52 142.27 0.74 139.27 0.07 133.53-1.23 128.92 18.74 128.92 18.74 128.92 18.74 115.25 6.21 109.29 9.56 106.22 11.29 110.04 15.8 114.45 19.77 73.04 27.27 61.36 75.46 70.25 122.71 80.27 175.96 131.89 179.31 131.89 179.31 131.89 179.31 141.81 165.11 200.09 161.02 267.67 156.27 262.07 49.22 216.06 17.11Z" stroke-width="0" fill="#722604"/><path d="M136.51 159.88 131.7 196.67C131.7 196.67 169.2 220.31 204.22 199.4L201.2 162.64 136.51 159.88Z" stroke-width="0" fill="#EBBA9D"/><path d="M201.2 162.64 136.51 159.88 132.21 192.77C137.63 195.64 144.01 197.19 150.12 198.17 168.17 201.08 187.83 200.96 203.64 192.23L201.21 162.64Z" stroke-width="0" fill="#EB977D"/><path d="M98.26 109.64C98.26 109.64 80.89 108.45 83 122.81 85.12 137.17 95.39 137.63 100.6 136.29 100.6 136.29 113.33 192.3 170.44 194.14 228.97 196.02 245.25 134.58 229.56 79.21 229.56 79.21 165.35 81.51 142.05 60.08 142.05 60.08 121.43 105.16 98.26 109.65Z" stroke-width="0" fill="#EBBA9D"/><path d="M99.81 125.22C99.22 123.04 97.71 121.46 95.99 120.09 95.19 119.45 94.32 118.91 93.4 118.46 92.64 118.08 91.98 117.77 91.14 117.65 89.86 117.47 88.79 118.19 88.59 119.46 88.43 120.44 89.13 121.15 89.86 121.66 90.02 121.77 90.17 121.85 90.35 121.93 90.66 122.08 90.7 122.1 90.48 121.99 90.3 121.91 90.3 121.9 90.47 121.99 90.68 122.1 90.88 122.2 91.08 122.32 91.39 122.5 91.68 122.69 91.98 122.89 91.75 123.11 91.54 123.36 91.38 123.64 90.71 124.85 90.39 126.23 90.71 127.6 91.3 130.11 94.2 131.77 96.67 131.08 99.21 130.38 100.49 127.71 99.82 125.22Z" stroke-width="0" fill="#EB977D"/><path d="M229.56 79.2C229.56 79.2 165.35 81.5 142.05 60.07 142.05 60.07 121.43 105.15 98.26 109.64 119.39 110.34 139.17 88.92 145.02 72.35 145.02 72.35 199.92 91.02 229.56 79.2Z" stroke-width="0" fill="#EB977D"/><path d="M94.86 271.27C94.81 271.16 94.63 271.12 94.54 271.21 93.43 272.44 93.31 274.2 92.97 275.78 92.59 277.59 92.18 279.39 91.81 281.21 91 285.1 90.32 289.02 89.59 292.93 88.16 300.63 86.73 308.34 85.24 316.04 83.75 323.74 82.32 331.46 80.78 339.16 79.25 346.79 77.24 354.4 76.16 362.1 76.01 363.15 77.66 363.4 77.96 362.43 80.33 354.87 81.7 346.91 83.39 339.17 85.06 331.52 86.73 323.86 88.21 316.17 89.67 308.61 91.08 301.03 92.36 293.43 93.02 289.51 93.7 285.58 94.22 281.64 94.46 279.8 94.67 277.96 94.89 276.12 95.08 274.52 95.54 272.78 94.87 271.26Z" stroke-width="0" fill="#531C10"/><path d="M285.04 415.97C284.31 412.74 283.43 409.53 282.57 406.33 281.74 403.24 280.89 400.15 280.01 397.07 279.25 394.41 278.63 390.97 277.02 388.68 276.73 388.27 276.07 388.59 276.05 389.03 275.99 390.46 276.49 391.84 276.84 393.22 277.23 394.77 277.63 396.32 278.06 397.86 278.91 400.95 279.73 404.04 280.53 407.14 281.33 410.24 282.05 413.36 282.87 416.46 283.61 419.28 284.04 422.62 285.5 425.16 285.78 425.65 286.53 425.49 286.57 424.92 286.77 422.01 285.67 418.78 285.03 415.96Z" stroke-width="0" fill="#531C10"/><path d="M296.77 517.51C270.11 530.82 241.69 540 212.08 544.31 194.34 546.89 176.46 547.53 158.55 546.91 139.77 546.27 121.02 544.56 102.45 541.74 85.1 539.11 68.02 535.4 50.98 531.35 50.79 532.13 50.6 532.92 50.42 533.66 64.91 537.87 79.74 541.09 94.58 543.62 113.49 546.84 132.59 549 151.75 550.02 169.91 550.98 188.06 550.78 206.13 548.58 223.4 546.48 240.45 542.74 257.02 537.4 270.77 532.97 284.23 527.61 297.15 521.14 297.04 519.99 296.92 518.77 296.79 517.49Z" stroke-width="0" fill="#531C10"/><path d="M208.41 512.18C207.82 501.37 207.17 490.56 206.54 479.76 205.29 458.44 204.13 437.12 202.79 415.82 201.45 394.51 199.68 373.26 197.09 352.05 194.5 330.83 191.8 309.62 189.2 288.4 186.24 264.22 183.61 239.98 180.3 215.85 180.16 214.82 178.36 214.96 178.45 216.01 180.24 237.47 182.8 258.89 185.25 280.28 187.69 301.56 190.31 322.81 193.02 344.05 195.75 365.5 198.08 386.95 199.48 408.53 200.86 429.82 202.07 451.13 203.33 472.42 204.05 484.56 204.74 496.71 205.5 508.85 206.25 520.82 206.64 532.86 207.79 544.8 207.92 546.13 210.16 545.92 210.14 544.59 209.92 533.78 208.99 522.97 208.4 512.17Z" stroke-width="0" fill="#531C10"/><path d="M132.97 247.24 138.02 239.64 221.61 272.96 282.97 238.69 290.55 244.26 220.69 276.06 132.97 247.24Z" stroke-width="0" fill="#D5F2F9"/><path d="M117.87 257.78 131.05 243.76 221.61 272.96 289.91 241.1 302.96 252.66 219.95 297.95 117.87 257.78Z" stroke-width="0" fill="#FFFFFF"/><path d="M110.06 250.54 108.98 388.35 219.92 428.92 309.92 363.16 305.68 243.29 220.14 286.9 110.06 250.54Z" stroke-width="0" fill="#F36648"/><path d="M80.27 426.55C48.74 413.75 50.2 378.96 50.2 378.96 50.2 378.96 93.34 354.69 105.92 345.08 118.5 335.47 128.28 310.07 132.74 306.75 137.2 303.43 140.11 308.26 139.12 312.92 138.12 317.57 135.85 324.52 135.85 324.52 135.85 324.52 150.08 304.41 154.54 301.09 159 297.77 163.6 299.94 162.23 304.18 160.86 308.43 148.72 325.49 148.72 325.49 148.72 325.49 167.61 306.38 170.4 305.33 173.19 304.28 178.62 305.31 176.4 311.09 176.4 311.09 181.76 313.68 177.94 320.17 177.94 320.17 182.17 321.93 179.13 328.45 176.09 334.97 148.09 356.4 143.95 361.31 139.81 366.21 80.27 426.54 80.27 426.54Z" stroke-width="0" fill="#EBBA9D"/><path d="M303.4 341.4C294.33 329.56 288.92 305.05 285.39 301.19 281.85 297.33 278.3 301.28 278.4 305.76 278.5 310.24 279.37 317.07 279.37 317.07 279.37 317.07 269.77 295.94 266.23 292.08 262.69 288.22 258.05 289.41 258.57 293.58 259.08 297.75 267.29 315.69 267.29 315.69 267.29 315.69 253.2 294.66 250.81 293.2 248.42 291.74 243.2 291.73 244.24 297.46 244.24 297.46 238.82 298.91 241.2 305.58 241.2 305.58 236.98 306.46 238.63 313.03 240.29 319.6 262 344.63 265.35 349.66 269.45 355.82 283 395.47 283 395.47 283 395.47 310.55 401.04 320.26 371.32 320.26 371.32 307.53 346.77 303.41 341.39Z" stroke-width="0" fill="#EBBA9D"/><path d="M50.76 378.65C50.4 378.85 50.2 378.97 50.2 378.97 50.2 378.97 49.45 396.9 60.69 411.75 65.41 417.71 71.7 423.04 80.12 426.49 80.17 426.51 80.21 426.53 80.26 426.55 80.26 426.55 80.62 426.19 81.22 425.58 81.45 425.34 81.72 425.07 82.03 424.76 83.16 423.62 84.79 421.97 86.79 419.93 72.68 413.21 57.02 393.68 50.75 378.65Z" stroke-width="0" fill="#EB977D"/><path d="M280.8 389.17C282.14 392.99 282.99 395.48 282.99 395.48 282.99 395.48 310.54 401.05 320.25 371.33 320.25 371.33 320.2 371.23 320.11 371.07 309.18 380.82 295.28 387.09 280.8 389.17Z" stroke-width="0" fill="#EB977D"/><path d="M139.88 309.33C139.82 308.85 139.15 308.91 139 309.29 138.46 310.64 138.24 312.01 137.95 313.42 137.66 314.82 137.32 316.22 136.95 317.6 136.57 318.99 136.19 320.37 135.74 321.73 135.52 322.41 135.27 323.09 135.06 323.77 134.89 324.36 134.65 324.97 134.86 325.57 134.96 325.85 135.24 326.03 135.53 325.88 136.64 325.31 137.04 323.36 137.42 322.27 137.9 320.86 138.34 319.44 138.7 318 139.38 315.23 140.24 312.17 139.88 309.32Z" stroke-width="0" fill="#EB977D"/><path d="M162.39 303.15C162.31 302.68 161.65 302.71 161.5 303.11 160.81 304.99 160.21 306.77 159.13 308.48 158.02 310.25 156.83 311.97 155.67 313.7 154.47 315.48 153.26 317.25 152.03 319.01 150.81 320.75 149.4 322.46 148.39 324.32 147.97 325.1 148.97 326.14 149.65 325.39 151.13 323.77 152.32 321.81 153.55 319.99 154.88 318.04 156.18 316.07 157.47 314.09 158.67 312.25 159.9 310.42 160.94 308.49 161.81 306.88 162.69 305.02 162.39 303.14Z" stroke-width="0" fill="#EB977D"/><path d="M178.8 319.31C179.98 316.67 180.3 313.77 178.18 311.43 177.85 311.07 177.33 311.26 177.13 311.61 177.19 311.38 177.27 311.17 177.31 310.94 177.52 309.86 177.8 308.59 177.18 307.62 177.08 307.47 176.85 307.42 176.74 307.6 176.15 308.6 176.24 309.87 175.9 310.98 175.49 312.34 174.85 313.62 174.08 314.8 172.59 317.09 170.63 319.01 168.67 320.9 166.61 322.87 164.54 324.83 162.47 326.8 161.38 327.83 160.3 328.87 159.21 329.91 158.15 330.93 156.89 331.89 156.09 333.14 155.6 333.91 156.49 334.99 157.33 334.5 158.61 333.75 159.62 332.55 160.68 331.53 161.89 330.36 163.09 329.2 164.29 328.03 166.54 325.84 168.85 323.7 171.03 321.43 172.93 319.46 174.71 317.37 175.93 314.9 176.41 313.92 176.78 312.9 177.05 311.85 177.05 311.96 177.03 312.08 177.1 312.2 179.98 317.01 175.65 321.14 172.59 324.46 168.88 328.49 165.17 332.51 161.49 336.56 160.56 337.59 162.01 339.2 162.96 338.17 167.26 333.49 171.67 328.86 175.78 324.01 176.57 323.08 177.38 321.95 178.08 320.73 178.87 322.16 179.25 323.67 178.74 325.35 178.03 327.7 176.14 329.55 174.51 331.3 172.69 333.25 170.87 335.2 169.08 337.18 168.19 338.17 167.29 339.16 166.4 340.16 165.61 341.04 164.53 341.98 164.21 343.13 164.03 343.75 164.63 344.15 165.18 343.95 166.48 343.47 167.51 341.99 168.44 341.01 169.52 339.87 170.61 338.74 171.68 337.6 173.79 335.36 175.92 333.12 177.92 330.79 179.51 328.93 180.89 326.78 181.01 324.26 181.11 322.37 180.47 320.33 178.79 319.34Z" stroke-width="0" fill="#EB977D"/><path d="M257.4 319.81C256.48 318.56 255.59 317.28 254.7 316 252.96 313.49 251.37 310.89 249.79 308.28 248.27 305.75 246.79 303.19 245.48 300.54 244.78 299.12 244.06 297.39 244.44 295.77 244.63 294.99 245.1 294.28 245.75 293.82 246.35 293.4 246.98 293.46 247.65 293.24 248.06 293.11 248.22 292.55 247.82 292.3 245.82 291.05 243.63 293.81 243.27 295.55 243.2 295.88 243.19 296.21 243.18 296.54 241.37 296.75 240.08 299.73 239.7 301.16 239.32 302.6 239.29 304.06 239.48 305.5 238.01 306.56 237.15 308.65 236.91 310.33 236.58 312.63 237.27 314.8 238.48 316.74 239.88 318.99 241.59 321.06 243.17 323.18 244.07 324.39 244.97 325.6 245.87 326.81 246.8 328.06 247.67 329.48 248.79 330.56 249.19 330.95 249.84 330.52 249.59 330 248.52 327.77 246.73 325.73 245.31 323.71 243.85 321.62 242.36 319.55 240.93 317.44 239.75 315.7 238.66 313.8 238.76 311.63 238.8 310.66 239.05 309.69 239.47 308.82 239.63 308.5 239.84 308.22 240.04 307.94 240.15 308.27 240.23 308.61 240.36 308.94 241.5 311.87 243.31 314.53 245.11 317.09 247.14 319.98 249.34 322.74 251.69 325.37 252.4 326.16 253.63 325.04 252.9 324.26 248.97 320.04 245.17 315.36 242.46 310.25 241.85 309.1 241.32 307.86 240.98 306.59 241.03 306.51 241.1 306.44 241.15 306.36 241.46 305.84 241.17 305.29 240.71 305.1 240.59 304.21 240.55 303.31 240.69 302.4 240.88 301.23 241.3 300.08 241.98 299.11 242.33 298.61 242.83 298.2 243.24 297.74 243.63 300.35 245.31 303.02 246.41 305.16 248.13 308.52 250.06 311.75 252.18 314.88 253.17 316.34 254.19 317.78 255.26 319.19 256.25 320.49 257.38 322.57 258.84 323.33 259.13 323.48 259.56 323.27 259.45 322.9 259.13 321.71 258.09 320.77 257.38 319.8Z" stroke-width="0" fill="#EB977D"/><path d="M267.4 313.45C266.96 312.34 266.54 311.23 266.08 310.12 265.17 307.92 264.2 305.75 263.26 303.56 262.3 301.33 261.21 299.12 260.41 296.82 259.68 294.73 259.37 292.37 260.68 290.43 261.13 289.76 260.12 289.14 259.64 289.76 256.65 293.61 259.51 298.59 261.07 302.41 262.11 304.93 263.14 307.44 264.19 309.96 264.71 311.22 265.27 312.45 265.83 313.69 266.33 314.81 266.7 316.06 267.44 317.04 267.85 317.59 268.61 317.04 268.52 316.47 268.36 315.41 267.79 314.43 267.4 313.43Z" stroke-width="0" fill="#EB977D"/><path d="M280.99 301.12C281.27 300.84 281.14 300.2 280.67 300.23 279.21 300.32 278.23 301.57 277.67 302.82 276.89 304.55 276.89 306.54 276.83 308.4 276.72 311.95 276.69 315.99 278.55 319.15 278.76 319.5 279.13 319.68 279.53 319.6 279.69 319.57 279.81 319.5 279.93 319.39 280.14 319.2 280.3 318.83 280.2 318.54 279.13 315.55 278.6 312.6 278.57 309.43 278.55 307.85 278.48 306.18 278.78 304.63 279.08 303.07 279.93 302.21 281.01 301.12Z" stroke-width="0" fill="#EB977D"/><path d="M82.15 426.47C79.83 425.58 77.41 425.03 75.11 424.02 72.86 423.02 70.67 421.78 68.69 420.32 64.6 417.29 61.1 413.41 58.43 409.08 52.6 399.65 51.09 388.27 51.78 377.38 51.86 376.08 50.51 375.44 49.43 375.88 46.19 377.22 42.83 378.27 39.57 379.58 36.55 380.79 33.27 381.92 30.64 383.88 30.23 384.19 30.64 384.77 31.07 384.7 34.36 384.16 37.56 382.66 40.73 381.64 43.27 380.82 45.85 380.02 48.46 379.38 47.88 390.45 50.56 401.73 56.67 411.04 59.54 415.42 63.14 419.25 67.35 422.36 70.51 424.7 74.3 427.14 78.25 428.36 78.28 428.61 78.37 428.83 78.49 429.04 75.23 435.12 70.44 440.43 64.2 443.51 60.52 445.32 56.43 446.35 52.32 446.36 50.23 446.36 48.14 446.2 46.1 445.75 44.29 445.35 42.57 444.45 40.73 444.2 40.51 444.17 40.42 444.45 40.54 444.6 41.92 446.27 44.45 447.13 46.47 447.76 48.86 448.5 51.34 448.87 53.85 448.87 58.85 448.85 63.74 447.53 68.07 445.02 72.16 442.66 75.74 439.39 78.55 435.59 79.92 433.74 81.21 431.71 82.14 429.6 82.23 429.39 82.29 429.18 82.34 428.97 83.28 428.52 83.29 426.89 82.15 426.46Z" stroke-width="0" fill="#531C10"/><path d="M321.34 369.24C321.1 368.64 320.32 368.77 319.99 369.18 318.83 370.6 318.52 372.69 317.9 374.38 317.18 376.31 316.27 378.14 315.16 379.88 312.97 383.29 310.11 386.24 306.72 388.47 303.11 390.85 299.02 392.55 294.83 393.55 292.8 394.03 290.72 394.35 288.65 394.6 286.4 394.86 284.09 394.74 281.86 395.11 281.16 395.23 281.16 396.27 281.8 396.47 286.17 397.89 291.68 397.16 296.07 396.17 300.71 395.12 305.09 393.27 308.97 390.51 312.53 387.98 315.68 384.74 318 381.03 319.89 378.02 322.82 372.88 321.36 369.24Z" stroke-width="0" fill="#531C10"/><path d="M221.58 413.83C221.6 409.39 221.61 404.95 221.65 400.51 221.74 391.5 221.83 382.49 221.91 373.48 222.07 355.72 222.23 337.97 222.15 320.21 222.13 315.1 222.08 309.98 222.04 304.87 222.02 302.46 222 300.04 221.93 297.63 221.85 295.19 222.02 292.62 221.23 290.29 221.07 289.82 220.41 289.73 220.23 290.24 219.59 292.09 219.6 293.98 219.53 295.92 219.44 298.32 219.36 300.72 219.33 303.13 219.26 307.57 219.2 312 219.13 316.44 219 325.45 218.98 334.46 218.93 343.48 218.82 361.51 218.91 379.54 218.97 397.57 218.98 402.68 218.97 407.79 218.95 412.91 218.94 417.81 218.59 422.87 219.16 427.74 219.31 429.02 221.14 428.67 221.28 427.55 221.84 423.06 221.54 418.36 221.57 413.84Z" stroke-width="0" fill="#531C10"/><path d="M147.5 94.86C144.83 94.62 142.11 94.91 139.59 95.84 137.25 96.71 135.3 98.12 133.74 100.08 133.03 100.98 132.52 102.08 132.23 103.18 131.77 104.93 132.48 107.18 134.7 106.86 135.88 106.69 136.41 105.64 137.04 104.78 137.08 104.73 137.26 104.51 137.26 104.5 137.34 104.42 137.42 104.34 137.49 104.25 137.75 103.97 138 103.69 138.28 103.42 138.44 103.28 138.6 103.13 138.76 103 138.79 102.97 139 102.82 139.1 102.75 139.18 102.7 139.29 102.63 139.31 102.62 139.49 102.51 139.68 102.39 139.86 102.29 140.2 102.1 140.54 101.93 140.9 101.77 140.98 101.73 141.06 101.7 141.12 101.68 141.33 101.61 141.53 101.55 141.74 101.49 142.19 101.37 142.64 101.27 143.09 101.2 143.29 101.17 143.5 101.14 143.7 101.12 143.16 101.19 143.83 101.12 143.94 101.11 144.92 101.07 145.91 101.11 146.88 101.22 147.09 101.24 147.29 101.27 147.5 101.3 147.49 101.3 147.85 101.36 148 101.38 148.14 101.41 148.35 101.45 148.4 101.46 148.55 101.5 148.7 101.53 148.85 101.58 148.99 101.62 149.12 101.67 149.26 101.72 149.29 101.74 149.28 101.74 149.35 101.78 150.02 102.17 150.72 102.36 151.49 102.43 152.99 102.57 154.66 101.15 154.6 99.59 154.44 95.78 150.55 95.12 147.49 94.85Z" stroke-width="0" fill="#531C10"/><path d="M206.52 91.37C204.54 90.22 202.33 89.5 200.04 89.34 195.84 89.05 190.71 90.9 188.91 94.97 188.2 96.57 190.18 97.67 191.48 97.14 192.15 96.87 192.8 96.54 193.45 96.22 193.73 96.08 194.31 95.84 194.42 95.79 194.41 95.79 194.96 95.59 195.13 95.53 195.18 95.51 195.18 95.51 195.2 95.5 195.22 95.5 195.22 95.5 195.28 95.48 195.99 95.26 196.71 95.1 197.45 95 197.48 95 197.47 95 197.49 95 197.51 95 197.49 95 197.54 95 197.72 95 197.91 94.99 198.09 94.99 198.51 94.99 198.93 94.99 199.35 95.04 199.52 95.06 199.69 95.08 199.85 95.1 199.9 95.1 199.93 95.11 200 95.13 200.37 95.22 200.74 95.32 201.1 95.44 201.44 95.55 201.77 95.69 202.1 95.83 202.14 95.85 202.18 95.87 202.24 95.9 202.41 95.99 202.57 96.08 202.74 96.18 203.04 96.36 203.33 96.56 203.62 96.77 203.69 96.82 203.79 96.9 203.85 96.96 203.99 97.09 204.12 97.22 204.25 97.36 204.51 97.63 204.76 97.92 205.01 98.21 205.12 98.34 205.23 98.47 205.34 98.61 205.34 98.65 205.34 98.66 205.4 98.78 205.96 100 207.61 100.75 208.9 100.4 210.32 100.01 211.18 98.9 211.36 97.46 211.69 94.81 208.55 92.57 206.53 91.4Z" stroke-width="0" fill="#531C10"/><path d="M154.11 123.11C153.82 119.04 151.92 115 148.53 114.39 146.76 114.07 145.11 114.68 143.74 115.79 141.68 117.45 140.89 120.3 140.79 122.84 140.69 125.45 141.03 128.31 142.79 130.37 143.8 131.55 145.2 132.28 146.71 132.56 148.53 132.89 150.31 132.34 151.72 131.13 153.56 129.54 154.34 126.31 154.12 123.11Z" stroke-width="0" fill="#531C10"/><path d="M206.2 118.43C205.91 114.36 204.01 110.32 200.62 109.71 198.85 109.39 197.2 110 195.83 111.11 193.77 112.77 192.98 115.62 192.88 118.16 192.78 120.77 193.12 123.63 194.88 125.69 195.89 126.87 197.29 127.61 198.8 127.88 200.62 128.21 202.4 127.66 203.81 126.45 205.65 124.86 206.43 121.63 206.21 118.43Z" stroke-width="0" fill="#531C10"/><path d="M178.87 132.74C178.22 133.02 177.7 133.53 177.14 133.95 177.11 133.97 176.93 134.11 176.9 134.13 176.8 134.2 176.71 134.26 176.61 134.32 176.37 134.48 176.13 134.62 175.88 134.77 175.36 135.08 174.86 135.4 174.31 135.66 174.15 135.73 173.99 135.81 173.83 135.87 173.8 135.88 173.75 135.9 173.7 135.92 173.42 136.01 173.14 136.09 172.86 136.15 172.62 136.2 172.37 136.24 172.12 136.27 172.12 136.27 172.12 136.27 172.12 136.27 172.1 136.27 172.11 136.27 172.07 136.27 171.91 136.27 171.75 136.27 171.6 136.27 171.35 136.27 171.1 136.24 170.85 136.22 170.81 136.22 170.75 136.21 170.71 136.2 170.58 136.17 170.45 136.14 170.31 136.11 169.8 135.99 169.31 135.86 168.83 135.65 168.5 135.5 167.93 135.33 167.52 135.09 166.85 134.7 165.84 135.26 166.08 136.1 166.26 136.72 166.51 137.43 166.94 137.93 167.39 138.44 168.03 138.89 168.63 139.21 169.91 139.89 171.49 140.12 172.92 140.02 174.52 139.91 176.05 139.47 177.48 138.74 178.24 138.36 178.94 137.82 179.6 137.29 180.25 136.77 180.96 136.22 181.37 135.48 182.33 133.76 180.65 131.95 178.86 132.73Z" stroke-width="0" fill="#EB977D"/><path d="M151.53 153.47C154.41 149.06 193.74 147.52 197.09 149.46 200.44 151.4 194.33 171.03 176.68 172.09 159 173.15 148.95 157.42 151.53 153.47Z" stroke-width="0" fill="#531C10"/><path d="M192.75 163.83C189.42 161.8 185.45 160.59 181.57 160.24 173.72 159.54 165.34 162 159.74 167.32 164.02 170.34 169.75 172.51 176.67 172.09 183.96 171.65 189.25 168.04 192.75 163.82Z" stroke-width="0" fill="#ED6C6B"/><path d="M197.09 149.46C193.74 147.51 154.41 149.06 151.53 153.47 151.17 154.02 151.08 154.82 151.2 155.76 154.5 157.41 158.78 157.22 162.61 156.84 172.17 155.89 181.73 154.94 191.29 153.99 193.45 153.77 195.71 153.5 197.88 153 198.09 151.23 197.84 149.91 197.1 149.48Z" stroke-width="0" fill="#FFFFFF"/><path d="M151.13 112.99C146.94 112.8 146.64 119.3 150.83 119.5 155.02 119.7 155.32 113.19 151.13 112.99Z" stroke-width="0" fill="#FFFFFF"/><path d="M203.74 108.61C199.55 108.42 199.25 114.92 203.44 115.12 207.63 115.32 207.93 108.81 203.74 108.61Z" stroke-width="0" fill="#FFFFFF"/><g><path d="M210.39 626.88C210.39 626.88 210.45 626.86 210.49 626.86 210.49 626.86 210.47 626.86 210.39 626.88Z" stroke="#866311" stroke-miterlimit="10" fill="#FFC43A"/><path d="M211.92 675.21C211.23 667.53 210.6 659.85 209.94 652.17 209.4 645.91 209.55 638.96 208.17 632.72 208.72 632.61 209.28 632.5 209.82 632.33 210.77 632.02 211.73 631.58 212.52 630.97 213.35 630.33 213.95 629.59 214.14 628.53 214.04 628.84 213.94 629.15 213.84 629.46 213.94 629.28 214.05 629.11 214.17 628.94 214.94 627.77 213.83 626.22 212.48 626.52 212.06 626.61 212.55 626.57 212.72 626.63 212.37 626.52 212 626.52 211.64 626.58 211.36 626.62 211.08 626.71 210.81 626.78 210.7 626.81 210.59 626.83 210.49 626.86 210.48 626.88 209.37 627.26 209.69 627.15 209.93 627.07 209.5 627.21 209.46 627.22 209.32 627.27 209.18 627.3 209.04 627.35 208.98 627.37 208.63 627.49 208.46 627.55 208.39 627.57 208.22 627.63 208.19 627.64 207.91 627.73 207.62 627.82 207.33 627.89 206.72 628.05 206.1 628.17 205.47 628.26 205.36 628.27 205.24 628.29 205.13 628.3 205.1 628.3 205.08 628.3 205.01 628.3 204.71 628.31 204.42 628.32 204.12 628.32 203.54 628.32 202.97 628.37 202.39 628.34 202.23 628.34 201.63 628.24 202.08 628.34 201.76 628.27 201.45 628.16 201.13 628.1 201.2 628.11 200.86 628.04 200.76 628.03 200.72 628.02 200.68 628.01 200.66 628 200.63 628 200.34 627.9 200.5 627.95 200.68 628.01 200.32 627.8 200.48 627.95 199.41 627 197.96 627.78 198.11 629.19 198.43 632.1 201.82 633.02 204.41 633.09 203.97 638.76 204.92 644.8 205.29 650.38 205.74 657.22 206.28 664.06 206.85 670.89 207.92 683.73 209.11 696.55 210.42 709.36 213.13 735.87 216.45 762.31 220.37 788.68 222.62 803.81 225.08 818.9 227.9 833.94 228.36 836.39 232.01 835.51 231.65 833.09 223.9 780.6 216.7 728.06 211.93 675.21Z" stroke-width="0" fill="#00323F"/></g><path d="M105.99 566.49C104.67 567.77 103.75 569.43 102.63 570.89 101.6 572.23 100.5 573.51 99.34 574.73 96.95 577.24 94.32 579.47 91.55 581.56 88.84 583.6 85.91 585.35 82.85 586.83 81.3 587.58 79.77 588.5 78.17 589.12 77.57 589.35 76.95 589.51 76.37 589.64 75.98 589.73 75.59 589.72 75.43 590.17 74.95 591.46 76.65 592.6 77.73 592.78 79.45 593.05 81.65 592.3 83.25 591.73 86.95 590.42 90.51 588.59 93.82 586.48 97.14 584.37 100.2 581.86 102.97 579.08 104.39 577.65 105.72 576.15 107 574.59 108.31 572.99 109.73 571.34 110.46 569.39 111.43 566.82 107.93 564.62 105.99 566.51Z" stroke-width="0" fill="#00323F"/><path d="M287.97 582.34C285.13 580.34 281.29 580.22 278.04 579.24 274.72 578.24 271.6 576.77 268.67 574.93 265.71 573.08 263.12 570.82 260.72 568.29 259.56 567.07 258.47 565.76 257.5 564.38 256.45 562.88 255.6 561.36 254.11 560.24 253.32 559.64 252.22 560.35 252.16 561.24 251.92 564.95 254.99 568.78 257.14 571.55 259.52 574.61 262.57 577.23 265.77 579.39 269 581.57 272.63 583.25 276.36 584.38 279.88 585.44 284.55 586.61 287.87 584.42 288.63 583.92 288.76 582.88 287.97 582.32Z" stroke-width="0" fill="#00323F"/><path d="M144.95 904.68C143.03 897.1 139.22 889.61 136.36 882.33 133.18 874.26 130.06 866.17 127.08 858.02 124.22 850.19 121.48 842.3 118.77 834.42 117.41 830.48 116.19 826.48 114.75 822.56 113.89 820.22 113.58 817.61 111.12 816.68 110.97 816.62 110.8 816.7 110.71 816.82 109.06 819.22 110.73 822.32 111.48 824.89 112.65 828.88 113.98 832.84 115.27 836.8 117.86 844.72 120.63 852.59 123.46 860.43 126.18 867.96 128.99 875.45 131.9 882.91 134.83 890.45 137.52 898.96 141.75 905.86 142.72 907.45 145.45 906.67 144.95 904.68Z" stroke-width="0" fill="#00323F"/><path d="M104.47 934.79C98.85 925.49 93.06 916.29 87.2 907.15 81.47 898.22 75.67 889.33 69.66 880.59 67 876.72 64.25 872.91 61.45 869.13 60.68 869.97 59.93 870.79 59.2 871.58 61.59 875.45 63.97 879.31 66.41 883.15 72.08 892.09 77.78 901.02 83.34 910.03 88.9 919.05 94.34 928.14 99.72 937.27 100.2 938.08 100.67 938.91 101.15 939.73 102.55 938.73 104 937.69 105.56 936.58 105.19 935.98 104.82 935.38 104.46 934.78Z" stroke-width="0" fill="#00323F"/><path d="M247.33 951.74C237.48 954.48 227.68 957.34 217.75 959.79 206.71 962.52 195.64 965.08 184.48 967.27 178.63 968.42 172.7 969.36 166.8 970.42 167.26 971.58 167.71 972.69 168.14 973.75 173.14 973.07 178.11 972.21 183.03 971.36 194.48 969.39 205.92 967.15 217.21 964.41 227.52 961.92 237.7 959.01 247.92 956.18 247.73 954.76 247.53 953.28 247.33 951.74Z" stroke-width="0" fill="#00323F"/></svg>