<svg viewBox="0 0 222 222.31" xmlns="http://www.w3.org/2000/svg" xmlns:xlink="http://www.w3.org/1999/xlink" id="Isolation_Mode" overflow="hidden"><style>
.MsftOfcThm_Background1_Fill_v2 {
 fill:#FFFFFF; 
}
</style>
<defs></defs><path d="M222 35.02C220.39 42.79 215.63 48.17 209.43 52.86 184.68 71.56 165.35 95.8 143.81 117.79 127.26 134.68 111.06 151.93 94.89 169.19 91.98 172.3 88.59 173.48 84.78 174.73 72.78 178.69 60.8 182.75 49.07 187.42 42.74 189.94 41.12 184.31 37.46 182.18 34.21 180.29 35.8 177.75 36.51 175.26 40.59 161.05 44.51 146.79 48.78 132.63 49.39 130.61 51.43 128.91 53.06 127.34 84.28 97.32 115.66 67.47 146.72 37.29 155.06 29.19 162.69 20.32 170.18 11.41 174.58 6.17 179.29 1.84 185.99 0.02L193.99 0.02C207.34 6.27 217.68 15.34 221.99 30.03L221.99 35.03ZM161.66 42.08C130.17 73.81 98.87 105.34 67.74 136.7 73.6 142.52 79.61 148.48 84.43 153.26 116.11 122.44 148.06 91.35 179.91 60.37 173.53 53.97 167.8 48.23 161.66 42.08ZM191.7 50.72C196.14 46.27 200.67 41.86 205.04 37.3 208.41 33.78 208.57 30.16 205.38 26.68 202.01 23 198.47 19.47 194.8 16.09 191.84 13.36 188.3 13.11 185.32 15.84 180.32 20.44 175.65 25.39 170.87 30.16 177.88 37.08 184.61 43.73 191.69 50.73ZM59.94 150.64C57.97 157.07 56.12 163.11 54.01 170.03 60.75 167.36 66.41 165.12 72.49 162.71 68.18 158.56 64.27 154.79 59.94 150.63Z" class="MsftOfcThm_Background1_Fill_v2" stroke-width="0" fill="#FFFFFF"/><path d="M0 56.03C2.45 46.97 6.31 38.5 14.83 33.94 20.38 30.97 26.88 28.31 33.02 28.15 57.66 27.5 82.33 27.86 106.98 27.9 112.82 27.9 115.98 31.15 115.04 36.04 114.23 40.24 111.1 41.59 107.32 41.69 102.32 41.82 97.32 41.73 92.32 41.73 73.82 41.73 55.31 42.26 36.84 41.55 25.79 41.12 13.36 52.16 13.59 64.99 14.33 105.49 13.88 146 13.86 186.51 13.86 200.24 21.9 208.46 35.85 208.49 68.17 208.57 100.5 208.53 132.82 208.54 141.82 208.54 150.81 208.54 159.81 208.56 173.55 208.59 180.1 202.15 180.11 188.5 180.12 161.49 180.11 134.49 180.11 107.48 180.11 106.15 180.07 104.81 180.13 103.48 180.39 98.09 183.14 95.02 187.47 95.21 191.45 95.39 194.02 98.58 194.03 103.66 194.07 123.33 194.06 143 194.06 162.67 194.06 171.67 194.09 180.67 194.06 189.68 194 210.74 182.76 222.2 161.7 222.25 119.05 222.35 76.39 222.31 33.74 222.25 16.76 222.22 6.55 214.2-0.02 196.1L-0.02 56.03Z" class="MsftOfcThm_Background1_Fill_v2" stroke-width="0" fill="#FFFFFF"/></svg>