<svg viewBox="0 0 377.69 577.12" xmlns="http://www.w3.org/2000/svg" xmlns:xlink="http://www.w3.org/1999/xlink" id="Isolation_Mode" overflow="hidden"><defs></defs><path d="M185.88 413.05C167.19 404.97 138.34 401.69 131.81 387.86 115.76 353.91 121.36 314.61 144.53 284.7 162.2 261.88 187.52 244 211.91 227.58 256.23 197.75 265.09 175.71 241.08 142.73 218.74 112.04 164.15 106.72 134.47 133.29 123.9 142.76 115.34 154.57 106.39 165.73 89.94 186.24 73.91 190.49 50.37 173.17-13.82 125.96-15.7 114.5 39.27 56 93.76-2 206.14-17.62 285.45 21.79 353.97 55.84 389.63 136.26 374.08 222.25 368.24 254.54 350.98 279.67 322.59 295.68 284.44 317.2 246.44 337.48 246.47 390.25 246.47 395.43 233.3 403.36 225.17 405.16 213.6 407.73 201.03 405.81 188.88 405.81 187.88 408.22 186.88 410.63 185.88 413.05Z" stroke-width="0" fill="#FFFFFF"/><path d="M263.99 501.94C264.23 542.61 231.62 576.51 191.66 577.12 150.55 577.75 115.72 543.49 115.18 501.88 114.67 462.42 148.29 427.57 187.93 426.48 228.31 425.37 263.74 460.52 263.98 501.94Z" stroke-width="0" fill="#FFFFFF"/></svg>