<svg viewBox="0 0 108.91 108.91" xmlns="http://www.w3.org/2000/svg" xmlns:xlink="http://www.w3.org/1999/xlink" id="OBJECTS" overflow="hidden"><defs></defs><path d="M97.66 49.73 94.19 36.85 99.81 31.21C101.38 29.64 101.68 27.18 100.5 25.3 98.71 22.47 96.68 19.84 94.44 17.42 92.93 15.79 90.48 15.46 88.56 16.57L81.67 20.56 70.11 13.91 70.11 5.95C70.1 3.73 68.58 1.77 66.41 1.29 63.19 0.56 59.89 0.13 56.55 0 54.33-0.08 52.36 1.42 51.78 3.56L49.73 11.25 36.85 14.72 31.22 9.1C29.65 7.53 27.19 7.23 25.31 8.41 22.48 10.2 19.85 12.23 17.43 14.47 15.8 15.98 15.47 18.43 16.58 20.35L20.57 27.24 13.92 38.8 5.96 38.8C3.74 38.81 1.78 40.33 1.3 42.5 0.56 45.72 0.13 49.02 0 52.37-0.08 54.59 1.42 56.56 3.56 57.14L11.25 59.19 14.72 72.07 9.1 77.71C7.53 79.28 7.23 81.74 8.41 83.62 10.2 86.45 12.23 89.08 14.47 91.5 15.98 93.13 18.43 93.46 20.35 92.35L27.24 88.36 38.8 95.01 38.8 102.97C38.81 105.19 40.33 107.15 42.5 107.63 45.71 108.35 49.01 108.79 52.36 108.91 54.58 108.99 56.55 107.49 57.13 105.35L59.18 97.66 72.06 94.19 77.69 99.81C79.26 101.38 81.72 101.68 83.6 100.5 86.43 98.71 89.06 96.68 91.48 94.44 93.11 92.93 93.44 90.48 92.33 88.56L88.34 81.67 94.99 70.11 102.95 70.11C105.17 70.1 107.13 68.58 107.61 66.41 108.33 63.2 108.77 59.9 108.89 56.55 108.97 54.33 107.47 52.36 105.33 51.78L97.64 49.73ZM59.99 74.99C48.65 78.04 36.98 71.33 33.93 59.98 30.88 48.63 37.59 36.97 48.94 33.92 60.28 30.87 71.95 37.58 75 48.93 78.05 60.27 71.34 71.94 59.99 74.99Z" stroke="#E5FAFF" stroke-width="0" fill="#B2F1FF"/></svg>