<svg viewBox="0 0 427.48 649.51" xmlns="http://www.w3.org/2000/svg" xmlns:xlink="http://www.w3.org/1999/xlink" id="Layer_1" overflow="hidden"><defs></defs><path d="M93.21 463.21 63.08 643.67C63.08 643.67 168.53 659.8 188.35 638.42L198.66 611.03 204.21 639.92C204.21 639.92 304.9 651.8 322.35 626.29L256.54 452.71 93.21 463.22Z" stroke-width="0" fill="#3F2A0B"/><path d="M256.54 452.7 93.21 463.21 83.41 521.88C130.42 521.35 220.35 515.26 266.43 478.79L256.54 452.7Z" stroke-width="0" fill="#201506"/><g><path d="M48.24 508.05C48.24 508.05 46.64 523.4 55.27 541.03 55.27 541.03 62.95 560.16 73.96 563.03L77.7 563.03C77.7 563.03 87.38 568.55 89.28 560.7 89.28 560.7 102.61 566.7 102.6 553.92 102.6 553.92 107.36 559.21 112.55 558.51 112.55 558.51 122.44 556.41 117.61 544.21L108.58 525.87C108.15 525.16 108.7 524.26 109.48 524.38 112.23 524.81 110.2 523.83 114.78 525.02 121.69 526.82 122.94 523.6 123.25 522.09 124.68 515.1 118.62 512.63 114.99 510.19L90.41 491.67C90.41 491.67 55.41 500.56 48.25 508.03Z" stroke-width="0" fill="#FDAD8B"/><path d="M92.19 533.37C92.19 533.37 95.57 549.5 103.78 555.06" stroke="#312838" stroke-width="0.33" stroke-linecap="round" stroke-linejoin="round" fill="none"/><path d="M74.08 534.15C74.08 534.15 77.38 547.61 89.28 560.71" stroke="#312838" stroke-width="0.33" stroke-linecap="round" stroke-linejoin="round" fill="none"/><path d="M62.9 537.97C62.9 537.97 68.73 557.3 77.69 563.02" stroke="#312838" stroke-width="0.33" stroke-linecap="round" stroke-linejoin="round" fill="none"/><path d="M99.34 498.43 90.4 491.69C90.4 491.69 55.4 500.58 48.24 508.05 48.24 508.05 47.74 512.85 48.81 520.17 63.69 520.93 83.89 517.76 99.34 498.43Z" stroke-width="0" fill="#E07A5B" opacity="0.5"/></g><path d="M346.36 259.86 308.84 296.63C308.84 296.63 240.56 209.59 201.54 199.83 201.54 199.83 179.03 184.07 147.51 187.82 147.51 187.82 146.62 185.52 129.14 193.6 104.25 205.11 70.88 229.58 58.14 247.96 44.35 267.86 21.31 337.52 21.31 337.52 14.85 346.84 12.48 358.39 14.76 369.5L32.26 488.3 34.57 504.5C34.57 504.5 48.77 519.28 70.48 511.8 88.6 505.56 97.63 497.94 97.63 497.94L95.92 487.6C118.89 488.92 219.7 492.87 266.08 463.71L260.07 379.16 290.08 388.91C290.08 388.91 313.34 403.92 331.35 387.41L388.38 287.61C388.38 287.61 372.62 261.35 346.36 259.85ZM95.66 389.58 92.51 457.86 85.1 422.3 79.84 390.58 100.28 346.84 95.65 389.58Z" stroke-width="0" fill="#FBA92D"/><path d="M351.99 262.11C351.83 261.57 357.62 251.42 357.62 251.42 357.62 251.42 349.47 243.86 350.03 230.35 350.03 230.35 341.36 207.66 348.72 198.93 352.41 194.55 361.1 196.87 363.37 213.09L375.63 205.65C375.63 205.65 386.99 197.8 391.26 196.21 394 195.19 405.89 192.46 402.52 201.09 402.52 201.09 416.91 194.72 415.6 204.85 415.6 204.85 427.03 205.76 422.53 214.48 422.53 214.48 431.03 213.1 425.78 223.23L405.57 251.93C403.15 254.85 400.7 258.08 397.02 259 394.22 259.7 390.08 261.65 388.38 260.94L379 285.01C379 285.01 355.74 275.07 351.99 262.12Z" stroke-width="0" fill="#FDAD8B"/><path d="M385.7 267.8C376.86 259.67 365.03 257 354.76 256.53 353.33 259.15 351.91 261.84 351.99 262.11 355.74 275.05 379 285 379 285L385.7 267.8Z" stroke-width="0" fill="#E07A5B" opacity="0.5"/><line x1="402.29" y1="229.37" x2="420.59" y2="214.17" stroke="#312838" stroke-width="0.34" stroke-linecap="round" stroke-linejoin="round" fill="none"/><line x1="396.05" y1="220.7" x2="415.59" y2="204.84" stroke="#312838" stroke-width="0.34" stroke-linecap="round" stroke-linejoin="round" fill="none"/><line x1="385.92" y1="213.28" x2="402.51" y2="201.08" stroke="#312838" stroke-width="0.34" stroke-linecap="round" stroke-linejoin="round" fill="none"/><path d="M382.12 211.59C382.12 211.59 396.87 220.01 405.42 231.97" stroke="#312838" stroke-width="0.34" stroke-linecap="round" stroke-linejoin="round" fill="none"/><path d="M333.74 383.23C297.48 389.79 249.19 333.52 249.19 333.52L260.06 379.16 290.07 388.91C290.07 388.91 313.33 403.92 331.34 387.41L333.73 383.22Z" stroke-width="0" fill="#BC7F22"/><path d="M258.82 278.62C258.82 278.62 261.82 298.63 271.33 313.14 271.33 313.14 294.34 345.03 260.32 366.54L260.07 379.17 246.7 384.3 237.2 321.77 258.83 278.62Z" stroke-width="0" fill="#FBA92D"/><path d="M147.51 187.83C147.51 187.83 137.19 189.73 129.14 193.61 129.11 193.65 124.05 222.33 137.64 238.48 150.21 253.41 199.92 251.24 214.38 228.22 217.46 223.31 216.48 214.89 214.38 205.11 207.45 200.65 207.46 201.31 201.54 199.83 201.54 199.83 179.03 184.07 147.51 187.82Z" stroke-width="0" fill="#BC7F22"/><g><path d="M141.33 161.23C141.33 161.23 146.05 200.6 147.64 216.89 147.97 220.26 149.94 223.2 152.91 224.83 159.55 228.49 164.24 237.39 185.39 231.85 193.4 229.75 209.48 219.91 209.66 209.06L210.51 181.33C210.51 181.33 185.72 141.61 141.33 161.23Z" stroke-width="0" fill="#FDAD8B"/><path d="M159.43 188.53C159.43 188.53 167.68 221.15 208.98 212.77L210.93 187.93C210.93 187.93 165.62 192.63 159.43 188.52Z" stroke-width="0" fill="#E07A5B" opacity="0.5"/></g><g><path d="M98.84 121.17C98.84 121.17 98.07 176.33 0 168.18 0 168.18 23.34 59.71 98.84 121.17Z" stroke-width="0" fill="#021621"/><path d="M104.32 116.89C104.32 132.26 104.12 147.86 90.03 147.86 75.94 147.86 53.28 132.26 53.28 116.89 53.28 101.52 64.71 89.06 78.8 89.06 92.89 89.06 104.32 101.52 104.32 116.89Z" stroke-width="0" fill="#FDA200"/><path d="M238.6 104.2C239.09 109.14 239.49 113.9 240.61 118.26 254.11 170.49 236.16 188.87 206.53 199.74 170.87 212.82 127.37 188.63 105.67 152.21 75.88 102.21 106.21 50.1 141.67 36.51 177.14 22.92 232.32 40.94 238.6 104.21Z" stroke-width="0" fill="#FDAD8B"/><path d="M210.44 108.63C212.78 112.55 215.58 116.21 218.76 119.49 221.6 122.42 224.94 125.46 225.32 129.53 225.64 132.98 223.67 136.23 221.45 138.89" stroke="#E07A5B" stroke-width="0.55" stroke-linecap="round" stroke-linejoin="round" fill="none"/><g><path d="M176.55 114.26C176.55 119.03 179 122.89 182.03 122.89 185.06 122.89 187.51 119.03 187.51 114.26 187.51 109.49 185.05 105.63 182.03 105.63 179.01 105.63 176.55 109.49 176.55 114.26Z" stroke-width="0" fill="#312838"/><path d="M185.34 92.47C178.58 91.93 171.87 94.92 167.73 100.27 167.11 101.01 166.6 101.83 165.99 102.6 166.43 101.73 166.87 100.85 167.38 100.02 171.02 94.11 178.54 90.75 185.34 92.48L185.34 92.48Z" stroke-width="0" fill="#312838"/><path d="M186.09 111.69C185.85 110.44 184.88 108.48 183.4 108.79 181.92 109.09 182.68 111.17 182.91 112.22 183.14 113.27 182.49 115.47 184.19 115.24 185.89 115.01 186.32 112.94 186.09 111.69Z" stroke-width="0" fill="#8D7D9D"/></g><g><path d="M224.48 109.6C224.48 113.88 226.68 117.34 229.4 117.34 232.12 117.34 234.32 113.87 234.32 109.6 234.32 105.33 232.12 101.86 229.4 101.86 226.68 101.86 224.48 105.33 224.48 109.6Z" stroke-width="0" fill="#312838"/><path d="M232.8 92.02C230.58 88.18 226.74 85.59 222.22 86.45 221.23 86.56 220.23 86.89 219.26 87.12 219.86 86.79 220.47 86.48 221.11 86.2 226.04 84.14 231.36 86.98 232.8 92.02L232.8 92.02Z" stroke-width="0" fill="#312838"/><path d="M233.03 107.29C232.82 106.17 231.95 104.41 230.62 104.69 229.29 104.96 229.98 106.83 230.18 107.77 230.38 108.71 229.8 110.69 231.33 110.48 232.86 110.27 233.24 108.42 233.03 107.3Z" stroke-width="0" fill="#8D7D9D"/></g><path d="M166.74 43.92C186.99 45.19 213.48 42.62 235.9 88.25 235.9 88.25 247.38 31.15 213.48 11.15 213.48 11.15 167.96-17.46 148.5 17 145.1 23.03 140.6 42.3 166.73 43.93Z" stroke-width="0" fill="#021621"/><path d="M121.98 134.66C121.98 134.66 167.84 107.57 182.06 61.92 186.22 48.56 182.16 32.22 156.69 12.05 156.69 12.05 98.9-14.28 76.75 52.8 76.75 52.8 53.06 112.7 84.75 142.6 84.75 142.6 100.83 159.22 108.66 163.27L121.98 134.65Z" stroke-width="0" fill="#021621"/><path d="M171.9 47.7C171.9 47.7 80.88 38.66 101.58 132.82" stroke="#584B64" stroke-width="0.55" stroke-linecap="round" stroke-linejoin="round" fill="none"/><path d="M173.62 25.69C173.62 25.69 200.2-5.79 226.78 32.12" stroke-width="0" fill="#021621"/><path d="M236.15 70.64C236.15 70.64 221.15 19.33 176.76 33.49" stroke="#584B64" stroke-width="0.55" stroke-linecap="round" stroke-linejoin="round" fill="none"/><path d="M165.13 26.34C165.13 26.34 76.38 22.34 97.02 132.81" stroke-width="0" fill="#021621"/><path d="M93.64 134.95C95.33 147.3 106.12 155.82 115.12 154.6 124.12 153.37 127.91 142.86 126.23 130.51 124.54 118.16 118.94 108.72 106.89 110.37 97.89 111.6 91.96 122.61 93.65 134.96Z" stroke-width="0" fill="#FDAD8B"/><path d="M114.29 139.33C114.29 139.33 116.48 120.79 105.31 124.17" stroke="#E07A5B" stroke-width="0.55" stroke-linecap="round" stroke-linejoin="round" fill="none"/><path d="M115.73 156.89C115.73 160.8 112.56 163.97 108.65 163.97 104.74 163.97 101.57 160.8 101.57 156.89 101.57 152.98 104.74 149.81 108.65 149.81 112.56 149.81 115.73 152.98 115.73 156.89Z" stroke-width="0" fill="#FFFFFF"/><path d="M192.43 157.31C198.71 157.66 208.69 158.03 217.55 157.52 220.17 157.37 221.53 160.59 219.6 162.37 213.4 168.11 202.09 174.68 190.25 162.04 188.53 160.2 189.92 157.17 192.43 157.31Z" stroke-width="0" fill="#FFFFFF"/></g><path d="M258.82 278.62C258.82 278.62 261.82 298.63 271.33 313.14 271.33 313.14 294.34 345.03 260.32 366.54L260.07 379.17" stroke="#312838" stroke-width="0.34" stroke-linecap="round" stroke-linejoin="round" fill="none"/><path d="M193.6 203.52C193.6 203.52 205.07 202.24 215.1 195.18" stroke="#312838" stroke-width="0.34" stroke-linecap="round" stroke-linejoin="round" fill="none"/></svg>