<svg viewBox="0 0 521.34 943.55" xmlns="http://www.w3.org/2000/svg" xmlns:xlink="http://www.w3.org/1999/xlink" id="Layer_1" overflow="hidden"><defs><clipPath id="clippath"><rect x="0" y="0" width="521.34" height="583.55" stroke-width="0" fill="none"/></clipPath><clipPath id="clippath-1"><rect x="0" y="0" width="521.34" height="943.55" stroke-width="0" fill="none"/></clipPath><clipPath id="clippath-4"><rect x="206.64" y="241.96" width="16.24" height="72.6" stroke-width="0" fill="none"/></clipPath><clipPath id="clippath-5"><rect x="58.59" y="257.19" width="31.65" height="78.53" stroke-width="0" fill="none"/></clipPath><clipPath id="clippath-6"><rect x="145.23" y="350.83" width="274.39" height="124.76" stroke-width="0" fill="none"/></clipPath><clipPath id="clippath-7"><rect x="243.65" y="350.83" width="59.68" height="116.23" stroke-width="0" fill="none"/></clipPath><clipPath id="clippath-8"><rect x="105.79" y="143.52" width="39.06" height="44.25" stroke-width="0" fill="none"/></clipPath><clipPath id="clippath-9"><rect x="84.27" y="114.86" width="17.82" height="12.05" stroke-width="0" fill="none"/></clipPath><clipPath id="clippath-10"><rect x="37.45" y="490.83" width="252.37" height="131.41" stroke-width="0" fill="none"/></clipPath><clipPath id="clippath-11"><rect x="83.89" y="545.2" width="252.59" height="306.38" stroke-width="0" fill="none"/></clipPath></defs><g clip-path="url(#clippath)"><g clip-path="url(#clippath-1)"><path d="M245.06 281.13C245.06 281.13 255.92 377.85 258.83 383.03 268.65 400.58 333.68 430.66 333.68 430.66L366.84 423.71 390.6 443.56 374.93 455.83 356.55 448.88C346.52 450.67 336.35 451.56 326.16 451.54 309.03 451.54 226.43 430.61 212.64 407.58 198.86 384.55 192.52 277.9 192.52 277.9L245.06 281.12Z" stroke-width="0" fill="#F9B78E"/><path d="M191.11 319.14C191.11 319.14 165.63 234.21 197.38 210.63 229.13 187.05 254.38 303.83 254.38 303.83L191.11 319.15Z" stroke-width="0" fill="#C16800"/><path d="M211.22 474.5 210.97 361.93 208.55 207.79 145.22 198.74 91.28 198.25 18.28 220.94 16.74 258.76C16.74 258.76 24.27 432.44 23.85 437.67 23.33 444.09 21.71 491.73 21.71 491.73 104.93 510.69 212.52 480.23 211.21 474.49" stroke-width="0" fill="#C16800"/><g opacity="0.2"><g clip-path="url(#clippath-4)"><path d="M210.04 314.56 206.64 241.96 222.88 311.45 210.04 314.56Z" stroke-width="0"/></g></g><g opacity="0.2"><g clip-path="url(#clippath-5)"><path d="M69.23 325.14C71.28 324.74 81.65 321.34 81.65 321.34L58.59 257.2 90.24 328.16 71.21 335.73 69.22 325.14Z" stroke-width="0"/></g></g><path d="M60.31 271.94C60.31 271.94 76.45 379.31 85.77 389.35 101.52 406.31 179.54 451.31 179.54 451.31L218.48 437.66C221.21 436.76 224.22 437.25 226.46 438.95L253.08 459.27 250.54 461.41C249.44 462.34 247.85 462.52 246.56 461.88L242.42 459.82 247.05 464.36 245.58 465.6C244.12 466.83 242.1 467.27 240.23 466.77L228.33 463.58 239.32 470.89C236.87 472.96 233.45 473.68 230.32 472.78L212.9 467.82C201.02 470.54 188.92 472.27 176.74 473 156.23 474.26 59.39 440.42 41.33 415.65 23.28 390.88 4.67 288 4.67 288L60.32 271.94Z" stroke-width="0" fill="#F9B78E"/><path d="M8.78 343.37C8.78 343.37-15.35 246.06 16.4 222.48 48.15 198.9 79.6 322.01 79.6 322.01L8.78 343.37Z" stroke-width="0" fill="#C16800"/><path d="M268.67 467.06 145.22 467.06 145.22 467.1C145.25 471.81 150.51 475.62 156.98 475.59L358.06 475.59C364.47 475.54 369.63 471.73 369.6 467.05L268.67 467.05Z" stroke-width="0" fill="#1A2E35"/><path d="M359.92 475.11 247.14 475.11C245.2 475.1 243.63 473.82 243.65 472.26 243.65 471.96 243.71 471.67 243.83 471.4L294 356.38C295.27 353.1 299.04 350.85 303.33 350.84L416.17 350.84C418.08 350.84 419.63 352.08 419.62 353.61 419.62 353.93 419.55 354.25 419.41 354.55L369.24 469.57C367.95 472.84 364.19 475.08 359.91 475.11" stroke-width="0" fill="#1A2E35"/><g opacity="0.7"><g clip-path="url(#clippath-6)"><path d="M416.17 350.83 303.32 350.83C299.04 350.84 295.26 353.09 293.99 356.37L245.71 467.05 145.22 467.05 145.22 467.09C145.25 471.8 150.51 475.61 156.97 475.58L358.06 475.58C360.09 475.57 361.97 475.14 363.63 474.46 366.25 473.58 368.35 471.82 369.24 469.55L419.41 354.53C419.54 354.23 419.62 353.91 419.62 353.59 419.62 352.06 418.07 350.82 416.17 350.82" stroke-width="0" fill="#FFFFFF"/></g></g><path d="M348.4 412.07C345.96 417.59 341.02 421.38 337.34 420.61 333.66 419.84 332.68 414.81 335.04 409.27 337.41 403.73 342.4 400.03 346.09 400.8 349.77 401.57 350.87 406.4 348.4 412.07" stroke-width="0" fill="#FFFFFF"/><g opacity="0.3"><g clip-path="url(#clippath-7)"><path d="M293.99 356.38 245.71 467.06 250.94 467.06 303.32 350.83C299.03 350.84 295.26 353.09 293.99 356.37" stroke-width="0"/></g></g><path d="M178.2 64.68 181.76 66.77C185.93 66.85 189.84 70 190.82 74.06 191.8 78.11 189.75 82.7 186.08 84.68 185.53 84.98 184.89 85.28 184.69 85.88 184.38 86.83 185.38 87.65 186.14 88.31 189.89 91.55 189.42 97.99 186.06 101.62 182.69 105.25 177.34 106.42 172.4 106.03 171.11 92.1 179.4 78.63 178.2 64.69" stroke-width="0" fill="#E34C07"/><path d="M72.14 103.89C66.84 104.14 61.54 100.87 59.39 96.02 58.8 94.68 58.43 93.19 58.67 91.74 59.33 87.82 63.83 86.03 67.65 84.94 63.38 83.9 60.51 79.64 59.69 75.32 59.32 73.34 59.29 71.26 59.93 69.36 61.01 66.15 63.88 63.8 67.02 62.53 70.16 61.26 73.59 60.92 76.96 60.6L96.39 122.24C92.05 123.21 87.55 123.8 83.16 123.06 78.78 122.31 74.5 120.08 72.06 116.37 69.62 112.66 69.38 107.38 72.14 103.89" stroke-width="0" fill="#E34C07"/><path d="M83.01 200.82C100.94 185.53 100.08 143.12 96.87 120.05L147.97 164.34C146.74 166.95 145.69 169.64 144.82 172.39 143.09 177.31 142.65 182.58 143.55 187.72 144.47 191.96 149.19 203.76 149.19 203.76 149.19 203.76 151.75 216.96 116.99 216.33 101.71 217.7 83 200.81 83 200.81" stroke-width="0" fill="#F9B78E"/><g opacity="0.2"><g clip-path="url(#clippath-8)"><path d="M106.03 143.52C102.97 170.44 129.95 183.48 143.58 187.77 142.68 182.64 143.12 177.36 144.85 172.44L106.03 143.51Z" stroke-width="0"/></g></g><path d="M88.11 99.95C94.42 131.75 97.32 149.81 116.19 163.98 144.58 185.28 182.52 165.84 186.12 132.73 189.37 102.93 178.5 55.92 144.48 47.62 110.95 39.44 81.8 68.15 88.11 99.95" stroke-width="0" fill="#F9B78E"/><path d="M78.78 61.93C80.95 43.68 126.5 37.63 140.44 45.03 142.52 46.13 117.29 62.78 118.85 61.99L106.71 67.9C104.7 67.73 101.15 70.45 99.95 76.61 99.95 76.61 107.96 125.58 95.52 141.65 83.27 137.67 80 118.27 74.81 107.14 67.09 90.55 57.19 66.07 78.78 61.94" stroke-width="0" fill="#E34C07"/><path d="M78.65 128.35C82.39 136.27 89.56 141.72 96.53 144.04 107.01 147.53 109.29 136.59 107 126.61 104.95 117.63 100.74 106.9 89.91 107.73 79.25 108.55 74.37 119.29 78.65 128.35" stroke-width="0" fill="#F9B78E"/><path d="M132.51 101.55C132.95 104.83 135.09 107.24 137.3 106.94 139.51 106.64 140.94 103.73 140.5 100.45 140.06 97.17 137.92 94.76 135.71 95.06 133.5 95.36 132.07 98.27 132.51 101.55" stroke-width="0" fill="#260F05"/><path d="M165.71 99.64C166.15 102.92 168.29 105.33 170.5 105.03 172.71 104.73 174.14 101.82 173.7 98.54 173.26 95.26 171.12 92.85 168.91 93.15 166.7 93.46 165.27 96.36 165.71 99.64" stroke-width="0" fill="#260F05"/><path d="M158.77 99.09C158.77 99.09 171.64 114.02 175.95 120.22 171.8 124.95 163.45 124.09 163.45 124.09L158.77 99.1Z" stroke-width="0" fill="#BB896B"/><path d="M126.26 88.73C126.8 88.87 127.4 88.73 127.82 88.31 132.83 83.36 138.61 84.38 138.67 84.4 139.53 84.56 140.38 84.02 140.56 83.18 140.74 82.35 140.18 81.53 139.32 81.37 139.02 81.31 131.78 80.03 125.56 86.17 124.94 86.78 124.94 87.76 125.56 88.35 125.77 88.55 126.01 88.67 126.26 88.74" stroke-width="0" fill="#260F05"/><g opacity="0.2"><g clip-path="url(#clippath-9)"><path d="M101.35 126.92C101.02 126.92 100.73 126.7 100.64 126.37 99.98 123.77 98.62 121.38 96.72 119.44 95.48 118.19 93.48 116.63 91 116.36 88.76 116.11 86.52 117.17 85.65 118.85 85.47 119.21 85.02 119.35 84.67 119.17 84.31 118.99 84.17 118.54 84.35 118.18 85.5 115.95 88.31 114.6 91.15 114.91 94.06 115.22 96.35 116.99 97.76 118.41 99.85 120.53 101.33 123.15 102.06 126 102.16 126.39 101.92 126.79 101.53 126.89 101.47 126.9 101.41 126.91 101.35 126.91" stroke-width="0"/></g></g><path d="M182.55 83.8C182.84 83.7 183.09 83.52 183.29 83.27 183.82 82.58 183.69 81.61 182.99 81.09 175.99 75.94 169.1 78.39 168.77 78.46 167.94 78.76 167.51 79.65 167.81 80.45 168.1 81.25 169.01 81.67 169.83 81.38 170.11 81.27 175.44 79.45 181.06 83.58 181.5 83.9 182.06 83.97 182.55 83.8" stroke-width="0" fill="#260F05"/><path d="M68.09 47.38C69.77 39.66 79.5 36.91 87.2 37.58 85.79 28.54 97.35 21.93 105.04 21.31 113.05 20.67 116.28 23.45 116.28 23.45 115.68 23.65 118.18 18.68 119.84 16.64 125.99 9.09 136.71 5.82 145.91 8.68 155.11 11.54 162.26 20.38 163.3 30.17 167.68 24.71 176.58 23.91 181.85 28.51 187.11 33.1 187.76 42.23 183.19 47.53 189.09 47.23 194.68 52.68 194.66 58.73 194.65 64.78 189.03 70.18 183.13 69.83 183.55 76.59 183.77 85.06 184.19 91.82L172.13 68.14C167.18 67.02 166.04 65.01 164.5 60.07 161.73 66.8 156.19 66.89 149.07 67.42 141.95 67.94 134.68 64.08 130.99 57.82 128.08 64.85 121.69 70.66 114.25 71.31 106.81 71.96 98.92 66.42 98.09 58.82 94.45 65.79 85.48 69.26 78.23 66.5 70.99 63.74 66.4 55.09 68.08 47.38" stroke-width="0" fill="#E34C07"/><path d="M162.23 134.97C159.49 138.5 157.01 142.23 154.81 146.12 154.07 145.85 153.32 145.59 152.6 145.29 142.6 141.48 139.2 136.43 138.53 131.95 138.23 129.76 138.46 127.52 139.19 125.43 139.57 124.24 140.12 123.11 140.81 122.07 144.9 127.26 153.93 131.53 158.86 133.6 161.02 134.39 162.24 134.97 162.24 134.97" stroke-width="0" fill="#260F05"/><path d="M158.97 133.54 156.69 136.77C147.3 133.17 141.17 129.4 139.3 125.37 139.68 124.18 140.23 123.05 140.92 122.02 145.04 127.26 154.04 131.47 158.97 133.55" stroke-width="0" fill="#FFFFFF"/><path d="M152.72 145.23C142.72 141.42 139.32 136.36 138.65 131.89 142.42 133.4 145.9 135.58 148.91 138.3 150.87 140.15 152.2 142.57 152.72 145.22" stroke-width="0" fill="#F9B78E"/><path d="M336.39 584.02C336.39 584.02 336.39 584.02 336.39 584.02 338.15 564.77 312.67 554.99 289.77 545.21 271.06 551.16 236.53 566.94 199.61 582.72 198.59 583.16 197.56 583.59 196.53 584.03L336.39 584.03Z" stroke-width="0" fill="#1A2E35"/><g opacity="0.6"><g clip-path="url(#clippath-10)"><path d="M197 584.02C197.89 583.64 198.77 583.27 199.65 582.89 236.53 567.11 271.06 551.47 289.81 545.38 234 521.89 134.1 522.39 134.1 522.39 134.1 522.39 100.87 490.83 67.83 490.83 40.61 526.61 33.19 559.84 39.62 584.01L197 584.01Z" stroke-width="0"/></g></g><path d="M197.2 584.02C198.05 583.66 198.9 583.3 199.75 582.94 236.63 567.16 271.16 551.52 289.91 545.43 311.28 554.35 326.01 566.76 326.46 584.02L384.71 584.02C381.6 570.02 378.57 555.86 375.75 541.87 368.34 504.07 337.37 475.38 299.11 470.87 220.54 461.94 111.35 488.18 111.35 488.18 111.35 488.18 54.78 491.74 21.73 491.74 11.23 530.46 9.86 561.73 17.09 584.02L197.21 584.02Z" stroke-width="0" fill="#1A2E35"/><path d="M197.2 584.02C198.05 583.66 198.9 583.3 199.75 582.94 236.63 567.16 271.16 551.52 289.91 545.43 311.28 554.35 326.01 566.76 326.46 584.02L385.01 584.02C381.7 569.97 378.56 555.81 375.75 541.87 368.34 504.07 337.37 475.38 299.11 470.87 220.53 461.94 111.35 488.18 111.35 488.18 111.35 488.18 54.77 491.74 21.73 491.74 11.23 530.46 9.86 561.73 17.09 584.02L197.21 584.02Z" stroke-width="0" fill="#1A2E35"/><g opacity="0.2"><g clip-path="url(#clippath-11)"><path d="M336.39 584.02C336.39 584.02 336.39 584.02 336.39 584.02 338.15 564.77 312.67 554.99 289.77 545.21 271.06 551.16 236.53 566.94 199.61 582.72 198.59 583.16 197.56 583.59 196.53 584.03L336.39 584.03Z" stroke-width="0"/></g></g></g></g></svg>