<svg viewBox="0 0 772.47 770.49" xmlns="http://www.w3.org/2000/svg" xmlns:xlink="http://www.w3.org/1999/xlink" id="Layer_1" overflow="hidden"><defs></defs><ellipse cx="450.73" cy="704.51" rx="321.73" ry="65.98" stroke-width="0" fill="#D1F4EF"/><ellipse cx="319.21" cy="654.15" rx="319.21" ry="63.23" stroke-width="0" fill="#D1F4EF"/><g><path d="M484.23 37.36 527.12 65.75 112.58 81.8 73.18 48.66 484.23 37.36Z" stroke-width="0" fill="#FFFFFF"/><path d="M150.71 61.45C171.76 60.57 192.8 59.65 213.85 58.78 219.7 58.54 225.55 58.29 231.4 58.05 237.17 57.81 243.05 57.97 248.62 56.29 249.45 56.04 249.55 54.71 248.62 54.51 243.64 53.46 238.7 53.88 233.66 54.11 228.57 54.34 223.47 54.56 218.38 54.79 207.72 55.26 197.05 55.73 186.39 56.19 165.29 57.1 144.18 57.91 123.09 59.04 117.14 59.36 111.19 59.63 105.25 60 99.73 60.35 93.87 60.32 88.44 61.51L90.47 63.22C94.6 63.52 98.84 63.24 102.95 63.17 108.13 63.08 113.31 62.87 118.49 62.71 129.23 62.36 139.97 61.92 150.72 61.47Z" stroke-width="0" fill="#D5F2F9"/><path d="M337.14 61.51C325.94 60.48 314.42 61.3 303.18 61.41 291.86 61.52 280.54 61.66 269.22 61.86 246.39 62.26 223.56 62.72 200.73 63.47 194.4 63.68 188.07 63.88 181.74 64.17 175.57 64.45 169.27 64.41 163.19 65.58 162.58 65.7 162.81 66.51 163.32 66.57 169.03 67.27 174.85 66.89 180.58 66.79 186.14 66.7 191.7 66.55 197.27 66.43 208.59 66.18 219.9 65.86 231.22 65.61 253.67 65.11 276.11 64.71 298.56 64.37 304.89 64.28 311.22 64.19 317.56 64.11 324.09 64.03 330.63 64.25 337.13 63.56 338.45 63.42 338.46 61.62 337.13 61.5Z" stroke-width="0" fill="#D5F2F9"/><g><path d="M275.99 55.47C284.82 56.13 293.66 55.78 302.5 55.57 311.15 55.37 319.79 55.15 328.44 54.94 345.92 54.51 363.41 54.1 380.89 53.71 415.3 52.94 449.69 51.92 484.06 49.87 489.91 49.52 495.8 49.22 501.69 48.92L495.57 44.87C493.63 45.01 491.68 45.17 489.75 45.29 472.67 46.41 455.58 47.29 438.49 48.03 403.95 49.53 369.35 50.24 334.78 51.32 325.17 51.62 315.57 51.91 305.96 52.22 295.96 52.54 285.91 52.62 275.99 53.92 275.01 54.05 274.97 55.4 275.99 55.48Z" stroke-width="0" fill="#D5F2F9"/><path d="M507.35 52.66C506.25 52.8 505.16 52.96 504.07 53.08 498.41 53.69 492.73 54.25 487.05 54.71 475.32 55.66 463.56 56.37 451.8 56.92 440.04 57.47 428.27 57.81 416.49 57.91 404.78 58 392.84 56.97 381.18 58 380.25 58.08 379.86 59.59 380.94 59.78 392.53 61.74 404.76 61.24 416.49 61.32 428.26 61.4 440.03 61.25 451.8 60.82 463.57 60.39 475.31 59.64 487.05 58.64 493.1 58.13 499.15 57.6 505.2 57 507.73 56.75 510.29 56.55 512.86 56.32L507.36 52.68Z" stroke-width="0" fill="#D5F2F9"/></g><path d="M486.21 33.31C486.21 33.31 74.44 43.47 57.55 47.49 40.65 51.51 34.45 87.9 34.24 137.14 34.03 186.38 48.44 603.21 53.34 629.08 58.24 654.95 123.12 681.31 152.55 681.49 182 681.66 540.41 679.43 555.01 677.59 569.61 675.75 533.36 67.16 531.28 63.63 529.2 60.1 160.74 76.26 145.08 75.84 129.42 75.42 77.19 52.5 88.34 53.92 99.49 55.34 480.45 39.6 487.44 39.78 494.43 39.97 497.41 33.33 486.22 33.31Z" stroke-width="0" fill="#2FC3B0"/><path d="M141.29 101.18C141.18 94.65 146.26 89.2 152.79 88.85L531.84 68.59C531.71 67.11 531.6 65.95 531.51 65.12 531.51 65.12 531.51 65.12 531.51 65.12 531.51 65.09 531.51 65.05 531.5 65.01 531.48 64.88 531.47 64.77 531.46 64.65 531.46 64.61 531.45 64.57 531.44 64.53 531.44 64.48 531.43 64.42 531.42 64.38 531.41 64.3 531.4 64.22 531.39 64.16 531.39 64.13 531.39 64.11 531.38 64.08 531.38 64.03 531.36 63.98 531.36 63.94 531.36 63.9 531.34 63.85 531.34 63.82 531.32 63.74 531.31 63.67 531.29 63.65 531.27 63.61 531.19 63.58 531.1 63.55 531.06 63.54 531.02 63.52 530.97 63.51 530.93 63.5 530.87 63.49 530.82 63.48 516.21 60.68 160.47 76.28 145.09 75.86 131.16 75.48 88.32 57.32 86.88 54.31 86.69 54.16 86.61 54.05 86.66 53.97 86.76 53.83 87.3 53.81 88.35 53.94 88.46 53.95 88.63 53.97 88.82 53.98 88.87 53.98 88.92 53.98 88.98 53.98 89.17 53.98 89.39 54 89.65 54 89.67 54 89.69 54 89.71 54 90 54 90.33 54.01 90.69 54.01 90.77 54.01 90.86 54.01 90.95 54.01 91.3 54.01 91.67 54.01 92.09 54.01 92.12 54.01 92.15 54.01 92.19 54.01 92.64 54.01 93.14 54.01 93.66 54.01 93.77 54.01 93.9 54.01 94.01 54.01 94.5 54.01 95.01 54 95.55 53.99 95.61 53.99 95.66 53.99 95.73 53.99 96.36 53.99 97.03 53.97 97.73 53.96 97.82 53.96 97.92 53.96 98.02 53.96 98.67 53.95 99.36 53.94 100.07 53.92 100.14 53.92 100.2 53.92 100.27 53.92 101.06 53.9 101.88 53.89 102.74 53.87 102.83 53.87 102.92 53.87 103.01 53.87 103.8 53.85 104.61 53.83 105.45 53.81 105.58 53.81 105.7 53.81 105.83 53.81 106.76 53.79 107.72 53.76 108.71 53.74 108.77 53.74 108.83 53.74 108.89 53.74 109.84 53.72 110.83 53.69 111.84 53.66 111.97 53.66 112.09 53.66 112.22 53.65 113.28 53.62 114.37 53.59 115.49 53.56 115.6 53.56 115.71 53.56 115.82 53.56 116.83 53.53 117.87 53.5 118.93 53.47 119.16 53.47 119.4 53.46 119.63 53.45 120.77 53.42 121.93 53.38 123.12 53.35 123.21 53.35 123.31 53.35 123.4 53.35 124.65 53.31 125.92 53.27 127.23 53.23 127.27 53.23 127.31 53.23 127.35 53.23 130.06 53.15 132.88 53.06 135.81 52.96 136 52.96 136.18 52.95 136.37 52.94 137.63 52.9 138.91 52.86 140.21 52.82 140.41 52.82 140.61 52.81 140.82 52.8 142.23 52.75 143.67 52.71 145.13 52.66 145.47 52.65 145.82 52.64 146.16 52.63 147.33 52.59 148.52 52.55 149.72 52.51 150.03 52.5 150.34 52.49 150.65 52.48 152.12 52.43 153.6 52.38 155.11 52.33 155.52 52.32 155.93 52.3 156.34 52.29 157.37 52.26 158.42 52.22 159.47 52.18 160.25 52.15 161.03 52.13 161.82 52.1 163.05 52.06 164.29 52.01 165.55 51.97 166.35 51.94 167.16 51.91 167.97 51.89 168.67 51.87 169.37 51.84 170.08 51.82 170.82 51.79 171.56 51.77 172.31 51.74 173.08 51.71 173.86 51.69 174.64 51.66 176.5 51.59 178.37 51.53 180.26 51.46 180.39 51.46 180.53 51.46 180.66 51.45 184.19 51.32 187.78 51.2 191.42 51.06 192.08 51.04 192.73 51.01 193.39 50.99 194.32 50.96 195.26 50.92 196.2 50.89 197.72 50.83 199.24 50.78 200.78 50.72 201.58 50.69 202.38 50.66 203.18 50.63 203.84 50.6 204.51 50.58 205.17 50.56 208.13 50.45 211.13 50.34 214.15 50.23 223.89 49.87 233.89 49.5 244.06 49.12 245.46 49.07 246.86 49.01 248.26 48.96 248.62 48.95 248.98 48.93 249.35 48.92 252.02 48.82 254.7 48.72 257.39 48.62 261.97 48.45 266.57 48.27 271.19 48.1 272.88 48.04 274.58 47.97 276.27 47.91 280.66 47.74 285.06 47.57 289.46 47.41 292.51 47.29 295.55 47.18 298.6 47.06 300.12 47 301.64 46.94 303.16 46.88 395.85 43.31 484.12 39.79 487.45 39.88 490.94 39.97 493.44 38.36 493.66 36.72 493.79 35.72 493.06 34.71 491.2 34.07 491.1 34.04 490.99 34 490.88 33.97 490.61 33.89 490.32 33.82 490.01 33.75 489.88 33.72 489.76 33.7 489.62 33.67 489.18 33.59 488.71 33.52 488.18 33.48 488.18 33.48 488.17 33.48 488.16 33.48 487.57 33.43 486.92 33.4 486.23 33.4 486.23 33.4 475.18 33.67 456.65 34.15 456.4 34.15 456.14 34.16 455.89 34.17 454.59 34.2 453.26 34.24 451.89 34.27 451.78 34.27 451.67 34.27 451.56 34.27 440.95 34.54 428.28 34.87 414.1 35.24 413.85 35.24 413.59 35.25 413.34 35.26 411.45 35.31 409.53 35.36 407.58 35.41 407.5 35.41 407.42 35.41 407.34 35.41 401.16 35.57 394.72 35.74 388.07 35.92 387.69 35.93 387.3 35.94 386.92 35.95 385.02 36 383.11 36.05 381.17 36.1 380.6 36.12 380.03 36.13 379.46 36.15 365.8 36.52 351.36 36.91 336.44 37.32 335.92 37.33 335.39 37.35 334.86 37.36 333.27 37.4 331.67 37.45 330.06 37.49 324.16 37.65 318.2 37.82 312.19 37.99 311.59 38.01 310.98 38.02 310.37 38.04 303.91 38.22 297.4 38.41 290.87 38.59 290.69 38.59 290.52 38.6 290.34 38.61 283.55 38.8 276.73 39 269.91 39.2 269.8 39.2 269.69 39.2 269.57 39.2 262.88 39.39 256.19 39.59 249.53 39.79 247.62 39.85 245.71 39.9 243.8 39.96 242.17 40.01 240.54 40.06 238.92 40.11 235.67 40.21 232.43 40.31 229.2 40.4 227.15 40.46 225.1 40.53 223.06 40.59 220.73 40.66 218.4 40.73 216.08 40.81 215.27 40.83 214.46 40.86 213.66 40.89 207.68 41.08 201.77 41.26 195.94 41.45 191.3 41.6 186.71 41.75 182.18 41.89 181.17 41.92 180.18 41.96 179.18 41.99 178.44 42.01 177.7 42.04 176.96 42.06 171.29 42.25 165.72 42.43 160.29 42.62 157.39 42.72 154.52 42.82 151.7 42.92 148.97 43.02 146.28 43.11 143.63 43.2 142.98 43.22 142.35 43.25 141.71 43.27 140.57 43.31 139.44 43.35 138.33 43.39 136.46 43.46 134.61 43.53 132.79 43.59 131.45 43.64 130.11 43.69 128.8 43.74 128.44 43.75 128.07 43.77 127.71 43.78 125.29 43.87 122.92 43.96 120.6 44.05 117.87 44.15 115.21 44.26 112.62 44.36L112.62 44.36C110.15 44.46 107.76 44.56 105.42 44.65 105.19 44.65 104.97 44.67 104.74 44.68 102.5 44.77 100.32 44.87 98.22 44.96 98.08 44.96 97.95 44.97 97.81 44.98 95.57 45.08 93.41 45.17 91.33 45.27 89.45 45.36 87.63 45.44 85.88 45.53 84.51 45.6 83.19 45.66 81.9 45.73 81.66 45.74 81.42 45.75 81.19 45.77 80 45.83 78.86 45.89 77.75 45.95 77.49 45.96 77.23 45.98 76.97 45.99 75.88 46.05 74.82 46.11 73.81 46.17 73.61 46.18 73.42 46.19 73.22 46.2 72.2 46.26 71.22 46.32 70.29 46.38 70.22 46.38 70.15 46.38 70.08 46.39 68.88 46.47 67.75 46.54 66.71 46.61 66.15 46.65 65.61 46.69 65.1 46.73 64.87 46.75 64.66 46.76 64.45 46.78 64.17 46.8 63.88 46.82 63.62 46.85 63.4 46.87 63.2 46.88 62.99 46.9 62.74 46.92 62.49 46.94 62.26 46.96 62.06 46.98 61.87 47 61.68 47.01 61.48 47.03 61.28 47.05 61.09 47.07 60.9 47.09 60.71 47.11 60.54 47.13 60.36 47.15 60.19 47.17 60.03 47.19 59.87 47.21 59.72 47.22 59.58 47.24 59.42 47.26 59.27 47.28 59.12 47.3 59 47.32 58.87 47.33 58.75 47.35 58.6 47.37 58.48 47.39 58.35 47.41 58.26 47.42 58.17 47.44 58.09 47.45 57.93 47.48 57.79 47.51 57.66 47.53 57.64 47.53 57.6 47.54 57.58 47.55 57.08 47.67 56.59 47.82 56.11 47.99 55.96 48.05 55.81 48.12 55.66 48.18 55.34 48.31 55.02 48.45 54.7 48.6 54.52 48.69 54.35 48.79 54.18 48.88 53.9 49.04 53.61 49.2 53.34 49.37 53.16 49.48 52.99 49.6 52.81 49.72 52.54 49.91 52.28 50.1 52.02 50.31 51.85 50.44 51.68 50.58 51.52 50.72 51.26 50.94 51 51.18 50.75 51.42 50.59 51.57 50.44 51.71 50.29 51.87 50.02 52.15 49.75 52.45 49.48 52.75 49.36 52.89 49.23 53.02 49.11 53.17 48.32 54.12 47.56 55.16 46.84 56.32 46.35 57.11 45.88 57.97 45.41 58.85 45.29 59.07 45.18 59.3 45.07 59.52 44.16 61.34 43.32 63.33 42.54 65.51 42.44 65.78 42.35 66.06 42.25 66.34 41.49 68.55 40.78 70.94 40.14 73.48 40.06 73.8 39.98 74.13 39.9 74.45 39.27 77.04 38.7 79.78 38.18 82.67 38.12 83.03 38.05 83.39 37.99 83.76 37.74 85.22 37.5 86.71 37.27 88.24 37.27 88.24 37.27 88.24 37.27 88.24 37.05 89.78 36.84 91.36 36.64 92.97 36.59 93.37 36.54 93.77 36.49 94.18 36.11 97.42 35.78 100.79 35.5 104.29 35.46 104.73 35.43 105.17 35.4 105.62 35.27 107.38 35.14 109.16 35.03 110.97 35.03 110.97 35.03 110.97 35.03 110.97 34.92 112.79 34.83 114.66 34.74 116.53 34.72 117 34.7 117.47 34.68 117.95 34.6 119.84 34.53 121.74 34.47 123.68 34.47 123.68 34.47 123.68 34.47 123.68 34.41 125.62 34.37 127.6 34.34 129.59 34.34 130.09 34.32 130.6 34.32 131.1 34.29 133.1 34.27 135.12 34.26 137.16L34.26 137.16C34.26 137.55 34.26 137.95 34.26 138.38 34.26 143.96 34.41 153.27 34.69 165.52 34.71 166.46 34.73 167.42 34.76 168.4 34.85 172.31 34.95 176.48 35.06 180.91 35.17 185.34 35.3 190.01 35.43 194.91 35.5 197.36 35.57 199.87 35.64 202.43 35.85 210.11 36.09 218.28 36.35 226.85 36.61 235.42 36.88 244.39 37.17 253.69 37.41 261.44 37.67 269.41 37.93 277.57 38.04 280.83 38.14 284.12 38.25 287.44 38.41 292.42 38.58 297.45 38.75 302.54 38.86 305.93 38.98 309.34 39.09 312.77 41.01 369.36 43.29 431.09 45.51 484.95 45.71 489.85 45.91 494.68 46.11 499.43 46.31 504.19 46.51 508.87 46.71 513.47 47.11 522.66 47.5 531.52 47.89 539.96 48.02 542.77 48.15 545.54 48.27 548.26 48.4 550.98 48.52 553.65 48.65 556.26 48.71 557.57 48.78 558.86 48.84 560.15 50.65 597.33 52.24 623.26 53.35 629.12 54.73 636.4 60.85 643.71 69.59 650.47 72.5 652.72 75.71 654.92 79.13 657.02 101.92 671.07 134.17 681.41 152.56 681.52 149.07 571.41 142.5 174.56 141.3 101.21Z" stroke-width="0" fill="#239284"/><rect x="214.44" y="158.07" rx="6.92" ry="6.92" width="264.03" height="58.18" stroke-width="0" fill="#495E84" transform="matrix(0.999354 -0.035946 0.035946 0.999354 -6.52 12.6)"/><path d="M419.7 281.11 274.37 286.35C265.56 286.67 258.09 279.72 257.78 270.91L257.78 270.91C257.46 262.1 264.41 254.63 273.22 254.32L418.55 249.08C427.36 248.76 434.83 255.71 435.14 264.52L435.14 264.52C435.46 273.33 428.51 280.8 419.7 281.11Z" stroke-width="0" fill="#495E84"/><path d="M133.78 235.52C131.66 232.73 127.4 232.63 124.13 232.39 120.48 232.13 116.76 232.46 113.1 232.39 105.69 232.23 98.31 231.47 91.03 230.05 83.82 228.64 76.7 226.65 69.76 224.23 62.78 221.79 56.04 217.6 48.58 217.07 46.92 216.95 45.69 219.1 46.63 220.47 51.03 226.92 58.89 229.81 65.86 232.72 73.14 235.75 80.65 238.04 88.37 239.66 96 241.26 103.8 242.26 111.59 242.62 115.59 242.8 119.64 242.93 123.62 242.49 126.71 242.15 132.31 241.2 133.77 238.03 134.12 237.28 134.33 236.25 133.77 235.52Z" stroke-width="0" fill="#2FC3B0"/><path d="M141.29 573.57C137.6 572.6 133.65 572.42 129.86 571.94 126.28 571.49 122.72 570.9 119.18 570.22 112.01 568.84 104.91 567.02 97.96 564.79 91.08 562.58 84.26 560.18 77.66 557.23 74.24 555.7 70.88 554.05 67.49 552.45 64.33 550.95 61.22 549.16 57.63 549.88 56.42 550.12 55.69 551.58 56.02 552.72 57.06 556.34 60.53 558.32 63.54 560.21 66.71 562.19 70.03 563.91 73.38 565.56 80.29 568.97 87.44 572.06 94.75 574.51 101.84 576.88 109.08 578.81 116.4 580.3 120.06 581.04 123.75 581.67 127.45 582.18 131.53 582.75 135.89 583.52 140.01 583.07 145.11 582.51 146.96 575.06 141.3 573.57Z" stroke-width="0" fill="#2FC3B0"/><path d="M126.66 167.68C125.04 161.89 122.11 156.87 117.87 152.6 115.56 150.82 113.26 149.04 110.95 147.26 105.62 144.17 99.87 142.61 93.7 142.6 89 142.42 84.61 143.4 80.53 145.54 76.29 146.92 72.63 149.27 69.53 152.61 66.2 155.71 63.84 159.37 62.46 163.61 60.32 167.68 59.34 172.07 59.52 176.78 59.93 179.81 60.33 182.84 60.74 185.86 62.36 191.65 65.29 196.68 69.53 200.94 71.84 202.72 74.14 204.5 76.45 206.28 81.78 209.37 87.53 210.93 93.7 210.95 98.4 211.13 102.79 210.15 106.87 208.01 111.11 206.63 114.77 204.28 117.87 200.94 121.2 197.84 123.56 194.18 124.94 189.94 127.08 185.87 128.06 181.48 127.88 176.77 127.47 173.74 127.07 170.71 126.66 167.69Z" stroke-width="0" fill="#2FC3B0"/><path d="M129.58 254.72C115.84 258.84 101.26 258.54 87.35 255.36 80.65 253.83 74.09 251.71 67.7 249.2 64.6 247.98 61.52 246.7 58.43 245.45 55.15 244.12 52.39 242.6 48.77 243.31 47.19 243.62 46.82 245.45 47.4 246.69 48.93 249.98 52.2 251.37 55.25 253.01 58.54 254.78 61.91 256.31 65.34 257.76 72.23 260.66 79.28 263.16 86.55 264.92 101.61 268.56 117.38 269.08 132.37 264.88 138.89 263.06 136.08 252.78 129.57 254.73Z" stroke-width="0" fill="#2FC3B0"/></g><g><path d="M675 4.58 723.47 36.67 254.88 54.82 210.34 17.35 675 4.58Z" stroke-width="0" fill="#FFFFFF"/><path d="M297.98 31.8C321.77 30.81 345.56 29.77 369.35 28.78 375.96 28.51 382.57 28.23 389.18 27.95 395.71 27.68 402.35 27.86 408.65 25.96 409.58 25.68 409.7 24.17 408.65 23.95 403.02 22.77 397.44 23.24 391.74 23.5 385.98 23.76 380.22 24.01 374.47 24.27 362.42 24.81 350.36 25.33 338.31 25.85 314.46 26.88 290.59 27.79 266.75 29.07 260.03 29.43 253.3 29.73 246.58 30.16 240.34 30.55 233.71 30.52 227.58 31.87L229.88 33.8C234.55 34.14 239.34 33.82 243.99 33.74 249.85 33.64 255.7 33.41 261.55 33.22 273.7 32.83 285.84 32.32 297.98 31.82Z" stroke-width="0" fill="#D5F2F9"/><path d="M508.72 31.87C496.06 30.71 483.04 31.64 470.33 31.76 457.53 31.89 444.74 32.04 431.94 32.26 406.13 32.71 380.32 33.23 354.52 34.08 347.36 34.32 340.21 34.54 333.06 34.87 326.09 35.19 318.97 35.14 312.1 36.47 311.41 36.6 311.67 37.52 312.25 37.59 318.7 38.38 325.28 37.95 331.76 37.84 338.05 37.73 344.34 37.57 350.62 37.43 363.41 37.14 376.21 36.78 389 36.5 414.37 35.94 439.75 35.48 465.12 35.1 472.28 34.99 479.44 34.89 486.59 34.81 493.98 34.72 501.36 34.97 508.71 34.19 510.2 34.03 510.22 32 508.71 31.86Z" stroke-width="0" fill="#D5F2F9"/><g><path d="M439.6 25.05C449.58 25.79 459.58 25.4 469.57 25.17 479.34 24.94 489.12 24.7 498.89 24.45 518.65 23.96 538.42 23.5 558.18 23.06 597.08 22.19 635.96 21.04 674.8 18.72 681.41 18.32 688.07 17.99 694.73 17.65L687.81 13.07C685.61 13.23 683.42 13.4 681.23 13.55 661.93 14.81 642.61 15.81 623.28 16.65 584.23 18.35 545.12 19.15 506.05 20.37 495.19 20.71 484.33 21.04 473.47 21.39 462.17 21.76 450.81 21.84 439.59 23.31 438.49 23.45 438.43 24.98 439.59 25.07Z" stroke-width="0" fill="#D5F2F9"/><path d="M701.13 21.88C699.89 22.04 698.65 22.22 697.42 22.35 691.02 23.04 684.61 23.68 678.19 24.2 664.93 25.27 651.64 26.08 638.35 26.7 625.05 27.32 611.75 27.71 598.44 27.81 585.21 27.91 571.71 26.75 558.53 27.91 557.47 28 557.04 29.71 558.26 29.92 571.36 32.14 585.18 31.57 598.44 31.66 611.75 31.75 625.05 31.58 638.35 31.09 651.65 30.6 664.93 29.75 678.19 28.62 685.03 28.04 691.87 27.45 698.71 26.76 701.57 26.47 704.47 26.25 707.36 25.99L701.14 21.87Z" stroke-width="0" fill="#D5F2F9"/></g><path d="M677.23 0C677.23 0 211.77 11.48 192.67 16.03 173.57 20.58 166.56 61.71 166.32 117.38 166.08 173.04 182.37 644.23 187.91 673.48 193.45 702.73 266.79 732.53 300.06 732.72 333.35 732.92 738.5 730.39 755 728.31 771.5 726.22 730.53 38.28 728.18 34.28 725.83 30.28 309.31 48.56 291.61 48.09 273.91 47.61 214.86 21.7 227.47 23.31 240.08 24.92 670.71 7.12 678.61 7.33 686.51 7.54 689.88 0.04 677.23 0.02Z" stroke-width="0" fill="#F89F47"/><path d="M287.33 76.72C287.21 69.33 292.95 63.18 300.33 62.78L728.81 39.87C728.67 38.2 728.54 36.89 728.44 35.95 728.44 35.95 728.44 35.95 728.44 35.95 728.44 35.91 728.44 35.87 728.43 35.83 728.41 35.68 728.4 35.55 728.38 35.42 728.38 35.37 728.37 35.33 728.36 35.28 728.36 35.22 728.34 35.16 728.34 35.11 728.33 35.02 728.32 34.93 728.3 34.86 728.3 34.83 728.3 34.8 728.29 34.77 728.29 34.71 728.27 34.65 728.26 34.61 728.26 34.56 728.24 34.51 728.23 34.47 728.21 34.37 728.19 34.3 728.17 34.27 728.15 34.23 728.06 34.19 727.95 34.16 727.91 34.15 727.86 34.13 727.81 34.12 727.76 34.11 727.7 34.1 727.64 34.09 711.12 30.93 308.99 48.56 291.6 48.09 275.85 47.67 227.43 27.13 225.8 23.73 225.59 23.56 225.49 23.43 225.56 23.34 225.68 23.18 226.29 23.16 227.47 23.31 227.6 23.33 227.79 23.34 228 23.35 228.06 23.35 228.11 23.35 228.18 23.35 228.4 23.36 228.65 23.37 228.94 23.38 228.96 23.38 228.98 23.38 229.01 23.38 229.33 23.38 229.71 23.39 230.11 23.4 230.2 23.4 230.3 23.4 230.4 23.4 230.8 23.4 231.22 23.4 231.68 23.4 231.72 23.4 231.75 23.4 231.79 23.4 232.3 23.4 232.86 23.4 233.46 23.4 233.59 23.4 233.73 23.4 233.86 23.4 234.41 23.4 234.99 23.39 235.6 23.38 235.67 23.38 235.73 23.38 235.8 23.38 236.51 23.38 237.26 23.36 238.06 23.35 238.17 23.35 238.28 23.35 238.39 23.35 239.13 23.34 239.9 23.32 240.71 23.31 240.79 23.31 240.86 23.31 240.94 23.31 241.83 23.29 242.77 23.27 243.74 23.25 243.84 23.25 243.94 23.25 244.04 23.25 244.93 23.23 245.85 23.21 246.8 23.19 246.94 23.19 247.08 23.19 247.23 23.18 248.28 23.15 249.36 23.13 250.48 23.1 250.55 23.1 250.62 23.1 250.69 23.1 251.77 23.07 252.88 23.04 254.02 23.01 254.16 23.01 254.3 23.01 254.45 23 255.65 22.97 256.88 22.93 258.15 22.9 258.27 22.9 258.4 22.9 258.52 22.89 259.67 22.86 260.84 22.82 262.04 22.79 262.3 22.79 262.57 22.77 262.83 22.77 264.12 22.73 265.43 22.69 266.78 22.65 266.88 22.65 266.99 22.65 267.1 22.65 268.51 22.61 269.95 22.56 271.43 22.52 271.48 22.52 271.52 22.52 271.57 22.52 274.63 22.43 277.82 22.32 281.13 22.22 281.34 22.22 281.55 22.21 281.76 22.2 283.19 22.15 284.63 22.11 286.1 22.06 286.33 22.06 286.56 22.05 286.79 22.04 288.39 21.99 290.02 21.93 291.66 21.88 292.05 21.87 292.44 21.85 292.82 21.84 294.15 21.8 295.49 21.75 296.84 21.71 297.19 21.7 297.54 21.69 297.89 21.67 299.55 21.61 301.23 21.56 302.93 21.5 303.39 21.48 303.86 21.47 304.32 21.45 305.49 21.41 306.67 21.37 307.86 21.33 308.74 21.3 309.62 21.27 310.51 21.24 311.9 21.19 313.31 21.14 314.72 21.09 315.63 21.06 316.54 21.03 317.46 20.99 318.25 20.96 319.05 20.93 319.85 20.91 320.69 20.88 321.53 20.85 322.37 20.82 323.24 20.79 324.13 20.76 325.01 20.73 327.11 20.66 329.22 20.58 331.37 20.5 331.52 20.5 331.67 20.49 331.83 20.48 335.82 20.34 339.88 20.19 344 20.04 344.74 20.01 345.48 19.99 346.23 19.96 347.29 19.92 348.34 19.88 349.41 19.85 351.13 19.79 352.85 19.72 354.59 19.66 355.49 19.63 356.4 19.59 357.31 19.56 358.06 19.53 358.81 19.51 359.56 19.48 362.91 19.36 366.29 19.23 369.71 19.11 380.72 18.7 392.02 18.28 403.52 17.85 405.1 17.79 406.68 17.73 408.27 17.67 408.68 17.65 409.09 17.64 409.5 17.62 412.52 17.51 415.55 17.39 418.59 17.28 423.77 17.08 428.97 16.89 434.19 16.69 436.1 16.62 438.02 16.54 439.93 16.47 444.89 16.28 449.86 16.09 454.83 15.9 458.27 15.77 461.72 15.64 465.16 15.5 466.88 15.43 468.6 15.37 470.32 15.3 575.1 11.27 674.88 7.28 678.64 7.38 682.59 7.49 685.41 5.66 685.65 3.81 685.8 2.68 684.98 1.54 682.87 0.82 682.76 0.78 682.63 0.75 682.51 0.71 682.21 0.62 681.88 0.54 681.52 0.46 681.38 0.43 681.24 0.4 681.08 0.37 680.58 0.28 680.05 0.21 679.46 0.16 679.46 0.16 679.44 0.16 679.43 0.16 678.76 0.1 678.03 0.07 677.24 0.07 677.24 0.07 664.75 0.38 643.8 0.91 643.52 0.91 643.23 0.92 642.94 0.93 641.47 0.97 639.97 1.01 638.42 1.05 638.29 1.05 638.17 1.05 638.04 1.05 626.04 1.36 611.73 1.73 595.7 2.15 595.42 2.15 595.12 2.17 594.84 2.17 592.7 2.23 590.53 2.28 588.33 2.34 588.24 2.34 588.15 2.34 588.06 2.34 581.07 2.52 573.8 2.72 566.28 2.92 565.85 2.93 565.41 2.94 564.98 2.95 562.83 3.01 560.67 3.07 558.48 3.12 557.84 3.14 557.19 3.15 556.55 3.17 541.11 3.58 524.78 4.03 507.92 4.49 507.33 4.51 506.73 4.52 506.14 4.54 504.34 4.59 502.53 4.64 500.72 4.69 494.05 4.88 487.31 5.06 480.52 5.25 479.84 5.27 479.15 5.29 478.47 5.31 471.16 5.52 463.81 5.72 456.42 5.94 456.22 5.94 456.02 5.95 455.82 5.96 448.14 6.18 440.43 6.4 432.73 6.63 432.6 6.63 432.48 6.63 432.35 6.64 424.79 6.86 417.23 7.08 409.7 7.31 407.54 7.37 405.38 7.44 403.23 7.5 401.39 7.56 399.55 7.61 397.71 7.67 394.04 7.78 390.37 7.89 386.73 8 384.41 8.07 382.1 8.14 379.79 8.21 377.15 8.29 374.52 8.37 371.9 8.45 370.99 8.48 370.07 8.51 369.16 8.54 362.41 8.75 355.72 8.96 349.13 9.17 343.88 9.34 338.69 9.51 333.58 9.67 332.44 9.71 331.32 9.74 330.19 9.78 329.35 9.81 328.51 9.84 327.68 9.86 321.27 10.07 314.97 10.28 308.83 10.49 305.55 10.6 302.31 10.71 299.12 10.83 296.04 10.94 293 11.05 290 11.15 289.27 11.18 288.55 11.2 287.83 11.23 286.55 11.28 285.27 11.32 284 11.37 281.89 11.45 279.8 11.52 277.74 11.6 276.22 11.66 274.72 11.71 273.23 11.77 272.82 11.79 272.41 11.8 272 11.82 269.27 11.92 266.59 12.02 263.96 12.13 260.88 12.25 257.87 12.37 254.94 12.48L254.94 12.48C252.15 12.59 249.44 12.7 246.8 12.81 246.54 12.82 246.29 12.83 246.03 12.84 243.5 12.95 241.04 13.05 238.65 13.15 238.5 13.15 238.34 13.16 238.19 13.17 235.66 13.28 233.21 13.39 230.86 13.5 228.73 13.6 226.67 13.69 224.7 13.79 223.15 13.87 221.66 13.94 220.2 14.01 219.93 14.02 219.66 14.04 219.39 14.05 218.05 14.12 216.76 14.19 215.5 14.25 215.2 14.27 214.91 14.28 214.62 14.3 213.39 14.37 212.19 14.43 211.05 14.5 210.82 14.51 210.61 14.53 210.38 14.54 209.23 14.61 208.12 14.67 207.07 14.74 206.99 14.74 206.91 14.75 206.83 14.75 205.47 14.84 204.2 14.92 203.02 15 202.38 15.04 201.78 15.09 201.2 15.13 200.94 15.15 200.71 15.17 200.46 15.19 200.14 15.21 199.82 15.24 199.52 15.26 199.27 15.28 199.05 15.3 198.81 15.32 198.53 15.34 198.25 15.37 197.98 15.39 197.75 15.41 197.54 15.43 197.32 15.45 197.09 15.47 196.86 15.49 196.65 15.51 196.43 15.53 196.23 15.55 196.02 15.57 195.82 15.59 195.63 15.61 195.44 15.63 195.26 15.65 195.09 15.67 194.93 15.69 194.75 15.71 194.58 15.73 194.41 15.76 194.27 15.78 194.12 15.8 194 15.82 193.84 15.84 193.69 15.87 193.55 15.89 193.45 15.91 193.34 15.92 193.25 15.94 193.07 15.97 192.91 16 192.77 16.04 192.74 16.04 192.71 16.05 192.68 16.06 192.12 16.19 191.57 16.37 191.02 16.56 190.85 16.62 190.68 16.7 190.51 16.77 190.14 16.92 189.78 17.07 189.43 17.25 189.23 17.35 189.04 17.46 188.84 17.57 188.52 17.75 188.2 17.93 187.89 18.13 187.69 18.26 187.49 18.39 187.3 18.53 187 18.74 186.7 18.96 186.41 19.2 186.22 19.35 186.03 19.5 185.84 19.66 185.54 19.91 185.25 20.18 184.97 20.46 184.79 20.63 184.62 20.79 184.45 20.97 184.14 21.29 183.84 21.62 183.54 21.96 183.4 22.12 183.26 22.27 183.12 22.43 182.23 23.5 181.37 24.68 180.56 25.99 180 26.88 179.47 27.85 178.95 28.85 178.82 29.1 178.69 29.36 178.56 29.61 177.54 31.66 176.59 33.92 175.71 36.38 175.6 36.69 175.49 37 175.38 37.31 174.52 39.81 173.72 42.51 173 45.38 172.91 45.74 172.82 46.11 172.73 46.48 172.02 49.4 171.37 52.5 170.79 55.77 170.72 56.18 170.65 56.59 170.58 57 170.3 58.65 170.02 60.33 169.77 62.06 169.77 62.06 169.77 62.06 169.77 62.07 169.52 63.81 169.29 65.6 169.06 67.41 169 67.86 168.95 68.32 168.9 68.78 168.47 72.44 168.1 76.26 167.78 80.21 167.74 80.71 167.7 81.21 167.66 81.71 167.51 83.7 167.37 85.71 167.24 87.76 167.24 87.76 167.24 87.76 167.24 87.76 167.12 89.82 167.01 91.93 166.91 94.05 166.89 94.58 166.86 95.12 166.84 95.65 166.75 97.78 166.67 99.94 166.6 102.13 166.6 102.13 166.6 102.13 166.6 102.13 166.54 104.33 166.49 106.56 166.45 108.82 166.44 109.39 166.43 109.96 166.42 110.53 166.39 112.79 166.36 115.07 166.35 117.38L166.35 117.38C166.35 117.82 166.35 118.28 166.35 118.76 166.35 125.07 166.52 135.59 166.83 149.43 166.85 150.49 166.88 151.58 166.9 152.68 167 157.09 167.12 161.82 167.24 166.82 167.37 171.82 167.51 177.11 167.66 182.65 167.74 185.42 167.81 188.25 167.89 191.15 168.13 199.83 168.4 209.06 168.69 218.75 168.98 228.44 169.29 238.58 169.62 249.09 169.9 257.85 170.18 266.87 170.48 276.08 170.6 279.77 170.72 283.49 170.85 287.24 171.04 292.87 171.22 298.56 171.42 304.3 171.55 308.13 171.68 311.99 171.81 315.86 173.98 379.83 176.56 449.61 179.07 510.49 179.3 516.02 179.53 521.49 179.75 526.86 179.98 532.24 180.2 537.53 180.43 542.73 180.88 553.12 181.32 563.13 181.76 572.67 181.91 575.85 182.05 578.98 182.19 582.05 182.33 585.12 182.48 588.14 182.62 591.1 182.69 592.58 182.76 594.04 182.83 595.49 184.87 637.51 186.68 666.83 187.93 673.45 189.49 681.68 196.41 689.95 206.29 697.59 209.58 700.14 213.21 702.62 217.07 705 242.83 720.89 279.28 732.57 300.08 732.7 296.13 608.23 288.71 159.62 287.35 76.71Z" stroke-width="0" fill="#BA7735"/><rect x="370.02" y="141.03" rx="6.92" ry="6.92" width="298.47" height="65.76" stroke-width="0" fill="#BA7735" transform="matrix(0.999354 -0.035946 0.035946 0.999354 -5.93 18.82)"/><path d="M602.05 280.11 437.76 286.03C427.8 286.39 419.36 278.54 419 268.58L419 268.58C418.64 258.62 426.49 250.18 436.45 249.82L600.74 243.9C610.7 243.54 619.14 251.39 619.5 261.35L619.5 261.35C619.86 271.31 612.01 279.75 602.05 280.11Z" stroke-width="0" fill="#BA7735"/><path d="M276.33 140.86C273.94 137.71 269.12 137.59 265.43 137.33 261.3 137.03 257.1 137.41 252.96 137.32 244.58 137.14 236.24 136.28 228.01 134.67 219.86 133.08 211.81 130.83 203.97 128.09 196.08 125.34 188.46 120.59 180.03 120 178.15 119.87 176.76 122.29 177.82 123.85 182.8 131.14 191.68 134.41 199.56 137.7 207.79 141.13 216.28 143.71 225.01 145.55 233.64 147.36 242.45 148.49 251.26 148.9 255.78 149.11 260.36 149.25 264.86 148.75 268.36 148.37 274.68 147.29 276.33 143.7 276.72 142.85 276.96 141.69 276.33 140.86Z" stroke-width="0" fill="#F89F47"/><path d="M287.33 610.71C283.16 609.61 278.69 609.41 274.41 608.87 270.36 608.36 266.34 607.69 262.33 606.92 254.22 605.36 246.2 603.31 238.34 600.79 230.56 598.3 222.86 595.58 215.39 592.25 211.52 590.53 207.72 588.65 203.9 586.84 200.32 585.15 196.81 583.12 192.76 583.94 191.39 584.22 190.57 585.87 190.94 587.15 192.12 591.24 196.03 593.48 199.45 595.61 203.03 597.85 206.78 599.79 210.57 601.65 218.38 605.5 226.47 609 234.73 611.77 242.74 614.45 250.93 616.64 259.21 618.31 263.35 619.15 267.51 619.85 271.7 620.44 276.31 621.09 281.24 621.96 285.89 621.45 291.66 620.82 293.75 612.39 287.34 610.71Z" stroke-width="0" fill="#F89F47"/></g></svg>