<svg viewBox="0 0 374.11 655.02" xmlns="http://www.w3.org/2000/svg" xmlns:xlink="http://www.w3.org/1999/xlink" id="Layer_1" overflow="hidden"><defs></defs><path d="M163.47 556.16C156.11 556.16 148.84 556.32 141.87 556.64 114.2 557.91 89.95 561.74 67.73 568.34 68.63 565.34 69.49 562.31 70.33 559.27 70.42 558.94 70.38 558.59 70.21 558.29 70.04 557.99 69.76 557.77 69.43 557.68 69.33 557.65 69.22 557.63 69.09 557.63 68.51 557.63 68 558.02 67.84 558.58 66.13 564.78 64.27 571.05 62.47 577.11 58.42 590.76 54.24 604.88 51.46 619.1 49.61 628.59 48.49 637.8 48.13 646.46 48.08 646.57 48.04 646.68 48.02 646.8 47.9 647.5 48.37 648.17 49.07 648.3 71.04 652.18 95.16 653.99 124.99 653.99 131.95 653.99 139.45 653.89 147.9 653.7 157.61 653.48 167.48 653.14 177.02 652.8 183.82 652.56 190.63 652.33 197.44 652.13 214.93 651.63 233 651.48 248.95 651.35L251.89 651.33C260.69 651.26 269.5 651.19 278.3 651.07 283.28 651 288.26 650.92 293.23 650.82L294.51 650.79C298.98 650.7 303.6 650.61 308.15 650.4 308.46 650.39 308.76 650.24 308.98 649.98 309.22 649.7 309.34 649.33 309.31 648.99 309.25 648.32 308.68 647.83 307.97 647.83 307.94 647.71 307.92 647.56 307.87 647.42 304.98 639.2 302.38 630.74 299.85 622.56 296.62 612.09 293.29 601.26 289.33 590.84 285.88 581.72 282.33 573.94 278.48 567.04 278.26 566.65 277.83 566.4 277.36 566.4 277.14 566.4 276.92 566.46 276.72 566.58 276.11 566.94 275.91 567.72 276.26 568.35 276.92 569.55 277.57 570.75 278.2 571.96 275.59 569.89 272.54 568.13 269.15 566.7 264.89 564.91 260 563.58 253.76 562.53 249 561.73 244.11 561.22 239.39 560.73L237.79 560.56C231.34 559.88 225.04 559.27 219.06 558.76 198.66 557.01 180.48 556.16 163.46 556.16" stroke-width="0" fill="#021621"/><path d="M130.86 620.6C130.73 620.81 130.82 621.06 131.02 621.19 132.97 622.53 134.99 623.76 137.05 624.93 138.83 625.95 140.65 626.9 142.46 627.88 144.06 628.75 145.67 629.6 147.25 630.5 148.67 631.3 150.08 632.13 151.39 633.11 152.8 634.23 154.1 635.49 155.22 636.9 156.2 638.23 157.01 639.65 157.68 641.16 159.25 644.96 160.01 649.05 160.68 653.09 160.81 653.54 161.03 653.92 161.35 654.25 161.84 654.73 162.51 655.01 163.2 655.01 163.89 655.01 164.56 654.73 165.05 654.25 165.5 653.8 165.88 653.05 165.81 652.4 165.59 650.13 165.25 647.87 164.71 645.65 164.25 643.8 163.6 642.02 162.84 640.27 161.7 637.64 160.01 635.19 157.88 633.26 155.95 631.52 153.69 630.33 151.32 629.31 148.8 628.23 146.2 627.39 143.61 626.47 142.46 626.06 141.32 625.64 140.19 625.17 137.13 623.87 134.21 622.31 131.45 620.44 131.39 620.4 131.31 620.38 131.24 620.38 131.09 620.38 130.93 620.47 130.85 620.6M151.23 632.99C151.23 632.99 151.31 633.05 151.34 633.08 151.3 633.05 151.26 633.02 151.23 632.99" stroke-width="0" fill="#04293E"/><path d="M132.89 0C129.6 0 126.21 0.3 122.8 0.89 116.78 1.93 110.79 4.19 104.99 7.62 99.81 10.68 94.93 14.71 90.49 19.6 86.31 24.18 82.67 29.49 79.66 35.37 76.76 41.04 74.63 47.1 73.33 53.38 72.04 59.63 71.7 65.92 72.32 72.08 72.85 77.34 74.15 82.42 76.16 87.19 77.17 89.58 78.4 91.95 79.82 94.22 80.96 96.05 82.29 97.86 83.87 99.74 83.73 102.62 83.37 105.6 82.8 108.6 82.8 108.6 82.77 108.78 82.77 108.78 82.34 110.92 81.81 113.05 81.21 115.11 81.14 115.21 81.08 115.33 81.04 115.48 80.95 115.88 80.84 116.28 80.73 116.68 80.65 116.94 80.56 117.21 80.48 117.46 80.46 117.53 80.45 117.59 80.43 117.66 80.11 118.66 79.7 119.7 79.23 120.73 77.97 123.31 76.31 125.83 74.13 128.44 70.5 132.7 66.22 136.43 62.09 140.05 60.35 141.57 58.61 143.09 56.91 144.65 53.6 147.69 51.12 150.36 49.08 153.03 46.62 156.27 44.53 160 42.89 164.13 39.72 172.06 38.8 180.91 40.28 189.05 41.04 193.21 42.48 197.21 44.58 200.93 46.71 204.71 49.64 208.28 53.06 211.24 56.12 213.89 59.37 215.88 62.71 217.15L62.44 217.57C60.77 220.42 59.27 223.59 57.97 226.99 55.45 233.6 53.99 240.58 53.62 247.76 53.25 255.09 54.14 262.04 56.26 268.43 58.51 275.19 62.24 281.19 67.04 285.78 68.2 286.89 69.45 287.94 70.76 288.92 70.85 289.16 71 289.35 71.21 289.48 80.2 295.28 90.06 300.13 100.51 303.9 109.99 307.31 120.15 309.9 131.55 311.83 153.39 315.53 175.62 315.9 196.51 315.96L201.4 315.96C201.4 315.96 208.07 315.96 208.07 315.96L215.21 315.96C229.29 315.96 245.65 316.06 261.55 317.38 264.97 317.66 268.37 318.01 271.66 318.4L271.68 318.4C272.29 318.4 272.76 318.09 272.96 317.62 274.49 317.7 276.04 317.74 277.58 317.74 280.5 317.74 283.42 317.61 286.23 317.34 291.19 316.87 296.3 315.87 301.4 314.37 308.68 312.23 315.49 309.13 321.63 305.15 324.61 303.22 327.48 301.05 330.14 298.72 332.65 296.51 335.11 294 337.46 291.26 341.79 286.21 345.47 280.4 348.39 273.99 351.15 267.95 353.11 261.35 354.22 254.38 355.28 247.7 355.42 240.7 354.64 233.57 353.67 224.75 351.17 216.08 347.22 207.8 347.3 207.79 347.39 207.75 347.48 207.71 349.16 206.98 350.81 206.08 352.39 205.04 354.29 203.78 355.97 202.27 357.5 200.82 363.45 195.19 368.09 188.52 370.9 181.54 373.56 174.96 374.59 167.83 373.87 160.92 373.17 154.12 370.63 147.23 366.53 140.98 364.42 137.78 361.76 134.62 358.62 131.59 356.96 129.99 355.21 128.55 353.57 127.23 351.72 125.74 349.87 124.24 348.04 122.72 340.3 116.29 334.78 110.92 330.15 105.29L329.94 105.04C327.91 102.51 326.02 99.86 324.36 97.22 322.57 94.38 320.94 91.33 319.38 87.89L319.38 87.89C317.7 84.09 316.28 80.11 314.91 76.25L314.63 75.47 313.93 73.5C312.73 70.11 311.48 66.59 310.17 63.17 308.52 58.86 306.87 55.06 305.12 51.55 303.18 47.63 300.92 43.91 298.42 40.48 297.27 38.91 295.99 37.32 294.49 35.63 293.14 34.11 291.63 32.58 289.56 30.65 286.53 27.82 283.15 25.1 279.52 22.57 272.15 17.44 264.25 13.89 256.07 12.02 253.67 11.47 251.09 11.09 248.18 10.85 246.87 10.74 245.53 10.69 244.09 10.69 242.44 10.69 240.67 10.76 238.67 10.9 233.71 11.26 228.71 12.09 223.88 12.9 222.7 13.1 221.53 13.29 220.35 13.48 217.1 14 212.82 14.63 208.5 14.92 207.1 15.02 205.65 15.07 204.22 15.07 202.12 15.07 199.95 14.97 197.78 14.76 197.78 14.76 197.78 14.76 197.76 14.76 197.74 14.76 197.71 14.76 197.71 14.76 197.71 14.76 197.67 14.76 197.64 14.76L197.61 14.76C187.57 13.67 177.87 10.55 168.49 7.54 161.83 5.4 154.96 3.19 148.01 1.72 143.82 0.84 139.63 0.29 135.56 0.08 134.66 0.03 133.77 0.01 132.87 0.01" stroke-width="0" fill="#021621"/><path d="M91.68 94.95C91.07 94.95 90.44 95 89.79 95.1 87.92 95.39 86.03 96.25 84.01 97.71 82.46 98.83 80.94 100.4 79.49 102.38 77.15 105.57 75.59 109.46 74.71 114.28 73.96 118.39 73.92 122.83 74.61 127.11 76.07 136.13 80.7 143.52 87.3 147.38 87.57 147.54 87.87 147.62 88.16 147.62 88.62 147.62 89.01 147.41 89.28 147.03 89.53 146.7 89.61 146.2 89.48 145.77 89.92 145.64 90.35 145.46 90.74 145.27 91.67 144.85 92.64 144.25 93.69 143.44 94.34 142.94 94.99 142.33 95.75 141.52 96.7 140.51 97.51 139.53 98.24 138.55 99.46 136.9 100.59 134.95 101.8 132.41 102.71 130.52 103.46 128.5 104.1 126.25 104.75 123.99 105.23 121.65 105.55 119.28 105.83 117.19 105.9 114.97 105.77 112.51 105.73 111.61 105.62 110.68 105.44 109.66 105.23 108.47 104.85 107.3 104.52 106.3 103.96 104.58 103.06 102.82 101.78 100.94 101.07 99.89 100.2 98.91 99.11 97.93 98.26 97.17 97.28 96.52 96.02 95.89 94.77 95.27 93.27 94.94 91.69 94.94" stroke-width="0" fill="#CB5C37"/><path d="M86.16 101.64C86.12 101.85 86.27 102.1 86.5 102.13 86.98 102.19 87.46 102.28 87.93 102.42 88.61 102.64 89.24 102.95 89.84 103.33 90.52 103.79 91.14 104.32 91.7 104.92 92.44 105.75 93.06 106.66 93.61 107.63 93.61 107.62 93.6 107.61 93.59 107.6 94.67 109.66 95.44 111.9 95.98 114.16 96.16 114.97 96.3 115.8 96.41 116.63 96.46 117.02 96.62 117.38 96.93 117.63 97.23 117.87 97.62 118 98.01 117.97 98.8 117.9 99.45 117.17 99.35 116.37 98.95 112.78 97.5 109.3 95.24 106.48 94.16 105.13 92.89 103.93 91.44 102.99 90.01 102.07 88.36 101.48 86.67 101.28 86.65 101.28 86.63 101.28 86.61 101.28 86.4 101.28 86.22 101.41 86.18 101.63M89.88 103.34C89.88 103.34 89.91 103.36 89.93 103.37 89.91 103.37 89.9 103.35 89.88 103.34M91.61 104.8C91.61 104.8 91.64 104.83 91.65 104.84 91.64 104.83 91.62 104.81 91.61 104.8" stroke-width="0" fill="#AB4124"/><path d="M146.02 30.25C141.41 30.38 136.92 30.84 132.69 31.63 128.4 32.43 124.26 33.67 120.39 35.31L120.12 35.43 119.24 35.82C118.78 36.03 118.52 36.57 118.59 37.13 117.25 39.09 115.97 41.2 114.79 43.38 113.64 45.51 112.56 47.85 111.57 50.3 109.93 54.38 108.53 58.89 107.16 64.49 106.22 68.37 105.42 72.36 104.64 76.21 103.45 82.12 102.21 88.22 100.47 94.1 100.32 94.59 100.17 95.09 100.02 95.58L100.02 95.58C98.3 100.94 96.17 106.22 94.11 111.32 92.41 115.53 90.65 119.89 89.14 124.25 87.24 129.73 85.96 134.62 85.22 139.22 84.55 143.39 84.3 147.93 84.46 152.72 84.73 160.69 86.33 168.46 89.23 175.83 92.01 182.91 95.96 189.4 100.97 195.1 103.48 197.96 106.21 200.58 109.11 202.92 111.98 205.23 115.16 207.37 118.59 209.25 124.29 212.41 130.59 214.72 137.3 216.12 137.19 216.82 137.1 217.53 136.99 218.23L137.05 218.07C135.93 225.41 134.21 231.73 131.79 237.4 130.05 241.35 127.96 244.86 125.6 247.84 125.6 247.84 125.53 247.94 125.52 247.97 125.52 247.96 125.56 247.89 125.56 247.89 123.65 250.22 121.53 252.24 119.27 253.92 117.31 255.32 115.19 256.51 112.97 257.45 112.32 257.87 111.67 258.28 111.01 258.69 110.19 259.2 109.37 259.72 108.54 260.22 108.54 260.22 108.54 260.23 108.54 260.24 108.63 260.57 108.85 260.87 109.15 261.04 108.47 263.73 108.17 266.37 108.27 268.86 108.37 271.33 108.83 273.72 109.67 275.96 111.25 280.22 114.09 284.09 118.13 287.46 121.85 290.56 126.41 293.18 132.06 295.47 136.96 297.47 142.35 299.03 148.53 300.26 154.08 301.35 159.78 302.04 165.48 302.31 167.14 302.4 168.78 302.44 170.37 302.44 173.77 302.44 177.07 302.25 180.17 301.87 182.22 301.63 184.05 301.29 185.77 300.84 188.71 300.08 191.77 299.04 195.39 297.58 203 294.5 209.56 290.57 214.89 285.91 219.34 282.04 224.93 275.66 226.31 267.26 226.38 266.9 226.38 266.6 226.2 266.28 226.05 266.01 225.81 265.81 225.52 265.7 225.59 265.49 225.59 265.27 225.53 265.05 225.46 264.77 225.25 264.41 224.95 264.27 222.11 262.94 219.51 261.35 217.23 259.56L217.06 259.45 217.06 259.45C214.87 257.62 212.93 255.58 211.31 253.38 209.78 251.25 208.48 248.89 207.45 246.36 206.28 243.4 205.46 240.13 205.02 236.64 204.51 232.2 204.62 227.4 205.34 222.37L205.29 222.52C206.25 216.4 208.07 210.23 210.71 204.18L210.71 204.18C212.13 200.99 213.75 197.91 215.53 195.04 216.97 195.31 218.31 195.48 219.62 195.58 220.58 195.66 221.55 195.69 222.52 195.69 224.12 195.69 225.75 195.58 227.34 195.38 231.22 194.88 235.29 193.76 239.43 192.05 243.18 190.51 246.67 188.55 249.79 186.25 253.11 183.8 255.88 181.01 258 177.97 260.3 174.7 261.81 171.13 262.5 167.35 263.22 163.42 262.96 159.42 261.73 155.77 260.62 152.47 258.61 149.5 255.9 147.17 253.36 144.98 250.17 143.47 246.68 142.82 245.48 142.59 244.25 142.48 243.03 142.48 240.73 142.48 238.4 142.87 236.09 143.62 239.2 135.88 241.25 127.16 242.19 117.74 243.15 108.36 242.91 98.42 241.49 88.18 241.12 85.56 240.77 83.55 240.35 81.68 239.93 79.81 239.38 77.87 238.72 75.94 237.47 72.28 235.85 68.78 233.89 65.53 232.02 62.44 229.76 59.45 227.17 56.66 224.79 54.11 221.97 51.62 218.79 49.27 213.01 45.02 206.08 41.51 198.18 38.82 194.12 37.44 189.94 36.33 186.38 35.44 182.03 34.34 177.67 33.39 173.43 32.63 164.54 31.03 156.5 30.24 148.87 30.24 147.91 30.24 146.96 30.25 146 30.28" stroke-width="0" fill="#DB633C"/><path d="M146.02 30.21C141.41 30.34 136.92 30.8 132.69 31.59 128.38 32.41 124.24 33.65 120.38 35.28L120.11 35.4 119.24 35.78C118.77 35.99 118.49 36.55 118.57 37.12 117.24 39.07 115.97 41.17 114.78 43.36 113.62 45.51 112.54 47.84 111.56 50.28 109.91 54.36 108.52 58.87 107.15 64.47 106.52 67.06 105.95 69.68 105.42 72.27 106.02 71.68 106.63 71.11 107.25 70.56 110.05 68.04 113.05 65.75 116.17 63.64 119.28 61.55 122.5 59.62 125.81 57.86 128.89 56.23 132.04 54.72 135.27 53.39 135.32 53.37 135.37 53.36 135.42 53.36L135.44 53.36C135.44 53.36 135.52 53.3 135.56 53.29 135.61 53.27 135.66 53.26 135.72 53.26 135.77 53.26 135.83 53.27 135.88 53.29 135.97 53.33 136.09 53.42 136.11 53.53 136.95 56.79 137.98 60.01 139.24 63.13 140.48 66.22 141.91 69.24 143.52 72.15 145.39 75.51 147.48 78.75 149.79 81.82 152.13 84.94 154.67 87.89 157.38 90.69L157.3 90.61C160.53 93.93 163.99 97.02 167.64 99.85 171.28 102.67 175.09 105.25 179.05 107.58L178.95 107.52C187.68 112.65 197.08 116.59 206.84 119.27 206.81 119.26 206.77 119.25 206.73 119.24 215.87 121.73 225.31 123.11 234.79 123.19L234.68 123.19C236.99 123.21 239.3 123.15 241.6 123.01 241.86 121.28 242.08 119.51 242.26 117.72 243.22 108.36 242.98 98.41 241.56 88.16 241.19 85.51 240.84 83.51 240.42 81.65 239.98 79.72 239.42 77.79 238.78 75.91 237.52 72.22 235.89 68.71 233.94 65.5 232.08 62.41 229.81 59.42 227.21 56.62 224.8 54.04 221.99 51.55 218.84 49.23 213.04 44.97 206.09 41.46 198.21 38.78 194.16 37.4 189.98 36.29 186.42 35.4 182.07 34.3 177.71 33.35 173.46 32.58 164.51 30.98 156.48 30.19 148.89 30.19 147.93 30.19 146.98 30.2 146.02 30.23" stroke-width="0" fill="#CB5C37"/><path d="M181.47 212.56C176.83 214.08 172.05 215.18 167.2 215.77 164.66 216.08 162.1 216.24 159.54 216.38 156.89 216.52 154.25 216.62 151.6 216.66 148.94 216.69 146.26 216.66 143.59 216.51 142.43 216.45 141.27 216.36 140.1 216.26 139.51 216.26 138.91 216.26 138.32 216.23 137.98 216.22 137.64 216.2 137.29 216.18L137.11 217.18 136.96 218.24 137.05 218.12C136.54 221.34 135.93 224.36 135.2 227.2 136.49 227.43 137.78 227.6 139.09 227.73 139.05 227.73 139.01 227.73 138.97 227.72 144.79 228.26 150.66 227.86 156.4 226.85 156.37 226.85 156.33 226.86 156.29 226.87 163.01 225.67 169.59 223.61 175.78 220.73 180.38 218.55 184.78 215.91 188.68 212.64 188.65 212.66 188.63 212.69 188.59 212.71 190.56 211.05 192.39 209.23 194.01 207.22 189.97 209.32 185.78 211.15 181.46 212.58M175.84 220.7 175.8 220.72 175.84 220.7Z" stroke-width="0" fill="#C94E2B"/><path d="M234.79 153.35C234.42 153.43 234.09 153.66 233.89 153.98 233.7 154.28 233.57 154.74 233.69 155.09 234.16 156.46 234.46 157.87 234.62 159.31 234.62 159.29 234.62 159.28 234.62 159.26 234.62 159.28 234.62 159.29 234.62 159.31 234.63 159.41 234.64 159.5 234.65 159.6 234.64 159.52 234.63 159.43 234.62 159.35 234.77 161.22 234.66 163.1 234.34 164.95 233.93 167.09 233.26 169.16 232.36 171.14 231.34 173.26 230.07 175.25 228.57 177.05 227.36 178.47 226.01 179.75 224.53 180.89 224.29 181.07 224.31 181.45 224.5 181.65 224.71 181.88 225.03 181.86 225.26 181.68 227.27 180.15 229.09 178.4 230.71 176.46 232.42 174.42 233.83 172.17 234.95 169.76 236.03 167.43 236.72 164.94 237.04 162.4 237.37 159.74 237.15 157.04 236.53 154.44 236.37 153.77 235.77 153.31 235.11 153.31 235.01 153.31 234.9 153.32 234.79 153.35M234.62 159.35C234.62 159.35 234.62 159.32 234.62 159.31L234.62 159.31C234.62 159.31 234.62 159.34 234.62 159.35" stroke-width="0" fill="#C94E2B"/><path d="M242.69 149.86C241.58 149.91 240.46 150.12 239.39 150.4 238.37 150.67 237.4 151.11 236.48 151.62 236.04 151.86 235.63 152.15 235.24 152.46 235.01 152.65 234.79 152.84 234.58 153.04 234.47 153.16 234.36 153.28 234.27 153.42 234.14 153.56 234.06 153.72 234.01 153.89 233.92 154.05 233.88 154.24 233.89 154.42 233.9 154.61 233.96 154.79 234.06 154.96 234.26 155.27 234.63 155.47 235 155.45 235.35 155.43 235.66 155.36 235.98 155.24 236.37 155.09 236.73 154.9 237.1 154.73 237.85 154.38 238.61 154.06 239.39 153.76 240.76 153.24 242.16 152.84 243.6 152.57 243.58 152.57 243.55 152.57 243.53 152.58 244.26 152.45 245 152.37 245.73 152.31 246.39 152.27 247.05 152.29 247.71 152.34 248.35 152.4 249 152.48 249.64 152.61 250.28 152.74 250.91 152.94 251.53 153.16 251.48 153.15 251.42 153.13 251.37 153.11 252.52 153.53 253.62 154.04 254.66 154.71 255.06 155 255.45 155.29 255.83 155.62 256.01 155.77 256.28 155.77 256.44 155.59 256.59 155.42 256.58 155.14 256.41 154.99 254.93 153.7 253.32 152.55 251.54 151.71 250.66 151.3 249.74 150.97 248.81 150.67 247.81 150.34 246.74 150.15 245.7 150 244.92 149.89 244.12 149.84 243.33 149.84 243.11 149.84 242.9 149.84 242.68 149.85M254.7 154.74C254.7 154.74 254.72 154.75 254.73 154.76 254.72 154.76 254.71 154.75 254.7 154.74" stroke-width="0" fill="#C94E2B"/><path d="M114.05 256.79C112.93 257.44 111.8 258.04 110.65 258.62 110.66 258.62 110.68 258.61 110.69 258.6 110.3 258.8 109.9 259 109.51 259.2 109.2 259.35 108.95 259.51 108.79 259.84 108.64 260.15 108.61 260.51 108.73 260.83 108.84 261.14 109.07 261.4 109.36 261.55 109.65 261.7 110.06 261.76 110.35 261.61 112.09 260.74 113.82 259.88 115.49 258.9 116.09 258.55 116.2 257.67 115.83 257.13 115.58 256.76 115.2 256.59 114.8 256.59 114.55 256.59 114.29 256.66 114.06 256.8" stroke-width="0" fill="#FBA92D"/><path d="M118.78 253.57 118.78 253.57C117.37 254.48 115.97 255.37 114.57 256.25L113.67 256.82C110.78 258.64 107.96 260.43 105.26 262.26 102.62 264.28 100.53 266.16 98.67 268.17 97.6 269.33 96.68 270.49 95.52 271.97 94.56 273.2 93.62 274.46 92.7 275.71 92.08 276.56 91.46 277.41 90.84 278.27L90.73 278.42 90.27 279.05C89.19 280.52 88.12 281.99 87.01 283.44 85.62 285.25 84.28 286.86 82.92 288.37 81.95 289.44 80.95 290.49 79.94 291.53L78.77 292.76C76.16 295.51 73.56 298.25 70.99 301.01 64.89 307.55 60.14 313 56.02 318.17 45.18 331.83 38.71 343.97 35.66 356.37 33.9 363.49 33.39 370.88 34.12 378.33 34.48 382.1 35.23 386.06 36.33 390.11 37.33 393.79 38.75 397.71 40.66 402.11 44.09 410.03 48.52 417.47 53.14 425.03L54.81 427.75 54.92 427.93C58.61 433.94 62.79 440.75 66.29 447.62 67.43 449.88 68.5 452.18 69.49 454.45 70.6 457.08 71.57 459.87 72.37 462.76 73.16 465.59 73.76 468.55 74.2 471.82L74.27 471.47C74.69 475.49 74.9 479.48 74.86 483.33 74.82 486.96 74.53 490.77 73.98 494.98L74 495.22C72.58 504.97 69.91 515.42 65.57 528.09 63.62 533.79 61.6 539.19 59.71 544.18L59.5 544.74C57.52 549.94 55.28 555.83 53.48 561.79L54.24 562.91C55.59 564.49 57.02 566.06 58.62 567.73 59.06 568.19 59.5 568.64 59.94 569.09 67.45 576.01 74.65 581.83 81.94 586.86 91.94 593.78 102.44 599.3 113.15 603.27 118.64 605.32 124.56 607.06 130.75 608.44 136.82 609.8 143.27 610.8 150.46 611.51 156.69 612.12 163.14 612.43 169.65 612.43 176.84 612.43 184.31 612.05 191.86 611.31 205.36 609.97 218.99 607.36 232.39 603.55 239.04 601.67 245.01 599.63 250.64 597.32 256.65 594.85 262.48 591.96 267.96 588.72 274.94 584.59 281.08 579.92 286.2 574.83 286.39 574.64 286.59 574.44 286.68 574.11 286.34 573.18 286.02 572.28 285.72 571.37 284.45 568.33 283.31 565.06 282.24 561.35L282.19 561.16C280.79 556.16 279.77 551.21 278.95 547.03 278 542.22 277.14 537.33 276.33 532.09 274.88 522.7 273.68 512.86 272.69 502.01 270.73 480.73 269.88 458.01 269.26 441.43L269.13 437.94C268.43 419.25 267.7 399.92 266.2 380.77 265.36 370.1 264.32 360.23 263.02 350.62 261.71 340.93 260.22 332.18 258.49 323.87 257.03 316.92 255.39 310.65 253.47 304.71 251.26 297.86 248.59 291.54 245.54 285.95 243.99 283.11 242.23 280.3 240.3 277.6 239.25 276.13 238.23 274.83 237.17 273.62 236.03 272.31 234.77 271.14 233.69 270.16 231.47 268.18 229.07 266.46 226.74 264.8L225.72 264.06C225.05 263.58 224.42 263.12 223.81 262.66 220.84 260.77 217.94 258.75 215.19 256.64 214.78 256.95 214.58 257.52 214.69 258 214.64 258.01 214.58 258.09 214.54 258.15L214.4 258.32C212.69 260.51 210.58 262.59 208.11 264.51 204.33 267.41 199.84 269.94 194.37 272.26L194.51 272.26C192.3 273.12 190.63 273.75 189.13 274.25 187.77 274.69 186.39 275.09 184.78 275.5 181.76 276.26 178.51 276.87 175.12 277.34 170.56 277.95 166 278.26 161.58 278.26 157.66 278.26 153.8 278.02 150.1 277.53 144.66 276.77 139.96 275.54 135.71 273.76L135.85 273.92C132.95 272.58 130.39 271.09 128.26 269.47 126.48 268.08 124.91 266.52 123.58 264.82 122.4 263.26 121.41 261.55 120.62 259.75 119.87 257.94 119.32 255.98 118.97 253.93 118.95 253.81 118.9 253.7 118.83 253.58 118.83 253.58 118.82 253.56 118.81 253.56" stroke-width="0" fill="#2FC3B0"/><path d="M70.06 301.51C64.62 309.43 57.99 316.42 51.94 323.85 48.9 327.58 46.02 331.45 43.48 335.54 40.73 339.98 38.42 344.69 36.61 349.6 34.83 354.45 33.64 359.51 32.98 364.64 32.34 369.68 32.36 374.79 32.87 379.84 33.41 385.02 34.59 390.11 36.27 395.04 37.94 399.98 40.12 404.74 42.5 409.39 44.83 413.91 47.4 418.3 50.03 422.65 52.67 427 55.37 431.32 57.99 435.68 60.64 440.08 63.2 444.53 65.52 449.12 66.7 451.45 67.79 453.81 68.8 456.21 69.81 458.6 70.67 461.06 71.57 463.49 71.64 463.68 71.72 463.88 71.79 464.08 71.9 464.29 72.04 464.46 72.23 464.59 72.53 464.79 72.9 464.86 73.25 464.79 73.97 464.64 74.4 463.93 74.28 463.21 73.84 460.61 72.95 458.11 71.96 455.68 70.98 453.27 69.81 450.94 68.61 448.64 67.4 446.33 66.14 444.06 64.88 441.79 63.64 439.56 62.37 437.36 61.07 435.18 58.47 430.8 55.79 426.48 53.17 422.11 50.56 417.74 48.03 413.34 45.7 408.81 43.3 404.15 41.17 399.35 39.44 394.4 39.46 394.46 39.48 394.52 39.5 394.58 37.4 388.44 35.95 382.07 35.44 375.59 35.45 375.72 35.46 375.84 35.47 375.97 35.06 370.41 35.37 364.84 36.41 359.36 37.62 353.32 39.7 347.5 42.42 341.98 42.38 342.07 42.33 342.17 42.29 342.26 45.96 334.88 50.75 328.14 55.81 321.66 60.87 315.16 66.09 308.79 70.76 302 70.98 301.68 70.68 301.34 70.38 301.34 70.26 301.34 70.14 301.39 70.05 301.52M36.42 359.37C36.4 359.48 36.38 359.58 36.36 359.7 36.38 359.59 36.4 359.48 36.42 359.37M39.44 394.41C39.44 394.41 39.41 394.34 39.4 394.3 39.41 394.34 39.42 394.37 39.44 394.41" stroke-width="0" fill="#186258"/><path d="M51.83 454.66C49.77 454.66 47.98 454.93 46.37 455.48 45.79 455.68 45.21 455.97 44.59 456.37 44.06 456.71 43.58 457.13 43.05 457.73 42.62 458.21 42.24 458.79 41.85 459.55 41.55 460.14 41.33 460.79 41.16 461.6 40.9 462.76 41 464.11 41.46 465.6 41.83 466.78 42.45 467.98 43.41 469.35 44.19 470.45 45.16 471.54 46.47 472.79 47.6 473.87 48.86 474.94 50.33 476.05 51.45 476.91 52.67 477.76 54.05 478.65 48.41 480.31 42.59 481.77 36.97 483.18 33.24 484.12 29.51 485.05 25.8 486.06 19.91 487.66 15.1 489.18 10.65 490.84 9.01 491.45 7.11 492.24 5.38 493.43 4.64 493.95 4.04 494.46 3.55 494.98 3.02 495.55 2.6 496.2 2.27 496.99 2.03 497.57 1.96 498.29 2.07 499.02 2.12 499.33 2.21 499.64 2.38 500.03 2.57 500.44 2.83 500.79 3.07 501.12 3.6 501.81 4.38 502.35 5.08 502.79 6.11 503.44 7.28 503.9 8.3 504.29 8.48 504.36 8.67 504.42 8.85 504.48 7.94 504.91 7.07 505.4 6.25 505.91 4.62 506.93 3.29 507.99 2.2 509.12 1.04 510.32 0.34 511.49 0.1 512.62-0.04 513.27-0.02 513.9 0.13 514.47 0.31 515.1 0.68 515.71 1.22 516.21 1.84 516.8 2.6 517.17 3.19 517.42 4.24 517.87 5.35 518.09 6.19 518.24 7.86 518.54 9.64 518.71 11.62 518.78 11.62 518.82 11.65 518.88 11.69 518.95 11.76 519.06 11.84 519.18 11.92 519.29 12.12 519.57 12.33 519.84 12.57 520.08 13.01 520.52 13.58 520.94 14.26 521.33 15.38 521.97 16.72 522.44 18.49 522.81 20.69 523.26 23.08 523.48 26.02 523.48 26.89 523.48 27.76 523.46 28.62 523.43 31.5 523.33 34.66 523.09 38.29 522.68 43.3 522.12 48.42 521.24 53.92 519.99 63.14 517.91 72.32 515.03 81.19 512.25 83.07 511.66 84.95 511.07 86.83 510.49 87.03 510.7 87.31 510.84 87.61 510.86L87.64 510.86C88.08 510.86 88.34 510.72 88.56 510.57 89.11 510.2 89.65 509.83 90.19 509.45 90.54 509.34 90.9 509.23 91.25 509.13 91.79 508.97 92.18 508.5 92.22 507.97 94.62 506.19 96.91 504.29 99.02 502.34 100.75 500.75 102.39 499.05 103.89 497.32 105.4 495.57 106.61 493.89 107.6 492.17 109.44 488.97 110.54 485.82 110.86 482.8 111.13 480.21 110.69 477.65 109.59 475.41 108.59 473.38 107.02 471.55 104.79 469.81 102.94 468.38 100.71 467.12 97.76 465.86 92.65 463.67 87.27 462.36 81.27 460.99L79.57 460.61C77.66 460.18 75.75 459.75 73.85 459.27 72.33 458.88 70.83 458.44 69.32 458 68.26 457.69 67.2 457.38 66.13 457.09 62 455.96 58.8 455.29 55.75 454.91 54.26 454.73 52.97 454.64 51.81 454.64" stroke-width="0" fill="#DB633C"/><path d="M52.81 494.31C51.66 494.6 50.53 494.95 49.39 495.29 48.15 495.66 46.92 496.01 45.69 496.35 43.34 497.01 40.99 497.66 38.63 498.29 36.28 498.92 33.94 499.49 31.58 500.05 29.29 500.59 26.99 501.09 24.68 501.55 24.7 501.55 24.72 501.55 24.73 501.55 24.68 501.55 24.64 501.57 24.59 501.58L24.49 501.6C24.49 501.6 24.51 501.6 24.52 501.6 19.97 502.47 15.4 503.18 10.8 503.65 10.45 503.69 10.18 503.97 10.2 504.32 10.22 504.65 10.52 504.95 10.87 504.92 18.04 504.2 25.22 503.49 32.32 502.26 35.86 501.65 39.39 500.91 42.87 500.01 44.62 499.56 46.36 499.05 48.08 498.5 49.92 497.91 51.77 497.31 53.55 496.55 53.84 496.42 54.07 496.26 54.22 495.97 54.36 495.69 54.39 495.36 54.29 495.06 54.19 494.77 53.98 494.53 53.71 494.4 53.54 494.31 53.37 494.28 53.2 494.28 53.07 494.28 52.94 494.3 52.8 494.34M24.52 501.61C24.52 501.61 24.57 501.6 24.59 501.6 24.62 501.6 24.65 501.59 24.68 501.58 24.63 501.59 24.58 501.6 24.52 501.61" stroke-width="0" fill="#C94E2B"/><path d="M53.66 510.09C52.17 510.54 50.69 511.01 49.2 511.46 47.6 511.94 46 512.39 44.39 512.82 41.26 513.65 38.11 514.4 34.93 515.02 35.02 515.01 35.11 514.99 35.2 514.97 28.02 516.35 20.71 517.26 13.39 517.32 13.15 517.32 12.96 517.55 12.97 517.78 12.99 518.03 13.2 518.2 13.44 518.2 16.87 518.17 20.3 518.13 23.73 517.99 25.41 517.92 27.08 517.8 28.75 517.69 30.52 517.56 32.3 517.38 34.07 517.16 35.74 516.97 37.39 516.72 39.05 516.46 40.81 516.17 42.57 515.85 44.31 515.46 46.04 515.08 47.76 514.63 49.46 514.13 51.15 513.64 52.83 513.08 54.46 512.42 54.77 512.29 55.01 512.11 55.16 511.82 55.31 511.53 55.34 511.18 55.23 510.87 55.05 510.35 54.57 510.04 54.05 510.04 53.92 510.04 53.79 510.06 53.67 510.1" stroke-width="0" fill="#C94E2B"/><path d="M216.78 258.48C216.67 258.48 216.56 258.5 216.43 258.54 216.09 258.63 215.8 258.86 215.64 259.19 215.6 259.25 215.58 259.32 215.55 259.39 210.3 268.3 204.29 278.9 199.48 290.19 194.74 301.29 191.62 312.31 190.21 322.95 189.44 328.76 189.15 334.8 189.35 340.9 189.54 346.43 190.38 352.32 191.85 358.38 194.74 370.34 199.96 381.3 204.68 390.44 206.72 394.4 208.88 398.39 210.96 402.24L211.22 402.71 212.96 405.89C213.01 406.02 213.06 406.12 213.14 406.24 214.54 408.82 215.92 411.41 217.28 414.02 220.54 420.32 223.67 426.57 226.36 431.94 229.4 438.05 232.41 444.2 235.3 450.22 238.09 456.04 240.92 462.12 243.73 468.28 243.08 468.1 242.38 468 241.68 467.9 236.73 467.22 231.4 466.71 225.84 466.39 220.89 466.1 215.84 466.02 210.95 465.94L210.78 465.94C210.78 465.94 210.6 465.94 210.6 465.94L209.39 465.94C187.61 465.58 164.23 465.23 140.94 464.99 125.93 464.84 112.83 464.75 100.9 464.71 100.72 464.71 100.55 464.75 100.39 464.83L100.38 464.83C99.84 464.83 99.48 464.97 99.24 465.28 93.81 471.96 89.74 479.48 87.14 487.62 85.82 491.73 84.92 495.95 84.45 500.18 84.24 502.13 84.13 504.19 84.1 506.47 84.1 507.51 84.12 508.55 84.17 509.59L84.22 510.39 84.27 511.18C84.32 511.72 84.38 512.16 84.45 512.6L84.48 512.81C84.53 513.11 84.63 513.35 84.79 513.55L84.88 513.72C85.08 514.04 85.35 514.17 85.69 514.31L86.63 514.66 86.88 514.76 87.5 514.99C96.13 518.2 105.04 521.51 113.87 524.62 123.67 528.07 132.82 531.03 141.83 533.67 154.35 537.34 167.85 541.18 181.73 544.44 197.59 548.17 211.8 550.59 225.17 551.86 231.66 552.47 238.01 552.77 244.03 552.77 245.02 552.77 246.02 552.77 247.01 552.75 254.14 552.64 261.25 552.02 268.12 550.91 282.56 548.58 295.49 543.77 306.54 536.62 309.29 534.85 312.03 532.82 314.92 530.43 317.82 528.01 320.43 525.52 322.66 523.03 327.12 518.08 330.82 512.22 333.66 505.61 338.65 494.04 340.86 480.48 340.43 464.15 340.24 457.36 339.56 450.18 338.32 442.21 337.27 435.42 335.89 428.53 334.1 421.12 330.55 406.41 325.96 391.76 320.46 377.57 314.03 360.97 306.53 345.53 298.15 331.66 293.74 324.37 288.95 317.39 283.91 310.93 281.58 307.95 278.97 304.83 276.14 301.67 273.59 298.85 270.86 296.05 267.55 292.85 260.92 286.47 253.97 280.59 246.91 275.38 239.02 269.56 231.53 265 224.02 261.45 221.85 260.43 219.65 259.5 217.48 258.67 217.32 258.59 217.23 258.56 217.14 258.55 217.03 258.52 216.92 258.5 216.81 258.5" stroke-width="0" fill="#2FC3B0"/><path d="M102.26 463.58C101.32 463.62 100.37 463.69 99.46 463.94 98.9 464.09 98.51 464.64 98.52 465.21 98.52 465.75 98.93 466.35 99.49 466.44 100.89 466.68 102.32 466.62 103.73 466.59 105.26 466.57 106.79 466.55 108.32 466.56 111.3 466.58 114.28 466.67 117.26 466.73 123.23 466.85 129.2 467.01 135.16 467.16 147.09 467.46 159.02 467.78 170.95 467.89 176.88 467.95 182.81 467.93 188.73 467.88 194.38 467.83 200.03 467.77 205.68 467.79 211.22 467.8 216.76 467.9 222.3 468.08 225.04 468.17 227.78 468.33 230.53 468.52 233.26 468.71 235.99 468.91 238.72 469.19 240.35 469.36 241.99 469.54 243.62 469.72 243.55 469.72 243.48 469.71 243.41 469.7 249.46 470.41 255.48 471.35 261.46 472.58 267.57 473.84 273.63 475.37 279.59 477.2 279.82 477.27 280.07 477.1 280.13 476.88 280.19 476.63 280.04 476.41 279.81 476.34 274.38 474.67 268.9 473.19 263.36 471.92 257.96 470.67 252.51 469.61 247.05 468.7 241.66 467.8 236.24 467.08 230.8 466.5 225.31 465.91 219.8 465.46 214.29 465.12 208.71 464.77 203.11 464.57 197.52 464.49 194.68 464.45 191.84 464.43 189.01 464.44 186.07 464.45 183.13 464.49 180.19 464.51 168.26 464.56 156.33 464.32 144.4 464.08 136.88 463.93 129.37 463.78 121.85 463.68 118.15 463.63 114.45 463.59 110.76 463.59 108.87 463.59 106.97 463.58 105.08 463.56 104.14 463.56 103.19 463.56 102.25 463.6" stroke-width="0" fill="#186258"/><path d="M85.12 512.34C84.8 512.48 84.52 512.74 84.38 513.06 84.14 513.6 84.29 514.32 84.78 514.67 85.1 514.9 85.42 515.13 85.77 515.34 86.13 515.55 86.49 515.72 86.87 515.9 87.62 516.24 88.38 516.55 89.13 516.88 90.75 517.6 92.39 518.27 94.03 518.96 97.17 520.28 100.31 521.62 103.45 522.93 109.74 525.56 116.1 527.99 122.54 530.24 135.39 534.72 148.52 538.42 161.75 541.61 174.97 544.8 188.34 547.42 201.76 549.59 208.13 550.63 214.52 551.61 220.94 552.36 226.88 553.05 232.85 553.5 238.82 553.66 244.21 553.8 249.62 553.71 254.99 553.27 260.37 552.83 265.72 552.09 271.01 551 276.21 549.92 281.32 548.44 286.3 546.59 291.4 544.69 296.32 542.32 301 539.56 301.23 539.43 301.25 539.08 301.1 538.88 300.93 538.65 300.65 538.65 300.42 538.78 300.01 539.02 299.6 539.26 299.2 539.49 292.8 543.09 285.92 545.76 278.82 547.66 278.82 547.66 278.84 547.66 278.84 547.66 267.68 550.58 256.14 551.61 244.62 551.5L244.92 551.5C238.92 551.45 232.93 551.09 226.96 550.51 220.79 549.91 214.67 549.03 208.55 548.07 195.11 545.97 181.74 543.38 168.51 540.22 162.42 538.76 156.36 537.17 150.32 535.46 150.46 535.5 150.59 535.54 150.73 535.58 139.75 532.45 128.89 528.89 118.19 524.89 115.51 523.89 112.83 522.87 110.19 521.79 107.53 520.71 104.91 519.55 102.29 518.39 99.67 517.23 97.05 516.07 94.4 514.97 93.01 514.4 91.61 513.86 90.19 513.37 89.55 513.15 88.89 512.93 88.24 512.73 87.83 512.6 87.42 512.49 87.01 512.39 86.63 512.29 86.21 512.28 85.81 512.26 85.75 512.26 85.68 512.25 85.62 512.25 85.44 512.25 85.26 512.29 85.1 512.35" stroke-width="0" fill="#186258"/><path d="M202.05 384.96C201.85 385.05 201.73 385.32 201.84 385.52 207.14 395.04 212.21 404.71 217.04 414.49 219.45 419.37 221.83 424.25 224.16 429.17 226.5 434.09 228.79 439.03 231.08 443.96 232.96 448.01 234.82 452.08 236.66 456.15 237.6 458.24 238.54 460.33 239.48 462.42 239.93 463.42 240.38 464.41 240.83 465.41 241.31 466.47 241.79 467.56 242.35 468.59 242.52 468.9 242.72 469.13 243.05 469.26 243.36 469.38 243.71 469.37 244.01 469.23 244.32 469.1 244.55 468.84 244.67 468.53 244.8 468.21 244.76 467.89 244.64 467.57 244.2 466.37 243.66 465.19 243.14 464.02 242.56 462.72 241.97 461.43 241.37 460.14 240.23 457.66 239.07 455.19 237.9 452.72 235.55 447.8 233.2 442.89 230.76 438.01 225.88 428.27 220.84 418.6 215.66 409.02 211.36 401.04 207 393.1 202.59 385.18 202.51 385.03 202.36 384.93 202.2 384.93 202.14 384.93 202.09 384.94 202.03 384.97" stroke-width="0" fill="#186258"/><path d="M118.68 252.5C117.99 252.69 117.63 253.4 117.79 254.08 118.7 257.86 120.26 261.48 122.55 264.62 124.7 267.56 127.4 270 130.45 271.98 133.51 273.97 136.92 275.44 140.39 276.55 143.97 277.71 147.67 278.46 151.39 278.99 155.62 279.59 159.89 279.91 164.16 279.89 168.75 279.87 173.34 279.44 177.86 278.66 186.85 277.11 195.62 273.93 203.35 269.08 205.6 267.67 207.76 266.1 209.81 264.41 212.14 262.49 214.3 260.38 216.18 258.03 216.4 257.75 216.55 257.49 216.55 257.13 216.55 256.79 216.42 256.46 216.18 256.23 215.94 255.99 215.62 255.86 215.28 255.86 214.97 255.86 214.58 255.99 214.38 256.23 212.12 259.05 209.46 261.5 206.62 263.72 202.4 266.94 197.78 269.58 192.89 271.66 192.99 271.62 193.09 271.57 193.2 271.53 187.2 274.06 180.88 275.73 174.44 276.63 170.67 277.13 166.87 277.36 163.07 277.34 159.46 277.32 155.86 277.03 152.28 276.55L152.28 276.55C152.28 276.55 152.22 276.55 152.19 276.54 152.22 276.54 152.25 276.54 152.27 276.55 147.21 275.84 142.19 274.71 137.45 272.76 134.75 271.61 132.17 270.19 129.82 268.42 128.09 267.07 126.53 265.54 125.16 263.83 123.76 262.01 122.62 260.04 121.72 257.94 121.12 256.46 120.65 254.94 120.28 253.4 120.14 252.83 119.59 252.46 119.03 252.46 118.92 252.46 118.81 252.47 118.71 252.5M121.8 258.11C121.8 258.11 121.83 258.18 121.84 258.21 121.83 258.18 121.81 258.14 121.8 258.11M124.97 263.58C125.04 263.66 125.1 263.74 125.16 263.82L124.97 263.58ZM152.3 276.55 152.3 276.55C152.3 276.55 152.3 276.55 152.29 276.55 152.29 276.55 152.29 276.55 152.3 276.55" stroke-width="0" fill="#186258"/><path d="M157.45 23.39C152.98 23.39 148.59 23.62 144.4 24.07 137.91 24.76 131.92 26.04 126.61 27.86 120.86 29.82 115.82 32.48 111.63 35.77 109.4 37.52 107.37 39.49 105.6 41.6 103.8 43.75 102.2 46.17 100.84 48.81 98.08 54.18 96.43 60.49 95.94 67.58 95.83 69.08 95.78 70.63 95.77 72.2 95.77 72.8 96.27 73.21 96.73 73.34 96.96 73.55 97.26 73.66 97.59 73.66 97.97 73.66 98.32 73.5 98.56 73.23 102.57 68.48 106.75 64.18 111 60.42L111 60.42C114.49 57.36 118.23 54.5 122.11 51.92 125.9 49.39 129.99 47.03 134.63 44.69 136.14 43.94 137.65 43.22 139.18 42.51 141.18 48.55 144.13 54.67 147.92 60.69 152.21 67.49 157.55 74.1 163.79 80.34 169.79 86.35 176.56 91.88 183.89 96.8 191.05 101.59 198.61 105.62 206.38 108.77 212.95 111.43 219.56 113.34 226.02 114.44 225.64 116.13 225.32 118 225 120.3 224.56 123.48 224.27 126.64 224.15 129.69 224 133.34 224.13 136.33 224.58 139.1 224.83 140.67 225.17 142.02 225.61 143.23 226.06 144.49 226.65 145.58 227.36 146.48 228.74 148.22 230.7 149.22 232.71 149.22L232.88 149.22C233.87 149.19 234.92 148.83 235.99 148.14 236.85 147.59 237.65 146.81 238.51 145.69 239.9 143.88 241.06 141.63 242.17 138.61 242.68 137.23 243.11 135.87 243.46 134.58 243.9 134.47 244.26 134.1 244.4 133.59 247 123.93 248.55 113.87 249 103.68 249.45 93.38 248.66 84.35 246.58 76.07 244.72 68.7 241.68 61.83 237.54 55.66 233.6 49.78 228.61 44.57 222.72 40.2 216.97 35.94 210.37 32.49 203.1 29.96 199.44 28.69 195.62 27.65 191.75 26.86 188.52 26.2 185.31 25.71 182.33 25.28 175.88 24.36 169.5 23.77 163.38 23.52 161.28 23.44 159.35 23.39 157.47 23.39M153.85 64.83 153.8 64.78 153.77 64.69C153.99 65 154.21 65.31 154.43 65.61 154.26 65.38 154.09 65.15 153.92 64.92L153.91 64.92C153.91 64.92 153.89 64.88 153.89 64.88L153.89 64.88C153.89 64.88 153.89 64.85 153.89 64.85L153.86 64.82C153.86 64.82 153.86 64.82 153.86 64.81 153.86 64.81 153.86 64.81 153.86 64.81" stroke-width="0" fill="#021621"/><path d="M148.45 96.91C148.25 96.91 148.03 97.04 147.99 97.26 147.37 101.44 146.06 105.84 143.85 111.1 141.86 115.79 139.45 120.41 137.14 124.74L136.76 125.45C136.36 126.23 136.03 126.86 135.67 127.48 135.21 128.28 134.71 129.05 134.2 129.82L132.91 131.73C132.22 132.75 131.54 133.75 130.89 134.79 129.67 136.72 128.77 138.48 128.13 140.17 127.42 142.04 127.13 143.94 127.28 145.67 127.38 146.61 127.59 147.48 127.94 148.33 128.12 148.78 128.33 149.21 128.57 149.63 128.84 150.09 129.17 150.5 129.49 150.89 130.15 151.68 130.93 152.26 131.54 152.69 132.41 153.31 133.41 153.74 134.19 154.04 135.53 154.57 137.11 154.88 138.89 154.96 139.06 154.96 139.24 154.96 139.41 154.96 140.77 154.96 142.12 154.74 143.42 154.31 143.83 154.17 144.12 153.95 144.3 153.63 144.5 153.29 144.56 152.88 144.45 152.49 144.28 151.86 143.68 151.39 143.01 151.39 142.88 151.39 142.75 151.41 142.63 151.45 142.08 151.61 141.53 151.73 140.88 151.82 140.34 151.88 139.81 151.91 139.27 151.91 138.68 151.91 138.08 151.88 137.49 151.8 136.46 151.65 135.46 151.39 134.5 151.02 133.74 150.69 133.04 150.29 132.42 149.83 131.95 149.43 131.56 149.04 131.23 148.64 130.91 148.2 130.62 147.71 130.39 147.2 130.18 146.63 130.02 146.06 129.92 145.46 129.85 144.74 129.86 144 129.94 143.19 130.13 141.94 130.51 140.64 131.14 139.11 132.19 136.72 133.62 134.39 134.87 132.33L135.81 130.78C136.18 130.17 136.54 129.54 136.88 128.91 137.17 128.38 137.43 127.83 137.69 127.29L137.87 126.89 138.88 124.77 139.88 122.64 140.56 121.19C142.64 116.78 144.22 113.12 145.52 109.68 147.2 105.24 148.29 101.26 148.84 97.51 148.87 97.29 148.8 97.04 148.51 96.95 148.51 96.95 148.4 96.93 148.4 96.93" stroke-width="0" fill="#C94E2B"/><path d="M162.37 164.27 162.37 164.27C160.99 165.09 159.45 165.87 157.82 166.59 155.07 167.79 152.08 168.82 148.94 169.65 145.66 170.51 142.5 171.11 139.55 171.45 137.46 171.69 135.62 171.81 133.92 171.81 134.15 175.2 135.29 178.63 137.17 181.74 138.63 184.15 141.21 187.36 145.13 188.99 146.56 189.59 148.06 189.9 149.6 189.9 149.83 189.9 150.05 189.9 150.28 189.88 152.03 189.78 153.82 189.25 155.46 188.34 156.8 187.59 158.08 186.49 159.15 185.15 160.18 183.87 161.05 182.36 161.74 180.67 162.74 178.24 163.34 175.52 163.51 172.58 163.68 169.83 163.38 167.12 162.64 164.75 162.59 164.58 162.51 164.43 162.4 164.29 162.4 164.29 162.37 164.29 162.36 164.29" stroke-width="0" fill="#021621"/><path d="M161.3 174.46C159.64 174.99 158 175.6 156.42 176.32 154.91 177.01 153.46 177.79 152.06 178.67 152.05 178.67 152.04 178.68 152.03 178.69 150.99 179.36 149.99 180.09 149.04 180.87 148.08 181.67 147.17 182.54 146.31 183.47L146.34 183.44C145.62 184.24 144.93 185.08 144.33 185.97 143.9 186.61 143.5 187.26 143.12 187.93 143.75 188.32 144.42 188.67 145.14 188.97 146.57 189.57 148.07 189.87 149.61 189.87 149.84 189.87 150.06 189.87 150.29 189.85 152.04 189.75 153.83 189.22 155.47 188.31 156.81 187.56 158.09 186.46 159.17 185.13 160.19 183.85 161.07 182.34 161.76 180.65 162.61 178.58 163.17 176.3 163.42 173.85 162.71 174.04 162.01 174.24 161.31 174.45" stroke-width="0" fill="#F68677"/><path d="M152.03 178.69 152.05 178.69C152.05 178.69 152.05 178.67 152.06 178.67 152.05 178.67 152.04 178.68 152.03 178.69" stroke-width="0" fill="#F68677"/><path d="M152.01 178.7C152.01 178.7 152.01 178.7 152.02 178.7 152.02 178.7 152.02 178.7 152.03 178.7 152.03 178.7 152.01 178.71 152 178.72" stroke-width="0" fill="#F68677"/><path d="M118.55 112.93C116.21 112.93 113.75 116.64 112.94 121.38 112.08 126.44 113.37 130.89 115.81 131.32 115.93 131.34 116.06 131.35 116.18 131.35 118.52 131.35 120.98 127.63 121.79 122.89 122.2 120.45 122.14 118.07 121.6 116.2 121.06 114.32 120.11 113.17 118.92 112.97 118.8 112.95 118.67 112.94 118.55 112.94" stroke-width="0" fill="#021621"/><path d="M182.26 125.48C179.77 125.48 177.15 129.44 176.28 134.5 175.84 137.12 175.91 139.66 176.48 141.65 177.05 143.65 178.06 144.88 179.33 145.1 179.46 145.12 179.6 145.13 179.73 145.13 182.22 145.13 184.85 141.17 185.71 136.1 186.15 133.48 186.08 130.95 185.51 128.96 184.94 126.96 183.93 125.73 182.66 125.51 182.53 125.49 182.4 125.48 182.26 125.48" stroke-width="0" fill="#021621"/><path d="M129.76 71.64C127.08 71.64 124 72.06 120.86 72.86 116.95 73.85 113.4 75.32 110.87 76.99 108.33 78.67 107.13 80.35 107.47 81.72 107.89 83.35 110.54 84.32 114.57 84.32 117.26 84.32 120.34 83.9 123.47 83.1 127.38 82.1 130.93 80.64 133.47 78.96 136.01 77.28 137.21 75.61 136.86 74.24 136.45 72.61 133.79 71.63 129.76 71.63" stroke-width="0" fill="#021621"/></svg>