<svg viewBox="0 0 883.55 669.29" xmlns="http://www.w3.org/2000/svg" xmlns:xlink="http://www.w3.org/1999/xlink" id="Layer_1" overflow="hidden"><defs></defs><path d="M256.82 238.31 151.38 244.22C126.37 245.62 92.96 262.45 89.12 286.25L125.18 479.49 315.97 463.69 303.71 279.76C302.09 255.43 281.18 236.94 256.83 238.3Z" stroke-width="0" fill="#FFC236"/><path d="M103.9 365.48C240.34 412.84 253.27 406.29 313.05 420.02L315.96 463.7 125.17 479.5 103.89 365.48Z" stroke-width="0" fill="#BF9229"/><path d="M694.92 38.8C694.92 38.8 631.48 273.65 630.37 271.45 629.27 269.24 565.82 212.97 588.44 144.29 588.44 144.29 601.35 108.38 620.66 105.35 620.66 105.35 620.84 83.96 621.57 76.87 622.92 63.69 626.51 48.58 638.92 26.78 638.92 26.78 674.17-17.75 730.22 8.02L694.91 38.8Z" stroke-width="0" fill="#312838"/><path d="M779.05 95.19C779.05 95.19 816.29 118.36 805.81 157.25L795.82 179.59C795.82 179.59 814.51 188.88 815.74 208.55 816.29 217.38 808.84 244.13 808.84 244.13 808.84 244.13 838.15 252.74 836.15 275.58 835.15 286.96 829.53 304.82 814.08 315.58L630.37 271.45 647.67 139.35 779.04 95.19Z" stroke-width="0" fill="#312838"/><path d="M639.22 231.65 744.66 237.56C769.67 238.96 803.08 255.79 806.92 279.59L787.02 511.61 580.07 457.03 592.33 273.1C593.95 248.77 614.86 230.28 639.21 231.64Z" stroke-width="0" fill="#2FC3B0"/><path d="M883.55 528.1C883.55 570.03 774.25 669.29 530.26 669.29 286.27 669.29 0 570.04 0 528.1 0 486.16 197.79 452.17 441.77 452.17 685.75 452.17 883.54 486.16 883.54 528.1Z" stroke-width="0" fill="#B64D36"/><ellipse cx="441.77" cy="511.62" rx="441.77" ry="75.93" stroke-width="0" fill="#F36648"/><g><path d="M399.86 394.83C417.22 395.93 420.63 397.31 443.86 399.73 448.34 400.2 462.44 401.67 462.36 405.82 462.24 412.37 459.56 410.87 450.9 410.91 447.27 410.93 438.78 410.72 438.78 410.72L456.51 414.64C460.46 415.43 466.3 417.23 468.91 421.46 471.06 424.95 468.89 428.42 460.82 428.02L443.01 426.62C443.01 426.62 454.09 428.2 460.78 429.46 465.32 430.31 466.88 433.25 466.97 435.54L466.97 435.54C467.12 439.45 463.71 442.56 459.83 442.05L436.38 438.73 451.36 442.55C454.76 443.6 458.6 446.36 455.92 451.19 455.13 452.62 453.26 454.72 450.47 454.77 441.1 454.93 418.09 447.71 417.68 447.73 417.19 447.75 368.83 446.18 368.83 446.18L357.16 390.22 380.32 391.11C380.32 391.11 387.19 394.03 399.87 394.84Z" stroke-width="0" fill="#FDAD8B"/><line x1="431.81" y1="409.82" x2="438.79" y2="410.72" stroke="#312838" stroke-width="0.3" stroke-linecap="round" stroke-linejoin="round" fill="none"/><line x1="435.87" y1="425.35" x2="443.02" y2="426.62" stroke="#312838" stroke-width="0.3" stroke-linecap="round" stroke-linejoin="round" fill="none"/><line x1="430.26" y1="437.49" x2="437.29" y2="438.97" stroke="#312838" stroke-width="0.3" stroke-linecap="round" stroke-linejoin="round" fill="none"/></g><path d="M377.68 443.27C380.77 444.26 411.5 460.96 420.01 465.11 422.51 466.33 425.53 464.71 425.8 461.94 426.15 458.31 424.38 454.3 421.56 451.56L410.29 439.93" stroke-width="0" fill="#FDAD8B"/><path d="M383.74 450.3C383.42 452.19 361.28 448.33 313.24 438.92L308.87 371.6 408.37 394.16C408.37 394.16 390.44 410.95 383.74 450.3Z" stroke-width="0" fill="#FFC236"/><path d="M653.6 206.1 653.6 248.63C653.6 248.63 701.6 274.15 731.37 244.98L724.08 196.37 653.6 206.09Z" stroke-width="0" fill="#FDAD8B"/><path d="M721.65 313.04 818.87 445.65 833.75 436.85C863.36 419.34 871.69 380.27 851.8 352.21L796.45 262.64C790.21 252.55 780.03 245.54 768.38 243.31L735.6 237.05 721.66 313.03Z" stroke-width="0" fill="#2FC3B0"/><path d="M537.43 253.75C556.82 256.82 588.03 264.34 597.69 281.67L594.5 429.72C594.5 429.72 589.07 430.69 581.04 431.19 545.24 433.39 515.51 403.83 516.89 367.99L520.76 267.47C521.09 258.82 528.88 252.41 537.43 253.76Z" stroke-width="0" fill="#2FC3B0"/><path d="M569.85 269.72C569.85 269.72 592.34 273.11 597.7 281.67L595.59 379.74" stroke="#312838" stroke-width="0.27" stroke-linecap="round" stroke-linejoin="round" fill="none"/><path d="M532.76 411.48C532.76 411.48 552.41 442.76 594.51 429.73" stroke="#312838" stroke-width="0.27" stroke-linecap="round" stroke-linejoin="round" fill="none"/><path d="M653.6 228.4C653.6 228.4 699.66 231.66 709.92 206.37L653.51 209.65 653.61 228.39Z" stroke-width="0" fill="#E07A5B"/><path d="M601.04 268.43C601.04 268.43 626.09 233.02 609.27 212.01 606.8 208.92 602.37 209.1 599.14 206.82 588.86 199.53 574.41 200.24 568.18 203.89L569.55 168.86C569.75 165.15 566.8 162.03 563.08 162.01L563.08 162.01C560.22 162 557.69 163.86 556.84 166.59L536.72 231.63C536.72 231.63 529.8 264.91 566.56 276.3L599.95 270.65" stroke-width="0" fill="#FDAD8B"/><path d="M586.7 214.31C593.59 205.87 597.7 205.3 597.7 205.3" stroke="#312838" stroke-width="0.27" stroke-linecap="round" stroke-linejoin="round" fill="none"/><path d="M597.25 225.76C597.25 225.76 602.74 220.59 606.96 218.71" stroke="#312838" stroke-width="0.27" stroke-linecap="round" stroke-linejoin="round" fill="none"/><path d="M580.07 197.29C578.25 198.44 576.4 199.13 570.68 206.37" stroke="#312838" stroke-width="0.27" stroke-linecap="round" stroke-linejoin="round" fill="none"/><path d="M661.53 40.07C643.07 47.78 628.68 58.85 619.9 118.36 619.9 118.36 608.87 198.21 651.62 215.03 673.81 223.76 720.97 222.77 742.09 184.84 754.17 163.16 757.59 152.18 763.5 98.08 763.5 98.08 738.44 7.98 661.53 40.08Z" stroke-width="0" fill="#FDAD8B"/><path d="M661.53 119.79C659.42 124.04 658.25 125.37 653.8 131.7 651.28 135.29 648.05 140.47 647.99 144.7 647.94 148.3 650.24 151.5 652.75 154.08" stroke="#E07A5B" stroke-width="0.57" stroke-linecap="round" stroke-linejoin="round" fill="none"/><g><path d="M697.93 121.57C698.3 126.51 696.05 130.69 692.91 130.93 689.77 131.16 686.94 127.35 686.57 122.41 686.2 117.47 688.45 113.29 691.59 113.05 694.73 112.82 697.56 116.63 697.93 121.57Z" stroke-width="0" fill="#312838"/><path d="M681.66 101.97C690.83 93.86 702.48 99.07 707.97 108.69 706.61 107.42 705.29 105.91 703.83 104.76 697.51 98.96 689.25 97.5 681.66 101.97L681.66 101.97Z" stroke-width="0" fill="#312838"/><path d="M687.86 119.64C688.01 118.32 688.87 116.23 690.42 116.43 691.98 116.63 691.34 118.84 691.19 119.95 691.04 121.05 691.88 123.28 690.09 123.17 688.31 123.06 687.7 120.96 687.85 119.64Z" stroke-width="0" fill="#8D7D9D"/></g><g><path d="M647.95 120.42C648.28 124.85 646.26 128.6 643.45 128.81 640.64 129.02 638.09 125.6 637.76 121.17 637.43 116.74 639.45 112.99 642.26 112.78 645.07 112.57 647.62 115.99 647.95 120.42Z" stroke-width="0" fill="#312838"/><path d="M632.66 104.45C635.99 97.86 643.86 95.56 650.35 98.92 651.2 99.38 652.01 99.91 652.79 100.45 651.45 100.06 650.09 99.52 648.73 99.26 642.65 97.67 636.89 99.92 632.65 104.45L632.65 104.45Z" stroke-width="0" fill="#312838"/><path d="M638.92 118.68C639.05 117.5 639.82 115.62 641.22 115.8 642.62 115.98 642.05 117.96 641.91 118.95 641.77 119.94 642.52 121.94 640.93 121.84 639.34 121.74 638.79 119.86 638.92 118.67Z" stroke-width="0" fill="#8D7D9D"/></g><path d="M780.46 139.54C778.71 152.36 767.51 161.21 758.17 159.93 748.83 158.65 744.89 147.74 746.64 134.92 748.39 122.1 754.2 112.3 766.72 114.01 776.06 115.28 782.21 126.71 780.46 139.54Z" stroke-width="0" fill="#FDAD8B"/><path d="M759.03 144.08C759.03 144.08 756.76 124.83 768.35 128.34" stroke="#E07A5B" stroke-width="0.57" stroke-linecap="round" stroke-linejoin="round" fill="none"/><path d="M653.88 169.08 693.5 161.63C693.5 161.63 677.88 199.28 653.88 169.08Z" stroke-width="0" fill="#FFFFFF"/><path d="M663.09 33.16C663.09 33.16 671.16 56.5 718.92 94.1 736.63 108.04 795.23 152.15 803.78 124.5L794.3 101.22C794.3 101.22 824.83 18.78 730.22 8.02 730.22 8.02 670.58 0.05 663.08 33.15Z" stroke-width="0" fill="#312838"/><g><path d="M701.64 405.43 678.53 407.2C675.77 405.5 657.75 390.61 650.47 384.56 648.33 382.78 645.01 383.64 644.09 386.27 642.89 389.71 643.66 394.03 645.75 397.36L653.94 411.33 611.18 413.86C606.68 413.58 598.79 413.86 597.93 417.93 596.64 424.05 600.01 426.7 606.25 427.18L620.83 429.03 599.59 433.44C595.67 434.38 591.74 436.98 590.93 439.5 589.46 444.05 594.82 448.36 599.46 447.16L617.21 445.08 598.26 450.75C594.89 453.06 594.58 454.44 594.58 456.73L594.58 456.73C594.58 460.65 598.11 463.62 601.97 462.96L625.74 458.9 613.19 463.6C609.83 464.78 609.36 469.34 612.4 471.18L612.4 471.18C613.35 471.76 614.48 471.94 615.55 471.68 621.73 470.22 642.92 465.2 643.34 465.2 643.83 465.2 692.1 461.79 692.1 461.79L701.63 405.42Z" stroke-width="0" fill="#FDAD8B"/><line x1="627.78" y1="427.87" x2="620.85" y2="429.03" stroke="#312838" stroke-width="0.3" stroke-linecap="round" stroke-linejoin="round" fill="none"/><line x1="624.31" y1="443.54" x2="617.22" y2="445.08" stroke="#312838" stroke-width="0.3" stroke-linecap="round" stroke-linejoin="round" fill="none"/><path d="M629.83 458.26C628.98 458.17 623.85 459.23 623.85 459.23" stroke="#312838" stroke-width="0.3" stroke-linecap="round" stroke-linejoin="round" fill="none"/></g><path d="M675.47 469.19C675.79 471.08 808.6 474.91 852.93 418.58L806.24 373.96 680.22 396.25C680.22 396.25 667.79 424 675.47 469.19Z" stroke-width="0" fill="#2FC3B0"/><path d="M675.77 411.48C675.77 411.48 675.6 402.74 680.21 396.26L769.13 380.53 762.94 332.91" stroke="#312838" stroke-width="0.27" stroke-linecap="round" stroke-linejoin="round" fill="none"/><path d="M673.69 33.16C673.69 33.16 598.34 30.88 617.27 111.39" stroke="#312838" stroke-width="0.73" stroke-miterlimit="10" fill="none"/><path d="M663.09 33.16C663.09 33.16 674.09 101.18 773.1 120.8" stroke="#312838" stroke-width="0.73" stroke-miterlimit="10" fill="none"/><path d="M773.09 158.67C773.09 162.6 769.9 165.79 765.97 165.79 762.04 165.79 758.85 162.6 758.85 158.67 758.85 154.74 762.04 151.55 765.97 151.55 769.9 151.55 773.09 154.74 773.09 158.67Z" stroke-width="0" fill="#FFFFFF"/><path d="M639.12 242.25 657.22 286.19C662.93 300.06 680.81 303.85 691.66 293.49L739 248.28C741.26 246.12 739.84 242.31 736.72 242.15L642.58 237.34C639.97 237.21 638.11 239.84 639.11 242.25Z" stroke-width="0" fill="#FDAD8B"/><line x1="653.92" y1="215.87" x2="653.5" y2="251.69" stroke="#312838" stroke-width="0.27" stroke-linecap="round" stroke-linejoin="round" fill="none"/><path d="M242.44 212.76 243.47 265.63C243.47 265.63 195 277.1 165.22 247.93L171.95 203.04 242.43 212.76Z" stroke-width="0" fill="#FDAD8B"/><path d="M165.23 312.76 91.95 456.09 62.3 443.52C32.69 426.01 32.64 389.04 52.53 360.98L89.12 286.27C95.35 276.18 116.02 252.21 127.67 249.99L160.46 243.73 165.24 312.77Z" stroke-width="0" fill="#FFC236"/><path d="M242.44 246.39C242.44 246.39 201.26 256.93 171.9 218.8L242.53 227.65 242.43 246.39Z" stroke-width="0" fill="#E07A5B"/><g><path d="M217.51 413.86 194.4 412.09 203.93 468.46C203.93 468.46 252.2 471.87 252.69 471.87 253.11 471.87 274.29 476.88 280.48 478.35 281.56 478.61 282.69 478.42 283.63 477.85L283.63 477.85C286.67 476 286.2 471.45 282.84 470.27L270.29 465.57 294.06 469.63C297.92 470.29 301.45 467.32 301.45 463.4L301.45 463.4C301.45 461.1 301.14 459.73 297.76 457.42L278.81 451.75 296.56 453.83C301.19 455.03 306.56 450.72 305.09 446.17 304.28 443.66 300.34 441.05 296.43 440.11L275.19 435.7 291.09 436.95C298 437.91 300.67 436.84 299.38 430.72 298.52 426.65 288.68 424.81 284.25 423.96 276.58 422.5 261.97 418.15 254.4 416.9 245.27 415.38 217.5 413.87 217.5 413.87Z" stroke-width="0" fill="#FDAD8B"/><line x1="268.26" y1="434.53" x2="275.19" y2="435.69" stroke="#312838" stroke-width="0.3" stroke-linecap="round" stroke-linejoin="round" fill="none"/><line x1="271.73" y1="450.2" x2="278.82" y2="451.74" stroke="#312838" stroke-width="0.3" stroke-linecap="round" stroke-linejoin="round" fill="none"/><path d="M266.21 464.93C267.06 464.84 272.19 465.9 272.19 465.9" stroke="#312838" stroke-width="0.3" stroke-linecap="round" stroke-linejoin="round" fill="none"/></g><path d="M220.57 475.86C220.25 477.75 95.71 483.68 51.39 427.35L89.8 380.63 215.82 402.92C215.82 402.92 228.25 430.67 220.57 475.86Z" stroke-width="0" fill="#FFC236"/><path d="M220.27 418.14C220.27 418.14 220.44 409.4 215.83 402.92L126.91 387.19 148.92 342.44" stroke="#312838" stroke-width="0.27" stroke-linecap="round" stroke-linejoin="round" fill="none"/><line x1="242.2" y1="229.42" x2="242.54" y2="258.35" stroke="#312838" stroke-width="0.27" stroke-linecap="round" stroke-linejoin="round" fill="none"/><path d="M278.82 243.89C278.82 243.89 337.58 282.74 349.43 390.29L287.45 394.17 278.82 243.9Z" stroke-width="0" fill="#FFC236"/><g><g><path d="M136.1 137.27C136.1 137.27 127.36 196.6 22.84 173.74 22.84 173.74 63.56 60.21 136.1 137.27Z" stroke-width="0" fill="#2D0D02"/><path d="M142.62 133.45C140.41 150.01 137.96 166.8 122.77 164.77 107.58 162.75 85.41 142.68 87.62 126.12 89.83 109.56 103.93 97.77 119.12 99.79 134.31 101.81 144.83 116.88 142.63 133.45Z" stroke-width="0" fill="#FDA200"/><path d="M289.14 139.05C288.96 144.45 288.7 149.63 289.29 154.49 296.34 212.71 274.36 229.94 240.87 237.4 200.57 246.38 157.16 214.06 139 171.7 114.08 113.55 154.24 61.75 194.41 52.19 234.58 42.63 291.46 69.98 289.14 139.06Z" stroke-width="0" fill="#FDAD8B"/><path d="M260.92 142.87C262.21 147.67 264.06 152.32 266.41 156.69 268.51 160.6 271.11 164.76 270.31 169.13 269.63 172.84 266.61 175.65 263.5 177.78" stroke="#E07A5B" stroke-width="0.59" stroke-linecap="round" stroke-linejoin="round" fill="none"/><g><path d="M225.31 142.76C224.63 147.9 226.72 152.41 229.98 152.85 233.24 153.28 236.44 149.47 237.13 144.34 237.81 139.2 235.72 134.69 232.46 134.25 229.2 133.82 226 137.63 225.31 142.76Z" stroke-width="0" fill="#312838"/><path d="M237.91 120.54C230.73 118.98 223.01 121.24 217.81 126.41 217.03 127.11 216.37 127.93 215.6 128.68 216.2 127.81 216.8 126.92 217.47 126.1 222.26 120.26 230.81 117.73 237.9 120.55L237.9 120.55Z" stroke-width="0" fill="#312838"/><path d="M235.96 141.36C235.89 139.97 235.12 137.73 233.48 137.84 231.84 137.95 232.37 140.31 232.46 141.47 232.55 142.63 231.54 144.91 233.41 144.91 235.28 144.91 236.04 142.74 235.97 141.36Z" stroke-width="0" fill="#8D7D9D"/></g><g><path d="M273.7 145.77C273.09 150.38 274.96 154.43 277.89 154.82 280.82 155.21 283.69 151.79 284.3 147.18 284.91 142.57 283.04 138.52 280.11 138.13 277.18 137.74 274.31 141.16 273.7 145.77Z" stroke-width="0" fill="#312838"/><path d="M285.18 128.02C283.37 123.58 279.55 120.2 274.58 120.49 273.5 120.47 272.37 120.68 271.29 120.79 271.98 120.52 272.69 120.28 273.41 120.07 279.08 118.59 284.29 122.34 285.17 128.02L285.17 128.02Z" stroke-width="0" fill="#312838"/><path d="M283.24 144.51C283.17 143.27 282.48 141.26 281.01 141.36 279.54 141.46 280.01 143.57 280.09 144.62 280.17 145.66 279.26 147.71 280.94 147.7 282.62 147.7 283.3 145.76 283.23 144.51Z" stroke-width="0" fill="#8D7D9D"/></g><path d="M220.36 63.78C242 68.05 270.92 69.09 288.52 121.48 288.52 121.48 309.09 61.6 275.44 35.18 275.44 35.18 230.49-2.19 204.58 32.15 200.05 38.16 192.44 58.27 220.36 63.79Z" stroke-width="0" fill="#2D0D02"/><path d="M159.1 155.13C159.1 155.13 212.41 132.53 234.29 85.38 240.69 71.59 238.67 53.39 214.11 28 214.11 28 155.62-8.67 122.11 60.44 122.11 60.44 87.98 121.58 117.84 158.35 117.84 158.35 132.78 178.57 140.64 184.06L159.1 155.13Z" stroke-width="0" fill="#2D0D02"/><path d="M225.38 68.59C225.38 68.59 128.59 45.78 137.38 150.22" stroke="#584B64" stroke-width="0.59" stroke-linecap="round" stroke-linejoin="round" fill="none"/><path d="M230.4 45.12C230.4 45.12 263.56 15.01 286.77 59.69" stroke="#584B64" stroke-width="0.59" stroke-linecap="round" stroke-linejoin="round" fill="none"/><path d="M291.32 102.54C291.32 102.54 282.52 45.09 232.66 53.98" stroke="#584B64" stroke-width="0.59" stroke-linecap="round" stroke-linejoin="round" fill="none"/><path d="M221.15 44.61C221.15 44.61 126.09 27.56 132.47 149.56" stroke="#584B64" stroke-width="0.59" stroke-linecap="round" stroke-linejoin="round" fill="none"/><path d="M128.52 151.38C128.56 164.93 138.97 175.67 148.84 175.63 158.71 175.6 164.31 164.81 164.27 151.26 164.23 137.71 159.55 126.73 146.32 126.78 136.45 126.81 128.48 137.82 128.52 151.38Z" stroke-width="0" fill="#FDAD8B"/><path d="M150.14 159.06C150.14 159.06 155.16 139.4 142.64 141.44" stroke="#E07A5B" stroke-width="0.59" stroke-linecap="round" stroke-linejoin="round" fill="none"/><path d="M149.18 178.19C148.62 182.4 144.75 185.36 140.54 184.8 136.33 184.24 133.37 180.37 133.93 176.16 134.49 171.95 138.36 168.99 142.57 169.55 146.78 170.11 149.74 173.98 149.18 178.19Z" stroke-width="0" fill="#FFFFFF"/></g><path d="M233.5 190.78 266.22 189.03C268.1 188.93 269.25 191.06 268.13 192.57 262.24 200.45 247.04 216.16 231.79 194.27 230.8 192.85 231.77 190.87 233.5 190.78Z" stroke-width="0" fill="#FFFFFF"/></g><path d="M308.86 371.6C308.86 371.6 315.96 426.13 383.73 450.3 383.73 450.3 361.74 449.52 313.23 438.92L308.86 371.6Z" stroke-width="0" fill="#BF9229"/><path d="M313.24 438.92C310.28 400.47 306.59 330.99 306.59 330.99" stroke="#312838" stroke-width="0.27" stroke-linecap="round" stroke-linejoin="round" fill="none"/></svg>