<svg viewBox="0 0 821.06 1473.4" xmlns="http://www.w3.org/2000/svg" xmlns:xlink="http://www.w3.org/1999/xlink" id="Layer_1" overflow="hidden"><defs><clipPath id="clippath"><rect x="0" y="0" width="821.06" height="1473.4" stroke-width="0" fill="none"/></clipPath><clipPath id="clippath-1"><rect x="0" y="0" width="821.06" height="1473.4" stroke-width="0" fill="none"/></clipPath><clipPath id="clippath-2"><rect x="201.91" y="461.85" width="226.26" height="285.79" stroke-width="0" fill="none"/></clipPath><clipPath id="clippath-3"><rect x="635.42" y="1340.15" width="17.04" height="16.96" stroke-width="0" fill="none"/></clipPath><clipPath id="clippath-4"><rect x="602.9" y="1393.56" width="218.16" height="25.63" stroke-width="0" fill="none"/></clipPath><clipPath id="clippath-5"><rect x="270.84" y="1346.92" width="17.14" height="16.83" stroke-width="0" fill="none"/></clipPath><clipPath id="clippath-6"><rect x="129.05" y="1387.1" width="207.51" height="86.31" stroke-width="0" fill="none"/></clipPath></defs><g clip-path="url(#clippath)"><g clip-path="url(#clippath-1)"><path d="M538.23 593.96 656.27 562.13C656.27 562.13 630.95 487.24 611.26 433.14 593.9 385.44 564.7 365.57 549.54 354.77 543.39 350.39 536.31 347.57 528.82 346.57 500.9 342.84 424.52 332.81 386.63 329.65 339.75 325.74 241.88 351.54 241.88 351.54 241.88 351.54 156.02 399.15 127.07 418.37 119.97 423.09 114.56 429.88 111.59 437.87 106.23 452.26 99.43 477 91.27 509 86.08 529.35 68.92 596.66 68.92 596.66L169.58 593.57C189.86 655.17 208.66 710.5 208.66 710.5L190.42 823.8C190.42 823.8 328.02 878.83 363.18 874.92 398.34 871.01 557.67 809.48 557.67 809.48 557.67 809.48 539.44 629.76 539.44 624.55 539.44 622.6 538.89 609.54 538.21 593.96" stroke-width="0" fill="#FF5086"/><g opacity="0.3"><g clip-path="url(#clippath-2)"><path d="M422.12 474.14C414.73 464.74 401.83 460.87 389.93 462.06 378.03 463.26 367.01 468.87 357.11 475.59 326.59 496.31 304.93 527.52 285.76 559.03 252.36 613.9 224.24 671.99 201.91 732.22L202.7 747.64C227.73 744.48 244.06 723.38 254.92 700.61 265.78 677.84 270.46 652.62 280.04 629.29 298.24 584.93 334.75 548.42 379.11 530.21 394.02 531.75 410.05 526.97 419.8 515.58 429.55 504.2 431.4 485.92 422.13 474.14" stroke-width="0"/></g></g><path d="M539.35 613.51C538.8 613.56 535.46 580.87 531.89 540.5 528.32 500.12 525.88 467.36 526.43 467.31 526.98 467.26 530.32 499.95 533.89 540.33 537.46 580.7 539.9 613.47 539.35 613.52" stroke-width="0" fill="#1A2E35"/><path d="M142.78 467.31C142.92 467.28 143.44 469.09 144.26 472.39 145.13 476.08 146.24 480.77 147.57 486.38 150.28 498.21 153.89 514.59 157.75 532.7 161.61 550.82 165 567.24 167.35 579.15 168.43 584.82 169.33 589.56 170.03 593.28 170.62 596.63 170.88 598.49 170.75 598.52 170.61 598.55 170.1 596.74 169.27 593.45 168.4 589.76 167.29 585.07 165.96 579.46 163.25 567.63 159.65 551.25 155.78 533.13 151.92 515.01 148.53 498.59 146.18 486.68 145.1 481.02 144.21 476.28 143.5 472.56 142.91 469.21 142.65 467.35 142.78 467.32" stroke-width="0" fill="#1A2E35"/><path d="M521.36 347.99C521.94 348.15 518.55 361.25 516.21 377.72 513.81 394.18 513.38 407.71 512.78 407.69 512.52 407.69 512.28 404.29 512.4 398.8 512.51 393.31 513.03 385.73 514.22 377.42 515.42 369.12 517.06 361.7 518.5 356.4 519.94 351.1 521.12 347.91 521.37 347.98" stroke-width="0" fill="#1A2E35"/><path d="M538.23 593.96C537.17 594.27 568.22 701 568.22 701L476.94 693.57 433.39 746.96 588.94 804.26C588.94 804.26 685.31 761.28 685.31 757.38 685.31 753.48 650.64 563.64 650.64 563.64L538.22 593.96Z" stroke-width="0" fill="#FFCBA8"/><path d="M471.07 606.34C470.96 606.15 473.28 606.76 475.74 604.14 476.88 602.87 477.93 600.78 477.73 598.27 477.57 595.79 475.51 593.17 472.43 592.11 469.38 590.97 465.36 591.36 462.3 593.96 460.77 595.21 459.47 596.89 458.51 598.83 458.03 599.8 457.63 600.83 457.33 601.92 457.05 603 456.71 604.19 457.19 604.89 457.63 605.61 458.82 605.82 459.86 605.57 460.88 605.33 461.87 604.58 462.58 603.69 464.02 601.85 464.45 599.12 463.66 596.76 461.95 591.9 455.13 589.77 449.97 592.25 447.33 593.38 444.96 595.36 443.06 597.72 442.16 598.87 441.43 600.26 441.31 601.62 441.17 602.96 441.96 604.2 443.21 604.44 444.46 604.68 446.01 604.11 447.06 603.12 448.12 602.17 448.68 600.63 448.83 599.12 449.06 596.03 447.45 592.71 444.78 590.91 442.07 589.09 438.4 588.77 435.07 589.67 431.69 590.52 428.64 592.67 427.24 595.92 426.53 597.48 426.33 599.27 427 600.67 427.72 602.09 429.19 602.95 430.86 602.83 432.5 602.74 434.18 601.85 435.08 600.5 435.97 599.16 436.12 597.27 435.55 595.61 434.48 592.11 430.81 589.98 427.01 590.22 423.18 590.32 419.6 592.37 416.63 595.1 415.15 596.49 413.63 597.95 412.58 599.58 411.53 601.18 410.81 603.21 411.45 604.61 412.07 606.1 413.99 606.46 415.59 605.66 417.18 604.92 417.97 603.11 417.96 601.18 417.91 597.28 415.34 593.4 411.88 591.25 408.41 589.02 403.87 588.67 399.99 590.29 398.07 591.07 396.28 592.32 394.99 593.89 393.72 595.47 392.89 597.52 393.2 599.36 393.6 603.27 400.01 604.06 402.1 600.78 404.42 597.5 403 592.34 399.43 590.31 395.88 588.04 391.25 588.14 387.27 589.65 385.25 590.39 383.32 591.42 381.47 592.57 379.64 593.71 377.93 595.01 376.88 596.66 375.78 598.29 375.66 600.25 376.52 601.89 377.33 603.53 379.12 604.14 380.62 603.22 382.16 602.35 382.92 600.53 382.7 598.66 382.52 596.78 381.59 594.92 380.35 593.42 377.84 590.38 373.81 588.66 369.99 589.13 366.18 589.54 362.51 591.93 360.88 595.22 360.1 596.86 359.83 598.82 360.54 600.27 361.23 601.75 362.87 602.45 364.57 602.16 366.24 601.91 367.82 600.84 368.42 599.35 369.09 597.82 368.98 595.97 368.32 594.36 367.03 591.01 363.6 589.09 360.09 588.38 356.54 587.67 352.79 587.67 349.47 588.69 346.21 589.66 343.19 592.04 342.68 595.17 342.11 598.25 343.64 601.96 346.42 602.81 349.27 603.73 352.26 601.23 352.98 598.41 353.77 595.54 352.5 592.41 350.57 590.19 348.58 587.96 345.95 586.38 343.13 585.74 337.5 584.36 331.48 586 327.7 589.57 325.83 591.35 324.39 593.59 323.93 595.95 323.41 598.3 324.19 600.72 325.91 602.09 327.58 603.56 330.03 603.33 331.52 601.92 333.1 600.56 333.67 598.47 333.41 596.55 332.87 592.64 330.03 589.7 327.19 588.19 324.28 586.63 321.19 586.37 318.72 586.9 316.23 587.44 314.31 588.58 312.97 589.7 310.29 592.01 309.68 593.92 309.56 593.83 309.56 593.83 309.67 593.37 310.13 592.56 310.58 591.76 311.35 590.59 312.7 589.38 314.04 588.17 315.99 586.92 318.59 586.28 321.18 585.66 324.46 585.85 327.57 587.45 330.62 589.01 333.73 592.04 334.42 596.41 334.76 598.55 334.11 601.09 332.26 602.72 330.55 604.46 327.23 604.82 325.17 602.99 323.05 601.38 322.1 598.37 322.68 595.69 323.19 592.97 324.74 590.55 326.77 588.56 330.89 584.62 337.32 582.81 343.48 584.25 346.56 584.93 349.52 586.64 351.76 589.13 353.92 591.6 355.51 595.16 354.56 598.81 354.07 600.58 353.02 602.19 351.5 603.32 350 604.46 347.88 604.99 345.94 604.4 343.97 603.85 342.51 602.24 341.72 600.51 340.9 598.76 340.63 596.78 340.95 594.83 341.65 590.73 345.3 588.04 348.93 586.92 352.65 585.77 356.62 585.76 360.48 586.52 364.27 587.24 368.48 589.47 370.1 593.61 370.92 595.58 371.12 597.96 370.21 600.08 369.29 602.29 367.14 603.71 364.87 604.06 362.64 604.54 359.81 603.41 358.78 601.1 357.7 598.84 358.16 596.35 359.09 594.34 361.13 590.26 365.29 587.62 369.77 587.08 374.31 586.52 379 588.52 381.94 592.07 383.4 593.85 384.51 595.99 384.77 598.43 385.1 600.83 384.02 603.69 381.67 604.99 380.54 605.66 379.03 605.93 377.68 605.47 376.31 605.04 375.28 603.98 374.69 602.84 373.42 600.59 373.7 597.54 375.12 595.51 376.48 593.4 378.44 591.98 380.37 590.76 382.3 589.55 384.35 588.46 386.56 587.64 390.9 585.99 396.3 585.76 400.58 588.5 404.95 591.04 407 597.46 403.83 601.99 402.25 604.27 399.3 605.26 396.73 604.86 395.43 604.67 394.12 604.18 393.08 603.25 392.03 602.33 391.31 601.02 391.12 599.69 390.69 596.96 391.83 594.46 393.35 592.54 394.94 590.62 396.98 589.22 399.21 588.31 403.65 586.45 408.99 586.85 413 589.46 416.98 591.98 419.94 596.28 420.04 601.16 420.11 603.52 418.96 606.36 416.51 607.49 415.35 608.04 414.02 608.29 412.68 607.99 411.32 607.7 410.14 606.69 409.59 605.45 408.51 602.75 409.74 600.32 410.87 598.47 412.14 596.53 413.7 595.07 415.27 593.6 418.41 590.72 422.48 588.33 426.95 588.23 429.15 588.16 431.42 588.62 433.35 589.81 435.29 591.01 436.72 592.88 437.42 595 438.13 597.11 438.01 599.6 436.7 601.57 435.38 603.5 433.21 604.61 430.97 604.74 428.7 604.94 426.29 603.58 425.31 601.5 424.31 599.37 424.7 597.01 425.54 595.17 427.19 591.34 430.88 588.82 434.61 587.93 438.34 586.93 442.53 587.28 445.77 589.46 448.98 591.68 450.81 595.49 450.53 599.27 450.39 603.04 446.97 606.77 442.88 606.05 440.76 605.66 439.46 603.38 439.73 601.5 439.94 599.62 440.81 598.08 441.85 596.76 443.93 594.21 446.47 592.12 449.41 590.88 455.18 588.2 462.91 590.49 464.97 596.34 465.88 599.17 465.35 602.27 463.61 604.49 462.71 605.57 461.59 606.45 460.17 606.78 458.86 607.06 457.15 606.92 456.22 605.53 455.41 604.05 456.02 602.71 456.26 601.62 456.59 600.47 457.03 599.38 457.56 598.35 458.62 596.31 460.02 594.52 461.7 593.19 465.05 590.42 469.51 590.05 472.75 591.35 476.07 592.56 478.28 595.47 478.4 598.23 478.54 600.98 477.34 603.14 476.09 604.44 473.36 607.12 470.96 606.29 471.1 606.35" stroke-width="0" fill="#1A2E35"/><path d="M308.73 595.16 255.46 796.51 424.85 801.83 478.11 602.99 308.73 595.16Z" stroke-width="0" fill="#375A64"/><path d="M308.73 595.16 301.96 595.81 248.21 781.77 256.39 792.99 308.73 595.16Z" stroke-width="0" fill="#E0E0E0"/><path d="M420.87 646.49 475.88 646.49C475.88 646.49 484.34 645.96 488.05 654.42 491.75 662.88 491.22 670.29 491.22 670.29 491.22 670.29 494.39 674 494.93 681.4 495.46 688.81 495.46 709.97 494.93 711.55 494.4 713.14 488.58 714.72 488.58 714.72 488.58 714.72 492.29 723.18 489.11 729.53 485.94 735.88 481.17 737.47 481.17 737.47 481.17 737.47 473.77 754.4 466.36 756.51 458.95 758.63 452.08 756.51 448.37 756.51 444.66 756.51 384.89 725.83 384.89 725.83L384.89 718.95C384.89 718.95 363.73 721.06 363.2 709.43 362.67 697.79 376.95 698.48 376.95 698.48L409.22 698.48C409.22 698.48 373.78 699.9 370.6 694.61 367.43 689.32 363.2 676.63 374.04 674.51 384.88 672.4 433.82 672.4 433.82 672.4L460.52 676.82 464.75 676.82 461.45 665.06C461.45 665.06 433.39 664.99 429.23 664.46 425.07 663.93 417.14 662.87 417.14 655.47 417.14 648.07 420.84 646.48 420.84 646.48" stroke-width="0" fill="#FFCBA8"/><path d="M451.8 701.75C451.8 702.03 447.88 702.34 441.52 702.44 435.17 702.54 426.38 702.39 416.7 701.76 407.02 701.13 398.28 700.15 391.99 699.24 385.7 698.32 381.85 697.51 381.88 697.23 381.92 696.93 385.84 697.21 392.16 697.75 398.47 698.28 407.19 699.02 416.83 699.65 426.47 700.27 435.21 700.66 441.54 700.95 447.87 701.24 451.79 701.46 451.8 701.76" stroke-width="0" fill="#6F4540"/><path d="M446.79 731.48C446.76 731.76 443.26 731.68 437.63 731.19 432 730.7 424.25 729.78 415.74 728.4 407.23 727.02 399.58 725.44 394.09 724.12 388.6 722.8 385.25 721.77 385.31 721.5 385.37 721.21 388.83 721.72 394.39 722.65 400.76 723.73 408.04 724.95 416.08 726.3 424.13 727.56 431.42 728.7 437.81 729.7 443.37 730.57 446.82 731.18 446.78 731.48" stroke-width="0" fill="#6F4540"/><path d="M492.86 689.85C492.91 689.77 493.67 690.07 494.8 691.03 495.91 691.99 497.41 693.67 498.39 696.28 499.35 698.84 499.74 702.46 498.17 706.04 496.66 709.55 493.31 712.92 488.69 714.05L489.31 712.52C491.89 716.38 492.49 721.8 490.89 726.69 489.34 731.58 485.7 735.61 481.37 737.25L481.98 736.56C479.68 745.33 474.31 751.39 470.08 754.62 467.94 756.27 466.07 757.31 464.74 757.92 463.4 758.52 462.65 758.74 462.6 758.64 462.46 758.37 465.36 757.09 469.28 753.65 473.15 750.27 478 744.33 480.02 736.07L480.14 735.57 480.63 735.38C484.31 733.92 487.48 730.39 488.87 726.05 490.29 721.69 489.78 716.96 487.63 713.63L486.85 712.41 488.25 712.1C492.16 711.23 495.2 708.37 496.62 705.34 498.1 702.28 497.93 699.08 497.22 696.68 495.65 691.77 492.61 690.09 492.88 689.86" stroke-width="0" fill="#6F4540"/><path d="M363.2 428.12 397.16 359.61 386.63 329.65C386.63 329.65 437.58 303.21 420.17 249.23 411.76 223.16 390.08 170.91 369.91 123.83 348.22 73.2 291.29 47.72 239.08 65.27L233.9 67.01C179.07 89.08 167.19 147.98 190.77 202.18L259.71 403.6 363.2 428.11Z" stroke-width="0" fill="#FFCBA8"/><path d="M386.68 329.6C386.68 329.6 353.64 343.79 309.9 333.25 309.9 333.25 339.47 366.37 391.48 343.49L386.67 329.6Z" stroke-width="0" fill="#6F4540"/><path d="M371.71 166.37C373.22 170.37 371.07 174.95 366.91 176.6 362.76 178.25 358.18 176.35 356.67 172.34 355.16 168.33 357.31 163.75 361.46 162.1 365.61 160.45 370.2 162.36 371.71 166.36" stroke-width="0" fill="#1A2E35"/><path d="M367.05 150.91C366.43 152.23 359.17 149.88 350.92 152.68 342.64 155.36 338 161.65 336.77 160.93 336.18 160.63 336.54 158.5 338.53 155.69 340.49 152.9 344.29 149.55 349.45 147.84 354.6 146.14 359.57 146.58 362.71 147.68 365.91 148.78 367.38 150.29 367.06 150.9" stroke-width="0" fill="#1A2E35"/><path d="M295.71 191.61C297.22 195.62 295.07 200.19 290.91 201.84 286.76 203.49 282.18 201.59 280.67 197.58 279.16 193.57 281.31 188.99 285.46 187.34 289.61 185.69 294.2 187.6 295.71 191.6" stroke-width="0" fill="#1A2E35"/><path d="M286.8 175.38C286.33 176.76 278.85 175.22 270.95 178.89 263.01 182.45 259.08 189.2 257.77 188.63 257.15 188.39 257.27 186.24 258.96 183.23 260.6 180.24 264.02 176.5 268.96 174.24 273.9 171.99 278.88 171.89 282.13 172.64 285.42 173.39 287.05 174.74 286.8 175.37" stroke-width="0" fill="#1A2E35"/><path d="M337.09 234.03C336.89 233.57 341.73 230.96 349.69 227.1 351.73 226.17 353.58 225.08 353.45 223.53 353.43 221.84 351.79 219.86 349.94 217.75 346.24 213.31 342.37 208.66 338.3 203.78 321.95 183.83 309.35 167.13 310.16 166.48 310.97 165.83 324.88 181.47 341.23 201.43 345.21 206.37 349.02 211.07 352.64 215.58 354.24 217.71 356.53 219.97 356.52 223.49 356.48 225.26 355.32 226.92 354.09 227.74 352.87 228.61 351.7 229.03 350.68 229.44 342.46 232.71 337.28 234.49 337.09 234.03" stroke-width="0" fill="#1A2E35"/><path d="M275.58 146.58C275.52 149.1 266.92 150.81 257.62 155.24 248.23 159.48 241.37 164.95 239.41 163.36 238.51 162.59 239.17 160.02 241.59 156.78 243.99 153.56 248.3 149.81 253.9 147.21 259.5 144.62 265.14 143.75 269.15 144 273.19 144.24 275.57 145.4 275.58 146.58" stroke-width="0" fill="#1A2E35"/><path d="M357.21 128.69C356.39 131.06 350.04 131.02 343.17 133.23 336.22 135.2 330.96 138.74 328.96 137.23 328.05 136.47 328.33 134.29 330.27 131.66 332.17 129.05 335.86 126.2 340.61 124.76 345.36 123.33 350.01 123.66 353.03 124.78 356.1 125.9 357.54 127.56 357.21 128.69" stroke-width="0" fill="#1A2E35"/><path d="M208.54 240.52C207.49 240.43 167.93 242.01 181.47 278.37 195 314.73 228.71 293.64 228.38 292.58 228.05 291.52 208.54 240.52 208.54 240.52" stroke-width="0" fill="#FFCBA8"/><path d="M212.15 282.94C211.95 282.88 211.68 283.62 210.79 284.51 209.92 285.37 208.25 286.37 206.09 286.37 201.73 286.39 196.22 281.5 193.61 275.01 192.29 271.73 191.81 268.33 192.01 265.28 192.13 262.21 193.16 259.71 194.96 258.64 196.72 257.48 198.52 258.13 199.34 258.98 200.21 259.82 200.25 260.63 200.46 260.62 200.6 260.67 201.01 259.72 200.16 258.33 199.74 257.66 198.99 256.96 197.88 256.58 196.74 256.2 195.32 256.31 194.03 256.96 191.3 258.2 189.74 261.71 189.51 265.06 189.14 268.47 189.6 272.33 191.09 276.01 194.05 283.25 200.35 288.71 206.17 288.27 208.98 287.98 210.82 286.42 211.61 285.15 212.4 283.83 212.29 282.95 212.14 282.93" stroke-width="0" fill="#6F4540"/><path d="M314.7 247.92C316.02 247.39 319.05 256.35 328.86 260.14 338.67 263.95 347.89 259.73 348.38 260.96 348.69 261.48 346.84 263.42 342.84 264.89 338.93 266.35 332.72 267.03 326.71 264.71 320.72 262.38 316.95 257.85 315.41 254.28 313.81 250.65 314.06 248.09 314.69 247.93" stroke-width="0" fill="#1A2E35"/><path d="M383.06 44.34C379.89 37.59 372.92 32.96 365.56 32.09 364.8 29.99 363.92 28.01 362.87 26.22 356.19 14.95 341.18 8.84 329 13.7 323.85 5 313.7-0.47 303.61 0.03 293.52 0.53 283.94 6.96 279.68 16.12 267.91 11.16 253.29 13.98 244.2 22.95 243.06 24.08 241.96 25.36 241.61 26.93 241.39 27.96 241.63 29.09 242.22 29.93 237.02 25.63 229.66 24.02 223.18 25.95 220.97 26.61 218.92 27.7 217.07 29.06 211.49 31.64 206.82 36 204.6 41.81 188.17 41.5 172.77 55.57 171.61 71.96 159.82 76.63 151.59 89.09 151.91 101.77 144.42 105 138.89 112.4 137.94 120.51 136.98 128.61 140.63 137.1 147.17 141.99 147.17 141.99 123.4 156.49 137.79 177.21 145.15 187.8 160.23 180.46 160.23 180.46L204.91 248.08C204.72 248.56 212.6 255.58 216.4 252.22 220.2 248.86 221.19 243.44 222.37 238.51 223.73 232.86 225.66 227.19 225.19 221.4 224.73 215.61 221.03 209.54 215.29 208.64 220.93 204.41 222.86 196.56 221.84 189.58 220.83 182.6 217.39 176.24 214 170.05 209 160.92 204 151.79 199.01 142.65 212.22 137.85 222.2 125.14 223.73 111.16 235.72 115.31 250.36 106.04 251.73 93.43 260.41 105.17 279.03 107.91 290.73 99.17 291.83 107.27 307.86 109.74 316.02 109.24 324.17 108.73 331.78 100.3 331.78 100.3 331.78 100.3 341.39 102.34 348.44 100.65L348.44 100.65C348.71 100.58 348.99 100.52 349.25 100.44 359.97 97.96 366.94 85.13 368.91 74.32 371.66 73.65 374.29 72.53 376.56 70.81 384.39 64.87 387.25 53.24 383.08 44.35" stroke-width="0" fill="#1A2E35"/><path d="M81.12 596.3C81.12 596.3 57.55 681.64 52.34 702.47 47.13 723.31 47.19 771.71 58.91 786.04 70.63 800.37 109.7 809.48 109.7 809.48 109.7 809.48 186.22 772.11 212.26 726.53 238.31 680.95 309.54 556.97 309.54 556.97L286.97 495.06 168.37 608.31 169.59 593.59 81.11 596.31Z" stroke-width="0" fill="#FFCBA8"/><path d="M328.85 299.8 328.85 299.8C332.97 297.71 338 299.36 340.07 303.49L408.33 439.43 390.81 447.22 325.13 310.84C323.16 306.76 324.82 301.85 328.86 299.8" stroke-width="0" fill="#375A64"/><path d="M283.18 498.96 347 433.14 408.17 433.14 447.34 484.85C447.34 484.85 428.78 488.32 422.13 478.35L413.48 466.05C413.48 466.05 422.13 485 417.47 494.31 417.47 494.31 408.3 515.93 406.83 518.24 404.07 522.6 401.93 525.38 393.95 524.05 385.97 522.72 373.58 516.25 374.92 511.59 376.25 506.94 380.9 506.27 380.9 506.27L362.28 503.61C362.28 503.61 343.53 537.57 332.23 545.55 320.92 553.53 309.53 556.96 309.53 556.96L283.17 498.95Z" stroke-width="0" fill="#FFCBA8"/><path d="M170.75 606.33C170.89 606.64 165.59 609.1 157.47 613.85 149.35 618.57 138.54 625.84 127.84 635.36 117.16 644.92 108.71 654.83 103.09 662.35 97.45 669.87 94.41 674.86 94.11 674.69 93.99 674.62 94.64 673.31 95.93 671 97.2 668.67 99.24 665.42 101.93 661.52 107.3 653.72 115.68 643.52 126.5 633.86 137.33 624.22 148.41 617.06 156.77 612.61 160.95 610.38 164.41 608.72 166.87 607.73 169.31 606.71 170.69 606.21 170.75 606.34" stroke-width="0" fill="#6F4540"/><path d="M361.03 452.26C361.01 451.98 364.43 451.42 369.99 450.75 375.55 450.07 383.25 449.27 391.76 448.52 393.89 448.33 396.07 448.18 398.21 448.51 400.36 448.83 402.34 449.7 403.94 450.81 407.19 453.06 409.14 456.08 410.41 458.62 412.83 463.81 413.45 467.24 413.28 467.31 412.95 467.45 411.8 464.1 409.16 459.3 407.79 456.95 405.85 454.27 402.91 452.36 401.45 451.42 399.77 450.71 397.92 450.47 396.06 450.21 394.04 450.35 391.93 450.54 383.42 451.29 375.7 451.87 370.11 452.19 364.52 452.5 361.04 452.56 361.02 452.28" stroke-width="0" fill="#6F4540"/><path d="M409.75 514.92C409.42 514.89 410.01 510.27 409.61 502.88 409.4 499.18 408.89 494.8 407.84 490.03 406.79 485.38 405.32 479.8 400.65 477.1 398.36 475.74 395.71 475.06 393.13 474.44 390.53 473.85 388.02 473.28 385.6 472.72 380.8 471.67 376.44 471 372.76 470.74 365.38 470.21 360.85 471.39 360.78 471.05 360.75 470.95 361.84 470.48 363.91 470.05 365.98 469.61 369.04 469.24 372.83 469.32 376.62 469.4 381.1 469.94 385.97 470.9 388.41 471.37 390.95 471.92 393.58 472.51 396.21 473.11 399.05 473.8 401.69 475.36 404.37 476.9 406.29 479.46 407.42 482.02 408.57 484.6 409.17 487.2 409.67 489.64 410.66 494.55 411.03 499.05 411.05 502.82 411.08 506.59 410.8 509.64 410.5 511.72 410.19 513.8 409.89 514.93 409.76 514.91" stroke-width="0" fill="#6F4540"/><path d="M387.61 492.83C388.11 492.83 388.52 498.13 388.57 505.09L388.57 506.28C388.57 506.28 387.36 506.06 387.36 506.06 386.71 505.94 386.03 505.86 385.32 505.86 381.63 505.87 378.54 507.84 376.86 509.59 375.14 511.39 374.58 512.94 374.28 512.83 374.06 512.8 374.12 510.98 375.77 508.67 377.37 506.44 380.84 503.87 385.31 503.84 386.16 503.84 387 503.95 387.79 504.11L386.58 505.08C386.67 498.13 387.1 492.83 387.61 492.83" stroke-width="0" fill="#6F4540"/><path d="M387.67 494.87C387.54 495.44 382.06 494.62 375.27 494.27 368.48 493.89 362.94 494.12 362.88 493.55 362.8 493.02 368.4 491.87 375.38 492.26 382.36 492.62 387.8 494.35 387.67 494.87" stroke-width="0" fill="#6F4540"/><path d="M363.87 491.67C364.39 491.72 363.96 497.72 361.11 504.48 358.3 511.25 354.32 515.76 353.92 515.43 353.44 515.08 356.55 510.21 359.26 503.7 362.01 497.21 363.3 491.57 363.88 491.67" stroke-width="0" fill="#6F4540"/><path d="M608.42 1235.93 602.9 1411.21 820.93 1419.2C820.42 1398.32 709.15 1352.38 709.15 1352.38L717.3 1240.22 608.42 1235.94Z" stroke-width="0" fill="#FFC236"/><g opacity="0.6"><g clip-path="url(#clippath-3)"><path d="M642.08 1340.45C637.82 1341.45 634.73 1346.09 635.55 1350.38 636.37 1354.68 641.06 1357.86 645.34 1356.94 649.62 1356.01 653.5 1350.56 652.2 1346.38 650.9 1342.2 645.19 1338.76 641.26 1340.69" stroke-width="0" fill="#FFFFFF"/></g></g><g opacity="0.6"><g clip-path="url(#clippath-4)"><path d="M602.9 1411.21 604.15 1393.57 812.73 1407.82C812.73 1407.82 822.28 1412.4 820.93 1419.2L602.9 1411.22Z" stroke-width="0" fill="#FFFFFF"/></g></g><path d="M712.73 1351.39C712.66 1352.45 707.31 1352.74 701.95 1355.97 696.5 1359.06 693.63 1363.57 692.67 1363.11 691.69 1362.87 693.51 1356.56 700.08 1352.76 706.61 1348.9 713 1350.41 712.73 1351.38" stroke-width="0" fill="#1A2E35"/><path d="M735.25 1361.69C735.46 1362.73 730.78 1364.37 727 1368.74 723.09 1373 722 1377.83 720.94 1377.75 719.93 1377.88 719.42 1371.62 724.23 1366.27 728.98 1360.89 735.26 1360.67 735.25 1361.69" stroke-width="0" fill="#1A2E35"/><path d="M747.23 1389.53C746.25 1389.72 744.97 1384.35 747.92 1378.62 750.83 1372.87 755.93 1370.75 756.35 1371.65 756.92 1372.55 753.57 1375.56 751.22 1380.3 748.76 1384.98 748.29 1389.46 747.23 1389.53" stroke-width="0" fill="#1A2E35"/><path d="M711.75 1325.62C711.27 1326.57 706.44 1324.93 700.41 1325.11 694.37 1325.18 689.62 1327.03 689.09 1326.09 688.51 1325.3 693.22 1321.53 700.33 1321.4 707.43 1321.22 712.31 1324.8 711.75 1325.61" stroke-width="0" fill="#1A2E35"/><path d="M707.5 1299.57C707.5 1300.01 703.26 1300.51 696.58 1299.11 693.26 1298.41 689.35 1297.17 685.29 1295.18 683.26 1294.18 681.19 1293 679.14 1291.62 678.16 1290.93 677 1290.24 675.94 1288.93 674.8 1287.78 674.23 1284.93 675.66 1283.25 676.84 1281.62 678.84 1280.97 680.41 1280.99 682.02 1280.99 683.31 1281.37 684.48 1281.71 686.89 1282.39 689.13 1283.28 691.18 1284.29 695.28 1286.34 698.57 1288.86 701.01 1291.27 705.9 1296.14 707.48 1300.18 707.11 1300.37 706.61 1300.7 704.28 1297.28 699.27 1293.23 696.77 1291.21 693.57 1289.1 689.73 1287.38 687.81 1286.54 685.73 1285.79 683.53 1285.22 681.25 1284.53 679.28 1284.44 678.65 1285.45 678.42 1285.83 678.39 1285.98 678.84 1286.68 679.32 1287.32 680.23 1287.97 681.2 1288.65 683.08 1289.98 684.98 1291.14 686.84 1292.16 690.58 1294.18 694.17 1295.61 697.25 1296.59 703.43 1298.56 707.53 1299 707.49 1299.58" stroke-width="0" fill="#1A2E35"/><path d="M706.06 1301.04C705.68 1301.19 703.71 1297.3 703.57 1290.39 703.51 1286.96 704.02 1282.83 705.5 1278.49 706.25 1276.33 707.24 1274.12 708.52 1271.96 709.88 1269.85 711.54 1267.02 715.69 1266.7 717.85 1266.7 719.58 1268.45 720.14 1269.91 720.81 1271.41 720.91 1272.69 721.12 1273.96 721.43 1276.52 721.29 1279.02 720.86 1281.32 720 1285.94 717.96 1289.73 715.78 1292.43 711.31 1297.92 706.82 1299.04 706.75 1298.67 706.41 1298.12 710.2 1296.21 713.66 1290.9 715.36 1288.28 716.92 1284.81 717.49 1280.77 717.78 1278.76 717.82 1276.62 717.52 1274.45 717.26 1272.12 716.46 1270.22 715.58 1270.42 714.5 1270.36 712.59 1272.04 711.63 1273.86 710.44 1275.77 709.47 1277.74 708.71 1279.68 707.2 1283.57 706.46 1287.32 706.2 1290.5 705.67 1296.89 706.66 1300.92 706.07 1301.06" stroke-width="0" fill="#1A2E35"/><path d="M281.35 1237.21 336.56 1403.66 129.83 1473.4C124.38 1453.24 217.95 1377.51 217.95 1377.51L178.2 1272.32 281.35 1237.21Z" stroke-width="0" fill="#FFC236"/><g opacity="0.6"><g clip-path="url(#clippath-5)"><path d="M278.85 1346.99C283.22 1346.73 287.5 1350.3 287.94 1354.66 288.38 1359.02 284.79 1363.4 280.42 1363.74 276.06 1364.07 270.78 1359.95 270.84 1355.57 270.89 1351.19 275.39 1346.27 279.71 1347" stroke-width="0" fill="#FFFFFF"/></g></g><g opacity="0.6"><g clip-path="url(#clippath-6)"><path d="M336.56 1403.66 330.34 1387.1 134.46 1460.16C134.46 1460.16 126.61 1467.27 129.83 1473.4L336.56 1403.66Z" stroke-width="0" fill="#FFFFFF"/></g></g><path d="M214.25 1377.59C214.62 1378.59 219.83 1377.34 225.89 1378.91 231.99 1380.32 236.03 1383.83 236.82 1383.11 237.69 1382.6 234.14 1377.07 226.77 1375.3 219.41 1373.46 213.72 1376.73 214.25 1377.58" stroke-width="0" fill="#1A2E35"/><path d="M195.59 1393.88C195.69 1394.94 200.64 1395.18 205.51 1398.29 210.47 1401.26 212.89 1405.58 213.88 1405.2 214.88 1405.04 213.59 1398.89 207.46 1395.14 201.37 1391.33 195.28 1392.91 195.59 1393.88" stroke-width="0" fill="#1A2E35"/><path d="M192.03 1423.98C193.02 1423.88 192.72 1418.37 188.27 1413.71 183.84 1409.03 178.35 1408.45 178.2 1409.44 177.91 1410.46 181.98 1412.39 185.58 1416.27 189.27 1420.06 190.99 1424.22 192.03 1423.98" stroke-width="0" fill="#1A2E35"/><path d="M207.85 1352.61C208.58 1353.39 212.74 1350.43 218.58 1348.89 224.38 1347.24 229.47 1347.65 229.7 1346.61 230.04 1345.68 224.44 1343.41 217.59 1345.32 210.73 1347.17 207.08 1351.99 207.84 1352.61" stroke-width="0" fill="#1A2E35"/><path d="M204.49 1326.43C204.62 1326.85 208.82 1326.13 214.83 1322.88 217.82 1321.26 221.2 1318.96 224.54 1315.9 226.2 1314.36 227.85 1312.64 229.42 1310.74 230.17 1309.8 231.09 1308.81 231.73 1307.25 232.49 1305.82 232.23 1302.93 230.38 1301.73 228.78 1300.5 226.68 1300.44 225.18 1300.91 223.64 1301.37 222.51 1302.1 221.47 1302.76 219.36 1304.1 217.46 1305.59 215.78 1307.14 212.44 1310.27 210 1313.63 208.35 1316.63 205.05 1322.69 204.69 1327.01 205.1 1327.09 205.67 1327.27 206.94 1323.32 210.58 1318.01 212.4 1315.37 214.87 1312.43 218.06 1309.69 219.66 1308.33 221.44 1307.02 223.39 1305.85 225.38 1304.54 227.24 1303.89 228.13 1304.68 228.46 1304.98 228.53 1305.12 228.29 1305.92 228.02 1306.67 227.33 1307.55 226.59 1308.47 225.17 1310.28 223.67 1311.94 222.18 1313.44 219.18 1316.44 216.14 1318.83 213.46 1320.65 208.1 1324.3 204.29 1325.89 204.49 1326.43" stroke-width="0" fill="#1A2E35"/><path d="M206.3 1327.43C206.71 1327.46 207.49 1323.17 205.66 1316.51 204.74 1313.21 203.07 1309.39 200.42 1305.65 199.08 1303.79 197.5 1301.96 195.67 1300.26 193.77 1298.63 191.37 1296.39 187.3 1297.26 185.23 1297.88 184.07 1300.04 183.95 1301.61 183.74 1303.24 184 1304.48 184.17 1305.76 184.6 1308.3 185.45 1310.65 186.52 1312.73 188.65 1316.91 191.69 1319.97 194.55 1321.93 200.4 1325.93 205.02 1325.71 204.98 1325.34 205.15 1324.72 200.97 1323.96 196.14 1319.85 193.76 1317.83 191.27 1314.93 189.58 1311.22 188.73 1309.37 188.08 1307.33 187.75 1305.18 187.33 1302.87 187.56 1300.82 188.46 1300.77 189.48 1300.41 191.79 1301.47 193.22 1302.94 194.91 1304.43 196.39 1306.05 197.68 1307.69 200.24 1310.99 202.01 1314.37 203.17 1317.35 205.5 1323.32 205.7 1327.46 206.3 1327.43" stroke-width="0" fill="#1A2E35"/><path d="M231.58 841.82C231.58 841.82 150.58 769.98 115.05 770.59 79.51 771.2-37.09 763.46 11.81 924.98 61.11 1087.86 149.36 1336.92 151.77 1327.98L303.66 1261.21 241.95 1029.54C241.95 1029.54 448.99 1031.86 488.98 1026.62 528.97 1021.38 603.76 968.72 603.76 968.72L591.87 1261.45 750.59 1252.61C750.59 1252.61 772.88 900.98 779.3 828.71 784.89 765.79 714.18 695.17 642.08 711.1 594.98 721.51 426.61 840.36 426.61 840.36L231.6 841.82Z" stroke-width="0" fill="#001E32"/><path d="M609.19 813.06C609.37 813.08 609.3 815.81 609.01 820.73 608.73 826.14 608.38 833.15 607.94 841.56 607.12 859.16 606.55 883.49 606.13 910.39 605.7 937.29 605.2 961.67 604.26 979.29 603.83 988.1 603.3 995.23 602.84 1000.14 602.36 1005.06 602.01 1007.76 601.83 1007.75 601.64 1007.74 601.64 1005 601.8 1000.08 601.95 994.66 602.14 987.65 602.38 979.22 602.66 961.11 603.05 937 603.47 910.34 603.89 883.44 604.75 859.06 606.06 841.45 606.69 832.65 607.36 825.53 607.98 820.63 608.59 815.73 609.01 813.03 609.19 813.05" stroke-width="0" fill="#000F19"/><path d="M602.76 950.13C602.52 950.33 599.56 947.32 595.76 941.68 591.95 936.06 587.51 927.66 584.4 917.73 581.31 907.78 580.21 898.34 580.15 891.56 580.08 884.76 580.8 880.6 581.11 880.63 581.98 880.61 580.75 897.48 586.94 916.94 592.9 936.47 603.5 949.66 602.76 950.14" stroke-width="0" fill="#000F19"/><path d="M386.75 1009.44C386.49 1009.46 386.15 1005.44 384.94 998.29 383.81 991.13 381.33 980.86 376.61 968.81 371.93 956.76 364.36 943.14 353.67 929.83 342.84 916.62 328.59 904.04 311.19 894.57 276.76 874.62 246.45 855.07 225.31 839.79 214.74 832.15 206.42 825.62 200.92 820.82 198.12 818.49 196.08 816.5 194.68 815.19 193.29 813.86 192.59 813.13 192.66 813.06 192.82 812.89 195.86 815.53 201.58 820.01 207.26 824.54 215.72 830.82 226.4 838.24 247.76 853.09 278.15 872.35 312.53 892.25 321.13 897.21 329.49 902.54 336.6 908.78 343.77 914.95 350.12 921.53 355.59 928.28 366.36 941.9 373.86 955.83 378.38 968.13 382.94 980.42 385.16 990.86 385.98 998.13 386.6 1001.74 386.56 1004.6 386.74 1006.51 386.85 1008.43 386.86 1009.44 386.77 1009.44" stroke-width="0" fill="#000F19"/><path d="M442.77 837.94C442.94 838.02 441.99 840.44 440.13 844.72 438.24 848.99 435.68 855.24 432.75 863.04 426.85 878.62 420.08 900.71 415.91 925.79 411.81 950.89 411.14 973.99 411.72 990.64 412 998.96 412.41 1005.71 412.84 1010.36 413.22 1015.01 413.34 1017.6 413.16 1017.63 412.97 1017.65 412.51 1015.11 411.8 1010.48 411.06 1005.85 410.36 999.1 409.83 990.73 408.75 974 409.13 950.68 413.27 925.36 417.47 900.06 424.6 877.85 430.98 862.36 434.16 854.6 436.99 848.43 439.18 844.29 441.32 840.12 442.59 837.86 442.75 837.94" stroke-width="0" fill="#000F19"/><path d="M138.24 816.88C138.28 816.83 139.03 817.32 140.43 818.32 141.97 819.44 143.99 820.92 146.52 822.75 147.85 823.74 149.31 824.82 150.9 825.99 152.46 827.22 154 828.75 155.74 830.29 159.14 833.46 163.25 836.84 167.01 841.35 168.98 843.53 171.03 845.81 173.17 848.18 175.15 850.69 177.1 853.38 179.18 856.13 180.21 857.51 181.26 858.91 182.33 860.34 183.34 861.8 184.26 863.36 185.25 864.91 187.17 868.03 189.27 871.18 191.2 874.54 198.84 888.03 205.62 903.69 211.58 920.5 217.57 937.32 222.09 953.71 226.16 968.6 230.12 983.46 233.7 996.87 236.72 1008.21 239.8 1019.46 242.29 1028.56 244.16 1034.81 245.01 1037.81 245.69 1040.21 246.21 1042.04 246.66 1043.7 246.86 1044.58 246.8 1044.6 246.74 1044.62 246.41 1043.78 245.85 1042.16 245.25 1040.35 244.45 1037.99 243.46 1035.03 241.37 1028.84 238.69 1019.78 235.44 1008.57 232.31 997.26 228.6 983.89 224.49 969.06 220.33 954.22 215.77 937.87 209.81 921.13 203.87 904.39 197.18 888.82 189.69 875.39 187.8 872.05 185.74 868.92 183.86 865.8 182.89 864.26 182 862.7 181.01 861.24 179.97 859.82 178.94 858.42 177.93 857.04 175.9 854.3 173.99 851.6 172.06 849.09 169.97 846.71 167.97 844.42 166.05 842.23 162.38 837.7 158.36 834.28 155.06 831.06 153.36 829.49 151.87 827.93 150.35 826.67 148.81 825.45 147.39 824.34 146.1 823.32 143.67 821.37 141.73 819.81 140.25 818.62 138.92 817.53 138.24 816.93 138.28 816.87" stroke-width="0" fill="#000F19"/><path d="M229.91 840.35C258.81 859.43 290.63 863.92 324.64 870.42 344.26 874.17 364.8 877.58 383.96 871.92 425.03 859.79 464.73 813.05 491.11 796.37L380.95 824.28 229.91 840.36Z" stroke-width="0" fill="#FF5086"/></g></g></svg>