<svg viewBox="0 0 805.23 824.57" xmlns="http://www.w3.org/2000/svg" xmlns:xlink="http://www.w3.org/1999/xlink" id="Layer_1" overflow="hidden"><defs></defs><g><g><g><path d="M35.54 732.72 245.08 824.11 699.31 797.71 501.85 712.8 35.54 732.72Z" stroke-width="0" fill="#FFFFFF"/><path d="M35.54 732.72C40.94 732.48 230.49 724.15 501.83 712.21L501.96 712.21C501.96 712.21 502.08 712.26 502.08 712.26 563.31 738.58 630.1 767.29 699.55 797.15L701.93 798.18 699.34 798.33C699.05 798.35 698.73 798.37 698.42 798.38 523.55 808.48 364.09 817.69 245.11 824.56L245 824.56C245 824.56 244.9 824.52 244.9 824.52 116 768 38.86 734.17 35.54 732.72 38.86 734.16 116.14 767.68 245.27 823.68L245.06 823.64C364.04 816.69 523.49 807.36 698.35 797.14 698.67 797.12 698.98 797.1 699.27 797.09L699.06 798.27C629.63 768.4 562.83 739.66 501.62 713.33L501.87 713.38C230.51 724.64 40.93 732.5 35.53 732.73Z" stroke-width="0" fill="#1A2E35"/></g><path d="M194.74 784.01C199.84 783.77 241.32 781.81 305.57 778.78L305.69 778.78C305.69 778.78 305.8 778.82 305.8 778.82 324.43 785.99 344.89 793.86 366.31 802.1L368.97 803.12 366.12 803.28C365.93 803.29 365.73 803.3 365.53 803.31 321.26 805.75 280.81 807.99 250.31 809.67L250.19 809.67C250.19 809.67 250.09 809.63 250.09 809.63 216.69 794.17 198.02 785.53 194.74 784.01 198.04 785.48 216.85 793.84 250.47 808.79L250.25 808.75C280.75 806.99 321.19 804.65 365.46 802.09 365.66 802.08 365.86 802.07 366.05 802.06L365.86 803.24C344.45 794.97 324 787.07 305.38 779.88L305.61 779.92C241.34 782.29 199.83 783.82 194.74 784.01Z" stroke-width="0" fill="#1A2E35"/><path d="M321.5 777.82C326.58 777.51 370.84 774.84 439.13 770.72L439.25 770.72C439.25 770.72 439.37 770.76 439.37 770.76 459.66 778.56 481.94 787.14 505.28 796.12L505.31 796.12C505.31 796.12 508.05 797.19 508.05 797.19L505.12 797.32C457.84 799.4 414.65 801.29 382.07 802.72L381.97 802.72C381.97 802.72 381.88 802.69 381.88 802.69 345.38 787.66 324.87 779.21 321.52 777.83 324.89 779.16 345.52 787.32 382.23 801.83L382.04 801.8C414.62 800.29 457.81 798.29 505.08 796.1L504.89 797.28 504.86 797.28C481.53 788.26 459.26 779.66 438.98 771.83L439.22 771.87C370.89 775.33 326.61 777.58 321.52 777.83Z" stroke-width="0" fill="#1A2E35"/><path d="M461.81 770.4C466.89 770.09 511.15 767.42 579.44 763.3L579.56 763.3C579.56 763.3 579.68 763.34 579.68 763.34 599.97 771.14 622.25 779.72 645.59 788.7L645.62 788.7C645.62 788.7 648.36 789.77 648.36 789.77L645.43 789.9C598.15 791.98 554.96 793.87 522.38 795.3L522.28 795.3C522.28 795.3 522.19 795.27 522.19 795.27 485.69 780.24 465.18 771.79 461.83 770.41 465.2 771.74 485.83 779.9 522.54 794.41L522.35 794.38C554.93 792.87 598.12 790.87 645.39 788.68L645.2 789.86 645.17 789.86C621.84 780.84 599.57 772.24 579.29 764.41L579.53 764.45C511.2 767.91 466.92 770.16 461.83 770.41Z" stroke-width="0" fill="#1A2E35"/><path d="M109.49 748.8C114.59 748.56 156.07 746.6 220.32 743.57L220.44 743.57C220.44 743.57 220.55 743.61 220.55 743.61 239.18 750.78 259.64 758.65 281.06 766.89L283.72 767.91 280.87 768.07C280.68 768.08 280.48 768.09 280.28 768.1 236.01 770.54 195.56 772.78 165.06 774.46L164.94 774.46C164.94 774.46 164.84 774.42 164.84 774.42 131.44 758.96 112.77 750.32 109.49 748.8 112.79 750.27 131.6 758.63 165.22 773.58L165 773.54C195.5 771.78 235.94 769.44 280.21 766.88 280.41 766.87 280.61 766.86 280.8 766.85L280.61 768.03C259.2 759.76 238.75 751.86 220.13 744.67L220.36 744.71C156.09 747.08 114.58 748.61 109.49 748.8Z" stroke-width="0" fill="#1A2E35"/><path d="M236.25 742.61C241.33 742.3 285.59 739.63 353.88 735.51L354 735.51C354 735.51 354.12 735.55 354.12 735.55 374.41 743.35 396.69 751.93 420.03 760.91L420.06 760.91C420.06 760.91 422.8 761.98 422.8 761.98L419.87 762.11C372.6 764.19 329.4 766.08 296.82 767.51L296.72 767.51C296.72 767.51 296.63 767.48 296.63 767.48 260.13 752.45 239.62 744 236.27 742.62 239.64 743.95 260.27 752.11 296.98 766.62L296.79 766.59C329.37 765.08 372.56 763.08 419.83 760.89L419.64 762.07 419.61 762.07C396.28 753.05 374.01 744.45 353.73 736.62L353.97 736.66C285.64 740.12 241.36 742.37 236.27 742.62Z" stroke-width="0" fill="#1A2E35"/><path d="M376.56 735.19C381.64 734.88 425.9 732.21 494.19 728.09L494.31 728.09C494.31 728.09 494.43 728.13 494.43 728.13 514.72 735.93 537 744.51 560.34 753.49L560.37 753.49C560.37 753.49 563.11 754.56 563.11 754.56L560.18 754.69C512.9 756.77 469.71 758.66 437.13 760.09L437.03 760.09C437.03 760.09 436.94 760.06 436.94 760.06 400.44 745.03 379.93 736.58 376.58 735.2 379.95 736.53 400.58 744.69 437.29 759.2L437.1 759.17C469.68 757.66 512.87 755.66 560.14 753.47L559.95 754.65 559.92 754.65C536.59 745.63 514.32 737.03 494.04 729.2L494.28 729.24C425.95 732.7 381.67 734.95 376.58 735.2Z" stroke-width="0" fill="#1A2E35"/></g><g><path d="M252.78 800.71 250.65 784.33 695.7 758.93 695.7 775.3 252.78 800.71Z" stroke-width="0" fill="#E1E1E1"/><g><path d="M121.37 729.9 250.65 784.33 693.42 758.6 575.92 710.47 121.37 729.9Z" stroke-width="0" fill="#FFFFFF"/><path d="M121.37 729.9C127.21 729.64 315.84 721.33 575.89 709.88L576.02 709.88C576.02 709.88 576.14 709.92 576.14 709.92 613.73 725.31 653.16 741.46 693.64 758.04L696.14 759.06 693.44 759.22C693.16 759.24 692.85 759.25 692.55 759.27 514.66 769.52 355.45 778.69 250.67 784.73L250.58 784.73C250.58 784.73 250.5 784.7 250.5 784.7 169.53 750.33 124.15 731.08 121.38 729.9 124.16 731.06 169.64 750.06 250.81 783.97L250.63 783.94C355.4 777.8 514.61 768.47 692.49 758.05 692.8 758.03 693.1 758.01 693.38 758L693.18 759.18C652.71 742.6 613.28 726.44 575.69 711.04L575.94 711.08C315.86 721.85 127.2 729.67 121.37 729.91Z" stroke-width="0" fill="#1A2E35"/></g><path d="M121.37 743.4 252.78 800.71 250.65 784.33 174.64 752.36 121.37 729.9 121.37 743.4Z" stroke-width="0" fill="#E1E1E1"/><path d="M201.58 745.25C206.67 745.01 247.02 743.1 309.61 740.14L309.73 740.14C309.73 740.14 309.84 740.18 309.84 740.18 328 747.17 347.94 754.84 368.83 762.87L371.49 763.89 368.64 764.05C368.46 764.06 368.26 764.07 368.07 764.08 324.92 766.46 285.49 768.63 255.75 770.27L255.63 770.27C255.63 770.27 255.53 770.23 255.53 770.23 223.01 755.17 204.85 746.76 201.58 745.25 204.87 746.71 223.16 754.84 255.91 769.39L255.69 769.35C285.42 767.63 324.84 765.35 367.99 762.85 368.19 762.84 368.38 762.83 368.56 762.82L368.37 764C347.5 755.94 327.57 748.24 309.42 741.23L309.65 741.27C247.04 743.57 206.66 745.06 201.57 745.24Z" stroke-width="0" fill="#1A2E35"/><path d="M325.13 739.22C330.21 738.91 373.26 736.31 439.79 732.29L439.91 732.29C439.91 732.29 440.03 732.33 440.03 732.33 459.81 739.94 481.52 748.29 504.28 757.04L504.31 757.04C504.31 757.04 507.05 758.11 507.05 758.11L504.12 758.24C458.04 760.26 415.93 762.11 384.17 763.5L384.07 763.5C384.07 763.5 383.98 763.47 383.98 763.47 348.43 748.82 328.49 740.61 325.14 739.23 328.5 740.56 348.56 748.48 384.32 762.61L384.13 762.58C415.89 761.11 457.99 759.15 504.07 757.02L503.88 758.2 503.85 758.2C481.11 749.41 459.4 741.02 439.64 733.39L439.88 733.43C373.31 736.8 330.23 738.97 325.15 739.23Z" stroke-width="0" fill="#1A2E35"/><path d="M461.91 731.98C466.99 731.67 510.04 729.07 576.57 725.05L576.69 725.05C576.69 725.05 576.81 725.09 576.81 725.09 596.58 732.7 618.3 741.05 641.06 749.8L641.09 749.8C641.09 749.8 643.83 750.87 643.83 750.87L640.9 751C594.82 753.02 552.71 754.87 520.95 756.26L520.85 756.26C520.85 756.26 520.76 756.23 520.76 756.23 485.21 741.58 465.27 733.37 461.92 731.99 465.28 733.32 485.34 741.24 521.1 755.37L520.91 755.34C552.67 753.87 594.77 751.91 640.85 749.78L640.66 750.96 640.63 750.96C617.89 742.17 596.18 733.78 576.42 726.15L576.66 726.19C510.09 729.56 467.01 731.73 461.93 731.99Z" stroke-width="0" fill="#1A2E35"/><path d="M596.55 740.88C596.55 740.96 595.26 741.1 592.91 741.27 590.34 741.44 587 741.66 582.97 741.93 574.58 742.46 562.98 743.22 550.19 744.22 537.39 745.22 525.82 746.27 517.45 747.04 513.43 747.4 510.09 747.7 507.53 747.93 505.18 748.12 503.88 748.19 503.87 748.11 503.87 748.03 505.14 747.8 507.47 747.46 509.8 747.12 513.18 746.68 517.36 746.18 525.72 745.18 537.29 744 550.1 743 562.91 742 574.52 741.38 582.93 741.07 587.14 740.91 590.54 740.82 592.9 740.8 595.25 740.77 596.56 740.8 596.56 740.88Z" stroke-width="0" fill="#1A2E35"/><path d="M585.17 748.37C585.1 748.54 583.62 748.04 581.23 747.36 578.84 746.69 575.48 745.86 571.76 746.03 568.05 746.21 564.85 747.58 562.92 749.04 560.96 750.49 560.14 751.85 559.97 751.73 559.85 751.69 560.42 750.11 562.38 748.37 564.3 746.63 567.72 745 571.7 744.81 575.67 744.63 579.14 745.66 581.5 746.55 583.87 747.46 585.23 748.24 585.17 748.39Z" stroke-width="0" fill="#1A2E35"/><path d="M553.73 726.14C553.87 726.14 553.98 727.51 553.5 729.65 553.03 731.78 551.85 734.65 549.73 737.27 547.61 739.88 545.05 741.64 543.07 742.54 541.08 743.45 539.72 743.63 539.69 743.5 539.52 743.15 544.78 741.55 548.78 736.5 552.89 731.53 553.36 726.06 553.73 726.15Z" stroke-width="0" fill="#1A2E35"/><path d="M253.63 801.61C253.31 801.69 252.15 798.01 251.51 793.32 250.85 788.63 250.97 784.78 251.3 784.76 251.65 784.74 252.08 788.52 252.73 793.15 253.36 797.78 253.98 801.53 253.64 801.61Z" stroke-width="0" fill="#1A2E35"/><path d="M121.37 734.82C121.37 734.82 122.2 735.14 123.79 735.82 125.41 736.53 127.75 737.55 130.78 738.88 136.93 741.61 145.88 745.6 157.27 750.66 180.11 760.89 212.69 775.5 251.82 793.04L251.6 792.99C273.41 792.8 297.28 791.51 322.6 790.33 347.92 789.04 374.71 787.58 402.38 785.95 483.4 781.24 556.72 776.52 609.79 773.17 636.29 771.49 657.76 770.13 672.64 769.19 680.03 768.74 685.78 768.39 689.73 768.15 691.65 768.05 693.13 767.97 694.18 767.91 695.18 767.86 695.7 767.87 695.7 767.87 695.7 767.87 695.19 767.95 694.19 768.04 693.15 768.13 691.67 768.25 689.75 768.4 685.8 768.69 680.06 769.12 672.68 769.67 657.81 770.7 636.35 772.2 609.86 774.04 556.8 777.61 483.49 782.47 402.47 787.18 374.79 788.8 348 790.25 322.68 791.51 297.35 792.65 273.49 793.91 251.62 794.04L251.51 794.04C251.51 794.04 251.41 793.99 251.41 793.99 212.35 776.28 179.83 761.54 157.04 751.21 145.71 746.03 136.79 741.96 130.67 739.17 127.66 737.78 125.35 736.71 123.74 735.96 122.18 735.23 121.39 734.81 121.39 734.81Z" stroke-width="0" fill="#1A2E35"/></g></g><path d="M477.49 725.26 467.2 719.88 472.25 715.32 477.49 725.26Z" stroke-width="0" fill="#1A2E35"/><path d="M453.24 713.43 465.28 702.72 472.34 715.75 467.2 719.88 453.24 713.43Z" stroke-width="0" fill="#FFFFFF"/><g><path d="M250.54 348.82 319.24 325.92 357.5 293.58 365.78 306.69 397.88 299.33 488.73 322.94 503.39 348.85 580.94 370.07 581.29 478.82 567.21 677.81 569.27 709.44 198.24 709.44 192.12 577.26 191.83 495.04 250.54 348.82Z" stroke-width="0" fill="#2FC3B0"/><path d="M446.76 652.71 526.86 648.83C526.86 648.83 542.4 657.69 546.43 683.09 550.47 708.49 546.43 708.49 546.43 708.49L506.09 722.11 420.51 720.14 389.47 681.15 412.85 667.35 446.75 652.7Z" stroke-width="0" fill="#FFC19D"/><path d="M169.7 623.4C169.7 623.4 246.52 502.27 233.59 519.8 232 521.95 241.4 512.85 253.5 483.15 265.12 454.63 295.43 334.89 295.43 334.89L226.21 353.25C208 358.08 193.18 359.65 177.49 370.07 163.83 379.14 149.58 396.97 140.31 410.49 105.76 460.89 42.51 559.05 34.51 571.6 23.1 589.51 2.02 639.35 0.26 663.32-1.5 687.29 5.16 708.77 41.85 727.92 75.7 745.59 292.09 733.28 292.09 733.28L290.9 643.32 169.71 623.4Z" stroke-width="0" fill="#2FC3B0"/><path d="M795.36 600.32C792.19 592.41 671.2 458.64 610.45 396.72 592.22 378.14 580.93 370.07 580.93 370.07L560.92 500.47C560.92 500.47 567.8 530.53 571.98 552.78 572.88 557.58 635.71 600.33 635.71 600.33L649.17 608.95 526.35 641.41 531.48 719.44 751.37 713.66C779.92 702.74 825.39 675.19 795.35 600.33Z" stroke-width="0" fill="#2FC3B0"/><path d="M751.38 713.65C751.38 713.65 751 713.7 750.27 713.74 749.49 713.77 748.4 713.82 747 713.88 744.07 713.98 739.84 714.13 734.4 714.32 723.39 714.65 707.5 715.14 687.77 715.73 648.2 716.82 593.25 718.34 531.51 720.04L530.92 720.06 530.88 719.47C530.4 712.17 529.89 704.41 529.37 696.57 528.12 677.53 526.91 659 525.76 641.44L525.73 640.92 526.24 640.81C539.4 638.09 551.98 634.7 564.03 631.43 576.07 628.09 587.59 624.9 598.5 621.87 620.32 615.82 639.77 610.69 656.14 607.16 672.49 603.55 685.76 601.58 694.92 600.86 699.49 600.36 703.05 600.36 705.45 600.32 706.61 600.31 707.51 600.3 708.17 600.29 708.78 600.29 709.09 600.32 709.09 600.32 709.09 600.32 708.78 600.37 708.17 600.4 707.51 600.43 706.61 600.48 705.45 600.54 703.06 600.65 699.51 600.71 694.95 601.28 685.82 602.13 672.6 604.22 656.3 607.92 639.98 611.55 620.57 616.76 598.77 622.88 587.87 625.93 576.35 629.16 564.32 632.53 552.27 635.82 539.68 639.24 526.47 641.99L526.95 641.37C528.11 658.93 529.33 677.45 530.59 696.5 531.1 704.35 531.61 712.1 532.09 719.4L531.47 718.83C593.21 717.28 648.16 715.91 687.74 714.92 707.47 714.48 723.36 714.13 734.38 713.88 739.82 713.78 744.06 713.71 746.99 713.66 748.39 713.65 749.48 713.64 750.26 713.63 751 713.63 751.37 713.66 751.37 713.66Z" stroke-width="0" fill="#1A2E35"/><path d="M462.66 685.14C462.26 684.07 461.37 683.26 460.52 682.5 456.18 678.64 451.84 674.77 447.49 670.91L439.95 693.38C443.12 695.8 447.27 696.9 451.22 696.37 455.17 695.83 458.88 693.67 461.29 690.49 462.45 688.96 463.34 686.94 462.67 685.14Z" stroke-width="0" fill="#FF9C6A"/><g><path d="M287.85 559.77 453.24 713.43 468.86 720.83 477.5 725.25 473.47 717.8 465.3 702.71 297.87 548.93C295.03 546.32 290.66 546.34 287.85 548.98L287.85 548.98C284.73 551.9 284.74 556.85 287.87 559.76Z" stroke-width="0" fill="#375A64"/><g><path d="M290.93 646.15 303.9 648.45C303.9 648.45 371.08 623.66 380.68 622.41 388.1 621.44 423.43 629.75 439.1 633.57 445.41 635.11 450.03 640.8 449.74 647.3 449.74 647.4 449.74 647.5 449.72 647.6 449.41 652.83 445.91 657.33 441.07 659.32L441.07 659.32C441.07 659.32 454.27 663.41 448.3 677.36 443.88 687.69 429.95 686.09 429.95 686.09L406.71 686.53C406.71 686.53 412.64 688.31 421.57 690.4 431.15 692.64 433.72 694.38 433.72 694.38 433.72 694.38 447.75 707.87 434.2 713.49 425.93 716.93 420.02 715.99 420.02 715.99 420.02 715.99 424.07 730.48 413.22 732.98 402.37 735.48 330.7 730.03 330.7 730.03 330.7 730.03 326.9 727.9 312.3 726.65L292.08 725.25 290.93 646.15Z" stroke-width="0" fill="#FFC19D"/><path d="M290.93 646.15C290.93 646.15 290.96 646.65 290.99 647.58 291.01 648.55 291.05 649.91 291.09 651.68 291.17 655.31 291.28 660.6 291.42 667.4 291.68 681.04 292.05 700.75 292.51 725.25L292.11 724.83C297.95 725.22 304.15 725.64 310.67 726.08 313.93 726.3 317.27 726.64 320.66 727.13 324.06 727.68 327.48 728.15 330.95 729.6L330.74 729.54C345.72 730.62 361.99 731.68 379.27 732.46 387.91 732.82 396.81 733.18 405.89 733.01 408.15 732.92 410.45 732.86 412.63 732.48 414.79 732.07 416.81 731.02 418.11 729.26 419.44 727.53 420 725.26 420.12 723 420.25 720.73 420 718.38 419.44 716.17L419.23 715.32 420.12 715.41C423 715.72 426.12 715.31 429.09 714.57 432.03 713.77 435.15 712.77 437.4 710.83 439.75 708.87 439.96 705.46 438.69 702.62 437.54 699.73 435.51 697.11 433.3 694.83L433.38 694.9C430.23 693.25 426.14 692.18 422.22 691.2 416.95 689.83 411.72 688.47 406.54 687.13L402.25 686.02 406.7 685.94C414.57 685.79 422.33 685.64 429.94 685.5L429.97 685.5C429.97 685.5 430.03 685.5 430.03 685.5 433.16 685.74 436.44 685.44 439.4 684.44 442.38 683.49 445.02 681.63 446.7 679.09 447.12 678.46 447.43 677.75 447.78 677.08L448.57 674.9C448.79 674.17 448.91 673.41 449.09 672.67 449.18 671.92 449.23 671.17 449.26 670.42 449.21 667.41 447.84 664.58 445.59 662.63 444.47 661.66 443.2 660.85 441.84 660.26L441.33 660.05 441.08 659.95 440.96 659.91C440.99 660.88 440.84 658.56 440.89 658.79L440.95 658.76C441.28 658.6 441.63 658.47 441.95 658.29 442.6 657.95 443.23 657.57 443.82 657.13 446.19 655.41 447.95 652.91 448.73 650.14 449.5 647.38 449.3 644.37 448.17 641.78 447.04 639.18 445.05 637.02 442.65 635.62 440.29 634.16 437.4 633.8 434.65 633.07 431.89 632.41 429.16 631.76 426.46 631.12 421.05 629.85 415.75 628.65 410.57 627.53 405.39 626.41 400.32 625.38 395.37 624.49 392.89 624.05 390.45 623.65 388.03 623.32 385.63 623.04 383.2 622.69 380.93 622.88 376.36 623.68 371.94 625.21 367.71 626.5 363.47 627.84 359.4 629.2 355.49 630.52 347.69 633.22 340.51 635.7 334.02 637.94 321.11 642.54 310.94 646.16 304 648.64L303.95 648.66 303.9 648.66C299.55 647.83 296.34 647.22 294.17 646.81 293.13 646.61 292.34 646.45 291.77 646.34 291.24 646.23 290.96 646.16 290.96 646.16 290.95 646.15 291.2 646.18 291.71 646.26 292.27 646.35 293.05 646.47 294.08 646.64 296.28 647.01 299.53 647.55 303.96 648.28L303.87 648.28C310.73 645.71 320.86 641.95 333.79 637.3 340.25 634.97 347.42 632.43 355.23 629.75 359.14 628.41 363.2 627.03 367.45 625.67 371.71 624.34 376.03 622.82 380.83 621.95 383.32 621.74 385.71 622.1 388.16 622.37 390.6 622.69 393.06 623.08 395.55 623.52 400.52 624.39 405.61 625.41 410.8 626.52 415.99 627.63 421.3 628.82 426.72 630.07 429.43 630.71 432.16 631.35 434.93 632 436.31 632.33 437.7 632.67 439.09 633 440.52 633.35 441.94 633.9 443.24 634.66 445.84 636.17 448 638.51 449.24 641.33 450.48 644.15 450.71 647.42 449.87 650.45 449.02 653.47 447.11 656.19 444.54 658.06 443.91 658.54 443.22 658.95 442.52 659.32 442.17 659.52 441.8 659.66 441.44 659.83L441.37 659.86C441.33 660.11 441.3 657.8 441.36 658.79L441.51 658.84 441.79 658.95 442.35 659.18C443.81 659.82 445.18 660.68 446.41 661.74 447.63 662.81 448.64 664.13 449.37 665.61 450.14 667.09 450.39 668.76 450.49 670.4 450.46 671.22 450.41 672.05 450.31 672.86 450.12 673.65 449.99 674.47 449.76 675.25L448.93 677.55C448.55 678.28 448.21 679.05 447.75 679.74 445.91 682.55 443 684.57 439.83 685.58 436.66 686.64 433.32 686.96 429.94 686.7L430.02 686.7C422.41 686.85 414.65 687 406.78 687.15L406.94 685.95C412.1 687.29 417.31 688.64 422.56 690 426.59 691.03 430.52 691.98 434.12 693.87L434.16 693.89 434.21 693.94C436.55 696.36 438.62 699.01 439.89 702.16 440.55 703.7 440.88 705.46 440.68 707.19 440.56 708.97 439.5 710.54 438.29 711.71 435.66 713.95 432.5 714.89 429.45 715.74 426.35 716.5 423.21 716.94 420 716.6L420.67 715.84C421.26 718.24 421.52 720.64 421.38 723.07 421.25 725.48 420.66 727.97 419.13 729.97 417.64 732 415.27 733.2 412.94 733.63 410.58 734.04 408.28 734.08 405.99 734.17 396.84 734.32 387.94 733.95 379.29 733.57 361.99 732.76 345.72 731.66 330.73 730.53L330.66 730.53C330.66 730.53 330.52 730.47 330.52 730.47 327.45 729.18 323.89 728.6 320.58 728.08 317.22 727.59 313.91 727.23 310.66 727 304.15 726.53 297.95 726.09 292.12 725.67L291.72 725.64 291.72 725.24C291.46 700.62 291.25 680.8 291.11 667.1 291.06 660.35 291.02 655.1 290.99 651.49 290.99 649.75 290.98 648.42 290.97 647.47 290.97 646.57 290.99 646.14 290.99 646.14Z" stroke-width="0" fill="#FF9C6A"/></g><path d="M439.95 659.32C439.92 659.66 431.67 659.17 421.52 658.24 411.37 657.31 403.17 656.28 403.2 655.94 403.23 655.6 411.48 656.09 421.63 657.02 431.78 657.95 439.98 658.98 439.95 659.32Z" stroke-width="0" fill="#FF9C6A"/><path d="M367.43 725.26C367.36 725.39 366.38 725.02 365.23 723.83 364.1 722.67 362.88 720.56 362.78 717.97 362.69 715.39 363.75 713.19 364.8 711.95 365.86 710.68 366.81 710.25 366.89 710.37 367.01 710.52 366.29 711.18 365.51 712.46 364.73 713.72 363.93 715.7 364.01 717.93 364.1 720.17 365.03 722.08 365.9 723.28 366.77 724.5 367.54 725.11 367.43 725.26Z" stroke-width="0" fill="#FF9C6A"/><path d="M366.35 700.94C366.33 701.07 365.1 700.99 363.49 699.9 361.92 698.86 360.04 696.63 359.7 693.6 359.38 690.57 360.74 687.98 362.05 686.63 363.38 685.23 364.57 684.88 364.62 685 364.72 685.17 363.75 685.78 362.72 687.18 361.69 688.55 360.65 690.87 360.92 693.46 361.21 696.05 362.72 698.09 364.03 699.2 365.34 700.35 366.42 700.73 366.36 700.92Z" stroke-width="0" fill="#FF9C6A"/><path d="M365.93 672.62C365.85 672.73 364.69 672.05 363.52 670.28 362.35 668.56 361.31 665.59 361.87 662.32 362.45 659.06 364.43 656.62 366.12 655.39 367.82 654.12 369.14 653.88 369.18 654.01 369.26 654.19 368.11 654.72 366.67 656.06 365.25 657.37 363.59 659.64 363.08 662.54 362.58 665.44 363.37 668.14 364.27 669.85 365.16 671.59 366.07 672.48 365.93 672.62Z" stroke-width="0" fill="#FF9C6A"/><path d="M374.46 636.29C374.35 636.38 373.81 636 373.37 635.06 372.92 634.13 372.71 632.63 373.14 631.1 373.57 629.57 374.54 628.4 375.41 627.85 376.28 627.28 376.94 627.23 376.99 627.37 377.13 627.67 375.02 628.78 374.32 631.43 373.52 634.05 374.74 636.11 374.46 636.29Z" stroke-width="0" fill="#FF9C6A"/><path d="M408.54 686.09C408.54 686.43 404.04 686.62 398.52 686.52 392.99 686.42 388.51 686.06 388.52 685.72 388.52 685.38 393.01 685.19 398.55 685.29 404.08 685.39 408.56 685.75 408.55 686.09Z" stroke-width="0" fill="#FF9C6A"/><path d="M419.4 716C419.33 716.33 411.21 714.88 401.27 712.76 391.33 710.64 383.33 708.65 383.4 708.32 383.47 707.99 391.59 709.44 401.53 711.56 411.47 713.68 419.47 715.67 419.4 716Z" stroke-width="0" fill="#FF9C6A"/></g><path d="M240.68 497.79C240.68 497.79 240.78 497.25 241.09 496.26 241.37 495.26 241.94 493.84 242.42 491.94 243.54 488.18 244.8 482.63 245.75 475.68 246.67 468.73 247.22 460.37 246.8 451.11 246.32 441.87 245.01 431.68 241.72 421.53 238.33 411.43 233.25 402.43 227.36 395.33 221.55 388.13 214.89 382.93 208.99 379.21 203.01 375.58 197.76 373.34 194.05 372.07 192.23 371.34 190.74 370.99 189.77 370.63 188.79 370.3 188.28 370.11 188.29 370.07 188.3 370.03 188.83 370.14 189.84 370.39 190.84 370.67 192.35 370.95 194.21 371.62 197.98 372.76 203.34 374.89 209.45 378.47 215.48 382.14 222.29 387.34 228.24 394.61 234.28 401.78 239.45 410.89 242.9 421.15 246.24 431.46 247.52 441.75 247.95 451.06 248.31 460.4 247.66 468.82 246.62 475.8 245.55 482.78 244.15 488.34 242.89 492.08 242.34 493.98 241.69 495.37 241.34 496.35 240.96 497.31 240.74 497.81 240.7 497.8Z" stroke-width="0" fill="#1A2E35"/><path d="M580.94 475.27C580.94 475.27 580.99 475.81 580.96 476.85 580.91 478.01 580.85 479.5 580.77 481.36 580.54 485.42 580.23 491.04 579.84 497.92 578.93 512.03 577.69 531.28 576.32 552.55 574.81 573.81 573.45 593.06 572.44 607.16 571.89 614.03 571.45 619.65 571.13 623.7 570.96 625.55 570.82 627.04 570.71 628.19 570.6 629.22 570.52 629.75 570.48 629.75 570.44 629.75 570.43 629.2 570.46 628.17 570.51 627.01 570.57 625.52 570.65 623.66 570.88 619.6 571.19 613.98 571.58 607.09 572.49 592.98 573.73 573.73 575.1 552.46 576.61 531.21 577.97 511.97 578.97 497.86 579.52 490.99 579.96 485.37 580.28 481.32 580.45 479.47 580.59 477.98 580.7 476.83 580.81 475.8 580.89 475.26 580.93 475.27Z" stroke-width="0" fill="#1A2E35"/><path d="M437.48 450.69C437.48 450.69 437.19 450.48 436.67 450.02 436.1 449.5 435.36 448.82 434.43 447.96 432.43 446.06 429.61 443.39 426.06 440.02 422.47 436.53 418.15 432.33 413.2 427.52 408.29 422.63 402.68 417.19 396.89 410.86L397.79 410.63C395.07 422.45 391.99 435.77 388.71 450L388.37 451.49 387.6 450.17C384.18 444.27 380.64 438.11 377.1 431.77 361.13 403.21 347.39 376.99 337.09 358.2 331.96 348.88 327.79 341.31 324.85 335.97 323.43 333.42 322.32 331.4 321.51 329.94 321.17 329.3 320.89 328.78 320.67 328.36 320.49 328 320.4 327.81 320.42 327.8 320.44 327.79 320.56 327.96 320.78 328.3 321.03 328.7 321.34 329.2 321.73 329.82 322.59 331.26 323.77 333.23 325.27 335.74 328.3 340.91 332.63 348.43 337.85 357.78 348.35 376.47 362.22 402.63 378.17 431.17 381.71 437.5 385.24 443.66 388.65 449.56L387.54 449.73C390.88 435.51 394 422.2 396.77 410.4L397 409.42 397.67 410.17C403.36 416.48 408.94 421.98 413.79 426.92 418.67 431.8 422.94 436.06 426.48 439.59 429.94 443.05 432.69 445.79 434.64 447.74 435.52 448.64 436.23 449.36 436.77 449.91 437.25 450.41 437.48 450.67 437.46 450.69Z" stroke-width="0" fill="#1A2E35"/><path d="M442.15 447.62C442.1 447.58 442.77 446.68 444.02 445.01 445.34 443.21 447.12 440.78 449.33 437.76 453.84 431.5 460.16 422.54 467.5 411.85L467.9 411.26 468.37 411.8C471.44 415.3 475.14 418.6 479.36 421.58 483.57 424.58 488.22 427.38 492.8 430.57L491.85 430.93C491.91 430.66 491.98 430.37 492.05 430.07 496.97 409.72 501.35 391.28 503.34 377.72 504.39 370.95 505.02 365.44 505.39 361.63 505.57 359.82 505.71 358.37 505.82 357.24 505.93 356.24 506 355.71 506.04 355.71 506.08 355.71 506.09 356.24 506.06 357.25 506.02 358.26 506 359.75 505.86 361.67 505.63 365.5 505.14 371.04 504.19 377.85 502.41 391.49 498.16 410.01 493.24 430.35 493.17 430.64 493.1 430.94 493.04 431.21L492.83 432.09 492.09 431.58C487.54 428.41 482.9 425.61 478.65 422.56 474.38 419.53 470.62 416.12 467.52 412.54L468.4 412.49C460.97 423.14 454.52 432.01 449.85 438.17 447.51 441.24 445.61 443.64 444.28 445.24 443.62 446.05 443.08 446.64 442.72 447.05 442.36 447.45 442.16 447.65 442.13 447.63Z" stroke-width="0" fill="#1A2E35"/><path d="M434.92 628.58C434.92 628.58 434.86 627.96 434.86 626.77 434.87 625.47 434.89 623.74 434.92 621.59 435.01 616.96 435.15 610.48 435.31 602.53 435.61 586.32 436.03 564.14 436.48 539.65 436.73 515.14 436.95 492.96 437.11 476.75 437.18 468.8 437.23 462.32 437.27 457.69 437.31 455.53 437.34 453.81 437.36 452.51 437.39 451.32 437.43 450.7 437.48 450.7 437.52 450.7 437.57 451.32 437.61 452.51 437.64 453.81 437.69 455.54 437.75 457.69 437.81 462.32 437.89 468.8 437.98 476.76 438.09 492.86 438.06 515.11 437.7 539.68 437.34 564.24 436.74 586.48 436.17 602.57 435.84 610.52 435.58 616.99 435.39 621.62 435.27 623.77 435.17 625.5 435.1 626.8 435.02 627.98 434.96 628.6 434.92 628.6Z" stroke-width="0" fill="#1A2E35"/><path d="M292.08 733.28C292.08 733.28 292 732.67 291.95 731.51 291.91 730.25 291.85 728.55 291.78 726.41 291.68 721.86 291.53 715.44 291.35 707.47 291.08 691.27 290.71 668.82 290.29 643.32L290.82 643.91C284.91 642.92 278.75 641.9 272.47 640.85 242.95 635.84 216.22 631.3 196.76 628 187.16 626.31 179.36 624.94 173.84 623.97 171.22 623.48 169.14 623.1 167.62 622.81 166.97 622.68 166.44 622.57 166.01 622.48 165.65 622.4 165.46 622.35 165.47 622.33 165.47 622.31 165.66 622.32 166.03 622.36 166.47 622.42 167.01 622.49 167.66 622.57 169.19 622.8 171.28 623.11 173.92 623.5 179.45 624.38 187.28 625.62 196.9 627.15 216.38 630.36 243.11 634.77 272.64 639.64 278.92 640.69 285.08 641.73 290.98 642.72L291.5 642.81 291.5 643.31C291.76 668.82 291.98 691.27 292.15 707.47 292.18 715.44 292.2 721.86 292.22 726.41 292.2 728.55 292.19 730.25 292.18 731.51 292.16 732.67 292.13 733.28 292.09 733.28Z" stroke-width="0" fill="#1A2E35"/><path d="M169.7 623.4C169.72 623.64 165.58 623.92 159.11 625.46 155.87 626.2 152.09 627.39 148 628.97 143.94 630.62 139.58 632.71 135.25 635.33 130.95 638 127.1 640.93 123.79 643.8 120.52 646.72 117.75 649.56 115.62 652.1 111.31 657.17 109.18 660.73 108.98 660.6 108.91 660.56 109.4 659.65 110.37 658.04 110.84 657.23 111.45 656.25 112.24 655.18 113.02 654.1 113.86 652.83 114.95 651.55 117.02 648.9 119.77 645.97 123.04 642.96 126.36 640 130.24 637 134.61 634.29 139.01 631.63 143.44 629.53 147.59 627.92 151.76 626.37 155.62 625.26 158.92 624.62 160.55 624.22 162.07 624.06 163.38 623.85 164.7 623.63 165.84 623.53 166.78 623.48 168.65 623.35 169.69 623.32 169.69 623.41Z" stroke-width="0" fill="#1A2E35"/><path d="M233.59 519.8C233.59 519.8 233.44 520.21 233.05 520.92 232.58 521.75 232 522.76 231.29 524 229.62 526.8 227.36 530.59 224.61 535.2 218.92 544.63 211 557.62 202.17 571.92 193.35 586.23 185.3 599.15 179.43 608.46 176.54 612.99 174.17 616.71 172.42 619.46 171.63 620.65 170.99 621.62 170.46 622.42 170 623.09 169.74 623.43 169.71 623.41 169.67 623.39 169.86 623 170.25 622.29 170.72 621.46 171.31 620.45 172.01 619.21 173.68 616.41 175.94 612.62 178.69 608.01 184.38 598.58 192.3 585.59 201.13 571.29 209.95 556.99 217.99 544.08 223.87 534.76 226.76 530.23 229.13 526.51 230.88 523.76 231.67 522.57 232.31 521.59 232.84 520.8 233.3 520.13 233.56 519.79 233.59 519.81Z" stroke-width="0" fill="#1A2E35"/></g><g><path d="M479.81 363.86C481.08 347.28 482.17 333.45 482.41 331.75 482.41 331.75 538.9 330.82 547.24 275.62 551.27 248.95 555.11 193.34 557.99 142.98 561.09 88.9 522.07 41.53 468.42 34.1L463.09 33.36C405.1 28.75 368.79 75.42 365.78 133.51L355.04 313.25 438.82 433.92 445.66 433.84 479.8 363.85Z" stroke-width="0" fill="#FFC19D"/><path d="M482.41 331.75C482.41 331.75 447.28 328.96 413.37 300.49 413.37 300.49 425.33 343.31 481.19 345.97L482.41 331.75Z" stroke-width="0" fill="#FF9C6A"/><path d="M461.63 159.57C460.45 160.62 454.38 155.05 445.1 154.19 435.84 153.2 428.58 157.45 427.68 156.19 427.23 155.63 428.51 153.65 431.68 151.72 434.8 149.79 439.98 148.12 445.76 148.7 451.54 149.28 456.2 151.92 458.79 154.42 461.44 156.93 462.21 159.11 461.63 159.58Z" stroke-width="0" fill="#1A2E35"/><path d="M455.4 183.84C454.99 187.8 451.3 190.73 447.15 190.38 443.01 190.03 439.98 186.54 440.39 182.58 440.8 178.62 444.49 175.69 448.63 176.04 452.78 176.39 455.81 179.88 455.4 183.85Z" stroke-width="0" fill="#1A2E35"/><path d="M480.73 225.77C480.76 225.28 486.16 225.1 494.87 225.19 497.07 225.27 499.18 225.12 499.75 223.69 500.48 222.19 499.89 219.73 499.19 217.06 497.88 211.53 496.51 205.73 495.06 199.65 489.41 174.89 485.64 154.66 486.64 154.44 487.64 154.22 493.03 174.11 498.68 198.87 500.02 204.97 501.31 210.78 502.52 216.34 503 218.92 504.02 221.91 502.46 225.01 501.65 226.55 499.9 227.51 498.45 227.69 497 227.92 495.78 227.78 494.69 227.69 486.01 226.96 480.67 226.26 480.7 225.77Z" stroke-width="0" fill="#1A2E35"/><path d="M459.33 129.4C458.3 131.41 450.96 129.37 442.01 129.25 433.07 128.94 425.61 130.62 424.71 128.57 424.32 127.59 425.83 125.78 428.97 124.14 432.09 122.5 436.9 121.19 442.26 121.32 447.62 121.45 452.33 122.99 455.35 124.78 458.39 126.57 459.79 128.45 459.33 129.41Z" stroke-width="0" fill="#1A2E35"/><path d="M546.06 141.47C544.98 143.09 537.84 140.75 529.07 139.91 520.3 138.91 512.92 139.72 512.11 137.9 511.76 137.04 513.31 135.62 516.46 134.49 519.58 133.35 524.35 132.64 529.61 133.19 534.87 133.75 539.44 135.44 542.33 137.21 545.25 138.98 546.55 140.7 546.07 141.47Z" stroke-width="0" fill="#1A2E35"/><path d="M364.63 175.08C363.74 174.54 328.2 158.58 324.17 196.54 320.14 234.51 359.09 230.72 359.27 229.64 359.45 228.56 364.63 175.08 364.63 175.08Z" stroke-width="0" fill="#FFC19D"/><path d="M349.2 214.03C349.04 213.89 348.49 214.42 347.32 214.82 346.18 215.2 344.27 215.35 342.36 214.4 338.51 212.5 335.8 205.78 336.35 198.91 336.62 195.45 337.69 192.23 339.21 189.64 340.67 186.99 342.67 185.24 344.73 185.09 346.79 184.84 348.09 186.2 348.44 187.32 348.84 188.43 348.51 189.17 348.71 189.26 348.81 189.37 349.59 188.71 349.45 187.11 349.37 186.34 349.02 185.4 348.21 184.57 347.38 183.73 346.08 183.21 344.65 183.22 341.7 183.11 338.78 185.52 337.12 188.37 335.29 191.21 334.01 194.82 333.7 198.71 333.13 206.39 336.29 213.96 341.61 216.13 344.21 217.11 346.52 216.54 347.76 215.77 349.04 214.96 349.33 214.13 349.2 214.05Z" stroke-width="0" fill="#FF9C6A"/><path d="M470.03 251.54C470.51 250.61 463.19 247.89 458.41 240.55 456.01 236.94 454.75 233.08 453.79 230.27 452.86 227.44 452.13 225.65 451.71 225.75 451.32 225.85 451.29 227.72 451.71 230.77 452.15 233.78 453.17 238.12 455.89 242.22 458.56 246.36 462.32 248.98 465.13 250.3 467.96 251.67 469.92 251.87 470.04 251.55Z" stroke-width="0" fill="#1A2E35"/><path d="M318.02 110.17C326.82 97.26 329.71 81.36 335.02 66.66 340.33 51.96 349.68 36.98 364.71 32.7L365.03 32.87C378.56 28.42 394.83 29.4 405.06 39.26 409.03 19.65 427.39 5.11 447.03 1.29 466.67-2.52 497.45 2.51 515.49 11.17 529.43 17.86 542.51 30.57 558.21 49.01 564.82 56.78 570.85 65.07 576.11 73.81L589.54 126.76 573.39 153.02C572.41 154.82 571.4 156.61 570.2 158.37L570.2 158.24C570.2 158.24 553.51 214.7 553.51 214.7 553.71 199.02 558.37 144.73 558.56 129.05 534.51 126.45 513.33 115.3 498.31 96.33 490.39 86.32 484.45 74.04 473.4 67.65 459.15 59.41 441.27 63.57 425.4 67.95L426.1 67.4C417.79 70.61 410.1 75.43 403.59 81.52 405.08 112.51 399.83 143.81 388.26 172.6 386.52 176.94 381.95 185.81 377.49 187.21 368.73 189.96 366.99 181.11 362.15 176.15 358.59 172.5 352.99 171.7 346.85 171.31 343.86 161.58 341.18 145.34 338.97 131.13 333.71 132.36 328.18 132.43 322.92 131.16 324.81 127.34 326.71 123.53 328.6 119.71 326.38 120.92 324.08 122.16 321.56 122.36 319.04 122.56 316.23 121.45 315.26 119.11 314 116.09 316.19 112.86 318.03 110.16Z" stroke-width="0" fill="#1A2E35"/><path d="M422.12 46.76C422.22 46.91 419.7 48.08 416.22 51.49 412.77 54.89 408.76 60.94 406.5 69.37 405.35 73.56 404.49 78.28 404.17 83.39 403.82 88.5 403.87 94 403.89 99.8 403.89 105.59 403.91 111.72 403.12 118.03 402.73 121.18 402.14 124.38 401.24 127.55 400.34 130.67 399.28 134.05 396.72 136.61 394.67 138.7 391.43 139.48 388.71 138.74 385.97 138.07 383.6 136.43 381.92 134.3 378.62 129.9 378.07 124.55 377.49 119.84L378.65 120.06C376.47 124.13 374.25 128.14 371.14 131.25 368.08 134.39 363.99 136.33 359.96 136.43 357.95 136.48 355.96 136.03 354.3 135.06 352.61 134.1 351.43 132.56 350.66 130.98 349.93 129.37 349.61 127.63 349.8 125.98 350 124.34 350.75 122.82 351.86 121.78L352.41 122.34C347.81 126.94 343.12 129.27 339.9 130.51 338.28 131.13 336.98 131.49 336.11 131.71 335.23 131.91 334.77 131.99 334.76 131.95 334.76 131.91 335.19 131.76 336.05 131.5 336.9 131.21 338.16 130.8 339.74 130.12 342.87 128.76 347.42 126.36 351.84 121.79L352.39 122.35C350.39 124.21 350.06 127.68 351.49 130.58 352.21 132.01 353.29 133.38 354.79 134.2 356.27 135.05 358.09 135.45 359.92 135.38 363.63 135.25 367.44 133.43 370.31 130.44 373.25 127.46 375.4 123.55 377.55 119.48L378.46 117.75 378.7 119.7C379.29 124.41 379.91 129.55 382.92 133.52 384.42 135.43 386.6 136.91 389 137.49 391.4 138.12 394.02 137.49 395.81 135.69 398.05 133.47 399.11 130.28 399.99 127.21 400.87 124.11 401.45 120.98 401.85 117.88 402.64 111.67 402.65 105.59 402.68 99.8 402.7 94.01 402.68 88.49 403.09 83.31 403.47 78.14 404.39 73.36 405.62 69.12 408.03 60.58 412.25 54.47 415.87 51.13 419.52 47.77 422.12 46.76 422.12 46.76Z" stroke-width="0" fill="#375A64"/><path d="M590.36 111.93C590.36 111.93 590.21 112.07 589.89 112.28 589.5 112.53 589.02 112.83 588.44 113.2 587.8 113.61 587 114.09 585.99 114.55 584.99 115.04 583.86 115.64 582.5 116.11 577.18 118.22 568.76 120.12 558.46 118.84 548.26 117.6 536.2 113.17 525.76 104.29 515.19 95.59 506.21 83.21 499.13 69.24 495.53 62.26 492.69 55.15 489.47 48.55 486.28 41.95 482.68 35.8 478.16 30.84 473.7 25.86 468.39 22.05 462.79 20.09 460 19.06 457.15 18.68 454.42 18.57 451.67 18.54 449.04 18.92 446.6 19.55 441.71 20.84 437.68 23.24 434.57 25.77 431.45 28.32 429.29 31.09 427.78 33.49 424.92 38.43 424.57 41.7 424.37 41.63 424.35 41.63 424.37 41.43 424.45 41.05 424.55 40.59 424.67 40.04 424.82 39.37 425.19 37.9 425.97 35.79 427.33 33.24 428.8 30.76 430.95 27.88 434.09 25.22 437.22 22.58 441.32 20.07 446.34 18.67 448.85 17.99 451.56 17.56 454.41 17.57 457.24 17.66 460.24 18.03 463.13 19.07 468.95 21.05 474.44 24.96 479.03 30.03 483.68 35.09 487.37 41.34 490.6 47.99 493.86 54.64 496.7 61.73 500.27 68.65 507.3 82.52 516.14 94.76 526.51 103.37 536.76 112.17 548.52 116.58 558.57 117.93 568.69 119.31 577.01 117.58 582.31 115.64 587.66 113.66 590.26 111.76 590.35 111.93Z" stroke-width="0" fill="#375A64"/><path d="M546.18 168.58C545 169.63 538.93 164.06 529.65 163.2 520.39 162.21 513.13 166.46 512.23 165.2 511.78 164.63 513.06 162.66 516.23 160.73 519.35 158.8 524.53 157.13 530.31 157.71 536.09 158.29 540.75 160.93 543.33 163.43 545.98 165.94 546.75 168.12 546.18 168.59Z" stroke-width="0" fill="#1A2E35"/><path d="M532.43 191.76C532.02 195.72 528.33 198.64 524.18 198.3 520.04 197.95 517.01 194.46 517.42 190.5 517.83 186.54 521.52 183.61 525.66 183.96 529.81 184.31 532.84 187.8 532.43 191.77Z" stroke-width="0" fill="#1A2E35"/><path d="M571.86 67.11C576.1 73.71 582.92 79.95 590.76 79.72 593.07 79.65 599.22 77.93 599.22 77.93 601.81 79.78 600.45 89.04 598.38 91.45 596.31 93.87 592.08 97.03 592.08 97.03 600.82 102.64 609.31 100.87 619.31 98.07 616.31 114.49 603.86 128.83 588.03 134.11 582.97 135.8 576.93 136.45 572.69 133.22 568.96 130.37 567.72 125.38 566.88 120.76 563.81 103.79 562.84 86.44 564.02 69.23L571.85 67.11Z" stroke-width="0" fill="#1A2E35"/></g></svg>