<svg viewBox="0 0 630.41 870.39" xmlns="http://www.w3.org/2000/svg" xmlns:xlink="http://www.w3.org/1999/xlink" id="Layer_1" overflow="hidden"><defs><clipPath id="clippath"><rect x="0" y="0" width="630.41" height="870.39" stroke-width="0" fill="none"/></clipPath><clipPath id="clippath-1"><rect x="0" y="0" width="630.41" height="870.39" stroke-width="0" fill="none"/></clipPath><clipPath id="clippath-2"><rect x="495.48" y="179.75" width="23.86" height="14.56" stroke-width="0" fill="none"/></clipPath><clipPath id="clippath-3"><rect x="487.23" y="191.26" width="17.77" height="30.43" stroke-width="0" fill="none"/></clipPath><clipPath id="clippath-4"><rect x="455.4" y="198.81" width="11" height="25.25" stroke-width="0" fill="none"/></clipPath><clipPath id="clippath-5"><rect x="478.62" y="728.99" width="36.31" height="59.71" stroke-width="0" fill="none"/></clipPath><clipPath id="clippath-6"><rect x="50.67" y="560.66" width="431.29" height="96.99" stroke-width="0" fill="none"/></clipPath><clipPath id="clippath-7"><rect x="363.17" y="645.97" width="98.22" height="53.97" stroke-width="0" fill="none"/></clipPath><clipPath id="clippath-8"><rect x="133.65" y="681.89" width="88.54" height="41.35" stroke-width="0" fill="none"/></clipPath><clipPath id="clippath-9"><rect x="37.57" y="331.81" width="140.47" height="187.92" stroke-width="0" fill="none"/></clipPath><clipPath id="clippath-10"><rect x="59.68" y="202.81" width="147.71" height="89.84" stroke-width="0" fill="none"/></clipPath><clipPath id="clippath-11"><rect x="159.28" y="292.65" width="7.39" height="7.39" stroke-width="0" fill="none"/></clipPath><clipPath id="clippath-12"><rect x="195.71" y="282.03" width="7.78" height="7.39" stroke-width="0" fill="none"/></clipPath><clipPath id="clippath-13"><rect x="131.27" y="178.46" width="30.16" height="44.58" stroke-width="0" fill="none"/></clipPath><clipPath id="clippath-14"><rect x="82" y="127.56" width="23.78" height="16.09" stroke-width="0" fill="none"/></clipPath></defs><g clip-path="url(#clippath)"><path d="M411.13 255.95 440.19 222.32 469.81 232.79 449.61 272.14 411.13 255.95Z" stroke-width="0" fill="#FB8F61"/><g clip-path="url(#clippath-1)"><path d="M435.79 219.54C435.79 219.54 433.26 204.31 440.81 194.02 448.36 183.72 451.64 173.5 457.78 166.23 463.92 158.96 464.06 171.8 462.75 178.64 461.44 185.49 460.03 193.26 465.33 193.41 470.63 193.56 510.81 172.01 518.14 173.05 525.46 174.1 520.05 179.61 520.05 179.61 520.05 179.61 529.95 174.64 532.99 178.03 533.78 178.91 534.19 182.23 530.03 185.21 520.68 191.9 500.33 204.92 500.33 204.92 501.48 204.15 527.75 189.87 531.96 188.24 537.47 186.12 541.14 187.92 542.27 191.15 543.88 195.75 511.91 214.57 511.12 216.31 511.12 216.31 529.16 204.86 534.66 207.9 540.16 210.94 529.2 218.76 518.23 223.83 508.17 228.47 489.64 240.22 478.96 243.94 465.79 248.53 455.92 248.66 446.89 239.2 437.86 229.74 435.79 219.54 435.79 219.54" stroke-width="0" fill="#FB8F61"/><g opacity="0.3"><g clip-path="url(#clippath-2)"><path d="M495.96 194.31C495.8 194.31 495.65 194.23 495.56 194.09 495.41 193.87 495.48 193.57 495.7 193.42 503.11 188.55 510.83 183.97 518.64 179.8 518.87 179.67 519.17 179.77 519.29 180 519.42 180.23 519.33 180.53 519.09 180.65 511.31 184.81 503.61 189.37 496.22 194.23 496.14 194.28 496.05 194.31 495.96 194.31" stroke-width="0"/></g></g><g opacity="0.3"><g clip-path="url(#clippath-3)"><path d="M504.51 221.69C504.29 221.69 504.09 221.54 504.04 221.32 501.52 210.27 495.6 199.89 487.37 192.09 487.18 191.91 487.17 191.6 487.35 191.41 487.53 191.22 487.84 191.21 488.03 191.39 496.39 199.32 502.4 209.88 504.97 221.1 505.03 221.36 504.87 221.62 504.61 221.68 504.57 221.68 504.54 221.69 504.5 221.69" stroke-width="0"/></g></g><g opacity="0.3"><g clip-path="url(#clippath-4)"><path d="M455.88 224.06C455.71 224.06 455.55 223.98 455.46 223.82 455.33 223.59 455.4 223.3 455.64 223.16 459.55 220.88 462.69 217.12 464.25 212.86 465.81 208.6 465.83 203.71 464.31 199.44 464.23 199.19 464.36 198.91 464.61 198.82 464.86 198.73 465.13 198.86 465.23 199.11 466.82 203.59 466.79 208.72 465.16 213.18 463.53 217.65 460.24 221.58 456.13 223.98 456.06 224.03 455.97 224.05 455.89 224.05" stroke-width="0"/></g></g><path d="M537.84 802.6 552.88 757.6 444.12 696.93 420.48 765.21 537.84 802.6Z" stroke-width="0" fill="#FB8F61"/><path d="M539.46 741.89 531.48 756.74C529.67 760.1 529.7 764.13 531.35 767.57 538.44 782.42 530.56 786.48 514.56 789.88 510.69 795.43 516.62 800.68 518.19 802.14L552.6 834.94C555.45 837.72 560.02 837.65 562.8 834.8 563.29 834.29 563.71 833.72 564.03 833.09 573.72 815.06 578.31 806.53 590.37 784.08L627.26 715.44C637.32 696.73 620.54 682.72 614.66 689.48 588.38 720.02 564.98 739.08 549.14 744.38 546.31 745.42 546.08 742.67 539.46 741.89" stroke-width="0" fill="#1A2E35"/><path d="M568.26 715.84C567.98 713.68 566.68 711.77 564.77 710.72 563.81 710.03 562.54 709.95 561.5 710.52 555.7 713.4 554.4 736.63 554.3 739.26 554.26 739.54 554.34 739.82 554.53 740.03 554.88 740.41 555.46 740.45 555.85 740.1 559.38 736.12 562.49 731.78 565.12 727.15 567.35 723.81 568.45 719.85 568.26 715.84M562.28 712.44C562.72 712.19 563.26 712.23 563.66 712.56 565.01 713.38 565.94 714.75 566.21 716.3 567.09 722.21 560.26 731.66 556.3 736.59 557.05 727.06 559.11 714.05 562.28 712.44" stroke-width="0" fill="#00BD84"/><path d="M556.38 739.57C557.05 732.75 554.17 716.14 548.98 714.17 547.91 713.72 546.31 713.79 544.62 716.13 537.98 725.68 553.91 739.87 554.69 740.28 554.95 740.55 555.34 740.64 555.69 740.51 555.85 740.35 555.96 740.15 556 739.93L556.38 739.57ZM545.93 717.28C547.14 715.49 547.82 715.86 548.06 715.99 551.3 717.05 554.36 729.62 554.3 737.4 550.71 733.85 542.05 724.38 545.52 717.94L545.93 717.29Z" stroke-width="0" fill="#00BD84"/><path d="M557.81 755.68C557.48 755.68 557.15 755.5 556.97 755.19 553.93 749.83 553.41 743.18 555.56 737.4 555.75 736.9 556.3 736.65 556.8 736.84 557.3 737.02 557.55 737.58 557.37 738.08 555.41 743.33 555.89 749.37 558.65 754.25 558.91 754.71 558.75 755.3 558.28 755.56 558.13 755.64 557.97 755.68 557.81 755.68" stroke-width="0" fill="#00BD84"/><path d="M569.71 750.18C569.38 750.18 569.05 750 568.87 749.69 565.83 744.33 565.31 737.68 567.46 731.9 567.65 731.41 568.19 731.15 568.7 731.34 569.2 731.52 569.45 732.08 569.27 732.58 567.31 737.83 567.79 743.87 570.55 748.75 570.81 749.21 570.65 749.8 570.18 750.06 570.03 750.14 569.87 750.18 569.71 750.18" stroke-width="0" fill="#00BD84"/><path d="M581.73 741.84C581.4 741.84 581.07 741.66 580.89 741.35 577.85 735.99 577.33 729.34 579.48 723.56 579.67 723.07 580.21 722.81 580.72 723 581.22 723.19 581.47 723.74 581.29 724.24 579.33 729.49 579.81 735.53 582.57 740.41 582.83 740.87 582.67 741.46 582.2 741.72 582.05 741.8 581.89 741.84 581.73 741.84" stroke-width="0" fill="#00BD84"/><g opacity="0.3"><g clip-path="url(#clippath-5)"><path d="M501.6 728.99 514.94 736.43 494.23 788.7 478.62 783.73 501.6 728.99Z" stroke-width="0"/></g></g><path d="M199.35 500.7 253.61 533.87C323.28 537.31 558.71 539.26 559.4 623.01 582.51 721.73 369.32 712.33 227.59 713.71 226.63 713.72 225.8 714.3 225.24 715.19 223.99 717.16 210.24 724.21 192.67 727 171.04 730.44 121.54 733.44 89.75 728.41 34.91 719.74 19.09 667.64 29.58 594.37 33.89 564.26 50.53 539.81 55.59 502.29L199.35 500.7Z" stroke-width="0" fill="#004254"/><g opacity="0.2"><g clip-path="url(#clippath-6)"><path d="M50.67 612.12 51.01 615.54C51.01 615.54 230.3 585.86 339.53 657.64 339.53 657.64 457.9 628.6 481.96 606.51 350.86 675.48 233.44 595.62 233.44 595.62L175.6 569.78C128.34 548.67 80.76 564.79 50.66 612.12" stroke-width="0"/></g></g><path d="M253.66 728.25 274.37 770.94 394.55 738.3 363.72 672.95 253.66 728.25Z" stroke-width="0" fill="#FB8F61"/><path d="M300.89 770.03 290.97 756.4C288.72 753.32 285.09 751.6 281.27 751.59 264.81 751.54 264.57 742.68 268.44 726.79 265.12 720.89 257.82 723.97 255.82 724.75L211.34 741.53C207.6 742.89 205.68 747.04 207.05 750.78 207.29 751.45 207.63 752.07 208.06 752.64 220.1 769.19 225.81 777.02 240.8 797.62L286.65 860.63C299.15 877.81 319.05 868.77 315.5 860.53 299.38 823.6 292.34 794.26 294.44 777.69 294.74 774.69 297.31 775.68 300.89 770.04" stroke-width="0" fill="#1A2E35"/><path d="M311.87 807.27C313.95 807.95 316.22 807.61 318 806.35 319.04 805.78 319.66 804.67 319.6 803.49 319.52 797.02 299.15 785.77 296.82 784.54 296.59 784.38 296.3 784.34 296.03 784.41 295.53 784.56 295.25 785.08 295.4 785.57 297.46 790.48 300.02 795.16 303.05 799.54 305.09 802.99 308.19 805.7 311.88 807.27M317.54 803.36C317.58 803.86 317.3 804.34 316.84 804.55 315.51 805.41 313.88 805.65 312.36 805.23 306.65 803.46 301.1 793.21 298.37 787.5 306.64 792.31 317.47 799.81 317.54 803.36" stroke-width="0" fill="#00BD84"/><path d="M295.64 786.28C301.5 789.84 317.71 794.45 321.74 790.63 322.61 789.86 323.24 788.38 321.87 785.84 316.14 775.72 296.45 783.92 295.74 784.44 295.39 784.56 295.13 784.87 295.1 785.24 295.17 785.45 295.31 785.64 295.49 785.77L295.65 786.27ZM320.26 786.53C321.34 788.39 320.72 788.85 320.5 789.01 318.14 791.47 305.49 788.77 298.51 785.35 303.27 783.66 315.55 779.96 319.86 785.88L320.27 786.54Z" stroke-width="0" fill="#00BD84"/><path d="M297.25 788.1C297 788.1 296.75 788 296.55 787.8 292.67 783.76 287.01 781.58 281.43 781.94 280.9 782.02 280.44 781.57 280.41 781.05 280.38 780.52 280.78 780.06 281.31 780.03 287.46 779.56 293.68 782.03 297.95 786.47 298.32 786.85 298.3 787.46 297.92 787.83 297.73 788.01 297.49 788.1 297.25 788.1" stroke-width="0" fill="#00BD84"/><path d="M297.04 801.22C296.79 801.22 296.54 801.12 296.35 800.92 292.47 796.88 286.8 794.71 281.23 795.06 280.75 795.15 280.24 794.7 280.21 794.17 280.17 793.64 280.58 793.18 281.11 793.15 287.26 792.75 293.48 795.15 297.74 799.59 298.11 799.97 298.1 800.58 297.71 800.95 297.53 801.13 297.28 801.22 297.04 801.22" stroke-width="0" fill="#00BD84"/><path d="M299.35 815.66C299.1 815.66 298.85 815.56 298.66 815.36 294.78 811.32 289.12 809.14 283.54 809.5 283.07 809.59 282.55 809.14 282.52 808.61 282.48 808.08 282.88 807.62 283.41 807.59 289.57 807.14 295.78 809.59 300.05 814.03 300.42 814.41 300.4 815.02 300.02 815.39 299.83 815.57 299.59 815.66 299.35 815.66" stroke-width="0" fill="#00BD84"/><path d="M505.39 725.14C505.39 725.14 229.39 570.63 134.59 567.69 39.8 564.76 29.05 636.3 63.93 691.36 98.8 746.42 186.29 719.73 186.29 719.73 186.29 719.73 117.08 702.22 125.65 683.45 134.22 664.68 159.78 693.81 159.78 693.81 159.78 693.81 327.47 762.66 477.1 787.07L505.39 725.14Z" stroke-width="0" fill="#004254"/><g opacity="0.2"><g clip-path="url(#clippath-7)"><path d="M363.17 648.66 452.01 699.93 461.39 698.94 377.3 645.97 363.17 648.66Z" stroke-width="0"/></g></g><g opacity="0.2"><g clip-path="url(#clippath-8)"><path d="M222.19 717.41C222.19 717.41 132.66 681.9 133.66 681.9 134.66 681.9 190.08 723.44 208.23 723.25L222.2 717.42Z" stroke-width="0"/></g></g><path d="M241.22 233.78C241.22 233.78 252.03 231.3 291.63 277.45 318.52 308.78 359.33 331.84 359.33 331.84 362.84 324.29 424.55 233.78 424.55 233.78L463.81 256.07C463.81 256.07 406.18 405.1 368.71 410.95 331.24 416.81 243.89 341.47 243.89 341.47L241.23 233.79Z" stroke-width="0" fill="#F04C86"/><path d="M25.75 288.59C42.82 339.86 43.63 455.73 37.58 519.74L248.74 519.74C282.03 392.04 253.21 301.22 250.37 271.3 246.84 234.91 241.22 233.52 241.22 233.52 241.22 233.52 201.72 229.66 167.36 229.93 140.75 230.93 114.25 233.81 88.04 238.55 68.55 241.81 49.25 246.15 30.24 251.56 22.08 253.88 17.35 262.38 19.67 270.54 19.74 270.8 19.82 271.06 19.91 271.31 21.94 277.04 23.92 282.92 25.74 288.6" stroke-width="0" fill="#F04C86"/><g opacity="0.2"><g clip-path="url(#clippath-9)"><path d="M37.57 519.74C42.61 460.11 81.3 391.35 75.22 331.82 93.19 357.34 99.14 407.44 106.42 463.39 108.79 481.61 174.92 500.04 178.03 518.85L37.56 519.74Z" stroke-width="0"/></g></g><path d="M70.97 245.34C61.12 259.41 182.19 282.05 182.19 282.05 182.19 282.05 253.05 236.08 170.31 228.9 153.45 227.4 86.55 223.23 70.98 245.33" stroke-width="0" fill="#FB8F61"/><path d="M186.14 308.12C186.14 308.12 251.38 254.28 217.61 222.06 183.84 189.84 24.94 175.45 38.37 248.82 38.37 248.82 58.81 242.77 79.47 262.47 122.98 304.11 186.13 308.12 186.13 308.12" stroke-width="0" fill="#F04C86"/><g opacity="0.2"><g clip-path="url(#clippath-10)"><path d="M180.69 292.65C180.69 292.65 217.62 263.96 204.61 238.11 191.6 212.26 114.75 183.95 59.68 219.59 72.89 226.36 85.15 234.81 96.18 244.74 118.02 263.42 180.69 292.64 180.69 292.64" stroke-width="0"/></g></g><g opacity="0.2"><g clip-path="url(#clippath-11)"><path d="M166.66 296.29C166.69 298.33 165.06 300.01 163.02 300.03 160.98 300.06 159.31 298.43 159.28 296.39 159.25 294.35 160.88 292.67 162.92 292.64L163.02 292.64C165.02 292.67 166.63 294.28 166.66 296.28" stroke-width="0"/></g></g><g opacity="0.2"><g clip-path="url(#clippath-12)"><path d="M203.49 285.7C203.52 287.71 201.91 289.36 199.9 289.39 199.88 289.39 199.87 289.39 199.85 289.39 197.83 289.63 195.99 288.19 195.74 286.16 195.5 284.14 196.94 282.3 198.96 282.05 199.26 282.02 199.56 282.02 199.85 282.05 201.86 282.05 203.49 283.68 203.49 285.69" stroke-width="0"/></g></g><path d="M237.79 322.62C237.82 324.66 236.19 326.34 234.15 326.36 232.11 326.39 230.44 324.76 230.41 322.72 230.38 320.68 232.01 319 234.05 318.97L234.1 318.97C236.12 318.97 237.76 320.59 237.79 322.61" stroke-width="0" fill="#1A2E35"/><path d="M158.31 341.46C158.31 343.47 156.68 345.1 154.67 345.1 152.66 345.1 151.03 343.47 151.03 341.46 151.03 339.45 152.66 337.82 154.67 337.82 156.68 337.82 158.31 339.45 158.31 341.46" stroke-width="0" fill="#1A2E35"/><path d="M233.24 324.18 233.24 324.18C233.24 324.18 218.95 322.25 216.49 304 216.2 295.17 208.94 288.18 200.11 288.21 199.36 288.21 198.72 287.68 198.72 286.93 198.66 286.22 199.19 285.6 199.89 285.54 199.92 285.54 199.96 285.54 200 285.54 210.16 285.55 218.56 293.48 219.16 303.63 221.3 319.69 233.45 321.51 233.55 321.56 234.27 321.64 234.79 322.28 234.73 323.01 234.62 323.74 233.96 324.25 233.23 324.19" stroke-width="0" fill="#1A2E35"/><path d="M154.68 341.46C153.96 341.46 153.37 340.89 153.34 340.18 153.05 330.79 156.49 321.67 162.92 314.81 165.44 312.6 166.93 309.44 167.04 306.09 166.76 302.73 165.33 299.57 162.97 297.15 162.37 296.72 162.22 295.89 162.65 295.29 163.08 294.69 163.91 294.54 164.51 294.97 164.61 295.04 164.7 295.13 164.78 295.22 167.68 298.06 169.43 301.87 169.7 305.92 169.62 310.01 167.85 313.88 164.83 316.63 158.97 322.95 155.8 331.3 156 339.91 156.03 340.64 155.5 341.27 154.77 341.36L154.66 341.47Z" stroke-width="0" fill="#1A2E35"/><path d="M296.61 618.16 307.22 620.08C307.22 620.08 304.28 610.53 341.88 598.05 379.49 585.57 416.98 578.8 416.98 578.8 416.98 578.8 348.96 575.39 347.19 575.39 345.42 575.39 282.48 597.73 282.48 597.73L296.6 618.15Z" stroke-width="0" fill="#FFA500"/><path d="M269.67 548.74C271.54 548.77 416.98 578.81 416.98 578.81 416.98 578.81 315.86 575.1 296.61 618.16L178.9 569.82C178.9 569.82 211.9 547.86 269.67 548.74" stroke-width="0" fill="#FEE9DF"/><path d="M514.94 548.72 514.94 555.06C514.94 555.06 449.62 547.49 416.98 578.81L415.22 563.76 458.52 543.9 514.94 548.72Z" stroke-width="0" fill="#FFA500"/><path d="M382.8 519.35C382.8 519.35 303.91 498.47 274.9 549.72L416.98 578.81C416.98 578.81 423.55 539.76 514.94 548.72L382.81 519.35Z" stroke-width="0" fill="#FEE9DF"/><path d="M24 254.82C20.67 256.02-1.01 274.13 0.04 316.56 1.57 378.77 16.89 507.65 24 519.73 31.11 531.82 219.39 584.6 222.19 587.66 224.98 590.72 234.75 554.81 234.75 554.81L89.79 462.86C89.79 462.86 81.22 333.3 77.8 313.87 74.38 294.44 64.5 240.3 24 254.82" stroke-width="0" fill="#F04C86"/><path d="M233.09 560.66 241.21 564.31C241.21 564.31 279.58 561.28 289.31 570.98 299.04 580.68 304.5 624.93 304.5 624.93L222.19 587.66 233.1 560.66Z" stroke-width="0" fill="#FB8F61"/><path d="M100.28 249.5C100.28 249.5 117.79 261.06 142.47 276.07 147.61 279.2 173.86 290.75 179.57 292.66L190.18 283.55C190.71 281.92 191.04 280.2 191.19 278.42 192.25 266.51 188.37 250.66 177.92 244.85 166.14 238.3 159.94 232.05 159.95 220.52 159.88 214 161.08 207.06 162.71 200.24L149.49 195.02 99.47 158.93C108.78 184.61 120.23 230.08 100.28 249.5" stroke-width="0" fill="#FB8F61"/><g opacity="0.2"><g clip-path="url(#clippath-13)"><path d="M160 223.04C147.06 218.01 132.12 208.03 131.36 193.92 131.08 187.97 131.42 182.23 132.23 178.45L161.42 206.15C160.31 211.58 160.15 215.08 160 223.04" stroke-width="0"/></g></g><path d="M83.07 111.58C94.42 154.91 98.31 173.44 124.85 192.74 164.78 221.76 215.38 201.34 217.17 156.23 218.78 115.62 199.95 51.58 153.67 40.27 108.08 29.13 71.71 68.25 83.07 111.58" stroke-width="0" fill="#FB8F61"/><path d="M144.77 116.14C145.76 120.76 148.92 124.16 151.82 123.74 154.72 123.32 156.27 119.23 155.28 114.61 154.29 109.99 151.13 106.59 148.23 107.01 145.33 107.43 143.77 111.52 144.77 116.14" stroke-width="0" fill="#391302"/><path d="M189.43 108.47C190.4 112.94 193.53 116.23 196.43 115.81 199.32 115.39 200.89 111.42 199.92 106.94 198.95 102.47 195.82 99.18 192.92 99.6 190.03 100.02 188.46 103.99 189.43 108.47" stroke-width="0" fill="#391302"/><path d="M130.57 101.73C131.14 101.7 131.68 101.44 132.05 100.97 137.79 93.57 145.79 94.5 145.88 94.51 147.06 94.65 148.1 93.82 148.17 92.63 148.23 91.43 147.31 90.34 146.11 90.18 145.69 90.13 135.65 88.95 128.53 98.14 127.82 99.06 128.03 100.44 129 101.22 129.47 101.59 130.03 101.77 130.56 101.74" stroke-width="0" fill="#391302"/><path d="M196.74 84.56C197.16 84.34 197.47 83.94 197.59 83.43 197.82 82.37 197.12 81.18 196.03 80.79 185.03 76.81 178.29 82.35 178.01 82.59 177.21 83.26 177.21 84.55 178.01 85.46 178.8 86.37 180.08 86.56 180.88 85.9 181.14 85.68 186.44 81.47 195.19 84.64 195.76 84.84 196.32 84.8 196.76 84.56" stroke-width="0" fill="#391302"/><path d="M173.66 108.89C173.66 108.89 183.29 124.21 192.76 133.19 194.42 134.76 194.01 137.52 192.03 138.65 186.93 141.56 180.27 140.8 180.27 140.8L173.66 108.89Z" stroke-width="0" fill="#BC6B49"/><path d="M146.61 107.48 156.31 103.41C156.31 103.41 152.04 111.86 146.61 107.48" stroke-width="0" fill="#391302"/><path d="M191.43 100.02 201.13 95.95C201.13 95.95 196.86 104.4 191.43 100.02" stroke-width="0" fill="#391302"/><path d="M101.94 169.21C-45.57 77.87 119.3 15.8 119.3 15.8 185.56-30.59 187.86 39.96 187.86 39.96 221.05 74.6 174.07 104.91 174.07 104.91 193.86 76.43 163.23 59.43 163.23 59.43 167.94 97.28 131.01 112.13 131.01 112.13 145.46 77.97 136.25 60.32 136.25 60.32 125.66 121.19 95.23 133.39 95.23 133.39L101.94 169.2Z" stroke-width="0" fill="#722604"/><path d="M75.72 149.66C82.42 157.82 91.81 162.08 99.87 162.73 112 163.71 114.9 143.98 108.99 132.98 103.66 123.07 91.06 118.02 80.11 122.2 69.32 126.31 68.06 140.33 75.72 149.66" stroke-width="0" fill="#FB8F61"/><g opacity="0.2"><g clip-path="url(#clippath-14)"><path d="M104.83 143.65C104.4 143.65 104.01 143.36 103.9 142.93 103.02 139.45 101.2 136.25 98.65 133.66 96.99 131.98 94.31 129.9 90.98 129.54 87.98 129.23 84.98 130.62 83.82 132.88 83.57 133.35 83 133.54 82.52 133.29 82.05 133.05 81.86 132.47 82.1 131.99 83.64 129.01 87.37 127.2 91.18 127.62 95.07 128.04 98.13 130.4 100.01 132.3 102.8 135.13 104.78 138.64 105.75 142.45 105.88 142.96 105.57 143.48 105.05 143.61 104.97 143.63 104.89 143.64 104.82 143.64" stroke-width="0"/></g></g><path d="M179.51 156.76C176.19 161.04 173.18 165.56 170.51 170.28 169.62 169.95 168.7 169.64 167.82 169.27 155.69 164.65 151.57 158.52 150.75 153.09 150.39 150.43 150.67 147.72 151.55 145.19 152.02 143.75 152.67 142.38 153.51 141.12 158.48 147.41 169.42 152.58 175.4 155.1 178.03 156.06 179.5 156.76 179.5 156.76" stroke-width="0" fill="#391302"/><path d="M175.56 155.03 172.79 158.95C161.41 154.58 153.98 150.02 151.71 145.12 152.17 143.68 152.83 142.31 153.67 141.05 158.67 147.4 169.58 152.51 175.56 155.03" stroke-width="0" fill="#FB8F61"/><path d="M167.98 169.2C155.85 164.58 151.73 158.45 150.91 153.02 155.48 154.86 159.7 157.49 163.36 160.8 165.74 163.05 167.35 165.99 167.98 169.2" stroke-width="0" fill="#DC5753"/></g></g></svg>