<svg viewBox="0 0 1301.05 2693.87" xmlns="http://www.w3.org/2000/svg" xmlns:xlink="http://www.w3.org/1999/xlink" id="Layer_1" overflow="hidden"><defs><clipPath id="clippath"><rect x="0" y="0" width="1301.05" height="1075.29" stroke-width="0" fill="none"/></clipPath></defs><g clip-path="url(#clippath)"><g><g><path d="M1112.96 626.25C1112.96 626.25 1125.59 622.26 1102.54 591.14 1079.49 560.03 1028.94 513.07 1028.94 513.07 1028.94 513.07 1004.84 595.32 1112.96 626.25Z" stroke-width="0" fill="#806D35"/><path d="M1019.19 552.75 1095.75 437.89 1142.03 459.16 1075.44 604.08 1019.19 552.75Z" stroke-width="0" fill="#FFCBA8"/><g><path d="M1087.61 437.09C1087.61 437.09 1087.28 411.44 1102.27 396.42 1117.25 381.4 1125.22 365.42 1137.13 355.03 1149.04 344.64 1146.05 365.76 1142.18 376.68 1138.31 387.59 1134.04 400.01 1142.71 401.59 1151.38 403.17 1222.81 377.86 1234.58 381.42 1246.35 384.98 1236.08 392.68 1236.08 392.68 1236.08 392.68 1252.14 387.12 1257.73 393.32 1263.33 399.52 1254.28 406.04 1254.28 406.04 1254.28 406.04 1265.19 402.69 1266.67 410.65 1268.15 418.61 1210.14 448.09 1212.64 452.32 1215.13 456.54 1240.58 429.77 1248.85 436.15 1257.13 442.52 1236.77 453.89 1221.97 464.86 1207.18 475.83 1188.03 482.71 1169.26 481.49 1150.49 480.27 1118.36 488.08 1105.91 470.27 1093.46 452.46 1087.61 437.1 1087.61 437.1Z" stroke-width="0" fill="#FFCBA8"/><path d="M1254.23 403.87C1235.22 410.6 1216.5 417.96 1198.17 425.92 1196 426.86 1198.42 430.13 1200.56 429.2 1218.61 421.37 1237.03 414.13 1255.75 407.51 1257.98 406.72 1256.48 403.08 1254.23 403.88L1254.23 403.88Z" stroke-width="0" fill="#7C2133"/><path d="M1234.96 392.24C1219.87 396 1205.67 401.39 1192.36 408.41 1190.29 409.5 1192.69 412.78 1194.75 411.69 1207.79 404.82 1221.71 399.55 1236.48 395.87 1238.83 395.29 1237.3 391.65 1234.96 392.24L1234.96 392.24Z" stroke-width="0" fill="#7C2133"/><path d="M1206.22 443.15C1202.54 427.52 1195.35 412.75 1184.76 399.36 1183.13 397.3 1180 399.11 1181.63 401.17 1191.76 413.99 1198.78 428.14 1202.31 443.12 1202.87 445.51 1206.78 445.57 1206.21 443.16L1206.21 443.16Z" stroke-width="0" fill="#7C2133"/><path d="M1175.74 422.25C1151.23 418.04 1129.88 427.79 1120.26 447.68 1119.27 449.73 1122.91 451.66 1123.91 449.6 1132.79 431.23 1152.57 421.97 1175.27 425.86 1177.78 426.29 1178.28 422.68 1175.74 422.25L1175.74 422.25Z" stroke-width="0" fill="#7C2133"/></g><path d="M1112.96 626.25C1112.96 626.25 1069.07 662.29 1019.94 743.34 1010.71 758.56 1000.78 772.08 990.44 783.65 951.61 827.15 907.22 843.22 874.38 819.41 869.44 815.83 864.75 811.35 860.4 805.91 847.4 789.71 832.51 760.13 818.24 727.28 787.48 656.42 759.57 570.33 759.57 570.33L799.18 476.85 856.7 442.14 861.38 455 882.05 525.03 927.66 655.84 1028.95 513.06C1029.04 513.45 1029.13 513.85 1029.22 514.27 1034.19 538.27 1044.27 560.6 1058.53 579.75 1072.79 598.91 1091.24 614.91 1112.97 626.25Z" stroke-width="0" fill="#FFD969"/><path d="M990.44 783.65C951.61 827.15 907.22 843.22 874.38 819.41 895.11 800.81 940.53 766.4 981.07 779.33 984.75 780.51 987.85 781.96 990.44 783.65Z" stroke-width="0" fill="#FFBC00"/><path d="M925.15 654.42C911.47 679.46 900.6 705.82 892.67 733.24 891.81 736.19 896.41 737.45 897.27 734.51 905.09 707.48 915.78 681.52 929.27 656.83 930.74 654.14 926.63 651.73 925.15 654.42L925.15 654.42Z" stroke-width="0" fill="#FFBC00"/><path d="M912.41 680.1C904.21 686.91 896.9 694.7 888.7 701.52 886.34 703.48 889.73 706.84 892.07 704.89 900.27 698.08 907.59 690.29 915.78 683.47 918.14 681.51 914.75 678.15 912.41 680.1L912.41 680.1Z" stroke-width="0" fill="#FFBC00"/></g><g><path d="M176.55 639.76C176.55 639.76 163.01 635.48 187.72 602.13 212.43 568.78 266.6 518.45 266.6 518.45 266.6 518.45 292.44 606.61 176.55 639.76Z" stroke-width="0" fill="#806D35"/><path d="M277.05 560.99 194.99 437.88 145.39 460.67 216.76 616 277.05 560.99Z" stroke-width="0" fill="#FFCBA8"/><g><path d="M197.09 439.26C195.17 427.5 189.95 415.96 178.82 410.24 174.92 408.24 170.56 407.36 166.26 406.51 161.63 405.59 156.38 404.79 152.56 407.56 150.77 408.86 149.55 410.79 147.97 412.35 143.58 416.68 133.01 415.73 127.34 415.42 117.88 414.91 108.43 413.73 99 412.8 89.06 411.83 79.1 410.82 69.12 410.41 63.83 410.19 56.28 409.11 51.34 411.61 40.98 416.85 51.8 422.33 51.8 422.33 51.8 422.33 35.96 419.8 31.78 426.48 27.6 433.16 37.07 437.74 37.07 437.74 37.07 437.74 26.38 436.41 26.31 444.06 26.24 451.7 85 469.59 83.38 473.93 81.75 478.27 53.71 457.55 47.06 464.84 40.41 472.12 61.2 479.35 76.76 487.12 92.31 494.89 111.24 498.14 128.49 493.93 145.74 489.72 176.89 491.71 185.54 473.1 194.2 454.5 197.11 439.26 197.11 439.26Z" stroke-width="0" fill="#FFCBA8"/><path d="M36.75 435.71C55.53 438.85 74.13 442.62 92.48 447.01 94.65 447.53 92.94 450.97 90.79 450.45 72.73 446.13 54.41 442.43 35.93 439.34 33.73 438.97 34.53 435.34 36.75 435.71L36.75 435.71Z" stroke-width="0" fill="#7C2133"/><path d="M52.75 421.75C67.39 422.77 81.48 425.45 95.01 429.79 97.12 430.47 95.42 433.91 93.32 433.23 80.07 428.98 66.27 426.37 51.93 425.37 49.65 425.21 50.47 421.59 52.75 421.74L52.75 421.74Z" stroke-width="0" fill="#7C2133"/><path d="M87.82 464.36C88.68 449.23 92.94 434.32 100.58 420.13 101.75 417.95 104.96 419.11 103.79 421.3 96.47 434.88 92.27 449.18 91.44 463.69 91.31 466 87.68 466.7 87.82 464.36L87.82 464.36Z" stroke-width="0" fill="#7C2133"/><path d="M112.73 439.93C134.82 432 156.27 437.56 168.48 454.47 169.74 456.22 166.67 458.6 165.4 456.85 154.13 441.23 134.22 435.86 113.76 443.21 111.5 444.02 110.44 440.75 112.73 439.93L112.73 439.93Z" stroke-width="0" fill="#7C2133"/></g><path d="M176.55 639.77C176.55 639.77 223.59 678.4 276.25 765.26 286.14 781.57 296.79 796.06 307.87 808.46 349.49 855.08 397.06 872.31 432.26 846.79 437.55 842.95 442.58 838.15 447.24 832.32 461.18 814.95 477.13 783.25 492.43 748.04 525.4 672.09 555.31 579.82 555.31 579.82L512.86 479.63 481.66 405.99 469.64 435.95 431.49 531.05 375.15 671.48 266.59 518.45C266.49 518.87 266.4 519.29 266.3 519.74 260.98 545.46 250.17 569.39 234.88 589.92 219.6 610.46 199.82 627.61 176.53 639.76Z" stroke-width="0" fill="#FFD969"/><path d="M307.87 808.46C349.49 855.08 397.06 872.31 432.26 846.79 410.05 826.85 361.36 789.98 317.91 803.83 313.96 805.09 310.64 806.65 307.87 808.46Z" stroke-width="0" fill="#FFBC00"/><path d="M377.84 669.95C392.5 696.79 404.15 725.04 412.65 754.43 413.57 757.59 408.64 758.95 407.72 755.79 399.34 726.82 387.88 699 373.42 672.53 371.84 669.64 376.25 667.06 377.83 669.95L377.83 669.95Z" stroke-width="0" fill="#FFBC00"/><path d="M391.5 697.48C400.29 704.78 408.13 713.13 416.91 720.43 419.44 722.53 415.81 726.13 413.3 724.04 404.52 716.74 396.67 708.39 387.89 701.09 385.36 698.99 388.99 695.39 391.5 697.48L391.5 697.48Z" stroke-width="0" fill="#FFBC00"/></g><g><path d="M249.79 2419.54 254.2 2596.51 315.75 2597.58 355.67 2419.54 249.79 2419.54Z" stroke-width="0" fill="#BE3B2D"/><path d="M358.33 2423.23C358.33 2423.23 365.16 2439.62 360.93 2458.22 355.44 2482.33 341.2 2490.95 341.2 2490.95L251.99 2485.44C251.99 2485.44 222.1 2457.91 245.69 2414.67L358.33 2423.24Z" stroke-width="0" fill="#5E68C0"/><path d="M253.82 2592.74C253.82 2592.74 227.58 2617.59 210.55 2626 193.52 2634.4 155.47 2635.74 147.8 2638.05 140.13 2640.36 114.03 2633.39 104.95 2646.79 94.35 2662.43 106.09 2667.89 106.09 2667.89 106.09 2667.89 222.08 2672.29 249.79 2673.42 283.68 2674.81 298.27 2674.13 311.89 2667.89 325.52 2661.65 318.52 2596.69 318.52 2596.69L253.83 2592.73Z" stroke-width="0" fill="#BE3B2D"/><path d="M317.53 2659.1C317.53 2659.1 337.76 2692.76 317.53 2693.78 313.18 2694 100.83 2693.78 100.83 2693.78 100.83 2693.78 86.94 2681.48 100.83 2662.71L317.53 2659.1Z" stroke-width="0" fill="#FF8B00"/><path d="M147.8 2638.05C147.8 2638.05 181.77 2641.92 204.12 2667.89L225.57 2667.89C225.57 2667.89 213 2638.88 188.89 2632.02 188.89 2632.02 160.31 2627.69 147.8 2638.05Z" stroke-width="0" fill="#FF8B00"/></g><g><path d="M649.64 2419.54 648.22 2605.53 709.69 2608.6 756.08 2429.31 649.64 2419.54Z" stroke-width="0" fill="#BE3B2D"/><path d="M755.41 2431.88C755.41 2431.88 762.24 2448.27 758.01 2466.87 752.52 2490.98 738.28 2499.6 738.28 2499.6L649.07 2494.09C649.07 2494.09 619.18 2466.57 642.77 2423.32L755.41 2431.89Z" stroke-width="0" fill="#5E68C0"/><path d="M712.02 2599.61C712.02 2599.61 718.1 2634.85 724.91 2639.11 731.72 2643.37 747.9 2639.08 752.16 2671.03L611.65 2671.03C611.65 2671.03 622 2646.77 628.75 2640.81 635.5 2634.85 644.01 2632.61 644.01 2632.61L648.27 2599.61 712.02 2599.61Z" stroke-width="0" fill="#BE3B2D"/><path d="M697.34 2636.27C700.11 2642.01 709.06 2662.14 706.17 2676.58L687.44 2676.58C687.44 2676.58 683.59 2643.6 675.17 2636.27L697.35 2636.27Z" stroke-width="0" fill="#FF8B00"/><path d="M734.94 2642.49C734.94 2642.49 724.91 2622.44 708.73 2620.55 692.55 2618.67 636.48 2605.89 628.75 2640.81 628.75 2640.81 681.84 2645.03 734.94 2642.49Z" stroke-width="0" fill="#FF8B00"/><path d="M752.16 2671.03C752.16 2671.03 764.93 2676.52 763.23 2693.58L603.98 2693.58C603.98 2693.58 595.46 2685.06 611.64 2671.03L752.15 2671.03Z" stroke-width="0" fill="#FF8B00"/></g><g><path d="M515.73 755.26 516.87 761.78 520.78 784.07 528.25 826.78C671.44 881.92 790.95 809.23 790.95 809.23 788.07 802.89 786.36 793.74 785.41 784.06 784.01 770.14 784.13 755.12 784.43 745.87 784.59 740.36 784.82 736.87 784.82 736.87L515.73 755.24Z" stroke-width="0" fill="#FFCBA8"/><path d="M809.35 847.44C809.35 847.44 881.59 922.32 885 1036.85 889.63 1192.4 847.49 1785.81 840.22 1899.27 833.22 2008.68 813.21 2264.48 803.95 2381.73 801.29 2415.48 772.18 2440.93 738.38 2439.09L643.47 2433.91C609.17 2432.04 582.84 2402.79 584.58 2368.49 597.5 2113.89 645.49 1158.96 642.63 1080.17 639.32 989.19 645.94 878.35 645.94 878.35L809.34 847.43Z" stroke-width="0" fill="#FF5086"/><path d="M769.69 1688.02C734.69 1702.33 695.31 1700.99 661.23 1684.72 658.26 1683.3 660.85 1678.9 663.81 1680.31 696.71 1696.01 734.64 1696.87 768.34 1683.09 771.38 1681.85 772.71 1686.79 769.7 1688.02L769.7 1688.02Z" stroke-width="0" fill="#5E68C0"/><path d="M370.43 1248.53C392.91 1162.35 395.78 1119.64 413.31 1056.14 428.14 1050.16 461.36 962.56 475.38 954.78 495.06 943.86 514.21 931.97 533.92 921.09 548.71 912.92 563.35 904.47 577.63 895.44 606.6 877.12 636.77 855.69 656.5 826.79 671.7 849.81 681.13 891.12 680.69 959.42L417.34 2393.98C413.35 2415.7 394.55 2431.55 372.47 2431.79 333.44 2432.21 272.68 2431.42 230.65 2424.08 206.09 2419.79 189.39 2396.78 192.92 2372.1 218.95 2190.12 335.24 1383.4 370.42 1248.54Z" stroke-width="0" fill="#FF5086"/><path d="M406.52 1674.87C374.3 1686.8 338.82 1682.9 309.8 1664.58 307.03 1662.83 309.59 1658.41 312.38 1660.17 340.34 1677.82 374.14 1681.43 405.16 1669.94 408.25 1668.8 409.58 1673.73 406.52 1674.87L406.52 1674.87Z" stroke-width="0" fill="#5E68C0"/><rect x="-138.14" y="1773.04" width="1288.49" height="5.11" stroke-width="0" fill="#5E68C0" transform="matrix(0.186524 -0.98245 0.98245 0.186524 -1332.72 1941.73)"/><path d="M834.96 895.7C834.96 895.7 808.05 853.25 790.95 796.32 790.95 796.32 688.71 844 522.25 816.82 522.25 816.82 463.74 912.64 413.31 1056.15 413.31 1056.15 797.98 964.68 834.96 895.7Z" stroke-width="0" fill="#FF5086"/><path d="M561.28 868.05C555.23 949.18 493.09 1016.05 419.17 1044.1 416.09 1045.27 414.76 1040.33 417.81 1039.17 489.46 1011.98 550.3 946.73 556.17 868.04 556.41 864.78 561.52 864.75 561.28 868.04L561.28 868.04Z" stroke-width="0" fill="#BF3C65"/><path d="M732.22 866.62C733.26 905.24 749.45 942.81 777.63 969.43 805.81 996.05 844.29 1009.98 882.89 1008.82 886.18 1008.72 886.18 1013.83 882.89 1013.93 842.93 1015.13 803.18 1000.55 774.01 973.04 744.86 945.54 728.18 906.52 727.11 866.62 727.02 863.33 732.13 863.33 732.22 866.62L732.22 866.62Z" stroke-width="0" fill="#BF3C65"/><g><path d="M662.6 982.56C657.52 1044.43 650.85 1106.15 645.77 1168.02 645.5 1171.27 640.39 1171.3 640.66 1168.02 645.74 1106.15 652.41 1044.43 657.49 982.56 657.76 979.31 662.87 979.28 662.6 982.56L662.6 982.56Z" stroke-width="0" fill="#BF3C65"/><path d="M637.9 987.36C635 1004.92 632.95 1022.59 631.9 1040.36 631.44 1048.11 630.83 1056.01 631.13 1063.78 631.48 1072.67 636.49 1089.37 649.14 1083.21 652.08 1081.78 654.68 1086.18 651.72 1087.62 634.81 1095.85 626.17 1075.97 626.01 1062.42 625.71 1036.93 628.82 1011.11 632.97 986 633.51 982.76 638.43 984.14 637.9 987.36L637.9 987.36Z" stroke-width="0" fill="#BF3C65"/></g><path d="M799.93 844.41C784.25 860.1 758.09 862.32 737.4 866.09 710.94 870.9 684.25 874.65 657.39 876.27 605.97 879.37 553 874.7 505.24 854.3 502.22 853.01 504.82 848.61 507.82 849.89 553.69 869.48 604.74 874.01 654.12 871.35 680 869.96 705.73 866.53 731.25 862.03 752.01 858.36 780.59 856.55 796.33 840.81 798.66 838.48 802.27 842.09 799.94 844.42L799.94 844.42Z" stroke-width="0" fill="#BF3C65"/></g><path d="M862.36 476.47C860.55 510.43 843.47 552.27 829.08 584.28 822.56 598.76 817.29 617.39 813.05 637.14 800.56 695.59 797.09 763.86 797.09 763.86 672.9 769.26 533.78 783.74 496.53 770.6 496.53 770.6 494.87 761.42 492.44 748.05 488.48 726.27 482.45 693.31 478.01 670.24 471.64 637.13 464.73 580.6 463.29 523.15 463.11 515.98 463 508.78 463 501.61 463 478.38 465.29 455.93 469.67 435.96 477.43 400.49 491.86 372.7 512.01 361.7 522.38 356.02 546.12 354.94 573.31 355.99 602.81 357.13 636.38 360.84 661.35 364.04 683.35 366.88 698.68 369.33 698.68 369.33 698.68 369.33 701.72 370.71 707.1 373.03 709.66 374.15 712.76 375.48 716.29 376.99 740.94 387.51 787.41 406.58 829.08 419.48 842.05 423.5 850.64 430.79 855.85 440.32 861.32 450.31 863.09 462.75 862.35 476.47Z" stroke-width="0" fill="#FFD969"/><g><g><path d="M694.96 328.11C694.96 328.11 706.32 289.41 758.26 260.51 810.2 231.61 816.83 143.28 761.39 99.85 747.16 88.71 732.57 85.94 725.23 78.4 678.05 29.97 614.38 62.31 584.09 87.3 548.31 116.81 568.91 150.35 573.31 181.08 577.72 211.81 694.95 328.11 694.95 328.11Z" stroke-width="0" fill="#211A40"/><path d="M741.9 98.05 771.45 130.01C854.77 88.54 925.14 200.93 925.14 200.93 944.08 191.24 958.1 179.63 968.47 167.62L955.58 147.5 973.97 160.78C983.48 148.08 989.23 135.28 992.68 124.17L964.72 97.55 995.46 113.64C998.35 100.22 997.87 91.14 997.87 91.14 875.12-34.75 741.9 98.04 741.9 98.04Z" stroke-width="0" fill="#211A40"/><path d="M751.11 91.57C766.58 95.89 778.84 107.27 784.15 122.45 785.07 125.08 789.28 123.95 788.35 121.29 782.53 104.66 769.26 92.11 752.27 87.37 749.57 86.62 748.41 90.81 751.11 91.57L751.11 91.57Z" stroke-width="0" fill="#1E0E22"/><g><path d="M710.12 249.11 709.38 263.58 708.84 274.44 708.3 285.23 702.94 389.77C680.16 413.63 579.57 428.96 589.69 370.54L601.89 338.44 613.01 309.15 615.22 303.39 624.53 278.86 710.11 249.11Z" stroke-width="0" fill="#FFCBA8"/><path d="M714.06 376.17C714.06 376.17 674.63 454.92 604.32 441.32 559.27 432.6 589.71 370.53 589.71 370.53 589.71 370.53 625.99 365.46 659.12 363.21 681.12 366.05 696.45 368.5 696.45 368.5 696.45 368.5 699.49 369.88 704.87 372.2 707.43 373.32 710.53 374.65 714.06 376.16Z" stroke-width="0" fill="#FFCBA8"/><path d="M685.42 287.51C640.86 344.07 604.97 360.29 594.88 356.91L615.24 303.39 685.42 287.51Z" stroke-width="0" fill="#BF987E"/></g><path d="M737.87 236.04C731.44 248.84 726.01 256.81 718.77 264.65 715.82 267.87 712.54 271.02 708.85 274.43 706.97 276.17 705.03 277.98 702.89 279.99 700.14 282.47 697.13 285.15 693.84 288.17 673.13 307.07 642.44 312.9 627.56 311.36 622.4 310.82 617.51 310.09 613.02 309.15 570 300.37 554.79 272.9 572.74 208.76 585.14 164.73 577.36 137.46 591.91 122.24L591.98 122.24C592.85 121.64 593.79 120.97 594.66 120.36 616.64 105.62 643.65 100.39 669.65 104.95 799.12 127.53 755.16 201.58 737.87 236.03Z" stroke-width="0" fill="#FFCBA8"/><path d="M718.77 264.66C715.82 267.88 712.54 271.03 708.85 274.44L708.31 285.23C706.17 283.76 704.36 281.95 702.88 280 697.45 272.9 696.11 263.98 696.11 263.98 697.18 262.77 703.08 262.97 709.38 263.58 712.6 263.85 715.95 264.25 718.76 264.65Z" stroke-width="0" fill="#1E0E22"/><path d="M608.58 226.14C608.58 226.14 608.56 226.14 608.54 226.13 605.45 225.21 599.88 221.84 600.99 215.65 602.03 209.81 607.54 208.24 611.13 208.17L615.37 201.05C615.89 200.18 617 199.9 617.87 200.42 618.73 200.93 619.02 202.05 618.5 202.92L613.71 210.96C613.35 211.56 612.69 211.9 612 211.84 611.74 211.82 605.45 211.41 604.58 216.29 603.77 220.82 609.35 222.57 609.58 222.64 610.54 222.93 611.09 223.95 610.8 224.91 610.52 225.86 609.53 226.4 608.58 226.15Z" stroke-width="0" fill="#1E0E22"/><path d="M604.69 100.22C604.69 100.22 565.98 120.82 577.72 131.33 589.46 141.84 653.23 89.6 690.93 166.53 700.32 185.69 686.23 204.06 717.41 216.87 748.6 229.68 755.59 227.11 766.43 199.88 777.27 172.65 753.76 105.37 686.89 93.45 620.03 81.53 604.67 100.23 604.67 100.23Z" stroke-width="0" fill="#211A40"/><path d="M642.26 117.32C642.26 117.32 638.01 183.43 706.37 196.39 774.73 209.35 735.26 105.61 642.26 117.32Z" stroke-width="0" fill="#211A40"/><path d="M643.85 123.13C653.15 99.8 680.71 96.63 702.52 95.93 705.07 95.85 705.08 91.88 702.52 91.96 678.59 92.73 650.08 96.85 640.02 122.07 639.07 124.44 642.91 125.47 643.85 123.13L643.85 123.13Z" stroke-width="0" fill="#1E0E22"/><path d="M740.98 152.29C733.15 152 718.03 154.54 710.81 159.38 706.41 178.65 683.95 227.79 704.95 236.42 736.13 249.23 732.08 272.14 756.98 219.75 766.43 199.88 769.59 171.55 762.28 153.88 755.24 153.11 748.17 152.56 740.98 152.29Z" stroke-width="0" fill="#211A40"/><path d="M648.07 201.02C643.64 199.36 638.73 200.91 635.84 204.58 633.66 207.34 629.45 203.85 631.63 201.09 636.08 195.45 643.64 193.53 650.31 196.04 653.61 197.28 651.34 202.26 648.06 201.03L648.06 201.03Z" stroke-width="0" fill="#1E0E22"/><path d="M602.05 201.89C599.84 197.36 595.91 195.03 590.89 195.11 587.39 195.17 586.86 189.73 590.38 189.67 598.05 189.53 603.83 193.14 607.18 200.02 608.72 203.18 603.58 205.03 602.04 201.89L602.04 201.89Z" stroke-width="0" fill="#1E0E22"/><path d="M599.49 272.52C604.39 275.4 609.99 276.6 615.08 273.52 617.66 271.96 615.11 268.03 612.54 269.6 608.9 271.8 605.04 270.36 601.65 268.38 599.05 266.85 596.9 271.01 599.49 272.53L599.49 272.53Z" stroke-width="0" fill="#7C2133"/><path d="M670.36 230.67C669.54 234.49 662.93 236.32 655.59 234.76 648.25 233.19 642.96 228.82 643.78 225 644.6 221.18 651.21 219.35 658.55 220.91 665.89 222.48 671.18 226.85 670.36 230.67Z" stroke-width="0" fill="#BF987E"/><path d="M593.49 218.35C592.67 222.19 586.06 224.01 578.73 222.44 575.27 221.7 572.27 220.34 570.16 218.72 570.94 215.5 571.8 212.18 572.76 208.77 572.79 208.63 572.84 208.49 572.87 208.36 575.38 207.87 578.47 207.91 581.69 208.6 589.02 210.17 594.31 214.53 593.49 218.35Z" stroke-width="0" fill="#BF987E"/><path d="M646.04 181.82C651.66 180.94 658.38 183.31 659.4 189.61 660.35 195.49 669.7 195.02 668.74 189.06 666.95 177.96 656.65 170.73 645.49 172.47 639.6 173.39 640.07 182.74 646.04 181.81L646.04 181.81Z" stroke-width="0" fill="#1E0E22"/><path d="M590.37 182.81C594.81 179.22 600.56 173.89 606.6 176.82 612.02 179.44 616.34 171.14 610.92 168.52 601.3 163.86 592.78 168.9 585.28 174.96 580.64 178.71 585.68 186.6 590.37 182.81L590.37 182.81Z" stroke-width="0" fill="#1E0E22"/><path d="M589.12 235.01C589.12 235.01 605.9 241.78 638.61 240.26 638.61 240.26 629.94 268.52 606.58 263.39 586.77 259.04 589.11 235 589.11 235Z" stroke-width="0" fill="#FFFFFF"/></g><g><path d="M683.29 245.61C682.13 235.68 686.01 225.85 693.11 218.8 702.3 209.67 718.6 196.07 730.55 200.38 748.11 206.71 746.86 223.25 741.63 239.26 736.39 255.27 721.09 274.46 699.24 266.23 688.31 262.11 684.25 253.75 683.3 245.62Z" stroke-width="0" fill="#FFCBA8"/><path d="M704.92 254.25 683.58 282.5C682.44 284 683.37 286.17 685.24 286.38L717.39 290.06C719.16 290.26 720.54 288.55 719.97 286.86L709.16 254.93C708.53 253.08 706.09 252.68 704.91 254.24Z" stroke-width="0" fill="#FFFFFF"/><path d="M707.8 247.55C708.18 240.66 709.06 233.53 712.78 227.54 716.1 222.18 724.12 215.02 731.07 218.83 733.4 220.11 735.79 216.7 733.44 215.41 726.75 211.74 719.17 214.67 713.88 219.63 706.25 226.79 704.2 237.25 703.65 247.27 703.5 249.94 707.66 250.24 707.8 247.56L707.8 247.56Z" stroke-width="0" fill="#1E0E22"/></g><path d="M661.06 163.94C661.06 163.94 663.97 177.3 677.3 201.63 689.83 224.5 683.13 239.98 672.02 258.52 660.91 277.06 691.76 298.13 691.76 298.13 691.76 298.13 680.6 267.8 695.34 243.5 710.08 219.2 711.71 182.67 697.46 175.75 683.22 168.83 661.05 163.94 661.05 163.94Z" stroke-width="0" fill="#211A40"/><path d="M707.97 206.09C721.37 192.36 741.48 187.69 759.58 193.99 762 194.83 763.03 191 760.63 190.16 741.25 183.41 719.48 188.6 705.16 203.28 703.37 205.11 706.18 207.92 707.96 206.09L707.96 206.09Z" stroke-width="0" fill="#1E0E22"/></g><path d="M493.72 752.55C543.37 757.31 592.52 755.45 642.19 752.43 693.33 749.32 744.54 747.64 795.66 744.27 798.94 744.05 798.93 749.16 795.66 749.38 744.54 752.75 693.33 754.43 642.19 757.54 592.51 760.56 543.37 762.43 493.72 757.67 490.48 757.36 490.44 752.25 493.72 752.56L493.72 752.56Z" stroke-width="0" fill="#FFBC00"/><path d="M800.4 578.29C785.75 633.48 779.11 690.37 780.65 747.46 780.74 750.75 775.63 750.75 775.54 747.46 773.99 689.94 780.71 632.55 795.48 576.93 796.32 573.76 801.25 575.1 800.41 578.29L800.41 578.29Z" stroke-width="0" fill="#FFBC00"/><path d="M456.93 528.73C457.91 527.07 458.9 525.41 459.89 523.74 462.31 522.9 464.81 522.29 467.31 521.66 452.73 546.84 436.73 571.74 437.32 601.59 437.94 633.09 455.21 656.1 474.35 679.4 481.91 688.6 488.96 697.46 492.46 709.03 496.15 721.26 496.12 734.18 495.51 746.81 495.35 750.08 490.24 750.1 490.4 746.81 491.04 733.32 491.12 719.38 486.26 706.56 481.04 692.81 469.63 681.95 460.6 670.64 444.37 650.31 432.74 628.13 432.21 601.58 431.68 574.67 443.53 551.27 456.93 528.71Z" stroke-width="0" fill="#FFBC00"/></g></g><path d="M144.53 433.61C149.2 435.78 153.79 438.15 158.85 437.98 163.63 437.82 168.26 435.19 170.83 431.16 179.67 417.34 168.84 405.01 154.45 405.2 147.24 405.3 140.15 406.94 133.13 408.58 123.64 410.79 114.15 413 104.66 415.21 103.36 415.51 101.91 415.92 101.25 417.08 100.83 417.83 100.83 418.75 100.97 419.6 102.94 431.99 117.31 430.29 126.22 430.05 129.61 429.96 133.04 429.87 136.36 430.59 139.18 431.2 141.87 432.37 144.54 433.61Z" stroke-width="0" fill="#FFCBA8"/></svg>