<svg viewBox="0 0 1032.14 1115.36" xmlns="http://www.w3.org/2000/svg" xmlns:xlink="http://www.w3.org/1999/xlink" id="Layer_1" overflow="hidden"><defs></defs><g><path d="M994.38 1048.38 33.23 1048.38C14.88 1048.38 0 1063.37 0 1081.87 0 1100.37 14.88 1115.36 33.23 1115.36L994.38 1115.36C1012.73 1115.36 1027.61 1100.37 1027.61 1081.87 1027.61 1063.37 1012.73 1048.38 994.38 1048.38Z" stroke-width="0" fill="#0C312C"/><g><path d="M135.72 736C89.26 736 51.61 773.66 51.61 820.11L51.61 820.11C51.61 866.57 89.27 904.22 135.72 904.22L922 904.22 922 735.99 135.72 735.99Z" stroke-width="0" fill="#8382A8"/><path d="M135.72 736C89.26 736 51.61 773.66 51.61 820.11L51.61 820.11C51.61 866.57 89.27 904.22 135.72 904.22L922 904.22 922 735.99 135.72 735.99Z" stroke-width="0" fill="#2FC3B0"/><path d="M736.1 736C689.64 736 651.99 773.66 651.99 820.11L651.99 820.11C651.99 866.57 689.65 904.22 736.1 904.22L922 904.22 922 735.99 736.1 735.99Z" stroke-width="0" fill="#239284"/><path d="M922.01 746.65 741.5 746.65C702.05 746.65 670.07 778.63 670.07 818.08L670.07 818.08C670.07 857.53 702.05 889.51 741.5 889.51L922.01 889.51 922.01 746.65Z" stroke-width="0" fill="#FFFFFF"/><g><path d="M838.32 861.95C794.83 862.01 751.34 862.23 707.85 862.78 700.62 862.87 693.39 863.04 686.16 863.24 687.19 864.5 688.27 865.72 689.39 866.91 692.53 866.98 695.67 867.07 698.81 867.11 720.77 867.39 742.73 867.73 764.69 867.83 808.18 868.04 851.67 868.04 895.15 868.14 904.1 868.16 913.05 868.18 922 868.21L922 861.79C916.06 861.81 910.13 861.82 904.19 861.84 882.23 861.89 860.27 861.93 838.31 861.95Z" stroke-width="0" fill="#D5F2F9"/><path d="M698.82 770.45C720.78 770.73 742.74 771.07 764.7 771.17 808.19 771.38 851.68 771.38 895.16 771.48 904.11 771.5 913.06 771.52 922.01 771.55L922.01 765.13C916.07 765.15 910.14 765.16 904.2 765.18 882.24 765.23 860.28 765.27 838.32 765.3 794.83 765.36 751.34 765.58 707.85 766.13 702.63 766.2 697.4 766.31 692.18 766.44 690.9 767.67 689.65 768.93 688.46 770.24 691.91 770.32 695.35 770.41 698.8 770.46Z" stroke-width="0" fill="#D5F2F9"/><path d="M838.32 806.22C794.83 806.28 751.34 806.5 707.85 807.05 695.49 807.21 683.14 807.57 670.79 807.96 670.66 808.85 670.54 809.75 670.45 810.65 679.9 810.97 689.35 811.26 698.81 811.38 720.77 811.66 742.73 812 764.69 812.1 808.18 812.31 851.67 812.31 895.15 812.41 904.1 812.43 913.05 812.45 922 812.48L922 806.06C916.06 806.08 910.13 806.09 904.19 806.11 882.23 806.16 860.27 806.2 838.31 806.23Z" stroke-width="0" fill="#D5F2F9"/><path d="M838.32 827.12C794.83 827.18 751.34 827.4 707.85 827.95 695.52 828.11 683.2 828.47 670.87 828.86 671.01 829.77 671.18 830.68 671.35 831.58 680.5 831.89 689.65 832.17 698.8 832.28 720.76 832.56 742.72 832.9 764.68 833 808.17 833.22 851.66 833.21 895.14 833.31 904.09 833.33 913.04 833.35 921.99 833.38L921.99 826.96C916.05 826.98 910.12 826.99 904.18 827.01 882.22 827.06 860.26 827.1 838.3 827.13Z" stroke-width="0" fill="#D5F2F9"/></g><path d="M127.29 774.2 183.19 774.2C186.37 774.2 188.95 776.78 188.95 779.96L188.95 851.33C188.95 854.51 186.37 857.09 183.19 857.09L127.29 857.09C121.85 857.09 117.44 852.68 117.44 847.24L117.44 784.05C117.44 778.61 121.85 774.2 127.29 774.2Z" stroke-width="0" fill="#239284"/><path d="M501.94 774.2 557.84 774.2C561.02 774.2 563.6 776.78 563.6 779.96L563.6 851.33C563.6 854.51 561.02 857.09 557.84 857.09L501.94 857.09C496.5 857.09 492.09 852.68 492.09 847.24L492.09 784.05C492.09 778.61 496.5 774.2 501.94 774.2Z" stroke-width="0" fill="#239284"/><path d="M451.46 799.32 223.09 799.32C219.87 799.32 219.86 804.33 223.09 804.33L451.46 804.33C454.68 804.33 454.69 799.32 451.46 799.32Z" stroke-width="0" fill="#239284"/><path d="M451.46 826.14 223.09 826.14C219.87 826.14 219.86 831.15 223.09 831.15L451.46 831.15C454.68 831.15 454.69 826.14 451.46 826.14Z" stroke-width="0" fill="#239284"/></g><g><path d="M935.19 904.92C988.74 904.92 1032.15 948.33 1032.15 1001.87L1032.15 1001.87C1032.15 1055.42 988.74 1098.83 935.19 1098.83L28.87 1098.83 28.87 904.92 935.19 904.92Z" stroke-width="0" fill="#8382A8"/><path d="M935.19 904.92C988.74 904.92 1032.15 948.33 1032.15 1001.87L1032.15 1001.87C1032.15 1055.42 988.74 1098.83 935.19 1098.83L28.87 1098.83 28.87 904.92 935.19 904.92Z" stroke-width="0" fill="#239284"/><path d="M877.71 904.92 806.76 904.92C850.89 904.92 886.66 948.33 886.66 1001.88L886.66 1001.88C886.66 1055.43 850.89 1098.83 806.76 1098.83L877.71 1098.83C921.84 1098.83 957.61 1055.42 957.61 1001.88L957.61 1001.88C957.61 948.33 921.84 904.92 877.71 904.92Z" stroke-width="0" fill="#2FC3B0"/><path d="M404.99 904.92 334.04 904.92C378.17 904.92 413.94 948.33 413.94 1001.88L413.94 1001.88C413.94 1055.43 378.17 1098.83 334.04 1098.83L404.99 1098.83C449.12 1098.83 484.89 1055.42 484.89 1001.88L484.89 1001.88C484.89 948.33 449.12 904.92 404.99 904.92Z" stroke-width="0" fill="#2FC3B0"/><path d="M243.15 904.92C296.7 904.92 340.11 948.33 340.11 1001.87L340.11 1001.87C340.11 1055.42 296.7 1098.83 243.15 1098.83L28.87 1098.83 28.87 904.92 243.15 904.92Z" stroke-width="0" fill="#2FC3B0"/><path d="M28.87 917.2 236.93 917.2C282.4 917.2 319.26 954.06 319.26 999.53L319.26 999.53C319.26 1045 282.4 1081.86 236.93 1081.86L28.87 1081.86 28.87 917.19Z" stroke-width="0" fill="#FFFFFF"/><g><path d="M125.33 1050.1C175.46 1050.17 225.58 1050.43 275.71 1051.06 284.05 1051.17 292.38 1051.36 300.71 1051.59 299.52 1053.05 298.27 1054.45 296.99 1055.82 293.37 1055.9 289.75 1056 286.13 1056.05 260.82 1056.37 235.51 1056.76 210.19 1056.89 160.06 1057.14 109.94 1057.13 59.81 1057.25 49.49 1057.28 39.18 1057.3 28.86 1057.33L28.86 1049.93C35.7 1049.95 42.54 1049.97 49.38 1049.98 74.69 1050.04 100 1050.08 125.32 1050.11Z" stroke-width="0" fill="#D5F2F9"/><path d="M286.13 944.63C260.82 944.95 235.51 945.34 210.19 945.47 160.06 945.72 109.94 945.71 59.81 945.83 49.49 945.85 39.18 945.88 28.86 945.91L28.86 938.51C35.7 938.53 42.54 938.55 49.38 938.56 74.69 938.62 100 938.66 125.32 938.69 175.45 938.76 225.57 939.02 275.7 939.65 281.72 939.73 287.74 939.86 293.76 940.01 295.24 941.42 296.68 942.88 298.05 944.39 294.08 944.48 290.1 944.59 286.13 944.64Z" stroke-width="0" fill="#D5F2F9"/><path d="M125.33 985.86C175.46 985.93 225.58 986.19 275.71 986.82 289.96 987 304.19 987.42 318.43 987.87 318.58 988.9 318.72 989.93 318.82 990.97 307.93 991.34 297.03 991.67 286.13 991.81 260.82 992.13 235.51 992.52 210.19 992.65 160.06 992.9 109.94 992.89 59.81 993.01 49.49 993.03 39.18 993.06 28.86 993.09L28.86 985.69C35.7 985.71 42.54 985.73 49.38 985.74 74.69 985.8 100 985.84 125.32 985.87Z" stroke-width="0" fill="#D5F2F9"/><path d="M125.33 1009.95C175.46 1010.02 225.58 1010.28 275.71 1010.91 289.92 1011.09 304.13 1011.51 318.33 1011.96 318.17 1013.01 317.98 1014.06 317.78 1015.1 307.23 1015.45 296.69 1015.77 286.13 1015.91 260.82 1016.23 235.51 1016.62 210.19 1016.74 160.06 1016.99 109.94 1016.98 59.81 1017.1 49.49 1017.12 39.18 1017.15 28.86 1017.18L28.86 1009.78C35.7 1009.8 42.54 1009.82 49.38 1009.83 74.69 1009.89 100 1009.93 125.32 1009.96Z" stroke-width="0" fill="#D5F2F9"/></g></g></g><g><path d="M639.69 942.96C633.18 951.5 631.56 978.41 638.59 989.22 645.61 1000.03 704.72 1015.52 729.16 1011.81 753.6 1008.09 757.28 989.13 742.72 972.04 728.16 954.96 689.19 945.12 689.19 945.12L639.69 942.96Z" stroke-width="0" fill="#222859"/><path d="M635.16 909.15 640.09 949.85C640.09 949.85 664.1 962.51 689.68 948.99L696.05 895.48 635.16 909.15Z" stroke-width="0" fill="#C18F71"/><path d="M446.38 630.67C442.35 677.74 474.09 710.77 518.44 715.17 562.79 719.57 588.05 725.68 596.7 734.66 605.35 743.64 619.72 903.72 620.43 922.05 620.43 922.05 697.82 921.53 717.19 917.16 717.19 917.16 719.08 718.12 697.14 663.75 675.2 609.39 623.94 590.79 623.94 590.79L474.28 564.89 446.36 630.66Z" stroke-width="0" fill="#591A03"/><path d="M640.09 949.85C639.03 963.9 660.42 979.01 688.37 980.7 716.32 982.39 719.26 973.32 717.66 966.16 716.05 959 689.68 948.99 689.68 948.99L640.09 949.85Z" stroke-width="0" fill="#C18F71"/><path d="M500.56 962.63C492.34 969.54 484.87 995.44 489.35 1007.53 493.83 1019.62 548.12 1047.68 572.78 1049.4 597.44 1051.13 605.18 1033.43 594.72 1013.57 584.26 993.71 548.39 975.58 548.39 975.58L500.56 962.63Z" stroke-width="0" fill="#222859"/><path d="M503.54 928.65 499.43 969.44C499.43 969.44 520.09 987.05 548 979.46L565.94 928.64 503.54 928.64Z" stroke-width="0" fill="#C18F71"/><path d="M365.37 611.52C351.13 656.56 369.26 720.54 411.56 734.55 453.87 748.56 496.17 739.56 502.65 750.22 509.13 760.88 489.68 919.96 486.35 938.01 486.35 938.01 561.97 954.45 581.84 954.43 581.84 954.43 635.18 762.61 625.68 704.76 616.18 646.91 515.17 575.25 515.17 575.25L416.74 581.29 365.37 611.51Z" stroke-width="0" fill="#591A03"/><path d="M576.09 207.59C584.24 199.65 586.32 187.05 580.49 177.61 588.29 169.35 591.54 153.9 591.32 144.72 590.98 130.41 582.49 117.16 569.41 112.74 575.42 97.9 573.58 79.54 563.45 67 557.88 60.11 550.51 55.16 542.07 52.54 539.3 51.68 536.23 50.98 533.1 50.65 533.08 50.45 533.07 50.27 533.04 50.07 532.27 44.91 529.54 40.27 525.65 36.84 519.86 31.73 511.66 29.4 504.11 30.84 501.08 16.74 489.6 4.95 475.58 1.26 467.31-0.92 458.09-0.19 450.13 2.84 445.92 4.44 441.83 6.64 438.21 9.34 423.85 3.4 407.22 2.94 392.97 9.89 376.61 17.87 364.93 34.76 364.72 52.98 345.17 53.38 330.63 73.01 337.25 91.99 323.55 100.55 313.82 115.06 311.99 131.28 310.24 146.84 315.53 162.63 325.65 174.41 307.76 183.34 303.95 208.75 318.06 223.27 309.82 235.98 314.7 252.42 327.48 259.74 321.61 269.76 319.36 282.09 324.15 293.07 328.35 302.68 337.36 309.77 347.62 311.02 344.72 325 352.96 339.69 365.28 346.84 374.74 352.33 385.95 352.88 396.53 350.3 406.21 355.86 417.32 358.55 428.68 358.32 443.36 358.02 456.04 352.25 467.55 343.82 479.92 353.05 498.62 354.56 512.6 349.2 526.32 343.94 536.75 332.46 541.43 318.73 554.32 319.77 567.7 314.21 575.25 303.49 582.82 292.74 584.12 278.8 579.14 266.89 588.46 259.06 594.09 246.87 592.97 234.61 591.95 223.49 585.37 213.53 576.09 207.61Z" stroke-width="0" fill="#001A55"/><path d="M410.7 276.53C365.8 287.75 346.81 320.56 332.13 352.51 317.45 384.46 308.82 481.59 317.45 509.22 326.08 536.85 347.24 545.91 370.98 531.24L360.19 618.01C360.19 618.01 430.56 591.11 504.81 585.63 548.28 582.42 593.02 591.11 623.96 590.81L594.6 410.36 664.98 448.08C664.98 448.08 630.72 338.56 604.89 303.66 579.06 268.76 560.56 269.82 545.1 266.75 529.65 263.68 506.13 281.02 506.13 281.02L410.7 276.54Z" stroke-width="0" fill="#F36648"/><path d="M502.65 354.23 513.44 340.85 611.87 376.68 681.8 343.01 690.87 353.37 607.98 403.88 502.65 354.23Z" stroke-width="0" fill="#FFFFFF"/><path d="M497.9 347.76 611.87 390.93 695.62 346.03 647.27 507.05 571.72 534.68 459.91 492.81 497.9 347.76Z" stroke-width="0" fill="#FFC236"/><path d="M439.76 227.6C439.76 227.6 442.06 252.35 436.31 263.86 430.55 275.37 410.7 276.52 410.7 276.52 410.7 276.52 441.94 328.55 488.69 322.57 538.19 316.24 545.1 266.74 545.1 266.74 545.1 266.74 530.13 266.16 520.93 262.71 511.72 259.26 509.42 224.72 509.42 224.72L439.77 227.6Z" stroke-width="0" fill="#C18F71"/><path d="M359.32 455.25C359.32 455.25 467.68 436.26 478.47 431.51 489.26 426.76 512.57 401.72 518.62 397.41 524.66 393.09 527.69 397.41 526.82 402.59 525.96 407.77 516.89 420.72 516.89 420.72 516.89 420.72 527.68 412.95 533.29 406.91 538.9 400.87 543.22 393.96 546.24 392.66 549.26 391.36 557.03 393.52 556.17 398.27 556.17 398.27 568.69 394.38 567.83 406.04 567.83 406.04 573.44 410.36 569.13 418.56 569.13 418.56 569.99 424.17 566.97 430.65 563.95 437.13 550.13 447.49 538.05 456.12 525.96 464.75 511.28 466.05 508.26 468.21 505.24 470.37 384.36 519.58 371.84 522.6 371.84 522.6 333.42 493.68 359.32 455.26Z" stroke-width="0" fill="#C18F71"/><path d="M672.5 435.57C667.42 426.42 660.42 420.14 658.69 421.76 654.37 425.79 660.7 437.3 660.7 437.3 660.7 437.3 650.34 427.8 646.02 421.18 641.7 414.56 635.08 415.14 635.37 419.74 635.37 419.74 628.46 417.44 628.18 425.5 628.18 425.5 624.73 426.94 625.3 432.69 625.3 432.69 622.71 435.86 624.72 443.34 626.73 450.82 637.38 469.53 650.05 477.3 662.71 485.07 675.38 474.13 677.97 461.18 680.56 448.23 676.82 443.34 672.5 435.57Z" stroke-width="0" fill="#C18F71"/><path d="M499.44 969.44C495.33 982.92 512.89 1002.34 539.79 1010.11 566.69 1017.88 571.55 1009.68 571.55 1002.34 571.55 995 548.01 979.46 548.01 979.46L499.44 969.44Z" stroke-width="0" fill="#C18F71"/><path d="M509.61 227.17 508.41 224.76 439.76 227.6C439.76 227.6 442.06 252.35 436.31 263.86 435.2 266.08 433.56 267.91 431.64 269.42 436.08 271.33 440.82 272.65 445.55 273.43 470.05 277.46 496.15 269.08 514.05 251.95 511.32 243.3 510.06 232.03 509.61 227.16Z" stroke-width="0" fill="#A36856"/><path d="M533.54 121.64C545.55 151.29 557.77 241.04 490.45 255.73 418.69 271.39 395.51 207.3 395.51 207.3 395.51 207.3 375.88 211.81 369.8 194.24 363.73 176.66 384.89 174.39 384.89 174.39 384.89 174.39 405.54 159.31 403.62 136.25 403.62 136.25 436.28 137.32 443.49 113.64 443.49 113.64 474.15 118.05 481.14 101.77 481.14 101.77 496.38 116.41 509.64 108.32 509.64 108.32 525.08 127.08 533.54 121.63Z" stroke-width="0" fill="#C18F71"/><g><path d="M389.24 192.72C389.19 192.56 389.13 192.41 389.06 192.25 389.17 192.52 388.3 190.4 388.89 191.85 388.69 191.34 388.48 190.83 388.2 190.36 387.26 188.76 385.77 187.49 384.18 186.57 383.38 186.1 382.49 185.77 381.63 185.44 380.6 185.05 379.44 184.62 378.35 184.97 376.85 185.44 376.14 187.11 376.91 188.5 377.17 188.96 377.51 189.23 377.9 189.53 378.08 189.67 378.38 189.88 378.51 189.95 378.9 190.14 379.28 190.34 379.65 190.56 380.34 190.95 381 191.39 381.65 191.84 381.67 191.86 381.65 191.84 381.69 191.87 381.74 191.91 381.78 191.96 381.83 192 381.13 192.71 380.6 193.6 380.39 194.64 379.96 196.78 380.43 199.2 382.19 200.66 382.92 201.26 383.77 201.77 384.77 201.73 385.8 201.68 386.55 201.3 387.35 200.66 388.91 199.42 389.64 197.26 389.63 195.31 389.63 194.45 389.49 193.55 389.22 192.72Z" stroke-width="0" fill="#A36856"/><path d="M378.02 189.62C378.02 189.62 377.95 189.56 377.91 189.53 377.72 189.39 377.66 189.34 378.02 189.62Z" stroke-width="0" fill="#A36856"/></g><path d="M368.45 495.84C360.99 483.74 357.28 468.84 360.35 455.07 359.71 455.18 359.32 455.25 359.32 455.25 333.42 493.67 371.84 522.6 371.84 522.6 374.03 522.07 379.56 520.12 387.15 517.27 379.95 510.98 373.45 503.96 368.45 495.84Z" stroke-width="0" fill="#A36856"/><path d="M677.96 461.18C678.31 459.44 678.52 457.87 678.66 456.39 675.78 463.46 670.02 469.54 663.24 473.27 659.44 475.36 655.4 476.84 651.22 477.91 663.48 484.34 675.46 473.73 677.97 461.18Z" stroke-width="0" fill="#A36856"/><path d="M527.21 400.66C527.14 400.49 526.96 400.43 526.81 400.56 525.49 401.77 525.24 404 524.63 405.61 523.92 407.52 523.05 409.38 522.07 411.17 521.13 412.88 520.07 414.53 518.91 416.09 518.28 416.94 517.61 417.75 516.93 418.55 516.28 419.31 515.51 420.01 514.98 420.86 514.45 421.71 515.53 422.86 516.39 422.27 518.04 421.14 519.32 419.2 520.47 417.59 521.71 415.86 522.82 414.05 523.79 412.16 524.72 410.35 525.53 408.48 526.2 406.56 526.81 404.84 527.94 402.45 527.2 400.64Z" stroke-width="0" fill="#A36856"/><path d="M554.88 394.48C554.69 394.3 554.41 394.48 554.46 394.72 554.86 396.69 555.1 398.7 554.49 400.65 553.84 402.75 552.5 404.59 551.17 406.31 548.78 409.42 546.19 412.4 543.47 415.23 540.86 417.95 538.09 420.5 535.26 423 533.77 424.31 532.25 425.59 530.68 426.82 529.31 427.9 527.41 428.9 526.58 430.49 526.2 431.22 526.82 431.86 527.56 431.76 529.6 431.48 531.47 429.57 533.05 428.35 534.63 427.13 536.19 425.87 537.7 424.56 541.1 421.63 544.23 418.34 547.17 414.95 549.93 411.76 552.92 408.34 554.87 404.58 556.42 401.59 557.6 397.13 554.87 394.48Z" stroke-width="0" fill="#A36856"/><path d="M567.55 404.84C567.43 404.51 566.86 404.31 566.68 404.73 566.05 406.19 565.9 407.73 565.43 409.25 564.91 410.96 564.04 412.61 563.17 414.17 561.3 417.49 558.79 420.26 556.01 422.85 553.25 425.43 550.25 427.73 547.29 430.06 544.14 432.53 540.61 434.83 538.26 438.12 538.12 438.31 538.35 438.61 538.58 438.53 542.65 437.01 546.05 433.89 549.5 431.32 552.65 428.96 555.87 426.63 558.74 423.93 561.46 421.36 564 418.38 565.7 415.02 567.12 412.22 568.71 407.96 567.56 404.86Z" stroke-width="0" fill="#A36856"/><path d="M570.12 416.5C570.1 416.45 570.04 416.42 570 416.45 568.88 417.12 568.4 418.74 567.82 419.84 567.07 421.27 566.31 422.7 565.46 424.08 563.76 426.84 561.79 429.42 559.58 431.79 557.38 434.14 554.96 436.3 552.36 438.2 551.11 439.11 549.82 439.97 548.5 440.77 547.35 441.46 545.32 442.15 544.73 443.41 544.55 443.81 544.66 444.4 545.17 444.5 546.59 444.78 548.09 443.62 549.25 442.9 550.69 442.01 552.07 441.03 553.41 440 556.1 437.93 558.59 435.6 560.83 433.04 563.01 430.55 564.98 427.87 566.68 425.04 567.55 423.6 568.38 422.11 569.06 420.57 569.58 419.39 570.5 417.82 570.11 416.5Z" stroke-width="0" fill="#A36856"/><path d="M649.7 446.96C646.82 442.23 643.63 437.7 641.15 432.73 639.95 430.31 638.79 427.8 638.02 425.21 637.64 423.95 637.33 422.67 637.08 421.39 636.84 420.17 636.78 418.92 636.29 417.77 636.17 417.49 635.78 417.62 635.7 417.85 634.91 420.12 635.66 423.18 636.16 425.46 636.75 428.16 637.55 430.76 638.66 433.29 640.97 438.59 644.13 443.57 647.55 448.23 648.47 449.49 650.55 448.37 649.7 446.98Z" stroke-width="0" fill="#A36856"/><path d="M644.43 452.17C644.07 450.97 643.26 450.1 642.44 449.18 641.56 448.2 640.71 447.18 639.89 446.15 638.1 443.89 636.41 441.58 634.91 439.13 633.49 436.81 632.22 434.4 631.09 431.92 630.46 430.53 629.89 429.1 629.53 427.61 629.17 426.09 629.42 424.52 629.02 423.03 628.93 422.7 628.53 422.71 628.36 422.94 626.72 425.13 628.07 429.11 628.9 431.4 629.92 434.23 631.22 436.95 632.68 439.58 634.13 442.17 635.75 444.67 637.55 447.03 638.46 448.22 639.45 449.37 640.46 450.48 641.4 451.51 642.31 452.53 643.69 452.94 644.13 453.07 644.58 452.63 644.45 452.18Z" stroke-width="0" fill="#A36856"/><path d="M638.14 456.63C634.96 452.22 631.38 448.24 628.92 443.33 627.7 440.9 626.8 438.29 626.39 435.6 626.18 434.2 626.17 432.82 626.2 431.41 626.22 430.59 626.48 429.62 625.94 428.95 625.92 428.93 625.89 428.93 625.87 428.95 625.07 429.36 624.99 430.51 624.89 431.33 624.71 432.73 624.76 434.17 624.91 435.56 625.2 438.25 625.93 440.85 626.98 443.33 629.21 448.58 632.92 453.51 636.82 457.65 637.46 458.33 638.7 457.42 638.14 456.64Z" stroke-width="0" fill="#A36856"/><path d="M661.66 437.07C661.36 436.48 661.06 435.89 660.77 435.3 660.11 433.97 659.55 432.6 659.07 431.19 658.64 429.92 658.25 428.61 658.15 427.26 658.1 426.62 658.04 425.96 658.05 425.32 658.05 424.66 658.29 424.02 658.27 423.36 658.27 423.17 658.03 422.98 657.85 423.12 656.92 423.82 656.5 425.49 656.47 426.6 656.42 428.11 656.82 429.67 657.26 431.11 657.73 432.62 658.3 434.1 658.95 435.54 659.28 436.27 659.63 437 660.04 437.69 660.43 438.35 660.81 439.06 661.55 439.37 661.89 439.51 662.23 439.35 662.26 438.96 662.32 438.24 661.98 437.68 661.67 437.06Z" stroke-width="0" fill="#A36856"/><path d="M545.77 300.82C551.83 290.89 554.53 279.92 556.78 268.79 555.84 268.6 554.92 268.43 554 268.27 552.15 276.88 549.96 285.37 546.1 293.31 539.74 306.39 529.14 317.19 516.61 324.48 503.95 331.84 489.16 335.5 474.52 334.33 457.77 332.98 441.81 325.3 428.95 314.72 417.24 305.09 407.78 292.89 399.82 279.92 399.25 280.13 398.7 280.34 398.14 280.55 404.7 292.69 412.84 303.84 423.12 313.29 435.85 324.99 451.69 333.83 468.88 336.62 498.57 341.45 530.14 326.41 545.76 300.82Z" stroke-width="0" fill="#B64D36"/><path d="M399.93 361.17C399.57 361.21 399.25 361.26 398.9 361.39 398.53 361.53 398.19 361.68 397.87 361.9 397.27 362.31 396.69 362.78 396.17 363.29 396.05 363.4 395.96 363.54 395.85 363.66 395.91 363.28 395.99 362.89 396.06 362.51 396.36 360.66 396.98 358.69 396.82 356.82 396.8 356.55 396.48 356.46 396.33 356.69 395.34 358.13 394.94 359.96 394.37 361.6 393.7 363.51 393.07 365.42 392.51 367.37 391.39 371.24 390.44 375.17 389.54 379.1 387.72 387.11 386.18 395.19 384.79 403.29 383.45 411.11 382.25 418.96 381.29 426.83 380.8 430.84 380.36 434.85 379.97 438.87 379.57 442.9 378.75 447.32 379.15 451.36 379.29 452.8 381.4 453.3 381.81 451.72 382.76 448.03 382.74 443.94 383.12 440.16 383.53 436.14 383.98 432.13 384.48 428.12 385.49 419.97 386.64 411.83 388.01 403.73 389.35 395.76 390.92 387.85 392.59 379.94 393.42 375.99 394.29 372.04 395.07 368.08 395.23 368 395.39 367.92 395.47 367.76 395.73 367.17 396.05 366.61 396.39 366.05 396.55 365.77 396.73 365.5 396.92 365.24 396.97 365.17 397.02 365.1 397.08 365.03 397.11 365 397.11 364.99 397.11 364.98 397.11 364.97 397.12 364.97 397.15 364.94 397.25 364.81 397.35 364.69 397.46 364.57 397.88 364.08 398.35 363.63 398.84 363.22 399.34 362.81 399.79 362.36 400.23 361.88 400.44 361.65 400.32 361.15 399.94 361.19Z" stroke-width="0" fill="#B64D36"/><path d="M375.82 522.91C373.7 520.82 370.68 519.61 368.34 517.71 366.13 515.92 364.13 513.87 362.34 511.67 358.53 506.97 355.71 501.38 354.22 495.51 350.49 480.79 356.21 466.03 361.48 452.45 361.79 451.66 361.14 450.51 360.3 450.38 351.1 448.9 340.98 447.51 331.72 449.11 330.46 449.33 330.96 451 331.99 451.14 336.46 451.73 341.03 451.74 345.52 452.05 349.54 452.33 353.54 452.81 357.53 453.38 352.34 467.22 347.4 482.21 351.34 496.98 352.94 502.97 355.83 508.53 359.71 513.36 361.76 515.92 364.11 518.24 366.67 520.29 368.48 521.74 370.61 523.51 372.88 524.42 371.82 525.31 370.86 526.38 369.85 527.32 368.8 528.3 367.7 529.25 366.56 530.12 365.41 531.01 364.2 531.8 362.99 532.6 361.71 533.44 360.49 534.38 359.24 535.26 358.76 535.6 359.05 536.33 359.64 536.2 361.19 535.88 362.69 535.47 364.14 534.8 365.57 534.15 366.94 533.34 368.27 532.51 370.95 530.84 373.88 528.86 375.79 526.31 376.17 525.81 376.08 525.08 375.75 524.55 376.2 524.13 376.38 523.46 375.81 522.9Z" stroke-width="0" fill="#B64D36"/><path d="M621.59 576.28C611.55 574.32 601.51 572.33 591.41 570.68 571.44 567.42 551.27 565.64 531.02 565.98 490.92 566.66 451.27 574.17 412.84 585.33 401.93 588.5 391.1 591.94 380.34 595.58 374.96 597.4 369.62 599.31 364.29 601.26 363.59 601.51 362.88 601.77 362.17 602.03L361.76 605.35C362.21 605.2 362.65 605.05 363.1 604.9 367.82 603.39 372.5 601.75 377.2 600.16 386.75 596.94 396.35 593.87 406.02 591 425.29 585.28 444.81 580.3 464.57 576.56 504 569.09 544.23 566.82 583.98 573.11 595.49 574.93 606.93 577.2 618.37 579.47 619.66 579.73 620.96 580.01 622.26 580.28L621.61 576.27Z" stroke-width="0" fill="#B64D36"/><path d="M629.39 671.38C619.57 648.98 599.12 633.38 577.35 623.38 576.37 622.93 575.62 624.19 576.5 624.83 585.38 631.21 595.02 636.46 603.48 643.44 611.63 650.17 618.57 658.18 623.33 667.66 632.56 686.05 634.16 707.56 632.78 727.78 631.12 752.11 625.11 775.85 618.81 799.31 612.35 823.37 605.38 847.28 599.24 871.43 592.27 898.85 585.94 926.43 580.59 954.2 580.17 956.38 583.48 957.34 583.96 955.13 594.8 905.08 606.85 855.37 621.05 806.16 627.99 782.12 634.29 757.71 636.75 732.75 638.77 712.22 637.78 690.5 629.4 671.37Z" stroke-width="0" fill="#2D0D02"/><path d="M581.98 932.77C579.55 932.44 577.11 932.13 574.68 931.8 570.32 931.21 565.97 930.59 561.62 929.95 552.49 928.6 543.37 927.13 534.27 925.59 525.31 924.07 516.37 922.44 507.45 920.71 502.99 919.84 498.54 918.92 494.08 918.05 492.6 917.76 491 917.36 489.36 917 489.23 917.96 489.11 918.91 488.99 919.82 490.71 920.27 492.43 920.7 494.15 921.1 498.43 922.08 502.73 922.98 507.03 923.88 516.06 925.77 525.1 927.55 534.17 929.21 543.1 930.85 552.05 932.35 561.01 933.76 565.49 934.46 569.98 935.14 574.47 935.79 576.79 936.12 579.1 936.47 581.43 936.77 583.22 937.01 584.93 937.39 586.59 936.72 586.79 935.95 587 935.15 587.21 934.34 585.74 933.04 583.86 933.02 581.96 932.77Z" stroke-width="0" fill="#222859"/><path d="M717.23 898.14C714.98 898.24 712.74 898.34 710.49 898.43 702.32 898.76 694.15 899.09 685.97 899.41 669.32 900.08 652.69 901.04 636.05 901.87 630.45 902.15 624.72 902.28 619.06 902.78 619.14 903.7 619.21 904.59 619.28 905.47 623.84 905.47 628.41 905.25 632.93 905.15 641.1 904.97 649.27 904.68 657.45 904.44 674.1 903.95 690.73 903.37 707.37 902.71 710.66 902.58 713.95 902.48 717.24 902.36 717.24 901.03 717.24 899.63 717.23 898.14Z" stroke-width="0" fill="#222859"/><path d="M516.03 723.53C509.21 713.5 495.53 710.65 484.39 708.41 460.77 703.66 435.21 703.86 413.99 691.02 402.74 684.21 394.96 673.97 390.92 661.49 386.9 649.08 386.94 636.13 384.79 623.4 384.68 622.77 383.79 622.98 383.75 623.54 382.83 634.79 383.95 646.56 386.61 657.54 389.21 668.29 394.1 678.46 402.14 686.21 419.18 702.63 443.73 705.93 466.09 709.18 472.56 710.12 479.03 711.11 485.42 712.5 491.63 713.86 498.09 715.43 503.84 718.22 509.05 720.75 512.92 724.69 515.09 730.08 517.08 735.05 517.7 740.49 517.91 745.79 518.39 758.55 517.46 771.45 516.79 784.2 516.07 797.91 514.57 811.6 512.78 825.2 510.78 840.36 508.28 855.46 505.21 870.44 502.11 885.6 498.24 900.55 494.74 915.61 494.4 917.07 496.5 917.64 496.97 916.23 501.33 903.24 504.57 889.78 507.48 876.4 510.39 862.98 512.86 849.46 514.9 835.88 518.95 808.86 521.33 781.49 521.86 754.18 522.06 743.92 522.06 732.35 516.05 723.51Z" stroke-width="0" fill="#2D0D02"/><path d="M611.87 376.68 674.98 340.1 681.02 347.44 611.87 376.68Z" stroke-width="0" fill="#FFFFFF"/><path d="M611.87 376.68 519.13 338.59 513.52 345.28 611.87 376.68Z" stroke-width="0" fill="#FFFFFF"/><path d="M610.33 395.09C608.72 399.37 607.75 403.89 606.58 408.3 605.41 412.73 604.23 417.15 603.05 421.58 600.65 430.57 598.28 439.57 595.87 448.56 591.13 466.25 586.57 483.99 581.68 501.65 578.88 511.76 576.06 521.86 573.21 531.95 572.74 533.63 575.35 534.35 575.82 532.67 585.73 497.25 595.72 461.85 604.91 426.24 606.2 421.23 607.49 416.23 608.77 411.22 610.08 406.09 611.69 400.94 612.46 395.69 612.66 394.3 610.84 393.75 610.33 395.1Z" stroke-width="0" fill="#80611B"/><g><path d="M448.56 143.31C448.1 140.19 444.96 138.39 442.02 138.23 439.61 138.1 437.08 138.43 434.86 139.44 432.58 140.47 430.62 142.01 428.89 143.79 428.05 144.65 427.45 145.67 426.85 146.7 426.11 147.98 425.61 149.31 426.28 150.74 426.69 151.61 427.46 151.99 428.37 151.99 428.61 151.97 429.08 151.93 429.18 151.91 429.6 151.81 429.96 151.62 430.32 151.38 430.49 151.27 431.31 150.47 430.98 150.79 430.78 150.99 431.32 150.47 431.31 150.48 431.96 149.89 432.67 149.4 433.36 148.87 433.69 148.62 434.03 148.37 434.37 148.14 434.53 148.04 434.74 147.87 434.94 147.77 434.97 147.76 434.94 147.77 435.01 147.74 435.81 147.33 436.63 146.95 437.49 146.68 437.65 146.63 437.81 146.59 437.97 146.54 438.36 146.46 438.74 146.37 439.13 146.31 439.52 146.25 439.91 146.24 440.29 146.21 440.43 146.21 440.57 146.23 440.72 146.24 441.54 146.32 442.34 146.48 443.14 146.65 443.61 146.75 444.08 146.79 444.56 146.78 444.68 146.78 445.26 146.84 445.45 146.76L444.96 146.76C445.31 146.8 445.65 146.79 445.99 146.73 447.59 146.47 448.81 144.97 448.57 143.32Z" stroke-width="0" fill="#222859"/><path d="M428.5 152.01C428.5 152.01 428.42 152.01 428.37 152 428.18 152.02 428.12 152.03 428.5 152.01Z" stroke-width="0" fill="#222859"/></g><path d="M503.3 128.53C501.01 127.78 498.69 127.4 496.27 127.66 493.86 127.93 491.67 128.72 489.59 129.93 487.44 131.19 485.37 133.1 485.09 135.69 484.82 138.22 487.02 140.03 489.45 139.27 490.4 138.97 491.26 138.51 492.07 137.92 492.37 137.7 492.67 137.47 492.99 137.26 493.1 137.19 493.22 137.12 493.33 137.05 493.71 136.89 494.08 136.71 494.47 136.57 494.74 136.47 495.04 136.4 495.32 136.31 495.5 136.28 495.67 136.25 495.85 136.23 496.22 136.18 496.59 136.18 496.96 136.16 497.09 136.17 497.21 136.18 497.33 136.2 497.69 136.25 498.05 136.31 498.41 136.39 498.51 136.41 498.62 136.44 498.72 136.47 499.07 136.61 499.42 136.74 499.76 136.9 500.4 137.2 501.04 137.69 501.71 137.91 501.54 137.8 501.37 137.69 501.19 137.58 501.55 137.82 501.91 138.05 502.29 138.26 502.45 138.34 502.61 138.42 502.77 138.5 503.67 138.94 504.54 139.06 505.54 139.05 507.77 139.03 509.45 136.6 509.25 134.53 508.95 131.57 505.95 129.39 503.31 128.52Z" stroke-width="0" fill="#222859"/><path d="M452.68 173.52C451.55 169.38 449.19 165.84 446.03 165.1 441.46 164.03 438.28 168.12 437.56 172.15 436.98 175.41 437.29 179.27 438.24 182.43 439.55 186.81 443.45 190.39 448.28 188.73 453.33 187 454.33 179.61 452.68 173.52Z" stroke-width="0" fill="#222859"/><path d="M508.8 165.75C507.67 161.61 505.31 158.07 502.15 157.33 497.58 156.26 494.4 160.35 493.68 164.38 493.1 167.64 493.41 171.5 494.36 174.66 495.67 179.04 499.57 182.62 504.4 180.96 509.45 179.23 510.45 171.84 508.8 165.75Z" stroke-width="0" fill="#222859"/><path d="M484.42 186.37C483.77 186.74 483.35 187.22 482.93 187.83 482.89 187.89 482.89 187.9 482.87 187.92 482.86 187.92 482.87 187.92 482.85 187.94 482.71 188.09 482.58 188.25 482.44 188.4 482.19 188.67 481.92 188.92 481.64 189.17 481.49 189.31 481.34 189.45 481.18 189.58 481.15 189.61 480.98 189.74 480.89 189.82 480.78 189.9 480.59 190.03 480.59 190.03 480.45 190.12 480.31 190.21 480.17 190.3 479.82 190.51 479.45 190.7 479.08 190.88 479.02 190.91 479.03 190.91 478.99 190.92 478.97 190.92 478.99 190.92 478.95 190.92 478.75 190.98 478.56 191.06 478.37 191.12 477.97 191.24 477.56 191.34 477.15 191.42 477.08 191.43 477.05 191.44 477.01 191.44 476.82 191.46 476.62 191.47 476.43 191.48 475.99 191.5 475.54 191.48 475.09 191.48 474.87 191.48 474.65 191.48 474.43 191.46 474.39 191.46 474.11 191.43 473.99 191.42 473.88 191.4 473.52 191.34 473.53 191.34 473.35 191.3 473.18 191.26 473.01 191.22 472.8 191.17 472.2 191.08 472.17 191.07 472.34 191.1 471.77 191 471.7 190.98 471.2 190.88 470.72 190.76 470.2 190.7 469.52 190.62 468.46 190.64 468.23 191.48 467.64 193.66 470.57 195.45 472.22 196.11 474.39 196.98 476.61 197.11 478.91 196.71 480.83 196.38 482.73 195.54 484.3 194.38 485.15 193.76 485.9 193.11 486.55 192.29 487.43 191.19 488.34 190.04 488.32 188.55 488.29 186.58 486.14 185.32 484.41 186.31Z" stroke-width="0" fill="#A36856"/><path d="M490.16 210.07C488.45 211.19 486.67 212.26 484.91 213.32 483.3 214.29 481.43 215.01 479.44 215.31 477.57 215.59 475.28 215.36 473.36 214.81 472.49 214.56 468.26 212.72 467.94 214.41 467.49 216.76 470.74 218.79 472.5 219.61 475.03 220.78 477.77 221.37 480.57 221.21 483.29 221.06 485.82 220.27 488.16 218.86 490.65 217.36 492.37 215.14 493.12 212.33 493.55 210.71 491.67 209.07 490.17 210.06Z" stroke-width="0" fill="#A36856"/><path d="M445.94 200.03C446.82 204.67 440.95 209.69 432.82 211.23 424.69 212.77 417.39 210.26 416.51 205.61 415.63 200.97 421.5 195.95 429.63 194.41 437.76 192.87 445.06 195.38 445.94 200.03Z" stroke-width="0" fill="#ED6C6B"/><path d="M540.48 181.03C541.36 185.67 535.49 190.69 527.36 192.23 519.23 193.77 511.93 191.26 511.05 186.61 510.17 181.97 516.04 176.95 524.17 175.41 532.3 173.87 539.6 176.38 540.48 181.03Z" stroke-width="0" fill="#ED6C6B"/><path d="M451.43 166.2C451.33 165.96 451.23 165.73 451.13 165.49 450.94 165.14 450.69 164.87 450.37 164.66 450.08 164.4 449.75 164.22 449.36 164.13L449.25 164.09C448.86 163.94 448.01 163.93 447.62 164.09 447.6 164.09 447.58 164.1 447.57 164.11 447.5 164.14 447.42 164.17 447.35 164.2 447.12 164.3 446.89 164.39 446.66 164.49 446.32 164.67 446.05 164.92 445.85 165.24 445.67 165.42 445.55 165.63 445.48 165.88 445.3 166.23 445.22 166.6 445.23 167 445.26 167.26 445.3 167.51 445.33 167.77L445.62 168.46C445.8 168.8 446.05 169.07 446.37 169.27 446.65 169.53 446.98 169.7 447.36 169.79 447.43 169.82 447.51 169.85 447.58 169.87 447.6 169.87 447.62 169.88 447.63 169.89 448.02 170.03 448.87 170.03 449.26 169.89 449.3 169.87 449.34 169.86 449.37 169.85 449.61 169.75 449.84 169.65 450.08 169.55 450.43 169.36 450.7 169.11 450.91 168.79 451.09 168.61 451.22 168.39 451.29 168.14 451.48 167.79 451.56 167.41 451.55 167L451.44 166.21Z" stroke-width="0" fill="#FFFFFF"/><path d="M507.98 157.14C507.88 156.9 507.78 156.67 507.68 156.43 507.49 156.08 507.24 155.81 506.92 155.6 506.63 155.34 506.3 155.16 505.91 155.07L505.8 155.03C505.41 154.88 504.56 154.87 504.17 155.03 504.15 155.03 504.13 155.04 504.12 155.05 504.05 155.08 503.97 155.11 503.9 155.14 503.67 155.24 503.44 155.33 503.21 155.43 502.87 155.61 502.6 155.86 502.4 156.18 502.22 156.36 502.1 156.57 502.03 156.82 501.85 157.17 501.77 157.54 501.78 157.94 501.81 158.2 501.85 158.45 501.88 158.71 501.98 158.94 502.08 159.17 502.17 159.4 502.35 159.74 502.6 160.01 502.92 160.21 503.2 160.47 503.53 160.64 503.91 160.73 503.98 160.76 504.06 160.79 504.13 160.81 504.15 160.81 504.17 160.82 504.18 160.83 504.57 160.97 505.42 160.97 505.81 160.83 505.85 160.81 505.89 160.8 505.93 160.79 506.17 160.69 506.4 160.59 506.64 160.49 506.99 160.3 507.26 160.05 507.47 159.73 507.65 159.55 507.78 159.33 507.85 159.08 508.04 158.73 508.12 158.35 508.11 157.94 508.07 157.68 508.04 157.41 508 157.15Z" stroke-width="0" fill="#FFFFFF"/></g></svg>