<svg viewBox="0 0 356.39 723.93" xmlns="http://www.w3.org/2000/svg" xmlns:xlink="http://www.w3.org/1999/xlink" id="Isolation_Mode" overflow="hidden"><defs></defs><path d="M177.96 0C174.81 0 171.55 0.1 168.27 0.29 157.98 0.88 147.42 2.46 136.89 4.99 126.39 7.51 116.27 10.92 106.83 15.13 97.17 19.43 88.39 24.53 80.72 30.28 76.47 33.46 72.61 36.86 69.25 40.38 65.36 44.45 62.37 48.71 60.35 53.07 58.84 56.31 57.92 59.74 57.59 63.26 57.44 64.92 57.44 66.73 57.6 68.63 57.65 69.14 57.71 69.65 57.78 70.15 56.32 70.71 55 71.36 53.75 72.1 52.48 72.85 51.2 73.74 49.83 74.83 47.61 76.6 45.63 78.74 43.97 81.19 41.03 85.51 39.32 90.83 38.9 97.02 38.71 99.74 38.8 102.62 39.17 105.85 39.52 108.86 40.12 112.02 40.96 115.25 42.5 121.18 44.81 127.38 48.03 134.2 50.76 140 54.07 145.97 57.89 151.96 61.21 157.17 64.8 162.2 68.58 166.91 71.01 169.95 73.28 172.54 75.54 174.84 75.71 175.47 76.25 175.92 76.85 175.92 76.93 175.92 77.02 175.92 77.1 175.89 85.78 174.06 94.46 173.35 102.54 172.86 104.85 172.72 107.16 172.6 109.47 172.48 117.79 172.04 126.4 171.59 134.8 170.42 137.54 170.04 140.29 169.54 142.86 169.05 145.56 168.54 148.27 168.03 150.97 167.5 156.44 166.43 161.87 165.32 167.1 164.2 178.51 161.75 188.95 159.22 199.02 156.47 204.3 155.03 209.62 153.47 214.85 151.84 217.58 150.99 220.04 150.22 222.51 149.33 224.75 148.52 227 147.59 229.42 146.49 236.26 143.37 242.67 139.4 248.14 135.92 248.31 135.81 248.41 135.74 248.48 135.66 248.63 135.52 248.73 135.37 248.8 135.18 248.82 135.12 248.83 135.07 248.85 135 250.91 128.51 252.44 121.75 253.39 114.92 254.61 106.22 254.7 98.7 253.66 91.91 253.23 89.1 252.56 86.46 251.67 84.06 253.21 83.14 254.71 81.91 256.27 80.33 258.99 77.57 261.2 73.97 262.83 69.63 264.29 65.72 265.14 61.43 265.36 56.87 265.57 52.48 265.15 48.25 264.12 44.29 263.55 42.1 262.78 39.94 261.82 37.86 260.93 35.94 259.8 33.98 258.47 32.03 256.13 28.61 253.04 25.27 249.26 22.1 245.97 19.34 242.16 16.78 237.63 14.28 233.73 12.12 229.52 10.2 224.78 8.39 220.75 6.85 216.5 5.5 211.77 4.24 207.37 3.06 202.89 2.13 198.46 1.47 192 0.5 185.11 0.01 177.99 0.01" stroke-width="0" fill="#7C2213"/><path d="M245.44 120.97C243.67 120.97 241.97 121.33 240.52 122.01 239.91 122.3 239.33 122.65 238.74 123.1 238.73 123.1 238.71 123.1 238.7 123.1 238.21 123.1 237.85 123.28 237.58 123.58 235.81 125.56 234.53 128.16 233.54 131.74 232.91 134.03 232.41 136.58 232.02 139.54 231.62 142.57 231.4 145.72 231.36 148.89 231.32 152.42 231.49 155.59 231.89 158.57 232.34 161.85 233.04 164.64 234.02 167.1 235.07 169.71 236.48 171.81 238.21 173.32 239.97 174.86 242.35 175.75 244.74 175.75 245.27 175.75 245.8 175.71 246.32 175.62 249.28 175.14 252.15 173.32 255.1 170.07 256.21 168.85 257.28 167.42 258.37 165.7 259.28 164.28 260.13 162.76 260.88 161.19 262.45 157.94 263.57 154.26 264.22 150.23 264.94 145.77 264.89 141.48 264.06 137.49 263.63 135.4 262.96 133.42 262.06 131.6 261.2 129.86 260.17 128.36 259 127.14 257.52 125.59 255.7 124.23 253.58 123.12 251.51 122.03 249.23 121.32 246.99 121.06 246.47 121 245.94 120.97 245.41 120.97" stroke-width="0" fill="#F0BEA9"/><path d="M246.78 127.51C245.49 127.7 244.21 128.08 243.03 128.61 241.74 129.18 240.5 129.85 239.36 130.68 238.23 131.5 237.21 132.47 236.25 133.49 235.3 134.49 234.45 135.58 233.69 136.74 232.93 137.88 232.25 139.1 231.73 140.37 231.48 140.97 231.29 141.58 231.13 142.21 230.98 142.77 230.9 143.33 230.82 143.9 230.69 144.74 231.31 145.55 232.14 145.67 232.54 145.72 232.96 145.62 233.28 145.38 233.64 145.11 233.81 144.76 233.9 144.34 233.9 144.34 233.9 144.33 233.9 144.32 234.45 142.56 235.23 140.88 236.15 139.28 237.47 137.11 239.07 135.13 240.88 133.36 241.55 132.73 242.24 132.12 242.95 131.54 243.71 130.92 244.54 130.41 245.4 129.94 245.32 129.98 245.23 130.03 245.15 130.07 246.05 129.6 246.97 129.22 247.95 128.97 248.62 128.82 249.29 128.73 249.97 128.72 250.68 128.73 251.38 128.82 252.06 129.01 252.06 129.01 252.05 129.01 252.04 129.01 252.53 129.16 253 129.36 253.47 129.59 253.71 129.71 254.01 129.56 254.11 129.33 254.22 129.07 254.09 128.8 253.85 128.69 252.78 128.15 251.65 127.76 250.47 127.54 249.86 127.43 249.24 127.38 248.62 127.38 248 127.38 247.38 127.43 246.77 127.51M247.88 128.98C247.88 128.98 247.79 129 247.74 129.01 247.79 129 247.83 128.99 247.88 128.98" stroke-width="0" fill="#DA8C67"/><path d="M164.51 50.88 163.89 50.88C156.62 50.89 149.35 51.3 142.28 52.08 133.56 53.03 125.85 54.48 118.7 56.49 114.91 57.56 111.17 58.87 107.59 60.39 104.02 61.91 100.72 63.64 97.79 65.55 94.68 67.58 91.93 69.86 89.64 72.32 88.31 73.74 87.08 75.35 85.97 77.12 85.01 78.66 84.17 80.36 83.4 82.33 82.13 85.59 81.36 89.37 81.12 93.57 80.91 97.14 81.15 100.94 81.86 105.54 83.18 114.03 85.99 122.28 88.57 129.24 89.51 131.79 90.5 134.32 91.48 136.85L92.2 138.69 92.91 140.52C93.44 141.89 93.97 143.26 94.44 144.66 91.66 143.46 88.75 142.86 85.82 142.86 82.4 142.89 79.2 143.74 76.4 145.34 73.54 146.95 71.09 149.48 69.3 152.64 68.4 154.24 67.64 156.12 66.98 158.39 66.42 160.3 66.05 162.4 65.88 164.63 65.58 168.48 66.09 172.64 67.36 176.65 68.54 180.39 70.41 184.02 72.91 187.46 74.12 189.12 75.47 190.71 76.92 192.19 78.26 193.56 79.79 194.9 81.59 196.28 85.82 199.55 91.08 202.12 97.22 203.92 100.49 204.88 103.72 205.43 106.81 205.56 107.18 205.58 107.56 205.58 107.93 205.58 109.9 205.58 111.78 205.36 113.53 204.93 115.27 207.73 116.84 210.78 118.19 213.97 120.55 219.64 122.19 225.69 123.07 231.94 123.88 238.15 123.9 244.31 123.12 250.27 122.39 255.5 121.05 260.45 119.15 265L119.31 264.71C118.85 265.71 118.39 266.71 117.9 267.69 117.49 268.06 117.36 268.66 117.58 269.2 117.62 269.34 117.69 269.47 117.78 269.59 120.04 273.67 123.47 277.51 127.97 281 132.45 284.46 137.59 287.35 143.69 289.83 149.46 292.17 155.6 293.85 161.96 294.82 165.88 295.42 169.73 295.72 173.41 295.72 175.9 295.72 178.37 295.58 180.75 295.31 187.08 294.59 192.76 292.93 197.64 290.37 200.11 289.08 202.42 287.47 204.54 285.6 206.6 283.78 208.43 281.62 209.99 279.18 210.34 278.63 210.67 278.08 210.98 277.51 211.02 277.46 211.05 277.4 211.09 277.32 211.15 277.2 211.22 277.08 211.28 276.96 211.62 276.31 211.42 275.54 210.82 275.19 210.63 275.08 210.4 275.02 210.17 275.02 210.06 275.02 209.94 275.03 209.83 275.06 208.32 273.77 206.88 272.26 205.56 270.58 203.63 268.03 201.98 265.16 200.53 261.81L200.53 261.81C198.63 257.26 197.28 252.23 196.52 246.86L196.5 246.66C196.07 243.29 195.87 239.99 195.92 236.79 198.98 236.26 202.01 235.56 204.89 234.72 209.73 233.31 214.51 231.4 219.12 229.04 223.67 226.71 227.9 223.95 231.71 220.83 235.1 218.07 238.21 214.8 240.95 211.13 243.47 207.75 245.61 203.9 247.32 199.69 248.9 195.79 250.01 191.46 250.62 186.81 251.2 182.4 251.21 177.62 250.67 171.78 250.23 167.04 249.4 161.91 248.07 155.63 247.36 152.28 246.58 148.94 245.8 145.61 244.16 138.61 242.47 131.37 241.49 124.12L241.49 124.15C241.16 121.62 240.92 119.01 240.77 116.39 240.65 114.36 240.58 112.19 240.51 109.35 240.47 107.42 240.44 105.49 240.4 103.56 240.36 100.66 240.31 97.76 240.21 94.87 239.92 86.13 239.13 75.93 235.51 66.51 234.21 63.12 232.55 59.92 230.58 57 230.58 56.63 230.44 56.29 230.2 56.05 229.97 55.82 229.69 55.7 229.29 55.67 222.59 55.14 215.78 54.47 209.2 53.82 194.59 52.38 179.48 50.89 164.54 50.89" stroke-width="0" fill="#F6CFBE"/><path d="M163.89 50.84C156.57 50.86 149.3 51.27 142.28 52.04 133.53 53 125.81 54.45 118.68 56.47 114.87 57.53 111.12 58.84 107.57 60.36 103.99 61.87 100.69 63.61 97.77 65.52 94.65 67.55 91.9 69.83 89.6 72.29 88.25 73.74 87.01 75.36 85.93 77.11 84.97 78.63 84.14 80.33 83.37 82.32 82.1 85.55 81.33 89.34 81.08 93.58 80.88 96.98 81.09 100.59 81.72 104.88 88.05 105.24 94.44 105 100.68 103.87 100.68 103.87 100.69 103.87 100.7 103.87L100.68 103.87C100.68 103.87 100.68 103.87 100.68 103.87 100.69 103.87 100.71 103.87 100.73 103.87 100.75 103.87 100.77 103.86 100.79 103.86 105.29 103.03 109.71 101.72 113.86 99.75 113.86 99.75 113.86 99.75 113.86 99.75 113.86 99.75 113.86 99.75 113.85 99.75 113.85 99.75 113.85 99.75 113.86 99.75 116.66 98.4 119.3 96.74 121.67 94.74 121.67 94.74 121.67 94.74 121.68 94.73 121.68 94.73 121.68 94.73 121.67 94.74L121.67 94.74C121.67 94.74 121.7 94.72 121.71 94.71 121.71 94.7 121.73 94.69 121.74 94.68 123.67 93.02 125.38 91.16 126.85 89.08L126.85 89.08C126.85 89.08 126.85 89.08 126.85 89.08 126.85 89.08 126.85 89.08 126.85 89.08 126.85 89.08 126.85 89.07 126.86 89.06 126.86 89.06 126.86 89.07 126.85 89.08L126.85 89.08C126.85 89.08 126.86 89.06 126.88 89.05L126.87 89.05C128.26 87.08 129.4 84.95 130.28 82.71 130.32 82.61 130.43 82.53 130.53 82.5 130.58 82.49 130.62 82.47 130.67 82.47 130.74 82.47 130.8 82.49 130.86 82.52 130.88 82.52 130.89 82.54 130.9 82.55 130.93 82.55 130.97 82.55 131 82.57 135.51 84.06 140.03 85.56 144.7 86.48 149.36 87.4 154.07 88.05 158.8 88.46 158.77 88.46 158.73 88.46 158.69 88.46 165.38 89.03 172.11 89.13 178.82 88.75 185.41 88.39 191.95 87.61 198.44 86.42 198.4 86.42 198.37 86.44 198.33 86.45 200.92 85.97 203.51 85.49 206.11 84.99 208.91 84.45 211.72 83.87 214.51 83.22 220.24 81.86 225.94 80.22 231.28 77.7L231.28 77.7C233.57 76.6 235.79 75.33 237.81 73.79 237.21 71.32 236.47 68.87 235.55 66.47 234.24 63.06 232.59 59.86 230.62 56.97 230.64 56.6 230.51 56.27 230.24 56 230 55.77 229.71 55.64 229.3 55.61 222.96 55.12 216.53 54.49 209.94 53.84L209.22 53.77C194.59 52.33 179.47 50.83 164.56 50.83L163.94 50.83ZM113.82 99.76 113.74 99.8C113.74 99.8 113.79 99.77 113.82 99.76" stroke-width="0" fill="#F0BEA9"/><path d="M121.71 94.69C121.71 94.69 121.69 94.71 121.68 94.72 121.68 94.72 121.68 94.72 121.68 94.72 121.69 94.71 121.71 94.69 121.73 94.68 121.73 94.68 121.73 94.68 121.72 94.68" stroke-width="0" fill="#F0BEA9"/><path d="M100.72 103.87C100.72 103.87 100.76 103.87 100.77 103.86 100.75 103.86 100.74 103.86 100.72 103.87" stroke-width="0" fill="#F0BEA9"/><path d="M100.71 103.87 100.71 103.88 100.72 103.87 100.71 103.87Z" stroke-width="0" fill="#F0BEA9"/><path d="M149.25 233.82C149.25 233.82 149.25 233.82 149.26 233.83 149.26 233.83 149.25 233.83 149.25 233.82 149.25 233.82 149.25 233.82 149.25 233.82 154.72 238.29 160.75 242.07 167.2 244.99L167.2 244.99 167.2 244.99C167.2 244.99 167.23 245 167.25 245.01L167.21 244.99C170.05 246.27 172.95 247.38 175.93 248.27 178.88 249.16 181.87 249.87 184.91 250.34 184.91 250.34 184.93 250.34 184.94 250.34 187.42 250.72 189.92 250.97 192.44 251.03 194.05 251.07 195.66 251.03 197.27 250.94 197 249.6 196.76 248.24 196.57 246.86L196.54 246.66C196.11 243.36 195.92 240.08 195.95 236.91 193.49 237.21 191.01 237.36 188.54 237.38 184.13 237.42 179.72 237.09 175.36 236.48 170.94 235.86 166.56 234.98 162.25 233.84 158.03 232.73 153.86 231.4 149.79 229.81 146.78 228.64 143.82 227.34 140.95 225.87 143.52 228.72 146.31 231.36 149.27 233.81" stroke-width="0" fill="#DA8C67"/><path d="M184.91 250.35C184.91 250.35 184.91 250.35 184.91 250.35L184.91 250.35C184.91 250.35 184.91 250.35 184.92 250.35" stroke-width="0" fill="#DA8C67"/><path d="M184.93 250.35C184.93 250.35 184.93 250.35 184.93 250.35 184.93 250.35 184.92 250.35 184.91 250.35 184.92 250.35 184.93 250.35 184.94 250.35" stroke-width="0" fill="#DA8C67"/><path d="M92.26 158.22C91.91 158.45 91.73 158.78 91.61 159.16 90.78 161.96 90.61 164.94 90.84 167.83 91.08 170.87 91.83 173.89 93 176.7 93.59 178.11 94.3 179.46 95.1 180.77 95.87 182.04 96.78 183.21 97.75 184.33 99.62 186.5 101.89 188.33 104.45 189.63 104.75 189.78 105.12 189.66 105.28 189.36 105.43 189.07 105.31 188.69 105.01 188.54 104.38 188.22 103.76 187.86 103.18 187.46 101.89 186.55 100.75 185.5 99.71 184.31 98.48 182.85 97.47 181.23 96.62 179.53 95.48 177.17 94.67 174.65 94.15 172.08 93.7 169.59 93.51 167.08 93.69 164.56 93.84 162.95 94.14 161.36 94.6 159.81 94.71 159.43 94.6 158.97 94.39 158.65 94.17 158.32 93.83 158.09 93.44 158 93.33 157.98 93.23 157.97 93.12 157.97 92.82 157.97 92.53 158.06 92.28 158.22M94.15 172.02C94.15 172.02 94.15 172.05 94.15 172.06 94.15 172.05 94.15 172.03 94.15 172.02" stroke-width="0" fill="#DA8C67"/><path d="M82.75 153.96C78.76 154.05 74.7 155.46 71.88 158.36 71.71 158.53 71.67 158.77 71.83 158.96 71.97 159.12 72.27 159.18 72.43 159.01 73.09 158.33 73.81 157.75 74.61 157.24L74.51 157.3C75.41 156.74 76.37 156.3 77.37 155.96 78.55 155.6 79.75 155.39 80.97 155.32 82.26 155.28 83.54 155.39 84.8 155.64 84.75 155.63 84.7 155.62 84.65 155.61 85.94 155.89 87.18 156.29 88.36 156.87 89.28 157.36 90.12 157.93 90.9 158.62 91.34 159.04 91.75 159.49 92.13 159.98 92.57 160.53 93.42 160.58 93.96 160.13 94.23 159.91 94.39 159.59 94.42 159.24 94.44 158.93 94.35 158.53 94.12 158.31 93.35 157.57 92.54 156.91 91.64 156.34 90.76 155.8 89.81 155.34 88.84 154.97 87.03 154.28 85.08 153.96 83.14 153.96 83.01 153.96 82.88 153.96 82.75 153.96" stroke-width="0" fill="#DA8C67"/><path d="M177.07 38.75C171.11 38.75 165.03 38.99 158.99 39.47 148.49 40.32 138.43 41.88 129.09 44.11 120.18 46.25 112.45 48.97 105.44 52.43 97.45 56.38 90.82 61.19 85.71 66.71 82.89 69.76 80.53 73.05 78.69 76.51 76.67 80.29 75.24 84.36 74.43 88.61 72.74 97.46 73.67 107.49 77.18 118.41 78.65 122.96 80.52 127.54 82.9 132.41 83.35 133.33 83.82 134.24 84.29 135.15 84.61 135.77 84.93 136.39 85.24 137.01 85.84 138.22 86.45 139.43 87.09 140.63 87.91 142.16 88.72 143.52 89.58 144.8 90.64 146.39 91.61 147.59 92.63 148.61 93.81 149.78 94.98 150.57 96.22 151.03 96.8 151.24 97.44 151.36 98.09 151.37L98.09 151.37C98.83 151.37 99.49 151.23 100.3 150.92 103.31 149.76 104.03 146.11 104.32 143.06 104.58 140.36 104.44 137.6 104.32 134.93L104.26 133.68C103.95 126.65 102.66 119.4 100.43 112.15 98.74 106.68 96.59 101.51 94.04 96.8 95.4 96.63 96.81 96.33 98.21 95.93 101.95 94.86 105.6 93 109.06 90.42 115.21 85.82 119.84 79.48 122.1 72.58 123.78 73.11 125.65 73.6 127.8 74.07 132.21 75.04 136.76 75.7 141.16 76.33L142.14 76.47C150.16 77.63 158.24 78.33 166.17 78.57 168.08 78.63 169.99 78.66 171.91 78.66 178.57 78.66 185.14 78.3 191.44 77.59 200.16 76.6 208.42 74.87 215.99 72.44 222.14 70.46 227.86 68.02 232.99 65.17 238.52 62.11 243.58 58.46 248.03 54.32 248.29 54.08 248.44 53.75 248.46 53.4 248.51 53.35 248.56 53.29 248.61 53.22 248.78 52.96 248.9 52.56 248.79 52.23 248.56 51.54 248.34 51.02 248.07 50.56 247.78 50.06 247.42 49.57 247 49.12 246.23 48.27 245.25 47.54 243.98 46.88 241.3 45.49 238.27 44.89 235.66 44.47 232.61 43.99 229.42 43.78 226.61 43.59L225.42 43.51C223.38 43.38 221.27 43.25 219.23 42.87L218.58 42.74C216.6 42.36 214.62 41.97 212.64 41.64 210.21 41.23 207.73 40.86 205.26 40.54 200.33 39.9 195.22 39.42 190.07 39.12 185.77 38.87 181.41 38.74 177.1 38.74" stroke-width="0" fill="#7C2213"/><path d="M242.83 56.87C241.99 57.6 241.12 58.31 240.23 59 240.26 58.97 240.29 58.95 240.32 58.93 235.35 62.75 229.89 65.86 224.13 68.31 219.63 70.19 214.99 71.72 210.27 72.93 205.47 74.16 200.59 75.04 195.69 75.7 195.72 75.7 195.74 75.7 195.76 75.7 189.76 76.49 183.7 76.89 177.65 77.01 174.35 77.07 171.04 77.07 167.73 76.93 164.1 76.78 160.48 76.43 156.87 75.97 156.93 75.97 156.99 75.99 157.05 76 156.92 75.98 156.78 75.96 156.64 75.94 156.61 75.94 156.58 75.94 156.55 75.93 156.57 75.93 156.59 75.93 156.61 75.93 145.06 74.34 133.77 71.42 122.53 68.4 121.37 68.09 120.15 68.77 119.83 69.93 119.52 71.06 120.2 72.34 121.37 72.63 132.07 75.29 142.83 77.79 153.77 79.26 159.27 80.01 164.81 80.49 170.37 80.58 175.01 80.65 179.66 80.51 184.29 80.19 193.5 79.55 202.66 78.03 211.49 75.3 220.18 72.61 228.48 68.63 235.92 63.39 238.53 61.56 241.03 59.56 243.44 57.47 243.62 57.32 243.6 57.02 243.44 56.87 243.35 56.79 243.25 56.75 243.15 56.75 243.04 56.75 242.93 56.79 242.84 56.87M224.07 68.34C224.07 68.34 224.01 68.36 223.98 68.38 224.01 68.37 224.04 68.36 224.07 68.34M156.66 75.93C156.74 75.94 156.81 75.95 156.89 75.96 156.8 75.95 156.72 75.94 156.63 75.93 156.64 75.93 156.65 75.93 156.66 75.93" stroke-width="0" fill="#671C10"/><path d="M119.32 69.52C119.16 70.71 118.97 71.87 118.67 73.04 117.96 75.44 116.92 77.73 115.65 79.89 114.01 82.55 112.01 84.97 109.76 87.14L109.87 87.04C109.87 87.04 109.78 87.12 109.74 87.17 109.7 87.21 109.66 87.25 109.61 87.29 109.64 87.26 109.67 87.24 109.7 87.21 107.33 89.41 104.72 91.33 101.89 92.88 99.73 94.02 97.46 94.93 95.09 95.52 95.18 95.5 95.26 95.48 95.34 95.46 94.72 95.61 94.1 95.74 93.47 95.85 92.92 95.94 92.5 96.39 92.57 96.97 92.62 97.5 93.14 97.97 93.69 97.87 100.62 96.71 107.05 93.23 112.2 88.5 114.94 85.99 117.31 83.12 119.22 79.93 120.12 78.42 120.91 76.86 121.55 75.22 121.85 74.45 122.1 73.68 122.33 72.9 122.61 71.98 122.87 71.04 123.03 70.09 123.21 69.08 122.44 68.1 121.45 67.96 121.36 67.95 121.27 67.94 121.18 67.94 120.28 67.94 119.44 68.62 119.32 69.54M109.68 87.22C109.68 87.22 109.71 87.19 109.72 87.18 109.73 87.17 109.74 87.16 109.75 87.15 109.73 87.17 109.7 87.19 109.68 87.22" stroke-width="0" fill="#671C10"/><path d="M135.18 51.17C134.65 51.3 134.19 51.65 133.92 52.11 133.65 52.57 133.58 53.11 133.71 53.63 133.78 53.79 133.84 53.95 133.9 54.11 134.09 54.43 134.34 54.69 134.66 54.88 134.72 54.92 134.78 54.97 134.84 55.01 135.55 55.56 136.27 56.09 137.02 56.59 137.89 57.17 138.8 57.71 139.71 58.23 141.49 59.24 143.33 60.14 145.2 60.95 149.11 62.66 153.16 64 157.31 65.01 165.73 67.06 174.47 67.69 183.11 67.35 189.03 67.11 194.91 66.28 200.71 65.12 206.23 64.02 211.64 62.42 216.94 60.54 217.16 60.46 217.31 60.26 217.25 60.02 217.2 59.81 216.95 59.64 216.73 59.72 213.85 60.72 210.91 61.51 207.93 62.17 204.81 62.86 201.66 63.4 198.49 63.79L198.51 63.79C198.51 63.79 198.44 63.79 198.41 63.79L198.41 63.79C198.41 63.79 198.39 63.79 198.39 63.79 197.34 63.92 196.28 64.03 195.23 64.13 194.04 64.24 192.84 64.3 191.66 64.38 189.34 64.52 187.01 64.57 184.69 64.57 179.95 64.57 175.19 64.29 170.5 63.66 163.09 62.62 155.77 60.85 148.85 57.98 149.02 58.05 149.18 58.12 149.35 58.19 147.16 57.27 145.01 56.25 142.92 55.12 141.85 54.53 140.8 53.92 139.76 53.29 138.73 52.67 137.67 52.06 136.69 51.36 136.42 51.17 136.06 51.09 135.71 51.09 135.52 51.09 135.35 51.11 135.19 51.15M134.44 54.67C134.44 54.67 134.53 54.74 134.58 54.78 134.53 54.75 134.49 54.71 134.44 54.67M198.42 63.78C198.42 63.78 198.47 63.78 198.5 63.78 198.47 63.78 198.45 63.78 198.42 63.78" stroke-width="0" fill="#671C10"/><path d="M235.74 37.49C232 39.4 228.11 41.03 224.17 42.49 220.23 43.95 216.18 45.14 212.09 46.11 208.53 46.93 204.91 47.52 201.29 47.94 197.56 48.37 193.78 48.5 190.03 48.41 188.12 48.35 186.23 48.22 184.33 48.05 182.22 47.87 180.14 47.59 178.04 47.31 177 47.18 176 47.86 175.83 48.91 175.66 49.97 176.4 50.92 177.43 51.12 182.41 52.1 187.55 52.16 192.61 51.88 195.12 51.74 197.62 51.43 200.09 51.06 202.59 50.69 205.07 50.22 207.54 49.63 212.43 48.45 217.26 46.99 221.95 45.19 224.3 44.29 226.62 43.32 228.91 42.28 231.2 41.25 233.43 40.11 235.66 38.98 235.84 38.89 236.01 38.79 236.19 38.71 236.5 38.54 236.71 38.23 236.57 37.87 236.48 37.63 236.22 37.44 235.96 37.44 235.88 37.44 235.81 37.46 235.74 37.49M212.27 46.07C212.27 46.07 212.17 46.09 212.13 46.1 212.18 46.09 212.23 46.08 212.27 46.07" stroke-width="0" fill="#671C10"/><path d="M181.4 587.72C172.21 587.72 162.43 588.1 150.64 588.92 134.37 590.07 121.08 591.67 108.83 593.95 94.52 596.62 81.03 600.49 68.74 605.47 65.42 606.82 62.15 608.27 59.04 609.78L59.36 608.69C60.42 604.7 61.4 601.06 62.35 597.63 62.44 597.32 62.39 596.99 62.21 596.69 62.02 596.37 61.69 596.13 61.33 596.05 61.22 596.03 61.14 596.02 61.05 596.02 60.45 596.02 59.93 596.44 59.76 597.07 54.18 617.17 49.54 638.1 45.57 661.07 42.35 679.76 39.72 699.09 37.53 720.19 37.49 720.56 37.5 720.87 37.71 721.18 37.9 721.47 38.2 721.68 38.54 721.76 38.64 721.78 38.73 721.8 38.81 721.8L39 721.9 39 721.92C39.25 722.08 39.47 722.15 39.73 722.15 39.84 722.15 39.94 722.15 40.05 722.12 41.13 721.98 42.21 721.84 43.3 721.72 51.49 720.81 60.29 720.38 71 720.38 77.64 720.38 84.43 720.55 90.78 720.73L96.58 720.91 97.72 720.94 97.9 720.94C103.44 721.11 109.17 721.28 114.79 721.37 116.68 721.4 118.56 721.41 120.46 721.41 122.59 721.41 124.72 721.39 126.85 721.38L128.45 721.38C128.45 721.38 130.06 721.35 130.06 721.35 133.12 721.32 136.17 721.3 139.24 721.29L140.08 721.29C154.19 721.29 168.56 721.57 182.46 721.85L183.01 721.85C183.01 721.85 184.37 721.89 184.37 721.89L189.64 722C192.78 722.06 195.92 722.11 199.06 722.16L200.99 722.2C205.62 722.28 210.18 722.36 214.74 722.47 221.15 722.64 227.58 722.87 234 723.1L239.68 723.3C247.51 723.58 256.77 723.87 266.16 723.93 267.1 723.93 268.06 723.94 269 723.94 272.43 723.94 275.83 723.9 279.12 723.82 281.27 723.77 283.42 723.7 285.57 723.61 287.66 723.51 289.74 723.36 292.3 723.13 292.59 723.11 292.92 723.05 293.23 722.77 293.49 722.52 293.64 722.18 293.65 721.83 293.65 721.48 293.53 721.15 293.29 720.89 293.29 720.76 293.3 720.64 293.32 720.55 295.5 700.17 296.28 678.96 295.71 655.7 295.34 640.64 294.37 624.82 292.82 608.67 292.75 607.96 292.18 607.42 291.5 607.42 291.08 607.44 290.73 607.61 290.47 607.9 290.24 608.18 290.13 608.5 290.16 608.82 290.58 613.07 290.98 617.75 291.36 622.71 285.88 614.34 276.7 609.26 269.32 605.77 267.3 604.8 264.99 603.78 261.85 602.47L261.65 602.38C258.89 601.23 256.4 600.2 253.89 599.23 247.71 596.85 241 594.81 233.94 593.15 221.41 590.2 207.84 588.49 192.47 587.93 188.86 587.8 185.25 587.73 181.42 587.73" stroke-width="0" fill="#021621"/><path d="M228.13 667.41C225.96 669.82 223.52 671.91 220.89 673.81 220.9 673.81 220.92 673.79 220.93 673.78 217.66 676.1 214.08 677.97 210.34 679.42 207.55 680.48 204.7 681.36 201.78 682.03 198.9 682.69 195.97 683.11 193.03 683.44 190.71 683.68 188.39 683.78 186.05 683.82 184.76 683.84 183.66 684.82 183.64 686.14 183.61 687.37 184.66 688.61 185.96 688.55 190.08 688.38 194.21 687.81 198.21 686.8 202.17 685.8 206.04 684.36 209.73 682.63 213.37 680.92 216.8 678.8 220.03 676.42 223.28 674.03 226.24 671.29 228.93 668.29 229.14 668.05 229.19 667.7 228.96 667.46 228.85 667.34 228.68 667.27 228.51 667.27 228.37 667.27 228.23 667.32 228.13 667.43" stroke-width="0" fill="#04293E"/><path d="M183.12 686.24C181.72 691.66 180.34 697.07 179.03 702.51 178.38 705.23 177.76 707.96 177.16 710.69 176.84 712.14 176.54 713.59 176.27 715.04 175.98 716.55 175.67 718.1 175.63 719.63 175.6 720.75 176.37 721.78 177.45 722.1 177.88 722.22 178.3 722.23 178.73 722.13 179.31 721.99 180.02 721.57 180.28 721 181.46 718.4 182.07 715.57 182.69 712.8 183.3 710.06 183.85 707.32 184.39 704.57 185.5 698.91 186.59 693.25 188.03 687.66 188.38 686.32 187.65 684.9 186.29 684.5 186.07 684.43 185.84 684.4 185.61 684.4 184.5 684.4 183.42 685.12 183.13 686.24" stroke-width="0" fill="#04293E"/><path d="M122.87 250.54C122.51 250.54 122.19 250.67 121.95 250.91 121.77 251.09 121.65 251.32 121.6 251.57 121.51 251.7 121.45 251.82 121.43 251.93 121.02 253.84 120.36 255.73 119.41 257.72L119.58 257.43C117.54 261.44 114.73 265.09 112.02 268.47L110.81 269.97C109.86 271.15 108.92 272.33 107.99 273.52 106.63 275.28 105.31 277.18 104.08 279.18 99.04 287.3 94.66 296.09 91.05 305.3 84.87 321.07 80.89 338.89 78.54 361.37 77.97 366.79 77.53 372.13 77.1 377.59 76.65 383.2 76.26 388.81 75.88 394.43 75.28 403.35 74.76 412.27 74.23 421.2L73.84 427.86C72.57 449.23 71.13 471.95 68.57 494.11 67.17 506.3 65.43 518.09 63.41 529.13L63.48 528.95C61.19 541.2 58.37 553.42 55.11 565.13 52.15 575.74 48.58 586.95 43.53 601.49 43.43 601.78 43.45 602.11 43.58 602.41 43.55 602.76 43.67 603.11 43.9 603.38 52.27 612.8 61.93 621.2 72.63 628.32 82.62 634.98 93.89 640.69 106.11 645.3 117.41 649.56 129.72 652.84 142.7 655.07 154.9 657.16 167.71 658.28 180.8 658.42 181.68 658.43 182.57 658.44 183.45 658.44 194.89 658.44 206.75 657.65 218.69 656.1 225.87 655.17 232.86 653.93 239.46 652.43 246.59 650.81 253.71 648.74 260.61 646.29 268.34 643.54 275.77 640.27 282.67 636.59 289.72 632.83 296.5 628.41 302.81 623.46 303 623.31 303.12 623.11 303.19 622.86 303.39 622.64 303.49 622.36 303.5 621.99 303.75 616.13 303.78 610.3 303.79 604.35 303.79 598.65 303.76 592.83 303.66 586.56 303.47 574.69 303.07 562.67 302.46 550.82 301.2 526.33 298.95 502.39 295.79 479.64 294.09 467.4 292.23 456.39 290.11 445.98 287.9 435.19 285.21 424.1 282.1 413 276.01 391.36 268.24 369.88 258.99 349.16 255.61 341.61 251.79 333.67 246.6 323.43 241.79 313.94 237.35 305.74 233.03 298.36 222.44 280.24 211.6 265.73 199.87 254.02 199.82 253.81 199.7 253.6 199.54 253.43 199.3 253.19 198.96 253.06 198.61 253.06 198.26 253.06 197.94 253.19 197.71 253.43 196.51 254.71 195.14 255.95 193.53 257.2 192.13 258.27 190.68 259.25 189.19 260.11 187.77 260.94 186.21 261.71 184.57 262.4L184.89 262.3C180.95 263.91 176.64 265.07 172.05 265.7L172.39 265.7C169.71 266.02 166.95 266.2 164.19 266.2 161.43 266.2 158.38 266 155.47 265.62 149.78 264.83 144.34 263.34 139.29 261.22L139.58 261.38C135.35 259.55 131.48 257.33 128.1 254.77 126.54 253.55 125.09 252.26 123.79 250.92 123.56 250.68 123.23 250.55 122.88 250.55" stroke-width="0" fill="#2FC3B0"/><path d="M149.62 492.85C147.52 492.85 145.23 493.06 142.83 493.47 140.22 493.92 137.44 494.63 134.34 495.64 131.64 496.52 128.91 497.6 126 498.94 120.72 501.36 115.6 504.3 110.8 507.69 108.67 509.19 106.69 510.74 104.92 512.3 103.33 513.7 101.81 515.25 100.27 517.04 97.88 519.82 95.86 522.48 94.09 525.17 93.01 526.8 92.04 528.47 91.2 530.14 90.33 531.85 89.73 533.43 89.35 534.95 88.91 536.69 88.79 538.2 89 539.58 89.11 540.32 89.37 541.12 89.78 542.02 90.2 542.92 90.78 543.68 91.5 544.28 92.02 544.71 92.7 545 93.53 545.14 93.72 545.17 93.91 545.19 94.1 545.19 94.77 545.19 95.42 545.01 95.91 544.86 96.63 544.64 97.28 544.26 97.88 543.88 97.61 544.66 97.39 545.48 97.19 546.29 96.7 548.3 96.43 550.36 96.39 552.39 96.37 554.03 96.43 555.94 97.06 557.71 97.33 558.5 97.82 559.2 98.46 559.74 99.01 560.2 99.75 560.44 100.65 560.44 101.39 560.43 102.1 560.23 102.91 559.85 103.64 559.5 104.4 559.02 105.28 558.34 107.01 557.02 108.54 555.4 109.94 553.85 109.73 554.81 109.59 555.81 109.52 556.77 109.37 558.86 109.52 560.6 110 562.11 110.18 562.66 110.48 563.21 110.85 563.68 111.21 564.14 111.7 564.51 112.31 564.8 112.82 565.05 113.38 565.11 113.77 565.12L113.8 565.12C114.51 565.12 115.07 565.04 115.72 564.85 116.98 564.49 118.13 563.83 119.19 563.17 120.51 562.34 121.71 561.37 122.6 560.62 123.54 559.82 124.52 558.92 125.59 557.85 126.28 557.17 126.96 556.47 127.64 555.78 128.47 554.94 129.31 554.09 130.14 553.26 137.85 545.65 144.61 540 151.42 535.49 152.64 534.68 153.97 533.84 155.49 532.94 158.7 531.06 162 529.37 165.3 527.92 165.9 527.66 166.23 526.97 166.04 526.36 166.73 525.67 167.36 524.94 167.89 524.21 168.53 523.35 169.11 522.35 169.67 521.15 170.58 519.21 171.1 516.96 171.19 514.65 171.27 512.82 171.03 510.91 170.44 508.64 170.02 507.04 169.53 505.63 168.95 504.33 168.4 503.1 167.71 501.89 166.91 500.75 166.24 499.79 165.4 498.85 164.37 497.89 162.73 496.35 160.62 495.08 158.28 494.23 155.74 493.3 152.84 492.83 149.66 492.83" stroke-width="0" fill="#F6CFBE"/><path d="M129.04 532.7C127.25 534.06 125.47 535.43 123.72 536.85 121.89 538.33 120.13 539.91 118.44 541.55 117.59 542.38 116.77 543.24 115.96 544.11 115.16 544.98 114.4 545.9 113.68 546.84 112.27 548.66 111.03 550.6 109.98 552.65 109.88 552.86 109.99 553.12 110.2 553.21 110.42 553.31 110.66 553.2 110.76 552.99 111.08 552.37 111.42 551.77 111.77 551.17 111.77 551.17 111.77 551.18 111.77 551.19 112.62 549.8 113.58 548.49 114.63 547.24 115.68 545.98 116.83 544.79 118.01 543.65L117.9 543.76C119.76 541.99 121.75 540.35 123.77 538.78 125.83 537.17 127.93 535.62 130.03 534.05 130.39 533.78 130.47 533.25 130.2 532.89 130.04 532.67 129.78 532.55 129.53 532.55 129.36 532.55 129.19 532.6 129.04 532.71" stroke-width="0" fill="#DA8C67"/><path d="M112.11 527.58C111.37 527.94 110.66 528.35 109.97 528.81 109.27 529.28 108.61 529.83 107.98 530.38 107.34 530.93 106.73 531.53 106.13 532.14 105.53 532.76 104.93 533.4 104.37 534.06 103.8 534.72 103.25 535.41 102.7 536.09 102.15 536.77 101.61 537.45 101.09 538.14 100.08 539.46 99.11 540.82 98.17 542.2 98.04 542.39 98.04 542.65 98.24 542.8 98.41 542.93 98.7 542.92 98.84 542.73 99.63 541.59 100.46 540.5 101.34 539.43 102.26 538.31 103.23 537.23 104.26 536.21 104.26 536.21 104.25 536.22 104.24 536.23 105.6 534.92 107.03 533.69 108.52 532.54 109.99 531.41 111.54 530.37 113.09 529.34 113.46 529.09 113.59 528.56 113.43 528.16 113.34 527.91 113.14 527.71 112.9 527.6 112.78 527.55 112.63 527.51 112.48 527.51 112.36 527.51 112.23 527.53 112.13 527.58" stroke-width="0" fill="#DA8C67"/><path d="M201.17 257.94C200.82 257.94 200.5 258.07 200.26 258.31 200.02 258.55 199.88 258.89 199.89 259.24 199.89 259.59 200.03 259.91 200.26 260.14 200.61 260.49 200.97 260.83 201.33 261.16L202.58 263.02C213.09 278.74 223.95 294.99 233.9 311.44 245.42 330.49 254.62 348.15 262.01 365.42 262.06 365.54 262.11 365.66 262.16 365.78L262.25 365.99 262.34 366.2C264.4 371.07 266.31 375.83 267.91 379.86 270.07 385.31 271.89 390.1 273.47 394.51 277.4 405.51 280.03 414.76 281.74 423.63 272.28 425.69 262.86 428.56 252.82 432.4 244.04 435.76 235 439.8 225.19 444.76 220.81 446.98 216.3 449.38 211.77 451.88 207.83 454.05 204.16 456.02 200.57 457.89L199.21 458.6C191.97 462.39 184.49 466.3 177.48 470.74 168.85 476.2 162.63 481.37 157.92 487.02 156.49 488.73 155.32 490.36 154.36 491.99 153.33 493.74 152.49 495.65 151.85 497.68 150.76 501.13 150.44 504.95 150.87 509.03 151.23 512.44 152.07 515.99 153.59 520.52 154.53 523.28 155.59 526.05 156.62 528.72 157.08 529.91 157.54 531.09 157.99 532.28 158.05 532.43 158.11 532.57 158.19 532.7 158.19 533.48 158.77 534.09 159.43 534.09 178.08 533.33 196.41 531.85 213.44 530.37L217.19 530.04C223.61 529.48 230.25 528.9 236.78 528.18 244.06 527.38 250.71 526.45 257.1 525.36 272.35 522.74 285.43 519.14 297.09 514.36 303.61 511.69 309.72 508.6 315.26 505.17 321.06 501.58 326.48 497.41 331.38 492.77 336.65 487.78 341.22 482.18 344.97 476.13 348.54 470.36 351.35 463.99 353.32 457.2 355.13 450.93 356.16 444.18 356.38 437.12 356.58 430.62 355.99 423.7 354.62 416.55 353.34 409.87 351.28 402.99 348.49 396.09 347.29 393.12 345.88 390.01 344.05 386.3 342.55 383.25 340.92 380.1 339.07 376.68 331.78 363.19 323.51 350.42 314.49 338.71 304.54 325.81 294.44 315.16 283.61 306.17 277.64 301.21 271.89 297.13 266.04 293.68 260.1 290.19 253.93 287.27 246.48 283.96 245.01 283.3 243.53 282.66 242.06 282.01 237.12 279.84 232.01 277.59 227.09 275.16 219.9 271.61 213.89 267.96 208.72 264.02 206.84 262.56 205.03 261.02 203.33 259.44L203.13 259.14C202.86 258.74 202.58 258.53 202.28 258.44L202.14 258.3C201.9 258.06 201.57 257.93 201.22 257.93M299.1 423.28 299.15 423.26 299.3 423.28C298.96 423.31 298.62 423.35 298.28 423.38 298.51 423.35 298.74 423.32 298.97 423.3 299 423.3 299.03 423.3 299.06 423.29L299.07 423.29C299.07 423.29 299.11 423.29 299.13 423.28L299.09 423.28ZM245.6 524.52 245.55 524.52C245.81 524.48 246.08 524.45 246.34 524.42L245.6 524.52Z" stroke-width="0" fill="#2FC3B0"/><path d="M254.31 347.61C254.21 347.61 254.12 347.64 254.02 347.69 253.75 347.85 253.67 348.18 253.81 348.46 257.42 355.4 260.75 362.45 263.69 369.42 267.19 377.74 270.38 386.52 273.44 396.25 274.73 400.35 276.04 404.85 277.45 410 278.06 412.25 278.65 414.49 279.23 416.74 279.53 417.88 279.83 419.01 280.11 420.16 280.2 420.53 280.28 420.9 280.35 421.28L280.45 421.73C280.57 422.31 280.66 422.76 280.76 423.21 276.94 423.8 273.44 424.48 270.05 425.26 265.34 426.34 260.52 427.62 255.71 429.08 251.42 430.37 246.92 431.93 241.95 433.85 237.26 435.65 232.63 437.63 228.19 439.71 223.59 441.87 219.15 444.18 214.99 446.58 212.67 447.92 210.27 449.39 207.85 450.94 206.65 451.71 205.61 452.42 204.65 453.12 204.27 453.4 203.9 453.69 203.53 453.99L203.33 454.15 203.13 454.3C202.54 454.77 201.96 455.24 201.43 455.77 201.17 455.99 200.98 456.25 200.87 456.53 200.68 457 200.68 457.54 200.89 457.99 201.08 458.43 201.45 458.79 201.9 458.98 202.11 459.07 202.32 459.11 202.56 459.11 202.81 459.11 203.06 459.06 203.36 458.96 204.55 458.57 205.69 457.98 206.84 457.36 208.1 456.68 209.29 455.92 210.4 455.2 211.09 454.75 211.77 454.3 212.46 453.85L212.72 453.68C214.04 452.81 215.36 451.93 216.71 451.1 218.43 450.07 220.22 449.1 221.96 448.15L222.43 447.89 223.08 447.53C225.2 446.37 227.33 445.24 229.47 444.13 234.44 441.54 238.64 439.49 242.66 437.69 251.88 433.56 260.93 430.23 269.56 427.8 273.7 426.65 277.8 425.66 281.7 424.87 281.86 424.96 282.05 425 282.25 425 282.6 425 282.97 424.83 283.23 424.56 285.35 424.16 287.47 423.8 289.53 423.5 296.4 422.49 303.44 421.95 310.45 421.9L311.61 421.9C312.49 421.9 313.36 421.9 314.25 421.92 314.63 421.92 314.9 421.71 314.95 421.38 314.96 421.2 314.9 421.01 314.78 420.87 314.68 420.75 314.54 420.68 314.4 420.68 313.22 420.65 312.04 420.65 310.86 420.65 302.05 420.65 293.22 421.29 284.61 422.57L283.43 422.75C283.34 421.83 283.12 420.88 282.92 420.03L282.85 419.76 282.45 418C282.28 417.23 282.1 416.46 281.91 415.69 281.32 413.27 280.65 410.76 279.86 408.04 278.46 403.22 276.83 398.27 274.88 392.89 271.71 384.12 267.79 374.79 262.53 363.52 260.14 358.39 257.54 353.14 254.81 347.9 254.73 347.73 254.53 347.61 254.33 347.61" stroke-width="0" fill="#27A495"/><path d="M320.34 500.92C320.27 500.92 320.21 500.94 320.16 500.97L319.3 501.44 318.38 501.95C315.79 503.38 313.2 504.8 310.6 506.21 307.79 507.73 304.47 509.5 301.11 511.12 297.81 512.71 294.47 514.16 291.19 515.43 287.63 516.81 283.96 517.91 280.5 518.93L280.83 518.9C271.92 521.38 262.03 523.39 249.71 525.19 243.96 526.03 238.18 526.75 233.79 527.28 228.39 527.94 222.73 528.5 216.98 528.93 206.97 529.69 196.45 530.1 187.99 530.43 183.16 530.62 178.33 530.81 173.5 531.05 171.14 531.16 168.79 531.31 166.43 531.48 165.2 531.57 163.97 531.67 162.73 531.77 162.17 531.82 161.61 531.87 161.05 531.94 160.53 532.01 160.03 532.11 159.53 532.23L159.06 532.33C158.76 532.39 158.5 532.5 158.29 532.67 158.24 532.71 158.19 532.76 158.14 532.8 158.49 533.73 158.83 534.63 159.17 535.52 159.83 535.61 160.46 535.68 161.1 535.69L161.65 535.69C162.1 535.69 162.55 535.69 163.01 535.67L163.3 535.67C164.75 535.63 166.2 535.59 167.65 535.54 170.51 535.45 173.33 535.35 176.14 535.23 181.76 535 187.38 534.77 192.99 534.47 202.99 533.95 214.82 533.24 226.62 531.92 231.43 531.38 236.61 530.69 242.94 529.75 249.33 528.79 254.18 527.97 258.66 527.1 264.33 525.99 269.39 524.79 274.13 523.44 276.4 522.81 278.83 522.05 281.79 521.08 284.52 520.18 287 519.28 289.35 518.32 291.99 517.26 294.68 516.05 297.35 514.74 300.04 513.42 302.71 511.96 305.21 510.57 307.71 509.18 310.19 507.75 312.67 506.31 315.28 504.79 317.9 503.28 320.54 501.82 320.74 501.71 320.89 501.48 320.77 501.22 320.71 501.06 320.53 500.94 320.35 500.94" stroke-width="0" fill="#27A495"/><path d="M218.07 214.23C216.08 214.26 214 214.49 211.5 214.93 207.11 215.72 202.64 217.08 197.83 219.1 193.78 220.79 189.53 223 184.84 225.86 181.02 228.19 177.07 230.88 172.76 234.11 170.21 236.02 167.48 238.16 164.44 240.65 163.84 239.82 163.19 239.02 162.54 238.23 160.54 235.82 158.39 233.64 156.15 231.72 154.92 230.67 153.66 229.72 152.41 228.89 151.2 228.1 149.91 227.42 148.59 226.88 147.4 226.38 146.15 226.08 144.88 225.98 144.7 225.97 144.52 225.96 144.35 225.96 143.33 225.96 142.27 226.19 141.31 226.61 138.42 227.87 137.05 230.95 136.5 232.67 135.79 234.86 135.7 237.41 136.22 240.49 136.75 243.65 137.95 246.6 139.05 249.06 140.52 252.38 142.28 255.48 143.81 258.08 145.56 261.05 147.43 264.01 149.23 266.87 150.1 268.24 150.97 269.62 151.82 270.99 153.55 273.8 155.38 276.78 156.94 279.9 156.83 279.92 156.73 279.95 156.63 280 156.85 280.46 157.06 280.91 157.26 281.38 157.81 282.64 158.32 283.92 158.8 285.21 159.01 285.46 159.23 285.71 159.44 285.95 159.68 286.79 159.85 287.56 159.97 288.28 160.02 288.61 160.3 288.91 160.56 289.06 160.76 289.17 160.99 289.24 161.21 289.24 161.33 289.24 161.44 289.22 161.56 289.19 161.78 289.14 161.99 289.01 162.16 288.84 162.75 289.45 163.38 290.06 164.01 290.64 167.04 293.42 170.25 295.81 173.55 297.74 177.04 299.79 180.59 301.27 184.1 302.14 186.44 302.73 188.8 303.02 191.11 303.02 192.43 303.02 193.76 302.92 195.05 302.73 198.67 302.18 202.28 300.66 205.5 298.32 208.37 296.24 210.95 293.5 213.37 289.94 215.3 287.11 217.01 283.83 218.46 280.2 219.87 276.67 220.87 272.94 221.45 269.13 222.12 264.62 221.99 260.36 221.05 256.46 220.05 252.33 218 248.69 215.11 245.91 215.55 242.33 215 238.78 213.59 235.94 216.71 233.29 219.43 230.71 221.89 228.06 223.33 226.5 224.38 225.12 225.19 223.72 226.02 222.3 226.47 221.08 226.58 219.9 226.7 218.72 226.4 217.61 225.72 216.67 224.99 215.65 223.73 215.08 222.81 214.79 221.61 214.42 220.26 214.24 218.56 214.24L218.08 214.24Z" stroke-width="0" fill="#F6CFBE"/><path d="M216.04 213.62C213.67 213.77 211.32 214.15 209 214.64 204.83 215.51 200.78 216.97 196.89 218.68 192.86 220.46 188.96 222.57 185.23 224.91 181.46 227.27 177.83 229.81 174.28 232.49 170.84 235.09 167.52 237.85 164.22 240.62 164.04 240.77 163.96 241 164.1 241.21 164.22 241.39 164.51 241.48 164.69 241.33 168.73 237.95 172.91 234.73 177.23 231.73 181.63 228.67 186.21 225.87 191 223.46 193.82 222.07 196.71 220.81 199.67 219.75 202.58 218.71 205.57 217.9 208.6 217.29 208.53 217.3 208.47 217.32 208.4 217.33 210.53 216.91 212.66 216.6 214.82 216.41 216.56 216.26 218.3 216.18 220.04 216.27 221.01 216.33 221.97 216.46 222.9 216.73 223.26 216.86 223.61 217.01 223.95 217.21 224.11 217.32 224.25 217.44 224.39 217.58 224.46 217.67 224.53 217.77 224.59 217.87 224.64 217.99 224.68 218.11 224.71 218.23 224.73 218.41 224.74 218.59 224.74 218.77 224.7 219.11 224.62 219.43 224.53 219.76 224.25 220.54 223.85 221.27 223.42 221.98 222.32 223.66 221.01 225.18 219.64 226.64 218.08 228.3 216.41 229.86 214.71 231.38 214.74 231.36 214.76 231.33 214.79 231.31 212.37 233.46 209.87 235.51 207.29 237.46 201.17 242.08 194.96 246.59 188.72 251.04 188.29 251.35 188.16 251.95 188.46 252.4 188.77 252.85 189.37 252.95 189.82 252.67 194.45 249.71 198.98 246.58 203.46 243.39 205.95 241.62 208.44 239.87 210.86 238.01 212.79 236.52 214.67 234.99 216.51 233.38 218.6 231.55 220.63 229.66 222.5 227.61 223.33 226.7 224.13 225.76 224.86 224.76 225.53 223.85 226.15 222.89 226.65 221.87 226.88 221.41 227.06 220.92 227.21 220.43 227.34 220.04 227.43 219.64 227.48 219.23 227.52 218.8 227.54 218.37 227.48 217.94 227.44 217.69 227.39 217.44 227.31 217.2 227.22 216.93 227.08 216.68 226.96 216.42 226.76 216.04 226.45 215.72 226.16 215.42 225.8 215.07 225.35 214.8 224.91 214.58 224.43 214.33 223.89 214.16 223.37 214.02 222.76 213.85 222.13 213.75 221.5 213.67 220.6 213.56 219.7 213.52 218.79 213.52 217.88 213.52 216.98 213.56 216.08 213.62M224.07 217.25C224.07 217.25 224.13 217.29 224.16 217.31 224.13 217.29 224.1 217.27 224.07 217.25M224.67 217.96C224.67 217.96 224.7 218.02 224.71 218.04 224.69 218.01 224.68 217.98 224.67 217.96" stroke-width="0" fill="#DA8C67"/><path d="M213.01 234.89C212.68 235 212.41 235.43 212.57 235.77 213.17 237.01 213.61 238.29 213.91 239.63 214.17 240.99 214.24 242.34 214.17 243.72 214.17 243.65 214.18 243.57 214.19 243.5 214.09 244.88 213.8 246.23 213.38 247.55 212.73 249.44 211.83 251.23 210.74 252.91 210.8 252.82 210.85 252.74 210.91 252.66 209.83 254.29 208.6 255.8 207.27 257.22 206.97 257.54 206.96 258.06 207.2 258.42 207.35 258.64 207.58 258.79 207.84 258.84 208.07 258.89 208.4 258.84 208.59 258.69 209.45 257.96 210.27 257.19 211.03 256.35 211.77 255.53 212.43 254.64 213.04 253.71 213.62 252.81 214.12 251.89 214.55 250.9 214.96 249.94 215.28 248.94 215.53 247.92 215.78 246.92 215.88 245.91 215.95 244.88 216.02 243.85 215.98 242.82 215.86 241.79 215.59 239.53 214.9 237.36 213.91 235.32 213.82 235.14 213.74 235 213.55 234.92 213.46 234.87 213.35 234.85 213.25 234.85 213.18 234.85 213.1 234.86 213.03 234.89M213.35 247.7C213.35 247.7 213.34 247.74 213.33 247.77 213.33 247.75 213.35 247.72 213.35 247.7" stroke-width="0" fill="#DA8C67"/><path d="M143.41 225.73C142.88 225.74 142.35 225.82 141.83 225.94 141.28 226.05 140.76 226.27 140.25 226.51 139.31 226.96 138.48 227.7 137.86 228.53 137.06 229.61 136.55 230.82 136.2 232.11 135.76 233.72 135.64 235.43 135.64 237.09 135.64 239.12 135.89 241.13 136.28 243.12 137.03 247.03 138.54 250.78 140.35 254.31 142.22 257.95 144.46 261.39 146.74 264.78 150.56 270.46 154.61 276.05 157.41 282.32 157.38 282.25 157.34 282.18 157.31 282.11 157.76 283.12 158.17 284.14 158.54 285.19 158.7 285.66 159.16 285.95 159.66 285.81 160.11 285.68 160.44 285.15 160.28 284.69 155.76 272.46 146.11 263.06 140.82 251.23L140.92 251.45C140.28 249.99 139.7 248.51 139.23 246.99 138.75 245.47 138.41 243.91 138.17 242.34 138.17 242.36 138.17 242.38 138.17 242.4 137.85 240.02 137.81 237.62 138.05 235.22 138.19 234.06 138.41 232.91 138.81 231.81 139.06 231.18 139.37 230.57 139.76 230.01 140 229.69 140.28 229.4 140.57 229.13 140.92 228.86 141.29 228.63 141.68 228.44 142.09 228.28 142.52 228.16 142.95 228.08 143.67 227.98 144.4 227.99 145.13 228.06 146.35 228.22 147.55 228.56 148.7 228.99 148.7 228.99 148.69 228.99 148.68 228.99 150.95 229.88 153.08 231.12 155.07 232.52 155.06 232.51 155.04 232.5 155.03 232.49 157.65 234.37 160.08 236.53 162.15 239.03 162.15 239.02 162.13 239.01 162.12 239 162.15 239.03 162.17 239.06 162.2 239.1 162.21 239.11 162.22 239.13 162.24 239.14 162.24 239.14 162.23 239.13 162.22 239.12 162.76 239.79 163.26 240.48 163.72 241.2 163.91 241.51 164.32 241.61 164.63 241.42 164.94 241.23 165.04 240.81 164.85 240.51 163.53 238.42 161.9 236.54 160.15 234.81 158.17 232.84 156 231.06 153.68 229.49 151.55 228.05 149.2 226.84 146.72 226.16 145.72 225.88 144.68 225.73 143.64 225.73 143.56 225.73 143.47 225.73 143.39 225.73M138.02 235.31C138.02 235.31 138.02 235.36 138.01 235.39 138.01 235.36 138.01 235.34 138.02 235.31M162.21 239.11C162.21 239.11 162.2 239.1 162.19 239.09 162.17 239.07 162.15 239.05 162.14 239.03 162.16 239.06 162.18 239.09 162.21 239.12M155.2 232.62 155.07 232.52C155.07 232.52 155.16 232.58 155.2 232.62" stroke-width="0" fill="#DA8C67"/><path d="M121.86 256.63C121.49 257.22 121.1 257.79 120.68 258.34 118.87 260.67 116.58 262.91 113.66 265.22L113.95 265.05C109.08 268.79 103.66 271.87 98.41 274.85L96.6 275.87C89.78 279.76 82.83 283.15 76.94 285.94L72.45 288.07C60.75 293.59 48.65 299.3 37.85 306.84 31.75 311.1 26.39 315.76 21.94 320.69 17.92 325.13 14.34 330.15 11.31 335.6 5.71 345.66 2.15 357.21 0.7 369.92-0.63 381.54-0.1 393.94 2.26 406.79 4.45 418.7 8.25 430.63 13.58 442.26 16.07 447.7 18.96 453.07 22.14 458.21 25.44 463.53 29.34 468.89 33.73 474.15 43.23 485.55 54.55 495.85 67.4 504.77 73.73 509.16 80.36 513.06 87.11 516.35 93.86 519.64 100.71 522.25 107.49 524.11 114.16 525.94 120.81 526.87 127.26 526.87 127.77 526.87 128.29 526.87 128.8 526.85 135.51 526.69 142.18 525.41 148.63 523.04 154.88 520.73 161.04 517.28 166.95 512.77 172.21 508.76 177.03 504.11 181.27 498.95 185.06 494.34 188.55 489.12 191.64 483.39 194.44 478.2 196.92 472.52 199.22 466.06 203.11 455.12 205.91 443.07 208.03 428.18 209.9 415.01 210.84 401.97 211.58 389.85 211.95 383.65 212.3 377.45 212.65 371.24 213.09 363.18 213.42 354.37 213.66 344.29 213.96 330.95 214.04 317.38 214.12 304.25 214.14 299.8 214.17 295.35 214.2 290.91 214.2 290.76 214.17 290.6 214.11 290.46 212.9 290.52 211.68 290.55 210.46 290.55 204.95 290.57 199.45 290.12 193.99 289.42 191.34 289.07 188.71 288.67 186.07 288.24 183.77 287.86 181.47 287.46 179.17 287.04 174.47 286.18 169.78 285.22 165.19 283.86 161.7 282.82 158.26 281.57 155 279.95 154.89 280.04 154.79 280.16 154.73 280.3 148.08 297 140.03 313.41 132.25 329.28L129.78 334.32C121.09 352.06 112.71 369.49 105.77 387.76 101.96 384.25 98.43 380.46 95.33 376.46 92.92 373.3 90.97 370.03 89.55 366.75L89.55 366.75C88.19 363.53 87.25 360.11 86.75 356.59L86.72 356.33C86.23 352.46 86.27 348.2 86.86 343.78 87.77 337.34 89.73 330.67 93.03 322.79 93.04 322.76 93.06 322.72 93.07 322.68L93.07 322.68C93.07 322.68 93.11 322.59 93.11 322.59L93.11 322.59C97.19 313.05 102.25 303.92 107.16 295.1 109.65 290.61 112.22 285.98 114.64 281.36 116.93 276.94 118.7 273.25 120.2 269.73 122.03 265.44 123.31 261.8 124.25 258.27 124.32 258.02 124.3 257.76 124.22 257.52 124.34 256.99 124.07 256.38 123.58 256.11 123.39 256 123.18 255.95 122.96 255.95 122.51 255.95 122.07 256.2 121.82 256.61" stroke-width="0" fill="#2FC3B0"/><path d="M170.34 283.16C170.34 283.16 170.32 283.16 170.31 283.16 170.31 283.16 170.3 283.16 170.29 283.16 170.31 283.16 170.32 283.16 170.34 283.17" stroke-width="0" fill="#FE514A"/><path d="M214.27 290.14 214.27 290.14C213.02 290.36 211.99 290.46 211.01 290.47L210.78 290.47C210.78 290.47 210.55 290.47 210.55 290.47L210.32 290.47C210.28 290.62 210.27 290.74 210.27 290.87 210.27 291.72 210.33 292.57 210.39 293.42L210.39 293.63C210.39 293.63 210.54 295.65 210.54 295.65 210.61 296.82 210.69 297.99 210.78 299.16 210.81 299.56 210.85 299.95 210.89 300.34 210.94 300.87 210.99 301.4 211.02 301.93 211.09 302.85 211.13 303.78 211.17 304.71 211.25 306.56 211.29 308.42 211.32 310.28 211.4 315.01 211.37 319.83 211.34 324.48L211.34 325.19C211.32 327.68 211.3 330.16 211.3 332.65L211.3 336.66C211.3 350.15 211.29 364.08 210.82 377.78L210.91 377.31C210.56 385.57 210.14 392.99 209.58 400.01 209.01 407.22 208.17 414.75 207.08 422.38 204.94 437.44 202.42 449.44 199.15 460.16L199.33 459.81C195.84 470.85 191.68 480.22 186.57 488.44 184.69 491.4 182.67 494.22 180.6 496.79 178.58 499.3 176.3 501.75 173.64 504.29L174.06 503.98C168.79 508.87 163.02 513.08 156.89 516.47 151.2 519.53 145.3 521.81 139.35 523.25L139.57 523.25C139.57 523.25 139.84 523.21 139.84 523.21 134.82 524.32 129.86 524.9 125.1 524.9 124.57 524.9 124.04 524.9 123.51 524.87L123.28 524.87C121.54 524.78 120.12 524.66 118.8 524.51 117 524.3 115.18 523.97 113.8 523.71 110.42 523.07 106.88 522.18 103 520.98 93.32 517.92 83.34 513.22 73.34 507.01 68.46 503.95 63.55 500.49 58.75 496.72 58.61 496.61 58.43 496.55 58.25 496.55 58.01 496.55 57.8 496.65 57.65 496.83 57.52 497 57.46 497.21 57.48 497.42 57.5 497.62 57.6 497.8 57.75 497.92 70.01 507.53 81.59 514.72 93.15 519.9 99.73 522.84 106.36 525.1 112.87 526.59 116.07 527.33 119.24 527.83 122.28 528.06 123.69 528.16 125.13 528.21 126.56 528.21 128.19 528.21 129.85 528.15 131.49 528.02 137.36 527.57 143.42 526.24 149.5 524.06 155.15 522.03 160.74 519.2 166.12 515.63 171.18 512.28 175.93 508.21 180.23 503.54 184.16 499.27 187.8 494.2 191.34 488.04 197.25 477.75 201.75 465.91 205.48 450.77 206.92 444.9 208.23 438.48 209.48 431.16 210.68 424.06 211.68 416.98 212.46 410.11 214.01 396.32 214.87 381.25 215.16 362.68 215.29 354.41 215.29 346.37 215.27 338.92 215.26 334.97 215.24 331 215.2 327.05 215.17 323.19 215.2 319.33 215.24 315.47L215.27 312.25 215.3 309.03 215.22 307.63 215.22 307.39C215.01 303.83 214.81 300.16 214.9 296.55 214.85 295.71 214.8 294.86 214.76 294.03 214.62 292.74 214.47 291.46 214.31 290.17 214.31 290.17 214.27 290.14 214.27 290.14" stroke-width="0" fill="#27A495"/><path d="M154.27 279.63C154.27 279.63 154.25 279.63 154.24 279.64 154.18 279.72 154.14 279.8 154.1 279.88 153.31 281.17 152.7 282.59 152.21 283.73 151.86 284.53 151.52 285.34 151.18 286.15L150.4 288.02C149.22 290.78 148.01 293.53 146.78 296.27 144.55 301.21 142.17 306.19 139.87 311L139.13 312.54C136.56 317.93 133.94 323.29 131.32 328.66L130.53 330.27C128.08 335.3 125.63 340.32 123.21 345.36 116.91 358.46 112.24 368.7 108.08 378.55 107.16 380.73 106.25 382.92 105.36 385.11 105.17 384.86 104.93 384.63 104.69 384.4L103.37 383.18 102.73 382.59C101.23 381.2 100.1 380.1 99.08 379.02 96.58 376.38 94.51 373.87 92.76 371.34L92.66 371.2C91.34 369.22 90.12 367.12 89.04 364.98 88.92 364.74 88.67 364.59 88.4 364.59 88.29 364.59 88.18 364.62 88.09 364.67 87.75 364.84 87.61 365.27 87.78 365.62 89.68 369.45 91.92 373.88 94.63 377.98 96 380.05 97.48 381.95 99.03 383.62 99.74 384.38 100.55 385.15 101.6 386.05 102.48 386.79 103.38 387.41 104.29 387.89 103.3 390.31 102.31 392.85 101.35 395.43 99.36 400.74 97.53 406.15 95.91 411.52 89.42 432.85 86.76 451.99 87.78 470.03 87.79 470.27 88.03 470.44 88.24 470.44 88.52 470.41 88.71 470.21 88.69 469.93 88.55 467.46 88.5 464.85 88.55 462.18 88.68 455.67 89.38 448.9 90.7 441.49 91.83 435.09 93.43 428.31 95.6 420.76 97.11 415.6 98.84 410.25 100.91 404.41 103.01 398.52 105.36 392.61 107.16 388.12 111.24 377.99 115.99 367.05 121.68 354.67 127.1 342.91 132.65 331.42 137.36 321.74L138.14 320.15C140.51 315.27 142.92 310.33 145.4 305.52L146.78 302.85C148.93 298.73 151.36 294.06 153.46 289.39 154.17 287.81 154.76 286.4 155.27 285.09 155.53 284.42 155.76 283.74 155.97 283.05 156.27 282.08 156.45 281.32 156.57 280.6 156.21 280.33 155.84 280.2 155.49 280.07 155 279.9 154.64 279.77 154.28 279.64L154.27 279.64Z" stroke-width="0" fill="#27A495"/><path d="M191.3 120.08C191.21 120.08 191.12 120.11 191.05 120.15 190.82 120.28 190.74 120.57 190.87 120.84 191.66 122.45 192.44 124.19 193.34 126.3 195.23 130.79 196.88 135.32 198.25 139.76 200.03 145.54 201.2 150.64 201.84 155.35 202.31 159.05 202.36 162.06 202.01 164.88 201.8 166.35 201.48 167.6 201.03 168.7 200.72 169.38 200.37 169.99 199.94 170.57 199.54 171.07 199.11 171.5 198.63 171.89 198.19 172.21 197.71 172.49 197.21 172.72 196.52 172.98 195.8 173.17 195.06 173.29L194.86 173.35 194.88 173.35C194.42 173.36 193.86 173.39 193.3 173.39 192.37 173.39 191.34 173.32 190.08 173.15 189.35 173.15 188.87 173.58 188.74 173.71 188.38 174.06 188.18 174.55 188.18 175.05 188.18 175.55 188.39 176.05 188.74 176.4L188.88 176.51 189.11 176.7C189.42 176.88 189.74 176.96 190.08 176.96 190.95 177.07 191.92 177.13 192.94 177.13L193.42 177.13C194.25 177.11 195.04 177 195.57 176.92 196.64 176.76 197.7 176.42 198.79 175.88 200.58 174.99 202.08 173.47 203.01 171.59 203.89 169.81 204.43 167.72 204.66 165.18 204.89 162.5 204.61 159.81 204.33 157.76 203.48 151.44 201.63 145.43 200.1 140.9 198.52 136.19 196.64 131.34 194.33 126.05 193.4 123.91 192.58 122.11 191.72 120.37 191.65 120.22 191.48 120.12 191.29 120.12" stroke-width="0" fill="#DA8C67"/><path d="M166.48 182.46C166.48 182.46 166.48 182.46 166.48 182.46L166.48 182.46C165.77 186.05 165.58 189.49 165.92 192.72 166.3 196.34 167.29 199.5 168.86 202.1 169.66 203.44 170.7 204.69 171.87 205.73 172.46 206.25 173.1 206.72 173.77 207.14 174.55 207.64 175.39 208.02 176.13 208.33 177.62 208.96 179.37 209.35 181.46 209.52 181.94 209.57 182.43 209.59 182.92 209.59 184.45 209.59 185.99 209.38 187.52 208.98 191.98 207.81 195.19 204.9 197.09 202.68 198.31 201.26 199.44 199.6 200.43 197.75 200.85 196.96 201.25 196.12 201.68 195.08 202 194.3 202.45 193.22 202.75 192.11 202.78 192 202.8 191.88 202.8 191.76 200.48 191.58 198.22 191.35 196.06 191.05 192.3 190.55 188.56 189.86 184.94 189 180.83 188 177.16 186.89 173.72 185.61 171.12 184.63 168.77 183.6 166.53 182.48 166.53 182.48 166.52 182.48 166.51 182.48" stroke-width="0" fill="#021621"/><path d="M167.53 194.32C167.06 194.32 166.59 194.34 166.11 194.37 166.59 197.31 167.5 199.9 168.84 202.1 169.64 203.44 170.67 204.69 171.85 205.73 172.44 206.25 173.08 206.73 173.74 207.15 174.52 207.65 175.37 208.03 176.1 208.34 177.59 208.96 179.34 209.36 181.43 209.53 181.91 209.58 182.4 209.6 182.88 209.6 184.4 209.6 185.95 209.39 187.47 208.99 189.07 208.57 190.51 207.93 191.78 207.17 189.91 204.92 187.74 202.94 185.4 201.17 185.43 201.19 185.46 201.22 185.49 201.24 182.73 199.19 179.75 197.47 176.55 196.2 176.58 196.21 176.62 196.23 176.66 196.24 175.54 195.81 174.41 195.42 173.24 195.12 172.14 194.83 171.04 194.62 169.92 194.48L169.9 194.48C169.9 194.48 169.86 194.48 169.85 194.48L169.86 194.48C169.86 194.48 169.83 194.48 169.82 194.48 169.82 194.48 169.83 194.48 169.85 194.48 169.12 194.4 168.37 194.34 167.63 194.34L167.51 194.34Z" stroke-width="0" fill="#F68677"/><path d="M158.84 140.08 158.67 140.08C157.36 140.17 156.21 141.31 155.43 143.28 154.65 145.26 154.32 147.82 154.5 150.5 154.88 155.97 157.24 160.26 159.88 160.26 160.69 160.21 161.42 159.8 162.08 159.06 163.67 157.25 164.49 153.72 164.23 149.85 163.85 144.38 161.49 140.09 158.85 140.09" stroke-width="0" fill="#021621"/><path d="M224.7 133.88 224.55 133.88C223.86 133.93 223.21 134.29 222.63 134.95 221.17 136.63 220.39 140.05 220.63 143.66 220.98 148.79 223.2 152.81 225.68 152.81 226.49 152.77 227.15 152.43 227.75 151.75 229.21 150.08 229.99 146.66 229.75 143.04 229.39 137.91 227.17 133.89 224.7 133.89" stroke-width="0" fill="#021621"/><path d="M158.02 98.63C154.49 98.63 150.37 99.54 146.41 101.19 141.96 103.04 138.13 105.63 135.62 108.49 133.11 111.35 132.22 114.13 133.14 116.32 134.15 118.73 137.24 120.11 141.63 120.11 145.17 120.11 149.29 119.2 153.23 117.56 162.42 113.72 168.37 106.93 166.49 102.43 165.49 100.02 162.4 98.64 158.01 98.64" stroke-width="0" fill="#7C2213"/><path d="M217.82 96.38C212.46 96.38 208.68 98.11 207.96 100.9 207.44 102.9 208.54 105.2 211.06 107.36 213.58 109.52 217.2 111.29 221.27 112.34 223.72 112.98 226.25 113.32 228.59 113.32 233.96 113.32 237.75 111.59 238.47 108.8 238.99 106.8 237.88 104.51 235.36 102.35 232.84 100.19 229.22 98.42 225.15 97.37 222.68 96.73 220.14 96.38 217.81 96.38" stroke-width="0" fill="#7C2213"/></svg>