<svg viewBox="0 0 1067.46 1024.81" xmlns="http://www.w3.org/2000/svg" xmlns:xlink="http://www.w3.org/1999/xlink" id="Layer_1" overflow="hidden"><defs></defs><g><g><g><g><path d="M238.24 967.69 238.24 1020.76 352.09 1020.76C352.09 1010.64 345.23 1001.82 335.43 999.32L306.62 991.99C304.37 991.42 302.31 990.24 300.68 988.59L289.59 967.28 238.25 967.69Z" stroke-width="0" fill="#090909"/><path d="M286.54 984.96C286.18 984.96 285.84 984.75 285.68 984.4 285.47 983.92 285.68 983.36 286.15 983.15L296.18 978.62C296.66 978.41 297.22 978.62 297.43 979.09 297.64 979.57 297.43 980.13 296.96 980.34L286.93 984.87C286.8 984.93 286.67 984.95 286.54 984.95Z" stroke-width="0" fill="#E8E8E8"/><path d="M290.15 993.7C289.79 993.7 289.45 993.49 289.29 993.14 289.07 992.66 289.29 992.1 289.76 991.89L299.79 987.36C300.27 987.15 300.83 987.36 301.04 987.83 301.26 988.31 301.04 988.87 300.57 989.08L290.54 993.61C290.41 993.67 290.28 993.69 290.15 993.69Z" stroke-width="0" fill="#E8E8E8"/></g><rect x="238.24" y="1018.29" width="113.85" height="6.52" stroke-width="0" fill="#141C34"/></g><g><g><path d="M161.92 967.69 161.92 1020.76 48.08 1020.76C48.08 1010.64 54.94 1001.82 64.74 999.32L93.55 991.99C95.8 991.42 97.86 990.24 99.49 988.59L110.58 967.28 161.92 967.69Z" stroke-width="0" fill="#090909"/><path d="M113.63 984.96C113.5 984.96 113.37 984.93 113.24 984.88L103.21 980.35C102.73 980.14 102.52 979.57 102.74 979.1 102.96 978.62 103.52 978.41 103.99 978.63L114.02 983.16C114.5 983.37 114.71 983.94 114.49 984.41 114.33 984.76 113.99 984.97 113.63 984.97Z" stroke-width="0" fill="#E8E8E8"/><path d="M110.01 993.7C109.88 993.7 109.75 993.67 109.62 993.62L99.59 989.09C99.11 988.88 98.9 988.31 99.12 987.84 99.34 987.36 99.9 987.16 100.37 987.37L110.4 991.9C110.88 992.11 111.09 992.68 110.87 993.15 110.71 993.5 110.37 993.71 110.01 993.71Z" stroke-width="0" fill="#E8E8E8"/></g><rect x="48.08" y="1018.29" width="113.85" height="6.52" stroke-width="0" fill="#141C34" transform="matrix(-1 1.22465e-16 -1.22465e-16 -1 210 2043.11)"/></g><path d="M220.77 511.73 140.03 477.86C135.59 476 130.63 479.03 130.26 483.83L93.43 959.68C93.11 963.78 96.36 967.29 100.47 967.29L169.26 967.29C174.21 967.29 178.36 963.56 178.89 958.63L217.01 600.13 220.17 967.46C220.2 971.34 223.35 974.46 227.23 974.46L299.77 974.46C303.6 974.46 306.73 971.41 306.83 967.58L319.17 497.13C319.29 492.44 314.89 488.94 310.35 490.11L225.27 512.05C223.78 512.44 222.2 512.32 220.77 511.72Z" stroke-width="0" fill="#160601"/></g><g><path d="M286.77 41.99C287 41.69 287.25 41.4 287.46 41.07 297.04 26.49 294.47 4.22 264.69 0.38 254.55-0.93 244.85 1.32 236.45 4.84 232.1 4.66 227.67 4.59 223.25 4.67 164.73 5.72 165.93 58.9 170.38 86.04 173.53 82.83 177.84 80.74 182.68 80.51L190.47 80.14 192.7 80.03C191.88 70.48 191.27 61.34 192.04 61.34 201.56 61.36 207.93 51.07 211.71 41.87 216.18 39.49 223.33 38.31 234.77 40.59 234.77 40.59 242.08 44.03 251.42 46.56 249.48 50.74 248.34 55.59 248.34 60.8 248.34 76.29 258.23 88.86 270.42 88.86 282.61 88.86 292.5 76.3 292.5 60.8 292.5 53.56 290.32 46.98 286.77 42Z" stroke-width="0" fill="#090909"/><g><g><path d="M190.46 80.12 182.67 80.5 190.46 80.12 190.46 80.12Z" stroke-width="0" fill="none"/><path d="M216.14 27.75C216.14 27.75 209.23 61.37 192.03 61.33 191.26 61.33 191.88 70.47 192.69 80.02L190.46 80.13 190.46 80.13 182.67 80.5C177.82 80.73 173.52 82.82 170.37 86.03 166.89 89.58 164.83 94.49 165.09 99.85L165.09 99.85C165.58 110.05 174.24 117.92 184.44 117.44L186.33 117.35 186.33 192.89C186.33 210.55 200.65 224.87 218.31 224.87L224.95 224.87C242.61 224.87 256.93 210.55 256.93 192.89L256.93 155.54C272.89 150.75 284.17 135.62 283.34 118.22L280.21 52.69C280.02 48.76 279.22 45.01 277.92 41.51 261.44 45.71 220.74 40.29 216.14 27.75Z" stroke-width="0" fill="#FF9677"/><path d="M256.93 155.58C256.93 155.58 220.16 156.19 213.33 146.05 213.33 146.05 221.69 170.74 256.75 179.55L256.94 155.58Z" stroke-width="0" fill="#FD6A48"/></g><path d="M181 105.43C180.54 105.43 180.1 105.18 179.88 104.75 179.56 104.13 179.8 103.37 180.42 103.05L184.84 100.77 180.75 93.07C180.42 92.45 180.66 91.69 181.27 91.36 181.89 91.03 182.65 91.27 182.98 91.88L188.27 101.83 181.58 105.28C181.4 105.38 181.2 105.42 181 105.42Z" stroke-width="0" fill="#FD6A48"/></g><g><path d="M248.33 140.32C248.01 140.32 247.68 140.2 247.44 139.95 246.95 139.46 246.94 138.67 247.44 138.17 249.1 136.49 253.51 133.92 258.27 136.25 258.9 136.56 259.16 137.31 258.85 137.94 258.55 138.57 257.79 138.83 257.16 138.52 252.87 136.42 249.37 139.81 249.23 139.96 248.98 140.2 248.66 140.33 248.34 140.33Z" stroke-width="0" fill="#FD6A48"/><g><path d="M218.08 68.44C219.84 68.9 221.94 68.36 223.99 67.96 226.05 67.51 228.14 67.12 229.96 66.84 231.79 66.56 233.9 66.3 236 66.11 238.08 65.87 240.26 65.74 241.77 64.78 243.23 63.87 243.58 61.88 241.36 59.83 239.27 57.83 234.33 56.06 228.28 56.98 222.25 57.93 218.14 61.09 216.82 63.62 215.4 66.23 216.39 68.02 218.08 68.44Z" stroke-width="0" fill="#090909"/><path d="M275.51 69.33C274.14 69.69 272.5 69.29 270.9 68.98 269.29 68.64 267.66 68.34 266.24 68.13 264.81 67.92 263.17 67.73 261.53 67.58 259.9 67.4 258.21 67.31 257.03 66.57 255.88 65.87 255.61 64.31 257.33 62.71 258.95 61.14 262.8 59.74 267.52 60.43 272.23 61.14 275.44 63.59 276.48 65.56 277.6 67.59 276.84 68.99 275.52 69.32Z" stroke-width="0" fill="#090909"/></g><path d="M262.54 84.01C261.67 85.85 262.46 88.05 264.3 88.92 266.14 89.79 268.34 89 269.21 87.16 270.08 85.32 269.29 83.12 267.45 82.25 265.61 81.38 263.41 82.17 262.54 84.01Z" stroke-width="0" fill="#090909"/><path d="M225.46 85.36C224.52 87.35 225.37 89.73 227.36 90.67 229.35 91.61 231.73 90.76 232.67 88.77 233.61 86.78 232.76 84.4 230.77 83.46 228.78 82.52 226.4 83.37 225.46 85.36Z" stroke-width="0" fill="#090909"/><path d="M261.11 91.73C260.9 91.73 260.69 91.66 260.51 91.52 260.11 91.19 260.05 90.6 260.38 90.2 260.42 90.15 264.36 85.45 270.93 89.68 271.37 89.96 271.5 90.55 271.21 90.99 270.93 91.43 270.34 91.56 269.9 91.27 264.79 87.98 261.96 91.27 261.84 91.4 261.65 91.63 261.38 91.74 261.11 91.74Z" stroke-width="0" fill="#FD6A48"/><path d="M224.22 93.74C224.01 93.74 223.8 93.67 223.62 93.52 223.22 93.19 223.16 92.6 223.49 92.2 223.53 92.15 227.47 87.45 234.04 91.68 234.48 91.96 234.61 92.55 234.32 92.99 234.04 93.43 233.45 93.56 233.01 93.27 227.9 89.98 225.07 93.27 224.95 93.4 224.76 93.63 224.49 93.74 224.22 93.74Z" stroke-width="0" fill="#FD6A48"/><path d="M246.67 105.42C245.15 105.42 243.51 105.31 241.78 105.09 241.26 105.03 240.89 104.55 240.96 104.03 241.02 103.51 241.51 103.13 242.02 103.21 244.14 103.47 246.1 103.57 247.85 103.5 251.19 103.36 254.01 102.03 255.23 100.02 255.91 98.89 255.98 97.68 255.43 96.51L247.14 78.88C246.92 78.41 247.12 77.84 247.59 77.62 248.06 77.39 248.62 77.6 248.85 78.07L257.14 95.7C257.96 97.45 257.86 99.33 256.85 101 255.31 103.54 251.89 105.23 247.93 105.39 247.52 105.41 247.1 105.42 246.67 105.42Z" stroke-width="0" fill="#FD6A48"/><path d="M231.39 109.81C232.79 108.7 234.78 108.77 236.2 109.87 238.78 111.86 244.32 115.31 251.85 115.44 253.7 115.47 254.83 117.53 254.18 119.26 252.76 123.07 248.6 129.11 238.57 125.4 226.35 120.88 227.73 112.71 231.38 109.81Z" stroke-width="0" fill="#FFFFFF"/></g></g><g><g><path d="M358.55 554.47C371.15 555.33 380.62 566.32 379.62 578.91L378.77 589.56C378.77 589.56 372.52 662.18 344.12 650.9 344.12 650.9 333.37 649.4 334.24 643.33 339.49 606.63 337.46 599.3 337.46 599.3 337.67 600.8 334.36 605.05 333.54 606.37 332.04 608.79 330.36 611.1 328.25 613.03 324.66 616.33 319.38 617.42 315.25 614.25 314.54 613.7 313.87 612.98 313.78 612.1 313.7 611.3 314.09 610.54 314.48 609.84 318.18 603.1 322.65 596.8 326.21 589.99 326.21 589.99 323.61 578.25 331.15 568.14 331.36 567.85 331.57 567.57 331.77 567.28 337.84 558.61 347.99 553.76 358.55 554.48L358.55 554.48Z" stroke-width="0" fill="#FF9677"/><g><path d="M265.59 179.88 221.63 227.6 178.52 185.44 180.4 436.76 173 517.1 268.96 517.1 262.02 441.82 265.59 179.88Z" stroke-width="0" fill="#F8EEE2"/><g><path d="M178.52 185.44 178.43 173.98 98.94 198.42C85.44 202.57 76.97 215.94 78.99 229.92L96.64 352.24 110.57 392.41 119.55 418.31 108.22 502.13 104.31 531.07C103.5 536.66 107.67 541.75 113.32 542.03L163.55 544.59C167.4 544.79 170.71 541.91 171.07 538.08L173 517.1 180.4 436.76 178.52 185.44Z" stroke-width="0" fill="#2FC3B0"/><path d="M177.19 175.68 99.32 199.62C86.32 203.61 78.3 216.28 80.25 229.74L97.9 352.06 120.85 418.18 120.81 418.48 105.57 531.24C105.23 533.57 105.89 535.93 107.37 537.74 108.86 539.55 111.05 540.65 113.38 540.78L163.61 543.34C166.81 543.48 169.51 541.14 169.81 537.97L179.15 436.65 177.19 175.69Z" stroke-width="0" fill="#2FC3B0"/></g><g><path d="M364.12 243.22C361.13 217.24 342.53 195.74 317.25 189.04L265.64 175.38 265.58 179.87 262.02 441.82 268.96 517.1 271.36 543.15C271.71 546.99 275.03 549.86 278.88 549.66L320.92 549.53 323.05 566.43C323.42 569.39 325.83 571.68 328.8 571.9L382.75 575.92C387.16 576.25 390.83 572.56 390.47 568.15L364.13 243.23Z" stroke-width="0" fill="#2FC3B0"/><path d="M383.29 577.19C383.08 577.19 382.87 577.19 382.66 577.17L328.71 573.15C325.15 572.88 322.24 570.12 321.8 566.58L319.81 550.78 278.89 550.91C274.44 551.16 270.53 547.78 270.11 543.25L260.77 441.93 264.41 173.74 317.58 187.82C343.55 194.7 362.31 216.38 365.38 243.07L365.38 243.11C365.38 243.11 391.73 568.03 391.73 568.03 391.93 570.5 391.04 572.92 389.3 574.68 387.7 576.29 385.54 577.18 383.3 577.18Z" stroke-width="0" fill="#2FC3B0"/></g></g><path d="M276.99 433.73C272.2 433.73 268.3 429.83 268.3 425.04 268.3 420.25 272.2 416.36 276.99 416.36 281.78 416.36 285.67 420.26 285.67 425.04 285.67 429.82 281.77 433.73 276.99 433.73ZM276.99 418.88C273.59 418.88 270.83 421.64 270.83 425.04 270.83 428.44 273.59 431.2 276.99 431.2 280.39 431.2 283.15 428.43 283.15 425.04 283.15 421.65 280.39 418.88 276.99 418.88Z" stroke-width="0" fill="#186258"/><path d="M313.79 550.96C313.11 550.96 312.55 550.42 312.53 549.73 312.51 549.04 313.06 548.46 313.76 548.44L324.03 548.19C328.77 548.14 335.31 546.12 338.14 542.47 339.31 540.96 339.7 539.32 339.27 537.59L319.64 416.06 319.64 415.91C319.64 415.91 327.56 304.95 327.56 304.95 327.61 304.26 328.18 303.71 328.91 303.78 329.6 303.83 330.13 304.43 330.08 305.13L322.18 415.94 341.75 537.08C342.34 539.46 341.79 541.89 340.14 544.01 336.79 548.33 329.53 550.64 324.08 550.7L313.82 550.95 313.79 550.95Z" stroke-width="0" fill="#186258"/></g><g><g><path d="M257.85 193.87 242.96 234.44C236.44 252.2 211.43 252.48 204.52 234.87L191.45 201.59 257.85 193.87Z" stroke-width="0" fill="#186258"/><g><path d="M265.46 168.54 268.51 190.94 251.21 220.31C249.6 223.04 245.79 223.4 243.71 221.02L223.79 198.31 257.27 165.72C260.12 162.94 264.92 164.6 265.46 168.54Z" stroke-width="0" fill="#F8EEE2"/><path d="M247.19 223.86C245.49 223.86 243.9 223.14 242.76 221.85L222.05 198.24 256.39 164.82C258.05 163.2 260.45 162.67 262.64 163.42 264.83 164.18 266.39 166.07 266.7 168.37L269.81 191.2 252.28 220.95C251.31 222.6 249.65 223.65 247.74 223.83 247.55 223.85 247.36 223.86 247.17 223.86Z" stroke-width="0" fill="#2FC3B0"/></g><g><path d="M185.4 164.27 223.79 198.31 202.53 221.59C200.52 223.8 197.01 223.67 195.16 221.32L171.95 191.88 181.64 165.23C182.21 163.67 184.16 163.18 185.4 164.28Z" stroke-width="0" fill="#F8EEE2"/><path d="M198.96 224.42C198.89 224.42 198.81 224.42 198.74 224.42 196.95 224.35 195.28 223.51 194.17 222.1L170.53 192.11 180.46 164.8C180.87 163.68 181.81 162.83 182.97 162.53 184.12 162.23 185.35 162.53 186.25 163.33L225.6 198.22 203.48 222.44C202.32 223.71 200.69 224.43 198.98 224.43Z" stroke-width="0" fill="#2FC3B0"/></g></g><path d="M252.14 342.2 235.76 242.5 229.85 241.26 229.94 239.06 224.65 240.17 219.37 239.06 219.45 241.26 213.55 242.5 197.16 342.2 224.56 385.1 224.65 382.51 224.75 385.1 252.14 342.2Z" stroke-width="0" fill="#186258"/></g><g><rect x="124.56" y="263.22" rx="3.13" ry="3.13" width="120.16" height="179" stroke-width="0" fill="#090909"/><g><g><path d="M251.95 377.26 252.18 376.01C252.92 371.93 250.21 368.02 246.12 367.28L237.38 365.7 243.92 366.88C247.66 367.56 251.24 365.08 251.91 361.34 252.75 356.71 249.79 352.24 245.19 351.24 239.96 350.11 232.87 349.08 225.96 349.64 212.61 350.73 182.71 350.89 182.71 350.89L160.58 354.56 163.67 416.01 222.63 407.22C227.59 408.12 232.35 404.82 233.24 399.86 233.5 398.41 232.54 397.03 231.1 396.77L228.62 396.32 235.09 397.49C239.65 398.32 244.01 395.29 244.84 390.73L245.01 389.78C245.62 386.42 243.39 383.2 240.03 382.59L231.11 380.98 243.39 383.2C247.4 383.93 251.23 381.26 251.96 377.26Z" stroke-width="0" fill="#FF9677"/><path d="M234.11 366.87C233.25 366.68 232.7 365.85 232.86 364.98 233.03 364.09 233.88 363.51 234.76 363.67L246.41 365.82C247.27 365.88 247.88 366.83 247.72 367.72 247.55 368.61 246.7 369.19 245.82 369.03L234.17 366.88C234.17 366.88 234.13 366.88 234.11 366.87Z" stroke-width="0" fill="#FD6A48"/><path d="M242.84 385.06C242.84 385.06 242.82 385.06 242.82 385.06L228.26 381.61C227.38 381.4 226.84 380.52 227.05 379.64 227.26 378.76 228.15 378.32 229.02 378.43L243.58 381.88C244.46 382.09 245 382.97 244.79 383.85 244.58 384.72 243.72 385.26 242.85 385.07Z" stroke-width="0" fill="#FD6A48"/><path d="M221.66 396.26C220.8 396.07 220.25 395.24 220.41 394.37 220.58 393.48 221.43 392.9 222.32 393.06L233.27 395.09C234.15 395.19 234.74 396.1 234.58 396.99 234.41 397.88 233.56 398.46 232.67 398.3L221.72 396.27C221.72 396.27 221.69 396.27 221.67 396.26Z" stroke-width="0" fill="#FD6A48"/></g><path d="M181.6 351.08C181.6 351.08 191.78 340.27 203.13 340.06 214.47 339.85 230.99 350.58 230.99 350.58L181.6 351.08Z" stroke-width="0" fill="#FF9677"/><path d="M196.9 351.58 229.5 349.65C229.5 349.65 199.93 346.18 196.9 351.58Z" stroke-width="0" fill="#FD6A48"/></g><g><g><path d="M46.37 450.31C32.85 447.44 20.97 440.25 12.38 429.17-3.77 408.34-4.12 379.62 11.32 353.76L77.84 221.75C88.1 201.4 115.02 254.27 115.02 254.27L99.96 359.31 163.53 343.62C168 342.52 172.33 345.88 172.37 350.49L172.91 417.09C172.95 421.52 169.97 425.4 165.69 426.52L82.44 448.29C69.93 452.1 57.59 452.69 46.38 450.31Z" stroke-width="0" fill="#2FC3B0"/><path d="M83.92 218.35 83.92 218.35C81.93 218.35 80.31 219.65 78.97 222.32L12.45 354.33C-2.72 379.76-2.35 408.11 13.38 428.4 21.65 439.06 33.15 446.21 46.63 449.08L46.63 449.08C57.76 451.44 70.01 450.76 82.06 447.09L165.36 425.31C169.09 424.34 171.67 420.96 171.64 417.11L171.1 350.51C171.09 348.7 170.26 347.03 168.83 345.92 167.4 344.81 165.58 344.42 163.82 344.86L98.44 360.99 113.7 254.49C108.36 244.09 93.15 218.35 83.92 218.35Z" stroke-width="0" fill="#2FC3B0"/></g><path d="M98.17 361.2 114.17 298.99C114.34 298.31 115.03 297.91 115.71 298.08 116.39 298.25 116.79 298.94 116.62 299.62L101.75 357.43 124.18 350.38C124.85 350.17 125.55 350.54 125.76 351.21 125.97 351.87 125.6 352.58 124.93 352.79L98.17 361.2Z" stroke-width="0" fill="#186258"/><path d="M158.89 418.89C155.64 418.89 152.99 416.24 152.99 412.99 152.99 409.74 155.64 407.09 158.89 407.09 162.14 407.09 164.79 409.74 164.79 412.99 164.79 416.24 162.14 418.89 158.89 418.89ZM158.89 409.61C157.03 409.61 155.51 411.13 155.51 412.99 155.51 414.85 157.03 416.37 158.89 416.37 160.75 416.37 162.27 414.85 162.27 412.99 162.27 411.13 160.75 409.61 158.89 409.61Z" stroke-width="0" fill="#186258"/></g></g></g></g><g><g><path d="M1010.18 193.57C1009.75 192.86 1009.29 192.17 1008.8 191.5 1006.38 188.21 1004.43 184.48 1005.71 180.63 1006.59 177.98 1008.55 175.68 1009.78 173.16 1013.92 164.67 1011.56 150.56 1004.05 143.56 1000.72 140.45 997.92 138.6 994.68 136.91 998.11 121.2 998.82 107.77 998.41 104.22 997.15 93.24 995.68 83.04 983.69 75.46 983.27 75.19 982.82 74.95 982.38 74.7 981.36 66.11 973.17 61.08 964.11 58.27 957.13 48.21 946.44 40.59 933.51 37.78 917.55 34.32 898.2 36.83 878.59 55.28L858.57 66.66C848.58 72.34 843.65 84.01 846.54 95.13L854.17 124.47C855.02 125.2 855.81 125.83 856.63 126.5 853.19 128.44 850.39 130.4 847.09 133.93 840.42 141.04 839.09 155.08 843.57 163.39 844.9 165.86 846.91 168.1 847.91 170.7 849.37 174.49 847.76 178.23 845.68 181.55 845.26 182.23 844.86 182.92 844.5 183.63 843.06 186.47 842.19 189.55 842.3 192.67 842.45 197.09 844.76 201.56 848.93 204 853.06 206.41 858.31 206.58 863.26 206.51 864.72 206.49 885.27 204.81 912 202.51 913.49 208.93 915.88 212.86 919.44 213.07 957.3 215.32 990.1 217.11 992 217.09 997.21 217.04 1002.73 216.74 1006.91 214.2 1011.12 211.64 1013.25 207.07 1013.11 202.62 1013.01 199.47 1011.89 196.39 1010.18 193.57Z" stroke-width="0" fill="#090909"/><g><g><path d="M912.05 96.14C916.09 100.04 921.05 102.83 926.42 104.29 929.4 115.36 935.03 123.72 940.96 124.86L946.12 123.88 955.43 124.37C964.97 124.87 972.36 133.09 971.86 142.63L971.84 143.03C971.34 152.57 963.12 159.96 953.58 159.46L946.62 159.09 947.32 214.23C946.93 229.94 931.26 238.51 915.3 238.11L914.64 238.09C898.68 237.69 885.94 224.52 886.33 208.81L886.67 195.08C868.5 191.69 856.02 173.05 858.53 152.4L865.15 97.89C869.77 99.95 875.43 101.84 882.35 103.25 894.2 105.66 904.16 101.89 912.05 96.13Z" stroke-width="0" fill="#FFA484"/><path d="M886.67 195.1C886.67 195.1 920.73 197.19 926.74 185.21 932.75 173.23 926.74 185.21 926.74 185.21 926.74 185.21 928.52 207.86 886.35 210.76L886.67 195.1Z" stroke-width="0" fill="#FD6A48"/><path d="M956.18 148.23C956.67 148.25 957.16 148.02 957.45 147.58 957.91 146.9 957.73 145.98 957.06 145.52L952.89 142.69 957.89 137.33C958.45 136.73 958.42 135.79 957.82 135.24 957.23 134.68 956.28 134.71 955.73 135.31L949.55 141.94C949.25 142.26 949.11 142.69 949.16 143.12 949.21 143.55 949.44 143.94 949.8 144.18L955.4 147.98C955.64 148.14 955.91 148.23 956.18 148.23Z" stroke-width="0" fill="#FD6A48"/><path d="M955.8 179.96C952.07 179.96 948.75 174.21 948 166.31 947.65 162.67 947.94 159.16 948.8 156.45 949.77 153.38 951.42 151.58 953.43 151.39 955.4 151.18 957.39 152.65 958.93 155.49 960.29 158 961.22 161.38 961.57 165.03L961.57 165.03C962.34 173.17 960.01 179.58 956.15 179.95 956.03 179.96 955.92 179.97 955.81 179.97ZM953.77 153.89C953.77 153.89 953.7 153.89 953.67 153.89 952.77 153.98 951.82 155.24 951.21 157.2 950.45 159.6 950.2 162.75 950.52 166.06 951.21 173.36 954.24 177.55 955.91 177.42 957.69 177.25 959.75 172.54 959.06 165.25L959.06 165.25C958.75 161.94 957.91 158.89 956.71 156.68 955.77 154.94 954.65 153.89 953.77 153.89Z" stroke-width="0" fill="#FF8D1D"/></g><g><path d="M863.13 137.17C863.26 137.27 863.45 137.41 863.63 137.55 863.5 137.45 863.33 137.32 863.13 137.17Z" stroke-width="0" fill="#291F19"/><path d="M862.98 137.05C863.04 137.09 863.08 137.13 863.13 137.17 863.04 137.1 862.98 137.05 862.98 137.05Z" stroke-width="0" fill="#291F19"/><path d="M863.63 137.55C864.48 138.19 864.09 137.9 863.63 137.55L863.63 137.55Z" stroke-width="0" fill="#291F19"/><g><path d="M865.57 133.5C865.47 135.36 866.89 136.94 868.74 137.04 870.59 137.14 872.18 135.72 872.28 133.87 872.38 132.01 870.96 130.43 869.11 130.33 867.25 130.23 865.67 131.65 865.57 133.5Z" stroke-width="0" fill="#090909"/><path d="M900.36 135.3C900.26 137.16 901.68 138.74 903.53 138.84 905.39 138.94 906.97 137.52 907.07 135.67 907.17 133.81 905.75 132.23 903.9 132.13 902.04 132.03 900.46 133.45 900.36 135.3Z" stroke-width="0" fill="#090909"/><path d="M882.41 176.1C882.56 176.15 882.72 176.16 882.88 176.1 883.04 176.04 886.89 174.79 889.34 177.96 889.58 178.27 890.02 178.32 890.32 178.09 890.63 177.85 890.68 177.41 890.45 177.11 887.37 173.14 882.48 174.77 882.43 174.78 882.07 174.91 881.87 175.3 882 175.67 882.07 175.88 882.23 176.03 882.42 176.1Z" stroke-width="0" fill="#B12812"/><g><path d="M918.26 122.27C916.99 122.54 915.51 122.09 914.06 121.74 912.6 121.36 911.13 121 909.84 120.75 908.55 120.49 907.05 120.24 905.56 120.03 904.08 119.79 902.53 119.63 901.49 118.9 900.47 118.21 900.29 116.77 901.94 115.38 903.5 114.02 907.08 112.92 911.36 113.77 915.63 114.64 918.46 117.03 919.32 118.88 920.25 120.79 919.49 122.03 918.27 122.28Z" stroke-width="0" fill="#090909"/><path d="M861.31 117.88C862.51 118.36 864.05 118.17 865.54 118.06 867.04 117.93 868.55 117.83 869.87 117.79 871.19 117.75 872.71 117.76 874.21 117.81 875.71 117.82 877.26 117.93 878.42 117.38 879.54 116.87 879.96 115.48 878.57 113.84 877.26 112.24 873.92 110.55 869.55 110.66 865.19 110.8 862 112.68 860.84 114.35 859.6 116.07 860.14 117.43 861.3 117.88Z" stroke-width="0" fill="#090909"/></g><path d="M907.37 154.63C906.21 153.65 904.51 153.66 903.27 154.55 901.02 156.18 896.21 158.96 889.79 158.87 888.22 158.85 887.2 160.56 887.7 162.06 888.81 165.34 892.18 170.6 900.82 167.71 911.34 164.19 910.39 157.2 907.36 154.64Z" stroke-width="0" fill="#FFFFFF"/></g><path d="M900.74 140.61C900.34 140.61 899.95 140.42 899.71 140.07 899.31 139.5 899.45 138.71 900.02 138.31 902.85 136.34 907.34 137.92 907.84 138.11 908.49 138.35 908.82 139.08 908.58 139.73 908.34 140.38 907.6 140.71 906.96 140.47 905.93 140.09 902.95 139.34 901.46 140.37 901.24 140.52 900.99 140.6 900.74 140.6Z" stroke-width="0" fill="#FD6A48"/><path d="M865.29 138.48C864.89 138.48 864.5 138.29 864.26 137.94 863.86 137.37 864 136.58 864.58 136.18 867.4 134.21 871.9 135.8 872.4 135.98 873.05 136.22 873.38 136.95 873.14 137.6 872.9 138.25 872.16 138.58 871.52 138.34 870.5 137.96 867.51 137.2 866.02 138.24 865.8 138.39 865.55 138.47 865.3 138.47Z" stroke-width="0" fill="#FD6A48"/><path d="M891.1 151.03C891.1 151.03 891.01 151.03 890.97 151.03L884.6 150.39C882.66 150.2 880.93 149.25 879.73 147.72 878.52 146.19 878 144.29 878.26 142.36L878.48 140.76C878.83 138.14 881.01 136.19 883.66 136.14L884.41 136.14C884.41 136.14 886.04 126.27 886.04 126.27 886.15 125.58 886.79 125.11 887.49 125.23 888.17 125.34 888.64 125.99 888.53 126.68L886.56 138.61 883.71 138.67C882.31 138.7 881.17 139.72 880.98 141.1L880.76 142.7C880.59 143.94 880.93 145.17 881.71 146.16 882.49 147.15 883.61 147.76 884.86 147.88L891.23 148.52C891.92 148.59 892.43 149.21 892.36 149.9 892.3 150.55 891.75 151.04 891.11 151.04Z" stroke-width="0" fill="#FD6A48"/></g></g></g><g><g><path d="M1018.4 1004.53 1001.13 997.06 1001.13 997.06C994.24 1004.24 980.55 1009.49 971.33 1005.75L926.84 987.69C925.58 995.1 925.08 1002.63 925.37 1010.14L925.92 1024.81 943.21 1024.81 941.24 1011.51 964.81 1024.81 1030.66 1024.81 1030.66 1024.47C1030.66 1016.04 1025.92 1008.33 1018.4 1004.52Z" stroke-width="0" fill="#090909"/><path d="M1001.13 997.06 1001.13 997.06C1001.13 997.06 974.53 982.72 974.53 982.72L972.69 920.51 925.29 917.98 926.84 987.69 971.33 1005.75C980.55 1009.49 994.24 1004.24 1001.13 997.06Z" stroke-width="0" fill="#FFA484"/></g><g><path d="M791.21 1005.75C781.99 1009.49 768.3 1004.24 761.41 997.06L761.41 997.06C761.41 997.06 744.14 1004.53 744.14 1004.53 736.62 1008.33 731.88 1016.05 731.88 1024.48L731.88 1024.82 797.73 1024.82 821.3 1011.52 819.33 1024.82 836.62 1024.82 837.17 1010.15C837.45 1002.64 836.96 995.11 835.7 987.7L791.21 1005.76Z" stroke-width="0" fill="#090909"/><path d="M791.21 1005.75 835.7 987.69 837.25 917.98 789.85 920.51 788.01 982.72 761.41 997.06 761.41 997.06C768.3 1004.24 781.99 1009.49 791.21 1005.75Z" stroke-width="0" fill="#FFA484"/></g><path d="M998.35 433.36 867.83 433.36 869.03 433.36 833.5 433.36C832.72 433.36 831.96 433.67 831.4 434.22 815.93 449.58 807.16 470.81 807.13 493.02 807.13 493.09 807.13 493.15 807.13 493.22L765.7 975.41C765.52 977.46 767.3 979.11 769.25 978.71 769.25 978.71 853.96 978.06 854.21 976.85L903.81 574.18C905.4 561.82 900.32 975.71 901.81 975.86 901.81 975.86 993.28 976.46 993.42 974.75L1022.75 523.85C1024.14 506.17 1020.91 478.91 1015.18 462.18 1010.62 448.86 1005.47 438.08 998.35 433.37Z" stroke-width="0" fill="#160601"/></g><g><g><g><path d="M1065.19 340.26C1066.66 337.36 1062.43 326.09 1061.7 322.8 1060.46 317.25 1058.87 311.91 1057.29 306.46 1049.85 280.82 1040.65 253.75 1017.93 237.54 996.64 222.35 968.85 220.86 942.73 219.38 926.05 218.44 933.21 232.46 916.46 232.3 905.35 232.2 891.79 215.11 859.25 218.71 845.46 220.24 831.81 224.04 819.47 230.51 800.21 240.6 787.15 259.28 779.09 279.01 774.96 289.12 772.02 299.72 770.11 310.47 769.17 315.79 768.48 321.15 768.07 326.54 767.66 331.85 765.7 336.96 771.37 338.02 774.95 338.69 815.89 340.01 820.12 340.2 820.19 340.2 821.51 340.3 821.52 340.26L833.03 432.16 998.33 433.37 997.03 331.05 1004.12 341.78C1004.12 341.78 1065.16 340.26 1065.16 340.26Z" stroke-width="0" fill="#F04C86"/><path d="M834.16 430.9 997.07 432.09 995.73 326.76 1004.81 340.5 1064.23 339.02C1064.49 336.53 1062.54 330.14 1061.55 326.9 1061.06 325.29 1060.64 323.92 1060.45 323.08 1059.34 318.09 1057.96 313.37 1056.51 308.36L1056.06 306.82C1048.56 280.97 1039.37 254.41 1017.18 238.58 996.3 223.69 969.26 222.16 943.1 220.68L942.65 220.65C934.94 220.23 932.92 223.06 930.59 226.36 928.19 229.74 925.47 233.58 916.72 233.58 916.63 233.58 916.54 233.58 916.44 233.58 912.33 233.54 908.17 231.47 902.9 228.85 893.39 224.13 880.38 217.65 859.38 219.98 845.02 221.57 831.79 225.49 820.05 231.64 798.77 242.79 786.66 263.82 780.25 279.49 776.3 289.17 773.3 299.67 771.35 310.7 770.41 315.99 769.74 321.35 769.33 326.64 769.25 327.63 769.12 328.62 769 329.57 768.36 334.43 768.42 336.19 771.61 336.79 774.35 337.3 801.66 338.28 813.32 338.69 816.77 338.81 819.29 338.9 820.18 338.94 820.26 338.94 820.35 338.95 820.44 338.96L821.62 330.95 834.14 430.91Z" stroke-width="0" fill="#F04C86"/></g><g><path d="M958.23 203.64C957.64 199.52 952.32 197.81 949.14 200.72L914.02 232.86 878.9 200.72C875.72 197.81 870.39 199.52 869.81 203.64L866.48 227.04 885.81 257.8C887.61 260.66 891.84 261.04 894.16 258.56L914.03 237.25 933.9 258.56C936.22 261.04 940.45 260.66 942.25 257.8L961.58 227.04 958.25 203.64Z" stroke-width="0" fill="#F8EEE2"/><path d="M890.3 261.47C890.08 261.47 889.86 261.47 889.64 261.44 887.58 261.24 885.79 260.16 884.73 258.47L865.16 227.32 868.55 203.46C868.88 201.13 870.46 199.24 872.76 198.41 875.18 197.54 877.86 198.06 879.74 199.78L914.01 231.14 948.28 199.78C950.15 198.06 952.82 197.54 955.26 198.41 957.57 199.24 959.15 201.12 959.48 203.46L962.87 227.32 962.63 227.71 943.3 258.47C942.24 260.16 940.45 261.24 938.39 261.44 936.32 261.63 934.34 260.9 932.96 259.42L914.02 239.1 895.07 259.42C893.84 260.74 892.13 261.47 890.3 261.47Z" stroke-width="0" fill="#B43965"/></g><g><path d="M914.02 434.92C913.32 434.92 912.76 434.36 912.76 433.66L912.76 232.86C912.76 232.16 913.32 231.6 914.02 231.6 914.72 231.6 915.28 232.16 915.28 232.86L915.28 433.66C915.28 434.36 914.72 434.92 914.02 434.92Z" stroke-width="0" fill="#B43965"/><path d="M900.7 365.53C898.05 365.53 895.9 363.38 895.9 360.73 895.9 358.08 898.05 355.93 900.7 355.93 903.35 355.93 905.5 358.08 905.5 360.73 905.5 363.38 903.35 365.53 900.7 365.53ZM900.7 358.45C899.45 358.45 898.42 359.47 898.42 360.73 898.42 361.99 899.44 363.01 900.7 363.01 901.96 363.01 902.98 361.99 902.98 360.73 902.98 359.47 901.96 358.45 900.7 358.45Z" stroke-width="0" fill="#B43965"/><path d="M900.7 404.59C898.05 404.59 895.9 402.44 895.9 399.79 895.9 397.14 898.05 394.99 900.7 394.99 903.35 394.99 905.5 397.14 905.5 399.79 905.5 402.44 903.35 404.59 900.7 404.59ZM900.7 397.51C899.45 397.51 898.42 398.53 898.42 399.79 898.42 401.05 899.44 402.07 900.7 402.07 901.96 402.07 902.98 401.05 902.98 399.79 902.98 398.53 901.96 397.51 900.7 397.51Z" stroke-width="0" fill="#B43965"/><path d="M900.7 290.78C898.05 290.78 895.9 288.63 895.9 285.98 895.9 283.33 898.05 281.18 900.7 281.18 903.35 281.18 905.5 283.33 905.5 285.98 905.5 288.63 903.35 290.78 900.7 290.78ZM900.7 283.7C899.45 283.7 898.42 284.72 898.42 285.98 898.42 287.24 899.44 288.26 900.7 288.26 901.96 288.26 902.98 287.24 902.98 285.98 902.98 284.72 901.96 283.7 900.7 283.7Z" stroke-width="0" fill="#B43965"/><path d="M900.7 329.84C898.05 329.84 895.9 327.69 895.9 325.04 895.9 322.39 898.05 320.24 900.7 320.24 903.35 320.24 905.5 322.39 905.5 325.04 905.5 327.69 903.35 329.84 900.7 329.84ZM900.7 322.76C899.45 322.76 898.42 323.78 898.42 325.04 898.42 326.3 899.44 327.32 900.7 327.32 901.96 327.32 902.98 326.3 902.98 325.04 902.98 323.78 901.96 322.76 900.7 322.76Z" stroke-width="0" fill="#B43965"/></g></g><g><path d="M1060.13 342.1 1002.24 340.28 1005 546.67C997.56 555.04 998.86 565.61 998.86 565.61 995.11 571.39 990.59 576.63 986.71 582.33 986.31 582.92 985.89 583.57 985.9 584.29 985.9 585.09 986.44 585.79 987.03 586.34 990.44 589.52 995.24 588.99 998.73 586.35 1000.77 584.81 1002.48 582.88 1004.02 580.85 1004.86 579.74 1008.17 576.23 1008.12 574.87 1008.12 574.87 1009.31 581.58 1001.51 613.89 1000.22 619.23 1009.69 621.48 1009.69 621.48 1034.08 633.95 1045.81 569.67 1045.81 569.67L1047.47 560.24C1048.12 556.55 1047.71 552.93 1046.5 549.66L1060.14 342.09Z" stroke-width="0" fill="#FFA484"/><rect x="997.02" y="331.62" rx="1.77" ry="1.77" width="70.44" height="17.68" stroke-width="0" fill="#B43965"/><path d="M1000.71 342.45C1000.19 342.45 999.7 342.12 999.52 341.61L982.66 293.44C982.43 292.78 982.78 292.06 983.43 291.83 984.09 291.59 984.8 291.95 985.04 292.6L1001.9 340.77C1002.13 341.43 1001.78 342.15 1001.13 342.38 1000.99 342.43 1000.85 342.45 1000.71 342.45Z" stroke-width="0" fill="#B43965"/></g><g><g><path d="M872.22 504.58 866.38 475.5C865.39 470.58 862.01 466.47 857.37 464.55L831.24 453.77 791.6 420.54 820.25 344.83 769.94 306.22 734.14 389.8C724.13 413.17 731.35 440.35 751.64 455.67L789.86 484.52C790.53 488.31 792.76 491.79 796.37 493.77 796.49 493.84 796.59 493.89 796.67 493.92 812.19 501.33 824.02 498.25 824.02 498.25L824.99 506.11C826.11 515.16 830.31 523.55 836.89 529.87 838.61 531.52 841.48 530.3 841.49 527.92L841.61 494.49 845.35 523.58C845.71 526.38 847.51 528.8 850.1 529.94 852.93 531.18 856.15 529.27 856.47 526.2L857.34 517.87 863.49 516.96C869.41 516.09 873.4 510.43 872.22 504.55Z" stroke-width="0" fill="#FFA484"/><path d="M859.17 517.68C859.59 517.51 859.89 517.12 859.92 516.64L861.22 496.31C861.26 495.64 860.76 495.07 860.09 495.02 859.42 494.98 858.85 495.48 858.8 496.15L857.5 516.48C857.46 517.15 857.96 517.72 858.63 517.77 858.82 517.78 859 517.75 859.16 517.68Z" stroke-width="0" fill="#B12812"/><path d="M862.65 496.27C863.13 496.08 863.44 495.59 863.4 495.05 863.35 494.38 862.77 493.89 862.1 493.94 862.1 493.94 859.64 494.13 856.9 494.39 856.24 494.45 855.75 495.04 855.81 495.71 855.87 496.38 856.46 496.86 857.13 496.8 859.84 496.54 862.28 496.35 862.28 496.35 862.41 496.34 862.53 496.31 862.64 496.26Z" stroke-width="0" fill="#B12812"/><g><path d="M845.49 497.54C845.97 497.35 846.28 496.86 846.24 496.32 846.19 495.65 845.61 495.16 844.94 495.21 844.94 495.21 842.48 495.4 839.74 495.66 839.06 495.72 838.59 496.32 838.65 496.98 838.71 497.65 839.3 498.13 839.97 498.07 842.69 497.81 845.12 497.62 845.13 497.62 845.26 497.61 845.38 497.58 845.49 497.53Z" stroke-width="0" fill="#B12812"/><path d="M825.34 500.59C825.84 500.38 826.16 499.86 826.08 499.3 825.81 497.42 826.21 494.93 826.21 494.91 826.32 494.25 825.87 493.62 825.21 493.52 824.55 493.41 823.93 493.86 823.82 494.52 823.8 494.64 823.35 497.4 823.68 499.65 823.78 500.31 824.39 500.77 825.05 500.68 825.15 500.66 825.25 500.64 825.33 500.6Z" stroke-width="0" fill="#B12812"/></g></g><rect x="760.02" y="317.71" rx="1.77" ry="1.77" width="71.13" height="13.86" stroke-width="0" fill="#B43965" transform="matrix(0.866025 0.5 -0.5 0.866025 268.91 -354.3)"/><path d="M824.61 342.45C824.47 342.45 824.33 342.43 824.19 342.38 823.53 342.15 823.18 341.43 823.42 340.77L840.28 292.6C840.51 291.94 841.23 291.59 841.89 291.83 842.55 292.06 842.9 292.78 842.66 293.44L825.8 341.61C825.62 342.13 825.13 342.45 824.61 342.45Z" stroke-width="0" fill="#B43965"/></g></g></g><g><g><path d="M676.54 169C672.34 159.9 664.81 152.94 658.43 145.37 653.33 139.32 648.24 133.28 643.14 127.23 635 117.58 629.7 105.96 627.65 93.66L627.51 86.04C627.36 77.51 625.58 69.4 622.5 61.97 622.23 60.33 621.81 58.93 621.21 57.84 611.09 35.17 588.55 19.17 562.09 18.7 525.64 18.05 495.57 47.07 494.92 83.52L494.64 99.48C494.58 102.57 494.92 105.58 495.54 108.48L483.55 133.18C474.55 157.46 492.66 174.81 504.63 177.45 521.39 181.15 524.42 194.05 527.24 203.1 528.64 203 530.04 202.92 531.46 202.88L531.46 143.45C532.01 143.47 532.56 143.51 533.13 143.5L574.94 142.75C574.64 177.03 566.19 210.88 550.05 241.39L545.22 250.53C542.06 256.51 546.93 263.58 553.64 262.75L616.56 254.99C627.49 253.64 638.11 250.41 647.93 245.43 674.3 232.06 689.33 196.67 676.56 169Z" stroke-width="0" fill="#090909"/><g><path d="M611.8 102.41 603.48 102.36 603.48 101.16C603.48 101.16 579.5 88.01 579.5 88.01 564.71 79.9 556.09 64.96 555.33 49.27 554.42 49.39 553.51 49.49 552.62 49.67 551.61 70.28 537.28 87.35 518.03 92.47L517.97 101.81 512.28 101.77C504.16 101.72 497.54 108.26 497.49 116.37L497.49 117.64C497.43 125.76 503.97 132.38 512.08 132.43L517.77 132.47 517.77 134.78C517.67 147.64 523.3 159.18 532.23 167.08L532.08 190.83C532.08 191.13 532.09 191.48 532.11 191.85 533.14 210.46 561.73 318.66 561.73 318.66 561.73 318.66 586.75 209.42 587.52 191.86 587.53 191.62 587.54 191.39 587.54 191.19L587.69 168.06C597.13 160.28 603.19 148.53 603.27 135.34L603.27 133.03C603.27 133.03 611.61 133.08 611.61 133.08 619.73 133.13 626.35 126.59 626.4 118.48L626.4 117.21C626.46 109.09 619.92 102.47 611.81 102.42Z" stroke-width="0" fill="#FFA484"/><path d="M559.85 189.72C575.19 189.72 587.62 181.89 587.62 172.23 587.62 171.6 587.56 170.98 587.46 170.36 580.64 175.58 572.12 178.69 562.86 178.63L557.59 178.6C548.04 178.54 539.3 175.13 532.44 169.51 532.38 169.75 532.31 169.99 532.26 170.24L532.24 174.11C533.73 182.88 545.52 189.71 559.85 189.71Z" stroke-width="0" fill="#FD6A48"/><path d="M612.13 123.8C611.83 123.8 611.53 123.69 611.29 123.48L606.82 119.5 612.68 112.88C613.14 112.36 613.94 112.31 614.46 112.77 614.98 113.23 615.03 114.03 614.57 114.55L610.38 119.28 612.97 121.59C613.49 122.05 613.53 122.85 613.07 123.37 612.82 123.65 612.48 123.79 612.13 123.79Z" stroke-width="0" fill="#FD6A48"/><path d="M511.72 123.81C511.37 123.81 511.02 123.66 510.77 123.38 510.31 122.85 510.37 122.06 510.89 121.6L513.51 119.32 509.38 114.53C508.93 114 508.98 113.21 509.51 112.75 510.03 112.3 510.83 112.35 511.29 112.88L517.06 119.57 512.54 123.5C512.3 123.71 512.01 123.81 511.71 123.81Z" stroke-width="0" fill="#FD6A48"/><path d="M517.03 133.72C517.03 137.42 514.03 140.41 510.34 140.41 506.65 140.41 503.65 137.41 503.65 133.72 503.65 130.03 506.65 127.03 510.34 127.03 514.03 127.03 517.03 130.03 517.03 133.72Z" stroke-width="0" fill="#F8EEE2"/><path d="M617.8 133.72C617.8 137.42 614.8 140.41 611.11 140.41 607.42 140.41 604.42 137.41 604.42 133.72 604.42 130.03 607.42 127.03 611.11 127.03 614.8 127.03 617.8 130.03 617.8 133.72Z" stroke-width="0" fill="#F8EEE2"/><path d="M555.22 161.35C554.85 161.35 554.49 161.19 554.24 160.88 553.8 160.34 553.89 159.54 554.43 159.11 559.07 155.35 564.16 158.46 564.37 158.6 564.96 158.97 565.14 159.75 564.76 160.34 564.39 160.93 563.61 161.1 563.02 160.74 562.85 160.64 559.23 158.46 556.01 161.08 555.78 161.27 555.5 161.36 555.22 161.36Z" stroke-width="0" fill="#FD6A48" opacity="0.57"/><g><path d="M574.67 109.47C573.83 111.22 574.57 113.31 576.31 114.15 578.06 114.99 580.15 114.25 581 112.51 581.84 110.76 581.1 108.66 579.36 107.82 577.61 106.98 575.51 107.71 574.67 109.46Z" stroke-width="0" fill="#090909"/><g><path d="M560.88 106 560.65 112.63C560.62 114.07 559.43 115.21 557.99 115.18L555.4 115.13C553.44 115.09 551.82 116.65 551.78 118.61L551.78 118.61C551.68 123.47 555.54 127.49 560.4 127.58L564.46 127.66" stroke-width="0" fill="#FFA484"/><path d="M564.46 128.93 564.44 128.93 560.38 128.85C554.83 128.74 550.41 124.14 550.52 118.59 550.54 117.31 551.07 116.11 552 115.22 552.93 114.33 554.15 113.86 555.43 113.88L558.02 113.93C558.4 113.95 558.72 113.81 558.98 113.56 559.24 113.31 559.38 112.98 559.39 112.62L559.62 105.97C559.64 105.27 560.27 104.7 560.93 104.75 561.62 104.77 562.17 105.36 562.15 106.05L561.92 112.68C561.9 113.69 561.48 114.66 560.74 115.37 559.99 116.09 559.03 116.47 557.98 116.45L555.39 116.4C554.77 116.38 554.2 116.61 553.76 117.04 553.32 117.46 553.07 118.03 553.06 118.64 552.98 122.8 556.29 126.24 560.45 126.33L564.51 126.41C565.21 126.42 565.76 127 565.75 127.7 565.74 128.39 565.17 128.94 564.49 128.94Z" stroke-width="0" fill="#FD6A48"/></g><g><path d="M576.47 130.19 576.69 131.43C577.19 134.31 575.35 137.09 572.5 137.75L563.48 139.84" stroke-width="0" fill="#FFA484"/><path d="M563.47 141.11C562.9 141.11 562.38 140.72 562.24 140.13 562.08 139.45 562.51 138.77 563.18 138.62L572.2 136.53C574.4 136.02 575.82 133.88 575.43 131.66L575.21 130.42C575.09 129.73 575.55 129.08 576.23 128.96 576.9 128.84 577.57 129.3 577.69 129.99L577.91 131.23C578.53 134.77 576.26 138.18 572.76 139L563.74 141.09C563.64 141.11 563.55 141.12 563.45 141.12Z" stroke-width="0" fill="#FD6A48"/></g><path d="M581.75 116.22C581.52 116.22 581.29 116.16 581.08 116.03 578.29 114.27 574.5 116.08 574.46 116.1 573.84 116.4 573.08 116.15 572.78 115.52 572.47 114.9 572.73 114.14 573.35 113.83 573.55 113.73 578.43 111.39 582.42 113.89 583.01 114.26 583.19 115.04 582.82 115.63 582.58 116.01 582.17 116.22 581.75 116.22Z" stroke-width="0" fill="#FD6A48"/><path d="M586.43 97.74C585.29 98.2 583.82 98.03 582.4 97.94 580.97 97.82 579.53 97.74 578.27 97.71 577.01 97.68 575.57 97.7 574.13 97.75 572.7 97.77 571.22 97.88 570.12 97.36 569.05 96.88 568.64 95.56 569.96 93.98 571.2 92.44 574.37 90.81 578.54 90.9 582.7 91.01 585.75 92.78 586.86 94.37 588.05 96.01 587.54 97.3 586.44 97.73Z" stroke-width="0" fill="#090909"/><path d="M542.3 109.47C543.14 111.22 542.4 113.31 540.66 114.15 538.91 114.99 536.82 114.25 535.97 112.51 535.13 110.76 535.87 108.66 537.61 107.82 539.36 106.98 541.45 107.71 542.3 109.46Z" stroke-width="0" fill="#090909"/><path d="M535.22 116.22C534.8 116.22 534.39 116.01 534.15 115.63 533.78 115.04 533.96 114.26 534.55 113.89 538.54 111.38 543.42 113.73 543.62 113.83 544.24 114.14 544.5 114.89 544.19 115.52 543.89 116.15 543.13 116.4 542.5 116.1 542.46 116.08 538.67 114.28 535.88 116.03 535.67 116.16 535.44 116.22 535.21 116.22Z" stroke-width="0" fill="#FD6A48"/><path d="M531.04 96.43C532.18 96.89 533.65 96.72 535.07 96.63 536.5 96.51 537.94 96.43 539.2 96.4 540.46 96.37 541.9 96.39 543.34 96.44 544.77 96.46 546.25 96.57 547.35 96.05 548.42 95.57 548.83 94.25 547.51 92.67 546.27 91.13 543.1 89.5 538.93 89.59 534.77 89.7 531.72 91.47 530.61 93.06 529.42 94.7 529.93 95.99 531.03 96.42Z" stroke-width="0" fill="#090909"/></g></g></g><g><path d="M522.19 984.24 522.23 984.5C523.48 991.87 523.98 999.35 523.7 1006.82L523.15 1021.41 419 1021.41 419 1021.08C419 1012.7 423.72 1005.03 431.19 1001.25L490.56 975.56 522.18 984.25Z" stroke-width="0" fill="#090909"/><path d="M474.64 980.06 448.37 993.81C455.22 1000.95 468.83 1006.17 478 1002.45L522.23 984.49 526.14 936.5 471.87 936.5 474.63 980.06Z" stroke-width="0" fill="#FFA484"/><path d="M694.03 985.08 675.65 981.57 675.65 981.57C670.52 990.03 658.38 998.1 648.62 996.47L601.54 988.6C601.92 996.07 603.08 1003.47 604.98 1010.7L608.69 1024.82 631.3 1019.77 710.33 1002.11 710.26 1001.78C708.43 993.6 702.16 987.15 694.03 985.09Z" stroke-width="0" fill="#090909"/><path d="M675.65 981.57 675.65 981.57C675.65 981.57 646.73 973.42 646.73 973.42L640.72 921.62 594.66 937.89 601.53 988.59 648.61 996.46C658.37 998.09 670.52 990.03 675.64 981.56Z" stroke-width="0" fill="#FFA484"/><path d="M676.46 558.85 676.5 557.86 676.44 557.86C676.16 544.58 674.97 489.49 674.06 482.09 671.27 459.35 663.06 437.45 649.95 418.23L640.27 404.03 631.02 390.47 624.38 380.73 558.66 385.36 492.94 380.73 486.3 390.47 477.05 404.03 467.37 418.23C449.4 444.59 440.64 475.97 442.42 507.65L441.59 538.72 440.76 538.58 441.17 554.19 440.76 569.67 441.58 569.67 451.7 951.39C451.83 956.13 455.71 959.91 460.45 959.91L531.14 959.91C537.14 959.91 542.06 955.17 542.29 949.17L555.97 585.3 583.25 962.58C583.4 964.6 585.33 966 587.3 965.51L655.74 948.45C658.97 947.65 661.28 944.81 661.41 941.48L676.4 560.77 676.51 560.77C676.51 560.77 676.5 560.07 676.47 558.86Z" stroke-width="0" fill="#160601"/></g><g><path d="M610.1 191.87C610.1 191.87 610.1 191.85 610.1 191.85L609.64 191.85C609.52 191.85 609.41 191.83 609.28 191.83L609.28 191.85C609.28 191.85 587.52 191.85 587.52 191.85 586.76 209.41 561.73 318.65 561.73 318.65 561.73 318.65 533.13 210.45 532.11 191.84L504.16 191.84C504.16 191.84 504.16 191.84 504.16 191.84L503.6 191.84C503.6 191.84 503.6 191.86 503.6 191.87 480.91 192.48 473.69 203.43 458.55 225.56L499.54 412.8 512.65 435.85C526.9 442.17 541.81 445.25 556.71 445.09 571.61 445.25 586.52 442.18 600.77 435.85L611.11 419.85 654.88 225.56C639.8 203.52 632.56 192.57 610.09 191.89Z" stroke-width="0" fill="#F8EEE2"/><g><g><path d="M569.49 353.5C566.84 353.5 564.69 351.35 564.69 348.7 564.69 346.05 566.84 343.9 569.49 343.9 572.14 343.9 574.29 346.05 574.29 348.7 574.29 351.35 572.14 353.5 569.49 353.5ZM569.49 346.42C568.23 346.42 567.21 347.44 567.21 348.7 567.21 349.96 568.23 350.98 569.49 350.98 570.75 350.98 571.77 349.96 571.77 348.7 571.77 347.44 570.75 346.42 569.49 346.42Z" stroke-width="0" fill="#BF9229"/><path d="M569.49 392.56C566.84 392.56 564.69 390.41 564.69 387.76 564.69 385.11 566.84 382.96 569.49 382.96 572.14 382.96 574.29 385.11 574.29 387.76 574.29 390.41 572.14 392.56 569.49 392.56ZM569.49 385.48C568.23 385.48 567.21 386.5 567.21 387.76 567.21 389.02 568.23 390.04 569.49 390.04 570.75 390.04 571.77 389.02 571.77 387.76 571.77 386.5 570.75 385.48 569.49 385.48Z" stroke-width="0" fill="#BF9229"/></g><g><g><path d="M520.9 245.21C520.9 245.21 520.89 191.83 520.89 191.83L497.95 191.83C471.16 192.2 462.84 201.35 445.16 219.99L430.94 237.57 407.81 263.58 361.61 326.2C343.23 351.11 350.99 386.5 378.1 401.44L447.5 444.49C435.5 480.59 427.88 520.95 425.18 562.8 425.1 564.09 424.75 571.33 424.19 583.43L424.19 583.43C477.16 581.42 519.41 515.76 519.42 435.41 519.42 416.69 519.43 397.33 519.45 378.1 519.96 349.53 519.91 316.07 520.73 294.45 521.71 268.48 521.79 247.2 520.91 245.23ZM464.6 309.68 461.75 322C458.86 334.52 464.79 347.38 476.57 354.1L476.57 354.1C476.57 354.1 476.12 364.25 476.12 364.25L470.25 380.59 468.73 384.81 427.02 347.37 464.59 309.67Z" stroke-width="0" fill="#FFC236"/><path d="M457.1 466.79C456.58 466.79 456.09 466.46 455.91 465.94 455.68 465.28 456.03 464.56 456.69 464.34 504.97 447.72 492.23 393.89 491.67 391.61 491.5 390.93 491.92 390.25 492.59 390.08 493.26 389.92 493.95 390.32 494.12 391 494.26 391.58 507.98 449.35 457.51 466.72 457.37 466.77 457.24 466.79 457.1 466.79Z" stroke-width="0" fill="#BF9229"/></g><g><path d="M755.74 326.2 709.54 263.58 686.41 237.57 672.19 219.99C654.51 201.35 646.19 192.2 619.4 191.83L596.46 191.83C596.46 191.83 596.46 245.19 596.45 245.21 595.57 247.18 595.65 268.47 596.63 294.43 597.45 316.05 597.41 349.51 597.91 378.08 597.93 397.31 597.93 416.67 597.94 435.39 597.94 515.74 640.2 581.4 693.17 583.41L693.17 583.41C692.61 571.31 692.26 564.08 692.18 562.78 689.47 520.93 681.85 480.57 669.86 444.47L739.26 401.42C766.37 386.48 774.12 351.09 755.75 326.18ZM648.62 384.81 647.1 380.59 641.23 364.25 640.78 354.1 640.78 354.1C652.56 347.38 658.49 334.53 655.6 322L652.75 309.68 690.32 347.38 648.61 384.82Z" stroke-width="0" fill="#FFC236"/><path d="M670.93 466.79C670.79 466.79 670.66 466.77 670.52 466.72 620.05 449.34 633.77 391.58 633.92 391 634.09 390.33 634.77 389.91 635.45 390.08 636.13 390.25 636.54 390.93 636.37 391.61 635.8 393.89 623.07 447.72 671.35 464.34 672.01 464.57 672.36 465.28 672.13 465.94 671.95 466.46 671.46 466.79 670.94 466.79Z" stroke-width="0" fill="#BF9229"/><path d="M634.99 315.31 609.83 315.31C606.65 315.31 604.07 312.72 604.07 309.55 604.07 306.38 606.66 303.79 609.83 303.79L634.99 303.79C638.17 303.79 640.75 306.38 640.75 309.55 640.75 312.72 638.17 315.31 634.99 315.31ZM609.83 306.31C608.04 306.31 606.59 307.76 606.59 309.55 606.59 311.34 608.04 312.79 609.83 312.79L634.99 312.79C636.78 312.79 638.23 311.34 638.23 309.55 638.23 307.76 636.78 306.31 634.99 306.31L609.83 306.31Z" stroke-width="0" fill="#BF9229"/></g></g></g></g></g></svg>