<svg viewBox="0 0 587.24 813.13" xmlns="http://www.w3.org/2000/svg" xmlns:xlink="http://www.w3.org/1999/xlink" overflow="hidden"><defs><clipPath id="clippath"><path d="M280.57 131.36C274.19 129.18 267.33 131.42 262.31 136.24 257.29 141.06 253.98 148.2 252.11 155.82 252.51 154.18 269.64 154.5 271.68 154.4 278.35 154.06 285.63 154.96 292.18 153.79 296.47 153.02 298.78 147.93 295.78 143.21 292.52 138.07 285.51 133.05 280.57 131.37Z" stroke-width="0" fill="#000D2B"/></clipPath><clipPath id="clippath-1"><path d="M281.27 136.67C274.98 135.22 268.08 137.14 262.93 140.95 257.78 144.76 254.25 150.29 252.15 156.13 252.6 154.87 269.65 154.57 271.68 154.43 278.33 153.96 285.56 154.41 292.12 153.32 296.42 152.6 298.88 148.67 296.04 145.17 292.96 141.37 286.13 137.79 281.27 136.67Z" stroke-width="0" fill="#FFF2EE" clip-path="url(#clippath)"/></clipPath><clipPath id="clippath-2"><path d="M354.24 133.34C360.44 130.69 367.45 132.41 372.82 136.83 378.19 141.25 382.02 148.13 384.46 155.59 383.94 153.98 366.88 155.59 364.84 155.64 358.16 155.8 350.97 157.25 344.35 156.57 340.01 156.13 337.33 151.22 339.97 146.28 342.83 140.91 349.45 135.38 354.25 133.33Z" stroke-width="0" fill="#000D2B"/></clipPath><clipPath id="clippath-3"><path d="M353.94 138.68C360.1 136.76 367.13 138.16 372.55 141.57 377.97 144.98 381.9 150.23 384.43 155.9 383.88 154.68 366.86 155.66 364.82 155.67 358.15 155.7 350.98 156.69 344.36 156.1 340.02 155.71 337.27 151.96 339.84 148.27 342.63 144.25 349.17 140.17 353.93 138.68Z" stroke-width="0" fill="#FFF2EE" clip-path="url(#clippath-2)"/></clipPath></defs><g><g id="Layer_1"><g><g><g><g><path d="M345.04 206.78C345.66 225.75 346.28 244.72 346.91 263.69 346.91 263.69 314.26 261.54 312.78 261.31 312.74 242.33 312.71 223.35 312.67 204.37L345.04 206.78Z" stroke-width="0" fill="#FF9492"/><path d="M345.75 228.5C337.62 230.67 325.75 232.34 312.71 229.3 312.69 220.99 312.68 212.67 312.66 204.36L345.03 206.77C345.27 214.01 345.51 221.25 345.74 228.49Z" stroke-width="0" fill="#BF6F6E"/></g><g><path d="M254.27 127.72C250.97 123.07 244.47 121.29 238.99 122.88 233.52 124.47 229.18 129 227.03 134.28 224.88 139.56 224.73 145.49 225.75 151.09 227.29 159.61 231.63 167.77 238.47 173.07 245.32 178.37 254.76 180.51 262.97 177.77L254.27 127.72Z" stroke-width="0" fill="#FF9492"/><path d="M248.47 143.36C243.98 128.67 237.64 112.64 235.54 97.43 233.44 82.22 233.83 66.4 238.96 51.93 249.69 21.64 281.28 1.14 313.39 0.05 345.49-1.04 376.84 15.61 397.08 40.55 410.68 43.82 423.56 59.33 427.05 75.79 430.55 92.25 426.54 109.35 422.5 125 421.6 138.39 417.69 151.56 408.28 165.47 356 181.42 299.94 179.47 248.47 143.35Z" stroke-width="0" fill="#A23F8F"/><g><path d="M405.68 126.5C413.64 117.86 428.15 117.91 437.52 125 446.89 132.09 450.37 145.6 446.59 156.73 442.81 167.86 432.52 176.21 421.05 178.76 409.58 181.3 397.24 178.37 387.43 171.91L405.69 126.51Z" stroke-width="0" fill="#FF9492"/><g><path d="M432.9 148.32C428.25 143.29 420.6 141.27 414.07 143.36" stroke="#603837" stroke-miterlimit="10" fill="none"/><path d="M423.66 143.05C422.8 148.86 420.17 154.39 416.18 158.7" stroke="#603837" stroke-miterlimit="10" fill="none"/></g></g><g><path d="M248.51 138.91C248.81 130.77 250.87 122.71 254.5 115.42 268.95 122.76 285.4 125.37 300.66 122.1 315.93 118.84 329.87 109.73 339 97.06 341.49 104.98 349.34 111.61 358.42 114.07 367.49 116.53 377.62 114.77 385.33 109.39 384.99 115.36 386.08 122.07 387.89 128.56 388.52 130.82 389.38 133.25 391.36 134.5 393.94 136.13 397.53 135.05 399.66 132.85 401.78 130.65 402.77 127.63 405.69 126.49 404.97 153.88 395.9 182.25 375.39 200.42 353.04 220.22 318.34 224.63 291.75 211.05 265.16 197.47 247.49 166.75 248.52 138.9Z" stroke-width="0" fill="#FF9492"/><g><path d="M261.3 182.83C261.96 181.74 262.72 180.71 263.61 179.78 269.01 174.14 278.14 172.47 285.18 175.85 292.22 179.23 296.63 187.39 295.61 195.13 294.89 200.53 291.56 205.44 287 208.4 276.64 202.06 267.86 193.09 261.3 182.83Z" stroke-width="0" fill="#BF6F6E"/><path d="M355.35 201.53C351.61 194.67 352.76 185.43 358.25 179.69 363.65 174.05 372.78 172.38 379.82 175.76 383.77 177.66 386.89 181.05 388.69 185.04 384.94 190.69 380.52 195.88 375.39 200.43 371.65 203.74 367.56 206.61 363.23 209.05 359.95 207.36 357.13 204.77 355.36 201.52Z" stroke-width="0" fill="#BF6F6E"/></g><g><path d="M313.48 135.84C310.14 139.01 307.45 142.85 305.61 147.07L313.76 148.67" stroke="#603837" stroke-miterlimit="10" fill="none"/><path d="M377.75 130.42C366.43 126.37 353.99 126.73 343.03 131.72 351.78 122.76 368.32 122.27 377.75 130.42L377.75 130.42Z" stroke-width="0" fill="#512048"/><path d="M258.03 131.22C267.15 122.72 283.7 122.59 292.78 131.22 281.64 126.64 269.19 126.74 258.03 131.22L258.03 131.22Z" stroke-width="0" fill="#512048"/><path d="M342.62 181.87C335.67 186.27 327.34 188.45 319.13 188.02 310.92 187.59 302.86 184.55 296.41 179.45" stroke="#603837" stroke-miterlimit="10" fill="none"/></g></g></g></g><g><g><g><g><path d="M23.44 392.17C13.08 377.95 5.98 361.38 2.83 344.08 10.63 336.58 18.82 331.85 27.58 328.73 26.19 317.95 24.9 307.17 25.34 296.38 25.42 294.55 25.57 292.64 26.55 291.09 27.53 289.54 29.6 288.53 31.25 289.32 32.6 289.97 33.21 291.53 33.69 292.95 38.43 306.97 42.28 321.29 45.21 335.8L56.54 377 23.44 392.17Z" stroke-width="0" fill="#FF9492"/><path d="M27.58 328.74C26.19 317.96 24.9 307.18 25.34 296.39 25.42 294.56 25.57 292.65 26.55 291.1 27.53 289.55 29.6 288.54 31.25 289.33 32.6 289.98 33.21 291.54 33.69 292.96 38.43 306.98 42.28 321.3 45.21 335.81" stroke="#603837" stroke-miterlimit="10" fill="none"/></g><g><path d="M0.86 342.25C1.33 346.26 2.85 350.14 5.23 353.41 5.75 354.11 6.32 354.8 7.07 355.25 7.82 355.69 8.79 355.85 9.57 355.46 10.59 354.94 10.98 353.7 11.17 352.57 12.14 346.9 10.62 340.85 7.1 336.3 6.36 335.34 5.42 334.39 4.22 334.25 2.58 334.05 1.11 335.5 0.69 337.1 0.27 338.7 0.64 340.38 0.86 342.26Z" stroke-width="0" fill="#FF9492"/><path d="M0.86 342.25C1.33 346.26 2.85 350.14 5.23 353.41 5.75 354.11 6.32 354.8 7.07 355.25 7.82 355.69 8.79 355.85 9.57 355.46 10.59 354.94 10.98 353.7 11.17 352.57 12.14 346.9 10.62 340.85 7.1 336.3 6.36 335.34 5.42 334.39 4.22 334.25 2.58 334.05 1.11 335.5 0.69 337.1 0.27 338.7 0.64 340.38 0.86 342.26Z" stroke="#603837" stroke-miterlimit="10" fill="none"/></g><g><path d="M8.2 335.48C9.45 341.62 11.02 348.29 15.97 352.12 16.71 352.69 17.57 353.2 18.51 353.2 19.59 353.19 20.56 352.46 21.12 351.54 21.67 350.62 21.87 349.52 21.95 348.45 22.34 343.23 20.33 338.15 18.35 333.3 17.72 331.75 17.06 330.16 15.95 328.91 14.84 327.65 13.17 326.77 11.51 327.04 9.71 327.33 8.34 328.95 7.85 330.71 7.37 332.47 7.95 334.23 8.2 335.49Z" stroke-width="0" fill="#FF9492"/><path d="M8.2 335.48C9.45 341.62 11.02 348.29 15.97 352.12 16.71 352.69 17.57 353.2 18.51 353.2 19.59 353.19 20.56 352.46 21.12 351.54 21.67 350.62 21.87 349.52 21.95 348.45 22.34 343.23 20.33 338.15 18.35 333.3 17.72 331.75 17.06 330.16 15.95 328.91 14.84 327.65 13.17 326.77 11.51 327.04 9.71 327.33 8.34 328.95 7.85 330.71 7.37 332.47 7.95 334.23 8.2 335.49Z" stroke="#603837" stroke-miterlimit="10" fill="none"/></g><g><path d="M16.45 329.2C17.45 335.61 20.16 341.75 24.22 346.81 25.19 348.01 26.5 349.27 28.03 349.06 29.16 348.91 30.05 347.95 30.44 346.87 30.83 345.8 30.8 344.62 30.73 343.49 30.48 339.49 29.71 335.53 28.74 331.63 28.18 329.37 27.52 327.06 26.06 325.25 24.59 323.44 22.13 322.25 19.9 322.94 17.68 323.63 16.06 326.71 16.45 329.2Z" stroke-width="0" fill="#FF9492"/><path d="M16.45 329.2C17.45 335.61 20.16 341.75 24.22 346.81 25.19 348.01 26.5 349.27 28.03 349.06 29.16 348.91 30.05 347.95 30.44 346.87 30.83 345.8 30.8 344.62 30.73 343.49 30.48 339.49 29.71 335.53 28.74 331.63 28.18 329.37 27.52 327.06 26.06 325.25 24.59 323.44 22.13 322.25 19.9 322.94 17.68 323.63 16.06 326.71 16.45 329.2Z" stroke="#603837" stroke-miterlimit="10" fill="none"/></g><g><path d="M65.73 369.65C63.02 358.98 60.3 348.3 57.59 337.63 56.81 334.55 55.9 331.28 53.49 329.22 51.21 327.27 48.05 326.81 45.08 326.43L28.62 324.32C26.61 324.06 24.25 323.93 22.92 325.46 21.75 326.8 21.97 328.96 22.99 330.43 24.01 331.9 25.63 332.81 27.23 333.6 32.33 336.09 37.8 337.74 43.62 340.43 39.32 340.71 35.59 343.78 33.4 347.48 31.21 351.19 30.3 355.49 29.48 359.72L56.52 377 65.71 369.64Z" stroke-width="0" fill="#BF6F6E"/><path d="M64.93 366.49C62.48 356.87 60.04 347.25 57.59 337.62 56.81 334.54 55.9 331.27 53.49 329.21 51.21 327.26 48.05 326.8 45.08 326.42L28.62 324.31C26.61 324.05 24.25 323.92 22.92 325.45 21.75 326.79 21.97 328.95 22.99 330.42 24.01 331.89 25.63 332.8 27.23 333.59 32.33 336.08 37.8 337.73 43.62 340.42 39.32 340.7 35.59 343.77 33.4 347.47 31.21 351.18 30.3 355.48 29.48 359.71" stroke-width="0" fill="#FF9492"/></g></g><path d="M30.24 415.33C25.57 407.88 21.82 399.86 19.1 391.51 34.95 380.96 50.27 373.69 66.19 368.11 67.92 372.01 69.66 375.94 71.44 379.88L30.24 415.33Z" stroke-width="0" fill="#FFFFFF"/><g><path d="M238.87 477.74C233.54 503.04 213.47 524.06 189.23 533.05 164.99 542.04 137.3 539.65 113.7 529.08 90.1 518.51 70.44 500.26 55.72 479.01 40.99 457.76 30.96 433.56 23.46 408.82 38.13 397.85 54.76 388.84 71.45 379.88 80.5 399.9 90.53 420.06 104.97 437.09 111.81 445.16 120.78 452.93 131.35 452.71 138.65 452.56 145.44 448.46 150.25 442.97 155.06 437.48 158.13 430.71 160.73 423.88 175.65 384.63 177.53 339.46 202.84 305.96 211.84 294.06 223.36 284.36 236.15 276.59L238.87 477.74Z" stroke-width="0" fill="#3392F0"/><path d="M113.7 529.08C90.1 518.51 70.44 500.26 55.72 479.01 51.2 472.49 47.13 465.69 43.43 458.68 66.35 480.1 101.89 504.89 142.33 503.09 194.61 500.76 225.35 428.28 237.7 391.14L238.87 477.74C233.54 503.04 213.47 524.06 189.23 533.05 164.99 542.04 137.3 539.65 113.7 529.08Z" stroke-width="0" fill="#2C2355" opacity="0.15"/><path d="M64.67 400.3C67.69 398.95 71.65 400.24 73.25 403.14 74.85 406.03 73.83 410.11 71.02 411.86 68.21 413.62 64.07 412.74 62.26 409.97 60.44 407.21 60.71 402.08 64.67 400.3Z" stroke-width="0" fill="#2C2355"/><path d="M238.87 477.74C233.54 503.04 213.47 524.06 189.23 533.05 164.99 542.04 137.3 539.65 113.7 529.08 90.1 518.51 70.44 500.26 55.72 479.01 40.99 457.76 30.96 433.56 23.46 408.82 38.13 397.85 54.76 388.84 71.45 379.88" stroke="#2C2355" stroke-linecap="round" stroke-linejoin="round" fill="none"/></g></g><g><path d="M223.59 385.59C214.73 478.71 211.75 572.39 214.68 665.88 214.68 665.88 473.38 667.6 474.46 664.1 479.81 568.65 477.25 469.01 475.36 367.54L464.91 271.3C423.2 251 375.59 241.91 327.98 246.85 304.76 251.22 281.45 256 259.56 264.89 251.49 268.17 243.6 272.04 236.14 276.58L223.58 385.58Z" stroke-width="0" fill="#3392F0"/><path d="M321.38 302.91 287.24 255.75C300.65 252.14 314.33 249.43 327.99 246.86 342.64 245.34 357.29 245.16 371.77 246.21L321.38 302.91Z" stroke-width="0" fill="#FF9492"/><path d="M287.24 255.75C287.24 255.75 301.8 271.53 323.58 271.3 345.36 271.07 371.78 246.21 371.78 246.21L321.39 302.91 287.25 255.75Z" stroke-width="0" fill="#FFFFFF"/><g><path d="M289.3 342.15C292.32 340.8 296.28 342.09 297.88 344.98 299.48 347.87 298.46 351.95 295.65 353.7 292.84 355.46 288.71 354.58 286.89 351.81 285.07 349.04 285.34 343.91 289.3 342.14Z" stroke-width="0" fill="#2C2355"/><path d="M290.51 407.45C293.53 406.1 297.49 407.39 299.09 410.28 300.69 413.17 299.67 417.25 296.86 419 294.05 420.76 289.92 419.88 288.1 417.12 286.28 414.35 286.55 409.22 290.51 407.45Z" stroke-width="0" fill="#2C2355"/></g><g><path d="M321.38 302.91C315.85 422.56 312.99 546.29 312.82 666.27" stroke="#2C2355" stroke-linecap="round" stroke-linejoin="round" fill="none"/><g><path d="M379.92 246.93C360.25 265.74 341.05 284.1 321.38 302.91L345.95 234.55 379.92 246.93Z" stroke-width="0" fill="#4E67C3"/><path d="M379.92 246.93C360.25 265.74 341.05 284.1 321.38 302.91L345.95 234.55 379.92 246.93Z" stroke-width="0" fill="#3392F0"/></g><g><path d="M281.42 257.37 321.38 302.91 312.73 239.32 281.42 257.37Z" stroke-width="0" fill="#3392F0"/><path d="M281.42 257.37 321.38 302.91 312.73 239.32 281.42 257.37Z" stroke="#2C2355" stroke-linecap="round" stroke-linejoin="round" fill="none"/></g></g><path d="M458.61 362.85C458.61 362.85 466.25 364.89 475.35 367.43L475.35 367.54C475.6 380.26 475.85 392.95 476.09 405.61L458.61 362.85Z" stroke-width="0" fill="#2C2355" opacity="0.15"/><path d="M223.59 385.59C214.73 478.71 211.75 572.39 214.68 665.88" stroke="#2C2355" stroke-linecap="round" stroke-linejoin="round" fill="none"/></g><g><path d="M353.85 589.8C355.16 592.71 361.74 597.85 371.27 594.96 380.8 592.07 379.48 582.13 379.48 582.13L353.85 589.81Z" stroke-width="0" fill="#A23F8F"/><path d="M405.36 418.51C409.2 432.4 409.49 446.4 406.77 459.46 404.07 472.52 398.37 484.64 390.23 494.77 385.42 501.62 398.95 517.83 396.59 523.86 394.23 529.87 370.6 541.44 356.89 545.23 343.19 549.02 316.97 551.24 311.86 547.29 309.58 545.53 308.96 540.42 308.31 534.97 307.92 531.74 307.52 528.39 306.74 525.57 305.89 522.5 304.59 520.05 302.38 519.06 278.01 510.03 257.91 489.2 250.22 461.41 237.81 416.55 262.48 370.57 305.32 358.73 325.91 353.03 346.94 356.26 364.62 366.13 383.73 376.77 398.91 395.19 405.36 418.5Z" stroke-width="0" fill="#FFD969"/><path d="M333.9 539.7C333.79 524.59 331.23 509.49 326.29 495.21 323.84 488.13 320.84 481.19 317.24 474.61 313.97 468.63 309.95 462.79 304.53 458.57 301.97 456.58 298.72 454.9 295.39 455.58 292.21 456.23 290.42 459.08 290.05 462.12 289.33 468.06 292.41 474.48 296.06 478.98 299.92 483.73 305.49 487.1 311.58 487.95 317.79 488.82 324.42 487.4 329.45 483.56 334.31 479.85 337.25 474.33 337.91 468.27 338.51 462.76 336.94 455.97 332.34 452.46 329.89 450.59 326.53 450.12 323.94 452.03 321.39 453.91 320.21 457.15 320.07 460.24 319.8 466.05 322.75 471.87 327.17 475.55 337.48 484.14 353.13 479.96 359.77 468.9 362.96 463.58 364.07 457.16 363.15 451.06 362.74 448.33 361.53 445.29 358.77 444.21 355.32 442.87 352.24 445.52 350.42 448.2 346.69 453.69 346.31 461.16 345.86 467.58 345.36 474.75 345.49 481.97 346.25 489.11 347.77 503.42 351.68 517.4 357.87 530.39 359.39 533.57 361.05 536.68 362.83 539.72 364.06 541.81 367.3 539.88 366.07 537.79 353.29 516.03 347.57 490.39 349.82 465.26 350.3 459.92 350.68 453.08 354.59 448.96 355.25 448.26 356.36 447.31 357.41 447.7 358.27 448.02 358.74 449.07 359.02 449.87 359.87 452.3 359.84 455.14 359.6 457.67 359.1 462.83 356.78 467.88 352.96 471.41 349.03 475.05 343.48 476.91 338.15 476.37 333.13 475.86 328.65 472.83 326.05 468.54 324.84 466.55 324.02 464.27 323.86 461.94 323.7 459.66 324.05 456.72 326 455.19 327.91 453.7 330.13 455.2 331.39 456.79 332.85 458.62 333.65 460.98 334.04 463.27 334.86 468.07 333.52 473.33 330.6 477.21 324.07 485.88 310.71 486.67 302.47 480.09 298.42 476.86 295.51 472.34 294.24 467.32 293.71 465.24 293.16 462.36 294.48 460.44 295.98 458.28 298.92 459.44 300.72 460.52 303.23 462.03 305.38 464.29 307.27 466.5 309.24 468.8 310.93 471.33 312.48 473.92 315.79 479.48 318.54 485.41 320.88 491.44 325.66 503.76 328.68 516.77 329.71 529.95 329.96 533.21 330.1 536.48 330.12 539.75 330.14 542.18 333.91 542.17 333.89 539.75L333.89 539.75Z" stroke-width="0" fill="#FFFFFF"/><path d="M396.25 522.1 313.31 547.97 312.57 548.17C312.57 548.17 314.82 576.31 318.21 581.91 321.6 587.51 339.86 596.38 368.74 586.88 397.62 577.38 412.7 563.99 409.96 554.69 407.22 545.39 396.25 522.09 396.25 522.09Z" stroke-width="0" fill="#B565A5"/><path d="M395 514.62C370.26 532.63 340.44 541.83 309.85 540.71 301.89 540.42 301.94 552.77 309.86 553.06 342.43 554.25 374.98 544.4 401.33 525.22 407.69 520.59 401.44 509.93 394.99 514.62Z" stroke-width="0" fill="#A23F8F"/><path d="M407.29 534.32C393.14 543.71 377.18 549.14 360.72 552.88 352.69 554.7 344.59 556.15 336.47 557.49 328.44 558.82 320.32 560.05 312.28 558.15 306.92 556.89 304.73 565.15 310.09 566.41 318.3 568.35 326.44 567.64 334.69 566.38 343.59 565.02 352.48 563.43 361.27 561.5 361.98 561.34 362.7 561.18 363.41 561.01 346.93 568.12 329.42 572.84 311.55 574.88 306.09 575.5 306.04 582.88 311.55 583.43 347.17 586.97 383.36 578.58 413.89 559.91 418.57 557.05 414.21 549.69 409.5 552.57 392.9 562.72 374.67 569.62 355.78 573.07 376.25 565.68 395.42 554.87 412.54 540.97 416.29 537.92 411.29 531.66 407.28 534.32Z" stroke-width="0" fill="#A23F8F"/><ellipse cx="285.47" cy="417.4" rx="40.73" ry="26.18" stroke-width="0" fill="#FFFFFF" opacity="0.5" transform="matrix(0.436645 -0.899634 0.899634 0.436645 -214.7 491.92)"/></g><g><g><path d="M432.26 568.07C410.96 569.31 389.52 568.15 368.48 564.59 357.1 565.81 349.02 565.13 341.43 562.81 340.42 562.5 339.39 562.15 338.57 561.48 337.75 560.81 337.17 559.76 337.33 558.72 337.62 556.84 339.89 556.1 341.77 555.79 346.21 555.04 350.69 554.47 355.17 554.08L355.17 554.08C346.28 553.94 337.43 551.43 329.84 546.81 328.47 545.98 327.02 544.89 326.81 543.31 326.59 541.64 327.93 540.07 329.51 539.46 331.09 538.85 332.84 538.98 334.52 539.11 340.1 539.55 345.67 539.99 351.25 540.43 343.6 538.67 336.2 535.78 329.4 531.85 327.91 530.99 326.41 530.05 325.46 528.62 324.51 527.19 324.24 525.17 325.29 523.81 326.63 522.06 329.26 522.18 331.45 522.47 337.33 523.26 343.22 524.05 349.1 524.83 342.04 523.03 335.15 520.53 328.58 517.37 325.96 516.11 322.95 513.88 323.62 511.05 323.99 509.47 325.51 508.36 327.09 507.98 328.67 507.6 330.33 507.82 331.94 508.04 346.65 510.02 361.37 512 376.09 513.98 369.95 510.35 364.42 507.08 359.73 502.86 358.71 501.94 357.7 500.94 357.18 499.67 356.66 498.4 356.73 496.79 357.69 495.81 359.05 494.42 361.35 494.87 363.21 495.42 371.17 497.79 379.09 500.3 386.91 503.1 397.31 506.83 410.56 507.94 424.46 507.17L431.37 540.44 432.27 568.07Z" stroke-width="0" fill="#FF9492"/><g><path d="M349.09 524.84C354.43 526.2 359.87 527.17 365.36 527.72" stroke="#2C2355" stroke-linecap="round" stroke-linejoin="round" fill="none"/><path d="M361.55 542.1C358.09 541.77 354.64 541.22 351.25 540.44" stroke="#2C2355" stroke-linecap="round" stroke-linejoin="round" fill="none"/><path d="M361.85 553.73C359.64 554 357.4 554.11 355.17 554.08" stroke="#2C2355" stroke-linecap="round" stroke-linejoin="round" fill="none"/><path d="M427.39 568.31C407.7 569.12 387.92 567.88 368.48 564.59 357.1 565.81 349.02 565.13 341.43 562.81 340.42 562.5 339.39 562.15 338.57 561.48 337.75 560.81 337.17 559.76 337.33 558.72 337.62 556.84 339.89 556.1 341.77 555.79 346.21 555.04 350.69 554.47 355.17 554.08L355.17 554.08C346.28 553.94 337.43 551.43 329.84 546.81 328.47 545.98 327.02 544.89 326.81 543.31 326.59 541.64 327.93 540.07 329.51 539.46 331.09 538.85 332.84 538.98 334.52 539.11 340.1 539.55 345.67 539.99 351.25 540.43 343.6 538.67 336.2 535.78 329.4 531.85 327.91 530.99 326.41 530.05 325.46 528.62 324.51 527.19 324.24 525.17 325.29 523.81 326.63 522.06 329.26 522.18 331.45 522.47 337.33 523.26 343.22 524.05 349.1 524.83 342.04 523.03 335.15 520.53 328.58 517.37 325.96 516.11 322.95 513.88 323.62 511.05 323.99 509.47 325.51 508.36 327.09 507.98 328.67 507.6 330.33 507.82 331.94 508.04 346.65 510.02 361.37 512 376.09 513.98 369.95 510.35 364.42 507.08 359.73 502.86 358.71 501.94 357.7 500.94 357.18 499.67 356.66 498.4 356.73 496.79 357.69 495.81 359.05 494.42 361.35 494.87 363.21 495.42 371.17 497.79 379.09 500.3 386.91 503.1 390.86 504.52 395.23 505.56 399.89 506.26" stroke="#603837" stroke-miterlimit="10" fill="none"/></g></g><path d="M464.04 564.41C453.53 566.23 442.91 567.46 432.25 568.08 426.08 548.45 423.42 527.73 424.44 507.18 430.51 506.84 436.71 506.14 442.85 505.14L464.03 564.41Z" stroke-width="0" fill="#FFFFFF"/><g><path d="M458.61 362.85C485.8 384.87 502.06 419.79 501.4 454.77 501.2 465.52 499.23 476.83 492.35 485.09 486.06 492.65 476.51 496.66 467.1 499.51 459.44 501.84 451.2 503.76 442.85 505.12L442.85 505.12C444.2 528.66 448.45 552.1 457.87 577.13 496.14 571.58 532.42 551.65 556.42 521.33 580.42 491.02 591.52 450.45 584.78 412.38 579.45 382.27 563.59 354.79 543.65 331.61 521.94 306.38 494.95 285.92 464.9 271.29L458.59 362.83Z" stroke-width="0" fill="#3392F0"/><path d="M453.62 564.8C536.97 530.48 572.1 476.7 586.46 443.33 584.65 471.5 574.01 499.16 556.44 521.35 532.44 551.67 496.15 571.6 457.89 577.15 456.33 572.99 454.92 568.88 453.63 564.8Z" stroke-width="0" fill="#2C2355" opacity="0.15"/><path d="M469.51 549.6C472.53 548.25 476.49 549.54 478.09 552.44 479.69 555.33 478.67 559.41 475.86 561.16 473.05 562.92 468.91 562.04 467.1 559.27 465.29 556.5 465.55 551.38 469.51 549.6Z" stroke-width="0" fill="#2C2355"/><path d="M442.86 505.12C444.21 528.67 448.46 552.11 457.88 577.15 496.15 571.6 532.43 551.67 556.43 521.35 580.43 491.04 591.53 450.47 584.79 412.4" stroke="#2C2355" stroke-linecap="round" stroke-linejoin="round" fill="none"/></g></g></g><rect x="214.74" y="666.13" width="261" height="147" stroke-width="0" fill="#2C2355"/></g><g><path d="M280.57 131.36C274.19 129.18 267.33 131.42 262.31 136.24 257.29 141.06 253.98 148.2 252.11 155.82 252.51 154.18 269.64 154.5 271.68 154.4 278.35 154.06 285.63 154.96 292.18 153.79 296.47 153.02 298.78 147.93 295.78 143.21 292.52 138.07 285.51 133.05 280.57 131.37Z" fill="#000D2B"/><path d="M281.27 136.67C274.98 135.22 268.08 137.14 262.93 140.95 257.78 144.76 254.25 150.29 252.15 156.13 252.6 154.87 269.65 154.57 271.68 154.43 278.33 153.96 285.56 154.41 292.12 153.32 296.42 152.6 298.88 148.67 296.04 145.17 292.96 141.37 286.13 137.79 281.27 136.67Z" fill="#FFF2EE"/><g clip-path="url(#clippath-1)"><ellipse cx="273.04" cy="143.53" rx="17.62" ry="16.61" stroke-width="0" fill="#000D2B" transform="matrix(0.991445 -0.130526 0.130526 0.991445 -16.4 36.86)"/><ellipse cx="264.01" cy="148.61" rx="4.15" ry="3.91" stroke-width="0" fill="#FFF2EE" transform="matrix(0.991445 -0.130526 0.130526 0.991445 -17.14 35.73)"/></g></g><g><path d="M354.24 133.34C360.44 130.69 367.45 132.41 372.82 136.83 378.19 141.25 382.02 148.13 384.46 155.59 383.94 153.98 366.88 155.59 364.84 155.64 358.16 155.8 350.97 157.25 344.35 156.57 340.01 156.13 337.33 151.22 339.97 146.28 342.83 140.91 349.45 135.38 354.25 133.33Z" fill="#000D2B"/><path d="M353.94 138.68C360.1 136.76 367.13 138.16 372.55 141.57 377.97 144.98 381.9 150.23 384.43 155.9 383.88 154.68 366.86 155.66 364.82 155.67 358.15 155.7 350.98 156.69 344.36 156.1 340.02 155.71 337.27 151.96 339.84 148.27 342.63 144.25 349.17 140.17 353.93 138.68Z" fill="#FFF2EE"/><g clip-path="url(#clippath-3)"><ellipse cx="362.66" cy="144.9" rx="16.61" ry="17.62" stroke-width="0" fill="#000D2B" transform="matrix(0.0558215 -0.998441 0.998441 0.0558215 197.75 498.91)"/><ellipse cx="351.98" cy="148.05" rx="3.91" ry="4.15" stroke-width="0" fill="#FFF2EE" transform="matrix(0.0558215 -0.998441 0.998441 0.0558215 184.52 491.22)"/></g></g></g></g></g></svg>