<svg viewBox="0 0 112.79 63.63" xmlns="http://www.w3.org/2000/svg" xmlns:xlink="http://www.w3.org/1999/xlink" id="Layer_1" overflow="hidden"><defs></defs><g><path d="M104.76 62.29C72.67 63.59 40.52 63.37 8.45 61.61 4.65 61.4 1.63 58.34 1.43 54.54 0.57 37.49 0.37 24.48 0.57 8.56 0.62 4.56 3.82 1.3 7.82 1.2 40.16 0.36 72.48 0.19 104.16 1.17 108.06 1.29 111.21 4.37 111.4 8.27 112.14 23.81 112.7 39.38 111.88 55.21 111.68 59.06 108.6 62.14 104.76 62.3Z" stroke-width="0" fill="#FFFFFF"/><path d="M104.76 62.29C72.67 63.59 40.52 63.37 8.45 61.61 4.65 61.4 1.63 58.34 1.43 54.54 0.57 37.49 0.37 24.48 0.57 8.56 0.62 4.56 3.82 1.3 7.82 1.2 40.16 0.36 72.48 0.19 104.16 1.17 108.06 1.29 111.21 4.37 111.4 8.27 112.14 23.81 112.7 39.38 111.88 55.21 111.68 59.06 108.6 62.14 104.76 62.3Z" stroke="#2C2355" stroke-linecap="round" stroke-linejoin="round" fill="none"/></g><g><rect x="14.29" y="14.53" width="42.1" height="3.17" stroke-width="0" fill="#FF5086"/><rect x="60.48" y="14.53" width="16.97" height="3.17" stroke-width="0" fill="#FF5086"/></g><g><line x1="14.29" y1="24.67" x2="99.3" y2="24.67" stroke="#2C2355" stroke-linecap="round" stroke-linejoin="round" fill="none"/><line x1="14.29" y1="32.28" x2="99.3" y2="32.28" stroke="#2C2355" stroke-linecap="round" stroke-linejoin="round" fill="none"/><line x1="14.29" y1="39.9" x2="99.3" y2="39.9" stroke="#2C2355" stroke-linecap="round" stroke-linejoin="round" fill="none"/><line x1="14.29" y1="47.51" x2="66.69" y2="47.51" stroke="#2C2355" stroke-linecap="round" stroke-linejoin="round" fill="none"/></g></svg>