<svg viewBox="0 0 95.9 90.86" xmlns="http://www.w3.org/2000/svg" xmlns:xlink="http://www.w3.org/1999/xlink" id="Layer_1" overflow="hidden"><defs></defs><path d="M95.69 13.59C95.68 13.43 95.67 13.26 95.66 13.1 95.66 13.04 95.63 13 95.62 12.95 95.6 12.37 95.28 11.82 94.55 11.64 80.97 8.23 67.38 4.81 53.8 1.4 52.04 0.96 50.2 0.28 48.39 0.04 47.03-0.14 45.41 0.56 44.11 0.89 36.21 2.88 28.31 4.86 20.41 6.85 14.05 8.45 7.68 10.05 1.32 11.65 0.64 11.82 0.25 12.45 0.21 13.11-0.39 21.53 0.33 30.2 1.66 38.52 4.04 53.49 9.46 69.14 20.97 79.58 27.48 85.49 35.63 89.22 44.3 90.58 53.08 91.96 63.01 88.27 70.21 83.3 83.33 74.24 90.09 58.88 93.26 43.73 95.3 33.97 96.37 23.59 95.69 13.6ZM72.93 32.52 51.37 59.97C50.07 61.62 48.01 62.51 45.93 62.51 44.61 62.51 43.29 62.16 42.14 61.42L23.03 49.22 23.03 49.22C20.84 47.82 19.6 45.46 19.72 42.91 19.84 40.3 21.38 37.85 23.66 36.67 25.85 35.53 28.44 35.67 30.58 37.04L44.31 45.8 62.03 23.24C63.57 21.28 65.89 20.31 68.26 20.65 70.78 21.01 72.96 22.78 73.96 25.26 74.95 27.72 74.56 30.44 72.93 32.52Z" stroke-width="0" fill="#FFFFFF"/></svg>