<svg viewBox="0 0 140.6 79.2" xmlns="http://www.w3.org/2000/svg" xmlns:xlink="http://www.w3.org/1999/xlink" id="Layer_1" overflow="hidden"><defs></defs><g><path d="M130.69 77.67C90.62 79.3 50.47 79.01 10.43 76.82 5.68 76.56 1.91 72.74 1.67 67.99 0.58 46.69 0.34 30.44 0.59 10.56 0.66 5.57 4.66 1.5 9.65 1.37 50.04 0.33 90.39 0.11 129.95 1.33 134.82 1.48 138.76 5.33 138.99 10.19 139.91 29.59 140.62 49.04 139.59 68.81 139.34 73.61 135.5 77.47 130.69 77.66Z" stroke-width="0" fill="#FFFFFF"/><path d="M130.69 77.67C90.62 79.3 50.47 79.01 10.43 76.82 5.68 76.56 1.91 72.74 1.67 67.99 0.58 46.69 0.34 30.44 0.59 10.56 0.66 5.57 4.66 1.5 9.65 1.37 50.04 0.33 90.39 0.11 129.95 1.33 134.82 1.48 138.76 5.33 138.99 10.19 139.91 29.59 140.62 49.04 139.59 68.81 139.34 73.61 135.5 77.47 130.69 77.66Z" stroke="#2C2355" stroke-linecap="round" stroke-linejoin="round" fill="none"/></g><g><rect x="17.72" y="18.02" width="52.57" height="3.95" stroke-width="0" fill="#FF5086"/><rect x="75.4" y="18.02" width="21.2" height="3.95" stroke-width="0" fill="#FF5086"/></g><g><line x1="17.72" y1="30.68" x2="123.87" y2="30.68" stroke="#2C2355" stroke-linecap="round" stroke-linejoin="round" fill="none"/><line x1="17.72" y1="40.19" x2="123.87" y2="40.19" stroke="#2C2355" stroke-linecap="round" stroke-linejoin="round" fill="none"/><line x1="17.72" y1="49.7" x2="123.87" y2="49.7" stroke="#2C2355" stroke-linecap="round" stroke-linejoin="round" fill="none"/><line x1="17.72" y1="59.21" x2="83.15" y2="59.21" stroke="#2C2355" stroke-linecap="round" stroke-linejoin="round" fill="none"/></g></svg>