<svg viewBox="0 0 201.32 201.33" xmlns="http://www.w3.org/2000/svg" xmlns:xlink="http://www.w3.org/1999/xlink" id="Isolation_Mode" overflow="hidden"><defs></defs><path d="M201.32 100.97C201.53 156 156.86 200.9 101.47 201.32 45.63 201.75 0.12 156.67 0 100.83-0.12 45.74 45.08 0.32 100.33 0 156.02-0.32 201.1 44.75 201.32 100.97ZM71.06 93.71C72.28 93.37 73.24 93.12 74.19 92.85 86.52 89.43 90.5 93.1 88.1 105.68 87.94 106.49 87.74 107.3 87.52 108.1 84.83 118.03 81.79 127.88 79.53 137.91 75.84 154.3 84.99 164.35 101.69 162.21 107.21 161.5 112.51 159.21 117.95 157.78 122.18 156.67 123.05 153.74 122.88 149.99 119.05 150.39 115.48 151.09 111.91 151.07 106.78 151.05 104.56 148.75 104.99 143.56 105.37 138.96 106.41 134.4 107.45 129.88 109.85 119.39 113.21 109.05 114.69 98.44 116.05 88.7 109.5 82.18 99.73 80.92 91.83 79.91 84.69 82.35 77.39 84.77 72.96 86.24 70.67 88.53 71.07 93.71ZM125 53.63C125.14 45.36 118.75 38.98 110.21 38.89 101.3 38.79 94.23 45.05 94.17 53.1 94.11 60.95 101.04 67.58 109.44 67.73 117.97 67.88 124.87 61.64 125 53.64Z" stroke-width="0" fill="#CD4C82"/></svg>