<svg viewBox="0 0 365.07 407.05" xmlns="http://www.w3.org/2000/svg" xmlns:xlink="http://www.w3.org/1999/xlink" id="Layer_1" overflow="hidden"><defs></defs><path d="M185.35 310.11C185.35 310.11 184.39 301.16 181.35 288.15 180.62 284.89 179.75 281.38 178.78 277.68 177.86 273.97 176.69 270.11 175.58 266.09 174.34 262.11 173.16 257.96 171.77 253.8 170.39 249.64 169.04 245.39 167.51 241.2 164.57 232.78 161.38 224.42 158.22 216.63 156.61 212.74 155.15 208.96 153.59 205.42 152.05 201.87 150.59 198.52 149.25 195.43 147.93 192.33 146.55 189.53 145.42 187.03 145.14 186.43 144.9 185.91 144.64 185.35 138.42 188.38 131.83 190.88 124.9 192.74 117.97 194.6 111.01 195.72 104.11 196.21 104.17 196.83 104.22 197.4 104.28 198.06 104.55 200.79 104.76 203.91 105.17 207.25 105.55 210.6 105.97 214.23 106.4 218.07 106.82 221.91 107.45 225.92 108 230.09 109.16 238.42 110.58 247.25 112.24 256.01 113.01 260.41 113.97 264.76 114.85 269.06 115.72 273.36 116.78 277.54 117.7 281.61 118.75 285.65 119.67 289.57 120.73 293.25 121.73 296.94 122.74 300.41 123.74 303.6 127.62 316.38 131.26 324.61 131.26 324.61 137.59 338.92 154.32 345.39 168.63 339.06 180.18 333.95 186.61 322.03 185.34 310.11Z" stroke-width="0" fill="#2C2355"/><path d="M180.65 78.53C168.72 34.02 123.02 7.63 78.51 19.56 34.01 31.48 7.62 77.19 19.54 121.7 31.47 166.21 77.17 192.59 121.68 180.67 166.19 168.74 192.57 123.04 180.65 78.53Z" stroke-width="0" fill="#FFFFFF" opacity="0.2"/><path d="M78.51 30.55C123.02 18.62 168.72 45.01 180.65 89.52 182.09 94.88 182.95 100.25 183.31 105.59 183.89 96.72 183.08 87.6 180.65 78.53 168.72 34.02 123.02 7.63 78.51 19.56 39.36 30.05 14.25 66.67 16.88 105.63 19.15 70.96 43.08 40.04 78.51 30.55Z" stroke-width="0" fill="#FFFFFF" opacity="0.2"/><path d="M121.86 153.55C88.95 162.37 55.41 150.4 35.1 125.7 47.91 158.37 83.47 176.88 118.17 167.58 140.44 161.61 157.28 145.55 165.12 125.64 154.36 138.78 139.53 148.81 121.86 153.55Z" stroke-width="0" fill="#FFFFFF" opacity="0.2"/><path d="M193.62 64.47C216.06 123.96 178.73 188.62 115.99 198.93 69.56 206.56 23.17 179.78 6.56 135.75-15.87 76.26 21.46 11.6 84.2 1.29 130.63-6.34 177.02 20.44 193.63 64.47ZM121.68 180.66C166.19 168.73 192.57 123.03 180.65 78.52 168.72 34.01 123.02 7.62 78.51 19.55 34.01 31.48 7.62 77.19 19.54 121.7 31.47 166.21 77.17 192.59 121.68 180.67Z" stroke-width="0" fill="#2C2355"/><path d="M258.4 313.42 218.89 236.88C215.94 231.16 211.35 226.46 205.7 223.36L179.02 208.72 152.84 166.94C150.49 163.19 145.25 162.53 142.07 165.61 131.45 175.94 128.52 192.39 135.81 206.04L148.81 230.35 148.48 230.59 148.18 233.78C146.1 255.7 157.36 276.74 176.75 287.18L177.07 287.35 181.49 288.77C184.4 301.42 185.35 310.1 185.35 310.1 186.62 322.02 180.19 333.94 168.64 339.05 166.14 340.15 163.57 340.85 160.99 341.2L208.14 374.79 258.4 313.43 258.4 313.43Z" stroke-width="0" fill="#E8614E"/><path d="M115.95 302.53 114.49 306.88C112.94 311.5 114.33 316.59 118.01 319.78L140.76 339.28C142.05 340.39 144.11 339.95 144.75 338.37 147.38 331.96 145.32 324.37 139.41 320.23L115.95 302.52Z" stroke-width="0" fill="#E8614E"/><path d="M145.7 330.76C145.18 326.67 143.06 322.79 139.41 320.24L115.95 302.53 114.69 306.28 145.71 330.76Z" stroke-width="0" fill="#E8614E"/><path d="M100.91 220.75 105.17 207.24 107.41 225.79 100.91 220.75Z" stroke-width="0" fill="#E8614E"/><path d="M100.15 246.91 99.3 260.58C99.05 264.58 100.81 268.43 103.99 270.86L138.49 296.97C140.04 298.14 142.3 297.56 143.1 295.78 146.9 287.29 144.28 277.03 136.38 271.5L100.15 246.91Z" stroke-width="0" fill="#E8614E"/><path d="M99.89 251.21 143.9 282.01C142.66 277.9 140.17 274.15 136.39 271.5L100.16 246.91 99.89 251.21Z" stroke-width="0" fill="#E8614E"/><path d="M100.91 220.75 96.6 234.08C94.98 239.09 96.82 244.58 101.14 247.6L134.3 270.58C135.49 271.4 137.21 271.1 137.87 269.82 142.35 261.15 139.84 250.3 131.62 244.55L100.9 220.76Z" stroke-width="0" fill="#E8614E"/><path d="M108.46 274.26 107.77 289.72C107.6 293.58 109.29 297.28 112.32 299.67L143.89 324.35C145.02 325.23 146.75 324.97 147.4 323.7 151.86 315.04 149.35 304.2 141.14 298.45L108.45 274.26Z" stroke-width="0" fill="#E8614E"/><path d="M148.66 308.97C147.42 304.86 144.93 301.1 141.14 298.45L108.45 274.26 108.28 278.14 148.66 308.97Z" stroke-width="0" fill="#E8614E"/><path d="M150.62 168.33C149.81 167.04 148.41 166.27 146.88 166.27 146.64 166.27 146.4 166.3 146.17 166.34 142.4 173.5 143.52 182.56 149.54 188.58L158 180.12 150.61 168.33Z" stroke-width="0" fill="#FFFFFF"/><path d="M123.08 259.63 135.68 268.36C137.01 265.68 137.55 262.78 137.41 259.94 136.68 256.46 134.98 253.14 132.27 250.44L123.08 259.63Z" stroke-width="0" fill="#FFFFFF"/><path d="M140.73 294.71C141.3 293.43 141.7 292.1 141.94 290.76 141.19 287.33 139.5 284.06 136.83 281.39L130.54 287.68 140.06 294.89C140.13 294.95 140.21 294.97 140.31 294.97 140.36 294.97 140.61 294.96 140.72 294.71Z" stroke-width="0" fill="#FFFFFF"/><path d="M134.59 313.77 145.28 322.12C145.71 321.24 146.04 320.34 146.3 319.42 145.95 315.09 144.14 310.85 140.82 307.53L134.59 313.76Z" stroke-width="0" fill="#FFFFFF"/><path d="M136.84 326.42 133.57 329.69 142.17 337.06C141.6 333.17 139.84 329.42 136.84 326.42Z" stroke-width="0" fill="#FFFFFF"/><path d="M167.77 194.52C167.77 194.52 167.26 195.38 166.33 196.46 165.87 197.01 165.31 197.62 164.67 198.23 164.04 198.85 163.35 199.49 162.63 200.08 161.91 200.68 161.16 201.25 160.43 201.75 159.71 202.26 159.01 202.7 158.38 203.05 157.15 203.77 156.21 204.11 156.21 204.11 156.21 204.11 156.72 203.25 157.65 202.17 158.11 201.62 158.67 201.01 159.31 200.4 159.94 199.78 160.63 199.15 161.36 198.55 162.08 197.95 162.83 197.39 163.56 196.88 164.28 196.37 164.98 195.93 165.61 195.58 166.85 194.86 167.78 194.52 167.78 194.52Z" stroke-width="0" fill="#FFFFFF"/><path d="M168.08 198.75C168.08 198.75 167.76 199.45 167.1 200.3 166.47 201.17 165.49 202.18 164.42 203.08 163.35 203.97 162.17 204.74 161.2 205.2 160.24 205.68 159.49 205.87 159.49 205.87 159.49 205.87 159.81 205.17 160.46 204.32 161.09 203.45 162.07 202.44 163.14 201.55 164.22 200.66 165.39 199.89 166.36 199.43 167.32 198.94 168.07 198.76 168.07 198.76Z" stroke-width="0" fill="#FFFFFF"/><path d="M260.29 310.45 254.15 305.19 200.09 370.73 205.1 376.11 260.29 310.45Z" stroke-width="0" fill="#FFF9F2"/><path d="M365.07 394.7 261.53 308.97 203.03 378.57 230.35 407.05 365.07 407.05 365.07 394.7Z" stroke-width="0" fill="#4FAEA1"/></svg>