<svg viewBox="0 0 651.41 1323.19" xmlns="http://www.w3.org/2000/svg" xmlns:xlink="http://www.w3.org/1999/xlink" id="Layer_1" overflow="hidden"><defs></defs><path d="M325.28 0C319.53 0 313.57 0.18 307.57 0.52 288.76 1.6 269.47 4.49 250.22 9.11 231.02 13.72 212.54 19.95 195.28 27.64 177.63 35.51 161.57 44.83 147.55 55.34 139.79 61.16 132.73 67.37 126.58 73.79 119.48 81.22 114.01 89.02 110.31 96.98 107.56 102.9 105.86 109.17 105.27 115.61 104.99 118.64 105 121.95 105.29 125.43 105.37 126.37 105.48 127.29 105.62 128.2 102.95 129.23 100.53 130.41 98.25 131.76 95.93 133.13 93.59 134.76 91.08 136.74 87.02 139.97 83.41 143.88 80.36 148.36 74.99 156.25 71.86 165.98 71.08 177.29 70.73 182.26 70.9 187.53 71.58 193.43 72.23 198.92 73.32 204.7 74.85 210.61 77.66 221.45 81.89 232.78 87.78 245.25 92.76 255.85 98.83 266.77 105.81 277.71 111.87 287.23 118.44 296.43 125.34 305.04 129.77 310.59 133.94 315.33 138.06 319.53 138.36 320.69 139.36 321.51 140.45 321.51 140.6 321.51 140.75 321.49 140.9 321.46 156.76 318.11 172.62 316.82 187.41 315.92 191.63 315.67 195.86 315.45 200.08 315.22 215.29 314.42 231.03 313.58 246.38 311.45 251.38 310.75 256.41 309.83 261.1 308.95 266.04 308.03 270.99 307.08 275.93 306.12 285.93 304.17 295.85 302.14 305.41 300.09 326.26 295.61 345.34 290.99 363.75 285.96 373.4 283.33 383.13 280.48 392.68 277.51 397.67 275.96 402.17 274.54 406.69 272.92 410.78 271.44 414.91 269.75 419.31 267.73 431.81 262.03 443.53 254.76 453.53 248.4 453.84 248.21 454.02 248.07 454.15 247.93 454.42 247.68 454.6 247.4 454.73 247.06 454.77 246.95 454.79 246.85 454.82 246.74 458.59 234.87 461.38 222.52 463.12 210.03 465.36 194.13 465.52 180.38 463.62 167.98 462.84 162.85 461.61 158.02 459.98 153.63 462.79 151.94 465.54 149.7 468.39 146.81 473.37 141.77 477.4 135.19 480.37 127.26 483.04 120.11 484.59 112.27 484.99 103.94 485.37 95.92 484.61 88.18 482.73 80.95 481.69 76.95 480.28 73 478.52 69.2 476.89 65.69 474.84 62.11 472.4 58.54 468.13 52.29 462.47 46.18 455.57 40.39 449.56 35.34 442.6 30.67 434.31 26.09 427.18 22.15 419.49 18.62 410.81 15.32 403.45 12.51 395.67 10.03 387.03 7.74 378.98 5.59 370.79 3.88 362.7 2.67 350.89 0.9 338.3 9.23706e-14 325.28 9.23706e-14" stroke-width="0" fill="#01484D"/><path d="M448.61 221.11C445.37 221.11 442.26 221.77 439.62 223.01 438.5 223.54 437.44 224.19 436.37 225 436.35 225 436.32 225 436.29 225 435.4 225 434.73 225.33 434.24 225.88 431.01 229.51 428.66 234.25 426.86 240.8 425.71 244.98 424.8 249.64 424.09 255.06 423.37 260.6 422.96 266.35 422.89 272.16 422.81 278.62 423.13 284.41 423.86 289.86 424.68 295.85 425.96 300.95 427.76 305.45 429.68 310.23 432.26 314.05 435.42 316.82 438.64 319.64 442.98 321.25 447.35 321.25 448.32 321.25 449.29 321.17 450.24 321.01 455.65 320.12 460.9 316.8 466.29 310.86 468.32 308.62 470.27 306.01 472.27 302.87 473.94 300.27 475.49 297.5 476.86 294.63 479.72 288.7 481.78 281.96 482.97 274.6 484.29 266.44 484.19 258.61 482.68 251.32 481.89 247.5 480.67 243.88 479.03 240.55 477.46 237.38 475.58 234.63 473.44 232.39 470.73 229.55 467.4 227.07 463.53 225.04 459.74 223.05 455.58 221.75 451.48 221.28 450.53 221.17 449.56 221.11 448.6 221.11" stroke-width="0" fill="#F0BEA9"/><path d="M451.07 233.06C448.71 233.4 446.38 234.1 444.21 235.06 441.85 236.1 439.58 237.32 437.49 238.84 435.43 240.34 433.55 242.12 431.81 243.97 430.07 245.8 428.52 247.79 427.13 249.91 425.75 252 424.51 254.22 423.55 256.54 423.1 257.63 422.75 258.76 422.46 259.9 422.18 260.92 422.05 261.94 421.89 262.98 421.65 264.52 422.78 266 424.31 266.22 425.05 266.32 425.8 266.13 426.4 265.7 427.06 265.21 427.37 264.57 427.54 263.79 427.54 263.79 427.54 263.77 427.54 263.76 428.55 260.54 429.96 257.47 431.64 254.56 434.06 250.59 436.98 246.98 440.28 243.74 441.5 242.59 442.76 241.47 444.05 240.42 445.45 239.29 446.95 238.36 448.53 237.5 448.38 237.57 448.23 237.66 448.08 237.73 449.72 236.87 451.4 236.18 453.19 235.72 454.41 235.45 455.63 235.28 456.89 235.27 458.19 235.29 459.46 235.46 460.72 235.8 460.71 235.8 460.7 235.8 460.68 235.79 461.58 236.07 462.44 236.43 463.29 236.86 463.73 237.08 464.29 236.81 464.47 236.39 464.68 235.92 464.43 235.43 463.99 235.21 462.03 234.21 459.97 233.51 457.82 233.11 456.71 232.91 455.58 232.82 454.44 232.82 453.3 232.82 452.17 232.91 451.05 233.06M453.07 235.75C452.99 235.77 452.91 235.79 452.82 235.81 452.9 235.79 452.99 235.77 453.07 235.75" stroke-width="0" fill="#DA8C67"/><path d="M300.69 93 299.55 93C286.27 93.02 272.98 93.76 260.05 95.19 244.11 96.93 230.02 99.57 216.95 103.26 210.02 105.21 203.18 107.6 196.64 110.38 190.11 113.15 184.08 116.33 178.72 119.82 173.03 123.54 168.02 127.71 163.82 132.2 161.39 134.79 159.13 137.75 157.11 140.98 155.36 143.79 153.82 146.91 152.42 150.51 150.09 156.46 148.69 163.38 148.25 171.06 147.87 177.58 148.3 184.53 149.6 192.93 152.01 208.44 157.15 223.53 161.87 236.25 163.59 240.91 165.39 245.53 167.18 250.16L168.49 253.53 169.79 256.87C170.76 259.37 171.73 261.89 172.58 264.44 167.5 262.25 162.19 261.16 156.83 261.16 150.59 261.21 144.73 262.77 139.6 265.68 134.37 268.63 129.89 273.24 126.63 279.03 124.99 281.96 123.6 285.4 122.39 289.53 121.37 293.03 120.7 296.87 120.37 300.94 119.82 307.98 120.75 315.58 123.07 322.91 125.22 329.74 128.64 336.39 133.22 342.67 135.43 345.71 137.9 348.61 140.55 351.31 143 353.82 145.79 356.26 149.08 358.79 156.82 364.76 166.43 369.46 177.65 372.75 183.63 374.51 189.53 375.52 195.18 375.75 195.86 375.78 196.55 375.79 197.23 375.79 200.83 375.79 204.27 375.39 207.46 374.59 210.63 379.71 213.51 385.27 215.99 391.11 220.31 401.48 223.3 412.53 224.9 423.96 226.39 435.3 226.42 446.58 225 457.46 223.67 467.01 221.23 476.07 217.74 484.38L218.04 483.85C217.21 485.67 216.37 487.5 215.47 489.3 214.71 489.97 214.47 491.08 214.89 492.06 214.96 492.31 215.08 492.55 215.26 492.77 219.38 500.22 225.65 507.24 233.88 513.63 242.06 519.96 251.46 525.24 262.61 529.77 273.15 534.05 284.39 537.11 296.01 538.88 303.17 539.97 310.21 540.52 316.95 540.52 321.51 540.52 326.02 540.27 330.37 539.77 341.94 538.46 352.33 535.42 361.24 530.74 365.75 528.38 369.98 525.44 373.84 522.01 377.6 518.68 380.95 514.73 383.81 510.27 384.45 509.27 385.05 508.25 385.62 507.22 385.69 507.12 385.76 507.01 385.82 506.87 385.94 506.65 386.06 506.43 386.17 506.22 386.79 505.03 386.42 503.63 385.32 502.98 384.97 502.78 384.56 502.67 384.13 502.67 383.92 502.67 383.71 502.69 383.5 502.75 380.75 500.39 378.11 497.63 375.7 494.56 372.16 489.9 369.15 484.65 366.51 478.52L366.51 478.52C363.04 470.2 360.57 461 359.19 451.2L359.15 450.84C358.36 444.68 358 438.66 358.09 432.8 363.69 431.83 369.21 430.55 374.48 429.02 383.32 426.45 392.07 422.95 400.49 418.63 408.8 414.37 416.54 409.32 423.5 403.62 429.7 398.57 435.38 392.6 440.39 385.88 445 379.7 448.92 372.67 452.03 364.97 454.91 357.85 456.94 349.93 458.06 341.42 459.11 333.36 459.14 324.63 458.14 313.95 457.33 305.29 455.82 295.91 453.38 284.43 452.08 278.31 450.66 272.21 449.23 266.11 446.24 253.32 443.14 240.09 441.34 226.83L441.34 226.89C440.74 222.26 440.29 217.49 440.02 212.71 439.81 209 439.67 205.03 439.54 199.84 439.46 196.31 439.4 192.78 439.35 189.25 439.27 183.95 439.19 178.65 439.01 173.36 438.48 157.38 437.04 138.73 430.42 121.53 428.04 115.33 425.01 109.48 421.42 104.15 421.42 103.47 421.17 102.86 420.72 102.41 420.3 101.99 419.79 101.78 419.06 101.72 406.81 100.76 394.37 99.53 382.34 98.34 355.64 95.71 328.02 92.98 300.71 92.98" stroke-width="0" fill="#F6CFBE"/><path d="M299.55 92.92C286.18 92.96 272.89 93.7 260.05 95.12 244.05 96.88 229.95 99.52 216.92 103.21 209.95 105.15 203.11 107.54 196.61 110.33 190.06 113.1 184.04 116.27 178.69 119.77 172.98 123.47 167.97 127.64 163.76 132.15 161.29 134.8 159.03 137.76 157.05 140.96 155.3 143.73 153.77 146.85 152.36 150.48 150.04 156.38 148.63 163.31 148.17 171.06 147.81 177.28 148.19 183.87 149.35 191.72 160.93 192.37 172.59 191.93 184 189.88 184 189.88 184.02 189.88 184.03 189.88L184 189.88C184 189.88 184 189.88 184 189.89 184.02 189.89 184.06 189.88 184.08 189.87 184.11 189.87 184.15 189.85 184.19 189.85 192.42 188.33 200.5 185.94 208.07 182.34 208.07 182.34 208.07 182.34 208.05 182.34 208.03 182.34 208.03 182.34 208.03 182.34 208.03 182.34 208.05 182.34 208.05 182.34 213.16 179.87 217.99 176.84 222.33 173.19 222.33 173.19 222.34 173.19 222.35 173.17 222.35 173.17 222.34 173.18 222.33 173.19L222.33 173.19C222.33 173.19 222.38 173.15 222.4 173.13 222.42 173.11 222.44 173.09 222.46 173.08 225.98 170.05 229.12 166.65 231.81 162.85L231.81 162.85C231.81 162.85 231.81 162.85 231.81 162.85 231.81 162.85 231.81 162.85 231.81 162.83 231.81 162.83 231.83 162.81 231.83 162.8 231.83 162.8 231.81 162.82 231.81 162.83L231.81 162.83C231.81 162.83 231.83 162.8 231.86 162.77L231.84 162.79C234.38 159.16 236.46 155.27 238.07 151.18 238.14 151 238.35 150.85 238.52 150.79 238.6 150.77 238.69 150.74 238.77 150.74 238.89 150.74 239.01 150.78 239.12 150.84 239.15 150.86 239.18 150.87 239.2 150.9 239.26 150.9 239.32 150.9 239.39 150.93 247.64 153.65 255.89 156.4 264.42 158.07 272.95 159.75 281.55 160.94 290.19 161.69 290.13 161.69 290.06 161.68 289.98 161.68 302.21 162.72 314.52 162.9 326.77 162.21 338.81 161.55 350.77 160.12 362.63 157.96 362.56 157.97 362.5 158 362.42 158.01 367.16 157.14 371.89 156.26 376.63 155.35 381.75 154.35 386.88 153.31 391.98 152.12 402.45 149.64 412.87 146.64 422.63 142.04L422.62 142.04C426.81 140.04 430.87 137.71 434.56 134.89 433.47 130.38 432.12 125.9 430.43 121.52 428.04 115.29 425.01 109.45 421.42 104.15 421.46 103.48 421.21 102.86 420.73 102.37 420.28 101.95 419.76 101.71 419.02 101.65 407.43 100.75 395.68 99.61 383.63 98.42L382.31 98.29C355.57 95.65 327.93 92.92 300.69 92.92L299.55 92.92ZM208.04 182.34 207.89 182.41C207.89 182.41 207.99 182.36 208.04 182.34" stroke-width="0" fill="#F0BEA9"/><path d="M222.46 173.07C222.46 173.07 222.42 173.1 222.4 173.12 222.4 173.12 222.4 173.12 222.4 173.13 222.42 173.11 222.46 173.08 222.48 173.06L222.46 173.06" stroke-width="0" fill="#F0BEA9"/><path d="M184.09 189.86C184.09 189.86 184.16 189.85 184.19 189.84 184.16 189.84 184.13 189.84 184.09 189.86" stroke-width="0" fill="#F0BEA9"/><path d="M184.08 189.86C184.08 189.86 184.08 189.86 184.07 189.86 184.07 189.86 184.08 189.86 184.09 189.86L184.09 189.86" stroke-width="0" fill="#F0BEA9"/><path d="M272.79 427.38C272.79 427.38 272.81 427.39 272.81 427.4 272.81 427.4 272.79 427.38 272.79 427.38 272.79 427.38 272.79 427.38 272.78 427.38 282.78 435.56 293.8 442.46 305.59 447.8L305.6 447.8 305.59 447.8 305.67 447.84 305.6 447.8C310.79 450.13 316.09 452.16 321.54 453.8 326.93 455.44 332.4 456.72 337.96 457.59 337.98 457.59 337.99 457.59 338.01 457.59 342.54 458.28 347.11 458.73 351.71 458.84 354.65 458.91 357.59 458.85 360.53 458.67 360.03 456.23 359.6 453.74 359.25 451.21L359.2 450.85C358.41 444.81 358.06 438.83 358.13 433.03 353.64 433.58 349.11 433.86 344.59 433.89 336.54 433.96 328.47 433.37 320.49 432.25 312.41 431.11 304.41 429.51 296.53 427.43 288.82 425.4 281.19 422.97 273.76 420.07 268.26 417.92 262.85 415.55 257.6 412.87 262.3 418.08 267.4 422.91 272.8 427.38" stroke-width="0" fill="#DA8C67"/><path d="M337.97 457.59C337.97 457.59 337.97 457.59 337.95 457.59L337.95 457.59C337.95 457.59 337.97 457.59 337.97 457.59" stroke-width="0" fill="#DA8C67"/><path d="M338.02 457.59C338.02 457.59 338.02 457.59 338.01 457.59 338 457.59 337.99 457.59 337.97 457.59 337.99 457.59 338 457.59 338.02 457.59" stroke-width="0" fill="#DA8C67"/><path d="M168.64 289.19C168 289.61 167.67 290.21 167.45 290.91 165.93 296.03 165.63 301.47 166.04 306.76 166.48 312.32 167.84 317.84 169.99 322.98 171.06 325.55 172.37 328.03 173.83 330.41 175.24 332.73 176.89 334.87 178.67 336.92 182.1 340.89 186.24 344.23 190.92 346.6 191.46 346.88 192.15 346.66 192.44 346.11 192.71 345.58 192.49 344.88 191.95 344.61 190.79 344.02 189.67 343.37 188.6 342.64 186.25 340.99 184.15 339.05 182.26 336.89 180.01 334.22 178.16 331.25 176.6 328.15 174.51 323.83 173.04 319.23 172.09 314.53 171.26 309.99 170.91 305.39 171.24 300.79 171.52 297.84 172.07 294.94 172.89 292.1 173.1 291.41 172.89 290.56 172.5 289.98 172.1 289.38 171.47 288.95 170.76 288.79 170.57 288.75 170.37 288.73 170.18 288.73 169.64 288.73 169.09 288.89 168.64 289.19M172.06 314.41C172.06 314.41 172.06 314.46 172.08 314.49 172.08 314.47 172.08 314.44 172.06 314.41" stroke-width="0" fill="#DA8C67"/><path d="M151.25 281.41C143.95 281.57 136.53 284.16 131.38 289.45 131.08 289.75 130.99 290.2 131.28 290.54 131.53 290.84 132.08 290.94 132.37 290.64 133.57 289.4 134.89 288.33 136.35 287.41L136.17 287.52C137.82 286.5 139.57 285.7 141.4 285.08 143.55 284.42 145.74 284.04 147.99 283.91 150.35 283.83 152.68 284.03 155 284.49 154.91 284.47 154.81 284.46 154.72 284.44 157.07 284.94 159.34 285.69 161.51 286.73 163.19 287.62 164.73 288.67 166.16 289.92 166.97 290.69 167.72 291.51 168.41 292.4 169.21 293.41 170.78 293.49 171.75 292.68 172.24 292.28 172.54 291.68 172.59 291.05 172.63 290.49 172.46 289.75 172.04 289.35 170.63 288 169.15 286.78 167.5 285.75 165.9 284.75 164.16 283.92 162.38 283.25 159.07 281.98 155.5 281.4 151.96 281.4 151.72 281.4 151.48 281.4 151.24 281.4" stroke-width="0" fill="#DA8C67"/><path d="M323.64 70.82C312.75 70.82 301.63 71.26 290.6 72.14 271.4 73.69 253.01 76.54 235.95 80.63 219.67 84.54 205.53 89.51 192.73 95.84 178.13 103.06 166 111.84 156.67 121.93 151.51 127.5 147.2 133.53 143.84 139.84 140.15 146.75 137.53 154.19 136.05 161.95 132.96 178.13 134.65 196.46 141.08 216.42 143.76 224.73 147.18 233.1 151.53 242 152.35 243.69 153.21 245.35 154.07 247.01 154.65 248.14 155.24 249.27 155.81 250.4 156.9 252.61 158.02 254.82 159.19 257.01 160.69 259.8 162.18 262.3 163.74 264.64 165.68 267.54 167.45 269.75 169.31 271.6 171.46 273.73 173.61 275.18 175.88 276.03 176.93 276.42 178.11 276.64 179.29 276.65L179.29 276.65C180.64 276.65 181.84 276.4 183.33 275.83 188.83 273.72 190.15 267.04 190.67 261.46 191.14 256.52 190.89 251.48 190.66 246.6L190.55 244.32C189.99 231.46 187.63 218.23 183.54 204.97 180.45 194.97 176.52 185.53 171.85 176.91 174.34 176.6 176.91 176.05 179.47 175.31 186.31 173.35 192.98 169.96 199.3 165.24 210.54 156.83 219.01 145.24 223.14 132.62 226.21 133.6 229.64 134.48 233.56 135.35 241.62 137.13 249.94 138.32 257.98 139.48L259.77 139.74C274.42 141.86 289.2 143.15 303.69 143.58 307.18 143.68 310.68 143.74 314.18 143.74 326.34 143.74 338.36 143.08 349.88 141.78 365.82 139.97 380.91 136.8 394.74 132.37 405.98 128.76 416.43 124.29 425.8 119.09 435.91 113.5 445.16 106.83 453.29 99.26 453.76 98.81 454.04 98.22 454.08 97.57 454.17 97.48 454.27 97.37 454.36 97.25 454.66 96.78 454.88 96.04 454.69 95.44 454.27 94.17 453.86 93.23 453.38 92.38 452.85 91.46 452.19 90.57 451.42 89.74 450.02 88.19 448.21 86.86 445.9 85.65 441 83.12 435.46 82.01 430.69 81.25 425.11 80.37 419.28 79.99 414.14 79.65L411.96 79.51C408.23 79.28 404.38 79.03 400.65 78.34L399.47 78.11C395.86 77.41 392.24 76.7 388.61 76.09 384.18 75.34 379.64 74.67 375.11 74.09 366.11 72.91 356.77 72.04 347.34 71.5 339.48 71.04 331.51 70.81 323.63 70.81" stroke-width="0" fill="#01484D"/><path d="M443.84 103.95C442.3 105.29 440.72 106.59 439.09 107.85 439.15 107.8 439.2 107.77 439.26 107.72 430.18 114.7 420.19 120.38 409.66 124.87 401.44 128.3 392.96 131.1 384.32 133.32 375.55 135.57 366.63 137.17 357.67 138.39 357.72 138.39 357.76 138.39 357.81 138.37 346.84 139.81 335.77 140.54 324.71 140.76 318.67 140.87 312.62 140.87 306.58 140.61 299.94 140.33 293.32 139.7 286.74 138.85 286.85 138.86 286.96 138.88 287.06 138.9 286.81 138.87 286.57 138.83 286.32 138.8 286.27 138.8 286.22 138.79 286.16 138.78 286.19 138.78 286.23 138.78 286.26 138.79 265.15 135.88 244.52 130.54 223.97 125.03 221.86 124.46 219.62 125.71 219.04 127.83 218.47 129.89 219.72 132.23 221.85 132.76 241.41 137.62 261.07 142.18 281.06 144.88 291.12 146.24 301.25 147.13 311.4 147.29 319.88 147.41 328.38 147.17 336.84 146.57 353.67 145.39 370.43 142.62 386.55 137.63 402.44 132.71 417.6 125.44 431.2 115.86 435.97 112.51 440.54 108.86 444.94 105.04 445.27 104.76 445.23 104.23 444.94 103.95 444.78 103.8 444.6 103.73 444.41 103.73 444.21 103.73 444.01 103.81 443.84 103.95M409.52 124.92C409.47 124.94 409.42 124.96 409.36 124.99 409.41 124.97 409.46 124.95 409.52 124.92M286.31 138.79 286.73 138.85C286.57 138.83 286.41 138.81 286.26 138.79 286.28 138.79 286.3 138.79 286.31 138.79" stroke-width="0" fill="#01363A"/><path d="M218.09 127.06C217.8 129.24 217.45 131.36 216.89 133.49 215.59 137.88 213.69 142.06 211.36 146.01 208.37 150.88 204.71 155.29 200.6 159.26L200.79 159.08C200.71 159.15 200.63 159.23 200.54 159.31 200.47 159.38 200.39 159.46 200.31 159.53 200.36 159.48 200.41 159.43 200.47 159.38 196.14 163.41 191.37 166.9 186.19 169.73 182.24 171.81 178.1 173.48 173.76 174.55 173.92 174.52 174.06 174.48 174.22 174.44 173.09 174.72 171.95 174.95 170.79 175.15 169.78 175.31 169.02 176.15 169.14 177.2 169.24 178.16 170.18 179.02 171.19 178.85 183.86 176.73 195.61 170.37 205.03 161.72 210.03 157.13 214.37 151.89 217.87 146.06 219.52 143.3 220.97 140.45 222.13 137.45 222.68 136.05 223.14 134.63 223.56 133.21 224.07 131.52 224.54 129.81 224.85 128.07 225.18 126.22 223.78 124.44 221.97 124.17 221.81 124.15 221.64 124.13 221.48 124.13 219.83 124.13 218.3 125.37 218.08 127.05M200.46 159.37C200.46 159.37 200.51 159.32 200.53 159.3 200.55 159.28 200.56 159.26 200.58 159.25 200.54 159.29 200.5 159.33 200.45 159.37" stroke-width="0" fill="#01363A"/><path d="M247.07 93.53C246.11 93.77 245.27 94.4 244.77 95.26 244.28 96.1 244.15 97.09 244.38 98.03 244.5 98.32 244.62 98.62 244.73 98.92 245.07 99.51 245.53 99.99 246.11 100.33 246.22 100.41 246.32 100.49 246.43 100.56 247.72 101.57 249.05 102.53 250.41 103.45 252 104.52 253.67 105.5 255.33 106.45 258.59 108.29 261.94 109.94 265.36 111.43 272.5 114.55 279.91 117.01 287.49 118.85 302.88 122.59 318.85 123.76 334.65 123.13 345.47 122.69 356.22 121.17 366.82 119.06 376.91 117.05 386.8 114.12 396.49 110.68 396.89 110.53 397.16 110.17 397.05 109.73 396.95 109.35 396.5 109.03 396.1 109.17 390.84 110.99 385.46 112.45 380.02 113.65 374.32 114.91 368.56 115.9 362.77 116.61L362.81 116.61C362.75 116.61 362.69 116.61 362.63 116.63L362.63 116.63C362.63 116.63 362.6 116.63 362.59 116.63 360.67 116.86 358.74 117.07 356.81 117.25 354.64 117.45 352.45 117.57 350.28 117.7 346.04 117.95 341.79 118.04 337.54 118.05 328.88 118.06 320.18 117.54 311.6 116.39 298.06 114.48 284.68 111.26 272.03 106.02 272.33 106.15 272.64 106.27 272.94 106.41 268.93 104.72 265.01 102.86 261.19 100.8 259.24 99.73 257.32 98.61 255.42 97.45 253.54 96.31 251.6 95.2 249.81 93.93 249.32 93.59 248.66 93.44 248.01 93.44 247.67 93.44 247.34 93.48 247.05 93.56M245.68 100C245.76 100.07 245.84 100.13 245.93 100.19 245.85 100.13 245.77 100.06 245.68 100M362.63 116.65C362.63 116.65 362.72 116.65 362.77 116.63 362.72 116.63 362.68 116.63 362.63 116.65" stroke-width="0" fill="#01363A"/><path d="M430.88 68.53C424.04 72.02 416.94 74.99 409.73 77.67 402.52 80.33 395.12 82.52 387.64 84.29 381.13 85.79 374.52 86.86 367.89 87.63 361.08 88.41 354.17 88.65 347.32 88.49 343.84 88.37 340.37 88.14 336.89 87.84 333.04 87.51 329.23 86.99 325.4 86.49 323.49 86.25 321.67 87.49 321.37 89.42 321.06 91.36 322.41 93.09 324.3 93.45 333.41 95.23 342.8 95.34 352.04 94.85 356.62 94.6 361.19 94.04 365.72 93.36 370.29 92.68 374.83 91.83 379.34 90.75 388.28 88.59 397.1 85.93 405.68 82.63 409.98 80.98 414.22 79.21 418.41 77.31 422.59 75.43 426.67 73.35 430.74 71.27 431.07 71.1 431.38 70.93 431.71 70.77 432.28 70.47 432.66 69.9 432.4 69.23 432.24 68.8 431.76 68.44 431.28 68.44 431.14 68.44 431 68.47 430.87 68.54M387.98 84.22C387.89 84.24 387.8 84.26 387.72 84.28 387.8 84.26 387.89 84.24 387.98 84.22" stroke-width="0" fill="#01363A"/><path d="M331.56 1074.23C314.76 1074.23 296.89 1074.93 275.33 1076.43 245.58 1078.54 221.3 1081.46 198.9 1085.62 172.75 1090.49 148.09 1097.58 125.63 1106.68 119.56 1109.15 113.59 1111.8 107.9 1114.55L108.48 1112.56C110.43 1105.27 112.21 1098.62 113.95 1092.35 114.11 1091.78 114.02 1091.18 113.69 1090.62 113.34 1090.03 112.74 1089.59 112.09 1089.44 111.9 1089.41 111.75 1089.39 111.57 1089.39 110.47 1089.39 109.51 1090.16 109.21 1091.31 99.01 1128.05 90.53 1166.31 83.28 1208.28 77.4 1242.43 72.59 1277.78 68.58 1316.33 68.51 1317 68.53 1317.56 68.91 1318.14 69.26 1318.67 69.8 1319.04 70.43 1319.2 70.61 1319.24 70.78 1319.27 70.92 1319.27L71.27 1319.45 71.25 1319.48C71.72 1319.78 72.12 1319.9 72.6 1319.9 72.8 1319.9 72.99 1319.89 73.19 1319.85 75.17 1319.59 77.15 1319.34 79.13 1319.13 94.1 1317.46 110.18 1316.69 129.75 1316.69 141.89 1316.69 154.3 1317 165.9 1317.33L176.5 1317.66 178.59 1317.72 178.92 1317.72C189.04 1318.03 199.51 1318.34 209.8 1318.5 213.25 1318.55 216.7 1318.57 220.16 1318.57 224.05 1318.57 227.95 1318.54 231.84 1318.51L234.77 1318.49 237.71 1318.47C243.3 1318.42 248.89 1318.37 254.49 1318.36L256.03 1318.36C281.83 1318.36 308.09 1318.88 333.49 1319.38L334.5 1319.4 336.98 1319.46 346.61 1319.66C352.34 1319.77 358.09 1319.86 363.83 1319.96L367.36 1320.03C375.82 1320.18 384.16 1320.33 392.5 1320.53 404.22 1320.83 415.97 1321.26 427.7 1321.68L438.09 1322.04C452.4 1322.55 469.33 1323.08 486.48 1323.18 488.21 1323.18 489.94 1323.2 491.67 1323.2 497.94 1323.2 504.16 1323.13 510.16 1322.98 514.08 1322.9 518.02 1322.76 521.94 1322.59 525.76 1322.41 529.56 1322.14 534.23 1321.7 534.75 1321.66 535.36 1321.56 535.92 1321.05 536.39 1320.6 536.67 1319.97 536.68 1319.33 536.69 1318.69 536.46 1318.09 536.01 1317.62 535.99 1317.38 536.03 1317.17 536.07 1316.99 540.05 1279.74 541.48 1240.97 540.43 1198.46 539.76 1170.93 537.99 1142.01 535.16 1112.5 535.03 1111.2 533.99 1110.21 532.75 1110.21 531.99 1110.25 531.34 1110.56 530.87 1111.1 530.44 1111.6 530.24 1112.2 530.3 1112.79 531.06 1120.57 531.79 1129.11 532.49 1138.18 522.47 1122.88 505.7 1113.6 492.21 1107.21 488.51 1105.44 484.3 1103.58 478.56 1101.17L478.2 1101.01C473.16 1098.9 468.61 1097.02 464.01 1095.25 452.71 1090.91 440.44 1087.17 427.55 1084.13 404.65 1078.73 379.85 1075.61 351.75 1074.59 345.15 1074.34 338.55 1074.23 331.56 1074.23" stroke-width="0" fill="#0D5E4E"/><path d="M416.97 1219.89C413 1224.3 408.54 1228.12 403.73 1231.59L403.8 1231.54C397.82 1235.78 391.28 1239.19 384.45 1241.85 379.34 1243.78 374.14 1245.39 368.81 1246.61 363.55 1247.81 358.2 1248.58 352.82 1249.18 348.59 1249.61 344.33 1249.81 340.07 1249.87 337.71 1249.9 335.71 1251.69 335.66 1254.11 335.61 1256.36 337.53 1258.62 339.9 1258.52 347.43 1258.22 354.97 1257.17 362.29 1255.31 369.53 1253.48 376.6 1250.85 383.35 1247.68 389.99 1244.56 396.28 1240.67 402.18 1236.32 408.12 1231.95 413.53 1226.94 418.45 1221.45 418.84 1221.01 418.92 1220.38 418.5 1219.93 418.3 1219.71 417.98 1219.59 417.68 1219.59 417.42 1219.59 417.16 1219.68 416.98 1219.88" stroke-width="0" fill="#072F27"/><path d="M334.71 1254.29C332.15 1264.19 329.63 1274.09 327.23 1284.03 326.04 1289 324.91 1293.99 323.82 1298.98 323.24 1301.63 322.69 1304.28 322.19 1306.94 321.67 1309.69 321.1 1312.53 321.01 1315.33 320.96 1317.38 322.37 1319.27 324.34 1319.84 325.12 1320.06 325.89 1320.07 326.68 1319.89 327.74 1319.64 329.04 1318.86 329.52 1317.83 331.68 1313.08 332.79 1307.9 333.92 1302.84 335.04 1297.84 336.05 1292.82 337.03 1287.79 339.06 1277.45 341.05 1267.1 343.67 1256.89 344.3 1254.44 342.98 1251.84 340.49 1251.12 340.08 1251 339.66 1250.94 339.24 1250.94 337.22 1250.94 335.24 1252.26 334.71 1254.3" stroke-width="0" fill="#072F27"/><path d="M224.58 457.94C223.93 457.94 223.33 458.18 222.89 458.62 222.56 458.95 222.34 459.37 222.25 459.82 222.08 460.06 221.98 460.27 221.93 460.48 221.17 463.97 219.97 467.43 218.24 471.07L218.55 470.55C214.82 477.89 209.68 484.54 204.73 490.73L202.53 493.48C200.8 495.63 199.07 497.79 197.37 499.98 194.89 503.19 192.48 506.67 190.22 510.33 181.01 525.17 173 541.24 166.4 558.07 155.1 586.9 147.83 619.46 143.53 660.56 142.48 670.46 141.69 680.23 140.91 690.21 140.1 700.46 139.37 710.72 138.69 720.98 137.6 737.28 136.63 753.59 135.67 769.9L134.95 782.07C132.64 821.13 129.99 862.65 125.32 903.17 122.75 925.46 119.58 946.99 115.88 967.18L116 966.85C111.81 989.24 106.67 1011.58 100.7 1032.97 95.29 1052.36 88.77 1072.85 79.54 1099.42 79.35 1099.95 79.39 1100.55 79.64 1101.11 79.59 1101.75 79.8 1102.39 80.23 1102.88 95.52 1120.11 113.19 1135.45 132.74 1148.47 151 1160.64 171.59 1171.08 193.94 1179.51 214.6 1187.3 237.09 1193.3 260.81 1197.36 283.1 1201.18 306.53 1203.23 330.45 1203.48 332.06 1203.5 333.68 1203.51 335.3 1203.51 356.22 1203.51 377.88 1202.07 399.7 1199.24 412.82 1197.53 425.59 1195.27 437.66 1192.52 450.7 1189.56 463.71 1185.78 476.32 1181.3 490.46 1176.27 504.02 1170.3 516.64 1163.56 529.53 1156.69 541.91 1148.61 553.45 1139.57 553.79 1139.3 554.03 1138.93 554.14 1138.47 554.5 1138.07 554.69 1137.56 554.71 1136.87 555.17 1126.15 555.22 1115.5 555.23 1104.63 555.24 1094.21 555.17 1083.57 555 1072.11 554.66 1050.42 553.92 1028.44 552.81 1006.79 550.5 962.04 546.4 918.26 540.61 876.69 537.5 854.31 534.1 834.19 530.22 815.17 526.19 795.45 521.26 775.17 515.57 754.88 504.44 715.32 490.23 676.07 473.33 638.2 467.16 624.39 460.17 609.89 450.68 591.17 441.88 573.83 433.76 558.83 425.88 545.34 406.53 512.21 386.71 485.7 365.28 464.29 365.19 463.9 364.98 463.52 364.67 463.22 364.23 462.79 363.62 462.54 362.98 462.54 362.34 462.54 361.75 462.78 361.34 463.22 359.14 465.57 356.64 467.83 353.7 470.12 351.15 472.07 348.48 473.86 345.77 475.44 343.17 476.95 340.33 478.36 337.32 479.63L337.9 479.44C330.7 482.38 322.82 484.5 314.43 485.65L315.06 485.65C310.15 486.23 305.12 486.56 300.08 486.56 295.04 486.56 289.46 486.2 284.14 485.49 273.74 484.04 263.79 481.33 254.56 477.44L255.09 477.74C247.35 474.39 240.28 470.35 234.11 465.65 231.26 463.42 228.61 461.05 226.23 458.62 225.8 458.18 225.21 457.94 224.57 457.94" stroke-width="0" fill="#E34C07"/><path d="M273.47 900.82C269.62 900.82 265.44 901.2 261.05 901.95 256.28 902.76 251.2 904.06 245.52 905.91 240.59 907.52 235.6 909.5 230.27 911.95 220.61 916.37 211.26 921.74 202.49 927.94 198.59 930.69 194.97 933.52 191.74 936.36 188.84 938.92 186.06 941.75 183.23 945.03 178.87 950.11 175.17 954.97 171.93 959.89 169.96 962.87 168.18 965.92 166.64 968.97 165.06 972.1 163.95 974.97 163.25 977.77 162.44 980.94 162.23 983.71 162.61 986.22 162.81 987.57 163.28 989.03 164.03 990.68 164.8 992.33 165.86 993.72 167.17 994.81 168.12 995.6 169.36 996.13 170.88 996.38 171.23 996.44 171.57 996.47 171.92 996.47 173.14 996.47 174.33 996.15 175.23 995.87 176.55 995.47 177.73 994.77 178.83 994.08 178.33 995.51 177.93 997 177.57 998.49 176.67 1002.17 176.18 1005.92 176.11 1009.63 176.07 1012.62 176.18 1016.12 177.33 1019.36 177.83 1020.81 178.71 1022.09 179.88 1023.08 180.88 1023.93 182.23 1024.35 183.89 1024.35 185.25 1024.33 186.55 1023.97 188.02 1023.27 189.36 1022.64 190.74 1021.76 192.35 1020.51 195.51 1018.09 198.31 1015.14 200.87 1012.31 200.49 1014.06 200.23 1015.89 200.1 1017.64 199.82 1021.46 200.1 1024.65 200.98 1027.39 201.32 1028.4 201.86 1029.4 202.54 1030.27 203.19 1031.1 204.09 1031.79 205.21 1032.32 206.14 1032.77 207.17 1032.89 207.87 1032.9L207.92 1032.9C209.21 1032.9 210.24 1032.75 211.42 1032.41 213.72 1031.76 215.83 1030.55 217.77 1029.35 220.18 1027.83 222.37 1026.06 224 1024.68 225.72 1023.22 227.51 1021.57 229.47 1019.62 230.73 1018.37 231.98 1017.1 233.22 1015.84 234.74 1014.3 236.26 1012.76 237.8 1011.24 251.89 997.32 264.25 987 276.69 978.76 278.92 977.28 281.35 975.75 284.12 974.11 289.98 970.68 296.01 967.59 302.04 964.93 303.14 964.45 303.74 963.19 303.39 962.07 304.66 960.8 305.8 959.48 306.78 958.15 307.95 956.58 309.01 954.75 310.04 952.56 311.7 949.01 312.66 944.9 312.82 940.68 312.96 937.33 312.52 933.84 311.45 929.69 310.69 926.76 309.8 924.19 308.73 921.81 307.73 919.56 306.47 917.36 305 915.27 303.77 913.52 302.25 911.8 300.35 910.03 297.36 907.21 293.5 904.9 289.21 903.34 284.56 901.65 279.27 900.79 273.46 900.79" stroke-width="0" fill="#F6CFBE"/><path d="M235.86 973.67C232.58 976.15 229.34 978.66 226.14 981.25 222.79 983.96 219.58 986.83 216.49 989.85 214.94 991.37 213.43 992.93 211.95 994.53 210.48 996.12 209.1 997.8 207.78 999.51 205.21 1002.84 202.93 1006.39 201.01 1010.13 200.83 1010.51 201.03 1010.99 201.41 1011.16 201.81 1011.34 202.25 1011.14 202.43 1010.76 203.01 1009.63 203.63 1008.52 204.28 1007.43 204.28 1007.44 204.27 1007.45 204.26 1007.46 205.81 1004.92 207.57 1002.52 209.48 1000.23 211.4 997.92 213.5 995.75 215.66 993.66L215.46 993.85C218.86 990.61 222.49 987.62 226.2 984.74 229.97 981.8 233.81 978.96 237.64 976.1 238.3 975.6 238.44 974.64 237.96 973.98 237.67 973.59 237.2 973.37 236.73 973.37 236.42 973.37 236.1 973.47 235.83 973.67" stroke-width="0" fill="#DA8C67"/><path d="M204.91 964.31C203.56 964.97 202.25 965.72 201 966.56 199.71 967.42 198.52 968.42 197.36 969.43 196.18 970.44 195.08 971.53 193.98 972.65 192.88 973.79 191.79 974.96 190.76 976.16 189.72 977.37 188.72 978.63 187.71 979.86 186.7 981.09 185.72 982.34 184.76 983.6 182.91 986.02 181.14 988.51 179.41 991.02 179.17 991.36 179.18 991.83 179.53 992.11 179.84 992.36 180.38 992.33 180.62 991.99 182.07 989.91 183.59 987.91 185.19 985.95 186.88 983.91 188.65 981.93 190.54 980.07 190.53 980.07 190.52 980.09 190.5 980.1 192.98 977.71 195.6 975.46 198.32 973.36 201.02 971.3 203.83 969.39 206.68 967.52 207.36 967.06 207.59 966.1 207.3 965.36 207.13 964.9 206.78 964.53 206.33 964.33 206.11 964.23 205.83 964.17 205.56 964.17 205.33 964.17 205.11 964.21 204.91 964.31" stroke-width="0" fill="#DA8C67"/><path d="M367.7 471.45C367.06 471.45 366.47 471.69 366.04 472.13 365.61 472.57 365.35 473.19 365.36 473.83 365.36 474.47 365.61 475.05 366.04 475.47 366.68 476.1 367.34 476.72 368 477.33L370.28 480.73C389.49 509.46 409.35 539.16 427.53 569.23 448.59 604.06 465.4 636.33 478.91 667.89 478.99 668.11 479.09 668.33 479.18 668.55L479.34 668.94 479.5 669.32C483.26 678.22 486.75 686.93 489.68 694.29 493.64 704.25 496.96 713.01 499.84 721.06 507.03 741.17 511.83 758.08 514.95 774.29 497.66 778.06 480.43 783.3 462.08 790.33 446.04 796.47 429.51 803.86 411.57 812.92 403.57 816.98 395.32 821.36 387.03 825.94 379.83 829.91 373.13 833.5 366.55 836.93L364.07 838.23C350.85 845.15 337.17 852.3 324.35 860.43 308.57 870.4 297.21 879.85 288.61 890.18 285.99 893.31 283.86 896.28 282.1 899.27 280.22 902.47 278.68 905.96 277.51 909.66 275.53 915.96 274.93 922.94 275.72 930.41 276.37 936.64 277.91 943.12 280.69 951.41 282.4 956.46 284.35 961.51 286.23 966.4 287.07 968.57 287.91 970.74 288.73 972.91 288.84 973.19 288.95 973.44 289.1 973.67 289.08 975.1 290.15 976.21 291.37 976.21 325.46 974.83 358.96 972.12 390.09 969.4L396.94 968.8C408.68 967.78 420.82 966.72 432.74 965.4 446.04 963.93 458.19 962.24 469.89 960.24 497.76 955.45 521.67 948.87 542.98 940.14 554.89 935.26 566.06 929.61 576.2 923.34 586.8 916.78 596.71 909.15 605.66 900.68 615.29 891.56 623.65 881.33 630.5 870.26 637.03 859.71 642.17 848.07 645.77 835.66 649.08 824.2 650.97 811.86 651.36 798.96 651.73 787.08 650.64 774.44 648.14 761.37 645.8 749.16 642.03 736.58 636.93 723.97 634.74 718.54 632.16 712.86 628.81 706.08 626.06 700.5 623.09 694.75 619.71 688.5 606.39 663.84 591.27 640.5 574.78 619.1 556.59 595.52 538.13 576.06 518.35 559.62 507.44 550.56 496.93 543.09 486.23 536.79 475.37 530.42 464.09 525.08 450.48 519.03 447.79 517.83 445.09 516.65 442.4 515.46 433.37 511.49 424.04 507.38 415.04 502.94 401.89 496.45 390.91 489.79 381.46 482.59 378.02 479.92 374.71 477.1 371.61 474.21L371.24 473.66C370.75 472.93 370.24 472.54 369.68 472.38L369.42 472.12C368.97 471.68 368.37 471.44 367.73 471.44M546.63 773.67 546.73 773.64 547.01 773.67C546.39 773.73 545.76 773.79 545.14 773.86 545.56 773.81 545.98 773.76 546.41 773.71 546.47 773.71 546.52 773.7 546.57 773.69L546.59 773.69C546.59 773.69 546.66 773.68 546.71 773.67L546.63 773.67ZM448.85 958.71 448.75 958.71C449.23 958.64 449.71 958.59 450.2 958.53L448.85 958.71Z" stroke-width="0" fill="#E34C07"/><path d="M464.82 635.36C464.65 635.36 464.47 635.41 464.29 635.51 463.8 635.8 463.64 636.41 463.91 636.92 470.51 649.61 476.59 662.5 481.97 675.23 488.37 690.44 494.2 706.49 499.8 724.28 502.15 731.77 504.55 739.99 507.14 749.42 508.26 753.52 509.34 757.63 510.4 761.74 510.95 763.82 511.49 765.9 512 767.98 512.16 768.66 512.3 769.34 512.44 770.02L512.61 770.83C512.82 771.88 512.99 772.71 513.18 773.54 506.21 774.62 499.79 775.86 493.6 777.29 484.99 779.26 476.17 781.61 467.38 784.27 459.55 786.63 451.32 789.48 442.22 792.99 433.64 796.28 425.18 799.89 417.06 803.7 408.66 807.65 400.54 811.87 392.94 816.26 388.7 818.71 384.3 821.39 379.89 824.23 377.7 825.64 375.79 826.94 374.04 828.21 373.34 828.73 372.67 829.26 371.99 829.79L371.62 830.08 371.26 830.36C370.19 831.21 369.13 832.09 368.15 833.05 367.68 833.44 367.32 833.92 367.12 834.43 366.77 835.29 366.78 836.27 367.15 837.1 367.5 837.91 368.18 838.57 369 838.91 369.38 839.07 369.77 839.16 370.2 839.16 370.65 839.16 371.12 839.07 371.66 838.88 373.84 838.16 375.91 837.08 378.02 835.95 380.32 834.72 382.51 833.32 384.53 832 385.79 831.19 387.04 830.36 388.29 829.53L388.76 829.22C391.18 827.62 393.59 826.03 396.05 824.51 399.2 822.63 402.47 820.85 405.64 819.12L406.5 818.65 407.69 817.99C411.56 815.86 415.46 813.81 419.38 811.77 428.47 807.03 436.13 803.29 443.49 800 460.34 792.45 476.89 786.37 492.67 781.92 500.23 779.81 507.73 778.01 514.86 776.56 515.15 776.72 515.5 776.81 515.86 776.81 516.51 776.81 517.17 776.51 517.64 776 521.51 775.27 525.39 774.61 529.15 774.07 541.71 772.22 554.58 771.24 567.39 771.14L569.52 771.14C571.12 771.13 572.73 771.14 574.34 771.18 575.04 771.18 575.52 770.8 575.61 770.19 575.63 769.86 575.52 769.51 575.3 769.27 575.11 769.05 574.87 768.93 574.61 768.92 572.46 768.87 570.3 768.86 568.13 768.86 552.03 768.86 535.89 770.04 520.15 772.36L517.99 772.69C517.83 771.01 517.42 769.26 517.07 767.72L516.95 767.22 516.21 764C515.9 762.59 515.57 761.18 515.23 759.77 514.15 755.34 512.92 750.77 511.48 745.79 508.92 736.99 505.94 727.93 502.37 718.09 496.58 702.07 489.41 685.01 479.79 664.41 475.41 655.04 470.67 645.44 465.69 635.86 465.54 635.55 465.19 635.33 464.81 635.33" stroke-width="0" fill="#722604"/><path d="M585.51 915.57C585.39 915.57 585.27 915.6 585.18 915.66L583.62 916.52 581.95 917.44C577.21 920.05 572.48 922.65 567.72 925.22 562.59 928 556.51 931.23 550.38 934.2 544.34 937.11 538.24 939.76 532.25 942.07 525.75 944.59 519.03 946.61 512.71 948.47L513.31 948.41C497.03 952.94 478.96 956.62 456.43 959.91 445.92 961.45 435.35 962.76 427.33 963.73 417.45 964.94 407.12 965.95 396.6 966.74 378.3 968.14 359.07 968.88 343.62 969.47 334.79 969.81 325.96 970.16 317.13 970.6 312.82 970.81 308.52 971.07 304.21 971.38 301.96 971.54 299.72 971.72 297.46 971.91 296.44 971.99 295.42 972.09 294.4 972.23 293.45 972.35 292.54 972.54 291.62 972.75L290.77 972.93C290.21 973.03 289.75 973.24 289.36 973.56 289.26 973.63 289.17 973.72 289.09 973.81 289.73 975.51 290.35 977.15 290.97 978.79 292.17 978.95 293.33 979.08 294.5 979.1L295.51 979.1C296.34 979.1 297.16 979.1 298 979.07L298.52 979.05C301.18 979 303.83 978.92 306.47 978.83 311.71 978.67 316.84 978.48 321.98 978.26 332.25 977.85 342.52 977.41 352.78 976.88 371.07 975.93 392.67 974.63 414.25 972.22 423.04 971.23 432.52 969.97 444.08 968.25 455.76 966.5 464.62 965 472.82 963.41 483.17 961.37 492.43 959.18 501.1 956.72 505.24 955.56 509.69 954.19 515.09 952.4 520.09 950.76 524.61 949.11 528.9 947.36 533.72 945.42 538.64 943.22 543.51 940.81 548.42 938.41 553.31 935.73 557.87 933.19 562.45 930.66 566.97 928.03 571.51 925.41 576.29 922.64 581.06 919.87 585.89 917.2 586.25 917 586.52 916.58 586.31 916.1 586.19 915.8 585.86 915.58 585.54 915.58" stroke-width="0" fill="#722604"/><path d="M398.58 391.56C394.95 391.62 391.13 392.03 386.57 392.85 378.55 394.3 370.38 396.79 361.59 400.48 354.18 403.58 346.42 407.61 337.84 412.83 330.86 417.08 323.63 422.01 315.76 427.91 311.1 431.4 306.12 435.31 300.55 439.86 299.46 438.34 298.26 436.87 297.07 435.44 293.42 431.04 289.48 427.05 285.39 423.55 283.14 421.63 280.85 419.89 278.56 418.38 276.35 416.93 274 415.7 271.58 414.7 269.41 413.79 267.12 413.23 264.8 413.05 264.47 413.03 264.14 413.01 263.83 413.01 261.96 413.01 260.03 413.42 258.27 414.2 252.99 416.51 250.48 422.13 249.48 425.28 248.18 429.29 248.01 433.95 248.97 439.56 249.94 445.33 252.13 450.72 254.14 455.23 256.84 461.3 260.04 466.96 262.84 471.71 266.03 477.14 269.45 482.55 272.74 487.78 274.33 490.28 275.91 492.8 277.48 495.31 280.65 500.44 283.98 505.9 286.83 511.59 286.64 511.62 286.45 511.68 286.26 511.77 286.65 512.6 287.04 513.44 287.41 514.29 288.41 516.6 289.34 518.94 290.23 521.29 290.62 521.75 291.01 522.2 291.4 522.64 291.84 524.18 292.16 525.58 292.37 526.89 292.47 527.5 292.98 528.05 293.45 528.31 293.82 528.52 294.23 528.64 294.64 528.64 294.86 528.64 295.07 528.6 295.27 528.54 295.67 528.44 296.06 528.21 296.36 527.9 297.43 529.02 298.58 530.12 299.75 531.19 305.29 536.27 311.16 540.64 317.19 544.18 323.57 547.92 330.05 550.63 336.48 552.22 340.76 553.29 345.07 553.84 349.28 553.84 351.7 553.84 354.12 553.66 356.48 553.31 363.1 552.3 369.7 549.52 375.58 545.26 380.83 541.46 385.54 536.45 389.97 529.94 393.49 524.77 396.63 518.76 399.28 512.13 401.85 505.68 403.69 498.87 404.74 491.9 405.97 483.65 405.73 475.86 404.01 468.75 402.19 461.21 398.43 454.54 393.15 449.47 393.95 442.92 392.95 436.44 390.37 431.24 396.08 426.4 401.05 421.68 405.54 416.83 408.18 413.98 410.1 411.46 411.57 408.9 413.09 406.3 413.9 404.08 414.12 401.92 414.34 399.77 413.79 397.73 412.54 396.02 411.21 394.15 408.91 393.12 407.22 392.58 405.03 391.9 402.57 391.57 399.46 391.57L398.59 391.57Z" stroke-width="0" fill="#F6CFBE"/><path d="M394.87 390.46C390.53 390.74 386.24 391.43 382.01 392.32 374.39 393.91 366.98 396.57 359.87 399.71 352.5 402.97 345.38 406.83 338.55 411.1 331.67 415.41 325.02 420.05 318.53 424.95 312.25 429.71 306.18 434.74 300.14 439.8 299.81 440.07 299.66 440.49 299.92 440.87 300.14 441.2 300.67 441.36 301 441.09 308.39 434.91 316.03 429.03 323.92 423.54 331.97 417.94 340.33 412.82 349.09 408.43 354.24 405.88 359.53 403.59 364.93 401.65 370.24 399.76 375.71 398.28 381.25 397.15 381.13 397.17 381 397.2 380.88 397.22 384.77 396.46 388.67 395.89 392.61 395.53 395.78 395.25 398.97 395.11 402.14 395.27 403.91 395.39 405.67 395.62 407.38 396.12 408.04 396.36 408.68 396.64 409.3 396.99 409.59 397.2 409.85 397.42 410.1 397.66 410.23 397.83 410.35 398 410.46 398.19 410.55 398.4 410.62 398.63 410.68 398.85 410.72 399.18 410.74 399.51 410.73 399.84 410.66 400.45 410.52 401.05 410.34 401.65 409.82 403.07 409.11 404.41 408.31 405.7 406.31 408.77 403.91 411.55 401.4 414.22 398.55 417.26 395.5 420.11 392.39 422.89 392.44 422.85 392.49 422.81 392.54 422.77 388.12 426.69 383.55 430.45 378.83 434.01 367.64 442.46 356.3 450.7 344.88 458.84 344.09 459.41 343.85 460.5 344.4 461.33 344.96 462.15 346.06 462.34 346.89 461.82 355.36 456.42 363.63 450.68 371.82 444.86 376.36 441.63 380.93 438.43 385.35 435.02 388.87 432.3 392.32 429.49 395.68 426.57 399.49 423.23 403.21 419.77 406.63 416.03 408.15 414.37 409.61 412.64 410.94 410.82 412.17 409.15 413.31 407.41 414.22 405.55 414.65 404.7 414.96 403.81 415.25 402.92 415.48 402.2 415.65 401.47 415.74 400.72 415.81 399.93 415.85 399.15 415.73 398.36 415.66 397.91 415.56 397.45 415.43 397.01 415.27 396.51 415.02 396.05 414.79 395.59 414.43 394.9 413.87 394.3 413.32 393.77 412.67 393.13 411.84 392.64 411.04 392.23 410.15 391.77 409.18 391.47 408.22 391.2 407.11 390.89 405.96 390.7 404.81 390.57 403.17 390.38 401.52 390.3 399.86 390.3 398.2 390.3 396.55 390.38 394.9 390.49M409.5 397.12C409.56 397.16 409.62 397.19 409.67 397.23 409.61 397.19 409.55 397.16 409.5 397.12M410.6 398.41C410.6 398.41 410.66 398.51 410.68 398.56 410.65 398.51 410.62 398.46 410.6 398.41" stroke-width="0" fill="#DA8C67"/><path d="M389.33 429.33C388.73 429.53 388.24 430.32 388.53 430.95 389.62 433.21 390.43 435.56 390.98 438.01 391.45 440.49 391.59 442.97 391.45 445.49 391.46 445.36 391.47 445.21 391.49 445.08 391.31 447.6 390.77 450.06 390.01 452.47 388.83 455.93 387.17 459.19 385.19 462.26 385.3 462.1 385.4 461.94 385.5 461.8 383.53 464.78 381.29 467.53 378.86 470.14 378.3 470.72 378.29 471.68 378.73 472.34 379.01 472.74 379.42 473.01 379.9 473.1 380.33 473.19 380.92 473.11 381.26 472.82 382.84 471.49 384.33 470.08 385.72 468.54 387.08 467.05 388.28 465.41 389.39 463.72 390.45 462.08 391.37 460.39 392.15 458.59 392.9 456.84 393.49 455.01 393.93 453.15 394.38 451.33 394.57 449.47 394.69 447.6 394.81 445.72 394.75 443.83 394.53 441.95 394.04 437.82 392.77 433.86 390.96 430.12 390.8 429.79 390.64 429.54 390.3 429.38 390.13 429.29 389.94 429.25 389.75 429.25 389.61 429.25 389.48 429.27 389.35 429.32M389.93 452.73C389.93 452.73 389.91 452.81 389.89 452.85 389.9 452.81 389.92 452.77 389.93 452.73" stroke-width="0" fill="#DA8C67"/><path d="M262.13 412.59C261.16 412.61 260.19 412.76 259.24 412.97 258.23 413.18 257.28 413.58 256.36 414.01 254.63 414.82 253.13 416.18 251.99 417.7 250.53 419.67 249.6 421.89 248.96 424.25 248.16 427.2 247.94 430.31 247.93 433.36 247.93 437.06 248.39 440.75 249.1 444.39 250.47 451.54 253.23 458.38 256.55 464.84 259.96 471.49 264.06 477.78 268.24 483.97 275.22 494.34 282.63 504.57 287.75 516.04 287.69 515.92 287.63 515.79 287.57 515.65 288.38 517.49 289.14 519.37 289.82 521.27 290.11 522.12 290.96 522.66 291.86 522.4 292.67 522.15 293.29 521.2 292.99 520.34 284.73 497.98 267.08 480.81 257.42 459.17L257.6 459.57C256.42 456.9 255.38 454.19 254.51 451.42 253.64 448.64 253.01 445.8 252.57 442.92 252.57 442.95 252.57 442.99 252.58 443.03 251.99 438.68 251.92 434.29 252.35 429.91 252.61 427.79 253.02 425.7 253.73 423.68 254.18 422.53 254.75 421.42 255.46 420.4 255.91 419.82 256.4 419.29 256.95 418.8 257.58 418.31 258.26 417.89 258.99 417.55 259.74 417.25 260.52 417.04 261.31 416.89 262.63 416.71 263.97 416.72 265.3 416.85 267.54 417.14 269.72 417.76 271.82 418.55L271.79 418.55C275.94 420.17 279.83 422.43 283.48 425 283.46 424.98 283.43 424.96 283.41 424.94 288.2 428.38 292.65 432.33 296.42 436.89 296.4 436.87 296.39 436.85 296.37 436.83 296.42 436.89 296.47 436.95 296.51 437.01 296.53 437.03 296.55 437.06 296.58 437.09 296.57 437.08 296.56 437.07 296.55 437.05 297.53 438.27 298.46 439.54 299.29 440.86 299.64 441.42 300.39 441.61 300.95 441.26 301.51 440.92 301.7 440.15 301.35 439.6 298.95 435.78 295.96 432.35 292.76 429.18 289.14 425.57 285.18 422.33 280.94 419.46 277.05 416.84 272.76 414.62 268.23 413.37 266.41 412.87 264.49 412.59 262.6 412.59 262.45 412.59 262.3 412.59 262.14 412.59M252.33 430.11C252.33 430.11 252.32 430.21 252.31 430.26 252.31 430.21 252.32 430.16 252.33 430.11M296.54 437.05C296.54 437.05 296.52 437.03 296.51 437.01 296.48 436.97 296.44 436.93 296.41 436.89 296.45 436.94 296.49 436.99 296.54 437.05M283.72 425.17 283.47 425C283.55 425.06 283.63 425.12 283.72 425.17" stroke-width="0" fill="#DA8C67"/><path d="M222.74 469.07C222.06 470.14 221.34 471.18 220.59 472.2 217.28 476.45 213.09 480.56 207.76 484.77L208.28 484.45C199.37 491.28 189.46 496.91 179.87 502.35L176.56 504.22C164.09 511.34 151.39 517.52 140.63 522.63L132.42 526.52C111.03 536.62 88.92 547.05 69.19 560.84 58.04 568.63 48.25 577.14 40.11 586.16 32.76 594.28 26.23 603.45 20.69 613.41 10.46 631.8 3.94 652.91 1.31 676.15-1.12 697.39-0.16 720.06 4.16 743.54 8.16 765.31 15.11 787.12 24.86 808.38 29.42 818.33 34.69 828.14 40.51 837.53 46.55 847.25 53.68 857.05 61.69 866.66 79.05 887.49 99.74 906.33 123.22 922.63 134.78 930.66 146.9 937.79 159.25 943.8 171.58 949.81 184.11 954.59 196.5 957.99 208.68 961.33 220.84 963.03 232.64 963.03 233.57 963.03 234.52 963.03 235.46 963 247.73 962.71 259.92 960.36 271.7 956.03 283.13 951.81 294.39 945.5 305.19 937.26 314.81 929.92 323.61 921.44 331.37 912 338.3 903.58 344.68 894.02 350.33 883.57 355.45 874.08 359.98 863.71 364.19 851.89 371.3 831.89 376.42 809.88 380.3 782.65 383.73 758.58 385.44 734.75 386.79 712.59 387.47 701.26 388.11 689.93 388.75 678.58 389.55 663.85 390.16 647.74 390.6 629.31 391.16 604.92 391.3 580.12 391.44 556.13 391.48 547.99 391.52 539.87 391.59 531.74 391.59 531.46 391.53 531.17 391.43 530.92 389.21 531.02 386.99 531.08 384.76 531.08 374.69 531.12 364.64 530.3 354.66 529.01 349.82 528.38 345.01 527.65 340.18 526.86 335.98 526.16 331.78 525.44 327.57 524.67 318.98 523.1 310.41 521.34 302.03 518.85 295.64 516.95 289.36 514.67 283.4 511.71 283.19 511.88 283.01 512.09 282.91 512.35 270.75 542.87 256.04 572.86 241.82 601.88L237.3 611.1C221.41 643.52 206.1 675.39 193.41 708.78 186.44 702.37 180 695.43 174.33 688.13 169.92 682.35 166.36 676.37 163.76 670.38L163.77 670.38C161.29 664.49 159.57 658.25 158.66 651.81L158.6 651.33C157.7 644.25 157.79 636.46 158.85 628.4 160.51 616.63 164.1 604.44 170.13 590.03 170.15 589.97 170.18 589.91 170.2 589.84L170.2 589.84C170.2 589.84 170.27 589.67 170.27 589.67L170.26 589.67C177.72 572.23 186.97 555.55 195.94 539.43 200.5 531.23 205.19 522.75 209.6 514.31 213.79 506.23 217.02 499.48 219.77 493.05 223.11 485.21 225.45 478.56 227.17 472.11 227.29 471.66 227.27 471.17 227.12 470.74 227.34 469.77 226.84 468.66 225.95 468.17 225.6 467.98 225.22 467.88 224.82 467.88 223.99 467.88 223.19 468.34 222.73 469.08" stroke-width="0" fill="#E34C07"/><path d="M311.35 517.55C311.35 517.55 311.32 517.55 311.3 517.54 311.3 517.54 311.28 517.54 311.27 517.54L311.35 517.56" stroke-width="0" fill="#FE514A"/><path d="M391.64 530.31 391.64 530.31C389.36 530.71 387.47 530.9 385.68 530.92L385.25 530.92C385.25 530.92 384.83 530.93 384.83 530.93L384.4 530.93C384.32 531.2 384.31 531.42 384.31 531.65 384.31 533.2 384.42 534.76 384.53 536.31L384.55 536.69 384.79 540.38C384.93 542.53 385.06 544.66 385.23 546.79 385.29 547.52 385.36 548.24 385.44 548.95 385.54 549.91 385.62 550.88 385.68 551.85 385.8 553.54 385.88 555.24 385.95 556.94 386.1 560.33 386.17 563.73 386.22 567.13 386.36 575.77 386.31 584.58 386.26 593.09L386.26 594.4C386.22 598.94 386.19 603.49 386.18 608.03L386.18 615.37C386.17 640.03 386.16 665.49 385.3 690.52L385.46 689.66C384.83 704.75 384.05 718.32 383.03 731.15 381.99 744.33 380.45 758.08 378.46 772.03 374.56 799.55 369.95 821.49 363.96 841.08L364.29 840.45C357.92 860.64 350.31 877.76 340.97 892.77 337.53 898.17 333.85 903.33 330.07 908.03 326.37 912.61 322.21 917.1 317.36 921.74L318.13 921.16C308.49 930.1 297.94 937.8 286.75 943.98 276.34 949.56 265.56 953.74 254.69 956.38L255.09 956.4 255.58 956.3C246.4 958.33 237.34 959.4 228.63 959.4 227.66 959.4 226.7 959.39 225.73 959.35L225.3 959.37C222.12 959.18 219.52 958.97 217.12 958.69 213.83 958.31 210.5 957.71 207.98 957.22 201.8 956.05 195.34 954.42 188.24 952.24 170.54 946.65 152.3 938.06 134.02 926.7 125.1 921.12 116.12 914.78 107.35 907.89 107.09 907.69 106.77 907.58 106.45 907.58 106.02 907.58 105.62 907.77 105.36 908.09 105.12 908.39 105.01 908.79 105.06 909.17 105.1 909.53 105.28 909.86 105.56 910.08 127.97 927.64 149.13 940.78 170.26 950.25 182.28 955.63 194.41 959.75 206.31 962.48 212.16 963.83 217.95 964.74 223.51 965.18 226.09 965.37 228.72 965.46 231.33 965.46 234.31 965.46 237.34 965.34 240.33 965.12 251.07 964.3 262.14 961.87 273.24 957.88 283.56 954.18 293.78 949 303.61 942.47 312.86 936.34 321.54 928.9 329.4 920.37 336.59 912.57 343.23 903.3 349.7 892.04 360.51 873.23 368.72 851.58 375.55 823.91 378.19 813.18 380.58 801.45 382.86 788.06 385.06 775.08 386.89 762.14 388.31 749.58 391.15 724.37 392.72 696.82 393.25 662.89 393.49 647.77 393.49 633.09 393.45 619.47 393.43 612.24 393.39 605 393.33 597.78 393.28 590.72 393.32 583.68 393.4 576.62L393.46 570.74 393.52 564.85 393.37 562.29 393.35 561.85C392.99 555.35 392.62 548.63 392.78 542.03 392.68 540.49 392.6 538.95 392.53 537.42 392.28 535.06 392 532.72 391.7 530.37 391.7 530.37 391.63 530.31 391.63 530.31" stroke-width="0" fill="#722604"/><path d="M281.97 511.1C281.97 511.1 281.93 511.12 281.92 511.12 281.82 511.27 281.73 511.42 281.66 511.56 280.22 513.91 279.1 516.52 278.2 518.61 277.56 520.08 276.93 521.55 276.32 523.03L274.89 526.46C272.74 531.51 270.53 536.53 268.27 541.53 264.19 550.57 259.84 559.66 255.64 568.45L254.29 571.27C249.59 581.11 244.81 590.92 240.02 600.73L238.58 603.68C234.1 612.87 229.62 622.05 225.2 631.25 213.68 655.2 205.15 673.91 197.54 691.91 195.85 695.9 194.19 699.89 192.56 703.9 192.22 703.45 191.77 703.02 191.33 702.6L188.92 700.37 187.75 699.29C185 696.75 182.94 694.74 181.07 692.77 176.5 687.95 172.71 683.36 169.51 678.73L169.33 678.48C166.92 674.85 164.69 671.03 162.72 667.11 162.51 666.67 162.05 666.39 161.55 666.39 161.34 666.39 161.15 666.44 160.99 666.54 160.37 666.85 160.11 667.64 160.42 668.27 163.88 675.27 167.99 683.37 172.94 690.85 175.45 694.64 178.16 698.11 180.98 701.15 182.27 702.53 183.76 703.95 185.67 705.6 187.27 706.96 188.93 708.09 190.58 708.96 188.77 713.38 186.96 718.03 185.21 722.74 181.58 732.44 178.24 742.33 175.26 752.15 163.39 791.13 158.53 826.12 160.4 859.1 160.42 859.55 160.86 859.85 161.25 859.85 161.77 859.8 162.11 859.42 162.08 858.92 161.82 854.4 161.73 849.64 161.83 844.76 162.06 832.86 163.35 820.49 165.77 806.94 167.84 795.25 170.77 782.86 174.72 769.06 177.47 759.62 180.65 749.85 184.43 739.17 188.27 728.4 192.56 717.6 195.86 709.39 203.32 690.87 212 670.88 222.4 648.26 232.3 626.77 242.45 605.77 251.06 588.06L252.48 585.15C256.81 576.23 261.21 567.2 265.74 558.41L268.27 553.54C272.19 546.01 276.63 537.47 280.48 528.94 281.78 526.05 282.86 523.48 283.78 521.08 284.26 519.85 284.67 518.61 285.06 517.35 285.6 515.57 285.94 514.19 286.15 512.88 285.48 512.39 284.82 512.15 284.18 511.91 283.29 511.59 282.63 511.36 281.98 511.12L281.96 511.12Z" stroke-width="0" fill="#722604"/><path d="M349.65 219.48C349.49 219.48 349.32 219.53 349.19 219.61 348.76 219.85 348.62 220.37 348.86 220.86 350.3 223.81 351.73 226.98 353.37 230.83 356.82 239.04 359.84 247.31 362.35 255.42 365.6 265.99 367.74 275.31 368.9 283.91 369.76 290.68 369.85 296.18 369.2 301.32 368.81 304 368.23 306.28 367.42 308.3 366.86 309.54 366.21 310.66 365.43 311.72 364.69 312.63 363.91 313.42 363.04 314.13 362.23 314.71 361.36 315.22 360.45 315.64 359.19 316.11 357.87 316.46 356.52 316.68L356.16 316.8 356.19 316.8C355.35 316.82 354.33 316.87 353.3 316.87 351.59 316.87 349.72 316.73 347.41 316.43 346.07 316.43 345.19 317.21 344.95 317.45 344.3 318.09 343.92 318.98 343.92 319.9 343.92 320.82 344.3 321.72 344.95 322.36L345.21 322.56 345.63 322.9C346.21 323.22 346.78 323.38 347.4 323.38 349 323.58 350.76 323.68 352.62 323.68L353.51 323.68C355.03 323.64 356.48 323.45 357.44 323.3 359.4 323 361.33 322.38 363.33 321.39 366.59 319.77 369.33 316.99 371.04 313.55 372.66 310.3 373.64 306.47 374.06 301.83 374.48 296.92 373.96 292.01 373.46 288.27 371.91 276.72 368.52 265.73 365.74 257.45 362.86 248.85 359.41 239.97 355.2 230.31 353.51 226.4 351.99 223.11 350.44 219.92 350.32 219.65 350 219.47 349.65 219.47" stroke-width="0" fill="#DA8C67"/><path d="M304.29 333.51C304.29 333.51 304.28 333.51 304.27 333.51L304.26 333.51C302.95 340.08 302.62 346.37 303.23 352.25 303.92 358.87 305.73 364.64 308.6 369.39 310.06 371.83 311.96 374.13 314.11 376.03 315.19 376.98 316.36 377.84 317.57 378.61 318.99 379.53 320.54 380.21 321.88 380.79 324.61 381.94 327.79 382.65 331.62 382.97 332.51 383.06 333.4 383.09 334.28 383.09 337.07 383.09 339.9 382.71 342.68 381.97 350.84 379.83 356.69 374.52 360.17 370.45 362.41 367.85 364.46 364.82 366.28 361.43 367.05 359.99 367.77 358.44 368.57 356.56 369.16 355.13 369.97 353.16 370.53 351.14 370.59 350.93 370.62 350.72 370.62 350.5 366.37 350.17 362.24 349.74 358.3 349.21 351.43 348.31 344.59 347.04 337.97 345.46 330.46 343.64 323.75 341.61 317.46 339.26 312.71 337.47 308.42 335.59 304.32 333.54 304.32 333.54 304.3 333.53 304.29 333.53" stroke-width="0" fill="#021621"/><path d="M306.22 355.17C305.36 355.17 304.49 355.21 303.63 355.27 304.51 360.64 306.18 365.38 308.61 369.39 310.07 371.83 311.96 374.13 314.11 376.02 315.19 376.97 316.36 377.84 317.57 378.61 318.99 379.52 320.55 380.21 321.88 380.78 324.6 381.92 327.79 382.64 331.62 382.96 332.51 383.04 333.39 383.08 334.28 383.08 337.06 383.08 339.89 382.7 342.68 381.96 345.6 381.2 348.23 380.02 350.56 378.64 347.13 374.53 343.17 370.9 338.9 367.67 338.95 367.71 339.01 367.76 339.07 367.79 334.03 364.05 328.58 360.91 322.73 358.59 322.79 358.61 322.86 358.64 322.93 358.66 320.89 357.87 318.81 357.16 316.69 356.61 314.69 356.09 312.67 355.7 310.62 355.43L310.58 355.43C310.58 355.43 310.51 355.43 310.48 355.42L310.5 355.42C310.5 355.42 310.45 355.42 310.43 355.41 310.44 355.41 310.45 355.42 310.48 355.42 309.14 355.27 307.78 355.17 306.43 355.17L306.22 355.17Z" stroke-width="0" fill="#F68677"/><path d="M290.33 256.03 290.03 256.03C287.64 256.2 285.53 258.28 284.1 261.88 282.67 265.49 282.07 270.17 282.4 275.07 283.09 285.07 287.41 292.91 292.23 292.91 293.7 292.81 295.05 292.07 296.24 290.71 299.14 287.4 300.64 280.95 300.16 273.87 299.47 263.87 295.15 256.03 290.33 256.03" stroke-width="0" fill="#001213"/><path d="M410.7 244.71 410.42 244.71C409.15 244.79 407.98 245.45 406.91 246.66 404.24 249.73 402.81 255.98 403.26 262.57 403.9 271.95 407.96 279.3 412.49 279.3 413.98 279.22 415.18 278.6 416.27 277.36 418.93 274.31 420.37 268.06 419.93 261.44 419.27 252.06 415.22 244.71 410.7 244.71" stroke-width="0" fill="#001213"/><path d="M288.83 180.28C282.38 180.28 274.85 181.94 267.61 184.96 259.48 188.34 252.48 193.08 247.9 198.3 243.3 203.53 241.69 208.61 243.36 212.61 245.2 217.01 250.86 219.53 258.88 219.53 265.35 219.53 272.88 217.87 280.09 214.86 296.89 207.85 307.76 195.44 304.33 187.2 302.5 182.8 296.85 180.28 288.84 180.28" stroke-width="0" fill="#012427"/><path d="M398.12 176.16C388.32 176.16 381.41 179.33 380.09 184.42 379.14 188.08 381.16 192.27 385.76 196.22 390.36 200.17 396.99 203.4 404.42 205.32 408.9 206.49 413.53 207.11 417.8 207.11 427.62 207.11 434.54 203.94 435.86 198.85 436.81 195.2 434.79 191.01 430.18 187.06 425.58 183.11 418.95 179.88 411.52 177.96 407.01 176.78 402.37 176.16 398.11 176.16" stroke-width="0" fill="#012427"/></svg>