<svg viewBox="0 0 331.68 351.67" xmlns="http://www.w3.org/2000/svg" xmlns:xlink="http://www.w3.org/1999/xlink" id="Layer_1" overflow="hidden"><defs><clipPath id="clippath"><rect x="0" y="0" width="331.68" height="351.67" stroke-width="0" fill="none"/></clipPath></defs><g clip-path="url(#clippath)"><path d="M178.14 75.1 153.54 75.1 153.54 100.28C153.54 103.86 155.06 107.92 166.75 107.92 174.13 107.92 177.4 104.5 178.14 101.5L178.14 75.11Z" stroke-width="0" fill="#F0A067"/><path d="M204.7 52.26C204.7 55.03 202.46 57.28 199.69 57.28 196.92 57.28 194.67 55.03 194.67 52.26 194.67 49.49 196.91 47.24 199.69 47.24 202.47 47.24 204.7 49.48 204.7 52.26" stroke-width="0" fill="#F0A067"/><path d="M138.52 52.26C138.52 55.03 136.27 57.28 133.5 57.28 130.73 57.28 128.48 55.03 128.48 52.26 128.48 49.49 130.72 47.24 133.5 47.24 136.28 47.24 138.52 49.48 138.52 52.26" stroke-width="0" fill="#F0A067"/><path d="M199 56.45C199 75.1 182.99 87.88 166.58 87.88 150.17 87.88 134.18 74.66 134.18 55.74L134.18 38.82C134.18 21.02 148.69 6.61 166.58 6.61 184.47 6.61 199 21.03 199 38.82L199 56.45Z" stroke-width="0" fill="#F0A067"/><path d="M184.28 48C183.63 48 183.05 48.25 182.66 48.71 182.31 49.11 182.12 49.64 182.12 50.2 182.12 51.3 182.86 52.4 184.28 52.4 184.92 52.4 185.5 52.15 185.9 51.69 186.24 51.29 186.44 50.76 186.44 50.2 186.44 49.11 185.7 48 184.29 48" stroke-width="0" fill="#451344"/><path d="M147.76 48C147.11 48 146.53 48.25 146.14 48.71 145.8 49.11 145.62 49.64 145.62 50.2 145.62 51.3 146.35 52.4 147.77 52.4 148.43 52.4 148.99 52.15 149.39 51.69 149.74 51.29 149.93 50.76 149.93 50.2 149.93 49.11 149.2 48 147.78 48" stroke-width="0" fill="#451344"/><path d="M154.09 65.51C154.21 70.05 159.17 75.16 165.95 75.1 172.74 75.17 177.68 70.06 177.8 65.51 170.97 71.21 160.92 71.21 154.09 65.51" stroke-width="0" fill="#FFFFFF"/><path d="M169.64 63.26C169.41 63.26 169.19 63.25 168.97 63.23 168.59 63.2 168.29 62.86 168.33 62.47 168.36 62.09 168.67 61.78 169.09 61.84 170.5 61.96 171.59 61.57 171.71 61.24 171.75 61.12 171.61 60.63 170.45 59.85 166.94 57.46 166.53 49.15 166.51 48.79 166.5 48.4 166.8 48.08 167.19 48.06 167.59 48.03 167.9 48.34 167.91 48.73 168.01 50.94 168.8 57.03 171.24 58.69 172.77 59.72 173.37 60.74 173.02 61.71 172.63 62.81 171.13 63.26 169.64 63.26" stroke-width="0" fill="#451344"/><path d="M192.32 60.59C192.32 63.3 188.95 65.51 184.79 65.51 180.63 65.51 177.26 63.3 177.26 60.59 177.26 57.88 180.63 55.66 184.79 55.66 188.95 55.66 192.32 57.87 192.32 60.59" stroke-width="0" fill="#EA805D"/><path d="M155.91 60.59C155.91 63.3 152.54 65.51 148.38 65.51 144.22 65.51 140.85 63.3 140.85 60.59 140.85 57.88 144.22 55.66 148.38 55.66 152.54 55.66 155.91 57.87 155.91 60.59" stroke-width="0" fill="#EA805D"/><path d="M233.8 298.46 233.8 141.03C233.8 120.95 202.32 97.12 177.81 97.12L167.46 96.96 167.46 96.92 166.31 96.94 165.17 96.92 165.17 96.96 154.82 97.12C130.3 97.12 98.83 120.95 98.83 141.03L98.83 298.46 233.81 298.46Z" stroke-width="0" fill="#FFFFFF"/><path d="M155.03 298.46 149.99 96.95C125.51 99.08 94.45 123.17 94.45 143.48L94.45 298.46 155.03 298.46Z" stroke-width="0" fill="#A23F8F"/><path d="M236.44 298.46C236.01 244.59 235.58 179.63 235.58 141.85 235.58 121.44 204.62 98.86 180.07 96.93L174.87 298.46 236.44 298.46Z" stroke-width="0" fill="#A23F8F"/><path d="M142.7 12.74C142.7 12.74 158.32-7.13 186.43 2.76 211.8 11.69 200.83 48 200.83 48 200.83 48 191.37 44.76 176.32 29.32 174.7 27.66 177.8 43.33 174.42 43.33 155.63 43.33 156.8 26.85 155.9 26.85 149.48 26.85 142.38 31.25 140.84 37.73 140.01 41.29 137.1 52.27 137.1 52.27 137.1 52.27 133.37 53.13 131.5 38.9 129.63 24.65 129.4 7.62 142.7 12.75" stroke-width="0" fill="#451344"/><path d="M309.3 161.88 283.53 232.79 227.44 124.33C221.95 115 209.93 111.89 200.6 117.38 191.27 122.87 188.16 134.9 193.65 144.22L266.86 281.76 267.6 283.03C269.69 286.56 272.94 289.45 277.06 291.05 286.79 294.79 297.71 289.95 301.46 280.23L330.29 171.87C332.32 166.58 312.48 156.3 309.29 161.89" stroke-width="0" fill="#A23F8F"/><path d="M22.55 161.88 48.32 232.79 104.41 124.33C109.9 115 121.92 111.89 131.25 117.38 140.59 122.87 143.69 134.9 138.2 144.22L65 281.76 64.26 283.03C62.17 286.56 58.92 289.45 54.79 291.05 45.06 294.79 34.14 289.95 30.39 280.23L1.56 171.86C-0.48 166.57 19.36 156.29 22.56 161.88" stroke-width="0" fill="#A23F8F"/><rect x="15.86" y="124.94" width="299.97" height="110.59" stroke-width="0" fill="#F2F2F2"/><path d="M327.9 174.75C337.88 164.23 326.06 148.81 315.73 145.3L315.73 153.09C315.83 153.34 316.39 153.83 316.5 154.09 317.45 156.21 315.96 156.1 314.7 155.11 307.04 149.2 299.93 146.01 295.53 150.12 291.19 154.15 293.57 165.28 301.81 172.15 307.07 176.52 321.4 181.61 327.9 174.75" stroke-width="0" fill="#F0A067"/><path d="M3.78 174.75C-6.2 164.23 5.62 148.81 15.95 145.3L15.95 153.09C15.85 153.34 15.29 153.83 15.19 154.09 14.24 156.21 15.73 156.1 16.98 155.11 24.64 149.2 31.75 146.01 36.15 150.12 40.49 154.15 38.11 165.28 29.87 172.15 24.61 176.52 10.28 181.61 3.78 174.75" stroke-width="0" fill="#F0A067"/></g></svg>