<svg viewBox="0 0 299.63 328.29" xmlns="http://www.w3.org/2000/svg" xmlns:xlink="http://www.w3.org/1999/xlink" id="Layer_1" overflow="hidden"><defs><clipPath id="clippath"><rect x="0" y="0" width="299.63" height="328.29" stroke-width="0" fill="none"/></clipPath></defs><g clip-path="url(#clippath)"><path d="M160.25 78.45 138.03 78.45 138.03 101.19C138.03 104.42 139.41 108.1 149.96 108.1 156.63 108.1 159.58 105.01 160.25 102.29L160.25 78.46Z" stroke-width="0" fill="#F1A167"/><path d="M184.24 57.81C184.24 60.32 182.21 62.35 179.71 62.35 177.21 62.35 175.17 60.32 175.17 57.81 175.17 55.3 177.2 53.27 179.71 53.27 182.22 53.27 184.24 55.31 184.24 57.81" stroke-width="0" fill="#F1A167"/><path d="M124.46 57.81C124.46 60.32 122.42 62.35 119.92 62.35 117.42 62.35 115.38 60.32 115.38 57.81 115.38 55.3 117.41 53.27 119.92 53.27 122.43 53.27 124.46 55.31 124.46 57.81" stroke-width="0" fill="#F1A167"/><path d="M179.09 61.59C179.09 78.45 164.63 89.98 149.8 89.98 134.97 89.98 120.53 78.04 120.53 60.94L120.53 45.66C120.53 29.58 133.64 16.56 149.8 16.56 165.96 16.56 179.09 29.58 179.09 45.66L179.09 61.58Z" stroke-width="0" fill="#F1A167"/><path d="M165.8 53.95C165.22 53.95 164.69 54.18 164.33 54.6 164.01 54.96 163.84 55.44 163.84 55.94 163.84 56.93 164.51 57.93 165.79 57.93 166.37 57.93 166.89 57.7 167.25 57.28 167.56 56.92 167.73 56.44 167.73 55.93 167.73 54.94 167.06 53.94 165.79 53.94" stroke-width="0" fill="#451445"/><path d="M132.8 53.95C132.22 53.95 131.69 54.18 131.34 54.6 131.03 54.96 130.87 55.44 130.87 55.94 130.87 56.93 131.53 57.93 132.81 57.93 133.4 57.93 133.92 57.7 134.27 57.28 134.59 56.92 134.75 56.44 134.75 55.93 134.75 54.94 134.09 53.94 132.8 53.94" stroke-width="0" fill="#451445"/><path d="M138.52 69.78C138.63 73.89 143.11 78.5 149.23 78.45 155.36 78.51 159.83 73.89 159.94 69.78 153.77 74.93 144.69 74.93 138.52 69.78" stroke-width="0" fill="#FFFFFF"/><path d="M152.57 67.75C152.36 67.75 152.17 67.75 151.97 67.73 151.62 67.69 151.36 67.39 151.4 67.04 151.43 66.69 151.71 66.41 152.08 66.47 153.35 66.59 154.33 66.23 154.44 65.94 154.48 65.83 154.35 65.39 153.3 64.68 150.13 62.52 149.76 55.01 149.74 54.69 149.73 54.34 150 54.05 150.35 54.03 150.72 54.01 150.99 54.29 151.01 54.64 151.1 56.63 151.81 62.14 154.01 63.63 155.39 64.57 155.94 65.49 155.62 66.37 155.26 67.36 153.91 67.77 152.57 67.77" stroke-width="0" fill="#451445"/><path d="M173.06 65.33C173.06 67.79 170.02 69.78 166.26 69.78 162.5 69.78 159.46 67.79 159.46 65.33 159.46 62.87 162.5 60.88 166.26 60.88 170.02 60.88 173.06 62.87 173.06 65.33" stroke-width="0" fill="#EB7F5D"/><path d="M140.16 65.33C140.16 67.79 137.12 69.78 133.36 69.78 129.6 69.78 126.56 67.79 126.56 65.33 126.56 62.87 129.61 60.88 133.36 60.88 137.11 60.88 140.16 62.87 140.16 65.33" stroke-width="0" fill="#EB7F5D"/><path d="M193.06 27.79C193.06 22.4 188.97 18.01 183.74 17.43 183.82 16.96 183.88 16.47 183.88 15.98 183.88 11.52 180.27 7.91 175.81 7.91 175.17 7.91 174.55 8 173.95 8.15 172.76 3.47 168.56 0 163.52 0 157.65 0 152.9 4.69 152.76 10.53 151.45 8.94 149.5 7.91 147.28 7.91 143.7 7.91 140.77 10.56 140.27 14 140.23 13.98 140.2 13.93 140.16 13.92 140.16 13.92 117.62 16.57 117.62 42.85L118.04 53.69 122.92 53.69C122.92 53.69 122.92 53.66 122.92 53.66 123.97 53.73 124.31 52.8 125.19 46.62 125.51 44.36 126.81 41.91 128.51 40.6 129.05 40.18 131.03 37.14 136.52 38.8 142.44 40.6 142.43 44.91 152.71 42.18 155.3 41.49 159.29 45.87 163.4 42.71 167.51 39.55 171.58 43.52 174.55 47.59 174.55 47.59 174.56 47.59 174.56 47.59 175.15 52.41 175.92 53.34 179.07 53.33 182.35 53.33 180.96 49.41 181.38 44.37 181.41 44.05 181.54 41.36 183.04 41.44 185.22 41.56 187 39.67 187 37.48 187 37.41 186.96 37.35 186.96 37.28 190.54 35.61 193.03 32.01 193.03 27.8" stroke-width="0" fill="#E44722"/><path d="M211.14 280.22C211.22 230.46 211.31 167.6 211.31 144.5 211.31 121.4 182.57 98.34 159.94 98.34L151.85 98.21 151.85 98.14 149.95 98.17 148.04 98.14 148.04 98.21 139.95 98.34C117.34 98.34 88.58 121.73 88.58 144.5 88.58 167.27 88.67 230.46 88.75 280.22L211.13 280.22Z" stroke-width="0" fill="#3392F0"/><path d="M279.41 156.84 256.14 220.9 205.47 122.92C200.51 114.49 189.65 111.68 181.22 116.64 172.79 121.6 169.98 132.47 174.94 140.89L241.08 265.14 241.75 266.28C243.63 269.47 246.57 272.08 250.3 273.53 259.09 276.91 268.95 272.53 272.34 263.75L298.39 165.86C300.23 161.09 282.31 151.79 279.42 156.84" stroke-width="0" fill="#3392F0"/><path d="M20.37 156.84 43.64 220.9 94.32 122.92C99.28 114.49 110.14 111.68 118.57 116.64 127 121.6 129.81 132.47 124.85 140.89L58.72 265.14 58.05 266.28C56.16 269.47 53.23 272.08 49.49 273.53 40.71 276.91 30.84 272.53 27.45 263.75L1.41 165.85C-0.43 161.08 17.49 151.78 20.38 156.83" stroke-width="0" fill="#3392F0"/><rect x="14.32" y="123.47" width="270.98" height="103.63" stroke-width="0" fill="#F2F2F2"/><path d="M296.22 168.46C305.23 158.96 294.56 145.02 285.23 141.86L285.23 148.9C285.32 149.13 285.82 149.57 285.92 149.8 286.78 151.72 285.44 151.62 284.3 150.72 277.38 145.38 270.95 142.49 266.98 146.21 263.05 149.85 265.21 159.91 272.66 166.11 277.41 170.06 290.35 174.66 296.23 168.46" stroke-width="0" fill="#F1A167"/><path d="M3.41 168.46C-5.6 158.96 5.08 145.02 14.41 141.86L14.41 148.9C14.32 149.13 13.81 149.57 13.71 149.8 12.85 151.72 14.19 151.62 15.33 150.72 22.25 145.38 28.68 142.49 32.65 146.21 36.57 149.85 34.42 159.91 26.98 166.11 22.22 170.06 9.29 174.66 3.41 168.46" stroke-width="0" fill="#F1A167"/></g></svg>