<svg viewBox="0 0 356.39 716.83" xmlns="http://www.w3.org/2000/svg" xmlns:xlink="http://www.w3.org/1999/xlink" id="Layer_1" overflow="hidden"><defs></defs><path d="M126.91 65.58C141.17 56.97 155.52 48.32 171.01 42.2 186.5 36.08 203.35 32.55 219.88 34.62 229.81 35.86 242.13 40.1 247.32 49.49 251.05 56.24 250.36 66.25 251.08 73.76 252.09 84.21 252.97 94.67 253.72 105.14 255.24 126.08 256.28 147.06 257.01 168.04 258.46 209.62 258.66 251.23 258.8 292.84 258.85 306.83 258.62 321.75 250.84 333.37 244.61 342.67 234.18 348.58 223.31 351.24 212.44 353.9 201.06 353.61 189.91 352.64 189.53 350.18 189.15 347.71 188.76 345.25" stroke-width="0" fill="#7C2213"/><path d="M197.46 5.58C176.66 3.66 156.34-1.78 135.59 0.58 114.83 2.95 94.05 9.94 78.48 23.87 63.32 37.44 54.2 56.49 47.64 75.76 22.21 150.45 30.39 231.87 38.87 310.32 91.64 317.34 142.73 320.91 195.91 318.57" stroke-width="0" fill="#7C2213"/><path d="M246.88 52.27C247.71 40.49 241.7 28.91 232.87 21.06 224.04 13.21 212.68 8.72 201.17 6.06 172.52-0.55 141.49 3.76 115.72 17.91 100.09 26.49 86.26 38.75 77.22 54.12 60.21 83.04 61.81 118.83 63.92 152.31 67.36 206.89 70.8 261.46 74.23 316.04 99.22 316.08 124.21 316.12 149.2 316.15" stroke-width="0" fill="#7C2213"/><path d="M245.44 113.86C243.67 113.86 241.97 114.22 240.52 114.9 239.91 115.19 239.33 115.54 238.74 115.99 238.73 115.99 238.71 115.99 238.7 115.99 238.21 115.99 237.85 116.17 237.58 116.47 235.81 118.45 234.53 121.05 233.54 124.63 232.91 126.92 232.41 129.47 232.02 132.43 231.62 135.46 231.4 138.61 231.36 141.78 231.32 145.31 231.49 148.48 231.89 151.46 232.34 154.74 233.04 157.53 234.02 159.99 235.07 162.6 236.48 164.7 238.21 166.21 239.97 167.75 242.35 168.64 244.74 168.64 245.27 168.64 245.8 168.6 246.32 168.51 249.28 168.03 252.15 166.21 255.1 162.96 256.21 161.74 257.28 160.31 258.37 158.59 259.28 157.17 260.13 155.65 260.88 154.08 262.45 150.83 263.57 147.15 264.22 143.12 264.94 138.66 264.89 134.37 264.06 130.38 263.63 128.29 262.96 126.31 262.06 124.49 261.2 122.75 260.17 121.25 259 120.03 257.52 118.48 255.7 117.12 253.58 116.01 251.51 114.92 249.23 114.21 246.99 113.95 246.47 113.89 245.94 113.86 245.41 113.86" stroke-width="0" fill="#F0BEA9"/><path d="M246.78 120.4C245.49 120.59 244.21 120.97 243.03 121.5 241.74 122.07 240.5 122.74 239.36 123.57 238.23 124.39 237.21 125.36 236.25 126.38 235.3 127.38 234.45 128.47 233.69 129.63 232.93 130.77 232.25 131.99 231.73 133.26 231.48 133.86 231.29 134.47 231.13 135.1 230.98 135.66 230.9 136.22 230.82 136.79 230.69 137.63 231.31 138.44 232.14 138.56 232.54 138.61 232.96 138.51 233.28 138.27 233.64 138 233.81 137.65 233.9 137.23 233.9 137.23 233.9 137.22 233.9 137.21 234.45 135.45 235.23 133.77 236.15 132.17 237.47 130 239.07 128.02 240.88 126.25 241.55 125.62 242.24 125.01 242.95 124.43 243.71 123.81 244.54 123.3 245.4 122.83 245.32 122.87 245.23 122.92 245.15 122.96 246.05 122.49 246.97 122.11 247.95 121.86 248.62 121.71 249.29 121.62 249.97 121.61 250.68 121.62 251.38 121.71 252.06 121.9 252.06 121.9 252.05 121.9 252.04 121.9 252.53 122.05 253 122.25 253.47 122.48 253.71 122.6 254.01 122.45 254.11 122.22 254.22 121.96 254.09 121.69 253.85 121.58 252.78 121.04 251.65 120.65 250.47 120.43 249.86 120.32 249.24 120.27 248.62 120.27 248 120.27 247.38 120.32 246.77 120.4M247.88 121.87C247.88 121.87 247.79 121.89 247.74 121.9 247.79 121.89 247.83 121.88 247.88 121.87" stroke-width="0" fill="#DA8C67"/><path d="M164.51 43.77 163.89 43.77C156.62 43.78 149.35 44.19 142.28 44.97 133.56 45.92 125.85 47.37 118.7 49.38 114.91 50.45 111.17 51.76 107.59 53.28 104.02 54.8 100.72 56.53 97.79 58.44 94.68 60.47 91.93 62.75 89.64 65.21 88.31 66.63 87.08 68.24 85.97 70.01 85.01 71.55 84.17 73.25 83.4 75.22 82.13 78.48 81.36 82.26 81.12 86.46 80.91 90.03 81.15 93.83 81.86 98.43 83.18 106.92 85.99 115.17 88.57 122.13 89.51 124.68 90.5 127.21 91.48 129.74L92.2 131.58 92.91 133.41C93.44 134.78 93.97 136.15 94.44 137.55 91.66 136.35 88.75 135.75 85.82 135.75 82.4 135.78 79.2 136.63 76.4 138.23 73.54 139.84 71.09 142.37 69.3 145.53 68.4 147.13 67.64 149.01 66.98 151.28 66.42 153.19 66.05 155.29 65.88 157.52 65.58 161.37 66.09 165.53 67.36 169.54 68.54 173.28 70.41 176.91 72.91 180.35 74.12 182.01 75.47 183.6 76.92 185.08 78.26 186.45 79.79 187.79 81.59 189.17 85.82 192.44 91.08 195.01 97.22 196.81 100.49 197.77 103.72 198.32 106.81 198.45 107.18 198.47 107.56 198.47 107.93 198.47 109.9 198.47 111.78 198.25 113.53 197.82 115.27 200.62 116.84 203.67 118.19 206.86 120.55 212.53 122.19 218.58 123.07 224.83 123.88 231.04 123.9 237.2 123.12 243.16 122.39 248.39 121.05 253.34 119.15 257.89L119.31 257.6C118.85 258.6 118.39 259.6 117.9 260.58 117.49 260.95 117.36 261.55 117.58 262.09 117.62 262.23 117.69 262.36 117.78 262.48 120.04 266.56 123.47 270.4 127.97 273.89 132.45 277.35 137.59 280.24 143.69 282.72 149.46 285.06 155.6 286.74 161.96 287.71 165.88 288.31 169.73 288.61 173.41 288.61 175.9 288.61 178.37 288.47 180.75 288.2 187.08 287.48 192.76 285.82 197.64 283.26 200.11 281.97 202.42 280.36 204.54 278.49 206.6 276.67 208.43 274.51 209.99 272.07 210.34 271.52 210.67 270.97 210.98 270.4 211.02 270.35 211.05 270.29 211.09 270.21 211.15 270.09 211.22 269.97 211.28 269.85 211.62 269.2 211.42 268.43 210.82 268.08 210.63 267.97 210.4 267.91 210.17 267.91 210.06 267.91 209.94 267.92 209.83 267.95 208.32 266.66 206.88 265.15 205.56 263.47 203.63 260.92 201.98 258.05 200.53 254.7L200.53 254.7C198.63 250.15 197.28 245.12 196.52 239.75L196.5 239.55C196.07 236.18 195.87 232.88 195.92 229.68 198.98 229.15 202.01 228.45 204.89 227.61 209.73 226.2 214.51 224.29 219.12 221.93 223.67 219.6 227.9 216.84 231.71 213.72 235.1 210.96 238.21 207.69 240.95 204.02 243.47 200.64 245.61 196.79 247.32 192.58 248.9 188.68 250.01 184.35 250.62 179.7 251.2 175.29 251.21 170.51 250.67 164.67 250.23 159.93 249.4 154.8 248.07 148.52 247.36 145.17 246.58 141.83 245.8 138.5 244.16 131.5 242.47 124.26 241.49 117.01L241.49 117.04C241.16 114.51 240.92 111.9 240.77 109.28 240.65 107.25 240.58 105.08 240.51 102.24 240.47 100.31 240.44 98.38 240.4 96.45 240.36 93.55 240.31 90.65 240.21 87.76 239.92 79.02 239.13 68.82 235.51 59.4 234.21 56.01 232.55 52.81 230.58 49.89 230.58 49.52 230.44 49.18 230.2 48.94 229.97 48.71 229.69 48.59 229.29 48.56 222.59 48.03 215.78 47.36 209.2 46.71 194.59 45.27 179.48 43.78 164.54 43.78" stroke-width="0" fill="#F6CFBE"/><path d="M121.71 87.58C121.71 87.58 121.69 87.6 121.68 87.61 121.68 87.61 121.68 87.61 121.68 87.61 121.69 87.6 121.71 87.58 121.73 87.57 121.73 87.57 121.73 87.57 121.72 87.57" stroke-width="0" fill="#F0BEA9"/><path d="M100.72 96.77C100.72 96.77 100.76 96.77 100.77 96.76 100.75 96.76 100.74 96.76 100.72 96.77" stroke-width="0" fill="#F0BEA9"/><path d="M100.71 96.77 100.71 96.77 100.72 96.77 100.71 96.77Z" stroke-width="0" fill="#F0BEA9"/><path d="M149.25 226.71C149.25 226.71 149.25 226.71 149.26 226.72 149.26 226.72 149.25 226.72 149.25 226.71 149.25 226.71 149.25 226.71 149.25 226.71 154.72 231.18 160.75 234.96 167.2 237.88L167.2 237.88 167.2 237.88C167.2 237.88 167.23 237.89 167.25 237.9L167.21 237.88C170.05 239.16 172.95 240.27 175.93 241.16 178.88 242.05 181.87 242.76 184.91 243.23 184.91 243.23 184.93 243.23 184.94 243.23 187.42 243.61 189.92 243.86 192.44 243.92 194.05 243.96 195.66 243.92 197.27 243.83 197 242.49 196.76 241.13 196.57 239.75L196.54 239.55C196.11 236.25 195.92 232.97 195.95 229.8 193.49 230.1 191.01 230.25 188.54 230.27 184.13 230.31 179.72 229.98 175.36 229.37 170.94 228.75 166.56 227.87 162.25 226.73 158.03 225.62 153.86 224.29 149.79 222.7 146.78 221.53 143.82 220.23 140.95 218.76 143.52 221.61 146.31 224.25 149.27 226.7" stroke-width="0" fill="#DA8C67"/><path d="M184.91 243.24C184.91 243.24 184.91 243.24 184.91 243.24L184.91 243.24C184.91 243.24 184.91 243.24 184.92 243.24" stroke-width="0" fill="#DA8C67"/><path d="M184.93 243.25C184.93 243.25 184.93 243.25 184.93 243.25 184.93 243.25 184.92 243.25 184.91 243.25 184.92 243.25 184.93 243.25 184.94 243.25" stroke-width="0" fill="#DA8C67"/><path d="M92.26 151.11C91.91 151.34 91.73 151.67 91.61 152.05 90.78 154.85 90.61 157.83 90.84 160.72 91.08 163.76 91.83 166.78 93 169.59 93.59 171 94.3 172.35 95.1 173.66 95.87 174.93 96.78 176.1 97.75 177.22 99.62 179.39 101.89 181.22 104.45 182.52 104.75 182.67 105.12 182.55 105.28 182.25 105.43 181.96 105.31 181.58 105.01 181.43 104.38 181.11 103.76 180.75 103.18 180.35 101.89 179.44 100.75 178.39 99.71 177.2 98.48 175.74 97.47 174.12 96.62 172.42 95.48 170.06 94.67 167.54 94.15 164.97 93.7 162.48 93.51 159.97 93.69 157.45 93.84 155.84 94.14 154.25 94.6 152.7 94.71 152.32 94.6 151.86 94.39 151.54 94.17 151.21 93.83 150.98 93.44 150.89 93.33 150.87 93.23 150.86 93.12 150.86 92.82 150.86 92.53 150.95 92.28 151.11M94.15 164.91C94.15 164.91 94.15 164.94 94.15 164.95 94.15 164.94 94.15 164.92 94.15 164.91" stroke-width="0" fill="#DA8C67"/><path d="M82.75 146.85C78.76 146.94 74.7 148.35 71.88 151.25 71.71 151.42 71.67 151.66 71.83 151.85 71.97 152.01 72.27 152.07 72.43 151.9 73.09 151.22 73.81 150.64 74.61 150.13L74.51 150.19C75.41 149.63 76.37 149.19 77.37 148.85 78.55 148.49 79.75 148.28 80.97 148.21 82.26 148.17 83.54 148.28 84.8 148.53 84.75 148.52 84.7 148.51 84.65 148.5 85.94 148.78 87.18 149.18 88.36 149.76 89.28 150.25 90.12 150.82 90.9 151.51 91.34 151.93 91.75 152.38 92.13 152.87 92.57 153.42 93.42 153.47 93.96 153.02 94.23 152.8 94.39 152.48 94.42 152.13 94.44 151.82 94.35 151.42 94.12 151.2 93.35 150.46 92.54 149.8 91.64 149.23 90.76 148.69 89.81 148.23 88.84 147.86 87.03 147.17 85.08 146.85 83.14 146.85 83.01 146.85 82.88 146.85 82.75 146.85" stroke-width="0" fill="#DA8C67"/><path d="M109.68 80.09C109.68 80.09 109.71 80.06 109.72 80.05 109.73 80.04 109.74 80.03 109.75 80.02 109.73 80.04 109.7 80.06 109.68 80.09" stroke-width="0" fill="#671C10"/><path d="M190.03 41.3C188.12 41.24 186.23 41.11 184.33 40.94 182.22 40.76 180.14 40.48 178.04 40.2 177 40.07 176 40.75 175.83 41.8 175.66 42.86 176.4 43.81 177.43 44.01 182.41 44.99 187.55 45.05 192.61 44.77 195.12 44.63 197.62 44.32 200.09 43.95 202.59 43.58 205.07 43.11 207.54 42.52 212.43 41.34 217.26 39.88 221.95 38.08 224.3 37.18 226.62 36.21 228.91 35.17 231.2 34.14 233.43 33 235.66 31.87 235.84 31.78 236.01 31.68 236.19 31.6 236.5 31.43 236.71 31.12 236.57 30.76 236.48 30.52 236.22 30.33 235.96 30.33 235.88 30.33 235.81 30.35 235.74 30.38M235.74 30.38C232 32.29 228.11 33.92 224.17 35.38 220.23 36.84 216.18 38.03 212.09 39 208.53 39.82 204.91 40.41 201.29 40.83M212.28 38.96C212.28 38.96 212.18 38.98 212.14 38.99 212.19 38.98 212.24 38.97 212.28 38.96" stroke-width="0" fill="#671C10"/><path d="M181.4 580.61C172.21 580.61 162.43 580.99 150.64 581.81 134.37 582.96 121.08 584.56 108.83 586.84 94.52 589.51 81.03 593.38 68.74 598.36 65.42 599.71 62.15 601.16 59.04 602.67L59.36 601.58C60.42 597.59 61.4 593.95 62.35 590.52 62.44 590.21 62.39 589.88 62.21 589.58 62.02 589.26 61.69 589.02 61.33 588.94 61.22 588.92 61.14 588.91 61.05 588.91 60.45 588.91 59.93 589.33 59.76 589.96 54.18 610.06 49.54 630.99 45.57 653.96 42.35 672.65 39.72 691.98 37.53 713.08 37.49 713.45 37.5 713.76 37.71 714.07 37.9 714.36 38.2 714.57 38.54 714.65 38.64 714.67 38.73 714.69 38.81 714.69L39 714.79 39 714.81C39.25 714.97 39.47 715.04 39.73 715.04 39.84 715.04 39.94 715.04 40.05 715.01 41.13 714.87 42.21 714.73 43.3 714.61 51.49 713.7 60.29 713.27 71 713.27 77.64 713.27 84.43 713.44 90.78 713.62L96.58 713.8 97.72 713.83 97.9 713.83C103.44 714 109.17 714.17 114.79 714.26 116.68 714.29 118.56 714.3 120.46 714.3 122.59 714.3 124.72 714.28 126.85 714.27L128.45 714.27C128.45 714.27 130.06 714.24 130.06 714.24 133.12 714.21 136.17 714.19 139.24 714.18L140.08 714.18C154.19 714.18 168.56 714.46 182.46 714.74L183.01 714.74C183.01 714.74 184.37 714.78 184.37 714.78L189.64 714.89C192.78 714.95 195.92 715 199.06 715.05L200.99 715.09C205.62 715.17 210.18 715.25 214.74 715.36 221.15 715.53 227.58 715.76 234 715.99L239.68 716.19C247.51 716.47 256.77 716.76 266.16 716.82 267.1 716.82 268.06 716.83 269 716.83 272.43 716.83 275.83 716.79 279.12 716.71 281.27 716.66 283.42 716.59 285.57 716.5 287.66 716.4 289.74 716.25 292.3 716.02 292.59 716 292.92 715.94 293.23 715.66 293.49 715.41 293.64 715.07 293.65 714.72 293.65 714.37 293.53 714.04 293.29 713.78 293.29 713.65 293.3 713.53 293.32 713.44 295.5 693.06 296.28 671.85 295.71 648.59 295.34 633.53 294.37 617.71 292.82 601.56 292.75 600.85 292.18 600.31 291.5 600.31 291.08 600.33 290.73 600.5 290.47 600.79 290.24 601.07 290.13 601.39 290.16 601.71 290.58 605.96 290.98 610.64 291.36 615.6 285.88 607.23 276.7 602.15 269.32 598.66 267.3 597.69 264.99 596.67 261.85 595.36L261.65 595.27C258.89 594.12 256.4 593.09 253.89 592.12 247.71 589.74 241 587.7 233.94 586.04 221.41 583.09 207.84 581.38 192.47 580.82 188.86 580.69 185.25 580.62 181.42 580.62" stroke-width="0" fill="#021621"/><path d="M228.13 660.31C225.96 662.72 223.52 664.81 220.89 666.71 220.9 666.71 220.92 666.69 220.93 666.68 217.66 669 214.08 670.87 210.34 672.32 207.55 673.38 204.7 674.26 201.78 674.93 198.9 675.59 195.97 676.01 193.03 676.34 190.71 676.58 188.39 676.68 186.05 676.72 184.76 676.74 183.66 677.72 183.64 679.04 183.61 680.27 184.66 681.51 185.96 681.45 190.08 681.28 194.21 680.71 198.21 679.7 202.17 678.7 206.04 677.26 209.73 675.53 213.37 673.82 216.8 671.7 220.03 669.32 223.28 666.93 226.24 664.19 228.93 661.19 229.14 660.95 229.19 660.6 228.96 660.36 228.85 660.24 228.68 660.17 228.51 660.17 228.37 660.17 228.23 660.22 228.13 660.33" stroke-width="0" fill="#04293E"/><path d="M183.12 679.13C181.72 684.55 180.34 689.96 179.03 695.4 178.38 698.12 177.76 700.85 177.16 703.58 176.84 705.03 176.54 706.48 176.27 707.93 175.98 709.44 175.67 710.99 175.63 712.52 175.6 713.64 176.37 714.67 177.45 714.99 177.88 715.11 178.3 715.12 178.73 715.02 179.31 714.88 180.02 714.46 180.28 713.89 181.46 711.29 182.07 708.46 182.69 705.69 183.3 702.95 183.85 700.21 184.39 697.46 185.5 691.8 186.59 686.14 188.03 680.55 188.38 679.21 187.65 677.79 186.29 677.39 186.07 677.32 185.84 677.29 185.61 677.29 184.5 677.29 183.42 678.01 183.13 679.13" stroke-width="0" fill="#04293E"/><path d="M122.87 243.43C122.51 243.43 122.19 243.56 121.95 243.8 121.77 243.98 121.65 244.21 121.6 244.46 121.51 244.59 121.45 244.71 121.43 244.82 121.02 246.73 120.36 248.62 119.41 250.61L119.58 250.32C117.54 254.33 114.73 257.98 112.02 261.36L110.81 262.86C109.86 264.04 108.92 265.22 107.99 266.41 106.63 268.17 105.31 270.07 104.08 272.07 99.04 280.19 94.66 288.98 91.05 298.19 84.87 313.96 80.89 331.78 78.54 354.26 77.97 359.68 77.53 365.02 77.1 370.48 76.65 376.09 76.26 381.7 75.88 387.32 75.28 396.24 74.76 405.16 74.23 414.09L73.84 420.75C72.57 442.12 71.13 464.84 68.57 487 67.17 499.19 65.43 510.98 63.41 522.02L63.48 521.84C61.19 534.09 58.37 546.31 55.11 558.02 52.15 568.63 48.58 579.84 43.53 594.38 43.43 594.67 43.45 595 43.58 595.3 43.55 595.65 43.67 596 43.9 596.27 52.27 605.69 61.93 614.09 72.63 621.21 82.62 627.87 93.89 633.58 106.11 638.19 117.41 642.45 129.72 645.73 142.7 647.96 154.9 650.05 167.71 651.17 180.8 651.31 181.68 651.32 182.57 651.33 183.45 651.33 194.89 651.33 206.75 650.54 218.69 648.99 225.87 648.06 232.86 646.82 239.46 645.32 246.59 643.7 253.71 641.63 260.61 639.18 268.34 636.43 275.77 633.16 282.67 629.48 289.72 625.72 296.5 621.3 302.81 616.35 303 616.2 303.12 616 303.19 615.75 303.39 615.53 303.49 615.25 303.5 614.88 303.75 609.02 303.78 603.19 303.79 597.24 303.79 591.54 303.76 585.72 303.66 579.45 303.47 567.58 303.07 555.56 302.46 543.71 301.2 519.22 298.95 495.28 295.79 472.53 294.09 460.29 292.23 449.28 290.11 438.87 287.9 428.08 285.21 416.99 282.1 405.89 276.01 384.25 268.24 362.77 258.99 342.05 255.61 334.5 251.79 326.56 246.6 316.32 241.79 306.83 237.35 298.63 233.03 291.25 222.44 273.13 211.6 258.62 199.87 246.91 199.82 246.7 199.7 246.49 199.54 246.32 199.3 246.08 198.96 245.95 198.61 245.95 198.26 245.95 197.94 246.08 197.71 246.32 196.51 247.6 195.14 248.84 193.53 250.09 192.13 251.16 190.68 252.14 189.19 253 187.77 253.83 186.21 254.6 184.57 255.29L184.89 255.19C180.95 256.8 176.64 257.96 172.05 258.59L172.39 258.59C169.71 258.91 166.95 259.09 164.19 259.09 161.43 259.09 158.38 258.89 155.47 258.51 149.78 257.72 144.34 256.23 139.29 254.11L139.58 254.27C135.35 252.44 131.48 250.22 128.1 247.66 126.54 246.44 125.09 245.15 123.79 243.81 123.56 243.57 123.23 243.44 122.88 243.44" stroke-width="0" fill="#FBA92D"/><path d="M149.62 485.74C147.52 485.74 145.23 485.95 142.83 486.36 140.22 486.81 137.44 487.52 134.34 488.53 131.64 489.41 128.91 490.49 126 491.83 120.72 494.25 115.6 497.19 110.8 500.58 108.67 502.08 106.69 503.63 104.92 505.19 103.33 506.59 101.81 508.14 100.27 509.93 97.88 512.71 95.86 515.37 94.09 518.06 93.01 519.69 92.04 521.36 91.2 523.03 90.33 524.74 89.73 526.32 89.35 527.84 88.91 529.58 88.79 531.09 89 532.47 89.11 533.21 89.37 534.01 89.78 534.91 90.2 535.81 90.78 536.57 91.5 537.17 92.02 537.6 92.7 537.89 93.53 538.03 93.72 538.06 93.91 538.08 94.1 538.08 94.77 538.08 95.42 537.9 95.91 537.75 96.63 537.53 97.28 537.15 97.88 536.77 97.61 537.55 97.39 538.37 97.19 539.18 96.7 541.19 96.43 543.25 96.39 545.28 96.37 546.92 96.43 548.83 97.06 550.6 97.33 551.39 97.82 552.09 98.46 552.63 99.01 553.09 99.75 553.33 100.65 553.33 101.39 553.32 102.1 553.12 102.91 552.74 103.64 552.39 104.4 551.91 105.28 551.23 107.01 549.91 108.54 548.29 109.94 546.74 109.73 547.7 109.59 548.7 109.52 549.66 109.37 551.75 109.52 553.49 110 555 110.18 555.55 110.48 556.1 110.85 556.57 111.21 557.03 111.7 557.4 112.31 557.69 112.82 557.94 113.38 558 113.77 558.01L113.8 558.01C114.51 558.01 115.07 557.93 115.72 557.74 116.98 557.38 118.13 556.72 119.19 556.06 120.51 555.23 121.71 554.26 122.6 553.51 123.54 552.71 124.52 551.81 125.59 550.74 126.28 550.06 126.96 549.36 127.64 548.67 128.47 547.83 129.31 546.98 130.14 546.15 137.85 538.54 144.61 532.89 151.42 528.38 152.64 527.57 153.97 526.73 155.49 525.83 158.7 523.95 162 522.26 165.3 520.81 165.9 520.55 166.23 519.86 166.04 519.25 166.73 518.56 167.36 517.83 167.89 517.1 168.53 516.24 169.11 515.24 169.67 514.04 170.58 512.1 171.1 509.85 171.19 507.54 171.27 505.71 171.03 503.8 170.44 501.53 170.02 499.93 169.53 498.52 168.95 497.22 168.4 495.99 167.71 494.78 166.91 493.64 166.24 492.68 165.4 491.74 164.37 490.78 162.73 489.24 160.62 487.97 158.28 487.12 155.74 486.19 152.84 485.72 149.66 485.72" stroke-width="0" fill="#F6CFBE"/><path d="M129.04 525.6C127.25 526.96 125.47 528.33 123.72 529.75 121.89 531.23 120.13 532.81 118.44 534.45 117.59 535.28 116.77 536.14 115.96 537.01 115.16 537.88 114.4 538.8 113.68 539.74 112.27 541.56 111.03 543.5 109.98 545.55 109.88 545.76 109.99 546.02 110.2 546.11 110.42 546.21 110.66 546.1 110.76 545.89 111.08 545.27 111.42 544.67 111.77 544.07 111.77 544.07 111.77 544.08 111.77 544.09 112.62 542.7 113.58 541.39 114.63 540.14 115.68 538.88 116.83 537.69 118.01 536.55L117.9 536.66C119.76 534.89 121.75 533.25 123.77 531.68 125.83 530.07 127.93 528.52 130.03 526.95 130.39 526.68 130.47 526.15 130.2 525.79 130.04 525.57 129.78 525.45 129.53 525.45 129.36 525.45 129.19 525.5 129.04 525.61" stroke-width="0" fill="#DA8C67"/><path d="M112.11 520.48C111.37 520.84 110.66 521.25 109.97 521.71 109.27 522.18 108.61 522.73 107.98 523.28 107.34 523.83 106.73 524.43 106.13 525.04 105.53 525.66 104.93 526.3 104.37 526.96 103.8 527.62 103.25 528.31 102.7 528.99 102.15 529.67 101.61 530.35 101.09 531.04 100.08 532.36 99.11 533.72 98.17 535.1 98.04 535.29 98.04 535.55 98.24 535.7 98.41 535.83 98.7 535.82 98.84 535.63 99.63 534.49 100.46 533.4 101.34 532.33 102.26 531.21 103.23 530.13 104.26 529.11 104.26 529.11 104.25 529.12 104.24 529.13 105.6 527.82 107.03 526.59 108.52 525.44 109.99 524.31 111.54 523.27 113.09 522.24 113.46 521.99 113.59 521.46 113.43 521.06 113.34 520.81 113.14 520.61 112.9 520.5 112.78 520.45 112.63 520.41 112.48 520.41 112.36 520.41 112.23 520.43 112.13 520.48" stroke-width="0" fill="#DA8C67"/><path d="M201.17 250.83C200.82 250.83 200.5 250.96 200.26 251.2 200.02 251.44 199.88 251.78 199.89 252.13 199.89 252.48 200.03 252.8 200.26 253.03 200.61 253.38 200.97 253.72 201.33 254.05L202.58 255.91C213.09 271.63 223.95 287.88 233.9 304.33 245.42 323.38 254.62 341.04 262.01 358.31 262.06 358.43 262.11 358.55 262.16 358.67L262.25 358.88 262.34 359.09C264.4 363.96 266.31 368.72 267.91 372.75 270.07 378.2 271.89 382.99 273.47 387.4 277.4 398.4 280.03 407.65 281.74 416.52 272.28 418.58 262.86 421.45 252.82 425.29 244.04 428.65 235 432.69 225.19 437.65 220.81 439.87 216.3 442.27 211.77 444.77 207.83 446.94 204.16 448.91 200.57 450.78L199.21 451.49C191.97 455.28 184.49 459.19 177.48 463.63 168.85 469.09 162.63 474.26 157.92 479.91 156.49 481.62 155.32 483.25 154.36 484.88 153.33 486.63 152.49 488.54 151.85 490.57 150.76 494.02 150.44 497.84 150.87 501.92 151.23 505.33 152.07 508.88 153.59 513.41 154.53 516.17 155.59 518.94 156.62 521.61 157.08 522.8 157.54 523.98 157.99 525.17 158.05 525.32 158.11 525.46 158.19 525.59 158.19 526.37 158.77 526.98 159.43 526.98 178.08 526.22 196.41 524.74 213.44 523.26L217.19 522.93C223.61 522.37 230.25 521.79 236.78 521.07 244.06 520.27 250.71 519.34 257.1 518.25 272.35 515.63 285.43 512.03 297.09 507.25 303.61 504.58 309.72 501.49 315.26 498.06 321.06 494.47 326.48 490.3 331.38 485.66 336.65 480.67 341.22 475.07 344.97 469.02 348.54 463.25 351.35 456.88 353.32 450.09 355.13 443.82 356.16 437.07 356.38 430.01 356.58 423.51 355.99 416.59 354.62 409.44 353.34 402.76 351.28 395.88 348.49 388.98 347.29 386.01 345.88 382.9 344.05 379.19 342.55 376.14 340.92 372.99 339.07 369.57 331.78 356.08 323.51 343.31 314.49 331.6 304.54 318.7 294.44 308.05 283.61 299.06 277.64 294.1 271.89 290.02 266.04 286.57 260.1 283.08 253.93 280.16 246.48 276.85 245.01 276.19 243.53 275.55 242.06 274.9 237.12 272.73 232.01 270.48 227.09 268.05 219.9 264.5 213.89 260.85 208.72 256.91 206.84 255.45 205.03 253.91 203.33 252.33L203.13 252.03C202.86 251.63 202.58 251.42 202.28 251.33L202.14 251.19C201.9 250.95 201.57 250.82 201.22 250.82M299.1 416.17 299.15 416.15 299.3 416.17C298.96 416.2 298.62 416.24 298.28 416.27 298.51 416.24 298.74 416.21 298.97 416.19 299 416.19 299.03 416.19 299.06 416.18L299.07 416.18C299.07 416.18 299.11 416.18 299.13 416.17L299.09 416.17ZM245.6 517.41 245.55 517.41C245.81 517.37 246.08 517.34 246.34 517.31L245.6 517.41Z" stroke-width="0" fill="#FBA92D"/><path d="M254.31 340.51C254.21 340.51 254.12 340.54 254.02 340.59 253.75 340.75 253.67 341.08 253.81 341.36 257.42 348.3 260.75 355.35 263.69 362.32 267.19 370.64 270.38 379.42 273.44 389.15 274.73 393.25 276.04 397.75 277.45 402.9 278.06 405.15 278.65 407.39 279.23 409.64 279.53 410.78 279.83 411.91 280.11 413.06 280.2 413.43 280.28 413.8 280.35 414.18L280.45 414.63C280.57 415.21 280.66 415.66 280.76 416.11 276.94 416.7 273.44 417.38 270.05 418.16 265.34 419.24 260.52 420.52 255.71 421.98 251.42 423.27 246.92 424.83 241.95 426.75 237.26 428.55 232.63 430.53 228.19 432.61 223.59 434.77 219.15 437.08 214.99 439.48 212.67 440.82 210.27 442.29 207.85 443.84 206.65 444.61 205.61 445.32 204.65 446.02 204.27 446.3 203.9 446.59 203.53 446.89L203.33 447.05 203.13 447.2C202.54 447.67 201.96 448.14 201.43 448.67 201.17 448.89 200.98 449.15 200.87 449.43 200.68 449.9 200.68 450.44 200.89 450.89 201.08 451.33 201.45 451.69 201.9 451.88 202.11 451.97 202.32 452.01 202.56 452.01 202.81 452.01 203.06 451.96 203.36 451.86 204.55 451.47 205.69 450.88 206.84 450.26 208.1 449.58 209.29 448.82 210.4 448.1 211.09 447.65 211.77 447.2 212.46 446.75L212.72 446.58C214.04 445.71 215.36 444.83 216.71 444 218.43 442.97 220.22 442 221.96 441.05L222.43 440.79 223.08 440.43C225.2 439.27 227.33 438.14 229.47 437.03 234.44 434.44 238.64 432.39 242.66 430.59 251.88 426.46 260.93 423.13 269.56 420.7 273.7 419.55 277.8 418.56 281.7 417.77 281.86 417.86 282.05 417.9 282.25 417.9 282.6 417.9 282.97 417.73 283.23 417.46 285.35 417.06 287.47 416.7 289.53 416.4 296.4 415.39 303.44 414.85 310.45 414.8L311.61 414.8C312.49 414.8 313.36 414.8 314.25 414.82 314.63 414.82 314.9 414.61 314.95 414.28 314.96 414.1 314.9 413.91 314.78 413.77 314.68 413.65 314.54 413.58 314.4 413.58 313.22 413.55 312.04 413.55 310.86 413.55 302.05 413.55 293.22 414.19 284.61 415.47L283.43 415.65C283.34 414.73 283.12 413.78 282.92 412.93L282.85 412.66 282.45 410.9C282.28 410.13 282.1 409.36 281.91 408.59 281.32 406.17 280.65 403.66 279.86 400.94 278.46 396.12 276.83 391.17 274.88 385.79 271.71 377.02 267.79 367.69 262.53 356.42 260.14 351.29 257.54 346.04 254.81 340.8 254.73 340.63 254.53 340.51 254.33 340.51" stroke-width="0" fill="#BC7F22"/><path d="M320.34 493.81C320.27 493.81 320.21 493.83 320.16 493.86L319.3 494.33 318.38 494.84C315.79 496.27 313.2 497.69 310.6 499.1 307.79 500.62 304.47 502.39 301.11 504.01 297.81 505.6 294.47 507.05 291.19 508.32 287.63 509.7 283.96 510.8 280.5 511.82L280.83 511.79C271.92 514.27 262.03 516.28 249.71 518.08 243.96 518.92 238.18 519.64 233.79 520.17 228.39 520.83 222.73 521.39 216.98 521.82 206.97 522.58 196.45 522.99 187.99 523.32 183.16 523.51 178.33 523.7 173.5 523.94 171.14 524.05 168.79 524.2 166.43 524.37 165.2 524.46 163.97 524.56 162.73 524.66 162.17 524.71 161.61 524.76 161.05 524.83 160.53 524.9 160.03 525 159.53 525.12L159.06 525.22C158.76 525.28 158.5 525.39 158.29 525.56 158.24 525.6 158.19 525.65 158.14 525.69 158.49 526.62 158.83 527.52 159.17 528.41 159.83 528.5 160.46 528.57 161.1 528.58L161.65 528.58C162.1 528.58 162.55 528.58 163.01 528.56L163.3 528.56C164.75 528.52 166.2 528.48 167.65 528.43 170.51 528.34 173.33 528.24 176.14 528.12 181.76 527.89 187.38 527.66 192.99 527.36 202.99 526.84 214.82 526.13 226.62 524.81 231.43 524.27 236.61 523.58 242.94 522.64 249.33 521.68 254.18 520.86 258.66 519.99 264.33 518.88 269.39 517.68 274.13 516.33 276.4 515.7 278.83 514.94 281.79 513.97 284.52 513.07 287 512.17 289.35 511.21 291.99 510.15 294.68 508.94 297.35 507.63 300.04 506.31 302.71 504.85 305.21 503.46 307.71 502.07 310.19 500.64 312.67 499.2 315.28 497.68 317.9 496.17 320.54 494.71 320.74 494.6 320.89 494.37 320.77 494.11 320.71 493.95 320.53 493.83 320.35 493.83" stroke-width="0" fill="#BC7F22"/><path d="M218.07 207.12C216.08 207.15 214 207.38 211.5 207.82 207.11 208.61 202.64 209.97 197.83 211.99 193.78 213.68 189.53 215.89 184.84 218.75 181.02 221.08 177.07 223.77 172.76 227 170.21 228.91 167.48 231.05 164.44 233.54 163.84 232.71 163.19 231.91 162.54 231.12 160.54 228.71 158.39 226.53 156.15 224.61 154.92 223.56 153.66 222.61 152.41 221.78 151.2 220.99 149.91 220.31 148.59 219.77 147.4 219.27 146.15 218.97 144.88 218.87 144.7 218.86 144.52 218.85 144.35 218.85 143.33 218.85 142.27 219.08 141.31 219.5 138.42 220.76 137.05 223.84 136.5 225.56 135.79 227.75 135.7 230.3 136.22 233.38 136.75 236.54 137.95 239.49 139.05 241.95 140.52 245.27 142.28 248.37 143.81 250.97 145.56 253.94 147.43 256.9 149.23 259.76 150.1 261.13 150.97 262.51 151.82 263.88 153.55 266.69 155.38 269.67 156.94 272.79 156.83 272.81 156.73 272.84 156.63 272.89 156.85 273.35 157.06 273.8 157.26 274.27 157.81 275.53 158.32 276.81 158.8 278.1 159.01 278.35 159.23 278.6 159.44 278.84 159.68 279.68 159.85 280.45 159.97 281.17 160.02 281.5 160.3 281.8 160.56 281.95 160.76 282.06 160.99 282.13 161.21 282.13 161.33 282.13 161.44 282.11 161.56 282.08 161.78 282.03 161.99 281.9 162.16 281.73 162.75 282.34 163.38 282.95 164.01 283.53 167.04 286.31 170.25 288.7 173.55 290.63 177.04 292.68 180.59 294.16 184.1 295.03 186.44 295.62 188.8 295.91 191.11 295.91 192.43 295.91 193.76 295.81 195.05 295.62 198.67 295.07 202.28 293.55 205.5 291.21 208.37 289.13 210.95 286.39 213.37 282.83 215.3 280 217.01 276.72 218.46 273.09 219.87 269.56 220.87 265.83 221.45 262.02 222.12 257.51 221.99 253.25 221.05 249.35 220.05 245.22 218 241.58 215.11 238.8 215.55 235.22 215 231.67 213.59 228.83 216.71 226.18 219.43 223.6 221.89 220.95 223.33 219.39 224.38 218.01 225.19 216.61 226.02 215.19 226.47 213.97 226.58 212.79 226.7 211.61 226.4 210.5 225.72 209.56 224.99 208.54 223.73 207.97 222.81 207.68 221.61 207.31 220.26 207.13 218.56 207.13L218.08 207.13Z" stroke-width="0" fill="#F6CFBE"/><path d="M216.04 206.52C213.67 206.67 211.32 207.05 209 207.54 204.83 208.41 200.78 209.87 196.89 211.58 192.86 213.36 188.96 215.47 185.23 217.81 181.46 220.17 177.83 222.71 174.28 225.39 170.84 227.99 167.52 230.75 164.22 233.52 164.04 233.67 163.96 233.9 164.1 234.11 164.22 234.29 164.51 234.38 164.69 234.23 168.73 230.85 172.91 227.63 177.23 224.63 181.63 221.57 186.21 218.77 191 216.36 193.82 214.97 196.71 213.71 199.67 212.65 202.58 211.61 205.57 210.8 208.6 210.19 208.53 210.2 208.47 210.22 208.4 210.23 210.53 209.81 212.66 209.5 214.82 209.31 216.56 209.16 218.3 209.08 220.04 209.17 221.01 209.23 221.97 209.36 222.9 209.63 223.26 209.76 223.61 209.91 223.95 210.11 224.11 210.22 224.25 210.34 224.39 210.48 224.46 210.57 224.53 210.67 224.59 210.77 224.64 210.89 224.68 211.01 224.71 211.13 224.73 211.31 224.74 211.49 224.74 211.67 224.7 212.01 224.62 212.33 224.53 212.66 224.25 213.44 223.85 214.17 223.42 214.88 222.32 216.56 221.01 218.08 219.64 219.54 218.08 221.2 216.41 222.76 214.71 224.28 214.74 224.26 214.76 224.23 214.79 224.21 212.37 226.36 209.87 228.41 207.29 230.36 201.17 234.98 194.96 239.49 188.72 243.94 188.29 244.25 188.16 244.85 188.46 245.3 188.77 245.75 189.37 245.85 189.82 245.57 194.45 242.61 198.98 239.48 203.46 236.29 205.95 234.52 208.44 232.77 210.86 230.91 212.79 229.42 214.67 227.89 216.51 226.28 218.6 224.45 220.63 222.56 222.5 220.51 223.33 219.6 224.13 218.66 224.86 217.66 225.53 216.75 226.15 215.79 226.65 214.77 226.88 214.31 227.06 213.82 227.21 213.33 227.34 212.94 227.43 212.54 227.48 212.13 227.52 211.7 227.54 211.27 227.48 210.84 227.44 210.59 227.39 210.34 227.31 210.1 227.22 209.83 227.08 209.58 226.96 209.32 226.76 208.94 226.45 208.62 226.16 208.32 225.8 207.97 225.35 207.7 224.91 207.48 224.43 207.23 223.89 207.06 223.37 206.92 222.76 206.75 222.13 206.65 221.5 206.57 220.6 206.46 219.7 206.42 218.79 206.42 217.88 206.42 216.98 206.46 216.08 206.52M224.07 210.15C224.07 210.15 224.13 210.19 224.16 210.21 224.13 210.19 224.1 210.17 224.07 210.15M224.67 210.86C224.67 210.86 224.7 210.92 224.71 210.94 224.69 210.91 224.68 210.88 224.67 210.86" stroke-width="0" fill="#DA8C67"/><path d="M213.01 227.79C212.68 227.9 212.41 228.33 212.57 228.67 213.17 229.91 213.61 231.19 213.91 232.53 214.17 233.89 214.24 235.24 214.17 236.62 214.17 236.55 214.18 236.47 214.19 236.4 214.09 237.78 213.8 239.13 213.38 240.45 212.73 242.34 211.83 244.13 210.74 245.81 210.8 245.72 210.85 245.64 210.91 245.56 209.83 247.19 208.6 248.7 207.27 250.12 206.97 250.44 206.96 250.96 207.2 251.32 207.35 251.54 207.58 251.69 207.84 251.74 208.07 251.79 208.4 251.74 208.59 251.59 209.45 250.86 210.27 250.09 211.03 249.25 211.77 248.43 212.43 247.54 213.04 246.61 213.62 245.71 214.12 244.79 214.55 243.8 214.96 242.84 215.28 241.84 215.53 240.82 215.78 239.82 215.88 238.81 215.95 237.78 216.02 236.75 215.98 235.72 215.86 234.69 215.59 232.43 214.9 230.26 213.91 228.22 213.82 228.04 213.74 227.9 213.55 227.82 213.46 227.77 213.35 227.75 213.25 227.75 213.18 227.75 213.1 227.76 213.03 227.79M213.35 240.6C213.35 240.6 213.34 240.64 213.33 240.67 213.33 240.65 213.35 240.62 213.35 240.6" stroke-width="0" fill="#DA8C67"/><path d="M143.41 218.63C142.88 218.64 142.35 218.72 141.83 218.84 141.28 218.95 140.76 219.17 140.25 219.41 139.31 219.86 138.48 220.6 137.86 221.43 137.06 222.51 136.55 223.72 136.2 225.01 135.76 226.62 135.64 228.33 135.64 229.99 135.64 232.02 135.89 234.03 136.28 236.02 137.03 239.93 138.54 243.68 140.35 247.21 142.22 250.85 144.46 254.29 146.74 257.68 150.56 263.36 154.61 268.95 157.41 275.22 157.38 275.15 157.34 275.08 157.31 275.01 157.76 276.02 158.17 277.04 158.54 278.09 158.7 278.56 159.16 278.85 159.66 278.71 160.11 278.58 160.44 278.05 160.28 277.59 155.76 265.36 146.11 255.96 140.82 244.13L140.92 244.35C140.28 242.89 139.7 241.41 139.23 239.89 138.75 238.37 138.41 236.81 138.17 235.24 138.17 235.26 138.17 235.28 138.17 235.3 137.85 232.92 137.81 230.52 138.05 228.12 138.19 226.96 138.41 225.81 138.81 224.71 139.06 224.08 139.37 223.47 139.76 222.91 140 222.59 140.28 222.3 140.57 222.03 140.92 221.76 141.29 221.53 141.68 221.34 142.09 221.18 142.52 221.06 142.95 220.98 143.67 220.88 144.4 220.89 145.13 220.96 146.35 221.12 147.55 221.46 148.7 221.89 148.7 221.89 148.69 221.89 148.68 221.89 150.95 222.78 153.08 224.02 155.07 225.42 155.06 225.41 155.04 225.4 155.03 225.39 157.65 227.27 160.08 229.43 162.15 231.93 162.15 231.92 162.13 231.91 162.12 231.9 162.15 231.93 162.17 231.96 162.2 232 162.21 232.01 162.22 232.03 162.24 232.04 162.24 232.04 162.23 232.03 162.22 232.02 162.76 232.69 163.26 233.38 163.72 234.1 163.91 234.41 164.32 234.51 164.63 234.32 164.94 234.13 165.04 233.71 164.85 233.41 163.53 231.32 161.9 229.44 160.15 227.71 158.17 225.74 156 223.96 153.68 222.39 151.55 220.95 149.2 219.74 146.72 219.06 145.72 218.78 144.68 218.63 143.64 218.63 143.56 218.63 143.47 218.63 143.39 218.63M138.02 228.21C138.02 228.21 138.02 228.26 138.01 228.29 138.01 228.26 138.01 228.24 138.02 228.21M162.21 232.01C162.21 232.01 162.2 232 162.19 231.99 162.17 231.97 162.15 231.95 162.14 231.93 162.16 231.96 162.18 231.99 162.21 232.02M155.2 225.52 155.07 225.42C155.07 225.42 155.16 225.48 155.2 225.52" stroke-width="0" fill="#DA8C67"/><path d="M121.86 249.52C121.49 250.11 121.1 250.68 120.68 251.23 118.87 253.56 116.58 255.8 113.66 258.11L113.95 257.94C109.08 261.68 103.66 264.76 98.41 267.74L96.6 268.76C89.78 272.65 82.83 276.04 76.94 278.83L72.45 280.96C60.75 286.48 48.65 292.19 37.85 299.73 31.75 303.99 26.39 308.65 21.94 313.58 17.92 318.02 14.34 323.04 11.31 328.49 5.71 338.55 2.15 350.1 0.7 362.81-0.63 374.43-0.1 386.83 2.26 399.68 4.45 411.59 8.25 423.52 13.58 435.15 16.07 440.59 18.96 445.96 22.14 451.1 25.44 456.42 29.34 461.78 33.73 467.04 43.23 478.44 54.55 488.74 67.4 497.66 73.73 502.05 80.36 505.95 87.11 509.24 93.86 512.53 100.71 515.14 107.49 517 114.16 518.83 120.81 519.76 127.26 519.76 127.77 519.76 128.29 519.76 128.8 519.74 135.51 519.58 142.18 518.3 148.63 515.93 154.88 513.62 161.04 510.17 166.95 505.66 172.21 501.65 177.03 497 181.27 491.84 185.06 487.23 188.55 482.01 191.64 476.28 194.44 471.09 196.92 465.41 199.22 458.95 203.11 448.01 205.91 435.96 208.03 421.07 209.9 407.9 210.84 394.86 211.58 382.74 211.95 376.54 212.3 370.34 212.65 364.13 213.09 356.07 213.42 347.26 213.66 337.18 213.96 323.84 214.04 310.27 214.12 297.14 214.14 292.69 214.17 288.24 214.2 283.8 214.2 283.65 214.17 283.49 214.11 283.35 212.9 283.41 211.68 283.44 210.46 283.44 204.95 283.46 199.45 283.01 193.99 282.31 191.34 281.96 188.71 281.56 186.07 281.13 183.77 280.75 181.47 280.35 179.17 279.93 174.47 279.07 169.78 278.11 165.19 276.75 161.7 275.71 158.26 274.46 155 272.84 154.89 272.93 154.79 273.05 154.73 273.19 148.08 289.89 140.03 306.3 132.25 322.17L129.78 327.21C121.09 344.95 112.71 362.38 105.77 380.65 101.96 377.14 98.43 373.35 95.33 369.35 92.92 366.19 90.97 362.92 89.55 359.64L89.55 359.64C88.19 356.42 87.25 353 86.75 349.48L86.72 349.22C86.23 345.35 86.27 341.09 86.86 336.67 87.77 330.23 89.73 323.56 93.03 315.68 93.04 315.65 93.06 315.61 93.07 315.57L93.07 315.57C93.07 315.57 93.11 315.48 93.11 315.48L93.11 315.48C97.19 305.94 102.25 296.81 107.16 287.99 109.65 283.5 112.22 278.87 114.64 274.25 116.93 269.83 118.7 266.14 120.2 262.62 122.03 258.33 123.31 254.69 124.25 251.16 124.32 250.91 124.3 250.65 124.22 250.41 124.34 249.88 124.07 249.27 123.58 249 123.39 248.89 123.18 248.84 122.96 248.84 122.51 248.84 122.07 249.09 121.82 249.5" stroke-width="0" fill="#FBA92D"/><path d="M170.34 276.05C170.34 276.05 170.32 276.05 170.31 276.05 170.31 276.05 170.3 276.05 170.29 276.05 170.31 276.05 170.32 276.05 170.34 276.06" stroke-width="0" fill="#FE514A"/><path d="M214.27 283.03 214.27 283.03C213.02 283.25 211.99 283.35 211.01 283.36L210.78 283.36C210.78 283.36 210.55 283.36 210.55 283.36L210.32 283.36C210.28 283.51 210.27 283.63 210.27 283.76 210.27 284.61 210.33 285.46 210.39 286.31L210.39 286.52C210.39 286.52 210.54 288.54 210.54 288.54 210.61 289.71 210.69 290.88 210.78 292.05 210.81 292.45 210.85 292.84 210.89 293.23 210.94 293.76 210.99 294.29 211.02 294.82 211.09 295.74 211.13 296.67 211.17 297.6 211.25 299.45 211.29 301.31 211.32 303.17 211.4 307.9 211.37 312.72 211.34 317.37L211.34 318.08C211.32 320.57 211.3 323.05 211.3 325.54L211.3 329.55C211.3 343.04 211.29 356.97 210.82 370.67L210.91 370.2C210.56 378.46 210.14 385.88 209.58 392.9 209.01 400.11 208.17 407.64 207.08 415.27 204.94 430.33 202.42 442.33 199.15 453.05L199.33 452.7C195.84 463.74 191.68 473.11 186.57 481.33 184.69 484.29 182.67 487.11 180.6 489.68 178.58 492.19 176.3 494.64 173.64 497.18L174.06 496.87C168.79 501.76 163.02 505.97 156.89 509.36 151.2 512.42 145.3 514.7 139.35 516.14L139.57 516.14C139.57 516.14 139.84 516.1 139.84 516.1 134.82 517.21 129.86 517.79 125.1 517.79 124.57 517.79 124.04 517.79 123.51 517.76L123.28 517.76C121.54 517.67 120.12 517.55 118.8 517.4 117 517.19 115.18 516.86 113.8 516.6 110.42 515.96 106.88 515.07 103 513.87 93.32 510.81 83.34 506.11 73.34 499.9 68.46 496.84 63.55 493.38 58.75 489.61 58.61 489.5 58.43 489.44 58.25 489.44 58.01 489.44 57.8 489.54 57.65 489.72 57.52 489.89 57.46 490.1 57.48 490.31 57.5 490.51 57.6 490.69 57.75 490.81 70.01 500.42 81.59 507.61 93.15 512.79 99.73 515.73 106.36 517.99 112.87 519.48 116.07 520.22 119.24 520.72 122.28 520.95 123.69 521.05 125.13 521.1 126.56 521.1 128.19 521.1 129.85 521.04 131.49 520.91 137.36 520.46 143.42 519.13 149.5 516.95 155.15 514.92 160.74 512.09 166.12 508.52 171.18 505.17 175.93 501.1 180.23 496.43 184.16 492.16 187.8 487.09 191.34 480.93 197.25 470.64 201.75 458.8 205.48 443.66 206.92 437.79 208.23 431.37 209.48 424.05 210.68 416.95 211.68 409.87 212.46 403 214.01 389.21 214.87 374.14 215.16 355.57 215.29 347.3 215.29 339.26 215.27 331.81 215.26 327.86 215.24 323.89 215.2 319.94 215.17 316.08 215.2 312.22 215.24 308.36L215.27 305.14 215.3 301.92 215.22 300.52 215.22 300.28C215.01 296.72 214.81 293.05 214.9 289.44 214.85 288.6 214.8 287.75 214.76 286.92 214.62 285.63 214.47 284.35 214.31 283.06 214.31 283.06 214.27 283.03 214.27 283.03" stroke-width="0" fill="#BC7F22"/><path d="M154.27 272.52C154.27 272.52 154.25 272.52 154.24 272.53 154.18 272.61 154.14 272.69 154.1 272.77 153.31 274.06 152.7 275.48 152.21 276.62 151.86 277.42 151.52 278.23 151.18 279.04L150.4 280.91C149.22 283.67 148.01 286.42 146.78 289.16 144.55 294.1 142.17 299.08 139.87 303.89L139.13 305.43C136.56 310.82 133.94 316.18 131.32 321.55L130.53 323.16C128.08 328.19 125.63 333.21 123.21 338.25 116.91 351.35 112.24 361.59 108.08 371.44 107.16 373.62 106.25 375.81 105.36 378 105.17 377.75 104.93 377.52 104.69 377.29L103.37 376.07 102.73 375.48C101.23 374.09 100.1 372.99 99.08 371.91 96.58 369.27 94.51 366.76 92.76 364.23L92.66 364.09C91.34 362.11 90.12 360.01 89.04 357.87 88.92 357.63 88.67 357.48 88.4 357.48 88.29 357.48 88.18 357.51 88.09 357.56 87.75 357.73 87.61 358.16 87.78 358.51 89.68 362.34 91.92 366.77 94.63 370.87 96 372.94 97.48 374.84 99.03 376.51 99.74 377.27 100.55 378.04 101.6 378.94 102.48 379.68 103.38 380.3 104.29 380.78 103.3 383.2 102.31 385.74 101.35 388.32 99.36 393.63 97.53 399.04 95.91 404.41 89.42 425.74 86.76 444.88 87.78 462.92 87.79 463.16 88.03 463.33 88.24 463.33 88.52 463.3 88.71 463.1 88.69 462.82 88.55 460.35 88.5 457.74 88.55 455.07 88.68 448.56 89.38 441.79 90.7 434.38 91.83 427.98 93.43 421.2 95.6 413.65 97.11 408.49 98.84 403.14 100.91 397.3 103.01 391.41 105.36 385.5 107.16 381.01 111.24 370.88 115.99 359.94 121.68 347.56 127.1 335.8 132.65 324.31 137.36 314.63L138.14 313.04C140.51 308.16 142.92 303.22 145.4 298.41L146.78 295.74C148.93 291.62 151.36 286.95 153.46 282.28 154.17 280.7 154.76 279.29 155.27 277.98 155.53 277.31 155.76 276.63 155.97 275.94 156.27 274.97 156.45 274.21 156.57 273.49 156.21 273.22 155.84 273.09 155.49 272.96 155 272.79 154.64 272.66 154.28 272.53L154.27 272.53Z" stroke-width="0" fill="#BC7F22"/><path d="M191.3 112.97C191.21 112.97 191.12 113 191.05 113.04 190.82 113.17 190.74 113.46 190.87 113.73 191.66 115.34 192.44 117.08 193.34 119.19 195.23 123.68 196.88 128.21 198.25 132.65 200.03 138.43 201.2 143.53 201.84 148.24 202.31 151.94 202.36 154.95 202.01 157.77 201.8 159.24 201.48 160.49 201.03 161.59 200.72 162.27 200.37 162.88 199.94 163.46 199.54 163.96 199.11 164.39 198.63 164.78 198.19 165.1 197.71 165.38 197.21 165.61 196.52 165.87 195.8 166.06 195.06 166.18L194.86 166.24 194.88 166.24C194.42 166.25 193.86 166.28 193.3 166.28 192.37 166.28 191.34 166.21 190.08 166.04 189.35 166.04 188.87 166.47 188.74 166.6 188.38 166.95 188.18 167.44 188.18 167.94 188.18 168.44 188.39 168.94 188.74 169.29L188.88 169.4 189.11 169.59C189.42 169.77 189.74 169.85 190.08 169.85 190.95 169.96 191.92 170.02 192.94 170.02L193.42 170.02C194.25 170 195.04 169.89 195.57 169.81 196.64 169.65 197.7 169.31 198.79 168.77 200.58 167.88 202.08 166.36 203.01 164.48 203.89 162.7 204.43 160.61 204.66 158.07 204.89 155.39 204.61 152.7 204.33 150.65 203.48 144.33 201.63 138.32 200.1 133.79 198.52 129.08 196.64 124.23 194.33 118.94 193.4 116.8 192.58 115 191.72 113.26 191.65 113.11 191.48 113.01 191.29 113.01" stroke-width="0" fill="#DA8C67"/><path d="M166.48 175.36C166.48 175.36 166.48 175.36 166.48 175.36L166.48 175.36C165.77 178.95 165.58 182.39 165.92 185.62 166.3 189.24 167.29 192.4 168.86 195 169.66 196.34 170.7 197.59 171.87 198.63 172.46 199.15 173.1 199.62 173.77 200.04 174.55 200.54 175.39 200.92 176.13 201.23 177.62 201.86 179.37 202.25 181.46 202.42 181.94 202.47 182.43 202.49 182.92 202.49 184.45 202.49 185.99 202.28 187.52 201.88 191.98 200.71 195.19 197.8 197.09 195.58 198.31 194.16 199.44 192.5 200.43 190.65 200.85 189.86 201.25 189.02 201.68 187.98 202 187.2 202.45 186.12 202.75 185.01 202.78 184.9 202.8 184.78 202.8 184.66 200.48 184.48 198.22 184.25 196.06 183.95 192.3 183.45 188.56 182.76 184.94 181.9 180.83 180.9 177.16 179.79 173.72 178.51 171.12 177.53 168.77 176.5 166.53 175.38 166.53 175.38 166.52 175.38 166.51 175.38" stroke-width="0" fill="#021621"/><path d="M167.53 187.21C167.06 187.21 166.59 187.23 166.11 187.26 166.59 190.2 167.5 192.79 168.84 194.99 169.64 196.33 170.67 197.58 171.85 198.62 172.44 199.14 173.08 199.62 173.74 200.04 174.52 200.54 175.37 200.92 176.1 201.23 177.59 201.85 179.34 202.25 181.43 202.42 181.91 202.47 182.4 202.49 182.88 202.49 184.4 202.49 185.95 202.28 187.47 201.88 189.07 201.46 190.51 200.82 191.78 200.06 189.91 197.81 187.74 195.83 185.4 194.06 185.43 194.08 185.46 194.11 185.49 194.13 182.73 192.08 179.75 190.36 176.55 189.09 176.58 189.1 176.62 189.12 176.66 189.13 175.54 188.7 174.41 188.31 173.24 188.01 172.14 187.72 171.04 187.51 169.92 187.37L169.9 187.37C169.9 187.37 169.86 187.37 169.85 187.37L169.86 187.37C169.86 187.37 169.83 187.37 169.82 187.37 169.82 187.37 169.83 187.37 169.85 187.37 169.12 187.29 168.37 187.23 167.63 187.23L167.51 187.23Z" stroke-width="0" fill="#F68677"/><path d="M158.84 132.97 158.67 132.97C157.36 133.06 156.21 134.2 155.43 136.17 154.65 138.15 154.32 140.71 154.5 143.39 154.88 148.86 157.24 153.15 159.88 153.15 160.69 153.1 161.42 152.69 162.08 151.95 163.67 150.14 164.49 146.61 164.23 142.74 163.85 137.27 161.49 132.98 158.85 132.98" stroke-width="0" fill="#021621"/><path d="M224.7 126.78 224.55 126.78C223.86 126.83 223.21 127.19 222.63 127.85 221.17 129.53 220.39 132.95 220.63 136.56 220.98 141.69 223.2 145.71 225.68 145.71 226.49 145.67 227.15 145.33 227.75 144.65 229.21 142.98 229.99 139.56 229.75 135.94 229.39 130.81 227.17 126.79 224.7 126.79" stroke-width="0" fill="#021621"/><path d="M157.02 101.34C153.49 101.34 149.37 101.77 145.41 102.56 140.96 103.44 137.13 104.68 134.62 106.04 132.11 107.4 131.22 108.73 132.14 109.77 133.15 110.92 136.24 111.57 140.63 111.57 144.17 111.57 148.29 111.14 152.23 110.35 161.42 108.52 167.37 105.28 165.49 103.13 164.49 101.98 161.4 101.33 157.01 101.33" stroke-width="0" fill="#7C2213"/><path d="M216.82 100.27C211.46 100.27 207.68 101.1 206.96 102.42 206.44 103.37 207.54 104.47 210.06 105.5 212.58 106.53 216.2 107.37 220.27 107.87 222.72 108.17 225.25 108.34 227.59 108.34 232.96 108.34 236.75 107.51 237.47 106.19 237.99 105.24 236.88 104.14 234.36 103.11 231.84 102.08 228.22 101.24 224.15 100.74 221.68 100.43 219.14 100.27 216.81 100.27" stroke-width="0" fill="#7C2213"/><path d="M66.26 84.23C77.39 98.91 85.65 115.75 90.44 133.54 89.42 118.49 98.57 104.03 111.01 95.49 123.45 86.95 138.7 83.5 153.72 82.04 156.04 81.81 158.45 81.6 160.45 80.42 162.45 79.24 163.9 76.74 163.1 74.56 164.8 78.46 166.51 82.35 168.21 86.25 195.12 81.94 222.67 81.6 249.68 85.23 251.46 72.9 251.04 60.26 248.45 48.07 245.03 31.96 222.16 26.36 206.52 21.21 190.88 16.06 174.37 14.13 157.94 12.96 144.28 11.98 130.13 11.57 117.34 16.49 104.55 21.41 93.4 32.96 92.98 46.65" stroke-width="0" fill="#7C2213"/></svg>