<svg viewBox="0 0 507.41 655.02" xmlns="http://www.w3.org/2000/svg" xmlns:xlink="http://www.w3.org/1999/xlink" id="Layer_1" overflow="hidden"><defs></defs><path d="M296.76 556.16C289.4 556.16 282.13 556.32 275.16 556.64 247.49 557.91 223.24 561.74 201.02 568.34 201.92 565.34 202.78 562.31 203.62 559.27 203.71 558.94 203.67 558.59 203.5 558.29 203.33 557.99 203.05 557.77 202.72 557.68 202.62 557.65 202.51 557.63 202.38 557.63 201.8 557.63 201.29 558.02 201.13 558.58 199.42 564.78 197.56 571.05 195.76 577.11 191.71 590.76 187.53 604.88 184.75 619.1 182.9 628.59 181.78 637.8 181.42 646.46 181.37 646.57 181.33 646.68 181.31 646.8 181.19 647.5 181.66 648.17 182.36 648.3 204.33 652.18 228.45 653.99 258.28 653.99 265.24 653.99 272.74 653.89 281.19 653.7 290.9 653.48 300.77 653.14 310.31 652.8 317.11 652.56 323.92 652.33 330.73 652.13 348.22 651.63 366.29 651.48 382.24 651.35L385.18 651.33C393.98 651.26 402.79 651.19 411.59 651.07 416.57 651 421.55 650.92 426.52 650.82L427.8 650.79C432.27 650.7 436.89 650.61 441.44 650.4 441.75 650.39 442.05 650.24 442.27 649.98 442.51 649.7 442.63 649.33 442.6 648.99 442.54 648.32 441.97 647.83 441.26 647.83 441.23 647.71 441.21 647.56 441.16 647.42 438.27 639.2 435.67 630.74 433.14 622.56 429.91 612.09 426.58 601.26 422.62 590.84 419.17 581.72 415.62 573.94 411.77 567.04 411.55 566.65 411.12 566.4 410.65 566.4 410.43 566.4 410.21 566.46 410.01 566.58 409.4 566.94 409.2 567.72 409.55 568.35 410.21 569.55 410.86 570.75 411.49 571.96 408.88 569.89 405.83 568.13 402.44 566.7 398.18 564.91 393.29 563.58 387.05 562.53 382.29 561.73 377.4 561.22 372.68 560.73L371.08 560.56C364.63 559.88 358.33 559.27 352.35 558.76 331.95 557.01 313.77 556.16 296.75 556.16" stroke-width="0" fill="#021621"/><path d="M264.16 620.6C264.03 620.81 264.12 621.06 264.32 621.19 266.27 622.53 268.29 623.76 270.35 624.93 272.13 625.95 273.95 626.9 275.76 627.88 277.36 628.75 278.97 629.6 280.55 630.5 281.97 631.3 283.38 632.13 284.69 633.11 286.1 634.23 287.4 635.49 288.52 636.9 289.5 638.23 290.31 639.65 290.98 641.16 292.55 644.96 293.31 649.05 293.98 653.09 294.11 653.54 294.33 653.92 294.65 654.25 295.14 654.73 295.81 655.01 296.5 655.01 297.19 655.01 297.86 654.73 298.35 654.25 298.8 653.8 299.18 653.05 299.11 652.4 298.89 650.13 298.55 647.87 298.01 645.65 297.55 643.8 296.9 642.02 296.14 640.27 295 637.64 293.31 635.19 291.18 633.26 289.25 631.52 286.99 630.33 284.62 629.31 282.1 628.23 279.5 627.39 276.91 626.47 275.76 626.06 274.62 625.64 273.49 625.17 270.43 623.87 267.51 622.31 264.75 620.44 264.69 620.4 264.61 620.38 264.54 620.38 264.39 620.38 264.23 620.47 264.15 620.6M284.53 632.99C284.53 632.99 284.61 633.05 284.64 633.08 284.6 633.05 284.56 633.02 284.53 632.99" stroke-width="0" fill="#04293E"/><path d="M266.18 0C262.89 0 259.5 0.3 256.09 0.89 250.07 1.93 244.08 4.19 238.28 7.62 233.1 10.68 228.22 14.71 223.78 19.6 219.6 24.18 215.96 29.49 212.95 35.37 210.05 41.04 207.92 47.1 206.62 53.38 205.33 59.63 204.99 65.92 205.61 72.08 206.14 77.34 207.44 82.42 209.45 87.19 210.46 89.58 211.69 91.95 213.11 94.22 214.25 96.05 215.58 97.86 217.16 99.74 217.02 102.62 216.66 105.6 216.09 108.6 216.09 108.6 216.06 108.78 216.06 108.78 215.63 110.92 215.1 113.05 214.5 115.11 214.43 115.21 214.37 115.33 214.33 115.48 214.24 115.88 214.13 116.28 214.02 116.68 213.94 116.94 213.85 117.21 213.77 117.46 213.75 117.53 213.74 117.59 213.72 117.66 213.4 118.66 212.99 119.7 212.52 120.73 211.26 123.31 209.6 125.83 207.42 128.44 203.79 132.7 199.51 136.43 195.38 140.05 193.64 141.57 191.9 143.09 190.2 144.65 186.89 147.69 184.41 150.36 182.37 153.03 179.91 156.27 177.82 160 176.18 164.13 173.01 172.06 172.09 180.91 173.57 189.05 174.33 193.21 175.77 197.21 177.87 200.93 180 204.71 182.93 208.28 186.35 211.24 189.41 213.89 192.66 215.88 196 217.15L195.73 217.57C194.06 220.42 192.56 223.59 191.26 226.99 188.74 233.6 187.28 240.58 186.91 247.76 186.54 255.09 187.43 262.04 189.55 268.43 191.8 275.19 195.53 281.19 200.33 285.78 201.49 286.89 202.74 287.94 204.05 288.92 204.14 289.16 204.29 289.35 204.5 289.48 213.49 295.28 223.35 300.13 233.8 303.9 243.28 307.31 253.44 309.9 264.84 311.83 286.68 315.53 308.91 315.9 329.8 315.96L334.69 315.96C334.69 315.96 341.36 315.96 341.36 315.96L348.5 315.96C362.58 315.96 378.94 316.06 394.84 317.38 398.26 317.66 401.66 318.01 404.95 318.4L404.97 318.4C405.58 318.4 406.05 318.09 406.25 317.62 407.78 317.7 409.33 317.74 410.87 317.74 413.79 317.74 416.71 317.61 419.52 317.34 424.48 316.87 429.59 315.87 434.69 314.37 441.97 312.23 448.78 309.13 454.92 305.15 457.9 303.22 460.77 301.05 463.43 298.72 465.94 296.51 468.4 294 470.75 291.26 475.08 286.21 478.76 280.4 481.68 273.99 484.44 267.95 486.4 261.35 487.51 254.38 488.57 247.7 488.71 240.7 487.93 233.57 486.96 224.75 484.46 216.08 480.51 207.8 480.59 207.79 480.68 207.75 480.77 207.71 482.45 206.98 484.1 206.08 485.68 205.04 487.58 203.78 489.26 202.27 490.79 200.82 496.74 195.19 501.38 188.52 504.19 181.54 506.85 174.96 507.88 167.83 507.16 160.92 506.46 154.12 503.92 147.23 499.82 140.98 497.71 137.78 495.05 134.62 491.91 131.59 490.25 129.99 488.5 128.55 486.86 127.23 485.01 125.74 483.16 124.24 481.33 122.72 473.59 116.29 468.07 110.92 463.44 105.29L463.23 105.04C461.2 102.51 459.31 99.86 457.65 97.22 455.86 94.38 454.23 91.33 452.67 87.89L452.67 87.89C450.99 84.09 449.57 80.11 448.2 76.25L447.92 75.47 447.22 73.5C446.02 70.11 444.77 66.59 443.46 63.17 441.81 58.86 440.16 55.06 438.41 51.55 436.47 47.63 434.21 43.91 431.71 40.48 430.56 38.91 429.28 37.32 427.78 35.63 426.43 34.11 424.92 32.58 422.85 30.65 419.82 27.82 416.44 25.1 412.81 22.57 405.44 17.44 397.54 13.89 389.36 12.02 386.96 11.47 384.38 11.09 381.47 10.85 380.16 10.74 378.82 10.69 377.38 10.69 375.73 10.69 373.96 10.76 371.96 10.9 367 11.26 362 12.09 357.17 12.9 355.99 13.1 354.82 13.29 353.64 13.48 350.39 14 346.11 14.63 341.79 14.92 340.39 15.02 338.94 15.07 337.51 15.07 335.41 15.07 333.24 14.97 331.07 14.76 331.07 14.76 331.07 14.76 331.05 14.76 331.03 14.76 331 14.76 331 14.76 331 14.76 330.96 14.76 330.93 14.76L330.9 14.76C320.86 13.67 311.16 10.55 301.78 7.54 295.12 5.4 288.25 3.19 281.3 1.72 277.11 0.84 272.92 0.29 268.85 0.08 267.95 0.03 267.06 0.01 266.16 0.01" stroke-width="0" fill="#021621"/><path d="M224.98 94.95C224.37 94.95 223.74 95 223.09 95.1 221.22 95.39 219.33 96.25 217.31 97.71 215.76 98.83 214.24 100.4 212.79 102.38 210.45 105.57 208.89 109.46 208.01 114.28 207.26 118.39 207.22 122.83 207.91 127.11 209.37 136.13 214 143.52 220.6 147.38 220.87 147.54 221.17 147.62 221.46 147.62 221.92 147.62 222.31 147.41 222.58 147.03 222.83 146.7 222.91 146.2 222.78 145.77 223.22 145.64 223.65 145.46 224.04 145.27 224.97 144.85 225.94 144.25 226.99 143.44 227.64 142.94 228.29 142.33 229.05 141.52 230 140.51 230.81 139.53 231.54 138.55 232.76 136.9 233.89 134.95 235.1 132.41 236.01 130.52 236.76 128.5 237.4 126.25 238.05 123.99 238.53 121.65 238.85 119.28 239.13 117.19 239.2 114.97 239.07 112.51 239.03 111.61 238.92 110.68 238.74 109.66 238.53 108.47 238.15 107.3 237.82 106.3 237.26 104.58 236.36 102.82 235.08 100.94 234.37 99.89 233.5 98.91 232.41 97.93 231.56 97.17 230.58 96.52 229.32 95.89 228.07 95.27 226.57 94.94 224.99 94.94" stroke-width="0" fill="#CB5C37"/><path d="M219.46 101.64C219.42 101.85 219.57 102.1 219.8 102.13 220.28 102.19 220.76 102.28 221.23 102.42 221.91 102.64 222.54 102.95 223.14 103.33 223.82 103.79 224.44 104.32 225 104.92 225.74 105.75 226.36 106.66 226.91 107.63 226.91 107.62 226.9 107.61 226.89 107.6 227.97 109.66 228.74 111.9 229.28 114.16 229.46 114.97 229.6 115.8 229.71 116.63 229.76 117.02 229.92 117.38 230.23 117.63 230.53 117.87 230.92 118 231.31 117.97 232.1 117.9 232.75 117.17 232.65 116.37 232.25 112.78 230.8 109.3 228.54 106.48 227.46 105.13 226.19 103.93 224.74 102.99 223.31 102.07 221.66 101.48 219.97 101.28 219.95 101.28 219.93 101.28 219.91 101.28 219.7 101.28 219.52 101.41 219.48 101.63M223.18 103.34C223.18 103.34 223.21 103.36 223.23 103.37 223.21 103.37 223.2 103.35 223.18 103.34M224.91 104.8C224.91 104.8 224.94 104.83 224.95 104.84 224.94 104.83 224.92 104.81 224.91 104.8" stroke-width="0" fill="#AB4124"/><path d="M279.31 30.25C274.7 30.38 270.21 30.84 265.98 31.63 261.69 32.43 257.55 33.67 253.68 35.31L253.41 35.43 252.53 35.82C252.07 36.03 251.81 36.57 251.88 37.13 250.54 39.09 249.26 41.2 248.08 43.38 246.93 45.51 245.85 47.85 244.86 50.3 243.22 54.38 241.82 58.89 240.45 64.49 239.51 68.37 238.71 72.36 237.93 76.21 236.74 82.12 235.5 88.22 233.76 94.1 233.61 94.59 233.46 95.09 233.31 95.58L233.31 95.58C231.59 100.94 229.46 106.22 227.4 111.32 225.7 115.53 223.94 119.89 222.43 124.25 220.53 129.73 219.25 134.62 218.51 139.22 217.84 143.39 217.59 147.93 217.75 152.72 218.02 160.69 219.62 168.46 222.52 175.83 225.3 182.91 229.25 189.4 234.26 195.1 236.77 197.96 239.5 200.58 242.4 202.92 245.27 205.23 248.45 207.37 251.88 209.25 257.58 212.41 263.88 214.72 270.59 216.12 270.48 216.82 270.39 217.53 270.28 218.23L270.34 218.07C269.22 225.41 267.5 231.73 265.08 237.4 263.34 241.35 261.25 244.86 258.89 247.84 258.89 247.84 258.82 247.94 258.81 247.97 258.81 247.96 258.85 247.89 258.85 247.89 256.94 250.22 254.82 252.24 252.56 253.92 250.6 255.32 248.48 256.51 246.26 257.45 245.61 257.87 244.96 258.28 244.3 258.69 243.48 259.2 242.66 259.72 241.83 260.22 241.83 260.22 241.83 260.23 241.83 260.24 241.92 260.57 242.14 260.87 242.44 261.04 241.76 263.73 241.46 266.37 241.56 268.86 241.66 271.33 242.12 273.72 242.96 275.96 244.54 280.22 247.38 284.09 251.42 287.46 255.14 290.56 259.7 293.18 265.35 295.47 270.25 297.47 275.64 299.03 281.82 300.26 287.37 301.35 293.07 302.04 298.77 302.31 300.43 302.4 302.07 302.44 303.66 302.44 307.06 302.44 310.36 302.25 313.46 301.87 315.51 301.63 317.34 301.29 319.06 300.84 322 300.08 325.06 299.04 328.68 297.58 336.29 294.5 342.85 290.57 348.18 285.91 352.63 282.04 358.22 275.66 359.6 267.26 359.67 266.9 359.67 266.6 359.49 266.28 359.34 266.01 359.1 265.81 358.81 265.7 358.88 265.49 358.88 265.27 358.82 265.05 358.75 264.77 358.54 264.41 358.24 264.27 355.4 262.94 352.8 261.35 350.52 259.56L350.35 259.45 350.35 259.45C348.16 257.62 346.22 255.58 344.6 253.38 343.07 251.25 341.77 248.89 340.74 246.36 339.57 243.4 338.75 240.13 338.31 236.64 337.8 232.2 337.91 227.4 338.63 222.37L338.58 222.52C339.54 216.4 341.36 210.23 344 204.18L344 204.18C345.42 200.99 347.04 197.91 348.82 195.04 350.26 195.31 351.6 195.48 352.91 195.58 353.87 195.66 354.84 195.69 355.81 195.69 357.41 195.69 359.04 195.58 360.63 195.38 364.51 194.88 368.58 193.76 372.72 192.05 376.47 190.51 379.96 188.55 383.08 186.25 386.4 183.8 389.17 181.01 391.29 177.97 393.59 174.7 395.1 171.13 395.79 167.35 396.51 163.42 396.25 159.42 395.02 155.77 393.91 152.47 391.9 149.5 389.19 147.17 386.65 144.98 383.46 143.47 379.97 142.82 378.77 142.59 377.54 142.48 376.32 142.48 374.02 142.48 371.69 142.87 369.38 143.62 372.49 135.88 374.54 127.16 375.48 117.74 376.44 108.36 376.2 98.42 374.78 88.18 374.41 85.56 374.06 83.55 373.64 81.68 373.22 79.81 372.67 77.87 372.01 75.94 370.76 72.28 369.14 68.78 367.18 65.53 365.31 62.44 363.05 59.45 360.46 56.66 358.08 54.11 355.26 51.62 352.08 49.27 346.3 45.02 339.37 41.51 331.47 38.82 327.41 37.44 323.23 36.33 319.67 35.44 315.32 34.34 310.96 33.39 306.72 32.63 297.83 31.03 289.79 30.24 282.16 30.24 281.2 30.24 280.25 30.25 279.29 30.28" stroke-width="0" fill="#DB633C"/><path d="M279.31 30.21C274.7 30.34 270.21 30.8 265.98 31.59 261.67 32.41 257.53 33.65 253.67 35.28L253.4 35.4 252.53 35.78C252.06 35.99 251.78 36.55 251.86 37.12 250.53 39.07 249.26 41.17 248.07 43.36 246.91 45.51 245.83 47.84 244.85 50.28 243.2 54.36 241.81 58.87 240.44 64.47 239.81 67.06 239.24 69.68 238.71 72.27 239.31 71.68 239.92 71.11 240.54 70.56 243.34 68.04 246.34 65.75 249.46 63.64 252.57 61.55 255.79 59.62 259.1 57.86 262.18 56.23 265.33 54.72 268.56 53.39 268.61 53.37 268.66 53.36 268.71 53.36L268.73 53.36C268.73 53.36 268.81 53.3 268.85 53.29 268.9 53.27 268.95 53.26 269.01 53.26 269.06 53.26 269.12 53.27 269.17 53.29 269.26 53.33 269.38 53.42 269.4 53.53 270.24 56.79 271.27 60.01 272.53 63.13 273.77 66.22 275.2 69.24 276.81 72.15 278.68 75.51 280.77 78.75 283.08 81.82 285.42 84.94 287.96 87.89 290.67 90.69L290.59 90.61C293.82 93.93 297.28 97.02 300.93 99.85 304.57 102.67 308.38 105.25 312.34 107.58L312.24 107.52C320.97 112.65 330.37 116.59 340.13 119.27 340.1 119.26 340.06 119.25 340.02 119.24 349.16 121.73 358.6 123.11 368.08 123.19L367.97 123.19C370.28 123.21 372.59 123.15 374.89 123.01 375.15 121.28 375.37 119.51 375.55 117.72 376.51 108.36 376.27 98.41 374.85 88.16 374.48 85.51 374.13 83.51 373.71 81.65 373.27 79.72 372.71 77.79 372.07 75.91 370.81 72.22 369.18 68.71 367.23 65.5 365.37 62.41 363.1 59.42 360.5 56.62 358.09 54.04 355.28 51.55 352.13 49.23 346.33 44.97 339.38 41.46 331.5 38.78 327.45 37.4 323.27 36.29 319.71 35.4 315.36 34.3 311 33.35 306.75 32.58 297.8 30.98 289.77 30.19 282.18 30.19 281.22 30.19 280.27 30.2 279.31 30.23" stroke-width="0" fill="#CB5C37"/><path d="M314.77 212.56C310.13 214.08 305.35 215.18 300.5 215.77 297.96 216.08 295.4 216.24 292.84 216.38 290.19 216.52 287.55 216.62 284.9 216.66 282.24 216.69 279.56 216.66 276.89 216.51 275.73 216.45 274.57 216.36 273.4 216.26 272.81 216.26 272.21 216.26 271.62 216.23 271.28 216.22 270.94 216.2 270.59 216.18L270.41 217.18 270.26 218.24 270.35 218.12C269.84 221.34 269.23 224.36 268.5 227.2 269.79 227.43 271.08 227.6 272.39 227.73 272.35 227.73 272.31 227.73 272.27 227.72 278.09 228.26 283.96 227.86 289.7 226.85 289.67 226.85 289.63 226.86 289.59 226.87 296.31 225.67 302.89 223.61 309.08 220.73 313.68 218.55 318.08 215.91 321.98 212.64 321.95 212.66 321.93 212.69 321.89 212.71 323.86 211.05 325.69 209.23 327.31 207.22 323.27 209.32 319.08 211.15 314.76 212.58M309.14 220.7 309.1 220.72 309.14 220.7Z" stroke-width="0" fill="#C94E2B"/><path d="M368.09 153.35C367.72 153.43 367.39 153.66 367.19 153.98 367 154.28 366.87 154.74 366.99 155.09 367.46 156.46 367.76 157.87 367.92 159.31 367.92 159.29 367.92 159.28 367.92 159.26 367.92 159.28 367.92 159.29 367.92 159.31 367.93 159.41 367.94 159.5 367.95 159.6 367.94 159.52 367.93 159.43 367.92 159.35 368.07 161.22 367.96 163.1 367.64 164.95 367.23 167.09 366.56 169.16 365.66 171.14 364.64 173.26 363.37 175.25 361.87 177.05 360.66 178.47 359.31 179.75 357.83 180.89 357.59 181.07 357.61 181.45 357.8 181.65 358.01 181.88 358.33 181.86 358.56 181.68 360.57 180.15 362.39 178.4 364.01 176.46 365.72 174.42 367.13 172.17 368.25 169.76 369.33 167.43 370.02 164.94 370.34 162.4 370.67 159.74 370.45 157.04 369.83 154.44 369.67 153.77 369.07 153.31 368.41 153.31 368.31 153.31 368.2 153.32 368.09 153.35M367.92 159.35C367.92 159.35 367.92 159.32 367.92 159.31L367.92 159.31C367.92 159.31 367.92 159.34 367.92 159.35" stroke-width="0" fill="#C94E2B"/><path d="M375.99 149.86C374.88 149.91 373.76 150.12 372.69 150.4 371.67 150.67 370.7 151.11 369.78 151.62 369.34 151.86 368.93 152.15 368.54 152.46 368.31 152.65 368.09 152.84 367.88 153.04 367.77 153.16 367.66 153.28 367.57 153.42 367.44 153.56 367.36 153.72 367.31 153.89 367.22 154.05 367.18 154.24 367.19 154.42 367.2 154.61 367.26 154.79 367.36 154.96 367.56 155.27 367.93 155.47 368.3 155.45 368.65 155.43 368.96 155.36 369.28 155.24 369.67 155.09 370.03 154.9 370.4 154.73 371.15 154.38 371.91 154.06 372.69 153.76 374.06 153.24 375.46 152.84 376.9 152.57 376.88 152.57 376.85 152.57 376.83 152.58 377.56 152.45 378.3 152.37 379.03 152.31 379.69 152.27 380.35 152.29 381.01 152.34 381.65 152.4 382.3 152.48 382.94 152.61 383.58 152.74 384.21 152.94 384.83 153.16 384.78 153.15 384.72 153.13 384.67 153.11 385.82 153.53 386.92 154.04 387.96 154.71 388.36 155 388.75 155.29 389.13 155.62 389.31 155.77 389.58 155.77 389.74 155.59 389.89 155.42 389.88 155.14 389.71 154.99 388.23 153.7 386.62 152.55 384.84 151.71 383.96 151.3 383.04 150.97 382.11 150.67 381.11 150.34 380.04 150.15 379 150 378.22 149.89 377.42 149.84 376.63 149.84 376.41 149.84 376.2 149.84 375.98 149.85M388 154.74C388 154.74 388.02 154.75 388.03 154.76 388.02 154.76 388.01 154.75 388 154.74" stroke-width="0" fill="#C94E2B"/><path d="M249.81 255.77C249.58 255.77 249.35 255.84 249.13 255.96 247.22 257.12 245.14 258.22 242.78 259.3L242.78 259.3C242.78 259.3 242.69 259.34 242.69 259.34L242.79 259.31 242.79 259.29C242.79 259.29 243.02 259.22 243.02 259.22 238.01 261.46 232.74 263.25 227.64 264.98 223.8 266.28 219.83 267.63 216.01 269.17 214.42 269.81 212.85 270.47 211.28 271.13L209.57 271.85C207.38 272.76 205.21 273.67 203.04 274.6 197.9 276.8 193.74 278.69 189.94 280.55 185.32 282.8 181.21 285.04 177.38 287.4 173.29 289.92 169.43 292.71 165.89 295.69 162.69 298.38 159.71 301.4 157.03 304.67 154.14 308.19 151.74 311.85 149.92 315.54 147.9 319.61 146.68 323.63 146.28 327.49 146.06 329.58 146.09 331.63 146.37 333.59 146.66 335.66 147.24 337.67 148.07 339.56 149.48 342.74 151.68 345.74 154.43 348.24 156.25 349.89 158.25 351.17 160.36 352.04 162.41 352.88 164.62 353.36 166.94 353.46 167.23 353.47 167.52 353.48 167.81 353.48 169.63 353.48 171.53 353.23 173.64 352.71 175.78 352.18 177.97 351.36 180.52 350.12 182.69 349.07 184.92 347.75 187.33 346.11 191.71 343.11 196.02 339.46 200.9 334.62 204.96 330.59 209.04 326.05 213.38 320.74 216.91 316.42 220.48 311.71 223.98 306.76 226.8 302.79 229.47 298.8 231.92 294.92 232.74 293.62 233.55 292.3 234.34 290.97 235.81 288.49 237.43 286.06 239 283.7L240.54 281.37C242.65 278.17 245.07 274.36 247.01 270.35 247.93 268.46 248.7 266.53 249.32 264.6 249.93 262.68 250.34 260.65 250.51 258.6 250.52 258.46 250.49 258.31 250.43 258.16 250.79 257.96 250.99 257.68 251.07 257.35 251.15 257.01 251.1 256.65 250.91 256.36 250.67 255.98 250.26 255.75 249.81 255.75" stroke-width="0" fill="#2FC3B0"/><path d="M247.45 256.81C245.96 257.54 244.48 258.28 243 259.04 242.73 259.18 242.53 259.55 242.47 259.84 242.4 260.18 242.47 260.53 242.67 260.82 242.86 261.09 243.14 261.28 243.47 261.35 243.84 261.42 244.12 261.32 244.44 261.15L245.04 260.85C244.94 260.9 244.84 260.95 244.74 261 245.92 260.4 247.11 259.81 248.31 259.23 248.62 259.08 248.87 258.91 249.03 258.59 249.18 258.28 249.2 257.92 249.09 257.6 248.98 257.29 248.75 257.02 248.45 256.88 248.28 256.8 248.06 256.74 247.84 256.74 247.7 256.74 247.57 256.76 247.46 256.82" stroke-width="0" fill="#FBA92D"/><path d="M247.35 256.79C246.23 257.44 245.1 258.04 243.95 258.62 243.96 258.62 243.98 258.61 243.99 258.6 243.6 258.8 243.2 259 242.81 259.2 242.5 259.35 242.25 259.51 242.09 259.84 241.94 260.15 241.91 260.51 242.03 260.83 242.14 261.14 242.37 261.4 242.66 261.55 242.95 261.7 243.36 261.76 243.65 261.61 245.39 260.74 247.12 259.88 248.79 258.9 249.39 258.55 249.5 257.67 249.13 257.13 248.88 256.76 248.5 256.59 248.1 256.59 247.85 256.59 247.59 256.66 247.36 256.8" stroke-width="0" fill="#FBA92D"/><path d="M247.71 256.75C244.26 258.17 240.94 259.87 237.64 261.61 237.36 261.76 237.17 262.12 237.11 262.41 237.04 262.74 237.11 263.1 237.31 263.38 237.5 263.65 237.78 263.85 238.11 263.91 238.48 263.98 238.77 263.88 239.08 263.72 240.21 263.12 241.35 262.53 242.48 261.95 242.38 262 242.28 262.05 242.19 262.1 244.28 261.04 246.4 260.05 248.56 259.16 249.2 258.89 249.58 258.21 249.34 257.53 249.17 257.03 248.65 256.67 248.12 256.67 247.98 256.67 247.84 256.7 247.71 256.75" stroke-width="0" fill="#FBA92D"/><path d="M246.28 257.46C242.25 258.85 238.55 261.01 234.64 262.7 234.01 262.97 233.62 263.64 233.86 264.33 234.08 264.95 234.85 265.38 235.49 265.11 239.4 263.42 243.09 261.26 247.13 259.87 247.78 259.64 248.13 258.89 247.91 258.24 247.73 257.72 247.22 257.39 246.7 257.39 246.56 257.39 246.42 257.41 246.29 257.46" stroke-width="0" fill="#FBA92D"/><path d="M243.73 258.77C240.03 260.56 236.26 262.19 232.39 263.57 231.74 263.81 231.38 264.54 231.61 265.2 231.84 265.85 232.58 266.22 233.24 265.98 237.11 264.59 240.88 262.96 244.57 261.18 244.89 261.03 245.13 260.86 245.29 260.54 245.44 260.23 245.46 259.87 245.35 259.55 245.24 259.24 245 258.97 244.71 258.83 244.54 258.75 244.32 258.69 244.11 258.69 243.97 258.69 243.84 258.71 243.72 258.77" stroke-width="0" fill="#FBA92D"/><path d="M245.26 258.38C240.22 260.23 235.3 262.4 230.27 264.3 229.62 264.55 229.26 265.26 229.49 265.93 229.72 266.57 230.47 266.95 231.12 266.71 236.15 264.81 241.07 262.64 246.11 260.79 246.76 260.55 247.12 259.83 246.89 259.16 246.71 258.65 246.21 258.31 245.68 258.31 245.54 258.31 245.4 258.33 245.26 258.38" stroke-width="0" fill="#FBA92D"/><path d="M243.63 259.02C238.83 260.69 234.23 262.91 229.41 264.51 228.74 264.73 228.4 265.49 228.63 266.14 228.86 266.8 229.6 267.14 230.26 266.92 235.09 265.31 239.68 263.1 244.49 261.43 245.15 261.2 245.5 260.45 245.27 259.8 245.09 259.28 244.58 258.95 244.05 258.95 243.91 258.95 243.77 258.97 243.64 259.02" stroke-width="0" fill="#FBA92D"/><path d="M243.76 258.74C239.4 260.62 234.95 262.28 230.5 263.93 229.85 264.17 229.49 264.89 229.72 265.56 229.95 266.2 230.7 266.58 231.35 266.34 235.8 264.69 240.25 263.03 244.6 261.15 245.24 260.88 245.62 260.21 245.38 259.52 245.2 259.03 244.69 258.66 244.16 258.66 244.02 258.66 243.88 258.69 243.75 258.74" stroke-width="0" fill="#FBA92D"/><path d="M244.33 258.36C239.01 260.21 233.98 262.79 228.71 264.75 228.06 264.99 227.69 265.71 227.93 266.38 228.16 267.03 228.91 267.4 229.56 267.16 234.84 265.19 239.87 262.61 245.19 260.77 245.85 260.54 246.2 259.8 245.97 259.14 245.79 258.62 245.28 258.29 244.75 258.29 244.61 258.29 244.47 258.31 244.34 258.36" stroke-width="0" fill="#FBA92D"/><path d="M241.78 259.81C236.26 261.94 230.5 263.49 225.19 266.15 224.88 266.31 224.63 266.46 224.47 266.79 224.32 267.09 224.3 267.46 224.41 267.78 224.52 268.09 224.75 268.35 225.05 268.5 225.32 268.63 225.75 268.7 226.04 268.56 231.35 265.9 237.1 264.35 242.62 262.21 243.27 261.96 243.64 261.25 243.4 260.58 243.22 260.08 242.71 259.73 242.19 259.73 242.05 259.73 241.91 259.75 241.78 259.81" stroke-width="0" fill="#186258"/><path d="M94.03 479.53 212.78 426.24C219.74 423.12 222.85 414.94 219.73 407.98L145.35 242.23C142.23 235.27 134.05 232.16 127.09 235.28L8.34 288.57C1.38 291.69-1.73 299.87 1.39 306.83L75.77 472.58C78.9 479.54 87.07 482.65 94.03 479.53" stroke-width="0" fill="#04293E"/><path d="M6.76 289.54 92.25 480.05C85.55 481.79 78.72 479.16 76.16 473.45L0.99 305.95C-1.57 300.25 1.01 293.39 6.76 289.54" stroke-width="0" fill="#021621"/><path d="M101.19 453.25 199.53 409.12C205.3 406.53 207.87 399.76 205.29 394L143.69 256.74C141.1 250.97 134.33 248.4 128.56 250.98L30.22 295.11C24.45 297.7 21.88 304.47 24.46 310.23L86.06 447.49C88.65 453.26 95.42 455.83 101.18 453.25" stroke-width="0" fill="#FFFFFF"/><path d="M164.7 436.85C165.25 439.66 163.42 442.39 160.6 442.94 157.79 443.49 155.06 441.66 154.51 438.84 153.96 436.03 155.79 433.3 158.61 432.75 161.42 432.2 164.15 434.03 164.7 436.85" stroke-width="0" fill="#2FC3B0"/><path d="M252.07 253.57 252.07 253.57C250.66 254.48 249.26 255.37 247.86 256.25L246.96 256.82C244.07 258.64 241.25 260.43 238.55 262.26 235.91 264.28 233.82 266.16 231.96 268.17 230.89 269.33 229.97 270.49 228.81 271.97 227.85 273.2 226.91 274.46 225.99 275.71 225.37 276.56 224.75 277.41 224.13 278.27L224.02 278.42 223.56 279.05C222.48 280.52 221.41 281.99 220.3 283.44 218.91 285.25 217.57 286.86 216.21 288.37 215.24 289.44 214.24 290.49 213.23 291.53L212.06 292.76C209.45 295.51 206.85 298.25 204.28 301.01 198.18 307.55 193.43 313 189.31 318.17 178.47 331.83 172 343.97 168.95 356.37 167.19 363.49 166.68 370.88 167.41 378.33 167.77 382.1 168.52 386.06 169.62 390.11 170.62 393.79 172.04 397.71 173.95 402.11 177.38 410.03 181.81 417.47 186.43 425.03L188.1 427.75 188.21 427.93C191.9 433.94 196.08 440.75 199.58 447.62 200.72 449.88 201.79 452.18 202.78 454.45 203.89 457.08 204.86 459.87 205.66 462.76 206.45 465.59 207.05 468.55 207.49 471.82L207.56 471.47C207.98 475.49 208.19 479.48 208.15 483.33 208.11 486.96 207.82 490.77 207.27 494.98L207.29 495.22C205.87 504.97 203.2 515.42 198.86 528.09 196.91 533.79 194.89 539.19 193 544.18L192.79 544.74C190.81 549.94 188.57 555.83 186.77 561.79L187.53 562.91C188.88 564.49 190.31 566.06 191.91 567.73 192.35 568.19 192.79 568.64 193.23 569.09 200.74 576.01 207.94 581.83 215.23 586.86 225.23 593.78 235.73 599.3 246.44 603.27 251.93 605.32 257.85 607.06 264.04 608.44 270.11 609.8 276.56 610.8 283.75 611.51 289.98 612.12 296.43 612.43 302.94 612.43 310.13 612.43 317.6 612.05 325.15 611.31 338.65 609.97 352.28 607.36 365.68 603.55 372.33 601.67 378.3 599.63 383.93 597.32 389.94 594.85 395.77 591.96 401.25 588.72 408.23 584.59 414.37 579.92 419.49 574.83 419.68 574.64 419.88 574.44 419.97 574.11 419.63 573.18 419.31 572.28 419.01 571.37 417.74 568.33 416.6 565.06 415.53 561.35L415.48 561.16C414.08 556.16 413.06 551.21 412.24 547.03 411.29 542.22 410.43 537.33 409.62 532.09 408.17 522.7 406.97 512.86 405.98 502.01 404.02 480.73 403.17 458.01 402.55 441.43L402.42 437.94C401.72 419.25 400.99 399.92 399.49 380.77 398.65 370.1 397.61 360.23 396.31 350.62 395 340.93 393.51 332.18 391.78 323.87 390.32 316.92 388.68 310.65 386.76 304.71 384.55 297.86 381.88 291.54 378.83 285.95 377.28 283.11 375.52 280.3 373.59 277.6 372.54 276.13 371.52 274.83 370.46 273.62 369.32 272.31 368.06 271.14 366.98 270.16 364.76 268.18 362.36 266.46 360.03 264.8L359.01 264.06C358.34 263.58 357.71 263.12 357.1 262.66 354.13 260.77 351.23 258.75 348.48 256.64 348.07 256.95 347.87 257.52 347.98 258 347.93 258.01 347.87 258.09 347.83 258.15L347.69 258.32C345.98 260.51 343.87 262.59 341.4 264.51 337.62 267.41 333.13 269.94 327.66 272.26L327.8 272.26C325.59 273.12 323.92 273.75 322.42 274.25 321.06 274.69 319.68 275.09 318.07 275.5 315.05 276.26 311.8 276.87 308.41 277.34 303.85 277.95 299.29 278.26 294.87 278.26 290.95 278.26 287.09 278.02 283.39 277.53 277.95 276.77 273.25 275.54 269 273.76L269.14 273.92C266.24 272.58 263.68 271.09 261.55 269.47 259.77 268.08 258.2 266.52 256.87 264.82 255.69 263.26 254.7 261.55 253.91 259.75 253.16 257.94 252.61 255.98 252.26 253.93 252.24 253.81 252.19 253.7 252.12 253.58 252.12 253.58 252.11 253.56 252.1 253.56" stroke-width="0" fill="#2FC3B0"/><path d="M203.35 301.51C197.91 309.43 191.28 316.42 185.23 323.85 182.19 327.58 179.31 331.45 176.77 335.54 174.02 339.98 171.71 344.69 169.9 349.6 168.12 354.45 166.93 359.51 166.27 364.64 165.63 369.68 165.65 374.79 166.16 379.84 166.7 385.02 167.88 390.11 169.56 395.04 171.23 399.98 173.41 404.74 175.79 409.39 178.12 413.91 180.69 418.3 183.32 422.65 185.96 427 188.66 431.32 191.28 435.68 193.93 440.08 196.49 444.53 198.81 449.12 199.99 451.45 201.08 453.81 202.09 456.21 203.1 458.6 203.96 461.06 204.86 463.49 204.93 463.68 205.01 463.88 205.08 464.08 205.19 464.29 205.33 464.46 205.52 464.59 205.82 464.79 206.19 464.86 206.54 464.79 207.26 464.64 207.69 463.93 207.57 463.21 207.13 460.61 206.24 458.11 205.25 455.68 204.27 453.27 203.1 450.94 201.9 448.64 200.69 446.33 199.43 444.06 198.17 441.79 196.93 439.56 195.66 437.36 194.36 435.18 191.76 430.8 189.08 426.48 186.46 422.11 183.85 417.74 181.32 413.34 178.99 408.81 176.59 404.15 174.46 399.35 172.73 394.4 172.75 394.46 172.77 394.52 172.79 394.58 170.69 388.44 169.24 382.07 168.73 375.59 168.74 375.72 168.75 375.84 168.76 375.97 168.35 370.41 168.66 364.84 169.7 359.36 170.91 353.32 172.99 347.5 175.71 341.98 175.67 342.07 175.62 342.17 175.58 342.26 179.25 334.88 184.04 328.14 189.1 321.66 194.16 315.16 199.38 308.79 204.05 302 204.27 301.68 203.97 301.34 203.67 301.34 203.55 301.34 203.43 301.39 203.34 301.52M169.71 359.37C169.69 359.48 169.67 359.58 169.65 359.7 169.67 359.59 169.69 359.48 169.71 359.37M172.73 394.41C172.73 394.41 172.7 394.34 172.69 394.3 172.7 394.34 172.71 394.37 172.73 394.41" stroke-width="0" fill="#186258"/><path d="M185.13 454.66C183.07 454.66 181.28 454.93 179.67 455.48 179.09 455.68 178.51 455.97 177.89 456.37 177.36 456.71 176.88 457.13 176.35 457.73 175.92 458.21 175.54 458.79 175.15 459.55 174.85 460.14 174.63 460.79 174.46 461.6 174.2 462.76 174.3 464.11 174.76 465.6 175.13 466.78 175.75 467.98 176.71 469.35 177.49 470.45 178.46 471.54 179.77 472.79 180.9 473.87 182.16 474.94 183.63 476.05 184.75 476.91 185.97 477.76 187.35 478.65 181.71 480.31 175.89 481.77 170.27 483.18 166.54 484.12 162.81 485.05 159.1 486.06 153.21 487.66 148.4 489.18 143.95 490.84 142.31 491.45 140.41 492.24 138.68 493.43 137.94 493.95 137.34 494.46 136.85 494.98 136.32 495.55 135.9 496.2 135.57 496.99 135.33 497.57 135.26 498.29 135.37 499.02 135.42 499.33 135.51 499.64 135.68 500.03 135.87 500.44 136.13 500.79 136.37 501.12 136.9 501.81 137.68 502.35 138.38 502.79 139.41 503.44 140.58 503.9 141.6 504.29 141.78 504.36 141.97 504.42 142.15 504.48 141.24 504.91 140.37 505.4 139.55 505.91 137.92 506.93 136.59 507.99 135.5 509.12 134.34 510.32 133.64 511.49 133.4 512.62 133.26 513.27 133.28 513.9 133.43 514.47 133.61 515.1 133.98 515.71 134.52 516.21 135.14 516.8 135.9 517.17 136.49 517.42 137.54 517.87 138.65 518.09 139.49 518.24 141.16 518.54 142.94 518.71 144.92 518.78 144.92 518.82 144.95 518.88 144.99 518.95 145.06 519.06 145.14 519.18 145.22 519.29 145.42 519.57 145.63 519.84 145.87 520.08 146.31 520.52 146.88 520.94 147.56 521.33 148.68 521.97 150.02 522.44 151.79 522.81 153.99 523.26 156.38 523.48 159.32 523.48 160.19 523.48 161.06 523.46 161.92 523.43 164.8 523.33 167.96 523.09 171.59 522.68 176.6 522.12 181.72 521.24 187.22 519.99 196.44 517.91 205.62 515.03 214.49 512.25 216.37 511.66 218.25 511.07 220.13 510.49 220.33 510.7 220.61 510.84 220.91 510.86L220.94 510.86C221.38 510.86 221.64 510.72 221.86 510.57 222.41 510.2 222.95 509.83 223.49 509.45 223.84 509.34 224.2 509.23 224.55 509.13 225.09 508.97 225.48 508.5 225.52 507.97 227.92 506.19 230.21 504.29 232.32 502.34 234.05 500.75 235.69 499.05 237.19 497.32 238.7 495.57 239.91 493.89 240.9 492.17 242.74 488.97 243.84 485.82 244.16 482.8 244.43 480.21 243.99 477.65 242.89 475.41 241.89 473.38 240.32 471.55 238.09 469.81 236.24 468.38 234.01 467.12 231.06 465.86 225.95 463.67 220.57 462.36 214.57 460.99L212.87 460.61C210.96 460.18 209.05 459.75 207.15 459.27 205.63 458.88 204.13 458.44 202.62 458 201.56 457.69 200.5 457.38 199.43 457.09 195.3 455.96 192.1 455.29 189.05 454.91 187.56 454.73 186.27 454.64 185.11 454.64" stroke-width="0" fill="#DB633C"/><path d="M186.1 494.31C184.95 494.6 183.82 494.95 182.68 495.29 181.44 495.66 180.21 496.01 178.98 496.35 176.63 497.01 174.28 497.66 171.92 498.29 169.57 498.92 167.23 499.49 164.87 500.05 162.58 500.59 160.28 501.09 157.97 501.55 157.99 501.55 158.01 501.55 158.02 501.55 157.97 501.55 157.93 501.57 157.88 501.58L157.78 501.6C157.78 501.6 157.8 501.6 157.81 501.6 153.26 502.47 148.69 503.18 144.09 503.65 143.74 503.69 143.47 503.97 143.49 504.32 143.51 504.65 143.81 504.95 144.16 504.92 151.33 504.2 158.51 503.49 165.61 502.26 169.15 501.65 172.68 500.91 176.16 500.01 177.91 499.56 179.65 499.05 181.37 498.5 183.21 497.91 185.06 497.31 186.84 496.55 187.13 496.42 187.36 496.26 187.51 495.97 187.65 495.69 187.68 495.36 187.58 495.06 187.48 494.77 187.27 494.53 187 494.4 186.83 494.31 186.66 494.28 186.49 494.28 186.36 494.28 186.23 494.3 186.09 494.34M157.81 501.61C157.81 501.61 157.86 501.6 157.88 501.6 157.91 501.6 157.94 501.59 157.97 501.58 157.92 501.59 157.87 501.6 157.81 501.61" stroke-width="0" fill="#C94E2B"/><path d="M186.96 510.09C185.47 510.54 183.99 511.01 182.5 511.46 180.9 511.94 179.3 512.39 177.69 512.82 174.56 513.65 171.41 514.4 168.23 515.02 168.32 515.01 168.41 514.99 168.5 514.97 161.32 516.35 154.01 517.26 146.69 517.32 146.45 517.32 146.26 517.55 146.27 517.78 146.29 518.03 146.5 518.2 146.74 518.2 150.17 518.17 153.6 518.13 157.03 517.99 158.71 517.92 160.38 517.8 162.05 517.69 163.82 517.56 165.6 517.38 167.37 517.16 169.04 516.97 170.69 516.72 172.35 516.46 174.11 516.17 175.87 515.85 177.61 515.46 179.34 515.08 181.06 514.63 182.76 514.13 184.45 513.64 186.13 513.08 187.76 512.42 188.07 512.29 188.31 512.11 188.46 511.82 188.61 511.53 188.64 511.18 188.53 510.87 188.35 510.35 187.87 510.04 187.35 510.04 187.22 510.04 187.09 510.06 186.97 510.1" stroke-width="0" fill="#C94E2B"/><path d="M350.07 258.48C349.96 258.48 349.85 258.5 349.72 258.54 349.38 258.63 349.09 258.86 348.93 259.19 348.89 259.25 348.87 259.32 348.84 259.39 343.59 268.3 337.58 278.9 332.77 290.19 328.03 301.29 324.91 312.31 323.5 322.95 322.73 328.76 322.44 334.8 322.64 340.9 322.83 346.43 323.67 352.32 325.14 358.38 328.03 370.34 333.25 381.3 337.97 390.44 340.01 394.4 342.17 398.39 344.25 402.24L344.51 402.71 346.25 405.89C346.3 406.02 346.35 406.12 346.43 406.24 347.83 408.82 349.21 411.41 350.57 414.02 353.83 420.32 356.96 426.57 359.65 431.94 362.69 438.05 365.7 444.2 368.59 450.22 371.38 456.04 374.21 462.12 377.02 468.28 376.37 468.1 375.67 468 374.97 467.9 370.02 467.22 364.69 466.71 359.13 466.39 354.18 466.1 349.13 466.02 344.24 465.94L344.07 465.94C344.07 465.94 343.89 465.94 343.89 465.94L342.68 465.94C320.9 465.58 297.52 465.23 274.23 464.99 259.22 464.84 246.12 464.75 234.19 464.71 234.01 464.71 233.84 464.75 233.68 464.83L233.67 464.83C233.13 464.83 232.77 464.97 232.53 465.28 227.1 471.96 223.03 479.48 220.43 487.62 219.11 491.73 218.21 495.95 217.74 500.18 217.53 502.13 217.42 504.19 217.39 506.47 217.39 507.51 217.41 508.55 217.46 509.59L217.51 510.39 217.56 511.18C217.61 511.72 217.67 512.16 217.74 512.6L217.77 512.81C217.82 513.11 217.92 513.35 218.08 513.55L218.17 513.72C218.37 514.04 218.64 514.17 218.98 514.31L219.92 514.66 220.17 514.76 220.79 514.99C229.42 518.2 238.33 521.51 247.16 524.62 256.96 528.07 266.11 531.03 275.12 533.67 287.64 537.34 301.14 541.18 315.02 544.44 330.88 548.17 345.09 550.59 358.46 551.86 364.95 552.47 371.3 552.77 377.32 552.77 378.31 552.77 379.31 552.77 380.3 552.75 387.43 552.64 394.54 552.02 401.41 550.91 415.85 548.58 428.78 543.77 439.83 536.62 442.58 534.85 445.32 532.82 448.21 530.43 451.11 528.01 453.72 525.52 455.95 523.03 460.41 518.08 464.11 512.22 466.95 505.61 471.94 494.04 474.15 480.48 473.72 464.15 473.53 457.36 472.85 450.18 471.61 442.21 470.56 435.42 469.18 428.53 467.39 421.12 463.84 406.41 459.25 391.76 453.75 377.57 447.32 360.97 439.82 345.53 431.44 331.66 427.03 324.37 422.24 317.39 417.2 310.93 414.87 307.95 412.26 304.83 409.43 301.67 406.88 298.85 404.15 296.05 400.84 292.85 394.21 286.47 387.26 280.59 380.2 275.38 372.31 269.56 364.82 265 357.31 261.45 355.14 260.43 352.94 259.5 350.77 258.67 350.61 258.59 350.52 258.56 350.43 258.55 350.32 258.52 350.21 258.5 350.1 258.5" stroke-width="0" fill="#2FC3B0"/><path d="M235.56 463.58C234.62 463.62 233.67 463.69 232.76 463.94 232.2 464.09 231.81 464.64 231.82 465.21 231.82 465.75 232.23 466.35 232.79 466.44 234.19 466.68 235.62 466.62 237.03 466.59 238.56 466.57 240.09 466.55 241.62 466.56 244.6 466.58 247.58 466.67 250.56 466.73 256.53 466.85 262.5 467.01 268.46 467.16 280.39 467.46 292.32 467.78 304.25 467.89 310.18 467.95 316.11 467.93 322.03 467.88 327.68 467.83 333.33 467.77 338.98 467.79 344.52 467.8 350.06 467.9 355.6 468.08 358.34 468.17 361.08 468.33 363.83 468.52 366.56 468.71 369.29 468.91 372.02 469.19 373.65 469.36 375.29 469.54 376.92 469.72 376.85 469.72 376.78 469.71 376.71 469.7 382.76 470.41 388.78 471.35 394.76 472.58 400.87 473.84 406.93 475.37 412.89 477.2 413.12 477.27 413.37 477.1 413.43 476.88 413.49 476.63 413.34 476.41 413.11 476.34 407.68 474.67 402.2 473.19 396.66 471.92 391.26 470.67 385.81 469.61 380.35 468.7 374.96 467.8 369.54 467.08 364.1 466.5 358.61 465.91 353.1 465.46 347.59 465.12 342.01 464.77 336.41 464.57 330.82 464.49 327.98 464.45 325.14 464.43 322.31 464.44 319.37 464.45 316.43 464.49 313.49 464.51 301.56 464.56 289.63 464.32 277.7 464.08 270.18 463.93 262.67 463.78 255.15 463.68 251.45 463.63 247.75 463.59 244.06 463.59 242.17 463.59 240.27 463.58 238.38 463.56 237.44 463.56 236.49 463.56 235.55 463.6" stroke-width="0" fill="#186258"/><path d="M218.41 512.34C218.09 512.48 217.81 512.74 217.67 513.06 217.43 513.6 217.58 514.32 218.07 514.67 218.39 514.9 218.71 515.13 219.06 515.34 219.42 515.55 219.78 515.72 220.16 515.9 220.91 516.24 221.67 516.55 222.42 516.88 224.04 517.6 225.68 518.27 227.32 518.96 230.46 520.28 233.6 521.62 236.74 522.93 243.03 525.56 249.39 527.99 255.83 530.24 268.68 534.72 281.81 538.42 295.04 541.61 308.26 544.8 321.63 547.42 335.05 549.59 341.42 550.63 347.81 551.61 354.23 552.36 360.17 553.05 366.14 553.5 372.11 553.66 377.5 553.8 382.91 553.71 388.28 553.27 393.66 552.83 399.01 552.09 404.3 551 409.5 549.92 414.61 548.44 419.59 546.59 424.69 544.69 429.61 542.32 434.29 539.56 434.52 539.43 434.54 539.08 434.39 538.88 434.22 538.65 433.94 538.65 433.71 538.78 433.3 539.02 432.89 539.26 432.49 539.49 426.09 543.09 419.21 545.76 412.11 547.66 412.11 547.66 412.13 547.66 412.13 547.66 400.97 550.58 389.43 551.61 377.91 551.5L378.21 551.5C372.21 551.45 366.22 551.09 360.25 550.51 354.08 549.91 347.96 549.03 341.84 548.07 328.4 545.97 315.03 543.38 301.8 540.22 295.71 538.76 289.65 537.17 283.61 535.46 283.75 535.5 283.88 535.54 284.02 535.58 273.04 532.45 262.18 528.89 251.48 524.89 248.8 523.89 246.12 522.87 243.48 521.79 240.82 520.71 238.2 519.55 235.58 518.39 232.96 517.23 230.34 516.07 227.69 514.97 226.3 514.4 224.9 513.86 223.48 513.37 222.84 513.15 222.18 512.93 221.53 512.73 221.12 512.6 220.71 512.49 220.3 512.39 219.92 512.29 219.5 512.28 219.1 512.26 219.04 512.26 218.97 512.25 218.91 512.25 218.73 512.25 218.55 512.29 218.39 512.35" stroke-width="0" fill="#186258"/><path d="M335.34 384.96C335.14 385.05 335.02 385.32 335.13 385.52 340.43 395.04 345.5 404.71 350.33 414.49 352.74 419.37 355.12 424.25 357.45 429.17 359.79 434.09 362.08 439.03 364.37 443.96 366.25 448.01 368.11 452.08 369.95 456.15 370.89 458.24 371.83 460.33 372.77 462.42 373.22 463.42 373.67 464.41 374.12 465.41 374.6 466.47 375.08 467.56 375.64 468.59 375.81 468.9 376.01 469.13 376.34 469.26 376.65 469.38 377 469.37 377.3 469.23 377.61 469.1 377.84 468.84 377.96 468.53 378.09 468.21 378.05 467.89 377.93 467.57 377.49 466.37 376.95 465.19 376.43 464.02 375.85 462.72 375.26 461.43 374.66 460.14 373.52 457.66 372.36 455.19 371.19 452.72 368.84 447.8 366.49 442.89 364.05 438.01 359.17 428.27 354.13 418.6 348.95 409.02 344.65 401.04 340.29 393.1 335.88 385.18 335.8 385.03 335.65 384.93 335.49 384.93 335.43 384.93 335.38 384.94 335.32 384.97" stroke-width="0" fill="#186258"/><path d="M251.97 252.5C251.28 252.69 250.92 253.4 251.08 254.08 251.99 257.86 253.55 261.48 255.84 264.62 257.99 267.56 260.69 270 263.74 271.98 266.8 273.97 270.21 275.44 273.68 276.55 277.26 277.71 280.96 278.46 284.68 278.99 288.91 279.59 293.18 279.91 297.45 279.89 302.04 279.87 306.63 279.44 311.15 278.66 320.14 277.11 328.91 273.93 336.64 269.08 338.89 267.67 341.05 266.1 343.1 264.41 345.43 262.49 347.59 260.38 349.47 258.03 349.69 257.75 349.84 257.49 349.84 257.13 349.84 256.79 349.71 256.46 349.47 256.23 349.23 255.99 348.91 255.86 348.57 255.86 348.26 255.86 347.87 255.99 347.67 256.23 345.41 259.05 342.75 261.5 339.91 263.72 335.69 266.94 331.07 269.58 326.18 271.66 326.28 271.62 326.38 271.57 326.49 271.53 320.49 274.06 314.17 275.73 307.73 276.63 303.96 277.13 300.16 277.36 296.36 277.34 292.75 277.32 289.15 277.03 285.57 276.55L285.57 276.55C285.57 276.55 285.51 276.55 285.48 276.54 285.51 276.54 285.54 276.54 285.56 276.55 280.5 275.84 275.48 274.71 270.74 272.76 268.04 271.61 265.46 270.19 263.11 268.42 261.38 267.07 259.82 265.54 258.45 263.83 257.05 262.01 255.91 260.04 255.01 257.94 254.41 256.46 253.94 254.94 253.57 253.4 253.43 252.83 252.88 252.46 252.32 252.46 252.21 252.46 252.1 252.47 252 252.5M255.09 258.11C255.09 258.11 255.12 258.18 255.13 258.21 255.12 258.18 255.1 258.14 255.09 258.11M258.26 263.58C258.33 263.66 258.39 263.74 258.45 263.82L258.26 263.58ZM285.59 276.55 285.59 276.55C285.59 276.55 285.59 276.55 285.58 276.55 285.58 276.55 285.58 276.55 285.59 276.55" stroke-width="0" fill="#186258"/><path d="M290.74 23.39C286.27 23.39 281.88 23.62 277.69 24.07 271.2 24.76 265.21 26.04 259.9 27.86 254.15 29.82 249.11 32.48 244.92 35.77 242.69 37.52 240.66 39.49 238.89 41.6 237.09 43.75 235.49 46.17 234.13 48.81 231.37 54.18 229.72 60.49 229.23 67.58 229.12 69.08 229.07 70.63 229.06 72.2 229.06 72.8 229.56 73.21 230.02 73.34 230.25 73.55 230.55 73.66 230.88 73.66 231.26 73.66 231.61 73.5 231.85 73.23 235.86 68.48 240.04 64.18 244.29 60.42L244.29 60.42C247.78 57.36 251.52 54.5 255.4 51.92 259.19 49.39 263.28 47.03 267.92 44.69 269.43 43.94 270.94 43.22 272.47 42.51 274.47 48.55 277.42 54.67 281.21 60.69 285.5 67.49 290.84 74.1 297.08 80.34 303.08 86.35 309.85 91.88 317.18 96.8 324.34 101.59 331.9 105.62 339.67 108.77 346.24 111.43 352.85 113.34 359.31 114.44 358.93 116.13 358.61 118 358.29 120.3 357.85 123.48 357.56 126.64 357.44 129.69 357.29 133.34 357.42 136.33 357.87 139.1 358.12 140.67 358.46 142.02 358.9 143.23 359.35 144.49 359.94 145.58 360.65 146.48 362.03 148.22 363.99 149.22 366 149.22L366.17 149.22C367.16 149.19 368.21 148.83 369.28 148.14 370.14 147.59 370.94 146.81 371.8 145.69 373.19 143.88 374.35 141.63 375.46 138.61 375.97 137.23 376.4 135.87 376.75 134.58 377.19 134.47 377.55 134.1 377.69 133.59 380.29 123.93 381.84 113.87 382.29 103.68 382.74 93.38 381.95 84.35 379.87 76.07 378.01 68.7 374.97 61.83 370.83 55.66 366.89 49.78 361.9 44.57 356.01 40.2 350.26 35.94 343.66 32.49 336.39 29.96 332.73 28.69 328.91 27.65 325.04 26.86 321.81 26.2 318.6 25.71 315.62 25.28 309.17 24.36 302.79 23.77 296.67 23.52 294.57 23.44 292.64 23.39 290.76 23.39M287.14 64.83 287.09 64.78 287.06 64.69C287.28 65 287.5 65.31 287.72 65.61 287.55 65.38 287.38 65.15 287.21 64.92L287.2 64.92C287.2 64.92 287.18 64.88 287.18 64.88L287.18 64.88C287.18 64.88 287.18 64.85 287.18 64.85L287.15 64.82C287.15 64.82 287.15 64.82 287.15 64.81 287.15 64.81 287.15 64.81 287.15 64.81" stroke-width="0" fill="#021621"/><path d="M66.64 366.33C65.88 366.33 65.08 366.42 64.11 366.6 62.27 366.94 60.56 367.81 59.27 368.54 57.43 369.59 55.81 370.89 54.47 372.01 51.27 374.67 48.45 377.77 46.11 380.44 44.99 381.73 43.88 383.03 42.81 384.36 41.37 386.13 39.98 388.06 38.69 390.11 33.25 398.74 30.99 408.08 32.32 416.42 32.7 418.76 33.35 421.07 34.27 423.27 35 425.04 35.92 426.79 37.08 428.62 38.14 430.29 39.41 431.96 40.85 433.59 42.25 435.16 43.78 436.55 45.41 437.73 46.22 438.32 47.04 438.85 47.92 439.33 48.74 439.78 49.66 440.18 50.79 440.59 52.35 441.15 54 441.44 55.7 441.44 55.97 441.44 56.24 441.44 56.52 441.42 59.58 441.25 62.66 439.95 65.68 437.58 68.09 435.7 70.4 433.25 72.74 430.09 74.87 427.22 76.85 424.03 78.79 420.36 80.48 417.18 82.05 413.74 83.46 410.14 84.76 406.84 85.76 403.82 86.54 400.89 86.97 399.28 87.29 397.68 87.51 396.16 87.69 394.91 87.86 393.27 87.64 391.72 87.55 391.1 87.43 390.61 87.25 390.17 87.04 389.65 86.76 389.2 86.37 388.76 86.06 388.41 85.65 388.18 85.37 388.05 84.87 387.82 84.4 387.74 83.84 387.7L83.63 387.7C83.27 387.7 82.92 387.76 82.56 387.82 82.01 387.92 81.55 388.08 81.14 388.24 80.52 388.48 79.89 388.78 79.21 389.16 80.87 386.22 82.02 383.68 82.83 381.26 83.71 378.62 83.93 376.51 83.53 374.63 83.33 373.72 82.86 372.84 82.16 372.1 81.54 371.43 80.62 370.93 79.42 370.59 78.8 370.42 78.15 370.33 77.49 370.33 75.84 370.33 74.01 370.87 72.06 371.92 72.29 370.78 72.21 369.74 71.86 368.94 71.61 368.36 71.28 367.9 70.86 367.53 70.4 367.13 69.82 366.83 69.03 366.6 68.35 366.39 67.6 366.35 66.89 366.33 66.8 366.33 66.71 366.33 66.62 366.33" stroke-width="0" fill="#DB633C"/><path d="M77.82 389.95C75.92 391.66 74.12 393.47 72.38 395.34 70.65 397.19 69.04 399.16 67.47 401.16 67.47 401.16 67.49 401.14 67.49 401.13 66.68 402.16 65.89 403.2 65.13 404.27 64.32 405.4 63.55 406.57 62.8 407.74 62.05 408.91 61.36 410.11 60.68 411.31 59.96 412.59 59.28 413.9 58.7 415.24 58.67 415.33 58.63 415.41 58.59 415.5 58.54 415.68 58.54 415.86 58.59 416.04 58.66 416.31 58.84 416.56 59.08 416.71 59.58 417 60.26 416.83 60.54 416.32 61.4 414.79 62.2 413.22 63.04 411.67 63.93 410.01 64.85 408.37 65.8 406.74 66.7 405.19 67.65 403.68 68.61 402.17 69.61 400.61 70.7 399.1 71.85 397.64 71.85 397.65 71.83 397.67 71.82 397.68 72.8 396.45 73.81 395.25 74.87 394.09 75.99 392.85 77.18 391.68 78.41 390.57 78.58 390.42 78.57 390.13 78.41 389.97 78.32 389.88 78.22 389.84 78.11 389.84 78 389.84 77.9 389.88 77.81 389.96M71.79 397.72C71.79 397.72 71.81 397.7 71.81 397.69 71.81 397.7 71.79 397.71 71.79 397.72" stroke-width="0" fill="#C94E2B"/><path d="M70.21 373.03C69.14 374.11 68.07 375.18 67.01 376.27 65.97 377.34 64.94 378.43 63.91 379.51 62.89 380.59 61.9 381.68 60.89 382.78 59.83 383.94 58.77 385.1 57.73 386.28 56.77 387.38 55.83 388.52 54.91 389.66 53.92 390.88 52.93 392.11 51.99 393.37 51.1 394.57 50.22 395.79 49.39 397.03 48.5 398.37 47.63 399.76 46.96 401.23 46.84 401.5 46.77 401.74 46.85 402.03 46.92 402.32 47.1 402.56 47.35 402.71 47.59 402.85 47.89 402.89 48.16 402.82 48.25 402.79 48.33 402.75 48.43 402.72 48.6 402.62 48.74 402.49 48.84 402.32 49.39 401.6 49.89 400.82 50.39 400.06 50.88 399.3 51.37 398.54 51.86 397.77 52.87 396.18 53.89 394.6 54.93 393.02 55.89 391.54 56.93 390.11 57.97 388.67 59.04 387.2 60.14 385.74 61.26 384.31 61.25 384.32 61.23 384.34 61.22 384.35 62.69 382.48 64.26 380.68 65.85 378.91 67.46 377.12 69.13 375.35 70.83 373.63 71 373.46 71 373.2 70.84 373.02 70.76 372.94 70.65 372.9 70.53 372.9 70.42 372.9 70.31 372.94 70.23 373.02M61.25 384.31C61.25 384.31 61.3 384.25 61.32 384.22 61.3 384.25 61.28 384.28 61.25 384.31" stroke-width="0" fill="#C94E2B"/><path d="M281.74 96.91C281.54 96.91 281.32 97.04 281.28 97.26 280.66 101.44 279.35 105.84 277.14 111.1 275.15 115.79 272.74 120.41 270.43 124.74L270.05 125.45C269.65 126.23 269.32 126.86 268.96 127.48 268.5 128.28 268 129.05 267.49 129.82L266.2 131.73C265.51 132.75 264.83 133.75 264.18 134.79 262.96 136.72 262.06 138.48 261.42 140.17 260.71 142.04 260.42 143.94 260.57 145.67 260.67 146.61 260.88 147.48 261.23 148.33 261.41 148.78 261.62 149.21 261.86 149.63 262.13 150.09 262.46 150.5 262.78 150.89 263.44 151.68 264.22 152.26 264.83 152.69 265.7 153.31 266.7 153.74 267.48 154.04 268.82 154.57 270.4 154.88 272.18 154.96 272.35 154.96 272.53 154.96 272.7 154.96 274.06 154.96 275.41 154.74 276.71 154.31 277.12 154.17 277.41 153.95 277.59 153.63 277.79 153.29 277.85 152.88 277.74 152.49 277.57 151.86 276.97 151.39 276.3 151.39 276.17 151.39 276.04 151.41 275.92 151.45 275.37 151.61 274.82 151.73 274.17 151.82 273.63 151.88 273.1 151.91 272.56 151.91 271.97 151.91 271.37 151.88 270.78 151.8 269.75 151.65 268.75 151.39 267.79 151.02 267.03 150.69 266.33 150.29 265.71 149.83 265.24 149.43 264.85 149.04 264.52 148.64 264.2 148.2 263.91 147.71 263.68 147.2 263.47 146.63 263.31 146.06 263.21 145.46 263.14 144.74 263.15 144 263.23 143.19 263.42 141.94 263.8 140.64 264.43 139.11 265.48 136.72 266.91 134.39 268.16 132.33L269.1 130.78C269.47 130.17 269.83 129.54 270.17 128.91 270.46 128.38 270.72 127.83 270.98 127.29L271.16 126.89 272.17 124.77 273.17 122.64 273.85 121.19C275.93 116.78 277.51 113.12 278.81 109.68 280.49 105.24 281.58 101.26 282.13 97.51 282.16 97.29 282.09 97.04 281.8 96.95 281.8 96.95 281.69 96.93 281.69 96.93" stroke-width="0" fill="#C94E2B"/><path d="M295.67 164.27 295.67 164.27C294.29 165.09 292.75 165.87 291.12 166.59 288.37 167.79 285.38 168.82 282.24 169.65 278.96 170.51 275.8 171.11 272.85 171.45 270.76 171.69 268.92 171.81 267.22 171.81 267.45 175.2 268.59 178.63 270.47 181.74 271.93 184.15 274.51 187.36 278.43 188.99 279.86 189.59 281.36 189.9 282.9 189.9 283.13 189.9 283.35 189.9 283.58 189.88 285.33 189.78 287.12 189.25 288.76 188.34 290.1 187.59 291.38 186.49 292.45 185.15 293.48 183.87 294.35 182.36 295.04 180.67 296.04 178.24 296.64 175.52 296.81 172.58 296.98 169.83 296.68 167.12 295.94 164.75 295.89 164.58 295.81 164.43 295.7 164.29 295.7 164.29 295.67 164.29 295.66 164.29" stroke-width="0" fill="#021621"/><path d="M294.59 174.46C292.93 174.99 291.29 175.6 289.71 176.32 288.2 177.01 286.75 177.79 285.35 178.67 285.34 178.67 285.33 178.68 285.32 178.69 284.28 179.36 283.28 180.09 282.33 180.87 281.37 181.67 280.46 182.54 279.6 183.47L279.63 183.44C278.91 184.24 278.22 185.08 277.62 185.97 277.19 186.61 276.79 187.26 276.41 187.93 277.04 188.32 277.71 188.67 278.43 188.97 279.86 189.57 281.36 189.87 282.9 189.87 283.13 189.87 283.35 189.87 283.58 189.85 285.33 189.75 287.12 189.22 288.76 188.31 290.1 187.56 291.38 186.46 292.46 185.13 293.48 183.85 294.36 182.34 295.05 180.65 295.9 178.58 296.46 176.3 296.71 173.85 296 174.04 295.3 174.24 294.6 174.45" stroke-width="0" fill="#F68677"/><path d="M285.33 178.69 285.35 178.69C285.35 178.69 285.35 178.67 285.36 178.67 285.35 178.67 285.34 178.68 285.33 178.69" stroke-width="0" fill="#F68677"/><path d="M285.3 178.7C285.3 178.7 285.3 178.7 285.31 178.7 285.31 178.7 285.31 178.7 285.32 178.7 285.32 178.7 285.3 178.71 285.29 178.72" stroke-width="0" fill="#F68677"/><path d="M251.84 112.93C249.5 112.93 247.04 116.64 246.23 121.38 245.37 126.44 246.66 130.89 249.1 131.32 249.22 131.34 249.35 131.35 249.47 131.35 251.81 131.35 254.27 127.63 255.08 122.89 255.49 120.45 255.43 118.07 254.89 116.2 254.35 114.32 253.4 113.17 252.21 112.97 252.09 112.95 251.96 112.94 251.84 112.94" stroke-width="0" fill="#021621"/><path d="M315.56 125.48C313.07 125.48 310.45 129.44 309.58 134.5 309.14 137.12 309.21 139.66 309.78 141.65 310.35 143.65 311.36 144.88 312.63 145.1 312.76 145.12 312.9 145.13 313.03 145.13 315.52 145.13 318.15 141.17 319.01 136.1 319.45 133.48 319.38 130.95 318.81 128.96 318.24 126.96 317.23 125.73 315.96 125.51 315.83 125.49 315.7 125.48 315.56 125.48" stroke-width="0" fill="#021621"/><path d="M263.06 71.64C260.38 71.64 257.3 72.06 254.16 72.86 250.25 73.85 246.7 75.32 244.17 76.99 241.63 78.67 240.43 80.35 240.77 81.72 241.19 83.35 243.84 84.32 247.87 84.32 250.56 84.32 253.64 83.9 256.77 83.1 260.68 82.1 264.23 80.64 266.77 78.96 269.31 77.28 270.51 75.61 270.16 74.24 269.75 72.61 267.09 71.63 263.06 71.63" stroke-width="0" fill="#021621"/></svg>