<svg viewBox="0 0 312.25 325.03" xmlns="http://www.w3.org/2000/svg" xmlns:xlink="http://www.w3.org/1999/xlink" id="Layer_1" overflow="hidden"><defs><clipPath id="clippath"><rect x="0" y="0" width="312.24" height="325.03" stroke-width="0" fill="none"/></clipPath></defs><g clip-path="url(#clippath)"><path d="M194.18 76.88C198.17 54.58 201.62 46.47 194.62 25.76 189.56 10.78 175.15 0.51 156.12 0 137.09 0.51 122.68 10.78 117.62 25.76 110.62 46.47 114.07 54.58 118.06 76.88 121.57 96.49 75.64 106.11 89.51 142.54 95.27 157.7 125.15 160.69 156.12 159.43 187.1 160.69 216.97 157.7 222.73 142.54 236.59 106.11 190.66 96.49 194.18 76.88" stroke-width="0" fill="#451445"/><path d="M221.02 283.43 221.02 137.04C221.02 111.15 192.25 99.1 166.87 93.86L153.88 93.64 143.64 93.86C117.23 99.31 91.24 109.16 91.24 134.7L91.24 283.43 221.03 283.43Z" stroke-width="0" fill="#FFD969"/><path d="M167.19 72.77 143.63 72.77 143.63 96.87C143.63 100.31 145.09 104.19 156.28 104.19 163.35 104.19 166.48 100.91 167.19 98.04L167.19 72.77Z" stroke-width="0" fill="#F1A167"/><path d="M192.62 50.89C192.62 53.55 190.47 55.7 187.82 55.7 185.17 55.7 183.01 53.55 183.01 50.89 183.01 48.23 185.16 46.08 187.82 46.08 190.48 46.08 192.62 48.23 192.62 50.89" stroke-width="0" fill="#F1A167"/><path d="M129.24 50.89C129.24 53.55 127.08 55.7 124.43 55.7 121.78 55.7 119.62 53.55 119.62 50.89 119.62 48.23 121.77 46.08 124.43 46.08 127.09 46.08 129.24 48.23 129.24 50.89" stroke-width="0" fill="#F1A167"/><path d="M187.16 54.9C187.16 72.77 171.83 85 156.11 85 140.39 85 125.08 72.35 125.08 54.22L125.08 38.02C125.08 20.97 138.97 7.17 156.11 7.17 173.25 7.17 187.16 20.97 187.16 38.02L187.16 54.9Z" stroke-width="0" fill="#F1A167"/><path d="M127.41 50.89C130.39 44.34 126.57 42.58 130.59 39.47 142.49 30.27 143.5 19.09 143.5 19.09 150.94 19.09 163.83 18.98 172.82 23.47 182.58 28.34 182.14 42.76 183.45 48.92 184.11 52.04 186.69 53.16 186.69 53.16 192.02 29.59 180.66 11.55 161.66 4.91 151.98 1.52 133.18 7.85 126.96 17.02 122.4 23.74 124.48 43.29 125.11 53.41 125.11 53.41 126.2 53.59 127.44 50.89" stroke-width="0" fill="#451445"/><path d="M173.07 46.81C172.45 46.81 171.9 47.06 171.52 47.5 171.19 47.88 171.01 48.39 171.01 48.93 171.01 49.98 171.72 51.03 173.07 51.03 173.69 51.03 174.24 50.79 174.62 50.35 174.94 49.96 175.13 49.46 175.13 48.93 175.13 47.88 174.42 46.82 173.07 46.82" stroke-width="0" fill="#451445"/><path d="M138.09 46.81C137.47 46.81 136.92 47.06 136.54 47.5 136.22 47.88 136.04 48.39 136.04 48.93 136.04 49.98 136.74 51.03 138.09 51.03 138.72 51.03 139.26 50.79 139.64 50.35 139.98 49.96 140.15 49.46 140.15 48.93 140.15 47.88 139.45 46.82 138.09 46.82" stroke-width="0" fill="#451445"/><path d="M144.16 63.58C144.28 67.93 149.02 72.83 155.52 72.77 162.02 72.83 166.75 67.94 166.87 63.58 160.33 69.04 150.7 69.04 144.16 63.58" stroke-width="0" fill="#FFFFFF"/><path d="M159.05 61.43C158.83 61.43 158.62 61.43 158.41 61.4 158.04 61.37 157.76 61.04 157.8 60.67 157.83 60.3 158.12 60 158.52 60.06 159.87 60.18 160.91 59.8 161.02 59.49 161.06 59.37 160.92 58.9 159.81 58.15 156.44 55.86 156.06 47.9 156.04 47.56 156.03 47.19 156.31 46.88 156.69 46.86 157.08 46.83 157.37 47.13 157.38 47.51 157.47 49.62 158.23 55.45 160.56 57.04 162.03 58.03 162.6 59 162.27 59.94 161.89 60.99 160.46 61.43 159.03 61.43" stroke-width="0" fill="#451445"/><path d="M180.77 58.86C180.77 61.47 177.54 63.58 173.56 63.58 169.58 63.58 166.35 61.47 166.35 58.86 166.35 56.25 169.58 54.14 173.56 54.14 177.54 54.14 180.77 56.26 180.77 58.86" stroke-width="0" fill="#EB7F5D"/><path d="M145.9 58.86C145.9 61.47 142.67 63.58 138.69 63.58 134.71 63.58 131.48 61.47 131.48 58.86 131.48 56.25 134.71 54.14 138.69 54.14 142.67 54.14 145.9 56.26 145.9 58.86" stroke-width="0" fill="#EB7F5D"/><path d="M291.18 153.55 266.92 220.3 214.12 118.2C208.94 109.41 197.63 106.49 188.85 111.66 180.06 116.83 177.13 128.15 182.31 136.93L251.23 266.4 251.92 267.59C253.89 270.92 256.95 273.64 260.84 275.15 270 278.68 280.28 274.11 283.81 264.96L310.95 162.95C312.87 157.98 294.2 148.3 291.19 153.55" stroke-width="0" fill="#FFD969"/><path d="M21.24 153.55 45.49 220.3 98.3 118.2C103.47 109.41 114.78 106.49 123.57 111.66 132.35 116.83 135.28 128.15 130.11 136.93L61.19 266.4 60.49 267.59C58.53 270.92 55.47 273.64 51.57 275.15 42.42 278.68 32.14 274.11 28.61 264.96L1.47 162.95C-0.45 157.98 18.23 148.3 21.24 153.55" stroke-width="0" fill="#FFD969"/><rect x="14.93" y="109.98" width="282.39" height="122.56" stroke-width="0" fill="#F2F2F2"/><path d="M308.7 165.67C318.09 155.77 306.96 141.25 297.24 137.95L297.24 145.28C297.33 145.52 297.86 145.98 297.96 146.22 298.86 148.22 297.46 148.11 296.27 147.17 289.06 141.61 282.37 138.6 278.21 142.48 274.13 146.27 276.37 156.76 284.13 163.22 289.08 167.33 302.56 172.13 308.69 165.67" stroke-width="0" fill="#F1A167"/><path d="M3.55 165.67C-5.84 155.77 5.29 141.25 15.01 137.95L15.01 145.28C14.92 145.52 14.39 145.98 14.29 146.22 13.39 148.22 14.79 148.11 15.98 147.17 23.19 141.61 29.89 138.6 34.03 142.48 38.12 146.27 35.88 156.76 28.11 163.22 23.16 167.33 9.68 172.13 3.55 165.67" stroke-width="0" fill="#F1A167"/></g></svg>