<svg viewBox="0 0 391.75 1024.81" xmlns="http://www.w3.org/2000/svg" xmlns:xlink="http://www.w3.org/1999/xlink" id="Layer_1" overflow="hidden"><defs></defs><g><g><g><path d="M238.24 967.69 238.24 1020.76 352.09 1020.76C352.09 1010.64 345.23 1001.82 335.43 999.32L306.62 991.99C304.37 991.42 302.31 990.24 300.68 988.59L289.59 967.28 238.25 967.69Z" stroke-width="0" fill="#090909"/><path d="M286.54 984.96C286.18 984.96 285.84 984.75 285.68 984.4 285.47 983.92 285.68 983.36 286.15 983.15L296.18 978.62C296.66 978.41 297.22 978.62 297.43 979.09 297.64 979.57 297.43 980.13 296.96 980.34L286.93 984.87C286.8 984.93 286.67 984.95 286.54 984.95Z" stroke-width="0" fill="#E8E8E8"/><path d="M290.15 993.7C289.79 993.7 289.45 993.49 289.29 993.14 289.07 992.66 289.29 992.1 289.76 991.89L299.79 987.36C300.27 987.15 300.83 987.36 301.04 987.83 301.26 988.31 301.04 988.87 300.57 989.08L290.54 993.61C290.41 993.67 290.28 993.69 290.15 993.69Z" stroke-width="0" fill="#E8E8E8"/></g><rect x="238.24" y="1018.29" width="113.85" height="6.52" stroke-width="0" fill="#141C34"/></g><g><g><path d="M161.92 967.69 161.92 1020.76 48.08 1020.76C48.08 1010.64 54.94 1001.82 64.74 999.32L93.55 991.99C95.8 991.42 97.86 990.24 99.49 988.59L110.58 967.28 161.92 967.69Z" stroke-width="0" fill="#090909"/><path d="M113.63 984.96C113.5 984.96 113.37 984.93 113.24 984.88L103.21 980.35C102.73 980.14 102.52 979.57 102.74 979.1 102.96 978.62 103.52 978.41 103.99 978.63L114.02 983.16C114.5 983.37 114.71 983.94 114.49 984.41 114.33 984.76 113.99 984.97 113.63 984.97Z" stroke-width="0" fill="#E8E8E8"/><path d="M110.01 993.7C109.88 993.7 109.75 993.67 109.62 993.62L99.59 989.09C99.11 988.88 98.9 988.31 99.12 987.84 99.34 987.36 99.9 987.16 100.37 987.37L110.4 991.9C110.88 992.11 111.09 992.68 110.87 993.15 110.71 993.5 110.37 993.71 110.01 993.71Z" stroke-width="0" fill="#E8E8E8"/></g><rect x="48.08" y="1018.29" width="113.85" height="6.52" stroke-width="0" fill="#141C34" transform="matrix(-1 1.22465e-16 -1.22465e-16 -1 210 2043.11)"/></g><path d="M220.77 511.73 140.03 477.86C135.59 476 130.63 479.03 130.26 483.83L93.43 959.68C93.11 963.78 96.36 967.29 100.47 967.29L169.26 967.29C174.21 967.29 178.36 963.56 178.89 958.63L217.01 600.13 220.17 967.46C220.2 971.34 223.35 974.46 227.23 974.46L299.77 974.46C303.6 974.46 306.73 971.41 306.83 967.58L319.17 497.13C319.29 492.44 314.89 488.94 310.35 490.11L225.27 512.05C223.78 512.44 222.2 512.32 220.77 511.72Z" stroke-width="0" fill="#160601"/></g><g><path d="M286.77 41.99C287 41.69 287.25 41.4 287.46 41.07 297.04 26.49 294.47 4.22 264.69 0.38 254.55-0.93 244.85 1.32 236.45 4.84 232.1 4.66 227.67 4.59 223.25 4.67 164.73 5.72 165.93 58.9 170.38 86.04 173.53 82.83 177.84 80.74 182.68 80.51L190.47 80.14 192.7 80.03C191.88 70.48 191.27 61.34 192.04 61.34 201.56 61.36 207.93 51.07 211.71 41.87 216.18 39.49 223.33 38.31 234.77 40.59 234.77 40.59 242.08 44.03 251.42 46.56 249.48 50.74 248.34 55.59 248.34 60.8 248.34 76.29 258.23 88.86 270.42 88.86 282.61 88.86 292.5 76.3 292.5 60.8 292.5 53.56 290.32 46.98 286.77 42Z" stroke-width="0" fill="#090909"/><g><g><path d="M190.46 80.12 182.67 80.5 190.46 80.12 190.46 80.12Z" stroke-width="0" fill="none"/><path d="M216.14 27.75C216.14 27.75 209.23 61.37 192.03 61.33 191.26 61.33 191.88 70.47 192.69 80.02L190.46 80.13 190.46 80.13 182.67 80.5C177.82 80.73 173.52 82.82 170.37 86.03 166.89 89.58 164.83 94.49 165.09 99.85L165.09 99.85C165.58 110.05 174.24 117.92 184.44 117.44L186.33 117.35 186.33 192.89C186.33 210.55 200.65 224.87 218.31 224.87L224.95 224.87C242.61 224.87 256.93 210.55 256.93 192.89L256.93 155.54C272.89 150.75 284.17 135.62 283.34 118.22L280.21 52.69C280.02 48.76 279.22 45.01 277.92 41.51 261.44 45.71 220.74 40.29 216.14 27.75Z" stroke-width="0" fill="#FF9677"/><path d="M256.93 155.58C256.93 155.58 220.16 156.19 213.33 146.05 213.33 146.05 221.69 170.74 256.75 179.55L256.94 155.58Z" stroke-width="0" fill="#FD6A48"/></g><path d="M181 105.43C180.54 105.43 180.1 105.18 179.88 104.75 179.56 104.13 179.8 103.37 180.42 103.05L184.84 100.77 180.75 93.07C180.42 92.45 180.66 91.69 181.27 91.36 181.89 91.03 182.65 91.27 182.98 91.88L188.27 101.83 181.58 105.28C181.4 105.38 181.2 105.42 181 105.42Z" stroke-width="0" fill="#FD6A48"/></g><g><path d="M248.33 140.32C248.01 140.32 247.68 140.2 247.44 139.95 246.95 139.46 246.94 138.67 247.44 138.17 249.1 136.49 253.51 133.92 258.27 136.25 258.9 136.56 259.16 137.31 258.85 137.94 258.55 138.57 257.79 138.83 257.16 138.52 252.87 136.42 249.37 139.81 249.23 139.96 248.98 140.2 248.66 140.33 248.34 140.33Z" stroke-width="0" fill="#FD6A48"/><g><path d="M218.08 68.44C219.84 68.9 221.94 68.36 223.99 67.96 226.05 67.51 228.14 67.12 229.96 66.84 231.79 66.56 233.9 66.3 236 66.11 238.08 65.87 240.26 65.74 241.77 64.78 243.23 63.87 243.58 61.88 241.36 59.83 239.27 57.83 234.33 56.06 228.28 56.98 222.25 57.93 218.14 61.09 216.82 63.62 215.4 66.23 216.39 68.02 218.08 68.44Z" stroke-width="0" fill="#090909"/><path d="M275.51 69.33C274.14 69.69 272.5 69.29 270.9 68.98 269.29 68.64 267.66 68.34 266.24 68.13 264.81 67.92 263.17 67.73 261.53 67.58 259.9 67.4 258.21 67.31 257.03 66.57 255.88 65.87 255.61 64.31 257.33 62.71 258.95 61.14 262.8 59.74 267.52 60.43 272.23 61.14 275.44 63.59 276.48 65.56 277.6 67.59 276.84 68.99 275.52 69.32Z" stroke-width="0" fill="#090909"/></g><path d="M262.54 84.01C261.67 85.85 262.46 88.05 264.3 88.92 266.14 89.79 268.34 89 269.21 87.16 270.08 85.32 269.29 83.12 267.45 82.25 265.61 81.38 263.41 82.17 262.54 84.01Z" stroke-width="0" fill="#090909"/><path d="M225.46 85.36C224.52 87.35 225.37 89.73 227.36 90.67 229.35 91.61 231.73 90.76 232.67 88.77 233.61 86.78 232.76 84.4 230.77 83.46 228.78 82.52 226.4 83.37 225.46 85.36Z" stroke-width="0" fill="#090909"/><path d="M261.11 91.73C260.9 91.73 260.69 91.66 260.51 91.52 260.11 91.19 260.05 90.6 260.38 90.2 260.42 90.15 264.36 85.45 270.93 89.68 271.37 89.96 271.5 90.55 271.21 90.99 270.93 91.43 270.34 91.56 269.9 91.27 264.79 87.98 261.96 91.27 261.84 91.4 261.65 91.63 261.38 91.74 261.11 91.74Z" stroke-width="0" fill="#FD6A48"/><path d="M224.22 93.74C224.01 93.74 223.8 93.67 223.62 93.52 223.22 93.19 223.16 92.6 223.49 92.2 223.53 92.15 227.47 87.45 234.04 91.68 234.48 91.96 234.61 92.55 234.32 92.99 234.04 93.43 233.45 93.56 233.01 93.27 227.9 89.98 225.07 93.27 224.95 93.4 224.76 93.63 224.49 93.74 224.22 93.74Z" stroke-width="0" fill="#FD6A48"/><path d="M246.67 105.42C245.15 105.42 243.51 105.31 241.78 105.09 241.26 105.03 240.89 104.55 240.96 104.03 241.02 103.51 241.51 103.13 242.02 103.21 244.14 103.47 246.1 103.57 247.85 103.5 251.19 103.36 254.01 102.03 255.23 100.02 255.91 98.89 255.98 97.68 255.43 96.51L247.14 78.88C246.92 78.41 247.12 77.84 247.59 77.62 248.06 77.39 248.62 77.6 248.85 78.07L257.14 95.7C257.96 97.45 257.86 99.33 256.85 101 255.31 103.54 251.89 105.23 247.93 105.39 247.52 105.41 247.1 105.42 246.67 105.42Z" stroke-width="0" fill="#FD6A48"/><path d="M231.39 109.81C232.79 108.7 234.78 108.77 236.2 109.87 238.78 111.86 244.32 115.31 251.85 115.44 253.7 115.47 254.83 117.53 254.18 119.26 252.76 123.07 248.6 129.11 238.57 125.4 226.35 120.88 227.73 112.71 231.38 109.81Z" stroke-width="0" fill="#FFFFFF"/></g></g><g><g><path d="M358.55 554.47C371.15 555.33 380.62 566.32 379.62 578.91L378.77 589.56C378.77 589.56 372.52 662.18 344.12 650.9 344.12 650.9 333.37 649.4 334.24 643.33 339.49 606.63 337.46 599.3 337.46 599.3 337.67 600.8 334.36 605.05 333.54 606.37 332.04 608.79 330.36 611.1 328.25 613.03 324.66 616.33 319.38 617.42 315.25 614.25 314.54 613.7 313.87 612.98 313.78 612.1 313.7 611.3 314.09 610.54 314.48 609.84 318.18 603.1 322.65 596.8 326.21 589.99 326.21 589.99 323.61 578.25 331.15 568.14 331.36 567.85 331.57 567.57 331.77 567.28 337.84 558.61 347.99 553.76 358.55 554.48L358.55 554.48Z" stroke-width="0" fill="#FF9677"/><g><path d="M265.59 179.88 221.63 227.6 178.52 185.44 180.4 436.76 173 517.1 268.96 517.1 262.02 441.82 265.59 179.88Z" stroke-width="0" fill="#F8EEE2"/><g><path d="M178.52 185.44 178.43 173.98 98.94 198.42C85.44 202.57 76.97 215.94 78.99 229.92L96.64 352.24 110.57 392.41 119.55 418.31 108.22 502.13 104.31 531.07C103.5 536.66 107.67 541.75 113.32 542.03L163.55 544.59C167.4 544.79 170.71 541.91 171.07 538.08L173 517.1 180.4 436.76 178.52 185.44Z" stroke-width="0" fill="#2FC3B0"/><path d="M177.19 175.68 99.32 199.62C86.32 203.61 78.3 216.28 80.25 229.74L97.9 352.06 120.85 418.18 120.81 418.48 105.57 531.24C105.23 533.57 105.89 535.93 107.37 537.74 108.86 539.55 111.05 540.65 113.38 540.78L163.61 543.34C166.81 543.48 169.51 541.14 169.81 537.97L179.15 436.65 177.19 175.69Z" stroke-width="0" fill="#2FC3B0"/></g><g><path d="M364.12 243.22C361.13 217.24 342.53 195.74 317.25 189.04L265.64 175.38 265.58 179.87 262.02 441.82 268.96 517.1 271.36 543.15C271.71 546.99 275.03 549.86 278.88 549.66L320.92 549.53 323.05 566.43C323.42 569.39 325.83 571.68 328.8 571.9L382.75 575.92C387.16 576.25 390.83 572.56 390.47 568.15L364.13 243.23Z" stroke-width="0" fill="#2FC3B0"/><path d="M383.29 577.19C383.08 577.19 382.87 577.19 382.66 577.17L328.71 573.15C325.15 572.88 322.24 570.12 321.8 566.58L319.81 550.78 278.89 550.91C274.44 551.16 270.53 547.78 270.11 543.25L260.77 441.93 264.41 173.74 317.58 187.82C343.55 194.7 362.31 216.38 365.38 243.07L365.38 243.11C365.38 243.11 391.73 568.03 391.73 568.03 391.93 570.5 391.04 572.92 389.3 574.68 387.7 576.29 385.54 577.18 383.3 577.18Z" stroke-width="0" fill="#2FC3B0"/></g></g><path d="M276.99 433.73C272.2 433.73 268.3 429.83 268.3 425.04 268.3 420.25 272.2 416.36 276.99 416.36 281.78 416.36 285.67 420.26 285.67 425.04 285.67 429.82 281.77 433.73 276.99 433.73ZM276.99 418.88C273.59 418.88 270.83 421.64 270.83 425.04 270.83 428.44 273.59 431.2 276.99 431.2 280.39 431.2 283.15 428.43 283.15 425.04 283.15 421.65 280.39 418.88 276.99 418.88Z" stroke-width="0" fill="#186258"/><path d="M313.79 550.96C313.11 550.96 312.55 550.42 312.53 549.73 312.51 549.04 313.06 548.46 313.76 548.44L324.03 548.19C328.77 548.14 335.31 546.12 338.14 542.47 339.31 540.96 339.7 539.32 339.27 537.59L319.64 416.06 319.64 415.91C319.64 415.91 327.56 304.95 327.56 304.95 327.61 304.26 328.18 303.71 328.91 303.78 329.6 303.83 330.13 304.43 330.08 305.13L322.18 415.94 341.75 537.08C342.34 539.46 341.79 541.89 340.14 544.01 336.79 548.33 329.53 550.64 324.08 550.7L313.82 550.95 313.79 550.95Z" stroke-width="0" fill="#186258"/></g><g><g><path d="M257.85 193.87 242.96 234.44C236.44 252.2 211.43 252.48 204.52 234.87L191.45 201.59 257.85 193.87Z" stroke-width="0" fill="#186258"/><g><path d="M265.46 168.54 268.51 190.94 251.21 220.31C249.6 223.04 245.79 223.4 243.71 221.02L223.79 198.31 257.27 165.72C260.12 162.94 264.92 164.6 265.46 168.54Z" stroke-width="0" fill="#F8EEE2"/><path d="M247.19 223.86C245.49 223.86 243.9 223.14 242.76 221.85L222.05 198.24 256.39 164.82C258.05 163.2 260.45 162.67 262.64 163.42 264.83 164.18 266.39 166.07 266.7 168.37L269.81 191.2 252.28 220.95C251.31 222.6 249.65 223.65 247.74 223.83 247.55 223.85 247.36 223.86 247.17 223.86Z" stroke-width="0" fill="#2FC3B0"/></g><g><path d="M185.4 164.27 223.79 198.31 202.53 221.59C200.52 223.8 197.01 223.67 195.16 221.32L171.95 191.88 181.64 165.23C182.21 163.67 184.16 163.18 185.4 164.28Z" stroke-width="0" fill="#F8EEE2"/><path d="M198.96 224.42C198.89 224.42 198.81 224.42 198.74 224.42 196.95 224.35 195.28 223.51 194.17 222.1L170.53 192.11 180.46 164.8C180.87 163.68 181.81 162.83 182.97 162.53 184.12 162.23 185.35 162.53 186.25 163.33L225.6 198.22 203.48 222.44C202.32 223.71 200.69 224.43 198.98 224.43Z" stroke-width="0" fill="#2FC3B0"/></g></g><path d="M252.14 342.2 235.76 242.5 229.85 241.26 229.94 239.06 224.65 240.17 219.37 239.06 219.45 241.26 213.55 242.5 197.16 342.2 224.56 385.1 224.65 382.51 224.75 385.1 252.14 342.2Z" stroke-width="0" fill="#186258"/></g><g><rect x="124.56" y="263.22" rx="3.13" ry="3.13" width="120.16" height="179" stroke-width="0" fill="#090909"/><g><g><path d="M251.95 377.26 252.18 376.01C252.92 371.93 250.21 368.02 246.12 367.28L237.38 365.7 243.92 366.88C247.66 367.56 251.24 365.08 251.91 361.34 252.75 356.71 249.79 352.24 245.19 351.24 239.96 350.11 232.87 349.08 225.96 349.64 212.61 350.73 182.71 350.89 182.71 350.89L160.58 354.56 163.67 416.01 222.63 407.22C227.59 408.12 232.35 404.82 233.24 399.86 233.5 398.41 232.54 397.03 231.1 396.77L228.62 396.32 235.09 397.49C239.65 398.32 244.01 395.29 244.84 390.73L245.01 389.78C245.62 386.42 243.39 383.2 240.03 382.59L231.11 380.98 243.39 383.2C247.4 383.93 251.23 381.26 251.96 377.26Z" stroke-width="0" fill="#FF9677"/><path d="M234.11 366.87C233.25 366.68 232.7 365.85 232.86 364.98 233.03 364.09 233.88 363.51 234.76 363.67L246.41 365.82C247.27 365.88 247.88 366.83 247.72 367.72 247.55 368.61 246.7 369.19 245.82 369.03L234.17 366.88C234.17 366.88 234.13 366.88 234.11 366.87Z" stroke-width="0" fill="#FD6A48"/><path d="M242.84 385.06C242.84 385.06 242.82 385.06 242.82 385.06L228.26 381.61C227.38 381.4 226.84 380.52 227.05 379.64 227.26 378.76 228.15 378.32 229.02 378.43L243.58 381.88C244.46 382.09 245 382.97 244.79 383.85 244.58 384.72 243.72 385.26 242.85 385.07Z" stroke-width="0" fill="#FD6A48"/><path d="M221.66 396.26C220.8 396.07 220.25 395.24 220.41 394.37 220.58 393.48 221.43 392.9 222.32 393.06L233.27 395.09C234.15 395.19 234.74 396.1 234.58 396.99 234.41 397.88 233.56 398.46 232.67 398.3L221.72 396.27C221.72 396.27 221.69 396.27 221.67 396.26Z" stroke-width="0" fill="#FD6A48"/></g><path d="M181.6 351.08C181.6 351.08 191.78 340.27 203.13 340.06 214.47 339.85 230.99 350.58 230.99 350.58L181.6 351.08Z" stroke-width="0" fill="#FF9677"/><path d="M196.9 351.58 229.5 349.65C229.5 349.65 199.93 346.18 196.9 351.58Z" stroke-width="0" fill="#FD6A48"/></g><g><g><path d="M46.37 450.31C32.85 447.44 20.97 440.25 12.38 429.17-3.77 408.34-4.12 379.62 11.32 353.76L77.84 221.75C88.1 201.4 115.02 254.27 115.02 254.27L99.96 359.31 163.53 343.62C168 342.52 172.33 345.88 172.37 350.49L172.91 417.09C172.95 421.52 169.97 425.4 165.69 426.52L82.44 448.29C69.93 452.1 57.59 452.69 46.38 450.31Z" stroke-width="0" fill="#2FC3B0"/><path d="M83.92 218.35 83.92 218.35C81.93 218.35 80.31 219.65 78.97 222.32L12.45 354.33C-2.72 379.76-2.35 408.11 13.38 428.4 21.65 439.06 33.15 446.21 46.63 449.08L46.63 449.08C57.76 451.44 70.01 450.76 82.06 447.09L165.36 425.31C169.09 424.34 171.67 420.96 171.64 417.11L171.1 350.51C171.09 348.7 170.26 347.03 168.83 345.92 167.4 344.81 165.58 344.42 163.82 344.86L98.44 360.99 113.7 254.49C108.36 244.09 93.15 218.35 83.92 218.35Z" stroke-width="0" fill="#2FC3B0"/></g><path d="M98.17 361.2 114.17 298.99C114.34 298.31 115.03 297.91 115.71 298.08 116.39 298.25 116.79 298.94 116.62 299.62L101.75 357.43 124.18 350.38C124.85 350.17 125.55 350.54 125.76 351.21 125.97 351.87 125.6 352.58 124.93 352.79L98.17 361.2Z" stroke-width="0" fill="#186258"/><path d="M158.89 418.89C155.64 418.89 152.99 416.24 152.99 412.99 152.99 409.74 155.64 407.09 158.89 407.09 162.14 407.09 164.79 409.74 164.79 412.99 164.79 416.24 162.14 418.89 158.89 418.89ZM158.89 409.61C157.03 409.61 155.51 411.13 155.51 412.99 155.51 414.85 157.03 416.37 158.89 416.37 160.75 416.37 162.27 414.85 162.27 412.99 162.27 411.13 160.75 409.61 158.89 409.61Z" stroke-width="0" fill="#186258"/></g></g></g></svg>