<svg viewBox="0 0 414.14 1006.12" xmlns="http://www.w3.org/2000/svg" xmlns:xlink="http://www.w3.org/1999/xlink" id="Layer_1" overflow="hidden"><defs></defs><g><path d="M324.93 150.31C320.73 141.21 313.2 134.25 306.82 126.68 301.72 120.63 296.63 114.59 291.53 108.54 283.39 98.89 278.09 87.27 276.04 74.97L275.9 67.35C275.75 58.82 273.97 50.71 270.89 43.28 270.62 41.64 270.2 40.24 269.6 39.15 259.49 16.47 236.95 0.48 210.49 0.01 174.04-0.64 143.97 28.38 143.32 64.83L143.04 80.79C142.98 83.88 143.32 86.89 143.94 89.79L131.95 114.49C122.95 138.77 141.06 156.12 153.03 158.76 169.79 162.46 172.82 175.36 175.64 184.41 177.04 184.31 178.44 184.23 179.86 184.19L179.86 124.76C180.41 124.78 180.96 124.82 181.53 124.81L223.34 124.06C223.04 158.34 214.59 192.19 198.45 222.7L193.62 231.84C190.46 237.82 195.33 244.89 202.04 244.06L264.96 236.3C275.89 234.95 286.51 231.72 296.33 226.74 322.7 213.37 337.73 177.98 324.96 150.31Z" stroke-width="0" fill="#090909"/><g><path d="M260.2 83.71 251.88 83.66 251.88 82.46C251.88 82.46 227.9 69.31 227.9 69.31 213.11 61.2 204.49 46.26 203.73 30.57 202.82 30.69 201.91 30.79 201.02 30.97 200.01 51.58 185.68 68.65 166.43 73.77L166.37 83.11 160.68 83.07C152.56 83.02 145.94 89.56 145.89 97.67L145.89 98.94C145.83 107.06 152.37 113.68 160.48 113.73L166.17 113.77 166.17 116.08C166.07 128.94 171.7 140.48 180.63 148.38L180.48 172.13C180.48 172.43 180.49 172.78 180.51 173.15 181.54 191.76 210.13 299.96 210.13 299.96 210.13 299.96 235.15 190.72 235.92 173.16 235.93 172.92 235.94 172.69 235.94 172.49L236.09 149.36C245.53 141.58 251.59 129.83 251.67 116.64L251.67 114.33C251.67 114.33 260.01 114.38 260.01 114.38 268.13 114.43 274.75 107.89 274.8 99.78L274.8 98.51C274.86 90.39 268.32 83.77 260.21 83.72Z" stroke-width="0" fill="#FFA484"/><path d="M208.24 171.02C223.58 171.02 236.01 163.19 236.01 153.53 236.01 152.9 235.95 152.28 235.85 151.66 229.03 156.88 220.51 159.99 211.25 159.93L205.98 159.9C196.43 159.84 187.69 156.43 180.83 150.81 180.77 151.05 180.7 151.29 180.65 151.54L180.63 155.41C182.12 164.18 193.91 171.01 208.24 171.01Z" stroke-width="0" fill="#FD6A48"/><path d="M260.52 105.11C260.22 105.11 259.92 105 259.68 104.79L255.21 100.81 261.07 94.19C261.53 93.67 262.33 93.62 262.85 94.08 263.37 94.54 263.42 95.34 262.96 95.86L258.77 100.59 261.36 102.9C261.88 103.36 261.92 104.16 261.46 104.68 261.21 104.96 260.87 105.1 260.52 105.1Z" stroke-width="0" fill="#FD6A48"/><path d="M160.12 105.11C159.77 105.11 159.42 104.96 159.17 104.68 158.71 104.15 158.77 103.36 159.29 102.9L161.91 100.62 157.78 95.83C157.33 95.3 157.38 94.51 157.91 94.05 158.43 93.6 159.23 93.65 159.69 94.18L165.46 100.87 160.94 104.8C160.7 105.01 160.41 105.11 160.11 105.11Z" stroke-width="0" fill="#FD6A48"/><path d="M165.43 115.03C165.43 118.73 162.43 121.72 158.74 121.72 155.05 121.72 152.05 118.72 152.05 115.03 152.05 111.34 155.05 108.34 158.74 108.34 162.43 108.34 165.43 111.34 165.43 115.03Z" stroke-width="0" fill="#F8EEE2"/><path d="M266.2 115.03C266.2 118.73 263.2 121.72 259.51 121.72 255.82 121.72 252.82 118.72 252.82 115.03 252.82 111.34 255.82 108.34 259.51 108.34 263.2 108.34 266.2 111.34 266.2 115.03Z" stroke-width="0" fill="#F8EEE2"/><path d="M203.61 142.66C203.24 142.66 202.88 142.5 202.63 142.19 202.19 141.65 202.28 140.85 202.82 140.42 207.46 136.66 212.55 139.77 212.76 139.91 213.35 140.28 213.53 141.06 213.15 141.65 212.78 142.24 212 142.41 211.41 142.05 211.24 141.95 207.62 139.77 204.4 142.39 204.17 142.58 203.89 142.67 203.61 142.67Z" stroke-width="0" fill="#FD6A48" opacity="0.57"/><g><path d="M223.06 90.77C222.22 92.52 222.96 94.61 224.7 95.45 226.45 96.29 228.54 95.55 229.39 93.81 230.23 92.06 229.49 89.96 227.75 89.12 226 88.28 223.9 89.01 223.06 90.76Z" stroke-width="0" fill="#090909"/><g><path d="M209.28 87.31 209.05 93.94C209.02 95.38 207.83 96.52 206.39 96.49L203.8 96.44C201.84 96.4 200.22 97.96 200.18 99.92L200.18 99.92C200.08 104.78 203.94 108.8 208.8 108.89L212.86 108.97" stroke-width="0" fill="#FFA484"/><path d="M212.86 110.24 212.84 110.24 208.78 110.16C203.23 110.05 198.81 105.45 198.92 99.9 198.94 98.62 199.47 97.42 200.4 96.53 201.33 95.64 202.55 95.17 203.83 95.19L206.42 95.24C206.8 95.26 207.12 95.12 207.38 94.87 207.64 94.62 207.78 94.29 207.79 93.93L208.02 87.28C208.04 86.58 208.67 86.01 209.33 86.06 210.02 86.08 210.57 86.67 210.55 87.36L210.32 93.99C210.3 95 209.88 95.97 209.14 96.68 208.39 97.4 207.43 97.78 206.38 97.76L203.79 97.71C203.17 97.69 202.6 97.92 202.16 98.35 201.72 98.77 201.47 99.34 201.46 99.95 201.38 104.11 204.69 107.55 208.85 107.64L212.91 107.72C213.61 107.73 214.16 108.31 214.15 109.01 214.14 109.7 213.57 110.25 212.89 110.25Z" stroke-width="0" fill="#FD6A48"/></g><g><path d="M224.86 111.5 225.08 112.74C225.58 115.62 223.74 118.4 220.89 119.06L211.87 121.15" stroke-width="0" fill="#FFA484"/><path d="M211.86 122.41C211.29 122.41 210.77 122.02 210.63 121.43 210.47 120.75 210.9 120.07 211.57 119.92L220.59 117.83C222.79 117.32 224.21 115.18 223.82 112.96L223.6 111.72C223.48 111.03 223.94 110.38 224.62 110.26 225.29 110.14 225.96 110.6 226.08 111.29L226.3 112.53C226.92 116.07 224.65 119.48 221.15 120.3L212.13 122.39C212.03 122.41 211.94 122.42 211.84 122.42Z" stroke-width="0" fill="#FD6A48"/></g><path d="M230.15 97.52C229.92 97.52 229.69 97.46 229.48 97.33 226.69 95.57 222.9 97.38 222.86 97.4 222.24 97.7 221.48 97.45 221.18 96.82 220.87 96.2 221.13 95.44 221.75 95.13 221.95 95.03 226.83 92.69 230.82 95.19 231.41 95.56 231.59 96.34 231.22 96.93 230.98 97.31 230.57 97.52 230.15 97.52Z" stroke-width="0" fill="#FD6A48"/><path d="M234.82 79.04C233.68 79.5 232.21 79.33 230.79 79.24 229.36 79.12 227.92 79.04 226.66 79.01 225.4 78.98 223.96 79 222.52 79.05 221.09 79.07 219.61 79.18 218.51 78.66 217.44 78.18 217.03 76.86 218.35 75.28 219.59 73.74 222.76 72.11 226.93 72.2 231.09 72.31 234.14 74.08 235.25 75.67 236.44 77.31 235.93 78.6 234.83 79.03Z" stroke-width="0" fill="#090909"/><path d="M190.7 90.77C191.54 92.52 190.8 94.61 189.06 95.45 187.31 96.29 185.22 95.55 184.37 93.81 183.53 92.06 184.27 89.96 186.01 89.12 187.76 88.28 189.85 89.01 190.7 90.76Z" stroke-width="0" fill="#090909"/><path d="M183.61 97.52C183.19 97.52 182.78 97.31 182.54 96.93 182.17 96.34 182.35 95.56 182.94 95.19 186.93 92.68 191.81 95.03 192.01 95.13 192.63 95.44 192.89 96.19 192.58 96.82 192.28 97.45 191.52 97.7 190.89 97.4 190.85 97.38 187.06 95.58 184.27 97.33 184.06 97.46 183.83 97.52 183.6 97.52Z" stroke-width="0" fill="#FD6A48"/><path d="M179.43 77.73C180.57 78.19 182.04 78.02 183.46 77.93 184.89 77.81 186.33 77.73 187.59 77.7 188.85 77.67 190.29 77.69 191.73 77.74 193.16 77.76 194.64 77.87 195.74 77.35 196.81 76.87 197.22 75.55 195.9 73.97 194.66 72.43 191.49 70.8 187.32 70.89 183.16 71 180.11 72.77 179 74.36 177.81 76 178.32 77.29 179.42 77.72Z" stroke-width="0" fill="#090909"/></g></g></g><g><path d="M170.59 965.55 170.63 965.81C171.88 973.18 172.38 980.66 172.1 988.13L171.55 1002.72 67.4 1002.72 67.4 1002.39C67.4 994.01 72.12 986.34 79.59 982.56L138.96 956.87 170.58 965.56Z" stroke-width="0" fill="#090909"/><path d="M123.03 961.37 96.76 975.12C103.61 982.26 117.22 987.48 126.39 983.76L170.62 965.8 174.53 917.81 120.26 917.81 123.02 961.37Z" stroke-width="0" fill="#FFA484"/><path d="M342.42 966.38 324.04 962.87 324.04 962.87C318.91 971.33 306.77 979.4 297.01 977.77L249.93 969.9C250.31 977.37 251.47 984.77 253.37 992L257.08 1006.12 279.69 1001.07 358.72 983.41 358.65 983.08C356.82 974.9 350.55 968.45 342.42 966.39Z" stroke-width="0" fill="#090909"/><path d="M324.05 962.88 324.05 962.88C324.05 962.88 295.13 954.73 295.13 954.73L289.12 902.93 243.06 919.2 249.93 969.9 297.01 977.77C306.77 979.4 318.92 971.34 324.04 962.87Z" stroke-width="0" fill="#FFA484"/><path d="M324.85 540.16 324.89 539.17 324.83 539.17C324.55 525.89 323.36 470.8 322.45 463.4 319.66 440.66 311.45 418.76 298.34 399.54L288.66 385.34 279.41 371.78 272.77 362.04 207.05 366.67 141.33 362.04 134.69 371.78 125.44 385.34 115.76 399.54C97.79 425.9 89.03 457.28 90.81 488.96L89.98 520.03 89.15 519.89 89.56 535.5 89.15 550.98 89.97 550.98 100.09 932.7C100.22 937.44 104.1 941.22 108.84 941.22L179.53 941.22C185.53 941.22 190.45 936.48 190.68 930.48L204.36 566.61 231.64 943.89C231.79 945.91 233.72 947.31 235.69 946.82L304.13 929.76C307.36 928.96 309.67 926.12 309.8 922.79L324.79 542.08 324.9 542.08C324.9 542.08 324.89 541.38 324.86 540.17Z" stroke-width="0" fill="#160601"/></g><g><path d="M258.49 173.18C258.49 173.18 258.49 173.16 258.49 173.16L258.03 173.16C257.91 173.16 257.8 173.14 257.67 173.14L257.67 173.16C257.67 173.16 235.91 173.16 235.91 173.16 235.15 190.72 210.12 299.96 210.12 299.96 210.12 299.96 181.52 191.76 180.5 173.15L152.55 173.15C152.55 173.15 152.55 173.15 152.55 173.15L151.99 173.15C151.99 173.15 151.99 173.17 151.99 173.18 129.3 173.79 122.08 184.74 106.94 206.87L147.93 394.11 161.04 417.16C175.29 423.48 190.2 426.56 205.1 426.4 220 426.56 234.91 423.49 249.16 417.16L259.5 401.16 303.27 206.87C288.19 184.83 280.95 173.88 258.48 173.2Z" stroke-width="0" fill="#F8EEE2"/><g><g><path d="M217.89 334.81C215.24 334.81 213.09 332.66 213.09 330.01 213.09 327.36 215.24 325.21 217.89 325.21 220.54 325.21 222.69 327.36 222.69 330.01 222.69 332.66 220.54 334.81 217.89 334.81ZM217.89 327.73C216.63 327.73 215.61 328.75 215.61 330.01 215.61 331.27 216.63 332.29 217.89 332.29 219.15 332.29 220.17 331.27 220.17 330.01 220.17 328.75 219.15 327.73 217.89 327.73Z" stroke-width="0" fill="#BF9229"/><path d="M217.89 373.87C215.24 373.87 213.09 371.72 213.09 369.07 213.09 366.42 215.24 364.27 217.89 364.27 220.54 364.27 222.69 366.42 222.69 369.07 222.69 371.72 220.54 373.87 217.89 373.87ZM217.89 366.79C216.63 366.79 215.61 367.81 215.61 369.07 215.61 370.33 216.63 371.35 217.89 371.35 219.15 371.35 220.17 370.33 220.17 369.07 220.17 367.81 219.15 366.79 217.89 366.79Z" stroke-width="0" fill="#BF9229"/></g><g><g><path d="M169.29 226.52C169.29 226.52 169.28 173.14 169.28 173.14L146.34 173.14C119.55 173.51 111.23 182.66 93.55 201.3L79.33 218.88 56.2 244.89 10 307.51C-8.38 332.42-0.62 367.81 26.49 382.75L95.89 425.8C83.89 461.9 76.27 502.26 73.57 544.11 73.49 545.4 73.14 552.64 72.58 564.74L72.58 564.74C125.55 562.73 167.8 497.07 167.81 416.72 167.81 398 167.82 378.64 167.84 359.41 168.35 330.84 168.3 297.38 169.12 275.76 170.1 249.79 170.18 228.51 169.3 226.54ZM112.99 290.99 110.14 303.31C107.25 315.83 113.18 328.69 124.96 335.41L124.96 335.41C124.96 335.41 124.51 345.56 124.51 345.56L118.64 361.9 117.12 366.12 75.41 328.68 112.98 290.98Z" stroke-width="0" fill="#FFC236"/><path d="M105.49 448.1C104.97 448.1 104.48 447.77 104.3 447.25 104.07 446.59 104.42 445.87 105.08 445.65 153.36 429.03 140.62 375.2 140.06 372.92 139.89 372.24 140.31 371.56 140.98 371.39 141.65 371.23 142.34 371.63 142.51 372.31 142.65 372.89 156.37 430.66 105.9 448.03 105.76 448.08 105.63 448.1 105.49 448.1Z" stroke-width="0" fill="#BF9229"/></g><g><path d="M404.13 307.51 357.93 244.89 334.8 218.88 320.58 201.3C302.9 182.66 294.58 173.51 267.79 173.14L244.85 173.14C244.85 173.14 244.85 226.5 244.84 226.52 243.96 228.49 244.04 249.78 245.02 275.74 245.84 297.36 245.8 330.82 246.3 359.39 246.32 378.62 246.32 397.98 246.33 416.7 246.33 497.05 288.59 562.71 341.56 564.72L341.56 564.72C341 552.62 340.65 545.39 340.57 544.09 337.86 502.24 330.24 461.88 318.25 425.78L387.65 382.73C414.76 367.79 422.51 332.4 404.14 307.49ZM297.01 366.12 295.49 361.9 289.62 345.56 289.17 335.41 289.17 335.41C300.95 328.69 306.88 315.84 303.99 303.31L301.14 290.99 338.71 328.69 297 366.13Z" stroke-width="0" fill="#FFC236"/><path d="M319.32 448.1C319.18 448.1 319.05 448.08 318.91 448.03 268.44 430.65 282.16 372.89 282.31 372.31 282.48 371.64 283.16 371.22 283.84 371.39 284.52 371.56 284.93 372.24 284.76 372.92 284.19 375.2 271.46 429.03 319.74 445.65 320.4 445.88 320.75 446.59 320.52 447.25 320.34 447.77 319.85 448.1 319.33 448.1Z" stroke-width="0" fill="#BF9229"/><path d="M283.38 296.62 258.22 296.62C255.04 296.62 252.46 294.03 252.46 290.86 252.46 287.69 255.05 285.1 258.22 285.1L283.38 285.1C286.56 285.1 289.14 287.69 289.14 290.86 289.14 294.03 286.56 296.62 283.38 296.62ZM258.22 287.62C256.43 287.62 254.98 289.07 254.98 290.86 254.98 292.65 256.43 294.1 258.22 294.1L283.38 294.1C285.17 294.1 286.62 292.65 286.62 290.86 286.62 289.07 285.17 287.62 283.38 287.62L258.22 287.62Z" stroke-width="0" fill="#BF9229"/></g></g></g></g></svg>