<svg viewBox="0 0 1043.76 715.92" xmlns="http://www.w3.org/2000/svg" xmlns:xlink="http://www.w3.org/1999/xlink" id="Layer_1" overflow="hidden"><defs></defs><path d="M423.16 160.15C410.45 131.62 380.76 112.73 349.82 108.47 318.88 104.21 287.16 113.17 260.04 128.66 236.74 141.97 215.46 161.21 206.63 186.54 196.28 216.22 204.41 248.67 207.5 279.95 212.78 333.49 202.85 387.23 192.96 440.11 266.8 434.95 341.16 437.28 414.54 447.05 413.52 364.67 412.49 282.29 411.47 199.9" stroke-width="0" fill="#FBA92D"/><g><path d="M709.25 0C706.16 0 703.13 0.07 700.26 0.2 676.83 1.25 654.1 6.45 632.7 15.67 621.96 20.28 611.89 25.91 602.75 32.39 593.19 39.17 584.78 46.84 577.76 55.2 574.11 59.55 570.77 64.16 567.84 68.91 565.64 72.49 563.75 76.34 562.22 80.35 560.78 84.14 559.67 88.16 558.92 92.29 558.16 96.47 557.81 100.61 557.87 104.58 557.98 112.93 559.93 120.67 563.49 126.94 565.38 130.25 567.75 133.17 570.52 135.61 573.4 138.15 576.82 140.22 580.7 141.77 585.15 143.52 590.3 144.47 596.01 144.59L595.86 144.77 595.64 145.12C594.98 146.21 594.44 147.37 594.04 148.25 593.28 149.98 592.78 151.9 592.57 153.94 592.22 157.31 593.04 160.87 594.93 164.22 596.61 167.18 599.15 169.95 602.69 172.69 605.66 174.99 609.25 177.04 613.66 178.96 617.74 180.75 622.11 182.12 626.67 183.05 630.28 183.77 633.44 184.13 636.34 184.13 637.06 184.13 637.78 184.11 638.5 184.06 643.6 184.34 648.71 184.48 654.24 184.48 661.2 184.48 668.61 184.27 677.58 183.82L678.41 183.78C683.06 183.54 687.86 183.3 692.59 183.18 697.45 183.06 702.3 183 707.16 182.97L712.77 182.93C731.1 182.81 750.06 182.68 768.56 180.33 790.51 177.54 807.85 171.94 821.58 163.21 821.86 163.03 822.06 162.78 822.17 162.47 822.46 162.29 822.66 162.03 822.81 161.61 827.13 150.13 830.36 138.16 832.43 126.06 834.46 114.11 835.37 101.82 835.15 89.51 834.95 78.98 833.91 68.39 832.05 58.04 830.85 51.33 829.3 44.91 827.45 38.98 826.39 35.57 825.18 32.23 823.84 29.05 822.43 25.72 820.97 22.83 819.38 20.22 817.65 17.39 815.78 14.96 813.81 13.01 811.72 10.92 809.48 9.36 807.14 8.38 806.19 7.97 805.32 7.67 804.48 7.47 803.62 7.26 802.7 7.11 801.65 7.04 801.28 7.01 800.9 6.99 800.53 6.99 799 6.99 797.37 7.22 795.68 7.68 793.61 8.24 791.48 9.17 789.18 10.53 787.45 11.56 785.71 12.81 783.88 14.34 760.18 4.82 735.09 0.01 709.23 0.01M688.23 4.12 688.29 4.1 688.46 4.12C687.77 4.19 687.08 4.26 686.39 4.33 686.95 4.26 687.52 4.2 688.08 4.13L688.08 4.11C688.08 4.11 688.17 4.11 688.17 4.11 688.17 4.11 688.16 4.11 688.15 4.11 688.16 4.11 688.17 4.11 688.19 4.11L688.23 4.11C688.23 4.11 688.25 4.11 688.26 4.11 688.26 4.11 688.26 4.11 688.24 4.11M604.04 35.12 604.21 35.02C603.84 35.28 603.47 35.54 603.1 35.8 603.41 35.57 603.73 35.34 604.04 35.12L604.04 35.12Z" stroke-width="0" fill="#591A03"/><path d="M620.4 155.66C619.55 155.66 618.72 155.71 617.86 155.8 615.24 156.09 612.87 156.9 610.82 158.21 609.03 159.36 607.52 161.01 606.32 163.12 605.31 164.93 604.62 167.12 604.27 169.64 603.94 172.02 603.94 174.55 604.27 177.39 604.59 180.05 605.21 182.88 606.13 185.8 607 188.56 608.15 191.36 609.54 194.11 612.46 199.91 616.13 204.99 620.47 209.19 623.63 212.24 627.04 214.61 630.61 216.23 633.94 217.75 637.56 218.56 641.08 218.56 641.53 218.56 641.97 218.55 642.42 218.52 642.8 218.49 643.15 218.31 643.41 218.01 643.68 217.69 643.81 217.29 643.78 216.89 643.71 216.11 643.05 215.53 642.25 215.53L642.03 215.56C643.41 213.78 644.57 211.63 645.47 209.18 646.52 206.31 647.2 203.1 647.51 199.63 648.13 192.74 647.29 185.4 645.09 178.38 644.04 175.03 642.62 171.78 640.84 168.74 639.14 165.82 637.09 163.26 634.74 161.14 632.41 159.03 629.71 157.45 626.91 156.58 625.39 156.11 623.88 155.82 622.29 155.72 621.66 155.67 621.02 155.65 620.38 155.65" stroke-width="0" fill="#CA5331"/><path d="M610.42 167.56C610 167.68 609.76 168.15 609.88 168.56 610.01 168.98 610.47 169.21 610.88 169.09 611.34 168.96 611.8 168.85 612.27 168.76 613.21 168.63 614.14 168.6 615.08 168.67 616.2 168.8 617.28 169.05 618.35 169.41 619.99 170.03 621.49 170.89 622.93 171.88 622.82 171.81 622.71 171.73 622.6 171.66 624.16 172.75 625.6 173.99 626.99 175.3 628.25 176.49 629.44 177.74 630.56 179.06 631.22 179.85 631.85 180.66 632.46 181.5 632.8 181.96 633.21 182.3 633.78 182.43 634.33 182.55 634.91 182.45 635.38 182.15 636.34 181.54 636.67 180.19 636.04 179.22 633.22 174.93 629.23 171.49 624.62 169.27 622.42 168.2 620.01 167.48 617.59 167.11 616.73 166.98 615.86 166.91 614.99 166.91 613.44 166.91 611.9 167.12 610.41 167.56M612.15 168.78C612.15 168.78 612.09 168.78 612.06 168.79 612.09 168.79 612.12 168.79 612.15 168.78" stroke-width="0" fill="#B24A2B"/><path d="M725.37 38.86C716.15 40.38 706.75 42.51 697.43 45.22 687.52 48.09 677.56 51.62 667.85 55.7 657.66 59.98 648.11 64.74 639.46 69.83 630.35 75.22 622.6 80.74 615.78 86.7 615.6 86.38 615.26 86.16 614.88 86.08 614.77 86.06 614.67 86.05 614.56 86.05 614.27 86.05 613.98 86.13 613.73 86.3 613.36 86.55 613.22 86.88 613.11 87.23 612.15 90.04 611.38 92.94 610.82 95.86 610.33 98.42 610.01 101.18 609.83 104.31 609.57 109.39 609.95 114.71 611.01 120.58 612.85 130.8 616.48 140.72 619.99 150.32L620.67 152.17C622.46 157.09 623.94 161.24 625.3 165.49 626.68 169.83 627.85 174.32 628.78 178.84L628.76 178.64 628.76 178.64C629.71 183.52 630.49 188.52 631.25 193.35 632.15 199.07 633.08 205 634.35 210.77 635.61 216.56 637.15 221.64 639.07 226.29 641.13 231.33 643.75 236.02 646.87 240.23 649.5 243.8 652.56 247.1 655.95 250.05 659.12 252.8 662.7 255.29 666.59 257.45 673.72 261.42 681.9 264.14 690.93 265.53 695.27 266.19 699.82 266.53 704.43 266.53 708.61 266.53 712.92 266.25 717.23 265.71 721.72 265.14 726.26 264.26 730.73 263.1 730.74 263.47 730.75 263.84 730.76 264.21 730.77 264.25 730.78 264.3 730.78 264.35 730.76 266.16 730.84 267.98 730.65 269.78 730.49 271.3 730.23 272.82 729.83 274.31 729.42 275.81 728.91 277.31 728.23 278.72 728.1 278.98 727.97 279.24 727.83 279.5 727.13 281.04 726.29 282.51 725.26 283.85 724.83 284.5 724.37 285.13 723.89 285.76 721.51 288.76 718.56 291.62 714.85 294.5 713.09 295.85 711.19 297.19 709.2 298.49 708.48 298.96 708.25 299.84 708.66 300.53 708.71 300.61 708.76 300.68 708.81 300.75 708.74 301.34 709.03 301.92 709.54 302.21 716.03 305.92 723.78 308.53 732.6 309.99 738.45 310.96 744.54 311.43 751.2 311.43 753.96 311.43 756.86 311.35 759.81 311.18 768.93 310.66 778.34 309.36 788.6 307.24 797.7 305.34 807.01 302.82 816.28 299.71 827.23 296.03 836.84 292.02 845.64 287.46 845.95 287.3 846.17 287.04 846.29 286.7L846.39 286.7C846.68 286.7 846.89 286.64 847.1 286.51 847.44 286.32 847.69 285.99 847.79 285.62 847.89 285.23 847.83 284.8 847.63 284.46 847.46 284.15 847.1 283.82 846.74 283.77 844.34 283.41 841.84 282.7 839.34 281.64 835.68 280.02 832.07 277.84 828.32 274.96 824.31 271.84 820.6 268.11 817.3 263.89 813.45 258.85 810.12 253.07 807.4 246.68L807.47 246.96C804.09 238.8 801.68 229.78 800.35 220.14 799.1 210.65 798.93 201.13 799.86 191.82 799.86 191.82 799.88 191.82 799.89 191.82 799.95 191.82 800.02 191.8 800.09 191.77 804.89 189.8 809.3 187.45 813.22 184.78 817.42 181.91 821.13 178.63 824.26 175.02 827.56 171.22 830.21 167.03 832.14 162.55 833.05 160.45 833.8 158.29 834.39 156.15 834.89 154.33 835.28 152.38 835.58 150.15 836.05 146.61 835.97 142.98 835.36 139.33 834.83 136.19 833.78 133.09 832.23 130.13 829.47 124.82 825.06 120.46 819.8 117.84 817.2 116.55 814.41 115.71 811.5 115.33 810.51 115.2 809.5 115.14 808.48 115.14 806.69 115.14 804.86 115.34 803.05 115.75 800.28 116.37 797.46 117.59 794.9 119.29 792.21 121.08 789.82 123.4 787.57 126.39 788.35 123.07 789.07 119.38 789.83 114.84 790.57 110.38 791.15 105.93 791.54 101.62 792.46 91.22 792.16 82.13 790.59 73.83 789.74 69.3 788.38 64.94 786.55 60.89 784.72 56.79 782.27 53.06 779.29 49.79 776.13 46.32 772.3 43.51 767.92 41.43 763.86 39.51 759.37 38.24 754.18 37.55 751.28 37.17 748.22 36.97 745.06 36.97 739.35 36.97 733.27 37.55 725.36 38.86" stroke-width="0" fill="#DB633C"/><path d="M725.36 38.82C716.11 40.34 706.71 42.48 697.41 45.18 687.51 48.05 677.56 51.57 667.83 55.66 657.64 59.94 648.09 64.7 639.43 69.79 630.35 75.14 622.61 80.67 615.74 86.66 615.62 86.37 615.28 86.12 614.88 86.03 614.75 86.01 614.65 86 614.55 86 614.24 86 613.95 86.09 613.7 86.26 613.31 86.51 613.17 86.89 613.06 87.22 612.1 90.03 611.33 92.93 610.76 95.86 610.28 98.35 609.96 101.12 609.78 104.31 609.6 107.68 609.71 111.17 610.12 114.87 610.67 114.98 611.22 115.08 611.77 115.17 616.08 115.91 620.42 116.35 624.77 116.48 629.01 116.59 633.24 116.45 637.46 116.06 637.41 116.06 637.37 116.06 637.33 116.08 642.81 115.56 648.25 114.63 653.6 113.34 658.95 112.04 664.21 110.4 669.37 108.45 669.37 108.45 669.35 108.45 669.34 108.46 669.35 108.46 669.36 108.46 669.37 108.45 669.39 108.45 669.41 108.44 669.43 108.43 669.43 108.43 669.43 108.43 669.44 108.43 669.44 108.43 669.44 108.43 669.43 108.43 669.44 108.43 669.45 108.43 669.47 108.42 669.47 108.42 669.45 108.42 669.45 108.42 682.36 103.51 694.53 96.79 705.72 88.72 705.72 88.72 705.72 88.72 705.7 88.72 705.7 88.72 705.68 88.73 705.67 88.74 705.67 88.74 705.69 88.72 705.7 88.72L705.74 88.69C705.74 88.69 705.76 88.67 705.77 88.66 705.77 88.66 705.75 88.68 705.74 88.69 706.3 88.28 706.87 87.86 707.43 87.44 707.54 87.36 707.65 87.3 707.78 87.31 707.87 87.31 707.95 87.34 708.03 87.39 708.17 87.47 708.28 87.65 708.26 87.83 708.19 88.32 708.14 88.82 708.14 89.32 708.14 89.79 708.14 90.25 708.19 90.71 708.24 91.12 708.3 91.53 708.4 91.93 708.51 92.36 708.63 92.78 708.79 93.19 708.79 93.18 708.79 93.16 708.77 93.15 708.95 93.61 709.14 94.05 709.38 94.48 709.63 94.93 709.91 95.36 710.21 95.77 710.19 95.73 710.16 95.7 710.14 95.66 710.5 96.15 710.89 96.61 711.32 97.04 711.68 97.39 712.06 97.73 712.44 98.06 713.13 98.61 713.86 99.12 714.62 99.58 715.31 99.99 716.02 100.35 716.74 100.7L716.74 100.7C716.74 100.7 716.74 100.7 716.73 100.7 716.73 100.7 716.73 100.7 716.74 100.7 716.74 100.7 716.75 100.7 716.76 100.7 716.77 100.7 716.78 100.7 716.79 100.72 716.79 100.72 716.81 100.72 716.82 100.72 716.82 100.72 716.8 100.72 716.79 100.72 716.78 100.72 716.77 100.72 716.76 100.71 716.78 100.73 716.81 100.73 716.84 100.75 716.84 100.75 716.84 100.75 716.82 100.74 719.27 101.83 721.84 102.57 724.48 103.04 724.44 103.04 724.4 103.02 724.36 103.02 726.09 103.31 727.85 103.5 729.61 103.54 731.38 103.6 733.15 103.54 734.9 103.36 734.86 103.36 734.82 103.36 734.77 103.37 736.86 103.16 738.94 102.8 740.99 102.29 743.02 101.79 745 101.17 746.96 100.44 750.31 99.17 753.55 97.6 756.65 95.83 759.82 94.01 762.86 92 765.81 89.86 765.81 89.86 765.81 89.86 765.8 89.86 769.07 87.46 772.24 84.92 775.32 82.27 778.29 79.71 781.21 77.08 784.08 74.39 785.94 72.65 787.76 70.87 789.55 69.06 788.77 66.2 787.78 63.46 786.6 60.85 784.78 56.77 782.33 53.04 779.33 49.74 776.15 46.26 772.32 43.44 767.95 41.37 763.87 39.44 759.37 38.17 754.2 37.49 751.27 37.11 748.21 36.91 745.08 36.91 739.35 36.91 733.27 37.49 725.37 38.8" stroke-width="0" fill="#CA5331"/><path d="M716.75 100.7C716.75 100.7 716.75 100.7 716.75 100.7 716.75 100.7 716.75 100.7 716.75 100.7" stroke-width="0" fill="#CA5331"/><path d="M777.46 238.32C774.69 240.86 771.76 243.23 768.66 245.38 766.33 246.99 763.92 248.47 761.44 249.83 758.86 251.25 756.26 252.59 753.59 253.87 749.9 255.63 746.13 257.26 742.31 258.72 740.95 259.34 739.56 259.9 738.16 260.41 736.81 260.95 735.43 261.44 734.04 261.88 733.99 261.9 733.94 261.92 733.89 261.94 733.07 262.25 732.23 262.54 731.37 262.76 731.3 262.77 731.24 262.79 731.17 262.81 731.01 262.86 730.85 262.93 730.68 262.99 730.68 263.04 730.68 263.1 730.68 263.14 730.7 263.14 730.71 263.14 730.73 263.12 730.73 263.47 730.74 263.81 730.74 264.16 730.76 264.22 730.78 264.28 730.77 264.34 730.75 266.15 730.83 267.97 730.64 269.77 730.48 271.3 730.22 272.81 729.82 274.3 729.41 275.8 728.9 277.31 728.22 278.71 728.14 278.88 728.05 279.04 727.97 279.21 728.47 279.14 728.97 279.07 729.47 278.99 729.44 278.99 729.42 278.99 729.4 279 734.61 278.11 739.65 276.43 744.45 274.21 744.41 274.23 744.37 274.25 744.33 274.27 750.43 271.42 756.12 267.74 761.28 263.42 761.28 263.42 761.28 263.4 761.3 263.4 761.3 263.38 761.32 263.38 761.34 263.36 761.34 263.36 761.36 263.34 761.38 263.33L761.36 263.35C761.36 263.35 761.38 263.34 761.39 263.33L761.39 263.33C766.27 259.18 770.69 254.47 774.39 249.22L774.37 249.24C775.77 247.23 777.09 245.15 778.25 242.98 779.37 240.86 780.38 238.68 781.22 236.44L781.17 236.55C781.52 235.6 781.85 234.63 782.14 233.66 780.65 235.26 779.09 236.81 777.47 238.3" stroke-width="0" fill="#B24A2B"/><path d="M761.29 263.42 761.29 263.42C761.29 263.42 761.31 263.41 761.31 263.41 761.31 263.41 761.31 263.41 761.29 263.42" stroke-width="0" fill="#B24A2B"/><path d="M774.39 249.23C774.39 249.23 774.41 249.2 774.42 249.19 774.41 249.2 774.4 249.22 774.39 249.23" stroke-width="0" fill="#B24A2B"/><path d="M795.79 136.36C794.93 136.91 794.59 138.19 795.22 139.04 796.23 140.43 797.26 141.8 798.19 143.26 799.08 144.67 799.89 146.13 800.62 147.63 800.57 147.52 800.51 147.41 800.47 147.3 800.52 147.41 800.57 147.52 800.62 147.63L800.69 147.77C800.69 147.77 800.64 147.68 800.62 147.63 801.86 150.32 802.78 153.12 803.32 156.04 803.29 155.91 803.27 155.78 803.24 155.65 803.73 158.46 803.87 161.33 803.65 164.17 803.41 166.63 802.92 169.04 802.08 171.37L802.13 171.23C801.65 172.52 801.07 173.74 800.39 174.94 800.25 175.18 800.37 175.49 800.6 175.62 800.85 175.75 801.15 175.65 801.29 175.41 802.97 172.51 804.32 169.39 805.17 166.14 806.06 162.77 806.37 159.28 806.21 155.8 806.13 154.01 805.87 152.25 805.52 150.5 805.18 148.81 804.7 147.13 804.08 145.52 803.43 143.83 802.6 142.2 801.62 140.69 801.15 139.96 800.63 139.27 800.08 138.6 799.48 137.88 798.85 137.17 798.14 136.55 797.77 136.22 797.3 136.05 796.82 136.05 796.46 136.05 796.1 136.15 795.79 136.35M800.62 147.63C800.62 147.63 800.62 147.63 800.62 147.63L800.62 147.63" stroke-width="0" fill="#B24A2B"/><path d="M815.86 124.19C815.23 124.21 814.6 124.24 813.97 124.31 813.25 124.4 812.54 124.56 811.83 124.72 810.37 125.05 808.93 125.47 807.54 126.01 806.21 126.52 804.95 127.19 803.72 127.91 802.36 128.7 801.09 129.59 799.88 130.61 798.78 131.53 797.75 132.58 796.84 133.69 796.39 134.21 795.99 134.78 795.64 135.38 795.43 135.73 795.24 136.08 795.05 136.44 794.9 136.72 794.83 137.03 794.7 137.33 794.42 137.95 794.7 138.72 795.21 139.1 795.53 139.35 795.94 139.45 796.34 139.39 796.75 139.33 797.07 139.1 797.34 138.79 797.36 138.77 797.37 138.75 797.39 138.74 798.1 138.07 798.73 137.29 799.37 136.55 800.03 135.8 800.7 135.07 801.39 134.35 802.52 133.2 803.7 132.11 804.94 131.08 806.25 129.99 807.65 129.01 809.12 128.13 809.02 128.19 808.93 128.25 808.83 128.31 809.56 127.88 810.31 127.47 811.08 127.11 811.82 126.76 812.59 126.48 813.37 126.25 814.64 125.91 815.92 125.67 817.23 125.61 817.23 125.61 817.23 125.61 817.23 125.61 818.38 125.59 819.51 125.72 820.63 125.97 820.58 125.97 820.53 125.95 820.48 125.94 821.44 126.18 822.35 126.54 823.23 127 823.5 127.14 823.85 126.94 823.95 126.68 824.06 126.38 823.89 126.11 823.63 125.97 822.47 125.35 821.26 124.88 819.99 124.58 818.8 124.3 817.57 124.17 816.36 124.17 816.2 124.17 816.03 124.17 815.87 124.17" stroke-width="0" fill="#B24A2B"/><path d="M734.99 20.69C731.38 20.69 727.61 20.88 723.77 21.25 713.45 22.24 702.3 24.63 689.69 28.55 680.17 31.51 670.01 35.36 658.63 40.33 654.49 42.13 650.36 43.98 646.26 45.85 641.48 48.02 637.17 50.07 633.08 52.11 622.34 57.48 613.83 62.54 606.32 68.03 602.05 71.14 598.2 74.42 594.85 77.77 591.26 81.36 588.26 85.08 585.9 88.85 584.9 90.46 583.97 92.18 583.13 93.98 582.93 94.3 582.82 94.48 582.76 94.68 582.52 95.45 582.97 96.29 583.75 96.55 591.72 99.17 600.39 100.99 609.52 101.94 614.09 102.41 618.79 102.65 623.48 102.65 627.91 102.65 632.43 102.44 636.92 102.02 656.18 100.21 674.31 94.62 689.34 85.86 697.15 81.31 704.07 75.89 709.91 69.77 709.95 71.31 710.24 72.8 710.73 74.19 711.3 75.76 712.13 77.23 713.27 78.69 714.19 79.87 715.41 81 716.98 82.15 718.23 83.07 719.66 83.88 721.62 84.78 723.15 85.48 724.81 86.06 726.72 86.58 730.18 87.51 733.86 88 737.69 88.01 744.85 88.01 752.04 86.12 758.61 82.55 763.66 79.8 768.3 75.97 772.42 71.16 772.14 72.31 771.92 73.49 771.71 74.66 770.95 78.94 770.44 83.38 770.15 88.25 769.85 93.18 769.84 98.1 770.13 102.86 770.43 107.86 771.07 112.26 772.1 116.31 773.21 120.65 774.71 124.16 776.68 127.03 777.82 128.69 779.23 130.18 780.74 131.33 782.08 132.35 783.55 132.95 784.99 133.07 785.15 133.08 785.31 133.09 785.47 133.09 786.63 133.09 787.84 132.73 788.89 132.08 790.07 131.34 791.15 130.31 792.19 128.92 793.31 127.41 794.16 125.69 794.79 124.36 795.49 122.87 796.16 121.17 796.89 119.03 798.25 115.01 799.21 110.91 799.9 107.8 800.94 103.09 801.6 99.13 801.97 95.34 802.47 90.38 802.52 85.22 802.12 80.01 801.74 74.95 800.85 69.94 799.49 65.12 798.09 60.16 796.18 55.48 793.82 51.22 791.35 46.78 788.34 42.72 784.87 39.16 781.27 35.47 777.08 32.27 772.42 29.65 767.76 27.02 762.63 24.94 757.17 23.46 750.4 21.63 742.95 20.7 735 20.7M602.5 98.02C602.31 97.99 602.12 97.96 601.93 97.93L601.66 97.86C601.94 97.92 602.22 97.97 602.51 98.02" stroke-width="0" fill="#591A03"/><path d="M593 672.26 592.63 672.26C592.63 672.26 592.26 672.26 592.26 672.26 585.71 672.3 579.24 673.01 574.33 673.61 572.37 673.85 570.42 674.1 568.47 674.37L568.47 674.37C568.38 674.37 568.27 674.38 568.16 674.41 563.76 675 559.37 675.64 554.98 676.3 551.09 676.88 547.21 677.48 543.33 678.07L535.66 679.25C534.1 679.49 532.54 679.72 530.97 679.96 528.04 680.4 525.1 680.84 522.18 681.33 518.87 681.88 515.33 682.52 511.93 683.48 510.36 683.92 509.14 684.38 508.08 684.9 507.67 685.11 507.26 685.38 506.79 685.76 506.41 686.07 506.12 686.5 505.9 687.07 505.72 687.54 505.77 688.08 506.06 688.76 506.28 689.29 506.78 689.69 507.18 689.98 507.68 690.34 508.24 690.59 508.82 690.83 509.53 691.12 510.32 691.39 511.33 691.66 513.98 692.4 516.74 692.86 519.34 693.27 522.17 693.72 525.15 694.08 528.45 694.4 533.88 694.9 539.6 695.15 545.95 695.15 551.66 695.15 557.74 694.96 565.7 694.53 569.87 694.3 574.03 694.03 578.2 693.75 584.82 693.31 591.66 692.85 598.4 692.62 602.29 692.48 605.56 692.31 608.86 691.89 613.29 691.34 616.74 690.49 619.73 689.21 622.08 688.2 624.04 686.89 625.53 685.34 627.16 683.64 628.28 681.48 628.75 679.09 628.84 678.63 628.79 678.26 628.59 677.93 628.4 677.6 628.07 677.35 627.69 677.24 627.57 677.21 627.45 677.19 627.32 677.19 626.71 677.19 625.99 677.57 625.85 678.29 625.8 678.53 625.75 678.77 625.69 679 620.69 676.61 615.33 674.86 609.78 673.78 604.59 672.76 599.1 672.26 593 672.26" stroke-width="0" fill="#DB633C"/><path d="M549.76 683.61C547.9 683.91 546.06 684.35 544.25 684.89 542.69 685.36 541.18 685.97 539.75 686.77 538.43 687.51 537.13 688.37 536.07 689.46 535.51 690.03 534.99 690.62 534.52 691.29 534.03 692.01 533.63 692.79 533.3 693.6 532.9 694.55 533.41 695.69 534.36 696.08 535.34 696.47 536.44 695.98 536.84 695.02 537.01 694.63 537.2 694.25 537.4 693.87 537.99 692.87 538.7 691.98 539.5 691.13 540.25 690.4 541.08 689.78 541.96 689.21 543.94 688.02 546.07 687.14 548.26 686.47 553.33 685.01 558.65 684.47 563.91 684.35 563.89 684.35 563.86 684.35 563.84 684.35 569.45 684.24 575.07 684.55 580.67 685.12 581.32 685.19 581.44 684.17 580.78 684.1 577.9 683.81 575.03 683.51 572.14 683.28 568.47 683 564.8 682.83 561.12 682.83 557.32 682.83 553.49 683.01 549.74 683.61M548.2 686.49C548.13 686.51 548.07 686.53 548 686.55 548.07 686.53 548.13 686.51 548.2 686.49M539.64 690.97C539.64 690.97 539.58 691.03 539.56 691.06 539.59 691.03 539.62 691 539.64 690.97M563.7 684.36C563.7 684.36 563.79 684.36 563.84 684.36 563.79 684.36 563.75 684.36 563.7 684.36" stroke-width="0" fill="#B24A2B"/><path d="M720.8 287.34C720.47 287.34 720.16 287.44 719.89 287.64 716.19 290.32 711.99 293 706.67 296.05 704.73 297.16 702.77 298.24 700.82 299.33 698.12 300.83 695.42 302.34 692.75 303.89 687.37 306.99 682.85 309.96 678.91 312.97 675.15 315.85 671.39 319.29 667.41 323.49 664.1 327 660.95 330.88 657.77 335.34 652.36 342.94 647.53 351.63 642.99 361.91 639.25 370.39 635.94 379.6 632.56 390.9 630.93 396.33 629.44 401.86 628.06 407.05 626.53 412.78 624.98 418.76 623.48 424.8 620.8 435.5 618.06 447.05 614.87 461.18 611.7 475.17 608.61 489.42 605.63 503.21 603.38 513.58 601.14 523.94 598.84 534.3 595.93 547.41 593.42 558.29 590.96 568.56 590.07 572.25 589.16 575.93 588.25 579.61L586.84 585.31C585.51 590.78 584.15 596.56 582.7 602.98 579.82 615.74 577.09 628.76 574.44 641.36 572.26 651.77 570 662.53 567.67 673.09 567.64 673.17 567.61 673.24 567.59 673.33 567.39 674.11 567.87 674.92 568.67 675.16 579.34 678.34 589.06 680.49 598.38 681.72 603.96 682.45 609.04 682.8 613.92 682.8 619.14 682.8 624.16 682.37 628.83 681.53 629.44 681.49 629.96 681.13 630.18 680.6 639.18 659.74 647.43 638.16 655.41 617.29L658.1 610.26C662.82 597.91 667.06 586.77 671.22 575.5 675.82 563 679.89 551.5 683.66 540.34 692.32 514.74 699.15 491.43 704.54 469.08 707.46 456.97 710 444.75 712.09 432.74 713.2 426.33 714.15 420.03 714.9 414 715.63 408.23 716.26 402.04 716.83 395.07 718.21 378.09 718.7 361.13 719.11 343.8L719.22 339.18C719.59 323.53 719.97 307.35 720.94 291.44 720.96 291.18 720.91 290.92 720.82 290.68L721.73 290.05C722.04 289.83 722.24 289.48 722.3 289.09 722.36 288.68 722.26 288.27 722.02 287.95 721.73 287.57 721.3 287.36 720.83 287.36M630.13 410.96C630.32 410.24 630.51 409.53 630.69 408.82L630.78 408.56C630.56 409.35 630.35 410.16 630.13 410.96" stroke-width="0" fill="#F04C86"/><path d="M823.76 268.4C823.37 268.4 823 268.54 822.73 268.81 822.32 268.92 822.03 269.14 821.78 269.51 821.3 270.2 820.79 270.9 820.28 271.57 817.32 275.35 813.76 278.87 809.72 282.04 804.84 285.75 798.9 289.06 791.55 292.17L791.58 292.17C782.55 295.92 773.39 298.47 764.36 299.73 760.67 300.23 757.09 300.48 753.75 300.48 751 300.48 748.31 300.31 745.75 299.98 741.99 299.45 738.47 298.53 735.3 297.25 735.3 297.25 735.11 297.17 735.11 297.17 732.63 296.1 730.36 294.78 728.29 293.23 726.49 291.81 724.87 290.21 723.48 288.47 723.5 287.91 723.34 287.52 723.06 287.25 722.78 286.98 722.4 286.81 722 286.81 721.89 286.81 721.79 286.82 721.68 286.85 721.66 286.85 721.64 286.85 721.61 286.85 721.22 286.85 720.97 286.92 720.76 287.05 720.42 287.25 720.17 287.56 720.06 287.94L716.9 290.47C710.54 295.51 703.96 300.73 698.42 306.85 695.18 310.43 692.41 314.33 690.19 318.44 687.82 322.84 686.03 327.81 684.74 333.63 683.46 339.39 682.9 345.68 683.06 352.3 683.2 357.76 683.9 363.53 685.28 370.47 686.44 376.35 687.98 382.05 689.92 388.81 690.58 391.11 691.26 393.41 691.94 395.7L692.52 397.66 693.56 401.22C694.17 403.32 694.79 405.42 695.41 407.51 699.27 420.56 703.4 433.76 707.4 446.53 711.25 458.81 715.22 471.51 718.95 484.06 723.12 498.1 726.59 510.73 729.56 522.68 731.26 529.54 732.66 535.82 733.84 541.89 735 547.9 736.01 554.09 736.94 560.8 739.32 578.67 740.42 597.26 740.25 616.16 740.08 633.96 738.7 652.74 736.14 671.98 734.93 681.01 733.38 690.51 731.56 700.15 731.47 700.61 731.52 700.98 731.72 701.3 731.84 701.51 732.02 701.7 732.24 701.82 732.24 701.88 732.25 701.95 732.27 702.02 732.45 702.67 733.03 703.11 733.73 703.11 733.86 703.11 733.98 703.09 734.11 703.06 736.03 702.59 738.06 702.19 740.3 701.84 740.31 701.84 740.41 701.82 740.41 701.81 740.41 701.81 740.49 701.78 740.48 701.78 744.76 701.24 749.18 700.97 754.11 700.97 757.42 700.97 760.9 701.09 765.09 701.34 769.46 701.61 773.89 702 778.17 702.38 782.12 702.73 786.07 703.07 790.03 703.34 793.93 703.6 797.91 703.69 801.75 703.78L802.69 703.8C807.38 703.91 812.07 704.03 816.76 704.15L824.81 704.36C831.51 704.53 838.21 704.71 844.91 704.86 860.22 705.21 872.72 705.38 884.22 705.38 890.08 705.38 895.79 705.34 901.22 705.25 911.86 705.08 922.67 704.69 933.13 704.32 941.08 704.03 949.02 703.75 956.97 703.55 964.2 703.37 970.72 703.28 976.89 703.28 980.29 703.28 983.69 703.31 987.09 703.37 992.15 703.46 997.21 703.64 1002.1 703.88 1004.5 704 1006.91 704.16 1009.31 704.33 1010.47 704.41 1011.63 704.51 1012.78 704.6 1014.11 704.7 1015.45 704.81 1016.78 704.9L1016.78 704.9C1017.66 704.9 1018.27 704.1 1018.27 703.39 1018.27 703 1018.11 702.63 1017.83 702.34 1017.77 702.28 1017.7 702.22 1017.63 702.17 1017.65 701.41 1017.65 700.63 1017.65 699.85L1017.65 698.44C1017.65 696.8 1017.65 695.17 1017.64 693.53 1017.62 689.93 1017.57 686.36 1017.49 682.79 1017.36 676.37 1017.12 669.79 1016.76 662.68 1016.09 649.33 1014.97 635.55 1013.42 621.72 1010.39 594.71 1005.58 567.51 999.11 540.86 995.95 527.84 992.24 514.5 988.08 501.2 986.14 495 984.06 488.73 982.06 482.67 980.02 476.5 977.96 470.34 975.85 464.2 965.89 435.18 956.7 412.24 946.95 392 941.19 380.06 934.93 368.57 928.33 357.86 921.67 347.04 914.57 336.87 907.23 327.63 899.4 317.79 891.07 309.07 882.46 301.74 877.96 297.91 873.08 294.29 867.93 290.98 862.46 287.46 856.68 284.6 851.25 282.03 849.3 281.11 847.33 280.21 845.37 279.31 841.62 277.59 837.74 275.81 833.98 273.93L833.73 273.82 833.73 273.8C830.36 272.07 827.38 270.39 824.62 268.66 824.37 268.5 824.06 268.42 823.76 268.42" stroke-width="0" fill="#F04C86"/><path d="M948.06 415.37C947.33 419.39 946.56 423.39 945.72 427.39 944.89 431.4 943.99 435.4 943.12 439.41 941.36 447.4 939.66 455.41 937.78 463.37 936.84 467.36 935.87 471.34 934.83 475.3 933.8 479.19 932.73 483.07 931.53 486.9 926.92 501.75 920.83 516.13 913.73 529.96 911.95 533.43 910.11 536.89 908.21 540.3 906.58 543.2 904.89 546.07 903.09 548.87 899.56 554.36 895.72 559.66 891.54 564.68 883.14 574.77 873.47 583.82 862.69 591.32 857.27 595.08 851.61 598.47 845.69 601.37 842.72 602.82 839.71 604.17 836.64 605.38 833.08 606.78 829.48 608.08 825.84 609.26 818.4 611.68 810.83 613.67 803.18 615.31 795.62 616.93 788 618.24 780.35 619.38 766.95 621.36 753.47 622.84 740.05 624.65 739.83 631.79 739.43 639.07 738.84 646.45 745.99 647.1 753.17 647.42 760.34 647.39 768.8 647.34 777.25 646.84 785.65 645.9 785.61 645.9 785.57 645.9 785.53 645.9 795.41 644.77 805.21 643.02 814.86 640.62 824.32 638.27 833.64 635.32 842.73 631.78L842.73 631.78C842.73 631.78 842.75 631.78 842.76 631.77 842.76 631.77 842.76 631.77 842.76 631.77 851.48 628.36 859.99 624.42 868.18 619.9 872.28 617.65 876.31 615.27 880.25 612.74 884.19 610.22 888.03 607.56 891.79 604.78 891.75 604.8 891.72 604.83 891.68 604.86 895.75 601.83 899.73 598.66 903.56 595.32 907.2 592.14 910.73 588.83 914.15 585.39 920.91 578.57 927.27 571.35 933.21 563.81 933.21 563.8 933.23 563.79 933.24 563.77L933.24 563.77C933.24 563.77 933.24 563.77 933.26 563.76 946.66 546.66 958.03 527.89 966.51 507.86 966.49 507.87 966.49 507.9 966.48 507.91 969.55 500.64 972.23 493.19 974.4 485.59 975.84 480.56 977.07 475.46 978.05 470.32 977.35 468.26 976.65 466.19 975.94 464.13 967.15 438.55 958.98 417.71 950.5 399.3 949.87 404.67 949.05 410.01 948.1 415.34M966.48 507.9C966.48 507.9 966.46 507.94 966.46 507.96 966.46 507.94 966.48 507.92 966.48 507.9" stroke-width="0" fill="#B43965"/><path d="M842.72 631.79 842.72 631.79C842.72 631.79 842.72 631.79 842.72 631.79 842.72 631.79 842.73 631.79 842.74 631.79 842.74 631.79 842.74 631.79 842.74 631.79" stroke-width="0" fill="#F0A12B"/><path d="M822.15 265.87C821.63 266.04 821.29 266.39 821.02 266.83 820.78 267.21 820.54 267.6 820.29 267.97 817.47 271.93 814.14 275.47 810.47 278.64 810.52 278.6 810.56 278.56 810.61 278.52 805.49 282.89 799.79 286.53 793.76 289.5 793.81 289.48 793.85 289.46 793.9 289.44 793.81 289.48 793.71 289.53 793.62 289.57 793.56 289.6 793.5 289.63 793.44 289.66L793.55 289.6C789.5 291.53 785.31 293.13 781 294.37 777.54 295.37 774.03 296.2 770.49 296.86 770.61 296.83 770.74 296.81 770.87 296.79 763.68 298.12 756.33 298.8 749.02 298.25 749.05 298.25 749.08 298.25 749.1 298.25 744.94 297.9 740.83 297.12 736.89 295.72 734.52 294.82 732.26 293.69 730.16 292.28 728.27 290.95 726.56 289.41 725.06 287.66 724.57 287.06 724.1 286.45 723.66 285.81 723.04 284.92 721.85 284.63 720.92 285.24 720.04 285.81 719.73 287.09 720.35 287.97 721.57 289.7 722.95 291.32 724.49 292.77 725.99 294.18 727.68 295.4 729.44 296.48 732.91 298.64 736.86 300.05 740.83 300.98 745.01 301.95 749.33 302.32 753.62 302.37 757.89 302.42 762.16 302.08 766.39 301.49 770.49 300.92 774.56 300.1 778.58 299.09 782.96 298 787.25 296.62 791.41 294.86 801.29 290.69 810.54 284.69 817.99 276.94 820.42 274.41 822.7 271.63 824.55 268.64 825.11 267.72 824.6 266.45 823.7 265.98 823.43 265.83 823.11 265.76 822.8 265.76 822.59 265.76 822.38 265.79 822.18 265.86M820.59 267.56C820.55 267.62 820.5 267.68 820.46 267.74 820.5 267.68 820.54 267.62 820.59 267.56M810.35 278.75C810.35 278.75 810.29 278.81 810.25 278.83 810.28 278.8 810.31 278.78 810.35 278.75M725.23 287.85C725.23 287.85 725.29 287.92 725.31 287.95 725.28 287.92 725.25 287.88 725.23 287.85M729.87 292.07C729.96 292.13 730.05 292.19 730.15 292.26 730.06 292.2 729.97 292.14 729.87 292.07M793.56 289.59C793.56 289.59 793.6 289.57 793.63 289.56 793.68 289.54 793.73 289.51 793.77 289.49 793.7 289.52 793.63 289.56 793.56 289.59" stroke-width="0" fill="#B43965"/><path d="M699.53 398.1C698.71 409.29 699.91 420.49 702.09 431.47 704.35 442.92 707.64 454.15 711.13 465.28 714.4 475.75 717.88 486.16 720.92 496.7 722.41 501.88 723.82 507.07 724.99 512.33 725.66 515.38 726.26 518.45 726.96 521.49 727.31 523.01 727.69 524.52 728.13 526.02 728.34 526.77 728.58 527.51 728.87 528.24 729.03 528.64 729.22 529.04 729.42 529.43 729.53 529.66 729.69 529.86 729.85 530.06 729.93 530.31 730.06 530.53 730.25 530.72 730.56 531.03 730.97 531.21 731.41 531.21 731.85 531.21 732.27 531.03 732.57 530.72 732.85 530.43 733.09 529.96 733.06 529.56 733.05 529.47 733.04 529.37 733.03 529.28 733.3 527.78 732.96 526.24 732.68 524.76 732.35 523.1 731.92 521.46 731.46 519.84 730.58 516.71 729.56 513.63 728.63 510.51 727.81 507.74 727.1 504.93 726.27 502.15 725.48 499.47 724.64 496.8 723.77 494.15 720.16 483.13 716.1 472.26 712.38 461.27 707.82 447.78 703.73 434.03 701.83 419.89 701.83 419.96 701.85 420.03 701.85 420.1 700.89 412.8 700.52 405.43 701.06 398.08 701.09 397.66 700.68 397.3 700.29 397.3 699.84 397.3 699.55 397.65 699.52 398.08" stroke-width="0" fill="#B43965"/><path d="M651.46 565.04C650.81 565.04 650.26 565.42 650.04 566.01 646.31 566.16 642.55 566.25 638.8 566.34L637.18 566.38C634.13 566.45 631.08 566.51 628.03 566.51L626.74 566.51C621.49 566.51 615.4 566.56 609.45 567.09 605.98 567.4 602.63 567.9 599.51 568.58 596.21 569.29 593.39 570.22 590.89 571.4 588.02 572.77 585.8 574.37 584.1 576.29 582.31 578.31 581.11 580.83 580.64 583.59 580.36 585.31 580.35 587.18 580.62 589.15 580.08 589.33 579.52 589.53 578.97 589.74L575.31 591.09C573.32 591.83 571.34 592.57 569.34 593.28 564.51 595.01 558.19 597.4 552.14 600.48 549.87 601.64 546.92 603.25 544.31 605.38 543.11 606.35 542.22 607.23 541.5 608.16 540.71 609.17 540.17 610.21 539.86 611.33 539.58 612.34 539.62 613.47 539.97 614.6 540.3 615.63 540.98 616.65 542.05 617.7 543.81 619.42 546.33 620.53 549.76 621.12 551.48 621.42 553.35 621.56 555.46 621.56 556.74 621.56 558.02 621.51 559.28 621.43 563.33 621.19 567.28 620.57 570.28 620.05 575.22 619.2 580.19 618.09 584.99 617.02L587.19 616.53C587.36 617.28 587.62 618.01 587.95 618.68 588.24 619.29 588.56 619.83 588.9 620.33 589.25 620.85 589.68 621.33 590.1 621.81 591.13 622.98 592.44 624.02 594.11 625 594.46 626.69 594.91 628.18 595.47 629.54 596.09 631.03 596.87 632.44 597.79 633.72 599.47 636.04 601.79 638.01 604.51 639.4 606.93 640.64 609.83 641.47 613.13 641.87 614.64 642.05 616.24 642.14 617.89 642.14 619.54 642.14 621.24 642.05 623.03 641.87 626.18 641.56 629.49 640.97 633.44 640.02 636.59 639.26 639.88 638.29 643.49 637.05 649.14 635.1 654.68 632.78 659.97 630.15 660.45 629.91 660.93 629.67 661.4 629.43L661.4 629.43C662.89 628.67 664.41 627.95 665.92 627.23 668.21 626.13 670.58 625 672.84 623.76 676.96 621.52 679.86 619.24 681.97 616.61 683.18 615.09 684.12 613.38 684.77 611.55 685.12 610.56 685.37 609.59 685.56 608.57 685.75 607.55 685.85 606.45 685.88 604.99 685.93 602.84 685.68 600.48 685.13 597.78 684.64 595.42 683.93 593.07 683.01 590.82 680.56 584.84 676.54 579.27 671.37 574.72 668.89 572.54 666.07 570.58 662.99 568.92 661.52 568.12 659.95 567.41 658.32 566.8 658.2 566.11 657.56 565.58 656.85 565.58 656.12 565.64 655.5 565.68 654.89 565.72 653.85 565.45 652.79 565.23 651.73 565.05 651.64 565.03 651.56 565.03 651.47 565.03" stroke-width="0" fill="#DB633C"/><path d="M609.8 578.23C607.43 578.3 605.07 578.66 602.76 579.17 600.29 579.72 597.88 580.48 595.53 581.39 591.01 583.15 586.68 585.41 582.53 587.92 582.3 588.06 582.27 588.4 582.42 588.61 582.58 588.84 582.88 588.86 583.11 588.72 583.78 588.31 584.46 587.93 585.14 587.55 585.1 587.57 585.07 587.59 585.03 587.61 587.14 586.48 589.33 585.51 591.58 584.67 593.97 583.78 596.43 583.08 598.91 582.48L598.63 582.55C600.53 582.1 602.43 581.71 604.35 581.38 606.24 581.06 608.13 580.83 610.04 580.61 610.69 580.53 611.18 579.94 611.11 579.28 611.07 578.97 610.92 578.68 610.68 578.48 610.43 578.27 610.15 578.21 609.84 578.21 609.82 578.21 609.8 578.21 609.79 578.21" stroke-width="0" fill="#B24A2B"/><path d="M618.52 620.57C617.6 620.86 616.69 621.19 615.77 621.51 614.76 621.87 613.74 622.22 612.73 622.56 610.86 623.19 608.97 623.8 607.05 624.27 607.12 624.25 607.2 624.24 607.26 624.22 604.86 624.78 602.39 625.08 599.92 625.03 599.92 625.03 599.94 625.03 599.95 625.03 599 624.99 598.07 624.91 597.13 624.77 596.87 624.73 596.62 624.91 596.57 625.18 596.52 625.44 596.71 625.7 596.97 625.75 597.94 625.9 598.92 626.01 599.89 626.09 600.78 626.17 601.66 626.19 602.55 626.2 604.42 626.23 606.28 626.06 608.13 625.82 609.96 625.58 611.77 625.19 613.55 624.7 615.52 624.16 617.46 623.5 619.34 622.72 619.93 622.48 620.24 621.83 620.01 621.23 619.9 620.94 619.69 620.71 619.42 620.59 619.27 620.52 619.11 620.49 618.96 620.49 618.81 620.49 618.67 620.52 618.52 620.56" stroke-width="0" fill="#B24A2B"/><path d="M604.02 611.91C602.76 612.38 601.5 612.85 600.22 613.27 598.88 613.72 597.51 614.12 596.13 614.45L596.15 614.45C594 614.94 591.82 615.26 589.61 615.29 589.34 615.29 589.14 615.58 589.17 615.83 589.2 616.12 589.44 616.27 589.71 616.27 590.93 616.25 592.16 616.19 593.38 616.08 594.71 615.95 596.04 615.73 597.36 615.48 598.51 615.27 599.63 614.99 600.76 614.7 602.06 614.36 603.36 613.97 604.64 613.54 605.1 613.39 605.32 612.84 605.15 612.41 605.02 612.06 604.67 611.85 604.32 611.85 604.22 611.85 604.12 611.87 604.02 611.9M596.06 614.47C596.06 614.47 596.02 614.47 595.99 614.49 596.01 614.49 596.03 614.48 596.06 614.47" stroke-width="0" fill="#B24A2B"/><path d="M824.25 270.08C824.12 270.52 824.2 270.98 824.46 271.36 824.38 271.84 824.54 272.3 824.88 272.59 826.96 274.36 828.89 276.38 830.63 278.6 832.98 281.7 835.01 285.25 836.66 289.14 838.93 294.6 840.5 300.7 841.49 307.77 842.39 314.5 842.71 321.82 842.45 330.12 842.23 337.36 841.54 345.18 840.37 354.02L840.34 354.21C837.87 372.33 833.94 389.93 829.44 409.42L828.95 411.57C828.25 414.63 827.55 417.68 826.88 420.74 825.89 425.22 824.98 429.78 824.1 434.2L823.72 436.1 822.31 443.12C819.87 455.32 817.36 467.94 814.62 480.3 813.11 487.1 811.56 493.73 809.98 499.99 795.69 503.59 780.75 508.88 761.53 517.14 753.62 520.54 745.65 524.16 737.94 527.66L732.82 529.99C727.99 532.18 723.16 534.35 718.31 536.48 713.43 538.61 708.52 540.63 703.71 542.48L703.91 542.45C695.91 545.46 687.69 548.31 679.75 551.05 667.93 555.14 655.69 559.38 643.97 564.38 646.37 566.8 648.5 569.48 650.38 572.32 653.18 576.56 655.48 581.13 657.46 585.81 659.43 590.48 661.09 595.27 662.58 600.11 663.3 602.47 664 604.84 664.67 607.22 665.43 609.93 666.19 612.64 666.82 615.39 667.52 618.42 668.11 621.49 668.55 624.57 668.67 625.41 668.77 626.25 668.87 627.09 668.9 627.11 668.93 627.12 668.96 627.14 670.71 627.25 672.46 627.33 674.21 627.4 722.43 627.19 764.87 622.67 803.86 613.58 819.37 609.97 839.52 604.51 857.93 594.3 866.5 589.55 874.28 583.86 881.06 577.4 884.33 574.28 887.66 570.65 891.26 566.31 894.29 562.63 897.29 558.62 900.17 554.4 910.16 539.68 918.43 522.5 926.17 500.35 928.44 493.85 930.81 486.71 933.4 478.5 935.98 470.3 938.22 462.66 940.23 455.15 945.11 436.84 948.23 420.43 949.77 404.99 951.59 386.55 950.87 370.5 947.58 355.95 945.83 348.19 943.21 340.82 939.78 334.05 936.24 327.06 931.67 320.61 926.17 314.88 920.82 309.3 914.39 304.24 906.49 299.41 899.85 295.33 892.45 291.66 883.2 287.85 869.9 282.37 855.91 278.15 842.39 274.07 836.97 272.44 831.54 270.8 826.14 269.09 826.03 269.04 825.89 269.03 825.72 269.03 825.07 269.03 824.47 269.48 824.27 270.1M780.23 512.74 780.5 512.66C780.11 512.8 779.72 512.95 779.34 513.09 779.63 512.97 779.93 512.86 780.23 512.74" stroke-width="0" fill="#F04C86"/><path d="M900.75 533.19C899.09 533.21 897.43 533.33 895.77 533.54L895.81 533.54C895.81 533.54 895.84 533.54 895.86 533.54 895.84 533.54 895.83 533.54 895.81 533.54 891.51 534.14 887.31 535.37 883.31 537.05 883.33 537.05 883.35 537.03 883.36 537.02 877.94 539.34 872.88 542.44 868.2 546.03 862.21 550.67 856.86 556.1 852.23 562.09 847.82 567.82 844.05 574.05 841.22 580.7L841.24 580.65C839.19 585.53 837.65 590.63 836.93 595.86 836.93 595.89 836.93 595.93 836.91 595.96 836.91 595.93 836.91 595.89 836.93 595.86L836.93 595.83C836.58 598.56 836.45 601.3 836.62 604.04 843.74 601.38 850.95 598.19 857.92 594.32 866.49 589.57 874.28 583.88 881.06 577.42 884.33 574.3 887.66 570.67 891.26 566.33 894.32 562.61 897.31 558.6 900.17 554.41 904.28 548.36 908.1 541.89 911.7 534.84 911.18 534.67 910.65 534.52 910.13 534.38 908.74 534 907.32 533.73 905.88 533.52L905.93 533.52C904.31 533.31 902.68 533.2 901.05 533.2L900.74 533.2ZM905.8 533.5C905.8 533.5 905.86 533.5 905.88 533.52 905.85 533.52 905.83 533.52 905.8 533.5M883.31 537.05C883.31 537.05 883.27 537.07 883.25 537.07 883.27 537.07 883.29 537.05 883.31 537.05" stroke-width="0" fill="#C36184"/><path d="M945.12 427.2C943.19 438.23 940.61 449.11 937.72 459.92 934.81 470.79 931.28 481.49 927.39 492.05 922.98 503.87 917.92 515.45 912.14 526.67 907.25 536.17 901.82 545.39 895.63 554.1 895.73 553.96 895.83 553.82 895.92 553.69 887.98 564.79 878.78 574.99 868.19 583.62 863.94 587.04 859.5 590.19 854.86 593.06 849.92 596.13 844.75 598.81 839.45 601.19 835.56 602.89 831.59 604.4 827.56 605.73 822.54 607.39 817.41 608.8 812.29 610.12 801.45 612.92 790.47 615.13 779.42 616.91 779.66 616.87 779.89 616.84 780.13 616.8 746.39 622.19 712.17 623.36 678.06 623.52 675.51 623.54 672.95 623.5 670.4 623.72 669.74 623.78 669.15 624.01 668.67 624.5 668.22 624.98 667.99 625.62 668.01 626.27 668.03 626.92 668.31 627.55 668.79 628 668.97 628.13 669.15 628.25 669.33 628.39 669.72 628.59 670.12 628.69 670.56 628.67 672.75 628.86 674.94 628.82 677.12 628.78 679.46 628.73 681.8 628.72 684.14 628.73 688.35 628.75 692.54 628.75 696.74 628.73 705.22 628.67 713.7 628.46 722.18 628.1 739.26 627.37 756.31 625.93 773.22 623.48 790.05 621.05 806.74 617.59 823.03 612.64 826.5 611.59 829.92 610.45 833.31 609.17 836.55 607.95 839.74 606.58 842.89 605.13 848.84 602.4 854.57 599.21 860.05 595.64 870.81 588.64 880.51 580.04 889.01 570.42 897.69 560.59 905.13 549.66 911.53 538.23 919.01 524.9 925 510.78 929.95 496.32 932.7 488.28 935.04 480.09 937.12 471.85 939.2 463.59 941.06 455.29 942.67 446.92 943.91 440.45 945.07 433.96 946.19 427.45 946.24 427.16 946.08 426.86 945.77 426.79 945.73 426.79 945.7 426.78 945.66 426.78 945.41 426.78 945.15 426.95 945.11 427.21" stroke-width="0" fill="#B43965"/><path d="M834.72 497.48C828.8 497.7 822.92 498.23 817.06 499.07 811.29 499.9 805.57 501.03 799.91 502.4 794.31 503.76 788.77 505.39 783.29 507.18 777.75 508.97 772.26 510.92 766.81 513 761.31 515.1 755.86 517.33 750.43 519.64 744.79 522.04 739.2 524.59 733.57 527.04 721.78 532.16 709.83 536.92 697.85 541.6 689 545.07 680.13 548.49 671.28 551.99 666.86 553.74 662.44 555.51 658.04 557.32 655.81 558.24 653.57 559.13 651.31 559.97 650.24 560.37 649.17 560.77 648.11 561.17 646.93 561.62 645.75 562.08 644.61 562.63 643.96 562.95 643.58 563.68 643.71 564.39 643.87 565.26 644.73 565.86 645.61 565.7 647.14 565.42 648.62 564.91 650.07 564.38 651.62 563.82 653.12 563.16 654.63 562.51 657.57 561.26 660.56 560.13 663.54 558.97 669.54 556.66 675.54 554.34 681.54 552.01 693.52 547.37 705.48 542.68 717.38 537.82 723.34 535.38 729.26 532.89 735.17 530.34 740.8 527.91 746.4 525.39 751.99 522.88 762.65 518.09 773.31 513.27 784.3 509.27 786.8 508.36 789.31 507.51 791.84 506.7 791.83 506.7 791.82 506.7 791.8 506.7 798.47 504.56 805.24 502.72 812.11 501.35 819.21 499.92 826.43 499.02 833.66 498.68 833.66 498.68 833.65 498.68 833.64 498.68 833.96 498.67 834.28 498.65 834.6 498.65 834.92 498.64 835.21 498.47 835.24 498.12 835.26 497.83 835.03 497.48 834.73 497.48L834.71 497.48ZM833.52 498.69C833.52 498.69 833.62 498.69 833.66 498.69L833.52 498.69Z" stroke-width="0" fill="#B43965"/><path d="M832.82 394.89C831.49 399.63 830.2 404.38 829.01 409.16 827.81 413.94 826.64 418.74 825.51 423.53 823.2 433.25 821.07 443.01 818.96 452.77L818.98 452.66C817.29 460.52 815.53 468.35 813.73 476.18 812.82 480.13 811.9 484.08 810.93 488.01 810.44 489.99 809.94 491.97 809.42 493.95 809.16 494.94 808.89 495.92 808.63 496.91 808.34 498.02 808 499.14 807.87 500.28 807.8 500.9 808.22 501.5 808.79 501.71 809.14 501.83 809.53 501.82 809.87 501.66 810.23 501.49 810.42 501.22 810.59 500.87 810.93 500.19 811.14 499.45 811.36 498.71 811.58 497.97 811.76 497.23 811.95 496.48 812.35 494.87 812.71 493.24 813.08 491.63 813.79 488.53 814.56 485.44 815.28 482.36 816.71 476.2 818.01 470 819.22 463.79 820.44 457.57 821.66 451.35 822.83 445.12 824.01 438.89 825.16 432.66 826.42 426.45 827 423.6 827.58 420.75 828.18 417.9 828.18 417.96 828.16 418.02 828.15 418.08 829.8 410.41 831.62 402.78 833.73 395.23 833.81 394.97 833.7 394.69 833.44 394.6 833.39 394.58 833.34 394.57 833.28 394.57 833.07 394.57 832.86 394.69 832.81 394.89" stroke-width="0" fill="#B43965"/><path d="M724.8 195.63C724.8 195.63 724.76 195.65 724.76 195.67 724.08 196.66 723.35 197.63 722.6 198.58 720.67 201.02 718.54 203.39 716.27 205.63 712.43 209.42 708.28 212.89 703.92 215.93 703.9 216.22 703.96 216.48 704.1 216.73 705.95 220.24 709.09 223.34 712.93 225.46 714.88 226.53 716.91 227.21 718.95 227.48 719.47 227.54 719.98 227.58 720.49 227.58 722.01 227.58 723.48 227.28 724.86 226.69 725.71 226.32 726.49 225.84 727.39 225.12 728.45 224.27 729.27 223.15 729.79 222.38 731.16 220.39 731.98 217.96 732.23 215.15 732.43 212.92 732.12 210.47 731.3 207.66 730.67 205.49 729.68 203.17 728.25 200.56 727.33 198.87 726.42 197.45 725.48 196.21 725.31 195.98 725.11 195.75 724.82 195.61 724.82 195.61 724.81 195.61 724.8 195.61" stroke-width="0" fill="#591A03"/><path d="M729.56 206.34C729.56 206.34 729.63 206.29 729.67 206.28 728.89 206.79 728.14 207.34 727.44 207.97 726.83 208.49 726.27 209.06 725.72 209.64 725.05 210.39 724.43 211.19 723.87 212.03 723.36 212.81 722.9 213.6 722.48 214.43 722.5 214.38 722.52 214.35 722.53 214.31 722.04 215.3 721.61 216.31 721.25 217.34 720.93 218.29 720.66 219.26 720.45 220.24 720.45 220.22 720.46 220.18 720.47 220.16 720.25 221.24 720.08 222.33 720 223.43 719.92 224.52 719.91 225.59 719.96 226.69L719.96 226.69C719.96 226.69 719.96 226.73 719.96 226.74 719.96 226.74 719.96 226.72 719.96 226.71 719.98 227 720 227.29 720.03 227.57 720.19 227.57 720.34 227.57 720.5 227.57 722.02 227.57 723.49 227.27 724.87 226.68 725.72 226.31 726.5 225.82 727.4 225.11 728.46 224.26 729.27 223.15 729.8 222.37 731.17 220.38 731.99 217.95 732.24 215.14 732.43 212.9 732.12 210.46 731.31 207.65 731.12 207 730.9 206.34 730.65 205.67 730.28 205.87 729.92 206.09 729.57 206.31M725.68 209.66C725.68 209.66 725.66 209.69 725.64 209.71 725.66 209.7 725.66 209.68 725.68 209.66" stroke-width="0" fill="#F68677"/><path d="M719.97 226.72C719.97 226.72 719.97 226.72 719.97 226.72L719.97 226.72C719.97 226.72 719.97 226.72 719.97 226.72" stroke-width="0" fill="#F68677"/><path d="M650.19 172.2C649.9 172.2 649.63 172.25 649.37 172.34 648.66 172.58 648.08 173.13 647.66 173.99 646.62 176.12 646.75 179.82 648 183.43 649.6 188.09 652.58 191.47 655.08 191.47 655.36 191.47 655.65 191.42 655.9 191.33 658.46 190.45 659.07 185.47 657.27 180.24 655.67 175.58 652.7 172.2 650.19 172.2" stroke-width="0" fill="#591A03"/><path d="M645.98 122.27C641.21 122.27 635.38 124.67 630.38 128.7 621.88 135.56 618.14 145.08 622.04 149.92 623.52 151.75 625.91 152.72 628.96 152.72 633.73 152.72 639.57 150.32 644.56 146.3 653.06 139.44 656.8 129.92 652.89 125.07 651.41 123.24 649.02 122.28 645.98 122.28" stroke-width="0" fill="#591A03"/><path d="M721.01 100.27C708.91 100.27 699.07 105.88 699.07 112.78 699.07 119.68 708.91 125.29 721.01 125.29 733.11 125.29 742.95 119.68 742.95 112.78 742.95 105.88 733.11 100.27 721.01 100.27" stroke-width="0" fill="#591A03"/><path d="M722.76 149.65C722.44 149.65 722.14 149.7 721.86 149.8 720.5 150.27 719.59 151.79 719.31 154.1 719.02 156.39 719.39 159.19 720.35 161.97 722.11 167.08 725.38 170.79 728.12 170.79 728.44 170.79 728.74 170.74 729.02 170.64 731.82 169.68 732.49 164.22 730.52 158.48 728.77 153.37 725.51 149.66 722.76 149.66" stroke-width="0" fill="#591A03"/><path d="M679.03 141.48C678.65 141.48 678.33 141.8 678.33 142.18 678.3 144.17 678.17 146.12 678.06 147.76L677.85 150.88 677.7 153.2 677.55 155.52C677.22 160.74 676.85 167.6 676.99 174.38 677.07 178.04 677.26 181.07 677.58 183.91 677.96 187.28 678.47 190.14 679.16 192.66 680.78 198.67 683.35 202.64 687.04 204.78 688.86 205.84 691.08 206.39 693.45 206.39 694.83 206.38 696.16 206.2 697.76 205.82 698.97 205.54 700.23 205.12 701.59 204.52 702.24 204.24 702.86 203.93 703.48 203.58 704.15 203.21 704.74 202.76 705.38 202.26 705.67 201.96 705.87 201.62 705.98 201.23 706.15 200.62 706.07 199.97 705.75 199.44 705.34 198.74 704.54 198.28 703.71 198.28 703.31 198.28 702.91 198.39 702.57 198.61 702.18 198.86 701.79 199.11 701.41 199.37 701.02 199.62 700.64 199.88 700.25 200.13 699.46 200.61 698.67 201.04 697.82 201.43 696.71 201.87 695.6 202.16 694.43 202.35 693.89 202.41 693.36 202.44 692.82 202.44 692.36 202.44 691.9 202.42 691.43 202.36 690.69 202.25 689.96 202.05 689.25 201.79 688.52 201.46 687.83 201.05 687.2 200.59 686.47 199.99 685.82 199.33 685.22 198.57 684.26 197.3 683.42 195.85 682.66 194.13 681.29 190.85 680.36 187.13 679.73 182.41 679 176.85 678.72 170.78 678.84 163.32 678.91 158.18 679.19 153.07 679.52 147.39L679.55 146.83 679.57 146.39C679.65 144.96 679.73 143.57 679.74 142.17 679.74 141.99 679.67 141.82 679.54 141.69 679.4 141.55 679.22 141.47 679.03 141.47" stroke-width="0" fill="#B24A2B"/></g><g><path d="M213.35 318.19C213.35 318.19 213.37 318.17 213.38 318.15 213.38 318.17 213.36 318.17 213.35 318.19" stroke-width="0" fill="#E38907"/><path d="M380.4 135.46C379.07 135.46 377.73 135.5 376.4 135.58 371.67 135.86 366.84 136.6 361.64 137.83 357.1 138.9 352.3 140.38 346.96 142.34 342.52 143.97 337.97 145.88 333.05 148.2 328.94 150.14 324.82 152.24 320.46 154.64 316.38 156.88 312.72 159.03 309.26 161.2 300.26 166.85 292.23 172.98 285.4 179.43 281.63 183 278.11 186.84 274.94 190.84 271.71 194.92 268.97 199.19 266.79 203.52 264.69 207.67 263.12 211.89 262.11 216.07 261.58 218.23 261.19 220.53 260.93 222.91 260.68 225.25 260.62 227.84 260.74 230.82 261.19 241.8 264.21 252.27 267.82 263.84 265.09 263.12 262.34 262.77 259.66 262.76 258.95 262.76 258.24 262.79 257.53 262.84 252.54 263.2 247.59 265.26 243.94 268.49 241.01 271.08 238.87 274.55 237.75 278.54 236.71 282.24 236.47 286.36 237.04 290.78 237.55 294.79 238.75 298.87 240.59 302.91 242.53 307.15 245.08 310.98 248.19 314.27 249.87 316.05 251.68 317.66 253.55 319.07 255.35 320.44 257.33 321.68 259.6 322.89 263.58 325.01 268.08 326.59 272.97 327.56 276.23 328.21 279.6 328.55 282.98 328.55 286.65 328.55 290.35 328.16 293.98 327.39L294.09 327.7 294.23 328.02C296.22 332.96 297.64 338.5 298.45 344.48 298.45 344.49 298.48 344.62 298.49 344.62 298.5 344.62 298.52 344.72 298.52 344.72 299.48 352.73 299.41 361.31 298.28 370.23L298.34 370.05C296.99 379.91 294.5 389.4 290.9 398.26L291.03 398.05C288.25 404.7 285.14 410.38 281.52 415.25 280.73 416.28 279.92 417.26 279.09 418.22 278.96 418.37 278.86 418.54 278.78 418.7 278.68 418.74 278.56 418.8 278.46 418.87 278.11 419.12 277.86 419.54 277.79 420 277.73 420.41 277.83 420.81 278.06 421.11 281.41 425.42 285.03 429.37 288.8 432.84 292.48 436.21 296.58 439.3 300.99 442.01 309.43 447.19 319.11 450.58 328.98 451.83 331.94 452.2 335 452.39 338.09 452.39 340.24 452.39 342.43 452.3 344.62 452.12 350.01 451.67 355.34 450.64 360.45 449.07 371.34 445.71 380.65 439.75 387.37 431.84 389.59 429.23 391.62 426.23 393.58 422.66 395.77 418.66 397.01 415.04 397.35 411.59 397.4 411.11 397.32 410.73 397.1 410.39 396.87 410.04 396.5 409.8 396.1 409.72 396.01 409.7 395.92 409.69 395.84 409.69 395.71 409.69 395.58 409.71 395.46 409.74 393.65 408.9 391.95 407.87 390.44 406.69 388.91 405.45 387.49 403.98 386.23 402.34 384.85 400.45 383.63 398.29 382.62 395.91 381.1 392.16 380.03 387.97 379.37 383.08 378.17 373.61 378.67 363.92 379.15 354.54L379.22 353.13C380.26 352.95 381.32 352.74 382.37 352.53 385.57 351.87 388.16 351.26 390.5 350.63 392.92 349.98 395.39 349.19 397.86 348.29 408.03 344.6 417.11 339.29 424.86 332.51 428.75 329.11 432.32 325.18 435.45 320.85 438.67 316.41 441.34 311.4 443.38 305.96 445.43 300.54 446.75 294.45 447.29 287.87 447.76 282.21 447.55 276.19 446.66 269.48 445.89 263.76 444.63 257.8 442.81 251.26 442.07 248.6 441.2 245.77 440.07 242.35 439.64 241.04 439.18 239.73 438.72 238.43 438.19 236.9 437.65 235.37 437.15 233.83 433.61 222.97 431.68 211.47 429.81 200.36L429.68 199.59 429.57 198.92C427.69 187.79 425.76 176.28 422.26 165.37 420.51 159.9 418.41 154.84 416.02 150.33 415.76 149.84 415.24 149.54 414.66 149.54 414.38 149.54 414.12 149.61 413.89 149.74 413.59 149.29 413.23 148.85 412.86 148.42 411.84 147.22 410.68 146.2 409.78 145.43 407.95 143.87 405.85 142.42 403.53 141.1 401.54 139.97 399.4 139 397.17 138.2 395.2 137.49 393 136.9 390.42 136.4 387.28 135.79 383.9 135.48 380.35 135.48" stroke-width="0" fill="#F6CFBE"/><path d="M376.41 135.53C371.62 135.83 366.79 136.57 361.63 137.79 357.05 138.87 352.25 140.34 346.95 142.3 342.57 143.9 338.01 145.81 333.05 148.16 328.99 150.06 324.88 152.17 320.46 154.6 316.48 156.78 312.82 158.93 309.27 161.16 300.26 166.8 292.24 172.94 285.4 179.39 281.64 182.94 278.12 186.79 274.94 190.81 271.71 194.89 268.97 199.16 266.79 203.51 264.68 207.67 263.1 211.89 262.1 216.05 261.57 218.25 261.17 220.56 260.91 222.91 260.66 225.27 260.59 227.85 260.73 230.82 260.89 234.85 261.4 238.81 262.16 242.78 273.71 243.04 285.25 241.84 296.56 239.47 296.52 239.47 296.49 239.49 296.46 239.49 310.96 236.42 325.06 231.46 338.27 224.74 338.23 224.76 338.19 224.78 338.15 224.8 349.14 219.18 359.52 212.31 368.73 204.08 368.73 204.08 368.73 204.08 368.71 204.08L368.68 204.11C368.68 204.11 368.7 204.09 368.71 204.08 372.14 200.99 375.4 197.72 378.43 194.26 381.34 190.92 384.05 187.4 386.5 183.69 386.48 183.73 386.45 183.76 386.43 183.8 387.22 182.61 387.98 181.41 388.7 180.18 389.69 178.49 390.62 176.77 391.5 175.02 393.24 171.52 394.81 167.94 396.4 164.37 396.48 164.19 396.66 164.09 396.85 164.09 396.86 164.09 396.87 164.09 396.89 164.09 396.94 164.07 396.99 164.07 397.05 164.07 397.1 164.07 397.15 164.07 397.21 164.09 401.05 165.38 404.77 167.01 408.34 168.93 414.87 172.44 420.89 176.8 426.52 181.62 425.38 176.13 424.05 170.67 422.33 165.34 420.59 159.88 418.49 154.81 416.09 150.3 415.83 149.8 415.3 149.48 414.7 149.48 414.43 149.48 414.15 149.56 413.91 149.69 413.7 149.31 413.39 148.9 412.93 148.37 411.94 147.22 410.82 146.21 409.85 145.38 408 143.82 405.89 142.36 403.58 141.05 401.59 139.92 399.45 138.95 397.22 138.15 395.23 137.43 393.02 136.83 390.46 136.33 387.33 135.72 383.95 135.41 380.39 135.41 379.06 135.41 377.72 135.45 376.4 135.53M368.68 204.1C368.68 204.1 368.65 204.13 368.62 204.15 368.64 204.13 368.66 204.12 368.68 204.1M296.58 239.45C296.58 239.45 296.56 239.45 296.55 239.45 296.55 239.45 296.57 239.45 296.58 239.45" stroke-width="0" fill="#F0BEAA"/><path d="M266.37 279.29C266.05 279.62 265.92 280.01 265.88 280.46 265.6 283.89 265.88 287.34 266.51 290.72 267.17 294.3 268.39 297.78 270.02 301.03 271.61 304.17 273.71 307.09 276.26 309.5 278.73 311.83 281.75 313.56 285.02 314.51 285.4 314.62 285.81 314.38 285.91 314.01 286.02 313.63 285.79 313.23 285.41 313.12 284.71 312.91 284.02 312.67 283.35 312.4 283.41 312.42 283.46 312.45 283.53 312.47 282.14 311.87 280.87 311.08 279.67 310.16 279.67 310.16 279.68 310.16 279.69 310.17 278.34 309.08 277.12 307.84 276.05 306.47 274.54 304.47 273.33 302.28 272.35 299.97 272.38 300.03 272.41 300.1 272.43 300.16 270.91 296.48 269.94 292.6 269.4 288.65 269.42 288.8 269.44 288.94 269.46 289.07 269.08 286.22 268.97 283.33 269.19 280.46 269.23 280.04 269 279.58 268.71 279.29 268.4 278.98 267.98 278.8 267.54 278.8 267.1 278.8 266.68 278.98 266.37 279.29M272.47 300.27C272.47 300.27 272.44 300.2 272.42 300.16 272.44 300.2 272.45 300.23 272.47 300.27" stroke-width="0" fill="#DA8C67"/><path d="M253.92 275.7C251.51 275.94 249.1 276.55 246.91 277.58 244.85 278.55 243.01 280.01 241.73 281.92 241.58 282.14 241.61 282.44 241.83 282.61 242.04 282.76 242.38 282.73 242.52 282.51 242.88 281.97 243.27 281.48 243.71 281.02 244.35 280.39 245.04 279.86 245.8 279.4 246.81 278.81 247.88 278.35 249.01 278 250.61 277.54 252.25 277.31 253.91 277.25L253.72 277.25C255.76 277.2 257.78 277.41 259.77 277.88L259.49 277.81C261.15 278.21 262.75 278.77 264.26 279.56 265 279.99 265.66 280.49 266.3 281.06 266.61 281.34 267.12 281.42 267.52 281.36 267.94 281.29 268.32 281.07 268.58 280.73 268.83 280.38 268.95 279.93 268.88 279.5 268.82 279.12 268.59 278.65 268.25 278.45 266.2 277.25 263.95 276.48 261.62 276 260.08 275.68 258.49 275.55 256.9 275.55 255.9 275.55 254.9 275.61 253.91 275.7" stroke-width="0" fill="#DA8C67"/><path d="M329.23 350.58C329.23 350.58 329.23 350.58 329.21 350.58 329.24 350.6 329.27 350.63 329.3 350.66 336.47 357.24 344.39 363.05 353.03 367.54 353.03 367.54 353.01 367.54 352.99 367.52 355.81 368.97 358.7 370.28 361.68 371.39 364.61 372.48 367.6 373.38 370.65 374.05 370.61 374.05 370.57 374.03 370.53 374.02 372.77 374.5 375.04 374.86 377.33 375.05 377.82 375.09 378.3 375.12 378.79 375.14 378.5 368.27 378.87 361.36 379.21 354.62L379.29 353.16C378.62 353.24 377.94 353.3 377.26 353.33 376.6 353.36 375.93 353.38 375.28 353.38 374.52 353.43 373.75 353.48 372.98 353.47 372.62 353.47 372.26 353.45 371.91 353.42 371.64 353.42 371.36 353.41 371.09 353.4 371.07 353.4 371.06 353.4 371.04 353.4 370.22 353.43 369.4 353.45 368.57 353.42 363.12 353.42 357.68 353.01 352.29 352.18 346.64 351.31 341.04 350.04 335.59 348.31 330.77 346.79 326.06 344.94 321.5 342.77 323.95 345.48 326.52 348.08 329.21 350.57" stroke-width="0" fill="#DA8C67"/><path d="M393.97 349.07 393.97 349.07 393.98 349.06 393.97 349.07" stroke-width="0" fill="#DA8C67"/><path d="M534.62 359.57C534.13 359.57 533.64 359.59 533.15 359.64 532.1 359.73 531 359.92 529.56 360.25 526.97 360.85 524.2 361.74 521.11 362.95 518.43 363.99 515.81 365.17 513.3 366.46 510.55 367.86 507.75 369.58 504.21 372.02 500.18 374.82 496.56 377.86 493.45 381.05 490.04 384.56 487.24 388.49 485.12 392.74 483.72 395.55 482.64 398.61 481.91 401.83 481.54 402.11 481.32 402.58 481.33 403.08 481.33 403.56 481.35 404.05 481.38 404.53 481.23 405.44 481.1 406.36 481.01 407.28 480.95 407.87 481.23 408.45 481.72 408.76 481.88 410.28 482.11 411.85 482.41 413.55 483.13 417.54 484.14 421.32 485.39 424.8 486.77 428.61 488.48 432.11 490.48 435.2 492.6 438.49 495.07 441.21 497.81 443.31 499.84 444.86 502.05 446.06 504.36 446.88 506.65 447.7 509.2 448.13 511.91 448.18L512.22 448.18C513.65 448.18 515.08 448.03 516.47 447.74 518.17 447.39 519.74 446.65 521.04 445.97 522.39 445.27 523.69 444.43 524.95 443.62 526.12 442.87 527.33 442.09 528.58 441.41 528.61 441.77 528.8 442.11 529.1 442.35 529.36 442.55 529.68 442.66 530.01 442.66 530.48 442.66 530.92 442.45 531.2 442.09 532.8 440.07 534.45 438.19 536.13 436.52 539.63 433.14 543.56 430.21 547.86 427.78 550.28 426.45 552.88 425.2 555.62 424.08 557.68 423.25 559.43 422.59 561.26 422.09 563.39 421.54 565.58 421.05 567.77 420.56 572.55 419.49 577.49 418.38 582.13 416.56 583.78 415.92 585.19 415.21 586.45 414.4 587.69 413.61 588.63 412.66 589.24 411.57 589.74 410.65 589.98 409.58 589.93 408.47 589.89 407.59 589.5 406.64 588.87 405.86 588.12 404.93 587.11 404.33 586.32 403.91 585.27 403.35 584.14 403.01 583.18 402.74 580.72 402.08 578.06 401.67 574.54 401.43 573.56 401.37 572.58 401.32 571.61 401.28 573.57 400.85 575.49 400.32 577.32 399.76 579.7 399.02 582.79 397.95 585.49 396.28 586.83 395.45 589.07 393.71 589.15 391.32 589.18 390.21 588.88 389.17 588.25 388.24 587.76 387.5 586.99 386.87 585.85 386.27 584.81 385.72 583.62 385.44 582.59 385.23 581.22 384.95 579.79 384.86 578.71 384.81 578.11 384.78 577.52 384.77 576.92 384.77 574.63 384.77 572.14 384.94 569.07 385.29 568.49 385.36 567.91 385.43 567.34 385.5 568.24 385.12 569.12 384.68 569.99 384.22 571.48 383.43 572.66 382.7 573.71 381.94 574.79 381.14 575.62 380.35 576.24 379.52 576.55 379.1 576.81 378.64 577 378.18 577.21 377.66 577.3 377.11 577.3 376.44 577.3 375.52 576.9 374.54 576.16 373.69 575.6 373.04 574.95 372.63 574.4 372.32 573.7 371.92 572.91 371.71 572.15 371.51 570.35 371.04 568.49 370.97 566.74 370.95L566.33 370.95C562.75 370.95 559.15 371.35 555.8 371.79L554.83 371.92C553.25 372.13 551.67 372.34 550.1 372.6 547.35 373.06 544.49 373.66 541.62 374.38 538.32 375.2 535.05 376.16 531.9 377.22 534.01 374.93 535.63 372.91 537.01 370.9 538.09 369.33 538.85 367.99 539.38 366.7 539.86 365.54 540.08 364.42 540.02 363.37 540 362.97 539.89 362.53 539.71 362.11 539.49 361.59 539.17 361.21 538.76 360.81 538.46 360.51 538.03 360.29 537.69 360.13 537.23 359.92 536.71 359.8 536.27 359.71 535.78 359.61 535.23 359.56 534.59 359.56" stroke-width="0" fill="#F6CFBE"/><path d="M530.57 377.21C528.58 377.59 526.59 377.9 524.61 378.34 523.57 378.56 522.53 378.85 521.51 379.14 520.49 379.42 519.49 379.75 518.51 380.1 516.59 380.78 514.74 381.66 512.98 382.67 511.14 383.73 509.36 384.97 507.88 386.5 507.67 386.71 507.53 386.91 507.49 387.22 507.46 387.51 507.55 387.8 507.73 388.02 508.11 388.48 508.79 388.53 509.25 388.17 510.1 387.52 510.93 386.85 511.79 386.22 512.59 385.64 513.41 385.1 514.25 384.58 514.23 384.59 514.21 384.6 514.19 384.62 518.14 382.23 522.44 380.47 526.85 379.14L526.69 379.19C528.02 378.81 529.36 378.45 530.73 378.19 530.99 378.14 531.18 377.91 531.14 377.63 531.1 377.4 530.89 377.21 530.66 377.21 530.64 377.21 530.61 377.21 530.59 377.21M514.46 384.46C514.4 384.5 514.34 384.53 514.28 384.57 514.34 384.53 514.4 384.5 514.46 384.46" stroke-width="0" fill="#DA8C67"/><path d="M565.91 385.14C563.23 385.31 560.56 385.49 557.89 385.77 555.05 386.06 552.21 386.49 549.42 387.06 546.76 387.6 544.14 388.32 541.58 389.19 540.3 389.63 539.05 390.12 537.81 390.65 537.2 390.91 536.59 391.2 535.99 391.48 535.3 391.81 534.62 392.19 533.94 392.57 533.73 392.69 533.56 392.83 533.46 393.07 533.38 393.29 533.38 393.55 533.48 393.76 533.67 394.21 534.23 394.43 534.67 394.22 536.58 393.32 538.52 392.49 540.5 391.74 542.51 390.98 544.56 390.31 546.63 389.7 546.6 389.71 546.57 389.72 546.55 389.73 549.68 388.82 552.86 388.03 556.08 387.43 559.39 386.81 562.71 386.33 566.06 386.1 566.33 386.08 566.52 385.78 566.48 385.54 566.44 385.27 566.21 385.12 565.96 385.12L565.92 385.12ZM546.37 389.79C546.43 389.77 546.48 389.76 546.54 389.74 546.48 389.75 546.43 389.77 546.37 389.79" stroke-width="0" fill="#DA8C67"/><path d="M570.27 400.8C565.77 401.13 561.27 401.44 556.82 402.24 554.65 402.63 552.51 403.16 550.4 403.81 548.23 404.48 546.11 405.33 544.09 406.37 543.85 406.49 543.67 406.66 543.57 406.92 543.47 407.17 543.48 407.44 543.59 407.69 543.81 408.18 544.42 408.43 544.92 408.2 546.44 407.5 547.98 406.83 549.55 406.24 551.07 405.66 552.63 405.15 554.19 404.69 559.48 403.16 564.94 402.21 570.43 401.78 570.7 401.76 570.89 401.47 570.85 401.23 570.81 400.96 570.59 400.81 570.34 400.81 570.32 400.81 570.3 400.81 570.29 400.81" stroke-width="0" fill="#DA8C67"/><path d="M412.05 413.25C409.8 416.35 407.22 419.18 404.53 421.89 402.79 423.64 401.03 425.37 399.19 427.01 397.49 428.51 395.74 429.96 393.93 431.32 390.4 433.97 386.68 436.37 382.78 438.44 375.06 442.54 366.73 445.48 358.16 447.19 349.59 448.9 340.77 449.45 332.05 448.88 323.27 448.3 314.55 446.65 306.19 443.93 297.82 441.21 289.76 437.47 282.33 432.74 278.61 430.37 275.03 427.75 271.66 424.9 268.96 422.62 266.39 420.19 263.96 417.62 263.43 417.84 262.89 418.07 262.35 418.29 252.08 422.48 241.15 426.14 231.51 429.37 215.61 434.71 199.17 440.22 183.99 448.12 177.7 451.38 171.83 455.03 166.53 458.97 160.84 463.22 155.69 467.93 151.24 472.97 147.03 477.73 142.98 483.17 139.21 489.13 135.77 494.55 132.58 500.52 129.72 506.88 124.43 518.6 120.26 531.8 117.33 546.12 114.66 559.25 113.06 573.05 112.45 588.29 111.9 601.87 112.21 615.85 113.39 631.01 114.41 644.02 116.13 657.74 118.5 671.78 119.26 676.19 120.06 680.56 120.9 684.78 122.06 690.63 123.07 695.5 124.54 700.51 124.73 701.16 125.32 701.63 126 701.63 126.15 701.63 126.27 701.61 126.4 701.58 126.78 701.49 127.12 701.22 127.32 700.85 127.52 700.5 127.57 700.1 127.46 699.72 126.84 697.61 126.25 695.3 125.66 692.68 163.24 699.74 203.91 703.38 253.63 704.19 260.51 704.3 267.56 704.35 275.18 704.35 278.83 704.35 282.49 704.35 286.14 704.32 293.5 704.27 300.85 704.17 308.2 704.06L318.6 703.91 323.59 703.84C343.41 703.58 363.9 703.31 384.03 702.33 403.4 701.38 420.53 699.83 436.37 697.61 439.97 697.88 443.29 698.03 446.48 698.08 449.75 699.13 453.35 699.67 457.2 699.67 458.42 699.67 459.64 699.62 460.81 699.52 463.7 699.27 466.76 698.72 469.91 697.89 474.33 696.73 478.07 695.28 481.35 693.45 481.78 693.21 482.05 692.77 482.1 692.25 485.47 690.85 488.75 689.12 491.83 687.12 496.64 684.01 501.15 680.09 505.25 675.47 512.33 667.45 518.11 657.3 522.9 644.43 526.67 634.32 529.66 622.82 532.32 608.24 538.88 572.35 538.97 536.26 538.31 508.83 537.92 493.02 537.15 477.09 536.42 461.68 536.28 458.72 536.14 455.75 536 452.78 533.71 452.65 531.43 452.38 529.17 451.97 524.45 451.11 519.82 449.71 515.4 447.83 510.8 445.87 506.4 443.46 502.27 440.67 498.04 437.8 494.06 434.57 490.39 431.01 486.79 427.52 483.45 423.75 480.48 419.71 478.9 417.57 477.42 415.36 476.05 413.1 473.72 419.62 471.12 426.54 468.14 434.13 465.51 432.02 462.64 430.16 460.18 428.62 452.27 423.66 443.21 419.23 432.47 415.07 426.72 412.84 420.76 410.84 414.69 409.1 413.89 410.54 413.01 411.93 412.04 413.26" stroke-width="0" fill="#2FC3B0"/><path d="M488.06 404.54 487.91 404.31C487.73 404.12 487.55 403.92 487.38 403.73 487.61 404.01 487.84 404.27 488.06 404.54" stroke-width="0" fill="#2FC3B0"/><path d="M499.83 415.54C499.96 415.66 500.08 415.77 500.21 415.89 500.21 415.87 500.21 415.86 500.22 415.84 499.84 415.52 499.46 415.19 499.08 414.87 499.33 415.09 499.57 415.32 499.83 415.54" stroke-width="0" fill="#2FC3B0"/><path d="M488.06 404.54 487.91 404.31C487.73 404.12 487.55 403.92 487.38 403.73 487.61 404.01 487.84 404.27 488.06 404.54" stroke-width="0" fill="#2FC3B0"/><path d="M499.83 415.54C499.96 415.66 500.08 415.77 500.21 415.89 500.21 415.87 500.21 415.86 500.22 415.84 499.84 415.52 499.46 415.19 499.08 414.87 499.33 415.09 499.57 415.32 499.83 415.54" stroke-width="0" fill="#2FC3B0"/><path d="M481.46 397.61C481.28 397.8 481.16 398.01 481.08 398.24 479.11 404.31 476.96 410.53 474.53 417.16 478.36 423.03 482.78 428.5 487.7 433.49L487.61 433.4C490.61 436.42 493.78 439.28 497.14 441.9 500.48 444.5 503.98 446.89 507.65 449.02 507.65 449.02 507.63 449.02 507.62 449.02 510.54 450.69 513.54 452.21 516.65 453.51 519.75 454.8 522.93 455.91 526.19 456.77L526.17 456.77C528.81 457.46 531.48 458 534.18 458.35 534.89 458.44 535.6 458.52 536.31 458.59 535.99 451.9 535.68 445.22 535.4 438.53 535.38 438.11 535.21 437.71 534.92 437.41 534.06 437.14 533.22 436.86 532.39 436.56 528.83 435.29 525.27 433.76 521.82 432.03 517.24 429.71 512.75 427.03 508.49 424.07 504.02 420.96 499.85 417.62 496.1 414.16 492.19 410.56 488.66 406.83 485.6 403.05 484.17 401.29 482.8 399.46 481.52 397.61 481.52 397.61 481.5 397.58 481.49 397.58 481.48 397.58 481.47 397.58 481.47 397.6" stroke-width="0" fill="#ABEDDB"/><path d="M488.06 404.54 487.91 404.31C487.73 404.12 487.55 403.92 487.38 403.73 487.61 404.01 487.84 404.27 488.06 404.54" stroke-width="0" fill="#2FC3B0"/><path d="M499.83 415.54C499.96 415.66 500.08 415.77 500.21 415.89 500.21 415.87 500.21 415.86 500.22 415.84 499.84 415.52 499.46 415.19 499.08 414.87 499.33 415.09 499.57 415.32 499.83 415.54" stroke-width="0" fill="#2FC3B0"/><path d="M391.2 405.04C390.55 406.15 389.85 407.23 389.14 408.31 386.52 412.08 383.5 415.44 380.17 418.28 376.48 421.39 372.21 424.12 367.5 426.39 362.11 428.92 356.28 430.8 350.19 431.98L350.58 432.08C345.33 432.91 340.25 433.36 335.47 433.36 333.75 433.36 332.03 433.3 330.37 433.19 324.25 432.76 318.31 431.59 312.71 429.71L312.51 429.66C307.72 427.94 303.27 425.73 299.29 423.07L299.13 422.95C295.71 420.56 292.61 417.79 289.93 414.71L289.77 414.58C288.26 412.71 286.99 410.94 285.88 409.19 285.62 408.74 285.13 408.48 284.58 408.48 284.43 408.48 284.3 408.5 284.16 408.54 283.97 408.38 283.68 408.29 283.37 408.29 283.11 408.29 282.85 408.36 282.62 408.49 276.57 411.93 269.94 415.11 262.34 418.25 262.29 418.27 262.23 418.3 262.18 418.32 263.05 419.59 263.96 420.83 264.91 422.04 266.69 424.31 268.58 426.48 270.6 428.53L270.6 428.53C272.99 430.95 275.52 433.22 278.2 435.32 280.83 437.36 283.58 439.24 286.43 440.95L286.43 440.95C289.75 442.93 293.22 444.69 296.79 446.2 300.34 447.69 303.99 448.96 307.69 450 307.65 450 307.61 449.98 307.57 449.97 316.17 452.36 325.07 453.54 333.99 453.6L333.86 453.6C343.4 453.64 352.92 452.41 362.14 449.98 362.09 449.98 362.06 450 362.01 450.01 370.55 447.74 378.79 444.43 386.48 440.07L386.48 440.07C386.48 440.07 386.48 440.07 386.48 440.07 386.48 440.07 386.48 440.07 386.48 440.07L386.48 440.07C386.48 440.07 386.52 440.05 386.54 440.04 386.52 440.06 386.5 440.06 386.49 440.07 386.51 440.06 386.53 440.04 386.55 440.03 386.55 440.03 386.57 440.03 386.58 440.01 386.58 440.01 386.58 440.01 386.58 440.01 389.9 438.11 393.11 436.01 396.16 433.72 399.24 431.42 402.17 428.92 404.93 426.23 407.22 423.99 409.38 421.63 411.39 419.13 413.55 416.45 415.56 413.64 417.33 410.69L417.33 410.69C417.48 410.44 417.62 410.19 417.76 409.94 415.87 409.37 413.98 408.83 412.07 408.31 405.45 406.49 399.28 405.19 393.21 404.31 393.04 404.22 392.83 404.17 392.62 404.17 392.06 404.17 391.54 404.49 391.23 405.03" stroke-width="0" fill="#ABEDDB"/><path d="M480.85 398.86C474.32 414.9 467.73 430.91 461.36 447.01 454.97 463.14 448.76 479.33 442.75 495.6 439.75 503.72 436.86 511.88 434.03 520.06 431.26 528.09 428.57 536.14 425.83 544.17 420.43 560.04 415.11 575.94 410.53 592.07 407.17 603.93 404.34 615.97 402.23 628.12 401.2 634.04 400.37 640.01 399.76 645.99 399.45 648.98 399.21 651.98 399.08 654.99 399.02 656.49 398.97 658 398.96 659.5 398.93 661.23 399.05 662.95 399.22 664.67 399.31 665.09 399.5 665.45 399.78 665.77 400.21 666.26 400.84 666.55 401.48 666.58 402.11 666.61 402.74 666.39 403.21 665.96 403.35 665.81 403.49 665.64 403.63 665.49 403.87 665.11 404 664.7 404.02 664.26 404.57 660.95 404.8 657.6 405.14 654.25 405.47 650.92 405.79 647.59 406.19 644.27 407 637.46 408.05 630.69 409.27 623.94 409.22 624.22 409.17 624.49 409.12 624.76 412.15 608.24 416.23 591.95 420.82 575.8 423.12 567.73 425.55 559.72 428.01 551.71 430.48 543.67 432.99 535.64 435.54 527.62 440.8 511.13 446.3 494.71 452.03 478.37 457.76 462.02 463.69 445.75 469.86 429.56 473.74 419.38 477.7 409.22 481.79 399.13 481.9 398.88 481.72 398.59 481.47 398.51 481.42 398.49 481.37 398.49 481.32 398.49 481.11 398.49 480.93 398.63 480.85 398.84" stroke-width="0" fill="#27A495"/><path d="M379.66 127.32C376.77 127.32 373.93 127.43 371.2 127.64 367.32 127.93 363.26 128.46 359.13 129.2 342.07 132.26 325.32 138.45 309.35 147.61 301.35 152.19 293.9 157.43 287.22 163.19 280.19 169.23 274.16 175.73 269.3 182.49 264.09 189.73 260.14 197.36 257.57 205.15 254.88 213.32 253.71 221.79 254.1 230.34 254.24 233.3 254.59 236.28 255.18 239.46 255.81 242.83 256.61 246.16 257.55 249.35 258.67 253.15 259.9 256.4 261.32 259.3 263.07 262.87 264.76 265.3 266.8 267.2 268.79 269.05 271.2 270.06 273.57 270.06 273.79 270.06 274.02 270.06 274.24 270.03 275.6 269.91 277.02 269.43 278.56 268.57 279.98 267.78 281.38 266.63 282.96 264.95 284.34 263.48 285.64 261.67 286.94 259.41 288.04 257.51 289.01 255.37 289.9 252.9 291.54 248.39 292.65 243.45 293.21 238.23 293.66 234.06 293.71 230.09 293.38 226.43 296.43 225.78 299.68 224.92 303.6 223.74 308.08 222.39 312.52 220.83 316.8 219.1 325.8 215.48 334.68 210.98 343.18 205.73 352.16 200.2 360.36 193.95 367.55 187.15 375.18 179.94 381.39 172.2 386 164.12 388.47 159.8 390.46 155.28 391.92 150.69 392.8 151.03 393.7 151.39 394.6 151.76 400 154.08 405.46 157.34 410.84 161.45 419.03 167.81 426.79 175.76 436 187.21 436.26 187.53 436.77 187.68 437.12 187.68L437.12 187.68C437.57 187.68 437.98 187.51 438.28 187.21 438.41 187.08 438.53 186.91 438.62 186.72 438.97 186.49 439.23 186.1 439.33 185.67 440.69 179.57 441.07 173.58 440.45 167.88 440.14 165 439.52 162.08 438.62 159.19 437.79 156.51 436.57 153.74 435 150.95 432.6 146.69 429.34 142.93 425.3 139.76 421.79 137 417.58 134.64 412.77 132.75 404.62 129.56 395.19 127.8 383.94 127.38 382.52 127.33 381.1 127.31 379.66 127.31" stroke-width="0" fill="#FBA92D"/><path d="M390.91 150.15C390.58 151.52 390.16 152.87 389.68 154.2 389.7 154.16 389.71 154.12 389.72 154.08 387.9 159 385.25 163.59 382.25 167.88 382.29 167.82 382.33 167.76 382.38 167.69 379.11 172.33 375.42 176.67 371.49 180.78 367.76 184.67 363.8 188.35 359.66 191.8 359.68 191.79 359.7 191.77 359.72 191.75 354.14 196.38 348.18 200.55 341.96 204.27 335.49 208.13 328.77 211.56 321.91 214.7 321.91 214.7 321.91 214.7 321.91 214.7 321.9 214.7 321.89 214.7 321.88 214.72 321.74 214.78 321.61 214.84 321.48 214.9 321.52 214.88 321.55 214.87 321.59 214.85 316.47 217.16 311.28 219.34 305.99 221.22 300.33 223.23 294.54 224.92 288.61 225.93 288.61 225.93 288.61 225.93 288.62 225.93 287.46 226.12 286.29 226.28 285.12 226.42 284.55 226.5 284.06 226.66 283.66 227.1 283.28 227.5 283.08 228.05 283.11 228.6 283.13 229.15 283.37 229.68 283.78 230.06 284.16 230.41 284.77 230.68 285.29 230.61 291.41 229.79 297.43 228.19 303.28 226.2 306.18 225.21 309.04 224.11 311.89 222.98 314.66 221.88 317.41 220.73 320.13 219.54 325.5 217.18 330.78 214.59 335.89 211.72 340.97 208.86 345.89 205.7 350.59 202.26 352.95 200.53 355.27 198.74 357.52 196.86 359.37 195.32 361.17 193.72 362.96 192.11 366.77 188.67 370.43 185.04 373.88 181.23 377.47 177.28 380.81 173.11 383.79 168.67 386.62 164.47 389.09 160 390.84 155.23 391.41 153.67 391.9 152.07 392.3 150.46 392.39 150.08 392.13 149.69 391.75 149.61 391.7 149.6 391.65 149.59 391.6 149.59 391.27 149.59 390.98 149.82 390.91 150.15M321.58 214.84C321.68 214.79 321.78 214.75 321.88 214.71 321.88 214.71 321.9 214.71 321.91 214.7 321.8 214.75 321.7 214.79 321.59 214.85M389.74 154.09C389.74 154.09 389.75 154.05 389.76 154.03 389.76 154.05 389.74 154.07 389.74 154.09" stroke-width="0" fill="#E38907"/><path d="M392.31 149.44C392.02 149.51 391.78 149.69 391.63 149.95 391.34 150.44 391.5 151.15 392.02 151.43 393.75 152.35 395.49 153.24 397.21 154.18 398.91 155.1 400.58 156.07 402.22 157.08 405.44 159.05 408.52 161.23 411.51 163.54 413.81 165.34 416.03 167.24 418.18 169.21 420.45 171.29 422.63 173.47 424.77 175.69 426.93 177.93 429 180.25 431.03 182.6 433.07 184.97 435.07 187.38 437.02 189.84 437.19 190.05 437.54 190.02 437.72 189.84 437.93 189.63 437.89 189.35 437.72 189.14 434.57 185.16 431.4 181.2 428.08 177.38 424.8 173.61 421.36 169.97 417.73 166.53 415.97 164.86 414.15 163.24 412.3 161.68 410.37 160.06 408.35 158.52 406.3 157.05 404.21 155.55 402.05 154.16 399.84 152.87 397.59 151.57 395.27 150.4 392.85 149.44 392.76 149.42 392.67 149.4 392.57 149.4 392.47 149.4 392.39 149.41 392.3 149.44" stroke-width="0" fill="#E38907"/><path d="M376.27 152.93C374.36 155.22 372.38 157.44 370.34 159.62 370.36 159.6 370.38 159.59 370.39 159.57 361.54 168.99 351.53 177.3 340.62 184.23 340.62 184.23 340.63 184.23 340.64 184.22 340.62 184.23 340.6 184.24 340.58 184.25L340.4 184.36C340.4 184.36 340.43 184.34 340.44 184.33 335.77 187.26 330.96 189.94 325.97 192.3 323.45 193.49 320.89 194.6 318.3 195.63 315.82 196.64 313.28 197.51 310.73 198.32 308.03 199.16 305.31 199.9 302.56 200.52 302.03 200.64 301.57 200.9 301.25 201.34 300.93 201.79 300.79 202.36 300.89 202.9 300.98 203.43 301.28 203.91 301.71 204.22 302.11 204.51 302.77 204.73 303.27 204.58 305.88 203.78 308.46 202.9 311.02 201.97 313.53 201.06 315.99 200.03 318.44 198.97 323.37 196.84 328.12 194.36 332.77 191.68 337.42 188.99 341.92 186.03 346.24 182.84 350.59 179.64 354.75 176.21 358.77 172.62 365.36 166.74 371.41 160.28 377.04 153.49 377.21 153.28 377.13 152.95 376.93 152.8 376.84 152.74 376.75 152.71 376.65 152.71 376.49 152.71 376.34 152.78 376.24 152.92M340.42 184.32C340.42 184.32 340.51 184.26 340.56 184.24 340.57 184.24 340.58 184.22 340.6 184.22 340.54 184.25 340.49 184.29 340.43 184.33" stroke-width="0" fill="#E38907"/><path d="M355.53 156.71C351.76 160.34 347.63 163.57 343.21 166.37 343.27 166.33 343.34 166.29 343.41 166.25 342.23 166.99 341.03 167.7 339.81 168.36 339.58 168.49 339.39 168.66 339.3 168.91 339.21 169.16 339.22 169.44 339.33 169.68 339.44 169.92 339.64 170.1 339.88 170.2 340.11 170.28 340.43 170.3 340.66 170.18 343.53 168.47 346.26 166.58 348.86 164.49 351.49 162.38 353.97 160.08 356.37 157.73 356.62 157.48 356.7 157.1 356.46 156.81 356.34 156.66 356.13 156.57 355.94 156.57 355.79 156.57 355.65 156.62 355.54 156.72" stroke-width="0" fill="#E38907"/><path d="M358.02 276.4C358.02 276.4 358 276.4 358 276.4 357.93 276.48 357.87 276.55 357.84 276.62 357.78 276.72 357.73 276.84 357.7 276.98 357.58 277.12 357.49 277.3 357.43 277.5 356.33 281.44 356 285.63 356.48 289.59 357.03 294.3 358.65 298.1 361.3 300.87 362.79 302.44 364.79 303.65 367.09 304.39 368.18 304.74 369.35 304.92 370.56 304.92 371.84 304.92 373.14 304.72 374.44 304.33 376.59 303.7 378.68 302.47 380.82 300.59 382.58 299.03 384.18 296.99 385.46 294.69 385.98 293.77 386.45 292.73 386.95 291.4 387.33 290.4 387.61 289.25 387.82 287.79 387.86 287.61 387.88 287.45 387.88 287.31 386.05 287.07 384.3 286.78 382.66 286.42 379.55 285.76 376.45 284.87 373.44 283.79 368.12 281.85 362.94 279.37 358.04 276.4 358.04 276.4 358.03 276.4 358.02 276.4" stroke-width="0" fill="#0B2135"/><path d="M356.43 287.05C356.43 287.05 356.33 287.05 356.29 287.05 356.32 287.9 356.38 288.75 356.48 289.59 357.03 294.31 358.65 298.09 361.3 300.87 362.79 302.44 364.79 303.66 367.08 304.39 368.17 304.74 369.34 304.92 370.55 304.92 371.76 304.92 373.13 304.73 374.43 304.34 375.93 303.9 377.41 303.16 378.89 302.12 377.71 300.25 376.36 298.49 374.9 296.84 374.93 296.87 374.95 296.9 374.98 296.93 372.81 294.51 370.38 292.32 367.66 290.53 366.76 289.95 365.82 289.4 364.85 288.94 363.99 288.52 363.1 288.15 362.19 287.85 361.52 287.64 360.85 287.44 360.16 287.32 359.51 287.19 358.86 287.1 358.21 287.05 358.21 287.05 358.21 287.05 358.22 287.05 358.22 287.05 358.22 287.05 358.21 287.05 358.19 287.05 358.17 287.05 358.15 287.05 357.84 287.03 357.54 287.02 357.23 287.02 356.96 287.02 356.68 287.02 356.41 287.05" stroke-width="0" fill="#F68677"/><path d="M336.34 236.51C336.24 236.51 336.13 236.51 336.03 236.53 334.6 236.7 333.39 238 332.62 240.19 331.86 242.39 331.63 245.19 331.96 248.1 332.65 253.9 335.42 258.44 338.27 258.44 338.38 258.44 338.48 258.44 338.58 258.42 341.53 258.06 343.36 252.87 342.65 246.85 341.97 241.05 339.2 236.51 336.34 236.51" stroke-width="0" fill="#0B2135"/><path d="M411.42 225.46C411.32 225.46 411.23 225.46 411.13 225.48 410.37 225.57 409.69 226 409.11 226.74 407.65 228.59 406.99 232.24 407.43 236.03 408.05 241.32 410.58 245.46 413.19 245.46 413.28 245.46 413.38 245.46 413.47 245.44 416.16 245.11 417.83 240.38 417.18 234.89 416.56 229.61 414.04 225.47 411.43 225.47" stroke-width="0" fill="#0B2135"/><path d="M376.37 201.13C375.78 201.13 375.47 201.61 375.42 202.08L375.11 205.4C374.36 213.25 373.58 221.36 374.97 229.33 375.76 233.78 377.35 238.05 379.69 242 381.23 244.63 383.21 246.99 385.12 249.28 386.11 250.46 387.01 251.52 387.87 252.63 388.88 253.96 389.55 255.03 390.05 256.11 390.27 256.69 390.42 257.24 390.52 257.8 390.56 258.22 390.56 258.64 390.52 259.05 390.44 259.5 390.31 259.97 390.11 260.49 389.8 261.17 389.38 261.85 388.83 262.59 387.76 263.92 386.47 265.19 384.88 266.46 383.64 267.4 382.23 268.21 380.56 268.94 379.85 269.23 379.14 269.48 378.43 269.71 377.36 270.05 376.75 271.13 377.04 272.18 377.17 272.68 377.51 273.11 377.96 273.37 378.26 273.55 378.64 273.66 379 273.66 379.2 273.66 379.37 273.63 379.51 273.57 381.55 272.79 383.44 271.83 385.14 270.7 386.86 269.55 388.51 268.17 390.05 266.58 392.74 263.79 394.03 260.98 393.9 258.22 393.77 255.4 392.13 253.03 390.38 250.89 389.62 249.97 388.82 249.1 388.01 248.22L387.32 247.46C386.22 246.28 384.93 244.87 383.73 243.35 381.85 240.92 380.31 238.33 379.13 235.64 377.93 232.75 377.08 229.59 376.62 226.24 376.2 222.93 376.1 219.29 376.31 214.85 376.48 211.3 376.81 207.66 377.11 204.45L377.33 202.08C377.35 201.87 377.26 201.65 377.09 201.46 376.9 201.25 376.62 201.12 376.37 201.12" stroke-width="0" fill="#DA8C67"/><path d="M399.66 176.83C394.7 176.83 391.45 178.07 390.96 180.14 390.58 181.76 391.9 183.67 394.69 185.54 397.47 187.4 401.37 188.99 405.67 190 408.74 190.73 411.81 191.12 414.54 191.12 419.5 191.12 422.75 189.88 423.24 187.81 423.62 186.19 422.3 184.28 419.51 182.41 416.73 180.55 412.83 178.97 408.53 177.95 405.46 177.22 402.39 176.83 399.66 176.83" stroke-width="0" fill="#FBA92D"/></g><g><path d="M472.01 665.62 338.96 665.62C331.58 665.62 325.34 671.86 325.34 679.24 325.34 686.62 331.57 692.86 338.96 692.86L472.01 692.86C479.39 692.86 485.63 686.62 485.63 679.24 485.63 671.86 479.39 665.62 472.01 665.62" stroke-width="0" fill="#021621"/><path d="M389.25 693.45 92.87 691.3 39.19 496.78C36.87 488.36 43.2 480.04 51.93 480.04L318.38 480.04C328.61 480.04 337.52 487 340 496.91L389.24 693.44Z" stroke-width="0" fill="#021621"/><path d="M376.56 693.45 90.91 691.3 39.18 496.78C36.94 488.36 43.04 480.04 51.46 480.04L308.27 480.04C318.12 480.04 326.72 487 329.11 496.91L376.57 693.44Z" stroke-width="0" fill="#0F2335"/><path d="M263.8 692.6 376.56 693.45 329.1 496.92C326.7 487 318.11 480.05 308.26 480.05L76.47 480.05C85.03 523.1 121.07 640.73 263.8 692.6Z" stroke-width="0" fill="#04293E"/><path d="M190.1 543.64C179.81 545.31 173.35 558.38 175.7 572.79 178.04 587.2 188.3 597.55 198.6 595.87 208.9 594.2 215.35 581.14 213.01 566.72 210.67 552.31 200.4 541.96 190.11 543.64" stroke-width="0" fill="#CFE7E0"/><path d="M218.33 536.04C214.51 536.66 212.12 541.5 212.99 546.84 213.86 552.18 217.66 556.02 221.48 555.39 225.3 554.77 227.69 549.93 226.82 544.59 225.95 539.25 222.15 535.42 218.34 536.04" stroke-width="0" fill="#CFE7E0"/></g><path d="M1032.9 688.31 10.86 688.31C4.94 688.31 0 694.59 0 702.11 0 709.63 4.94 715.91 10.86 715.91L1032.9 715.91C1038.82 715.91 1043.76 709.63 1043.76 702.11 1043.76 694.59 1038.82 688.31 1032.9 688.31" stroke-width="0" fill="#206969"/></svg>