<svg viewBox="0 0 519.64 365.44" xmlns="http://www.w3.org/2000/svg" xmlns:xlink="http://www.w3.org/1999/xlink" id="Layer_1" overflow="hidden"><defs></defs><g><path d="M61.85 72.79 462.43 23.64 453.43 11.59 268.92 19.82 71.67 60.94 61.85 72.79Z" stroke-width="0" fill="#FF5086"/><path d="M292.43 335.59 232.73 339.86 258.32 29.36 273.24 29.36 274.5 49.55 290.69 307.82 292.43 335.59Z" stroke-width="0" fill="#FF5086"/><path d="M290.69 307.82 271.46 307.82 267.73 49.55 274.5 49.55 290.69 307.82Z" stroke-width="0" fill="#FF84A4"/><circle cx="265.9" cy="29.35" r="29.35" stroke-width="0" fill="#FF84A4"/><circle cx="265.9" cy="29.35" r="16.34" stroke-width="0" fill="#FF84A4" transform="matrix(0.707107 -0.707107 0.707107 0.707107 57.12 196.61)"/><path d="M6.98 182.07C18.19 149.41 33.87 118.33 53.43 89.87 58.96 81.82 64.8 73.99 70.95 66.39 71.77 65.38 71.94 63.96 70.95 62.97 70.1 62.12 68.36 61.95 67.53 62.97 45.44 90.29 27.07 120.53 13.15 152.8 9.19 161.99 5.57 171.32 2.32 180.78 1.31 183.73 5.97 184.99 6.98 182.06L6.98 182.06Z" stroke-width="0" fill="#FF5086"/><path d="M69.63 66.03C83.6 79.12 96.55 93.32 108.24 108.49 119.9 123.61 130.34 139.68 139.45 156.46 144.6 165.95 149.32 175.68 153.6 185.6 154.12 186.8 155.88 187.07 156.91 186.47 158.15 185.75 158.3 184.37 157.78 183.16 150.15 165.46 141.1 148.38 130.74 132.14 120.36 115.87 108.67 100.42 95.85 86 88.61 77.86 81 70.06 73.06 62.62 70.79 60.49 67.37 63.9 69.64 66.04L69.64 66.04Z" stroke-width="0" fill="#FF5086"/><path d="M368.17 126.93C387.61 97.63 409.05 69.69 432.34 43.35 435.21 40.11 438.1 36.89 441.02 33.7 443.78 30.68 446.46 27.23 449.64 24.64 450.84 23.66 452.36 22.75 453.89 23.49 455.51 24.27 456.79 26.08 458 27.36 460.7 30.23 463.33 33.17 465.88 36.18 476.19 48.29 485.27 61.44 493.03 75.33 501.79 91.03 508.79 107.65 513.89 124.89 514.77 127.87 519.44 126.6 518.55 123.61 509.08 91.62 493.14 61.68 471.94 35.92 469.33 32.74 466.63 29.63 463.86 26.59 462.47 25.07 461.08 23.56 459.65 22.08 458.3 20.69 456.82 19.31 454.93 18.71 450.83 17.42 447.16 20.12 444.45 22.91 441.2 26.26 438.08 29.75 434.94 33.21 422.82 46.59 411.17 60.4 400.03 74.61 387.37 90.76 375.34 107.39 363.99 124.49 362.27 127.09 366.45 129.51 368.16 126.93L368.16 126.93Z" stroke-width="0" fill="#FF5086"/><g><path d="M363.04 123.89C391.59 108.87 507.42 115.32 519.64 123.89 436.66 150.15 383.77 151.12 363.04 123.89Z" stroke-width="0" fill="#FF5086"/><path d="M519.64 123.89C518.02 188.3 460.45 209.29 415.49 196.4 384.33 187.47 359.24 162.24 363.05 123.89 408.83 138.01 452.05 136.44 481.44 132.26 504.97 128.91 519.64 123.89 519.64 123.89Z" stroke-width="0" fill="#FF84A4"/><path d="M519.64 123.89C518.02 188.3 460.45 209.29 415.49 196.4 431.12 192.94 445.82 185.18 457.36 174.06 469.08 162.76 477.47 148.06 481.43 132.26 504.96 128.91 519.63 123.89 519.63 123.89Z" stroke-width="0" fill="#FF84A4"/></g><g><path d="M0.4 182.46C29.26 167.28 146.36 173.8 158.7 182.46 74.82 209.01 21.35 209.99 0.4 182.46Z" stroke-width="0" fill="#FF5086"/><path d="M158.7 182.45C157.12 245.34 102.76 267.29 58.11 256.98 24.48 249.21-3.65 223.13 0.39 182.45 37.26 193.82 72.48 195.13 100.28 193.05 135.38 190.45 158.7 182.45 158.7 182.45Z" stroke-width="0" fill="#FF84A4"/><path d="M158.7 182.45C157.12 245.34 102.76 267.29 58.11 256.98 63.52 253.15 68.56 248.78 73.14 243.99 86.4 230.08 95.91 212.55 100.12 193.78 100.18 193.53 100.24 193.28 100.27 193.05 135.37 190.45 158.69 182.45 158.69 182.45Z" stroke-width="0" fill="#FF84A4"/></g><path d="M463.24 21.62C463.24 29.03 457.24 35.03 449.83 35.03 442.42 35.03 436.42 29.03 436.42 21.62 436.42 14.21 442.42 8.21 449.83 8.21 457.24 8.21 463.24 14.21 463.24 21.62Z" stroke-width="0" fill="#FF84A4"/><circle cx="71.33" cy="68.47" r="13.41" stroke-width="0" fill="#FF84A4"/></g><path d="M300.86 300.52 220.85 303.84 214.21 339.08 310.19 339.08 300.86 300.52Z" stroke-width="0" fill="#FF84A4"/><path d="M360.18 365.44 164.98 365.44 170.31 336.42 349.81 327.72 360.18 365.44Z" stroke-width="0" fill="#FF5086"/></svg>