<svg viewBox="0 0 320.3 496.44" xmlns="http://www.w3.org/2000/svg" xmlns:xlink="http://www.w3.org/1999/xlink" overflow="hidden"><defs></defs><g><g id="Layer_1"><g><path d="M8.23 217.91C8.23 134.01 76.25 65.99 160.15 65.99 244.05 65.99 312.07 134 312.07 217.91 312.07 251.35 301.25 282.27 282.94 307.36L282.94 307.36C261.26 340.04 204.91 376.93 204.91 399.03L204.91 424.28C204.91 429.32 200.82 433.41 195.78 433.41L124.52 433.41C119.48 433.41 115.39 429.32 115.39 424.28L115.39 399.03C115.39 376.93 59.05 340.03 37.36 307.36L37.36 307.36C19.05 282.27 8.23 251.35 8.23 217.91Z" stroke-width="0" fill="#FFA401"/><path d="M177.4 430.89C177.22 427.08 174.5 366.1 179.39 312.66 173.41 313.37 167 313.75 160.15 313.75 153.3 313.75 146.9 313.37 140.91 312.66 145.79 366.1 143.07 427.09 142.89 430.89L140.21 430.76C140.25 429.82 143.07 366.74 138.08 312.29 93.02 306.02 72.85 280.5 69.23 256.41 67.11 242.33 71.92 228.32 80.66 223.09 85.96 219.92 92.37 219.28 99.19 221.23 109.92 224.31 120.12 233.55 126.47 245.96 133.8 260.29 138.14 284.08 140.64 309.91 146.68 310.65 153.17 311.05 160.13 311.05 167.09 311.05 173.58 310.65 179.62 309.91 182.12 284.08 186.46 260.29 193.79 245.96 200.14 233.55 210.34 224.31 221.07 221.23 227.89 219.27 234.3 219.92 239.6 223.09 248.34 228.32 253.15 242.33 251.03 256.41 247.41 280.5 227.24 306.03 182.18 312.29 177.19 366.75 180.01 429.82 180.05 430.76L177.37 430.89ZM228.61 222.81C226.44 222.81 224.17 223.14 221.83 223.81 211.8 226.69 202.22 235.43 196.2 247.19 189.15 260.97 184.93 284.18 182.47 309.54 225.63 303.32 244.95 278.98 248.41 256.01 250.34 243.17 245.97 230.01 238.25 225.39 235.38 223.67 232.12 222.81 228.61 222.81ZM91.69 222.81C88.18 222.81 84.92 223.67 82.05 225.39 74.33 230.01 69.96 243.17 71.89 256.01 75.34 278.99 94.66 303.32 137.83 309.54 135.37 284.18 131.15 260.97 124.1 247.19 118.08 235.43 108.5 226.69 98.47 223.81 96.14 223.14 93.87 222.81 91.69 222.81Z" stroke-width="0" fill="#FFFFFF"/><path d="M286.78 226.62C281.97 226.62 278.06 222.72 278.06 217.9 278.06 163.84 241.51 116.84 189.19 103.59 184.52 102.41 181.7 97.67 182.88 93 184.06 88.33 188.8 85.5 193.47 86.69 253.54 101.9 295.5 155.85 295.5 217.9 295.5 222.71 291.6 226.62 286.78 226.62Z" stroke-width="0" fill="#FFEE99"/><path d="M157.22 91.05C157.22 95.86 161.12 99.77 165.94 99.77 170.76 99.77 174.66 95.87 174.66 91.05 174.66 86.23 170.76 82.33 165.94 82.33 161.12 82.33 157.22 86.23 157.22 91.05Z" stroke-width="0" fill="#FFEE99"/><g opacity="0.55"><path d="M311.78 226.89C303.4 289.18 253.1 353.67 160.16 353.67 67.22 353.67 18.79 286.17 8.53 226.89 10.28 256.88 20.71 284.53 37.37 307.36L37.37 307.36C59.05 340.04 115.4 376.93 115.4 399.03L115.4 424.28C115.4 429.32 119.49 433.41 124.53 433.41L195.79 433.41C200.83 433.41 204.92 429.32 204.92 424.28L204.92 399.03C204.92 376.93 261.26 340.03 282.95 307.36L282.95 307.36C299.61 284.53 310.04 256.88 311.79 226.89Z" stroke-width="0" fill="#FFC043"/></g><path d="M208.5 409.82 111.8 409.82 111.8 455.91C111.8 463.44 113.94 470.81 117.97 477.16L117.97 477.16C125.59 489.17 138.83 496.45 153.06 496.45L167.24 496.45C181.47 496.45 194.7 489.17 202.33 477.16L202.33 477.16C206.36 470.81 208.5 463.44 208.5 455.91L208.5 409.82Z" stroke-width="0" fill="#013033"/><path d="M111.79 440.89C112.07 440.89 112.35 440.89 112.63 440.86L209.33 430.84C212.63 430.5 214.94 427.53 214.48 424.21 214.02 420.89 210.97 418.48 207.67 418.82L110.97 428.84C107.67 429.18 105.36 432.15 105.82 435.47 106.24 438.5 108.82 440.78 111.79 440.89Z" stroke-width="0" fill="#34595C"/><path d="M111.79 461.99C112.07 461.99 112.35 461.99 112.63 461.96L209.33 451.94C212.63 451.6 214.94 448.63 214.48 445.31 214.02 441.99 210.97 439.58 207.67 439.92L110.97 449.94C107.67 450.28 105.36 453.25 105.82 456.57 106.24 459.6 108.82 461.88 111.79 461.99Z" stroke-width="0" fill="#34595C"/><path d="M115.66 482.86C115.94 482.86 116.22 482.86 116.5 482.83L208.16 473.33C211.46 472.99 213.77 470.02 213.31 466.7 212.85 463.38 209.8 460.97 206.5 461.31L114.84 470.81C111.54 471.15 109.23 474.12 109.69 477.44 110.11 480.47 112.69 482.75 115.66 482.86Z" stroke-width="0" fill="#34595C"/><g><line x1="160.15" y1="1.5" x2="160.15" y2="49.24" stroke="#FFC043" stroke-width="3" stroke-linecap="round" stroke-linejoin="round" fill="#FFCD5C"/><g><line x1="246.24" y1="20.51" x2="226.96" y2="64.19" stroke="#FFC043" stroke-width="3" stroke-linecap="round" stroke-linejoin="round" fill="#FFCD5C"/><line x1="318.8" y1="73.33" x2="283.53" y2="105.5" stroke="#FFC043" stroke-width="3" stroke-linecap="round" stroke-linejoin="round" fill="#FFCD5C"/><line x1="74.06" y1="20.51" x2="93.34" y2="64.19" stroke="#FFC043" stroke-width="3" stroke-linecap="round" stroke-linejoin="round" fill="#FFCD5C"/><line x1="1.5" y1="73.33" x2="36.78" y2="105.5" stroke="#FFC043" stroke-width="3" stroke-linecap="round" stroke-linejoin="round" fill="#FFCD5C"/></g></g></g></g></g></svg>