<svg viewBox="0 0 139.34 277.8" xmlns="http://www.w3.org/2000/svg" xmlns:xlink="http://www.w3.org/1999/xlink" id="Isolation_Mode" overflow="hidden"><defs></defs><path d="M37.45 238.97C48.16 229.82 65.26 232.11 72.38 244.64 79.51 257.18 78.3 281.24 50.66 277.38 23.02 273.52 24.12 250.34 37.44 238.97Z" stroke-width="0" fill="#F89F47"/><path d="M0.19 67.92C-3.11 63.72 36.75-23.25 90.55 6 204.87 68.14 84.03 128.04 72.14 137.4 60.25 146.75 75.07 213.5 70.32 217.24 65.56 220.98 43.34 216.17 41.47 213.79 39.6 211.41 39.6 130.27 46.05 121.35 52.5 112.42 126.31 83.9 98.38 47.16 70.45 10.42 35.91 61.7 29.17 80.91 28.08 84.01 2.06 70.31 0.19 67.93Z" stroke-width="0" fill="#F89F47"/><path d="M61.83 123.06C61.83 123.06 61.97 122.9 62.23 122.59 62.36 122.43 62.53 122.24 62.72 122.01 62.94 121.79 63.2 121.55 63.5 121.26 64.69 120.14 66.51 118.7 68.94 116.99 71.35 115.27 74.33 113.26 77.71 110.93 81.09 108.59 84.88 105.92 88.88 102.83 92.86 99.73 97.04 96.19 101.01 92.01 104.98 87.85 108.65 82.91 111.19 77.21 111.49 76.49 111.74 75.75 112.02 75.02L112.43 73.91 112.73 72.77C112.92 72 113.14 71.24 113.31 70.47 113.42 69.68 113.54 68.9 113.65 68.11 113.8 67.32 113.79 66.52 113.82 65.72 113.82 64.92 113.93 64.11 113.83 63.31 113.76 62.51 113.69 61.7 113.62 60.89L113.57 60.28 113.45 59.68 113.2 58.48C112.63 55.26 111.33 52.2 109.93 49.21 109.14 47.75 108.3 46.32 107.45 44.89L104.58 40.81C103.51 39.5 102.46 38.18 101.38 36.89 100.22 35.7 99.14 34.45 97.93 33.31L96.08 31.65 95.15 30.82 94.16 30.08 92.18 28.61C91.5 28.15 90.78 27.76 90.09 27.33 88.73 26.42 87.19 25.85 85.74 25.14 84.98 24.88 84.22 24.62 83.46 24.36 83.08 24.24 82.71 24.08 82.32 24L81.15 23.75 79.98 23.5 79.4 23.37 78.81 23.31C78.02 23.23 77.24 23.15 76.45 23.07 75.66 23.04 74.88 23.07 74.1 23.07 73.32 23.04 72.54 23.15 71.77 23.24 70.22 23.35 68.72 23.75 67.23 24.06 66.5 24.27 65.77 24.51 65.05 24.74 64.32 24.94 63.62 25.23 62.93 25.53 60.12 26.61 57.56 28.09 55.13 29.62 50.33 32.78 46.25 36.46 42.8 40.12 35.93 47.5 31.38 54.67 28.62 59.85 27.21 62.44 26.3 64.56 25.68 66 25.11 67.47 24.81 68.25 24.81 68.25L24.81 68.27C24.74 68.44 24.55 68.52 24.39 68.45 24.23 68.39 24.14 68.2 24.2 68.04 24.2 68.04 24.5 67.24 25.05 65.75 25.66 64.28 26.56 62.12 27.94 59.49 29.31 56.86 31.09 53.72 33.42 50.29 35.74 46.87 38.56 43.14 42.04 39.41 45.52 35.69 49.63 31.94 54.52 28.69 56.99 27.12 59.61 25.59 62.49 24.46 63.2 24.16 63.92 23.86 64.67 23.64 65.42 23.41 66.16 23.15 66.92 22.93 68.47 22.59 70.01 22.18 71.63 22.06 72.43 21.96 73.23 21.85 74.05 21.87 74.86 21.87 75.68 21.83 76.5 21.85 77.32 21.93 78.14 22.01 78.96 22.09L79.58 22.15 80.19 22.28 81.41 22.54 82.63 22.8C83.04 22.89 83.43 23.05 83.82 23.17 84.61 23.44 85.41 23.69 86.2 23.97 87.71 24.7 89.31 25.29 90.72 26.22 91.44 26.66 92.19 27.07 92.89 27.54L94.94 29.05 95.97 29.81 96.93 30.65 98.84 32.35C100.09 33.51 101.22 34.81 102.42 36.03 103.52 37.32 104.57 38.64 105.65 39.94 106.68 41.35 107.62 42.75 108.6 44.15 109.46 45.63 110.32 47.1 111.13 48.61 112.56 51.7 113.88 54.88 114.47 58.23L114.72 59.47 114.84 60.09 114.89 60.72C114.96 61.56 115.03 62.4 115.1 63.24 115.19 64.08 115.08 64.92 115.08 65.75 115.05 66.59 115.06 67.42 114.89 68.24 114.77 69.06 114.64 69.88 114.52 70.7 114.34 71.5 114.11 72.29 113.91 73.09L113.59 74.27 113.16 75.41C112.87 76.17 112.61 76.93 112.29 77.67 109.64 83.54 105.86 88.55 101.82 92.76 97.77 96.98 93.54 100.54 89.52 103.64 85.49 106.74 81.65 109.38 78.23 111.67 74.81 113.97 71.81 115.93 69.39 117.61 66.96 119.27 65.12 120.69 63.99 121.73 63.71 121.99 63.46 122.22 63.24 122.42 63.04 122.65 62.88 122.84 62.74 122.99 62.47 123.3 62.33 123.46 62.33 123.46L62.33 123.46C62.21 123.6 62.01 123.61 61.88 123.5 61.75 123.38 61.73 123.18 61.84 123.05Z" stroke-width="0" fill="#F89F47"/><path d="M36.41 250.51C36.41 250.51 36.45 251.3 36.52 252.67 36.58 253.35 36.62 254.18 36.74 255.12 36.84 256.07 37 257.12 37.19 258.27 37.31 258.84 37.44 259.43 37.57 260.04 37.74 260.64 37.87 261.27 38.09 261.9 38.48 263.17 39.03 264.44 39.69 265.7 40.36 266.95 41.25 268.13 42.34 269.11 43.42 270.1 44.72 270.87 46.12 271.36 48.94 272.36 52.09 272.27 54.91 271.73 56.33 271.47 57.69 271.11 58.96 270.71 60.23 270.31 61.42 269.87 62.5 269.43 64.67 268.55 66.43 267.69 67.66 267.09 68.88 266.46 69.58 266.11 69.58 266.11L69.58 266.11C69.74 266.02 69.93 266.09 70.01 266.25 70.09 266.4 70.03 266.59 69.89 266.67 69.89 266.67 69.21 267.08 68.02 267.78 67.41 268.11 66.68 268.53 65.82 268.98 64.96 269.42 63.99 269.92 62.89 270.4 61.8 270.88 60.6 271.37 59.3 271.83 58 272.27 56.61 272.71 55.12 272.98 52.18 273.58 48.8 273.74 45.64 272.65 44.07 272.1 42.62 271.21 41.42 270.09 40.22 268.98 39.26 267.67 38.55 266.31 37.84 264.96 37.3 263.58 36.94 262.24 36.73 261.58 36.62 260.92 36.46 260.29 36.35 259.65 36.24 259.04 36.13 258.45 36.06 257.86 35.99 257.29 35.92 256.74 35.88 256.2 35.84 255.68 35.81 255.2 35.74 254.23 35.75 253.38 35.72 252.69 35.74 251.31 35.75 250.52 35.75 250.52 35.75 250.34 35.9 250.2 36.08 250.2 36.25 250.2 36.39 250.34 36.4 250.51Z" stroke-width="0" fill="#F89F47"/></svg>