<svg viewBox="0 0 164.31 265.72" xmlns="http://www.w3.org/2000/svg" xmlns:xlink="http://www.w3.org/1999/xlink" id="Isolation_Mode" overflow="hidden"><defs></defs><path d="M14.76 221.94C27.64 216.24 43.37 223.31 46.61 237.36 49.86 251.41 41.82 274.12 16.44 262.53-8.94 250.93-1.26 229.04 14.75 221.94Z" stroke-width="0" fill="#F04C86"/><path d="M27.94 47.38C25.97 42.41 89.02-29.55 132.23 13.86 224.02 106.08 91.11 128.95 77.04 134.52 62.97 140.08 58.1 208.29 52.48 210.51 46.85 212.74 26.93 201.77 25.81 198.96 24.7 196.15 47.88 118.39 56.62 111.68 65.35 104.97 144.24 98.73 127.97 55.54 111.7 12.35 63.95 51.62 52 68.1 50.07 70.76 29.05 50.19 27.94 47.38Z" stroke-width="0" fill="#F04C86"/><path d="M71.23 117.84C75.07 115.28 79.52 114.21 83.81 112.71 88.1 111.33 92.39 109.97 96.63 108.48 120.18 100.52 145.33 86.56 137.71 57.56 127.69 20.72 100.62 16.19 71.04 36.49 63.68 41.56 56.85 47.58 51.43 54.71 51.33 54.86 51.12 54.89 50.97 54.78 50.83 54.67 50.8 54.47 50.9 54.33 53.57 50.67 56.66 47.33 59.94 44.23 88.48 17.89 125.23 11.23 138.6 55.57 143.8 73.71 137.23 88.21 121.58 98.17 108.18 106.85 92.6 110.62 77.64 115.57 75.54 116.31 73.4 117.11 71.62 118.34 71.48 118.46 71.25 118.43 71.15 118.27 71.05 118.12 71.09 117.93 71.23 117.82L71.23 117.82Z" stroke-width="0" fill="#F04C86"/><path d="M10.47 232.71C6.72 246.55 8.41 258.57 25.41 258.51 29.55 258.54 33.7 257.92 37.81 257.14 37.98 257.11 38.15 257.22 38.19 257.39 38.22 257.56 38.12 257.72 37.96 257.76 35.92 258.3 33.86 258.75 31.77 259.11 20.59 261.09 7.87 258.8 7.66 245.04 7.56 240.72 8.55 236.53 9.86 232.52 9.98 232.14 10.59 232.31 10.48 232.7L10.48 232.7Z" stroke-width="0" fill="#F04C86"/></svg>