<svg viewBox="0 0 185 185" xmlns="http://www.w3.org/2000/svg" xmlns:xlink="http://www.w3.org/1999/xlink" id="Layer_1" overflow="hidden"><defs></defs><circle cx="92.5" cy="92.5" r="92.5" stroke-width="0" fill="#00BD84"/><g><path d="M141.42 88C141.42 99.74 141.42 111.47 141.42 123.21 141.42 129.21 139.14 130.82 133.27 131.65 125.57 132.74 117.91 134.52 110.43 136.69 96.02 140.87 81.75 145.54 67.42 149.99 62.16 151.63 59.06 150.08 57.44 144.87 50.32 122.09 43.24 99.3 36.16 76.5 34.56 71.36 36.23 68.31 41.48 66.63 43.97 65.83 46.45 65.03 48.96 64.32 51.98 63.47 54.77 62.85 55.87 58.98 56.31 57.44 59.25 56.17 61.28 55.61 64.54 54.71 67.99 54.41 71.37 54.04 73.17 53.84 73.82 53.21 73.95 51.3 74.3 46.38 76.56 44.41 81.4 44.4 98.83 44.39 116.27 44.38 133.7 44.4 139 44.4 141.39 46.79 141.41 52.1 141.44 64.06 141.41 76.03 141.42 87.99ZM137.51 87.97C137.51 76.12 137.45 64.28 137.55 52.43 137.58 49.18 136.28 47.97 133.09 47.98 116.12 48.05 99.14 48.01 82.17 48.04 78.32 48.04 77.71 48.71 77.71 52.74 77.69 76.21 77.69 99.67 77.71 123.14 77.71 127.23 78.34 127.84 82.51 127.85 99.25 127.88 116 127.89 132.74 127.89 136.94 127.89 137.51 127.33 137.52 123.17 137.54 111.44 137.52 99.7 137.52 87.97ZM88.57 139.47C88.52 139.3 88.48 139.13 88.43 138.96 88.1 138.94 87.76 138.86 87.43 138.91 83.27 139.55 79.11 140.2 74.95 140.85 69.44 141.7 66.5 139.77 65.68 134.48 63.06 117.5 60.54 100.51 57.96 83.52 57.1 77.83 56.19 72.15 55.28 66.34 51.03 67.63 47.22 68.76 43.42 69.94 39.15 71.27 38.77 71.98 40.12 76.37 44.35 90.06 48.61 103.74 52.86 117.42 55.52 126 58.13 134.59 60.86 143.15 61.49 145.14 62.03 147.64 65.17 146.68 72.97 144.29 80.76 141.86 88.56 139.45ZM73.88 57.45C69.8 58.04 66.31 58.5 62.83 59.05 58.86 59.67 58.21 60.57 58.81 64.52 59.67 70.14 60.58 75.75 61.44 81.37 64.14 98.9 66.84 116.43 69.49 133.97 69.9 136.72 71.18 137.56 73.94 137.1 81.01 135.92 88.11 135 95.2 133.92 99 133.34 102.79 132.66 106.58 132.03 98.52 131.49 90.55 131.51 82.58 131.49 75.86 131.48 73.89 129.48 73.88 122.69 73.88 102.41 73.88 82.14 73.88 61.86 73.88 60.52 73.88 59.17 73.88 57.44Z" stroke-width="0" fill="#FFFFFF"/><path d="M107.26 62.35C100.31 62.35 93.37 62.43 86.42 62.27 86.32 62.27 86.21 62.25 86.11 62.23 84.4 61.85 84.44 59.22 86.15 58.85 86.27 58.82 86.38 58.81 86.5 58.81 93.44 58.75 100.39 58.72 107.33 58.72 114.27 58.72 121.68 58.75 128.86 58.81 129.07 58.81 129.27 58.86 129.48 58.94 130.86 59.5 130.86 61.57 129.48 62.13 129.25 62.23 129.01 62.28 128.78 62.29 121.61 62.44 114.43 62.37 107.26 62.37L107.26 62.37Z" stroke-width="0" fill="#FFFFFF"/><path d="M107.62 73.32C100.56 73.32 93.49 73.39 86.43 73.24 86.33 73.24 86.22 73.22 86.12 73.2 84.4 72.83 84.4 70.16 86.13 69.79 86.23 69.77 86.34 69.76 86.44 69.76 93.39 69.7 100.34 69.67 107.28 69.67 114.22 69.67 121.63 69.7 128.81 69.76 129.02 69.76 129.22 69.81 129.43 69.89 130.85 70.44 130.84 72.57 129.43 73.12 129.22 73.2 129.01 73.25 128.8 73.26 121.74 73.41 114.68 73.34 107.61 73.34L107.61 73.32Z" stroke-width="0" fill="#FFFFFF"/><path d="M107.62 84.3C100.67 84.3 93.73 84.38 86.78 84.22 86.66 84.22 86.55 84.2 86.43 84.18 84.67 83.82 84.7 81.11 86.47 80.78 86.59 80.76 86.71 80.75 86.82 80.74 93.68 80.68 100.55 80.65 107.41 80.65 114.44 80.65 121.46 80.68 128.49 80.74 128.6 80.74 128.72 80.75 128.83 80.78 130.57 81.12 130.59 83.76 128.87 84.17 128.73 84.2 128.59 84.22 128.44 84.23 121.5 84.39 114.55 84.31 107.6 84.31Z" stroke-width="0" fill="#FFFFFF"/><path d="M107.26 95.21C100.31 95.21 93.36 95.29 86.42 95.13 86.32 95.13 86.21 95.11 86.11 95.09 84.4 94.71 84.44 92.09 86.15 91.71 86.27 91.68 86.38 91.67 86.5 91.67 100.62 91.55 114.75 91.55 128.87 91.67 129.08 91.67 129.29 91.72 129.5 91.81 130.87 92.37 130.88 94.41 129.51 94.99 129.27 95.09 129.03 95.15 128.79 95.16 121.62 95.31 114.44 95.24 107.26 95.24L107.26 95.21Z" stroke-width="0" fill="#FFFFFF"/><path d="M107.62 106.22C100.67 106.22 93.73 106.3 86.79 106.13 86.67 106.13 86.56 106.11 86.44 106.09 84.67 105.73 84.7 103.02 86.47 102.68 86.59 102.66 86.71 102.64 86.83 102.64 93.65 102.58 100.47 102.55 107.3 102.55 114.37 102.55 121.44 102.58 128.5 102.64 128.62 102.64 128.73 102.65 128.85 102.68 130.61 103.03 130.61 105.7 128.85 106.09 128.72 106.12 128.59 106.14 128.45 106.14 121.51 106.31 114.56 106.22 107.62 106.22Z" stroke-width="0" fill="#FFFFFF"/><path d="M98.37 113.52C102.35 113.52 106.35 113.41 110.32 113.6 110.54 113.61 110.76 113.67 110.98 113.77 112.3 114.37 112.3 116.36 110.97 116.94 110.78 117.02 110.6 117.07 110.41 117.07 102.33 117.21 94.24 117.2 86.16 117.07 86.05 117.07 85.93 117.05 85.82 117.02 84.22 116.58 84.18 114.12 85.78 113.67 85.88 113.64 85.98 113.62 86.09 113.62 90.18 113.43 94.28 113.54 98.38 113.54L98.38 113.52Z" stroke-width="0" fill="#FFFFFF"/></g></svg>