<svg viewBox="0 0 185 185" xmlns="http://www.w3.org/2000/svg" xmlns:xlink="http://www.w3.org/1999/xlink" id="Layer_1" overflow="hidden"><defs></defs><circle cx="92.5" cy="92.5" r="92.5" stroke-width="0" fill="#C16800"/><path d="M39.47 105.28C39.47 104.93 39.47 104.58 39.47 104.23 41.57 103.33 43.71 102.52 45.75 101.47 46.37 101.15 47.06 100.19 47.11 99.48 47.41 94.75 47.48 90.07 42.39 88 41.9 87.8 41.43 86.86 41.38 86.22 41.35 85.86 42.15 85.27 42.66 85.03 43.77 84.52 44.95 84.17 46.16 83.73 43.4 79.29 42.26 74.17 42.79 69.12 43.36 63.66 45.72 60.78 50.63 60 67.09 57.4 83.56 54.88 100.04 52.37 102.74 51.96 105.69 50.87 108.15 51.61 119.64 55.08 131 59.07 142.39 62.93 142.9 63.1 143.68 63.78 143.65 64.15 143.6 64.79 143.12 65.74 142.63 65.93 138.09 67.66 137.83 71.78 137.74 76.12 137.7 78.29 138.44 79.34 140.38 79.87 142.17 80.36 143.83 81.42 145.55 82.23L145.55 83.28C143.75 83.76 141.96 84.24 140.2 84.71 143.54 92.65 143.04 99.86 138.34 106.38 139.05 107.07 139.86 107.74 140.48 108.58 140.56 108.69 139.79 109.98 139.24 110.18 134.77 111.88 134.62 115.99 134.52 120.19 134.47 122.26 135.06 123.48 137.08 124.01 138.91 124.5 140.61 125.62 142.37 126.46 142.29 126.72 142.2 126.98 142.12 127.25 141.62 127.44 141.12 127.67 140.6 127.81 122.42 132.7 104.24 137.62 86.03 142.42 84.68 142.78 83.06 142.72 81.74 142.26 70.25 138.21 58.85 133.87 47.32 129.97 42.85 128.46 40.78 125.29 39.94 120.59 39.8 119.83 39.63 119.09 39.47 118.34 39.47 116.42 39.47 114.5 39.47 112.58 40.31 110.43 41.15 108.27 42.02 106.02 41.23 105.78 40.35 105.51 39.47 105.25ZM87.55 92.98C87.55 88.27 87.6 83.95 87.48 79.63 87.46 79.1 86.58 78.34 85.97 78.12 74.24 73.82 62.49 69.58 50.74 65.35 48.52 64.55 47.23 65.21 46.58 67.66 45.61 71.35 45.67 75.14 47.22 78.58 47.79 79.85 49.28 80.98 50.56 81.43 55.63 83.21 60.77 84.71 65.89 86.3 72.88 88.46 79.87 90.61 87.54 92.98ZM97.76 114.98C110.63 110.97 122.98 107.17 135.3 103.22 136.28 102.9 137.34 101.78 137.8 100.72 139.27 97.32 139.39 93.65 138.52 90.03 137.85 87.25 136.56 86.59 134.11 87.45 130.09 88.87 126.08 90.33 122.06 91.78 113.89 94.74 105.73 97.72 97.76 100.61L97.76 114.97ZM84.34 137.12C84.34 132.37 84.4 128.2 84.27 124.04 84.25 123.41 83.41 122.49 82.78 122.25 71.05 117.93 59.29 113.69 47.54 109.46 45.4 108.69 44.01 109.4 43.35 111.76 42.32 115.47 42.46 119.24 44 122.69 44.57 123.96 46.05 125.12 47.33 125.56 53.84 127.76 60.41 129.72 66.96 131.75 72.52 133.47 78.08 135.18 84.34 137.12ZM135.62 80.11C135.9 75.89 136.16 72.07 136.42 68.11 120.99 71.64 105.32 75.22 89.51 78.83L89.51 92.85C105.01 88.57 120.41 84.31 135.61 80.11ZM133.19 112.25C124.69 114.19 116.02 116.12 107.38 118.18 104.25 118.93 101.22 120.2 98.09 120.91 94.75 121.66 91.33 121.98 87.96 122.63 87.37 122.74 86.45 123.55 86.43 124.07 86.31 128.3 86.36 132.54 86.36 136.97 101.85 132.69 117.31 128.41 132.4 124.24 132.68 119.99 132.92 116.22 133.18 112.25ZM49.43 102.2C64.58 106.38 80.02 110.64 95.51 114.91 95.51 110.77 95.44 107.12 95.54 103.47 95.59 101.62 95.19 100.76 93.35 100.36 82.89 98.1 72.46 95.65 62.01 93.27 57.43 92.22 52.85 91.18 48.58 90.2 48.86 94.14 49.13 97.91 49.43 102.21Z" stroke-width="0" fill="#FFFFFF"/></svg>