<svg viewBox="0 0 119.69 119.93" xmlns="http://www.w3.org/2000/svg" xmlns:xlink="http://www.w3.org/1999/xlink" id="Isolation_Mode" overflow="hidden"><style>
.MsftOfcThm_Background1_Fill_v2 {
 fill:#FFFFFF; 
}
</style>
<defs></defs><path d="M81.87 71.52C93.2 82.77 104.72 94.07 116.05 105.57 117.81 107.35 119.79 110.04 119.69 112.22 119.58 114.55 117.63 117.49 115.61 118.89 112.56 120.99 109.28 119.71 106.65 117.07 97.37 107.75 88.03 98.48 78.75 89.15 76.29 86.68 73.96 84.09 71.41 81.39 59.49 89.45 46.83 91.7 33.45 88.35 23.29 85.81 15.01 80.03 8.8 71.54-4.31 53.65-2.6 29.35 12.8 13.44 27.92-2.19 52.76-4.48 70.82 8.1 90.65 21.91 94.62 44.11 81.87 71.52ZM74.98 45.18C75.04 28.38 61.77 14.84 45.16 14.75 28.76 14.66 15.13 28.02 14.99 44.31 14.85 61.47 28.05 74.9 45.03 74.87 61.54 74.85 74.92 61.58 74.98 45.18Z" class="MsftOfcThm_Background1_Fill_v2" stroke-width="0" fill="#FFFFFF"/></svg>