<svg viewBox="0 0 185 185" xmlns="http://www.w3.org/2000/svg" xmlns:xlink="http://www.w3.org/1999/xlink" id="Layer_1" overflow="hidden"><defs></defs><circle cx="92.5" cy="92.5" r="92.5" stroke-width="0" fill="#00BD84"/><g><path d="M112.97 119.69C91.2 136.2 64.31 128.82 51.62 111.71 38.87 94.52 40.69 70.46 56.14 55.35 71.59 40.24 95.71 39.09 112.79 52.56 129.22 65.52 135.74 91.47 119.65 112.89 125.64 118.59 131.64 124.3 137.65 130.02 138.4 130.74 139.19 131.42 139.91 132.17 142.39 134.72 142.47 137.95 140.11 140.21 137.75 142.47 134.51 142.37 132.04 139.81 128.43 136.08 124.9 132.27 121.33 128.5 118.54 125.56 115.75 122.63 112.97 119.7ZM121.05 86.03C121.03 66.75 105.31 51.03 86.03 51.02 66.81 51.01 50.99 66.83 51.01 86.06 51.03 105.26 66.83 121.03 86.09 121.07 105.32 121.11 121.08 105.32 121.06 86.03Z" stroke-width="0" fill="#FFFFFF"/><path d="M86.14 102.83C80.43 102.83 74.72 102.86 69.01 102.83 62.96 102.79 60.32 98.32 63.22 93 68.89 82.61 74.62 72.25 80.28 61.86 81.53 59.55 83.23 57.97 85.93 57.95 88.62 57.93 90.38 59.43 91.65 61.74 97.42 72.27 103.27 82.76 109.04 93.3 111.77 98.29 109.04 102.78 103.28 102.83 97.57 102.88 91.86 102.83 86.15 102.84ZM82.68 76.56C82.68 78.38 82.64 80.19 82.69 82.01 82.75 84.01 83.75 85.39 85.8 85.47 88.01 85.56 89.12 84.14 89.16 82.03 89.23 78.31 89.25 74.59 89.15 70.88 89.1 68.92 88.06 67.55 85.94 67.56 83.84 67.56 82.81 68.88 82.71 70.86 82.61 72.76 82.69 74.66 82.68 76.56ZM89.79 92.35C89.8 90.44 88.12 88.77 86.13 88.73 84 88.68 82.3 90.34 82.32 92.44 82.34 94.41 83.97 96.07 85.94 96.12 87.92 96.17 89.78 94.35 89.8 92.34Z" stroke-width="0" fill="#FFFFFF"/></g></svg>