<svg viewBox="0 0 337.78 746.56" xmlns="http://www.w3.org/2000/svg" xmlns:xlink="http://www.w3.org/1999/xlink" id="Layer_1" overflow="hidden"><defs></defs><g><path d="M129.93 153.39 152.06 225.4 152.64 227.31C154.19 232.31 158.3 236.36 163.77 237.58 177.09 240.56 190.73 242.04 204.2 242 217.68 241.98 230.96 240.46 243.78 237.93 249.83 236.74 254.18 231.19 253.69 224.89 253.17 218.1 247.24 213.02 240.46 213.55L240.39 213.55C228.63 214.46 217.02 214.38 205.7 213.06 197.96 212.16 190.36 210.69 182.95 208.65 182.95 208.65 172.59 148.16 163.41 130.28 154.23 112.4 124.12 122.39 129.94 153.4Z" stroke-width="0" fill="#B43965"/><g><path d="M277.37 209.16C277.37 209.16 284.83 209.32 289.08 212.24 293.33 215.16 304.74 216.39 303.48 219.87 302.42 222.81 285.25 215.65 279.07 215.69 272.56 215.73 277.37 209.16 277.37 209.16Z" stroke-width="0" fill="#FC8053"/><path d="M278.05 207.77C278.05 207.77 287.52 208.21 292.52 209.47 297.52 210.72 306.99 208.38 308.02 210.24 309.05 212.1 302.34 215.85 295.84 215.5 289.34 215.14 278.04 207.78 278.04 207.78Z" stroke-width="0" fill="#F9B78E"/><path d="M243.53 232.31C243.65 232.41 243.81 232.46 243.96 232.46 245.34 232.46 247.83 232.72 248.53 232.87 258.03 234.83 271.44 235.71 277.76 232.79 283.84 229.97 293.77 227.34 288.86 224.66 283.96 221.98 269.76 226.25 269.51 223.5 269.27 220.75 281.47 215.04 294.48 217.94 307.49 220.84 311.4 213.14 304.9 213.4 298.39 213.66 290.7 209.11 280.87 207.8 265.75 205.8 249.78 214.5 249.78 214.5 249.78 214.5 249.13 214.69 247.99 214.91 239.74 216.45 236.93 226.96 243.45 232.26L243.52 232.32Z" stroke-width="0" fill="#F9B78E"/></g></g><g><g><path d="M91.88 409.11 73.31 689.52 103.8 687.64 139.41 523.86 169.66 337.86 97.93 340.29 91.88 409.11Z" stroke-width="0" fill="#BA7735"/><g><path d="M75.46 687.55 73.32 714.23C73.32 714.23 82.54 719.56 96.6 717.06L101.02 685.53 75.47 687.56Z" stroke-width="0" fill="#F9B78E"/><path d="M107.79 681.97C109.38 687.6 108.42 692.98 106.56 698.32L70.03 696.6C68.87 691.24 68.81 685.89 69.72 680.55L107.79 681.97Z" stroke-width="0" fill="#BA7735"/><g><path d="M160.12 744.76C158.14 748.98 71.28 744.45 71.28 744.45 71.28 744.45 68.52 718.66 71.25 710.72 73.97 702.77 86.63 711.7 95.31 709.7 95.31 709.7 100.51 702.5 104.73 702.74 106.28 702.83 111.75 706.35 118.59 710.85 119.7 711.58 120.84 712.33 122.02 713.1 122.83 713.64 123.66 714.18 124.5 714.73 125.86 715.63 127.24 716.53 128.62 717.42 129.14 717.76 129.66 718.09 130.18 718.43L130.18 718.43C131.45 719.25 132.72 720.05 133.98 720.84 141.59 725.59 148.8 729.59 152.97 730.33 164.14 732.31 162.1 740.53 160.11 744.76Z" stroke-width="0" fill="#B43965"/><g><path d="M128.61 717.43C127.31 717.27 125.67 717.41 123.85 718.36 120.14 720.29 117.17 725.63 117.14 725.68 116.94 726.05 116.62 726.3 116.24 726.41 115.85 726.54 115.41 726.5 115.02 726.29 114.26 725.87 113.99 724.92 114.41 724.17 114.54 723.91 117.86 717.96 122.41 715.59 123.12 715.22 123.82 714.94 124.49 714.73 126.77 714.92 128.67 715.43 128.61 717.42Z" stroke-width="0" fill="#FFFFFF"/><path d="M122 713.11C121.12 713.22 120.15 713.5 119.13 714.04 115.41 715.98 112.45 721.31 112.42 721.36 112.22 721.72 111.9 721.98 111.52 722.09 111.13 722.21 110.69 722.18 110.3 721.97 109.54 721.56 109.27 720.61 109.69 719.85 109.82 719.59 113.14 713.64 117.69 711.27 117.99 711.11 118.28 710.97 118.57 710.86 120.03 710.98 121.66 710.89 122 713.11Z" stroke-width="0" fill="#FFFFFF"/><path d="M133.98 720.84C132.87 720.85 131.58 721.1 130.2 721.83 126.48 723.77 123.52 729.1 123.49 729.15 123.29 729.52 122.96 729.77 122.59 729.89 122.2 730.01 121.76 729.98 121.37 729.77 120.62 729.35 120.34 728.4 120.76 727.65 120.9 727.39 124.22 721.44 128.76 719.07 129.24 718.82 129.71 718.61 130.17 718.44L130.17 718.44C132.64 718.2 134.12 718.83 133.97 720.85Z" stroke-width="0" fill="#FFFFFF"/></g></g></g></g><g><path d="M8.96 690.59 36.08 691.83 105.62 527.54 118.94 341.56 56.42 334.45 55.84 334.3 52.62 333.49 52.5 333.46 41.64 331.33C46.27 369.34 53.33 510.28 53.33 510.28 53.33 510.28 41.7 538.06 32.39 571.11 23.08 604.17 8.97 690.58 8.97 690.58Z" stroke-width="0" fill="#F89F47"/><path d="M15 688.81C15.1 688.83 15.21 688.84 15.31 688.84 16.14 688.84 16.88 688.25 17.03 687.41 17.19 686.5 33.6 596.35 43.33 567.73 49.73 548.89 65.85 511.22 66.01 510.84 66.11 510.6 66.17 510.32 66.15 510.05L55.83 334.31 52.61 333.5 62.65 509.84C60.94 513.87 46.14 548.66 40.03 566.59 30.21 595.46 13.76 685.86 13.59 686.78 13.42 687.73 14.05 688.64 15 688.81Z" stroke-width="0" fill="#BA7735"/><g><path d="M12.82 687.09 4.95 714.22C4.95 714.22 14.17 719.55 28.23 717.05L36.07 685.25 12.82 687.1Z" stroke-width="0" fill="#F9B78E"/><path d="M43.51 684.17C44.85 690.68 44.47 695.51 39.51 699.48L1.34 697.26C0.18 691.9 0.68 686.68 2.67 681.7L43.51 684.16Z" stroke-width="0" fill="#BA7735"/><g><path d="M90.08 744.76C88.1 748.98 1.24 744.45 1.24 744.45 1.24 744.45-1.52 718.66 1.2 710.72 3.92 702.77 16.58 711.7 25.26 709.7 25.26 709.7 30.46 702.5 34.68 702.74 36.23 702.83 41.7 706.35 48.54 710.85 49.65 711.58 50.79 712.33 51.97 713.1 52.78 713.64 53.61 714.18 54.45 714.73 55.81 715.63 57.19 716.53 58.57 717.42 59.09 717.76 59.61 718.09 60.13 718.43L60.13 718.43C61.4 719.25 62.67 720.05 63.93 720.84 71.54 725.59 78.75 729.59 82.92 730.33 94.09 732.31 92.05 740.53 90.06 744.76Z" stroke-width="0" fill="#B43965"/><g><path d="M58.57 717.43C57.27 717.27 55.63 717.41 53.81 718.36 50.1 720.29 47.13 725.63 47.1 725.68 46.9 726.05 46.58 726.3 46.2 726.41 45.81 726.54 45.37 726.5 44.98 726.29 44.22 725.87 43.95 724.92 44.37 724.17 44.5 723.91 47.82 717.96 52.37 715.59 53.08 715.22 53.78 714.94 54.45 714.73 56.73 714.92 58.63 715.43 58.57 717.42Z" stroke-width="0" fill="#FFFFFF"/><path d="M51.96 713.11C51.08 713.22 50.11 713.5 49.09 714.04 45.37 715.98 42.41 721.31 42.38 721.36 42.18 721.72 41.86 721.98 41.48 722.09 41.09 722.21 40.65 722.18 40.26 721.97 39.5 721.56 39.23 720.61 39.65 719.85 39.78 719.59 43.1 713.64 47.65 711.27 47.95 711.11 48.24 710.97 48.53 710.86 49.99 710.98 51.62 710.89 51.96 713.11Z" stroke-width="0" fill="#FFFFFF"/><path d="M63.94 720.84C62.83 720.85 61.54 721.1 60.16 721.83 56.44 723.77 53.48 729.1 53.45 729.15 53.25 729.52 52.92 729.77 52.55 729.89 52.16 730.01 51.72 729.98 51.33 729.77 50.58 729.35 50.3 728.4 50.72 727.65 50.86 727.39 54.18 721.44 58.72 719.07 59.2 718.82 59.67 718.61 60.13 718.44L60.13 718.44C62.6 718.2 64.08 718.83 63.93 720.85Z" stroke-width="0" fill="#FFFFFF"/></g></g></g></g><path d="M170.4 109.53C170.92 111.03 171.37 114.47 171.62 118.83 169.34 118.91 167.06 118.98 164.78 119.03 156.67 119.2 148.57 119.09 140.48 118.72 141.22 110.51 142.61 103.11 144.75 97.66 153.32 75.81 173.88 68.47 180.48 71.96 180.48 71.96 164.39 92.09 170.41 109.53Z" stroke-width="0" fill="#563B09"/><g><path d="M37.2 342.69C87.63 354.85 132.75 354.73 172.7 342.69 172.02 334.46 170.97 324.9 169.78 314.7 169.51 312.46 169.25 310.19 168.98 307.89 168.62 304.95 168.28 301.97 167.92 298.96 167.65 296.7 167.37 294.43 167.1 292.15 167.08 291.88 167.04 291.64 167.02 291.37L166.68 288.47C166.47 286.69 166.26 284.9 166.05 283.1 165.82 281.03 165.59 278.95 165.37 276.88 165.35 276.67 165.31 276.48 165.29 276.27 165.21 275.42 165.1 274.58 165.02 273.73 164.45 268.48 163.94 263.28 163.48 258.22 163.42 257.58 163.37 256.93 163.31 256.3 163.27 255.94 163.23 255.6 163.22 255.26 163.16 254.62 163.11 253.99 163.07 253.34 161.97 239.78 161.42 227.45 162.05 217.99 162.13 216.98 162.2 216.02 162.3 215.09 162.43 213.82 162.58 212.62 162.76 211.49 162.85 210.86 162.95 210.22 163.04 209.57 166.06 189.14 165.73 171.62 165.37 151.93 165.09 136.79 164.04 131.86 162.11 125.72 159.3 116.77 141.42 93.65 125.92 91.05 114.65 89.17 103.08 91.47 93.39 97.54 80.93 105.32 64.45 117.91 57.2 133.39 54.37 139.44 52.91 146.44 52.29 154.1 51.11 168.53 52.9 185.3 53.96 202.52L53.96 202.54C54.79 216.25 55.17 230.23 53.26 243.53 52.52 248.56 51.48 254.11 50.23 259.97 50.02 260.99 49.79 262 49.59 263.02 49.42 263.8 49.25 264.58 49.06 265.37 48.76 266.79 48.42 268.23 48.07 269.69 47.41 272.59 46.72 275.53 46 278.51 45.45 280.71 44.92 282.93 44.37 285.15 43.65 288.05 42.93 290.95 42.23 293.86 41.66 296.08 41.11 298.3 40.58 300.52 36.05 318.82 35.53 333.03 37.2 342.7Z" stroke-width="0" fill="#F04C86"/><path d="M102.05 241.11C102.22 241.75 102.88 242.13 103.53 241.96 103.91 241.85 133.95 233.43 162.06 217.99 162.14 216.98 162.21 216.02 162.31 215.09 134.09 230.87 103.25 239.52 102.89 239.61 102.25 239.8 101.87 240.46 102.06 241.11Z" stroke-width="0" fill="#B43965"/><path d="M155.81 135.36C155.74 135.37 155.66 135.38 155.59 135.38 154.57 135.34 130.45 134.22 121.27 116.3 121.03 115.83 121.21 115.26 121.68 115.02 122.15 114.78 122.72 114.97 122.96 115.43 131.63 132.34 155.42 133.46 155.66 133.47 156.19 133.49 156.6 133.93 156.58 134.46 156.56 134.91 156.24 135.27 155.82 135.36Z" stroke-width="0" fill="#B43965"/><path d="M94.4 249.31C94.64 249.62 95 249.83 95.39 249.87 95.92 249.93 142.27 255.13 163.4 257.16 163.37 256.82 163.33 256.42 163.3 256.08 163.25 255.44 163.2 254.87 163.15 254.24 143.22 252.3 101.97 247.68 96.35 247.05 84.78 230.37 96.88 171.1 97.01 170.49 97.17 169.7 96.67 168.94 95.88 168.77 95.09 168.61 94.33 169.11 94.16 169.9 93.64 172.44 81.43 232.29 94.4 249.3Z" stroke-width="0" fill="#B43965"/><path d="M156.75 323.92C157.43 323.92 158.04 323.44 158.18 322.75 158.34 321.96 157.83 321.18 157.04 321.01 156.68 320.93 120.7 313.1 102.92 279.24 102.54 278.52 101.66 278.25 100.94 278.62 100.22 279 99.95 279.88 100.32 280.6 109.96 298.96 124.69 309.74 135.35 315.56 146.9 321.86 156.06 323.8 156.44 323.88 156.54 323.9 156.64 323.91 156.74 323.91Z" stroke-width="0" fill="#B43965"/><path d="M138.94 139.02C141.66 139.02 143.72 137.45 144.9 134.47 148.62 125.12 143.07 104.21 134.83 96.55L133.63 97.84C141.31 104.98 146.71 125.16 143.26 133.82 142.34 136.13 140.93 137.26 138.94 137.26 138.92 137.26 138.91 137.26 138.89 137.26 120.78 137.1 106.42 96.43 106.28 96.02L104.62 96.6C105.22 98.33 119.54 138.86 138.88 139.02 138.9 139.02 138.92 139.02 138.94 139.02Z" stroke-width="0" fill="#FFFFFF"/></g><g><g><path d="M161.2 85.51C161.2 85.51 160.11 86.96 158.24 89.27 158.14 89.4 158.03 89.53 157.92 89.66 157.9 89.69 157.88 89.71 157.86 89.74 156.53 91.37 154.85 93.38 152.92 95.59 152.22 96.39 151.49 97.22 150.73 98.07 150.04 98.83 149.33 99.61 148.6 100.39 143.43 105.95 137.27 111.86 131.38 115.8 118.44 107.72 110.26 98.86 108.82 88.91 108.82 88.91 127.79 73.67 131.86 56.31L161.2 85.51Z" stroke-width="0" fill="#F9B78E"/><path d="M158.25 89.27C158.15 89.4 158.04 89.53 157.93 89.66 157.91 89.69 157.89 89.71 157.87 89.74 156.54 91.37 154.86 93.38 152.93 95.59 152.23 96.39 151.5 97.22 150.74 98.07 150.05 98.83 149.34 99.61 148.61 100.39 146.34 92.74 147.61 81.41 147.57 81.15L158.26 89.28Z" stroke-width="0" fill="#F9927D"/></g><path d="M184.08 89.31C183.59 90.59 183.09 91.82 182.59 92.99 179.31 100.59 175.63 102.63 171.21 101.17 163.27 98.54 132.07 71.35 121.39 54.82 110.71 38.3 125.79 17.04 142.07 17.05 153.66 17.06 173.19 27.64 183.47 33.73 188.46 36.68 191.68 41.93 191.93 47.74 192.15 53.1 191.59 59.21 190.52 65.42L190.52 65.42C190.52 65.42 190.52 65.43 190.52 65.44 190.65 65.82 193.76 75.16 194.35 77.05 194.82 78.54 189.87 78.66 187.55 78.63 187.29 79.57 187.01 80.52 186.72 81.45L184.07 89.31Z" stroke-width="0" fill="#F9B78E"/><path d="M183.12 84.91C183.12 84.91 174.96 75.58 167.69 84.44L181.68 88.55 183.12 84.91Z" stroke-width="0" fill="#FFFFFF"/><path d="M177.5 74.38C176.68 76.19 173.14 76.35 169.6 74.75 166.06 73.14 163.85 70.37 164.67 68.56 165.49 66.75 169.03 66.59 172.57 68.19 176.11 69.8 178.32 72.57 177.5 74.38Z" stroke-width="0" fill="#F9927D"/><path d="M186.35 62.7C186.21 64.3 185.38 65.53 184.49 65.45 183.61 65.37 183.01 64.01 183.15 62.41 183.29 60.81 184.12 59.58 185.01 59.66 185.89 59.74 186.49 61.1 186.35 62.7Z" stroke-width="0" fill="#181B14"/><path d="M177.13 54.18C176.96 54.3 176.81 54.45 176.71 54.64 176.33 55.31 176.56 56.16 177.23 56.54 179.57 57.87 185.04 59.25 189.06 54.93 189.58 54.37 189.55 53.49 188.99 52.96 188.43 52.44 187.55 52.47 187.02 53.03 183.48 56.84 178.81 54.23 178.61 54.12 178.13 53.85 177.56 53.89 177.14 54.18Z" stroke-width="0" fill="#563B09"/><g><path d="M154.81 62.39C154.37 62.28 154.06 61.87 154.08 61.4 154.41 54.87 150.39 50.49 150.35 50.44 149.99 50.05 150.01 49.44 150.39 49.07 150.77 48.7 151.39 48.72 151.76 49.11 151.95 49.31 156.38 54.11 156.01 61.49 155.98 62.02 155.53 62.43 155 62.41 154.93 62.41 154.87 62.4 154.81 62.38Z" stroke-width="0" fill="#F9927D"/><path d="M148.62 56.13C148.29 56.05 148.01 55.79 147.92 55.44 147.79 54.92 148.09 54.4 148.61 54.26 148.75 54.22 152.17 53.35 154.55 54.38 155.04 54.59 155.27 55.16 155.05 55.65 154.84 56.14 154.27 56.37 153.78 56.15 152.32 55.52 149.91 55.92 149.1 56.13 148.94 56.17 148.77 56.17 148.62 56.13Z" stroke-width="0" fill="#F9927D"/></g><path d="M191.52 44.67C185.09 48.89 172.31 53.52 162.62 51.54 162.62 51.54 157.69 38.3 146.63 43.79 135.57 49.29 144.46 69.19 155.18 68.94 155.18 68.94 156.24 81.94 145.1 90.19 118.36 97.92 91.41 77.95 91.41 77.95 92.74 58.33 100.39 40.64 100.75 39.8 100.75 39.78 100.76 39.77 100.76 39.77 108.05 16.77 122.96-14.49 166.44 7.43 188.1 18.35 193.38 27.14 194.13 33.8 194.77 39.54 193.65 43.25 191.51 44.66Z" stroke-width="0" fill="#563B09"/><path d="M116.5 119.92C93.46 113.14 73.26 101 62.48 87.38 64.1 84.39 70.73 80.7 78.73 73.03 100.39 52.25 110.07 18.33 110.07 18.33 110.07 18.33 116.02 60.86 155.19 68.96 155.19 68.96 157.61 88.44 142.64 95.5 128.76 102.04 118.57 104.79 116.51 119.92Z" stroke-width="0" fill="#563B09"/><path d="M156.08 68.45C155.74 70.12 154.11 71.21 152.44 70.87 150.76 70.53 149.68 68.9 150.02 67.23 150.36 65.55 151.99 64.47 153.66 64.81 155.33 65.15 156.42 66.78 156.08 68.45Z" stroke-width="0" fill="#FFFFFF"/></g><g><g><g><path d="M45.4 240.64C46.43 247.23 47.93 253.85 50.01 260.4 51.05 263.68 52.26 266.93 53.58 270.15 54.92 273.37 56.44 276.54 58.07 279.66L59.18 281.59C62.78 287.84 69.34 291.34 76.07 291.34 87.23 291.32 98.27 291.24 109.35 291.12 120.43 291.01 131.51 290.86 142.59 290.67 164.75 290.27 195.55 285.83 217.82 284.82 221.16 284.31 221.7 282.43 221.39 275.37 221.1 268.93 216.09 263.81 209.84 263.22L209.79 263.22C188.04 261.11 166.22 258.56 144.43 255.85 133.52 254.49 122.62 253.09 111.73 251.65 105.44 250.82 99.14 249.98 92.85 249.12 92.85 249.1 92.83 249.07 92.83 249.05 92.59 248.36 93.06 247.52 92.83 246.82 92.75 246.58 92.21 245.36 92.14 245.11 90.92 241.14 89.74 238.09 89.07 233.8 87.64 224.67 87.43 214.97 88.17 205.1 88.92 195.23 90.59 185.19 92.98 175.24 94.18 170.27 95.56 165.32 97.1 160.44 97.87 158.01 98.68 155.58 99.54 153.21 99.96 152.02 100.4 150.85 100.84 149.71L101.5 148.03 102.05 146.67 102.34 145.98C106.97 134.69 101.57 121.78 90.27 117.15 79.04 112.55 66.21 117.87 61.52 129.04L60.94 130.43 60.46 131.6 59.58 133.86C59.01 135.35 58.47 136.82 57.94 138.29 56.89 141.23 55.91 144.16 54.97 147.1 53.11 152.98 51.46 158.9 50.02 164.9 47.13 176.89 45.06 189.17 44.1 201.81 43.16 214.43 43.36 227.44 45.4 240.63Z" stroke-width="0" fill="#F04C86"/><path d="M102 141.89C102.73 141.89 103.35 141.34 103.41 140.6 103.46 140.11 104.46 128.42 97.01 120.77 92.45 116.09 85.78 114.01 77.19 114.59 76.41 114.64 75.81 115.32 75.87 116.11 75.92 116.89 76.62 117.47 77.39 117.43 85.11 116.9 91.02 118.7 94.97 122.74 101.5 129.43 100.6 140.22 100.59 140.33 100.52 141.11 101.09 141.8 101.88 141.88 101.92 141.88 101.97 141.88 102.01 141.88Z" stroke-width="0" fill="#B43965"/><path d="M49.06 265.36C52.55 274.32 62.06 293.74 78.99 294.38 80.79 294.44 82.99 294.48 85.49 294.48 107.18 294.48 152.08 292.17 167.02 291.37 166.9 290.4 166.79 289.44 166.68 288.47 149.84 289.37 96.33 292.11 79.1 291.47 59.6 290.74 50.39 260.44 50.3 260.13 50.28 260.07 50.27 260.02 50.24 259.97 50.02 260.98 49.81 262 49.58 263.02 49.41 263.79 49.24 264.58 49.06 265.37Z" stroke-width="0" fill="#B43965"/></g><path d="M75.2 257.95C75.49 258.28 75.89 258.44 76.29 258.44 76.63 258.44 76.98 258.32 77.25 258.08 77.35 257.99 85.71 250.74 95.32 249.36 95.08 248.67 94.85 247.98 94.62 247.28 94.54 247.04 94.46 246.79 94.39 246.53 93.2 246.72 92.03 247 90.9 247.32 89.6 247.69 88.34 248.15 87.14 248.64 80.46 251.42 75.65 255.59 75.32 255.89 74.71 256.42 74.66 257.34 75.19 257.94Z" stroke-width="0" fill="#B43965"/><path d="M90.69 250.38C91.14 250.38 91.58 250.17 91.87 249.78 92.34 249.13 92.2 248.22 91.55 247.75 86.71 244.22 77.41 243.47 77.01 243.44 76.21 243.38 75.51 243.98 75.45 244.78 75.39 245.58 75.99 246.28 76.79 246.34 76.88 246.34 85.66 247.05 89.83 250.1 90.09 250.29 90.39 250.38 90.69 250.38Z" stroke-width="0" fill="#B43965"/></g><path d="M337.78 164.01 296.62 270.83 296.61 270.83 296.61 270.83 176.37 270.83 176.37 260.11 289.88 260.11 327.05 164.01 337.78 164.01Z" stroke-width="0" fill="#00BD84"/><g><path d="M252.34 274.71C251.22 275.7 249.74 276.81 247.79 278.01 240.49 282.49 227.54 288.3 213.26 284.98 198.98 281.66 191.35 270.7 191.35 270.7 191.35 270.7 192.84 261.74 198.32 259.74 203 258.03 199.65 265.38 200.98 267.71 202.31 270.03 219.17 270.9 229.2 269.87 234.76 269.29 240.53 269.29 245.25 269.47 245.96 269.5 246.64 269.52 247.3 269.56 248.53 269.63 249.66 269.7 250.68 269.77 251.25 269.81 251.75 270 252.15 270.3 252.52 270.57 252.81 270.93 253.01 271.34 253.53 272.41 253.39 273.78 252.34 274.71Z" stroke-width="0" fill="#F9B78E"/><path d="M253.01 271.34C251.08 273.3 246.59 276.96 238.04 279.69 237.97 279.71 237.91 279.72 237.84 279.72 237.56 279.72 237.3 279.54 237.21 279.26 237.1 278.91 237.29 278.54 237.64 278.42 246.07 275.73 250.41 272.1 252.15 270.3 252.52 270.57 252.81 270.93 253.01 271.34Z" stroke-width="0" fill="#F9927D"/><path d="M247.3 269.56C244.9 271.6 240.65 274.41 233.74 276.61 233.67 276.63 233.61 276.64 233.54 276.64 233.26 276.64 233 276.46 232.91 276.18 232.8 275.83 232.99 275.46 233.34 275.35 238.99 273.54 242.82 271.3 245.25 269.47 245.96 269.5 246.64 269.52 247.3 269.56Z" stroke-width="0" fill="#F9927D"/></g></g></g></svg>