<svg viewBox="0 0 522.2 1449.35" xmlns="http://www.w3.org/2000/svg" xmlns:xlink="http://www.w3.org/1999/xlink" id="Layer_1" overflow="hidden"><defs><clipPath id="clippath"><rect x="0" y="0" width="522.2" height="872.48" stroke-width="0" fill="none"/></clipPath></defs><g clip-path="url(#clippath)"><path d="M237.12 31.5C235.87 31.75 225.95 17.81 194.48 20.65 163.01 23.48 151.29 47.09 144.11 49.22 136.94 51.36 95.65 55.38 99.87 126.27 104.09 197.15 136.3 225.44 162.66 248.79 189.02 272.14 195.78 284.8 184.89 290.96 174 297.12 156.78 296.57 155.56 280.24 154.34 263.92 155.56 253.89 150.26 252.83 144.96 251.77 122.88 275.64 138.84 303.98 154.8 332.33 194.91 309.64 194.91 309.64 194.91 309.64 194.44 324.13 216.3 325.73 238.16 327.32 243.26 304.98 243.26 304.98 243.26 304.98 241.87 316.48 252.96 315.07 264.06 313.65 267.47 277.94 267.47 277.94L237.11 31.5Z" stroke-width="0" fill="#01484D"/><path d="M189.58 180.67C189.58 180.67 168.8 117.82 180.42 74.67 192.05 31.52 228.66 18.49 275.78 20.9 322.89 23.31 350.22 43.73 354.85 92.74 359.48 141.74 339.38 186.81 339.38 186.81L189.58 180.67Z" stroke-width="0" fill="#016066"/><path d="M191.09 171.41C191.09 171.41 185.18 148.16 174.5 148.76 163.82 149.36 150.35 188.18 165.47 203.43 184.51 222.65 194.25 211.19 194.25 211.19L191.09 171.4Z" stroke-width="0" fill="#FB8F61"/><path d="M341.29 176.27C341.29 176.27 348.69 153.45 359.31 154.74 369.93 156.03 380.86 195.63 364.79 209.88 344.55 227.83 335.57 215.77 335.57 215.77L341.29 176.27Z" stroke-width="0" fill="#FB8F61"/><path d="M255.2 290.27C255.2 290.27 255.9 268.53 250.65 266.14 245.4 263.75 214.84 260.99 198.81 234.71 182.78 208.43 192.48 128.36 192.48 128.36 192.48 128.36 225.83 127.22 238.82 109.87 251.82 92.52 262.14 75.54 262.14 75.54 262.14 75.54 274.6 102.15 291.12 113.34 307.64 124.53 336.5 124.57 336.5 124.57 336.5 124.57 350.16 207.83 331.06 238.09 318.42 258.11 293.91 260.87 291.04 267 288.18 273.12 291.22 289.03 291.22 289.03L255.2 290.27Z" stroke-width="0" fill="#FB8F61"/><path d="M216.36 173.08C211.86 168.34 211.92 160.74 215.53 155.29 218.78 150.39 224.53 145.34 234.4 145.32 253.61 145.28 254.39 168.17 251.38 173.35 244.02 186.03 231.02 188.52 216.36 173.08Z" stroke-width="0" fill="#FCFEFD"/><path d="M214.28 136.23C213.92 138.29 224.89 127.68 238.6 129.56 252.31 131.44 256.25 142.75 258 141.66 259.76 140.57 258.53 125.32 247.18 121.23 235.84 117.13 214.98 132.24 214.27 136.24Z" stroke-width="0" fill="#722604"/><path d="M225.82 137.69C233.19 133.46 243.46 135.11 249.15 141.41 249.41 141.7 248.99 142.13 248.7 141.87 242.57 136.62 233.56 135.2 226.1 138.27 225.75 138.43 225.47 137.88 225.82 137.69L225.82 137.69Z" stroke-width="0" fill="#1D1D1B"/><path d="M259.77 194.13C260.33 194.34 267.51 200.3 265.24 200.04 262.87 198.69 260.84 196.84 259.31 194.58 259.11 194.29 259.49 193.93 259.77 194.13L259.77 194.13Z" stroke-width="0" fill="#1D1D1B"/><path d="M269.76 200.25C271.34 198.06 273.58 196.39 276.1 195.45 276.27 195.39 276.46 195.48 276.52 195.66 276.56 195.79 276.52 195.92 276.43 196.01 275.46 196.92 274.43 197.69 273.4 198.48 272.36 199.25 271.34 200.03 270.2 200.72 269.91 200.91 269.55 200.53 269.76 200.25L269.76 200.25Z" stroke-width="0" fill="#1D1D1B"/><path d="M247.79 164.96C247.54 172.68 241.08 178.74 233.36 178.49 225.64 178.24 219.58 171.78 219.83 164.06 220.08 156.34 226.54 150.28 234.26 150.53 241.98 150.78 248.04 157.24 247.79 164.96Z" stroke-width="0" fill="#004254"/><path d="M258.46 215.67C256.25 223.86 258.71 234.48 268.92 233.2 277.41 232.14 278.57 223.43 276.21 216.27 270.44 216.97 264.38 216.67 258.46 215.67Z" stroke-width="0" fill="#670000"/><path d="M265.22 213.39C262 213.71 259.61 214.91 258.47 216.33 264.39 216.66 270.44 216.76 276.22 216.53 274.26 214.55 269.89 212.93 265.23 213.39Z" stroke-width="0" fill="#FCFEFD"/><path d="M172.84 154.26C180.52 163 184.65 174.7 184.38 186.32 184.38 186.85 183.74 187.18 183.32 186.87 180.65 185.03 176.47 186.25 174.76 188.99 172.98 191.88 173.84 195.84 176.14 198.22 179.09 201.22 183.97 201.57 187.69 199.78 188.05 199.59 188.35 200.18 187.98 200.36 182.64 203.35 174.81 201.39 172.99 195.1 171.31 190.37 174.46 185.23 179.5 184.72 181.09 184.53 182.74 184.86 184.09 185.75 184.09 185.75 183.03 186.3 183.03 186.3 183.27 177.8 181.12 169.27 177.06 161.81 175.72 159.31 174.15 156.92 172.36 154.69 172.1 154.39 172.59 153.95 172.85 154.28L172.85 154.28Z" stroke-width="0" fill="#1D1D1B"/><path d="M315.97 176.3C320.77 171.86 321.2 164.27 317.95 158.6 315.02 153.5 309.61 148.09 299.76 147.43 280.59 146.15 278.34 168.94 281.01 174.31 287.54 187.43 300.35 190.76 315.97 176.3Z" stroke-width="0" fill="#FCFEFD"/><path d="M320.42 139.66C320.64 141.74 310.39 130.44 296.58 131.43 282.78 132.42 278.12 143.46 276.43 142.26 274.75 141.06 276.96 125.92 288.54 122.57 300.12 119.21 319.97 135.64 320.41 139.67Z" stroke-width="0" fill="#722604"/><path d="M308.49 140.93C301.24 137.39 292.17 138.23 285.71 143.07 285.41 143.31 285 142.85 285.29 142.58 291.38 136.66 301.73 135.68 308.81 140.37 309.13 140.58 308.84 141.11 308.49 140.93L308.49 140.93Z" stroke-width="0" fill="#1D1D1B"/><path d="M285.12 166.17C284.87 173.89 290.93 180.35 298.65 180.6 306.37 180.85 312.83 174.79 313.08 167.07 313.33 159.35 307.27 152.88 299.55 152.63 291.83 152.38 285.37 158.44 285.11 166.16Z" stroke-width="0" fill="#004254"/><path d="M361.08 160.77C353.46 169.17 348.82 180.28 348.39 191.63 348.39 191.63 347.36 191.01 347.36 191.01 348.76 190.21 350.44 189.99 352.01 190.28 357 191.11 359.81 196.46 357.84 201.06 355.62 207.22 347.67 208.67 342.54 205.34 342.19 205.12 342.51 204.58 342.87 204.79 346.47 206.82 351.37 206.78 354.5 203.98 356.94 201.76 358.05 197.86 356.47 194.86 354.93 192.01 350.84 190.52 348.06 192.19 347.61 192.48 346.99 192.1 347.03 191.57 347.15 188.66 347.55 185.76 348.21 182.93 350.15 174.44 354.47 166.49 360.62 160.32 360.9 160.04 361.37 160.46 361.09 160.76L361.09 160.76Z" stroke-width="0" fill="#1D1D1B"/><path d="M262.31 240.88C267.88 241.62 273.55 240.88 278.73 238.67 279.08 238.52 279.35 239.04 279.03 239.24 274.14 242.43 267.72 243.3 262.17 241.51 261.81 241.4 261.94 240.83 262.31 240.88L262.31 240.88Z" stroke-width="0" fill="#1D1D1B"/><path d="M185.01 110.92C202.52 108.37 216.83 96.8 229.31 84.98 229.31 84.98 234.77 79.84 234.77 79.84 234.9 79.72 235.1 79.72 235.23 79.84 235.35 79.96 235.35 80.16 235.23 80.29L230 85.69C219.44 96.31 207.32 106.39 192.54 110.26 190.09 110.88 187.6 111.32 185.09 111.55 184.7 111.58 184.59 110.98 185.02 110.91L185.02 110.91Z" stroke-width="0" fill="#1D1D1B"/><path d="M307.13 89.6C319.78 96.72 332.64 104.56 347.34 106.22 347.73 106.26 347.7 106.89 347.29 106.86 336.11 106.4 325.64 101.59 316.13 96.03 312.95 94.16 309.85 92.19 306.79 90.14 306.46 89.93 306.77 89.39 307.13 89.59L307.13 89.59Z" stroke-width="0" fill="#1D1D1B"/><path d="M189.36 92.22C196.94 87.68 204.12 82.55 210.83 76.81 211.12 76.56 211.55 76.99 211.28 77.28 205.18 83.77 197.77 89.1 189.66 92.8 189.31 92.96 189.02 92.43 189.36 92.23L189.36 92.23Z" stroke-width="0" fill="#1D1D1B"/><path d="M335.51 75.89C339.66 77.27 343.55 79.39 347.08 81.97 348.25 82.84 349.39 83.75 350.45 84.75 350.58 84.87 350.59 85.08 350.47 85.21 350.36 85.32 350.19 85.34 350.06 85.26 345.37 82.23 340.16 79.15 335.26 76.48 334.92 76.3 335.16 75.76 335.52 75.89L335.52 75.89Z" stroke-width="0" fill="#1D1D1B"/><path d="M153.7 46.3C162.56 43.98 173.8 42.61 180.81 49.85 181.08 50.13 180.66 50.58 180.37 50.32 174.96 45.78 167.53 45.29 160.78 46.06 158.47 46.29 156.16 46.65 153.82 46.93 153.44 46.99 153.32 46.38 153.7 46.3L153.7 46.3Z" stroke-width="0" fill="#1D1D1B"/><path d="M198.3 305.54C207.55 300.62 212.46 289.8 212.35 279.6 212.34 274.42 211.14 269.29 209.26 264.45 207.37 259.58 204.81 254.99 201.87 250.67 201.77 250.52 201.81 250.32 201.95 250.22 202.09 250.12 202.29 250.16 202.39 250.29 203.98 252.4 205.46 254.6 206.82 256.88 213.64 268.17 216.57 283.04 209.9 295.08 207.37 299.79 203.46 303.87 198.58 306.12 198.22 306.28 197.93 305.74 198.29 305.54L198.29 305.54Z" stroke-width="0" fill="#1D1D1B"/><path d="M217.4 257.44C230.71 263.82 243.38 276.4 242.8 292.13 242.78 292.52 242.16 292.53 242.16 292.13 241.82 280.89 234.94 271 226.3 264.27 223.41 261.96 220.3 259.92 217.1 258.01 216.76 257.82 217.05 257.25 217.41 257.44L217.41 257.44Z" stroke-width="0" fill="#1D1D1B"/><path d="M284.91 23.88C308.1 27.09 331.19 37.74 342.05 59.58 344.02 63.15 345.53 67.74 346.74 71.65 346.79 71.82 346.7 72 346.53 72.06 346.35 72.12 346.17 72.01 346.12 71.84 337.85 45.17 316.08 31.22 289.85 25.54 289.85 25.54 284.81 24.53 284.81 24.53 284.63 24.5 284.51 24.33 284.54 24.15 284.57 23.98 284.74 23.87 284.91 23.9L284.91 23.9Z" stroke-width="0" fill="#1D1D1B"/><path d="M216.92 162.9C219.25 160.83 222.19 160.46 225.03 161.3 226.99 161.87 229.88 163.85 227.98 166.2 225.69 168.39 222.54 168.84 219.63 168 217.53 167.43 214.67 165.19 216.91 162.9L216.91 162.9Z" stroke-width="0" fill="#FCFEFD"/><path d="M282.96 165.04C285.29 162.96 288.23 162.6 291.07 163.44 293.03 164.01 295.92 165.99 294.02 168.34 291.73 170.53 288.58 170.98 285.68 170.14 283.58 169.57 280.72 167.33 282.96 165.04L282.96 165.04Z" stroke-width="0" fill="#FCFEFD"/><path d="M214.06 154.32C217.53 146.37 226.35 141.52 234.89 141.68 250.4 141.37 257.46 156.21 254.45 169.91 254.14 171.26 253.76 172.6 253.04 173.98 252.14 175.72 249.47 174.9 249.69 172.97 250.25 166.54 249.06 159.04 245.08 153.78 241.24 148.79 234.1 148.28 228.31 149.53 224.11 150.43 220.31 152.82 217.01 156.28 215.65 157.77 213.22 156.14 214.06 154.32L214.06 154.32Z" stroke-width="0" fill="#352927"/><path d="M316.4 159.49C311.85 153.95 305.98 151.13 299.15 151.08 293.95 150.84 289.32 153.15 286.72 157.62 283.9 162.37 282.52 168.56 282.71 174.03 282.81 175.98 280.06 176.61 279.3 174.82 277.24 169.47 277.51 163.78 278.98 158.3 282.62 145.04 295.81 140.63 307.88 145.76 313.11 147.95 317.5 152.47 319.47 157.72 320.18 159.62 317.65 161.05 316.4 159.49L316.4 159.49Z" stroke-width="0" fill="#352927"/><path d="M212.08 595.63C212.08 595.63 174.59 503.63 159.01 465.23 143.43 426.84 130.77 348.54 135.74 345.87 140.71 343.2 232.78 314.16 242.14 309.03 251.5 303.91 245.39 281.95 247.31 278.79 249.24 275.62 292.67 274.86 295.31 277.11 297.95 279.37 298.65 300.55 302.23 302.83 305.8 305.12 366.11 336.1 374.23 336.76 382.35 337.43 408.49 351.06 409.91 357.46 411.33 363.86 385.09 453.8 371.97 490.72 358.84 527.65 346.98 558.72 343.34 570.82 339.69 582.91 336.03 605.04 336.03 605.04L212.08 595.61Z" stroke-width="0" fill="#F89F47"/><path d="M187.2 335.64C209.31 343.29 230.81 352.76 251.4 363.86 251.56 363.94 251.62 364.14 251.53 364.3 251.45 364.45 251.26 364.51 251.1 364.44 235.34 356.79 219.4 349.52 203.21 342.83 197.81 340.6 192.4 338.4 186.97 336.25 186.8 336.19 186.72 336 186.79 335.83 186.85 335.67 187.03 335.59 187.2 335.64L187.2 335.64Z" stroke-width="0" fill="#1D1D1B"/><path d="M281.06 364.54C297.61 355.75 315.75 346.06 332.02 336.98 332.02 336.98 348.89 327.57 348.89 327.57 349.05 327.48 349.24 327.54 349.33 327.69 349.42 327.84 349.36 328.03 349.22 328.13 332.86 338.16 315.71 347.75 298.67 356.52 294.4 358.72 285.69 363.04 281.35 365.11 281.19 365.19 281 365.12 280.92 364.96 280.84 364.8 280.91 364.61 281.06 364.53L281.06 364.53Z" stroke-width="0" fill="#1D1D1B"/><path d="M234.81 1385.48C234.81 1385.48 224.3 1407.78 216.87 1410.6 209.44 1413.42 150.45 1420.69 140.61 1422.21 130.77 1423.73 119.26 1439.27 135.76 1439.8 152.26 1440.34 284.22 1447.05 286.74 1444.68 289.27 1442.32 282.64 1382.14 282.64 1382.14L234.81 1385.49Z" stroke-width="0" fill="#B20000"/><path d="M342.75 1388.97C342.75 1388.97 351.8 1411.9 359.03 1415.19 366.27 1418.48 417.73 1429.32 427.45 1431.47 437.17 1433.62 447.66 1449.87 431.16 1449.34 414.66 1448.81 289.47 1447.21 287.11 1444.69 284.74 1442.17 295.24 1382.54 295.24 1382.54L342.76 1388.97Z" stroke-width="0" fill="#B20000"/><path d="M121.57 700.42C135.27 645.85 194.63 605.37 197.5 600.58 200.37 595.79 195.88 581.21 200.35 579.51 204.82 577.81 341.29 583.52 346.59 587.49 351.89 591.46 345.95 607.4 349.14 609.21 352.34 611.01 418.44 647.69 434.87 726.89 451.3 806.09 404.75 1028.85 385.69 1109.53 371.49 1169.61 343.75 1352.91 343.75 1352.91L296.92 1344.05C296.92 1344.05 295.91 997.28 296.8 969.57 297.7 941.86 295.52 774.15 291.83 770.75 288.14 767.35 277.88 764.36 275.01 769.12 272.14 773.88 271.21 922 270.63 990.35 270.05 1058.7 281.05 1342.92 281.05 1342.92L233.12 1349.33C233.12 1349.33 133.96 964.78 118 866.05 102.04 767.32 116.3 721.4 121.57 700.42Z" stroke-width="0" fill="#003A49"/><path d="M132.28 683.3C161.6 685.11 187.94 669.62 203.53 645.22 203.53 645.22 206.65 640.01 206.65 640.01 206.65 640.01 209.41 634.59 209.41 634.59 209.48 634.42 209.69 634.34 209.85 634.43 210.01 634.51 210.07 634.7 209.99 634.85 209.99 634.85 207.37 640.39 207.37 640.39L204.37 645.74C191.52 666.82 169.4 682.18 144.49 684.06 142.44 684.12 140.4 684.22 138.35 684.25 138.35 684.25 132.23 683.93 132.23 683.93 132.05 683.93 131.92 683.77 131.93 683.59 131.94 683.4 132.1 683.27 132.29 683.29L132.29 683.29Z" stroke-width="0" fill="#1D1D1B"/><path d="M233.12 1349.33 281.05 1342.92C281.05 1342.92 272.59 1124.26 270.9 1024.4 225.94 1021.47 182.72 1005.77 142.91 984.05 177.55 1133.82 233.11 1349.32 233.11 1349.32Z" stroke-width="0" fill="#039180"/><path d="M331.28 1020.26C319.61 1022.71 308 1024.11 296.47 1024.65 296.3 1129.78 296.93 1344.04 296.93 1344.04L343.76 1352.9C343.76 1352.9 371.5 1169.61 385.7 1109.52 392.21 1081.98 401.92 1037.88 411.23 988.58 387.07 1003.27 361.23 1015.07 331.28 1020.26Z" stroke-width="0" fill="#039180"/><path d="M221.89 770.22C260.51 761.25 301.58 762.44 339.64 773.53 339.64 773.53 347.21 775.89 347.21 775.89 347.38 775.94 347.47 776.12 347.42 776.29 347.37 776.46 347.18 776.56 347.01 776.5 347.01 776.5 339.41 774.32 339.41 774.32 308.93 766.13 276.8 763.61 245.44 767.14 241.55 767.59 233.66 768.71 229.79 769.37 229.79 769.37 222.02 770.85 222.02 770.85 221.84 770.89 221.67 770.77 221.63 770.6 221.6 770.43 221.71 770.26 221.88 770.22L221.88 770.22Z" stroke-width="0" fill="#1D1D1B"/><path d="M213.92 1340.54C216.17 1336.67 282.38 1333.78 284.97 1335.9 287.57 1338.01 292.48 1381.84 291.74 1384.26 291.01 1386.68 227.72 1392.59 223.77 1392.46 219.82 1392.33 211.82 1344.14 213.92 1340.54Z" stroke-width="0" fill="#00A99C"/><path d="M363.72 1345.38C361.57 1341.37 294.03 1332.74 291.11 1334.68 288.19 1336.61 285.79 1382.85 286.41 1385.31 287.04 1387.78 346.75 1393.99 350.98 1394.13 355.22 1394.27 365.71 1349.12 363.71 1345.38Z" stroke-width="0" fill="#00A99C"/><path d="M341.13 641.28C352.58 664.63 374.5 682.72 400.05 688.25 400.05 688.25 405.53 689.26 405.53 689.26 405.54 689.26 411.08 689.87 411.1 689.87 411.28 689.89 411.4 690.05 411.39 690.22 411.37 690.39 411.22 690.52 411.05 690.51 411.05 690.51 405.44 690.08 405.44 690.08 381.02 687.25 358.8 672.22 345.84 651.51 345.84 651.51 343.04 646.62 343.04 646.62 343.04 646.62 340.57 641.56 340.57 641.56 340.49 641.4 340.56 641.21 340.72 641.13 340.88 641.05 341.08 641.13 341.16 641.29L341.16 641.29Z" stroke-width="0" fill="#1D1D1B"/><path d="M147.78 1434.57C190.41 1433.38 233.72 1431.92 276.29 1434.7 276.29 1434.7 284.84 1435.33 284.84 1435.33 285.02 1435.34 285.15 1435.5 285.14 1435.67 285.13 1435.85 284.97 1435.98 284.8 1435.97L276.25 1435.51C244.93 1434.06 213.4 1434.37 182.07 1434.84 173.56 1434.97 156.32 1435.16 147.8 1435.21 147.62 1435.21 147.48 1435.07 147.48 1434.89 147.48 1434.71 147.62 1434.57 147.79 1434.57L147.79 1434.57Z" stroke-width="0" fill="#1D1D1B"/><path d="M293.31 1439.27C335.94 1438.07 379.25 1436.62 421.82 1439.39 421.82 1439.39 430.37 1440.02 430.37 1440.02 430.55 1440.03 430.68 1440.19 430.67 1440.36 430.66 1440.54 430.5 1440.67 430.33 1440.66L421.78 1440.2C390.46 1438.75 358.93 1439.06 327.59 1439.53 319.08 1439.67 301.84 1439.85 293.32 1439.9 293.14 1439.9 293 1439.76 293 1439.58 293 1439.4 293.14 1439.26 293.31 1439.26L293.31 1439.26Z" stroke-width="0" fill="#1D1D1B"/></g><g><path d="M68.01 597.31C68.01 597.31 43.97 520.2 69.19 457.53 94.41 394.86 127.42 343.07 140.67 348.77 153.91 354.47 151.02 604.31 151.02 604.31L68.02 597.31Z" stroke-width="0" fill="#BA7735"/><path d="M61.56 517.91C74 509.77 90.25 507.03 104.43 511.91 104.8 512.04 104.64 512.63 104.24 512.53 93.61 509.71 82.25 510.33 71.91 513.99 68.46 515.19 65.12 516.71 61.89 518.46 61.55 518.66 61.21 518.12 61.56 517.91L61.56 517.91Z" stroke-width="0" fill="#1D1D1B"/><g><path d="M49.69 520.82C49.69 520.82 52.18 567.38 62.17 594.97 72.16 622.55 88.82 638.46 125.14 630.05 161.47 621.64 158.56 598.44 141.8 577.5 125.04 556.56 87.67 512.77 87.67 512.77L49.69 520.82Z" stroke-width="0" fill="#F89F47"/><path d="M60.51 546.87C71.35 543.39 81.79 538.82 91.7 533.22 92.04 533.02 92.38 533.54 92.04 533.77 84.95 538.66 77.11 542.44 68.96 545.19 66.24 546.09 63.48 546.89 60.67 547.5 60.29 547.59 60.12 547 60.5 546.88L60.5 546.88Z" stroke-width="0" fill="#1D1D1B"/><path d="M30.98 528.48C23.28 521.17 19.53 500.17 19.56 488.13 19.6 476.08 23.87 455.67 29.48 456.92 33.97 457.92 36.96 470.27 36.96 470.27 36.96 470.27 31.4 452.72 43.35 447.88 58.94 441.56 76.27 462.38 84.41 475.8 94.09 491.74 100.65 506.97 98.32 516.3 95.99 525.64 51.06 547.54 30.97 528.48Z" stroke-width="0" fill="#FB8F61"/><path d="M60.9 516.3C49.91 495.92 45.76 472.63 42.3 449.97 42.27 449.79 42.39 449.63 42.57 449.6 42.74 449.57 42.9 449.69 42.94 449.86 46.76 469.18 50.45 489.92 57.99 508.14 57.99 508.14 59.66 512.1 59.66 512.1L61.47 516C61.66 516.35 61.09 516.68 60.9 516.29L60.9 516.29Z" stroke-width="0" fill="#1D1D1B"/><path d="M84.03 516.07C72.95 494.73 61.02 470.53 50.79 448.78 50.71 448.62 50.79 448.43 50.94 448.35 51.1 448.28 51.28 448.35 51.36 448.49 59.3 463.71 69 483.33 76.54 498.84 76.54 498.84 80.6 507.3 80.6 507.3L84.6 515.79C84.68 515.95 84.6 516.14 84.45 516.22 84.29 516.29 84.11 516.22 84.03 516.08L84.03 516.08Z" stroke-width="0" fill="#1D1D1B"/><path d="M44.93 524.06C41.35 514.16 38.73 503.89 37.09 493.49 37.02 493.1 37.63 492.97 37.72 493.36 37.72 493.36 39.66 500.99 39.66 500.99 40.94 506.13 44.18 518.57 45.54 523.86 45.64 524.24 45.06 524.43 44.92 524.05L44.92 524.05Z" stroke-width="0" fill="#1D1D1B"/></g></g><g><path d="M473.01 581.31C473.01 581.31 491.12 534.65 469.99 470.48 448.86 406.31 419.27 352.5 405.68 357.33 392.1 362.16 405 555.3 405 555.3L473 581.3Z" stroke-width="0" fill="#F89F47"/><path d="M362.8 650.02C362.8 650.02 371.35 604.19 384.87 578.14 398.38 552.1 416.97 538.51 451.89 551.59 486.81 564.68 480.89 587.29 461.54 605.86 442.19 624.43 399.41 662.96 399.41 662.96L362.81 650.01Z" stroke-width="0" fill="#F89F47"/><path d="M473.34 531.75C461.05 523.82 445.9 520.18 431.46 523.1 431.08 523.18 430.92 522.57 431.31 522.47 442.14 519.5 453.95 520.89 464.11 525.54 467.5 527.09 470.73 528.99 473.7 531.22 474.02 531.45 473.68 531.97 473.33 531.75L473.33 531.75Z" stroke-width="0" fill="#1D1D1B"/><path d="M377.18 625C387.93 628.99 397.94 635.06 406.48 642.71 406.77 642.97 406.39 643.45 406.07 643.21 399.23 638.11 392.09 633.44 384.55 629.45 382.05 628.11 379.5 626.85 376.93 625.6 376.58 625.44 376.8 624.86 377.18 625.01L377.18 625.01Z" stroke-width="0" fill="#1D1D1B"/><path d="M345.25 639.97C336.66 646.21 330.2 666.54 328.66 678.49 327.12 690.44 328.69 711.23 334.42 710.73 339.01 710.32 343.58 698.47 343.58 698.47 343.58 698.47 335.77 715.14 346.99 721.5 361.63 729.8 381.52 711.43 391.35 699.19 403.03 684.65 411.52 670.41 410.44 660.85 409.35 651.29 367.67 623.7 345.26 639.98Z" stroke-width="0" fill="#FB8F61"/><path d="M373.85 656.33C361.29 675.27 354.03 698.06 346.82 719.48 346.76 719.65 346.58 719.74 346.41 719.68 346.25 719.63 346.16 719.45 346.2 719.28 352.2 698.63 358.85 677.57 370.84 659.51 370.84 659.51 373.31 655.95 373.31 655.95 373.54 655.62 374.09 655.97 373.84 656.32L373.84 656.32Z" stroke-width="0" fill="#1D1D1B"/><path d="M396.75 659.57C383.77 679.81 368.75 702.22 355 721.94 354.9 722.09 354.7 722.12 354.55 722.02 354.41 721.92 354.37 721.73 354.46 721.58 363.7 707.1 375.86 688.91 385.54 674.65 385.54 674.65 390.84 666.91 390.84 666.91L396.21 659.21C396.31 659.06 396.51 659.03 396.66 659.13 396.8 659.23 396.84 659.42 396.75 659.57L396.75 659.57Z" stroke-width="0" fill="#1D1D1B"/><path d="M359.09 646.45C355.67 654.9 350.67 667.31 347.35 675.68 347.28 675.85 347.1 675.93 346.93 675.86 346.78 675.8 346.7 675.63 346.74 675.47 347.46 672.94 348.29 670.43 349.16 667.95 350.91 662.98 352.88 658.09 355.05 653.29 356.15 650.89 357.28 648.52 358.52 646.19 358.7 645.84 359.26 646.09 359.11 646.46L359.11 646.46Z" stroke-width="0" fill="#1D1D1B"/></g></svg>