<svg viewBox="0 0 185 185" xmlns="http://www.w3.org/2000/svg" xmlns:xlink="http://www.w3.org/1999/xlink" id="Layer_1" overflow="hidden"><defs></defs><circle cx="92.5" cy="92.5" r="92.5" stroke-width="0" fill="#00BD84"/><g><path d="M55.54 132.65 55.54 50.31 113.69 50.31C113.69 54.98 113.69 59.52 113.69 64.06 113.69 70.85 113.71 77.65 113.71 84.44 113.71 87.32 113.55 89.83 111.52 92.53 109.93 94.64 110.51 98.38 110.11 101.52 105.35 101.52 100.5 101.95 95.76 101.42 87.8 100.53 87.74 100.34 87.1 108.46 87.06 109.02 86.82 109.56 86.56 110.54L62.58 110.54 62.58 120.12 86.98 120.12 86.98 132.64 55.56 132.64ZM106.38 96.15 106.38 87.06 62.69 87.06 62.69 96.15 106.38 96.15ZM62.52 72.7C76.78 72.7 90.63 72.92 104.46 72.57 108.72 72.46 106.13 68.36 106.68 66.13 107.31 63.57 105.72 62.9 103.36 62.92 92.88 63 82.39 62.96 71.91 62.96 68.86 62.96 65.8 62.96 62.53 62.96L62.53 72.7Z" stroke-width="0" fill="#FFFFFF"/><path d="M123.58 103.41C123.58 112.99 124.32 122.29 123.36 131.4 122.51 139.45 114.64 144.78 106.45 144.65 98.29 144.52 90.78 138.83 89.96 130.82 89.11 122.51 89.45 114.06 89.52 105.68 89.52 104.92 91.32 103.53 92.3 103.51 102.56 103.35 112.82 103.41 123.58 103.41ZM100.43 130.59C100.78 135.37 103.34 138.1 107.01 137.93 110.68 137.76 112.91 135.05 112.84 130.59L100.43 130.59ZM104.14 116.68C103.71 112.68 102.25 110.16 98.37 110.51 94.95 110.82 93.28 112.89 93.92 116.68L104.14 116.68ZM120.06 116.68C119.59 112.34 117.91 109.95 113.82 110.59 110.58 111.1 109.28 113.23 109.84 116.68L120.05 116.68Z" stroke-width="0" fill="#FFFFFF"/><path d="M125.78 133.51C126.07 131.57 126.33 129.85 126.65 127.71L136.35 127.71C136.41 121.6 134.2 119.94 126.52 120.31 126.52 115.92 126.54 111.54 126.52 107.17 126.48 101.25 125.26 100.27 119.27 101.19 117.4 101.48 115.51 101.65 113.28 101.93L113.28 92.96C117.08 93.28 120.68 93.85 124.27 93.82 130.74 93.76 137.21 93.49 143.66 93.01 146.44 92.8 147.8 93.24 147.73 96.37 147.58 103.6 147.9 110.84 147.58 118.05 147.1 128.99 136.16 136.87 125.78 133.5ZM143.37 106.37C143.48 102.15 141.58 100.04 138.13 100.18 134.81 100.32 132.93 102.47 133.03 106.37L143.37 106.37Z" stroke-width="0" fill="#FFFFFF"/><path d="M49.62 44.35C54.6 44.35 59.28 44.35 63.97 44.35 77.26 44.35 90.55 44.3 103.84 44.42 105.13 44.43 106.42 45.46 107.71 46.01 106.43 46.57 105.14 47.62 103.86 47.63 88.5 47.75 73.15 47.83 57.79 47.62 53.94 47.57 52.76 48.52 52.79 52.51 52.98 75.84 52.89 99.17 52.89 122.5 52.89 123.68 52.98 124.89 52.75 126.03 52.64 126.56 51.81 127.37 51.4 127.32 50.7 127.23 49.86 126.7 49.48 126.1 49.14 125.55 49.3 124.67 49.3 123.93 49.3 98.24 49.31 72.55 49.33 46.85 49.33 46.27 49.46 45.69 49.62 44.34Z" stroke-width="0" fill="#FFFFFF"/></g></svg>