<svg viewBox="0 0 424.62 916.99" xmlns="http://www.w3.org/2000/svg" xmlns:xlink="http://www.w3.org/1999/xlink" overflow="hidden"><defs><clipPath id="clippath"><rect x="0" y="0" width="424.62" height="471" stroke-width="0" fill="none"/></clipPath><clipPath id="clippath-1"><rect x="0" y="0" width="424.62" height="916.99" stroke-width="0" fill="none"/></clipPath></defs><g><g id="Layer_1"><g clip-path="url(#clippath)"><g clip-path="url(#clippath-1)"><path d="M52.7 196.89C52.7 196.89 46.31 178.38 43.3 166.04 41.23 157.55 37.95 151.03 40.71 147.91 43.47 144.79 51.69 160.73 52.42 162.16 53.15 163.6 52.7 196.88 52.7 196.88" stroke-width="0" fill="#FF9782"/><path d="M53.43 199.83 80.73 199.83C81.63 198.14 82.3 196.29 82.65 194.32 83.54 189.4 84.96 184.08 87.24 180.3 92.71 171.23 103.83 163.88 105.59 155.87 107.35 147.85 104.95 147.31 99.22 151.49 93.49 155.67 83.81 164.65 83.81 164.65 83.81 164.65 92.99 149.17 98.71 144.98 104.44 140.8 104.75 134.42 97.18 135.27 89.61 136.12 75.94 151.08 73.28 156.24 73.28 156.24 76.48 145.23 84.04 139.31 91.61 133.39 96.14 130.37 97.6 126.77 99.06 123.16 92.32 120.87 81.97 129.41 71.62 137.95 66.43 143.79 63.91 149.83 63.91 149.83 63.98 144.53 65.98 136.04 67.98 127.56 77.27 121.41 76.12 116.33 74.94 111.13 64.55 118.68 60.69 125.41 56.82 132.14 53.44 136.7 52.14 146.54 50.83 156.37 49.93 165.81 50.56 171.89 51.05 176.58 50.82 190.68 53.44 199.84" stroke-width="0" fill="#FF9782"/><path d="M248.21 478.74C253.51 463.08 258.09 449.28 260.64 440.66 262.28 435.11 256.72 429.06 256.72 429.06 256.72 429.06 203.84 392.61 186.03 408.87 184.65 410.14 179.93 422.24 179.06 424.03 176.89 428.54 174.29 435.89 171.52 445.11 168.64 454.63 165.66 466.18 162.71 478.74L248.21 478.74Z" stroke-width="0" fill="#004254"/><path d="M236.08 478.74C242.55 453.69 247.31 435.37 247.43 434.9 247.6 434.24 247.2 433.57 246.55 433.4 245.89 433.23 245.22 433.63 245.05 434.28 244.93 434.75 240.1 453.37 233.54 478.73L236.09 478.73Z" stroke-width="0" fill="#336876"/><path d="M249.85 454.95C251.82 455.39 253.8 455.81 255.79 456.21 281.2 461.35 307.87 463.43 326.54 459.48 335.75 457.53 341.65 447.55 345.4 436.39 346.42 433.35 347.12 430.17 348.02 427.13 356.9 396.88 352.37 371.84 352.37 371.84L204.27 369.4C204.27 369.4 199.7 376.85 194.63 386.56 190.96 393.59 187.02 401.81 184.36 409.24 184.36 409.24 184.36 409.25 184.36 409.26 182.77 413.7 181.64 417.87 181.31 421.32 180.22 432.37 212.89 446.72 249.87 454.95" stroke-width="0" fill="#004254"/><path d="M342.2 478.74C344.19 461.15 346.02 445.6 347.25 436.23 348.01 430.5 348.35 425.95 348.35 425.95 348.35 425.95 288.68 410.31 273.61 429.14 272.44 430.61 271.52 432.31 270.95 434.21 269.51 439 268.08 446.67 266.78 456.21 265.86 462.89 265.02 470.52 264.29 478.74L342.22 478.74Z" stroke-width="0" fill="#004254"/><path d="M318.92 472.37C322.86 475.59 326.7 477.58 329.5 478.75L335.21 478.75C335.1 478.33 334.78 477.98 334.33 477.87 334.22 477.84 327.37 476.18 320.37 470.43 310.98 462.72 305.79 451.68 304.92 437.63 304.88 436.97 304.3 436.46 303.64 436.5 302.98 436.54 302.47 437.11 302.51 437.78 303.64 456.2 312.06 466.76 318.93 472.37Z" stroke-width="0" fill="#336876"/><path d="M335.83 478.74C338.3 453.33 340.12 434.82 340.17 434.34 340.24 433.66 339.74 433.06 339.06 432.99 338.38 432.92 337.78 433.42 337.71 434.1 337.66 434.58 335.83 453.21 333.35 478.74L335.83 478.74Z" stroke-width="0" fill="#336876"/><path d="M261.46 455.18C261.9 455.13 262.3 454.84 262.47 454.4 262.72 453.76 262.4 453.05 261.77 452.8 261.57 452.72 247.84 447.16 243.53 432.18 243.34 431.53 242.66 431.15 242.01 431.34 241.36 431.53 240.98 432.21 241.17 432.86 245.83 449.08 260.27 454.85 260.88 455.09 261.07 455.17 261.27 455.19 261.46 455.17" stroke-width="0" fill="#336876"/><path d="M233.03 116.51C233.03 116.51 280.64 119.88 299.55 130.44 325.12 144.71 326.97 233.76 335.84 272.19 344.71 310.62 363.6 379.12 351.2 410.21 344.47 427.09 213.93 429.75 185.07 419.52 169.86 414.13 179.82 310.39 166.58 267.28 153.34 224.17 138.87 195.38 140.86 176.12 142.48 160.47 186.9 136.71 186.9 136.71L233.03 116.51Z" stroke-width="0" fill="#FFA500"/><path d="M343.27 397.23C344.09 397.23 344.76 396.58 344.78 395.75 345.51 360.69 339.74 325.22 327.14 287.3 312.88 244.4 309.12 179.5 309.08 178.85 309.03 178.02 308.33 177.38 307.49 177.43 306.66 177.48 306.02 178.19 306.07 179.02 306.11 179.67 309.89 244.97 324.28 288.25 336.77 325.83 342.49 360.98 341.77 395.69 341.75 396.52 342.41 397.21 343.25 397.23L343.28 397.23" stroke-width="0" fill="#BF7C00"/><path d="M287.78 363.95C272.33 363.95 255.08 359.58 236.76 350.93 215.35 340.82 199.78 328.29 199.63 328.17 198.96 327.63 198.86 326.65 199.4 325.99 199.94 325.32 200.92 325.22 201.58 325.76 201.73 325.88 217.06 338.21 238.14 348.16 257.46 357.27 285.72 366.2 310.65 356.98 311.45 356.68 312.35 357.09 312.65 357.9 312.95 358.7 312.54 359.6 311.73 359.9 304.39 362.61 296.36 363.96 287.78 363.96" stroke-width="0" fill="#BF7C00"/><path d="M284.66 390.46C268.2 390.46 254.47 385.98 245.22 381.8 233.04 376.28 225.98 370.22 225.68 369.97 225.03 369.41 224.96 368.43 225.52 367.78 226.08 367.13 227.06 367.06 227.71 367.62 227.99 367.86 255.88 391.54 295.26 386.71 296.1 386.61 296.88 387.21 296.99 388.06 297.1 388.91 296.49 389.69 295.64 389.79 291.87 390.25 288.2 390.46 284.66 390.46" stroke-width="0" fill="#BF7C00"/><path d="M215.06 158.55C201.26 158.55 190.2 149.6 189.69 149.19 189.03 148.65 188.93 147.67 189.48 147.01 190.03 146.35 191 146.25 191.67 146.8 191.85 146.95 204.43 157.06 218.64 155.23 226.76 154.18 233.94 149.43 239.96 141.12 240.46 140.43 241.43 140.27 242.13 140.78 242.82 141.28 242.98 142.25 242.47 142.95 235.92 151.99 228.02 157.16 219.01 158.32 217.67 158.49 216.36 158.57 215.06 158.57" stroke-width="0" fill="#BF7C00"/><path d="M161.89 76.59C161.89 76.59 157.76 77.47 157.61 82.89 157.46 88.31 161.22 96.87 166.48 95.12 171.74 93.37 161.89 76.59 161.89 76.59" stroke-width="0" fill="#EA745F"/><path d="M229.35 49.54C229.35 49.54 237.82 31.33 232.18 22.88 226.54 14.43 223.12 19.22 223.12 19.22 223.12 19.22 226.43 8.61 218.83 5.87 211.24 3.13 207.89 9.77 207.89 9.77 207.89 9.77 198.43-3.52 188.48 0.92 178.53 5.37 183.97 13 183.97 13 183.97 13 166.41 3 158.63 10.58 150.85 18.17 157.73 23.64 157.73 23.64 157.73 23.64 140.44 16.85 135.77 31.34 131.11 45.83 145.35 46.61 145.35 46.61 145.35 46.61 126.96 50.49 134.36 58.54 141.76 66.59 160.91 54.91 160.91 54.91 160.91 54.91 218.97 40.83 229.35 49.55" stroke-width="0" fill="#932C11"/><path d="M238.05 118.43C237.39 126.31 227.03 137.03 220.86 139.96 211.26 144.53 200.83 144.85 192.16 141.62L188.94 126.63 188.28 123.57 187.03 117.77 218.46 86.21 220.27 84.39 221.49 83.16 222.24 84.37 223.1 85.77 223.04 86.44C228.75 100.45 230.46 109.07 238.04 118.42" stroke-width="0" fill="#FF9782"/><path d="M191.48 138.48C205.37 131.91 210.67 117.42 212.59 109.59 206.62 116.92 198.77 122.53 190.79 123.43 189.93 123.53 189.09 123.57 188.28 123.57L191.48 138.48Z" stroke-width="0" fill="#EA745F"/><path d="M188.27 123.58C189.08 123.58 189.92 123.53 190.78 123.44 206.38 121.69 221.48 101.89 223.04 86.45 223.06 86.22 223.08 86 223.1 85.78 223.14 85.26 223.17 84.75 223.18 84.25 223.25 84.23 223.32 84.2 223.39 84.18L223.39 84.18C233.16 80.85 241.13 67.55 236.3 59.52 233.68 55.18 230.49 54.38 227.78 54.8 228.06 50.27 228.01 45.87 227.37 42.18 224.85 27.46 209.54 9.2 182.52 20.59 155.5 31.98 151.07 54.5 156.26 67.85 159.22 75.47 161.75 83.3 163.37 88.63 163.91 90.42 164.35 91.92 164.68 93.04 165.08 94.44 165.3 95.24 165.3 95.24 166.09 107.64 173.25 123.58 188.28 123.59" stroke-width="0" fill="#FF9782"/><path d="M191.58 91.58C191.58 91.58 192.8 101.36 184.75 103.33 176.7 105.3 174.38 97.47 174.38 97.47L191.57 91.58Z" stroke-width="0" fill="#FFFFFF"/><path d="M187.05 106.69C188.57 106.08 189.22 104.82 189.26 104.74 189.44 104.37 189.29 103.93 188.93 103.74 188.56 103.56 188.12 103.71 187.93 104.07 187.89 104.15 187.04 105.72 184.87 105.5 184.46 105.46 184.09 105.75 184.05 106.16 184.01 106.57 184.31 106.93 184.71 106.98 185.65 107.07 186.42 106.93 187.04 106.68" stroke-width="0" fill="#EA745F"/><path d="M191.57 63.54C191.98 63.33 192.36 63.01 192.64 62.6 193.58 61.25 193.25 59.41 191.91 58.47 191.59 58.25 183.99 53.06 176.79 58.04 175.44 58.97 175.11 60.82 176.04 62.17 176.97 63.52 178.82 63.85 180.17 62.92 184.03 60.25 188.48 63.3 188.53 63.33 189.46 63.98 190.64 64.02 191.59 63.53" stroke-width="0" fill="#4A1609"/><path d="M161.93 72.24C162.7 71.84 163.29 71.12 163.48 70.21 163.99 67.75 167.96 66.54 169 66.35 170.61 66.06 171.68 64.51 171.38 62.9 171.09 61.29 169.54 60.22 167.93 60.51 164.65 61.11 158.8 63.57 157.67 68.99 157.34 70.59 158.36 72.16 159.97 72.5 160.66 72.64 161.35 72.53 161.93 72.23" stroke-width="0" fill="#4A1609"/><path d="M166.59 79.6C167.28 81.52 168.64 82.78 169.64 82.43 170.64 82.07 170.89 80.23 170.2 78.31 169.51 76.39 168.15 75.13 167.15 75.48 166.15 75.84 165.9 77.68 166.59 79.6" stroke-width="0" fill="#4A1609"/><path d="M173.28 75.94C173.37 75.88 173.44 75.79 173.48 75.68 173.58 75.4 173.43 75.09 173.15 74.99 172.91 74.91 167.36 73.01 163.99 77.06 163.8 77.29 163.83 77.63 164.06 77.82 164.29 78.01 164.63 77.98 164.82 77.75 167.71 74.27 172.74 75.99 172.79 76.01 172.96 76.07 173.14 76.04 173.27 75.94" stroke-width="0" fill="#4A1609"/><path d="M227.78 54.79C227.78 54.79 221.39 55.31 218.2 59.72 215.01 64.13 216.89 73.68 211.76 75.1 206.63 76.53 211.04 57.36 207.71 54.42 204.38 51.49 194.34 56.08 193.17 42.52 192.51 34.87 166.12 43.84 161.75 50.34 157.38 56.84 150.49 62.78 150.12 54.27 149.75 45.77 165.53 20.25 182.53 16.75 199.53 13.25 217.9 13.87 225.46 30.13 233.02 46.39 227.78 54.78 227.78 54.78" stroke-width="0" fill="#932C11"/><path d="M215.71 84.67C216.58 85.43 217.52 85.92 218.45 86.21 220.15 86.75 221.83 86.66 223.05 86.45 223.07 86.22 223.09 86 223.11 85.78 223.15 85.26 223.18 84.75 223.19 84.24 223.26 84.22 223.33 84.19 223.4 84.17 223.09 84.25 222.7 84.32 222.26 84.38 221.67 84.46 221 84.49 220.28 84.4 219.23 84.27 218.12 83.9 217.14 83.05 216.69 82.66 216.01 82.71 215.62 83.16 215.23 83.61 215.27 84.29 215.72 84.68" stroke-width="0" fill="#EA745F"/><path d="M223.74 76.47C224.13 76.27 224.38 75.84 224.32 75.38 223.37 67.79 230.91 61.93 230.98 61.87 231.45 61.51 231.54 60.83 231.18 60.36 230.82 59.88 230.14 59.8 229.67 60.15 229.32 60.42 221.07 66.81 222.17 75.65 222.24 76.24 222.78 76.66 223.37 76.59 223.5 76.57 223.62 76.53 223.73 76.48" stroke-width="0" fill="#EA745F"/><path d="M231.37 69.59C231.49 69.53 231.6 69.44 231.69 69.33 232.08 68.88 232.02 68.2 231.57 67.81 231.45 67.71 228.5 65.24 224.38 66.75 223.82 66.96 223.54 67.58 223.74 68.13 223.95 68.69 224.57 68.98 225.12 68.77 228.06 67.69 230.14 69.42 230.16 69.44 230.5 69.73 230.98 69.77 231.36 69.58" stroke-width="0" fill="#EA745F"/><path d="M179.04 90.25C179.27 90.13 179.46 89.93 179.56 89.66 179.77 89.1 179.48 88.48 178.92 88.28L172.15 85.79 176.66 82.82C176.92 82.65 177.1 82.37 177.14 82.05L178.86 68.41C178.94 67.82 178.52 67.28 177.93 67.21 177.34 67.13 176.8 67.55 176.73 68.14L175.07 81.29 169.19 85.16C168.85 85.39 168.66 85.78 168.71 86.19 168.76 86.59 169.03 86.94 169.41 87.08L178.19 90.3C178.49 90.41 178.8 90.38 179.06 90.25" stroke-width="0" fill="#EA745F"/><path d="M183.4 73.88C184.09 75.8 185.45 77.06 186.45 76.71 187.45 76.35 187.7 74.51 187.01 72.59 186.32 70.67 184.96 69.41 183.96 69.76 182.96 70.12 182.71 71.96 183.4 73.88" stroke-width="0" fill="#4A1609"/><path d="M191.11 70.66C191.21 70.61 191.29 70.53 191.35 70.42 191.48 70.15 191.38 69.83 191.11 69.7 190.89 69.59 185.61 67 181.76 70.59 181.54 70.79 181.53 71.13 181.74 71.35 181.95 71.57 182.28 71.58 182.5 71.38 185.81 68.29 190.57 70.64 190.62 70.66 190.78 70.74 190.96 70.73 191.11 70.66" stroke-width="0" fill="#4A1609"/><path d="M172.6 158.6C159.74 154.01 145.59 160.71 141 173.57L140.7 174.41 139.58 177.55 138.34 180.96C137.48 183.24 136.64 185.55 135.75 187.84 133.96 192.42 132.15 197 130.24 201.53 129.28 203.79 128.31 206.04 127.32 208.28 126.34 210.52 125.35 212.75 124.32 214.96 122.3 219.39 120.13 223.71 117.97 227.99 115.79 232.25 113.52 236.41 111.16 240.44 109.97 242.44 108.77 244.42 107.55 246.35 106.34 248.29 105.1 250.18 103.84 252.02 101.32 255.69 98.71 259.16 96.02 262.26 95.36 263.06 94.67 263.78 94.01 264.53L93 265.6 92.5 266.14 92.49 266.14C92.43 265.82 92.38 265.5 92.32 265.16 90.84 255.81 89.77 245.85 88.8 235.82 88.36 230.8 87.88 225.75 87.49 220.67L86.26 205.6 86.22 205.13C86.14 204.11 85.97 199.4 85.74 198.42L46.63 198.42C46.44 199.23 46.28 203.77 46.19 204.61L45.96 206.74 45.76 208.79C45.63 210.15 45.5 211.51 45.39 212.86 45.17 215.57 44.96 218.27 44.79 220.98 44.48 226.39 44.19 231.82 44.09 237.27 43.82 248.2 43.94 259.18 44.84 270.66 45.31 276.42 45.98 282.28 47.18 288.66 47.82 291.87 48.57 295.19 49.77 298.96 50.1 299.94 50.39 300.85 50.8 301.91 51 302.43 51.18 302.92 51.4 303.46L52.11 305.11C53.16 307.39 54.4 309.87 56.57 312.88 57.18 313.69 57.82 314.49 58.48 315.27 58.56 315.36 58.65 315.47 58.76 315.58L59.07 315.91 59.7 316.57C60.12 317 60.55 317.43 60.99 317.85L61.15 318.01 61.35 318.19 61.76 318.54 62.59 319.23C63.15 319.68 63.72 320.12 64.3 320.55 64.99 321.02 65.7 321.48 66.43 321.91 66.79 322.13 67.16 322.33 67.53 322.54L68.09 322.84C68.28 322.94 68.51 323.05 68.72 323.15 69.59 323.55 70.47 323.93 71.36 324.27 71.81 324.44 72.26 324.6 72.71 324.75 73.19 324.9 73.69 325.03 74.18 325.16 75.17 325.41 76.18 325.62 77.18 325.79 78.18 325.96 79.19 326.03 80.2 326.08 81.2 326.13 82.26 326.14 83.21 326.09 84.14 326.03 85.07 325.93 86 325.8 86.46 325.74 86.92 325.66 87.38 325.58L87.92 325.48 88.11 325.44 88.9 325.26C93.12 324.36 97.1 323.01 100.81 321.43 108.26 318.27 114.56 314.15 120.04 309.79 122.77 307.6 125.35 305.34 127.73 303.03L128.63 302.16 129.5 301.29C130.08 300.71 130.66 300.13 131.22 299.53 132.32 298.35 133.44 297.17 134.48 295.97 138.72 291.2 142.48 286.33 145.97 281.41 152.95 271.59 158.64 261.49 163.83 251.35 166.42 246.28 168.79 241.15 171.06 236.02 173.34 230.89 175.48 225.73 177.47 220.52 179.47 215.32 181.38 210.1 183.14 204.82 184.02 202.18 184.9 199.53 185.71 196.84L186.92 192.78 187.52 190.7 188.15 188.41C191.5 176.07 184.87 162.95 172.62 158.58M97.04 284.2C97.04 284.2 96.98 284.1 96.95 284.06 96.91 284 96.86 283.88 96.81 283.79 96.77 283.73 96.73 283.63 96.69 283.53 97.09 284.13 97.1 284.28 97.04 284.2" stroke-width="0" fill="#FFA500"/><path d="M157.05 260.15C157.18 260.17 157.31 260.17 157.45 260.15 158.27 260.04 158.85 259.27 158.74 258.45 158.66 257.89 151.07 202.8 147.7 187.28 147.52 186.47 146.72 185.95 145.9 186.13 145.09 186.31 144.57 187.11 144.75 187.92 148.09 203.33 155.67 258.3 155.75 258.86 155.84 259.55 156.39 260.07 157.05 260.15" stroke-width="0" fill="#BF7C00"/><path d="M66.47 224.86C64.63 224.7 62.73 224.38 60.78 223.92 52.71 222 46.65 218.26 46.4 218.1 45.75 217.69 45.55 216.84 45.96 216.19 46.37 215.54 47.22 215.34 47.87 215.74 48.1 215.89 71.24 230.02 85.57 215.98 86.12 215.44 87 215.45 87.53 216 88.07 216.55 88.06 217.43 87.51 217.96 82.08 223.28 74.88 225.62 66.47 224.85" stroke-width="0" fill="#BF7C00"/><path d="M100.25 288.88C99.5 288.81 98.94 288.16 98.99 287.41 99.58 277.99 92.78 267.55 92.71 267.44 92.29 266.8 92.47 265.94 93.11 265.52 93.75 265.1 94.61 265.28 95.03 265.92 95.33 266.38 102.4 277.25 101.76 287.58 101.71 288.35 101.05 288.93 100.29 288.88 100.28 288.88 100.26 288.88 100.25 288.88" stroke-width="0" fill="#BF7C00"/><path d="M109.9 277.76C109.54 277.73 109.2 277.56 108.95 277.26 108.9 277.21 104.32 271.79 95.06 270.43 94.3 270.32 93.78 269.61 93.89 268.85 94 268.09 94.7 267.57 95.47 267.68 105.85 269.2 110.9 275.24 111.1 275.5 111.58 276.09 111.5 276.97 110.9 277.46 110.61 277.7 110.25 277.8 109.9 277.77" stroke-width="0" fill="#BF7C00"/><path d="M193.03 336.19 122.83 205.83 206.19 159.78 282.14 287.33 193.03 336.19Z" stroke-width="0" fill="#FFEDCC"/><path d="M214.85 255.64C210.34 263.97 200.01 267.02 191.78 262.45 183.55 257.88 180.54 247.42 185.05 239.09 189.56 230.76 199.89 227.71 208.12 232.28 216.35 236.85 219.36 247.31 214.85 255.64" stroke-width="0" fill="#FFFFFF"/><path d="M278.93 221.57C279.37 221.65 279.95 221.77 280.48 221.88L282.11 222.23 285.4 222.93C287.59 223.41 289.8 223.88 292 224.32 296.4 225.24 300.79 226.13 305.16 226.97 313.89 228.64 322.56 230.12 330.91 231.09 333 231.33 335.06 231.56 337.08 231.71 339.1 231.87 341.09 231.98 343.01 232.06 344.93 232.13 346.79 232.14 348.54 232.06 350.28 232 351.91 231.88 353.31 231.67 354.7 231.47 355.86 231.16 356.53 230.91 356.82 230.77 357.06 230.66 357.03 230.6 357.02 230.58 357.06 230.58 357.01 230.57 356.97 230.57 356.93 230.57 356.9 230.57 356.89 230.57 356.76 230.59 356.71 230.62 356.67 230.63 356.64 230.64 356.6 230.66L356.48 230.72 356.26 230.84C355.71 231.15 354.96 231.63 354.22 232.27 353.47 232.91 352.65 233.76 351.95 234.74 351.23 235.72 350.62 236.82 350.18 237.89 349.73 238.97 349.46 239.95 349.3 240.83 349.13 241.68 349.07 242.39 349.06 242.95 349.03 243.48 349.06 243.92 349.06 244.18 349.09 244.75 349.12 244.88 349.02 244.78 348.85 244.57 348.36 243.6 347.65 242.48 346.93 241.34 346.01 240.01 344.96 238.62 342.86 235.83 340.34 232.79 337.62 229.78 334.9 226.75 332.01 223.68 329 220.64 326.02 217.57 322.89 214.55 319.75 211.5 313.42 205.43 306.89 199.38 300.27 193.38L290.3 184.39 280.45 175.56 280.18 175.32C270.35 166.52 269.52 151.41 278.32 141.58 286.63 132.3 300.64 131.1 310.44 138.39L311.99 139.55 313.45 140.67 316.32 142.9C318.22 144.39 320.08 145.91 321.94 147.42 323.8 148.93 325.65 150.46 327.48 152.02 329.32 153.57 331.13 155.14 332.94 156.72 340.17 163.06 347.25 169.62 354.15 176.57 361.06 183.52 367.79 190.78 374.32 198.88 377.57 202.97 380.8 207.23 383.92 212.1 385.48 214.54 387.03 217.15 388.54 220.07 390.05 223.02 391.56 226.26 392.84 230.46 393.48 232.56 394.06 234.95 394.42 237.82 394.6 239.23 394.71 240.83 394.7 242.51 394.69 244.23 394.55 246.1 394.21 248.1 393.85 250.12 393.29 252.24 392.42 254.4 391.55 256.55 390.4 258.68 389.02 260.61 387.64 262.53 386.07 264.26 384.45 265.67 382.85 267.08 381.17 268.26 379.62 269.16L379.02 269.5 378.74 269.66 378.52 269.77 377.64 270.22C377.06 270.5 376.44 270.82 375.89 271.05L374.19 271.76C373.61 272 373.1 272.16 372.55 272.36 370.36 273.13 368.35 273.62 366.39 274.03 362.54 274.8 359.07 275.05 355.84 275.12 349.38 275.24 343.75 274.58 338.36 273.7 332.99 272.82 327.92 271.61 323 270.28 313.16 267.58 303.9 264.23 294.89 260.49 290.39 258.62 285.96 256.63 281.58 254.54 279.4 253.48 277.23 252.39 275.06 251.29 273.98 250.74 272.9 250.15 271.83 249.58L270.21 248.7 268.52 247.76C261.67 243.94 259.21 235.3 263.03 228.45 266.04 223.04 272.08 220.37 277.85 221.37L278.91 221.56Z" stroke-width="0" fill="#FFA500"/><path d="M282.84 227.28C282.09 224.51 277.53 222.5 274.84 219.84 271.29 216.34 264.87 212.18 260.64 210.78 254.29 208.69 235.24 203.54 230.39 206.26 225.55 208.98 241.63 214.69 244.91 215.93 248.19 217.17 249.95 219.22 249.95 219.22 249.95 219.22 212.03 208.97 208.43 211.56 204.83 214.15 225.82 222.14 231.03 224.08 231.03 224.08 202.02 217.95 200.26 220.31 196.72 225.05 228.72 232.79 228.72 232.79 228.72 232.79 204.06 228.87 203.53 232.95 202.97 237.26 229.4 241.39 229.4 241.39 229.4 241.39 212.95 241.18 210.89 244.49 208.83 247.79 243.34 250.89 248.7 250.73 254.06 250.57 267.05 254.54 273.92 253.14 278.59 252.19 285.22 236.03 282.84 227.27" stroke-width="0" fill="#FF9782"/><path d="M319.81 212.22C319.41 212.49 318.87 212.5 318.45 212.22 318.16 212.02 288.99 191.87 276.72 181.89 276.21 181.47 276.13 180.71 276.55 180.2 276.97 179.69 277.73 179.61 278.24 180.03 290.44 189.95 319.53 210.05 319.82 210.25 320.37 210.63 320.5 211.38 320.13 211.92 320.04 212.05 319.94 212.15 319.81 212.23" stroke-width="0" fill="#BF7C00"/><path d="M289.81 191.43C289.61 191.56 289.38 191.64 289.13 191.64L278.3 191.53C277.64 191.53 277.1 190.98 277.11 190.32 277.11 189.66 277.66 189.12 278.32 189.13L289.15 189.24C289.81 189.24 290.35 189.79 290.34 190.45 290.34 190.86 290.13 191.22 289.81 191.43" stroke-width="0" fill="#BF7C00"/><path d="M363.43 233.44C363.13 233.61 362.75 233.64 362.41 233.49 354.66 230.05 341.82 232.21 341.69 232.23 341.07 232.34 340.48 231.92 340.38 231.3 340.27 230.68 340.69 230.09 341.31 229.99 341.87 229.89 354.96 227.69 363.34 231.41 363.91 231.66 364.17 232.34 363.92 232.91 363.82 233.14 363.65 233.32 363.44 233.44" stroke-width="0" fill="#BF7C00"/><path d="M349.65 231.41C349.28 231.62 348.8 231.61 348.43 231.35 347.92 230.99 347.79 230.28 348.16 229.76 353.32 222.47 359.67 222.53 359.94 222.53 360.57 222.54 361.06 223.07 361.05 223.69 361.04 224.32 360.52 224.81 359.89 224.8 359.67 224.8 354.43 224.82 350.01 231.07 349.91 231.21 349.78 231.32 349.64 231.4" stroke-width="0" fill="#BF7C00"/></g></g></g></g></svg>