<svg viewBox="0 0 185 185" xmlns="http://www.w3.org/2000/svg" xmlns:xlink="http://www.w3.org/1999/xlink" id="Layer_1" overflow="hidden"><defs></defs><circle cx="92.5" cy="92.5" r="92.5" stroke-width="0" fill="#00A99C"/><g><path d="M141.98 137.63 83.63 137.63C83.63 136.24 83.65 134.91 83.63 133.58 83.6 131.75 82.83 130.89 81.01 130.6 78.95 130.27 78.19 129.41 78.18 127.33 78.17 123.64 78.18 119.95 78.19 116.26 78.21 112.79 79.57 109.94 82.58 108.19 86.42 105.97 90.41 103.98 94.33 101.9 95.26 101.41 95.93 101.48 96.79 102.33 105.86 111.26 119.92 111.19 128.94 102.19 129.67 101.47 130.24 101.34 131.17 101.7 135.57 103.41 139.69 105.61 143.49 108.43 146.1 110.36 147.42 112.95 147.43 116.19 147.45 119.93 147.43 123.67 147.42 127.4 147.42 129.38 146.62 130.28 144.67 130.59 142.77 130.9 142 131.77 141.98 133.66 141.97 134.94 141.98 136.22 141.98 137.62Z" stroke-width="0" fill="#FFFFFF"/><path d="M92.53 75.46C89.04 82.64 89.17 89.61 92.31 96.28 87.18 99.15 82.14 101.97 76.87 104.92 76.22 104.14 75.28 103.02 74.35 101.9 72.64 99.84 70.95 97.75 69.21 95.71 66.27 92.25 61.5 92.26 58.6 95.74 55.04 100.01 51.5 104.29 47.96 108.57 47.93 108.61 47.89 108.64 47.87 108.68 46.99 110.89 45.21 110.91 43.04 110.5 43.04 109.31 43.04 108.04 43.04 106.77 43.02 104.67 42.29 103.83 40.22 103.51 38.45 103.24 37.6 102.32 37.59 100.52 37.57 96.59 37.55 92.66 37.61 88.73 37.66 85.66 39 83.19 41.52 81.41 45.45 78.64 49.67 76.4 54.15 74.65 54.85 74.37 55.29 74.41 55.89 75 65.28 84.25 79.08 84.26 88.46 75.02 89.12 74.37 89.66 74.23 90.46 74.62 91.09 74.93 91.77 75.15 92.55 75.45Z" stroke-width="0" fill="#FFFFFF"/><path d="M112.86 68.84C122.57 68.9 130.2 76.68 130.13 86.45 130.06 95.76 122.09 103.48 112.63 103.4 103.21 103.32 95.5 95.51 95.51 86.05 95.52 76.54 103.35 68.78 112.87 68.83Z" stroke-width="0" fill="#FFFFFF"/><path d="M72.24 41.8C81.94 41.82 89.48 49.53 89.48 59.41 89.48 68.56 81.55 76.37 72.29 76.36 62.61 76.36 54.84 68.54 54.88 58.86 54.92 49.45 62.73 41.78 72.24 41.8Z" stroke-width="0" fill="#FFFFFF"/><path d="M70.52 114.07C69.81 122.27 72.16 134.83 82.14 140.01 84.98 141.48 88.18 142.23 90.69 143.13 86.9 143.38 82.51 142.96 78.19 141.82 65.27 138.42 58.15 129.43 57.44 115.69 57.42 115.22 57.39 114.74 57.35 114.08 56.03 114.08 54.76 114.14 53.49 114.05 52.94 114.01 52.25 113.79 51.94 113.39 51.76 113.17 52.1 112.33 52.42 111.95 55.82 107.8 59.25 103.67 62.68 99.55 63.62 98.42 64.25 98.42 65.22 99.59 68.69 103.75 72.15 107.91 75.58 112.1 75.86 112.44 76.08 113.14 75.92 113.46 75.74 113.8 75.08 114.02 74.62 114.05 73.29 114.13 71.95 114.08 70.53 114.08Z" stroke-width="0" fill="#FFFFFF"/></g></svg>