<svg viewBox="0 0 415.7 371.24" xmlns="http://www.w3.org/2000/svg" xmlns:xlink="http://www.w3.org/1999/xlink" overflow="hidden"><defs><clipPath id="clippath"><rect x="81.54" y="9.41" width="130.86" height="241.23" stroke-width="0" fill="none"/></clipPath><clipPath id="clippath-1"><rect x="181.21" y="133.02" width="38.71" height="32.83" stroke-width="0" fill="none"/></clipPath><clipPath id="clippath-2"><rect x="168.36" y="10.22" width="77.08" height="80.67" stroke-width="0" fill="none"/></clipPath><clipPath id="clippath-3"><rect x="233.04" y="100.04" width="19.49" height="24.14" stroke-width="0" fill="none"/></clipPath></defs><g><g id="Layer_1"><g><path d="M58.01 212.56C51.7 201.35 50.51 188.1 48.9 175.33 47.3 162.57 44.87 149.23 36.75 139.26 35.59 137.84 33.26 136.65 31.56 137.88 29.54 139.33 30.85 141.79 31.42 143.69 32.79 148.24 35.61 152.19 37.05 156.71 38.5 161.25 35.81 163.99 34.83 168.4 32.93 176.98 34.28 185.83 36.46 194.21 38.62 202.54 39.64 210.59 40.69 219.16" stroke-width="0" fill="#FB8F61"/><path d="M18.86 223.78C9.12 203.77 1.58 180.04 4.97 157.64 6.57 147.06 8.44 137 17.59 130.25 18.05 129.92 18.65 129.58 19.14 129.86 19.68 130.17 19.63 130.95 19.51 131.55 17.08 143.43 12.29 154.05 12.12 166.48 13.76 156.47 15.8 145.7 23.19 138.75 23.95 138.04 24.91 137.33 25.94 137.49 27.94 137.81 28 140.68 27.44 142.63 24.05 154.31 17.25 165.63 18.7 177.71 20.52 169.13 24.31 160.97 29.7 154.04 30.39 153.15 31.34 152.2 32.44 152.41 33.97 152.7 34.18 154.8 33.89 156.33 32.71 162.62 28.91 168.21 29.08 174.79 29.25 181.54 34.22 186.36 37.57 192.09 43.14 201.64 43.21 212.7 40.54 223.05" stroke-width="0" fill="#FB8F61"/><path d="M156.45 249.54C159.55 238.68 167.11 229.53 176 222.57 184.88 215.61 195.11 210.58 205.24 205.62 209.52 228.13 225.52 247.9 246.32 257.52 267.12 267.14 292.14 266.67 312.93 257.04 318.1 254.64 323.3 251.43 325.84 246.32 328.47 241.04 327.57 234.2 323.67 229.78 320.82 226.55 316.39 224.21 315.61 219.97 315.06 217.01 316.54 214.1 317.51 211.25 322.91 195.41 311.45 184.75 303.67 172.56 300.57 167.71 298.46 161.67 300.29 156.21 301.48 152.67 304.18 149.84 305.77 146.46 308.66 140.33 307.56 132.83 304.1 127 300.64 121.17 295.08 116.85 289.14 113.58 285.85 111.77 282.25 110.11 280.17 106.98 276.6 101.61 278.93 94.49 280.94 88.37 283.56 80.41 285.46 71.86 283.61 63.69 281.57 54.7 276.01 51.05 268.41 47.39 261.53 44.08 259.84 36.19 257.59 29.51 253.12 16.21 236.74 6.59 223.2 6 215.48 5.67 207.68 6.86 200.05 5.65 194.02 4.7 188.32 2.28 182.39 0.86 172.82-1.43 160.78 1.11 151.67 4.65 142.76 8.12 134.67 14.47 130.93 23.47 127.8 30.99 128.73 41.42 123.36 47.69 117.69 54.32 108.35 56.81 101.84 62.43 96.05 67.44 92.48 74.77 91.44 82.35 90.4 89.94 91.8 97.75 94.77 104.8 96.06 107.87 97.66 110.83 98.5 114.05 99.34 117.27 99.34 120.9 97.58 123.72 94.56 128.55 87.95 129.22 82.86 131.78 78 134.22 74.25 138.79 72.81 144.03 71.36 149.27 72.24 155.12 75.16 159.71 77.48 163.36 81.21 167 80.24 171.22 79.65 173.79 77.36 175.65 74.94 176.68 72.51 177.71 69.87 178.1 67.36 178.92 50.14 184.53 48.15 204.7 53.95 219.15 60.21 234.74 73.39 247.67 89.5 252.78 111.15 259.65 136.66 251.91 150.85 234.18 157.99 225.26 163.23 213.52 173.97 209.61 180.48 207.24 187.67 208.36 194.6 208.22 201.53 208.08 209.34 206 212.53 199.85" stroke-width="0" fill="#004254"/><g opacity="0.33"><g clip-path="url(#clippath)"><path d="M181.07 10.25C163.36 6.24 143.51 16.9 137.06 33.87 134.08 41.72 133.59 50.74 128.45 57.37 123.23 64.09 114.08 67.13 109.59 74.36 105.42 81.08 106.35 89.83 108.98 97.29 111.6 104.75 115.75 111.67 117.8 119.31 119.78 126.69 119.35 134.74 114.48 140.89 109.79 146.81 102.18 148.38 101.81 157.21 101.58 162.65 103.73 167.86 105.16 173.11 106.59 178.36 107.22 184.35 104.28 188.93 101.75 192.86 97.19 194.87 93.42 197.64 85.29 203.62 80.66 214.05 81.67 224.09 82.68 234.13 89.29 243.43 98.45 247.67 110.94 253.46 125.68 249.81 138.51 244.81 146.79 241.59 154.93 237.8 163.58 235.66 171.98 233.59 178.27 235.26 185.19 229.76 197.17 220.25 209.28 206.97 208.81 190.65 208.42 177.07 199.1 164.16 201.87 150.86 204.2 139.69 214.82 129.85 211.87 118.83" stroke-width="0" fill="#2C2A5B"/></g></g><path d="M328.02 207.48C330.11 198.49 332.71 189.62 335.81 180.92 338.35 173.79 342.61 167.48 349.14 163.28 352.46 161.15 357.9 160.27 361.68 159.29 367.56 157.76 373.6 156.96 379.61 156.16 381.17 155.95 383.5 156.54 383.08 158.06 382.88 158.78 382.09 159.14 381.38 159.41 375.15 161.75 369.46 164.58 363.02 166.66 375.19 168.63 389.03 168.84 401.04 166 402.91 165.56 404.79 165.18 406.68 164.83 408.11 164.57 410.05 163.64 411.42 163.57 415.87 163.37 413.34 168.06 411.11 169.4 405.75 172.62 398.53 173.46 392.44 174.58 385.67 175.82 378.82 176.67 371.94 177.1 378.07 179.47 384.82 179.8 391.36 179.14 397.9 178.48 404.29 176.86 410.7 175.43 411.72 175.2 412.79 174.98 413.81 175.23 414.83 175.48 415.77 176.36 415.72 177.41 415.68 178.27 415.03 178.97 414.38 179.53 409.45 183.79 402.91 184.81 396.91 186.79 389.87 189.11 382.39 189.61 375 190.1 385.4 191.9 395.46 190.56 405.86 190.61 411.66 190.63 406.79 195.32 404.65 196.77 399.37 200.35 392.53 200.59 386.35 200.86 382.23 201.04 374.84 201.31 373.01 205.95 370.13 213.24 367.44 220.62 364.65 227.95" stroke-width="0" fill="#FB8F61"/><path d="M208.91 180.22C217.86 178.49 225.76 172.67 230.63 164.99 229.34 164.8 228.03 164.65 226.71 164.58 223.17 164.38 220.32 161.59 219.92 158.07L217.06 133.01 181.21 144.5 182.57 160.8C182.88 164.48 180.43 167.72 176.98 168.56 176.98 168.56 176.98 168.56 176.98 168.56 184.58 177.64 197.22 182.47 208.9 180.21" stroke-width="0" fill="#FB8F61"/><path d="M323.07 180.96 302.96 242.16C302.96 242.16 273.66 171.46 230.64 165 225.77 172.68 217.87 178.49 208.92 180.23 197.24 182.49 184.6 177.66 177 168.58 176.51 168.7 176 168.77 175.48 168.79 164.83 169.18 145.48 172.28 131.61 188.31 111.53 211.52 84.36 238 84.36 238L62.51 204.28 0 227.03C0 227.03 36.15 306.6 61.64 306.09 87.14 305.58 128.47 275.71 128.47 275.71L137.42 291.12C137.42 291.12 119.98 304.96 107.06 350.52 107.06 350.52 188.36 396.22 268.25 351.9L252.09 306.38C252.09 306.38 257.94 291.96 260.4 282.23 260.4 282.23 290.65 336.62 313.14 338.85 335.64 341.07 388.57 222.02 388.57 222.02L323.07 180.96Z" stroke-width="0" fill="#FFA500"/><path d="M205.99 191.12C214.78 190.07 222.91 185.34 228.91 178.84 232.29 175.18 235.01 170.98 237.19 166.5 235.04 165.84 232.86 165.33 230.63 164.99 225.76 172.67 217.86 178.48 208.91 180.22 197.23 182.48 184.59 177.65 176.99 168.57 176.5 168.69 175.99 168.76 175.47 168.78 174.29 168.82 172.99 168.9 171.61 169.03 173.64 175.26 177.57 180.87 182.79 184.83 189.34 189.79 197.83 192.09 205.99 191.12" stroke-width="0" fill="#BF7C00"/><path d="M98.16 259.06C98.57 258.88 95.58 251.59 90.24 243.52 84.93 235.43 79.41 229.81 79.08 230.12 78.7 230.45 83.56 236.5 88.79 244.47 94.06 252.42 97.7 259.27 98.16 259.05" stroke-width="0" fill="#BF7C00"/><path d="M101.16 242.54C101.41 242.16 98.35 239.88 93.86 238.75 89.38 237.6 85.6 238.15 85.64 238.61 85.65 239.11 89.23 239.35 93.43 240.43 97.65 241.48 100.91 242.97 101.15 242.54" stroke-width="0" fill="#BF7C00"/><path d="M294.18 278.58C294.67 278.66 296.48 268.91 299.33 257.05 302.15 245.18 304.94 235.67 304.47 235.52 304.04 235.37 300.49 244.7 297.65 256.65 294.78 268.6 293.73 278.52 294.18 278.58" stroke-width="0" fill="#BF7C00"/><path d="M289.14 260.57C289.56 260.84 291.58 258.32 294.44 255.62 297.27 252.9 299.89 251 299.64 250.57 299.43 250.16 296.26 251.48 293.24 254.36 290.21 257.23 288.74 260.33 289.14 260.57" stroke-width="0" fill="#BF7C00"/><path d="M355.16 220.84C341.26 209.29 328.79 198.7 319.76 191.02L319.34 192.29C328.14 200.17 340.34 210.77 354.05 222.17 363.05 229.65 371.6 236.54 379.06 242.44 379.29 241.97 379.51 241.5 379.73 241.04 372.43 235.09 364.04 228.21 355.16 220.84" stroke-width="0" fill="#BF7C00"/><path d="M66.31 210.17C56.77 214.57 44.96 220.09 32.19 226.14 22.61 230.68 13.61 234.98 5.72 238.79 5.94 239.24 6.18 239.69 6.41 240.16 14.34 236.47 23.37 232.24 32.93 227.71 45.78 221.62 57.6 215.95 67.07 211.35L66.31 210.18Z" stroke-width="0" fill="#BF7C00"/><path d="M259.79 283.86C259.79 283.86 265.37 249.43 262.78 244.59 260.2 239.76 242.36 226.85 242.36 226.85 242.36 226.85 246.17 190.67 245.4 169.82 241.51 167.87 237.47 166.38 233.29 165.49 232.59 179.36 230.62 206.47 225.58 219.95L158.07 211.64C158.07 211.64 168.19 182.67 173.69 168.87 170.38 169.07 166.42 169.54 162.13 170.52 156.03 178.89 147.2 192.68 142.83 207.47 142.83 207.47 113.56 236.6 128.66 276.04L137.42 291.12C137.42 291.12 119.98 304.96 107.06 350.52 107.06 350.52 188.36 396.22 268.25 351.9L252.09 306.38C252.09 306.38 258.84 292.68 260.4 282.23L259.79 283.86Z" stroke-width="0" fill="#C16800"/><path d="M155.8 207.62C147.51 207.62 140.76 200.87 140.76 192.58 140.76 184.29 147.51 177.54 155.8 177.54 164.09 177.54 170.84 184.29 170.84 192.58 170.84 200.87 164.09 207.62 155.8 207.62M155.8 181.55C149.71 181.55 144.76 186.5 144.76 192.59 144.76 198.68 149.71 203.63 155.8 203.63 161.89 203.63 166.84 198.68 166.84 192.59 166.84 186.5 161.89 181.55 155.8 181.55" stroke-width="0" fill="#914E00"/><path d="M237.66 214.15C229.37 214.15 222.62 207.4 222.62 199.11 222.62 190.82 229.37 184.07 237.66 184.07 245.95 184.07 252.7 190.82 252.7 199.11 252.7 207.4 245.95 214.15 237.66 214.15M237.66 188.07C231.57 188.07 226.62 193.02 226.62 199.11 226.62 205.2 231.57 210.15 237.66 210.15 243.75 210.15 248.7 205.2 248.7 199.11 248.7 193.02 243.75 188.07 237.66 188.07" stroke-width="0" fill="#914E00"/><path d="M153.65 227.9 150.31 254.33C148.64 267.54 158 279.6 171.21 281.27L193.53 284.09C206.74 285.76 218.8 276.4 220.47 263.19L223.81 236.76 153.66 227.91Z" stroke-width="0" fill="#914E00"/><path d="M257.83 353.71 257.11 351.83 258.14 351.44 258.86 353.32 257.83 353.71ZM256.39 349.94 255.69 348.05 256.72 347.67 257.42 349.56 256.39 349.94ZM254.99 346.16 254.29 344.27 255.32 343.89 256.02 345.78 254.99 346.16ZM253.6 342.38 252.91 340.49 253.94 340.11 254.64 342 253.61 342.38ZM252.21 338.6 251.51 336.71 252.54 336.33 253.24 338.22 252.21 338.6ZM250.82 334.82 250.12 332.93 251.15 332.55 251.85 334.44 250.82 334.82ZM249.43 331.04 248.73 329.15 249.76 328.77 250.46 330.66 249.43 331.04ZM248.04 327.26 247.34 325.37 248.37 324.99 249.07 326.88 248.04 327.26ZM246.65 323.48 245.95 321.59 246.98 321.21 247.68 323.1 246.65 323.48ZM245.26 319.69C245.04 319.05 244.83 318.39 244.65 317.73L245.71 317.44C245.88 318.08 246.08 318.71 246.3 319.33L245.26 319.69ZM244.18 315.73C244.04 315.06 243.93 314.38 243.84 313.71L244.93 313.56C245.02 314.21 245.13 314.86 245.26 315.51L244.18 315.73ZM243.62 311.67C243.57 310.99 243.54 310.31 243.52 309.63L244.62 309.61C244.63 310.27 244.66 310.93 244.71 311.59L243.61 311.67ZM244.64 307.62 243.54 307.59C243.56 306.91 243.6 306.23 243.65 305.55L244.75 305.63C244.7 306.29 244.66 306.96 244.64 307.62M244.94 303.65 243.85 303.52C243.93 302.85 244.02 302.17 244.12 301.5L245.21 301.66C245.11 302.32 245.02 302.98 244.94 303.64M245.53 299.69 244.45 299.5C244.57 298.84 244.69 298.17 244.83 297.51L245.91 297.72C245.78 298.38 245.65 299.03 245.54 299.69M246.32 295.75 245.25 295.52C245.39 294.86 245.54 294.2 245.69 293.55L246.76 293.79C246.61 294.44 246.47 295.1 246.32 295.75M247.21 291.83 246.14 291.58 246.6 289.62 247.67 289.87 247.21 291.83ZM248.12 287.9 247.05 287.65 247.5 285.69 248.57 285.94 248.12 287.9ZM249.03 283.98 247.96 283.72C248.12 283.07 248.28 282.41 248.44 281.76L249.51 282.02C249.35 282.67 249.19 283.32 249.03 283.98M250 280.07 248.93 279.8C249.1 279.15 249.27 278.5 249.44 277.85L250.5 278.13C250.33 278.78 250.16 279.43 250 280.08M251.02 276.19 249.96 275.9 250.48 273.95 251.54 274.24 251.02 276.19ZM252.07 272.3 251.01 272.01 251.55 270.07 252.61 270.36 252.07 272.3ZM253.15 268.42 252.09 268.12 252.63 266.18 253.69 266.47 253.15 268.41ZM254.23 264.54 253.17 264.25 253.71 262.31 254.77 262.6 254.23 264.54ZM255.3 260.65 254.24 260.37C254.41 259.72 254.58 259.07 254.74 258.43L255.81 258.7C255.65 259.35 255.48 260.01 255.31 260.66M256.29 256.73 255.22 256.48C255.37 255.83 255.52 255.18 255.67 254.52L256.74 254.76C256.59 255.42 256.45 256.08 256.29 256.73M257.16 252.78 256.08 252.56C256.21 251.91 256.34 251.25 256.47 250.59L257.55 250.8C257.42 251.46 257.29 252.13 257.16 252.78M257.92 248.81 256.84 248.62C256.96 247.96 257.07 247.3 257.18 246.64L258.27 246.82C258.16 247.49 258.05 248.15 257.93 248.82M258.58 244.83 257.49 244.67C257.59 244.01 257.68 243.35 257.77 242.68L258.86 242.82C258.77 243.49 258.68 244.16 258.58 244.82" stroke-width="0" fill="#BC9311"/><g opacity="0.21"><g clip-path="url(#clippath-1)"><path d="M217.06 133.02 181.21 144.51 182.57 160.81C182.72 162.57 182.23 164.23 181.31 165.57 187.59 166.17 193.99 165.77 200.18 164.56 207 163.22 213.59 160.94 219.93 158.06L217.07 133.01Z" stroke-width="0" fill="#FB8F61"/></g></g><path d="M135.09 70.24C129.42 70.5 125.1 75.65 123.19 81 121.01 87.09 121.18 93.91 123.33 99.98 125.15 105.15 127.95 111.6 133.33 113.7" stroke-width="0" fill="#FB8F61"/><path d="M252.53 94.42C249.24 90.75 244.54 88.95 239.53 88.95L242.36 55.07C244.18 33.26 227.97 14.1 206.16 12.28L187.3 10.71C171.18 9.36 158.16 15.52 147.68 26.26 137.9 36.28 132.86 50.01 133.22 64L132.25 104.18C130.21 128.58 143.34 150.01 167.74 152.04L182.56 153.28C202.16 154.92 220.11 145.33 230.08 129.88 236.12 130.45 242.85 128.3 248.27 123.44 257.54 115.14 259.45 102.15 252.54 94.43" stroke-width="0" fill="#FB8F61"/><path d="M151.5 88.59C152.29 88.67 153.29 85.36 153.74 81.19 154.18 77.02 153.9 73.57 153.11 73.49 152.32 73.41 151.32 76.72 150.87 80.89 150.43 85.06 150.71 88.51 151.5 88.59" stroke-width="0" fill="#3F2418"/><path d="M198.94 91.53C199.74 91.57 200.53 88.39 200.91 84.45 201.29 80.51 201.13 77.24 200.33 77.12 199.55 77 198.42 80.15 198.03 84.17 197.64 88.2 198.14 91.5 198.94 91.53" stroke-width="0" fill="#3F2418"/><path d="M249.64 99.74C249.66 99.64 249.21 99.4 248.31 99.24 247.42 99.08 246.07 99.04 244.46 99.39 242.86 99.75 241.01 100.54 239.28 101.9 237.55 103.25 236.02 105.16 234.88 107.38 233.75 109.61 233.1 111.9 232.76 114 232.41 116.1 232.33 118 232.34 119.59 232.39 122.76 232.7 124.69 232.93 124.68 233.19 124.68 233.3 122.73 233.57 119.64 233.87 116.58 234.34 112.27 236.43 108.17 237.47 106.14 238.81 104.4 240.3 103.14 241.78 101.87 243.39 101.05 244.8 100.58 247.65 99.63 249.62 100.04 249.65 99.75" stroke-width="0" fill="#3F2418"/><path d="M240.72 120.54C240.87 120.69 241.8 120.13 242.67 118.65 243.54 117.21 244.22 114.76 243.59 112.13 242.95 109.51 241.22 107.64 239.79 106.76 238.34 105.85 237.26 105.77 237.19 105.97 237.09 106.21 237.96 106.7 239.03 107.73 240.11 108.74 241.38 110.41 241.9 112.54 242.41 114.67 242.05 116.74 241.55 118.13 241.06 119.54 240.52 120.37 240.71 120.54" stroke-width="0" fill="#3F2418"/><path d="M181.64 94.3C181.6 94.18 180.95 94.28 179.8 94.51 178.66 94.72 177 95.12 175.03 94.98 174.06 94.91 173.01 94.65 172.03 94.13 171.06 93.61 170.17 92.79 169.77 91.7 168.89 89.49 170 86.44 170.57 83.31 173.21 70.78 174.96 60.54 174.5 60.44 174.03 60.34 171.51 70.42 168.88 82.95 168.56 84.53 168.22 86.02 167.95 87.57 167.71 89.11 167.65 90.79 168.29 92.3 168.92 93.82 170.17 94.83 171.38 95.41 172.61 95.99 173.86 96.21 174.99 96.21 177.23 96.19 178.89 95.56 179.99 95.16 181.09 94.73 181.67 94.41 181.64 94.3" stroke-width="0" fill="#3F2418"/><path d="M166.82 50.26C165.99 49.23 161.09 51.96 154.71 53.94 148.36 56.01 142.78 56.61 142.7 57.92 142.67 58.54 144.12 59.21 146.59 59.47 149.04 59.73 152.51 59.47 156.11 58.34 159.71 57.19 162.69 55.4 164.54 53.77 166.41 52.14 167.2 50.75 166.82 50.26" stroke-width="0" fill="#3F2418"/><path d="M213.76 61.26C213.65 60.6 212.16 60.33 209.99 59.89 208.9 59.68 207.64 59.38 206.28 59.01 204.92 58.61 203.45 58.11 201.96 57.48 200.47 56.83 199.11 56.1 197.88 55.39 196.67 54.65 195.59 53.94 194.69 53.3 192.88 52.03 191.66 51.13 191.11 51.51 190.6 51.84 190.9 53.46 192.35 55.58 193.07 56.64 194.11 57.77 195.42 58.86 196.74 59.93 198.34 60.94 200.14 61.73 201.95 62.5 203.78 62.96 205.46 63.19 207.15 63.39 208.68 63.37 209.95 63.16 212.49 62.76 213.87 61.86 213.77 61.26" stroke-width="0" fill="#3F2418"/><path d="M191.3 111.26C188.7 104.63 181.39 101.04 174.49 103.2 169.7 104.7 166.33 108.6 165.26 113.16 173.96 112.97 182.63 112.08 191.3 111.26" stroke-width="0" fill="#FFFFFF"/><g opacity="0.21"><g clip-path="url(#clippath-2)"><path d="M173.34 10.22C169.37 15.71 167.64 22.76 168.63 29.46 169.62 36.16 173.3 42.42 178.68 46.53 185.6 51.82 195.09 53.66 200.68 60.34 204.46 64.86 205.82 70.88 208.44 76.16 211.99 83.31 218.46 89.4 226.33 90.68 234.21 91.96 243.13 87.28 245.03 79.53 246.75 72.53 242.72 65.4 237.91 60.03 233.1 54.66 227.26 50 224.07 43.54" stroke-width="0" fill="#7E4831"/></g></g><path d="M183.55 4.78C181.21 4.66 178.87 4.54 176.53 4.42 168.41 17.97 173.58 37.08 187.06 45.19 192.25 48.31 198.46 49.57 203.32 53.17 208.24 56.81 211.24 62.43 213.82 67.97 216.4 73.51 218.82 79.29 223 83.76 227.18 88.22 233.67 91.14 239.48 89.25 243.45 87.97 246.51 84.64 248.27 80.86 250.03 77.08 250.62 72.87 250.89 68.71 251.61 57.66 250.14 46.34 245.56 36.26 240.97 26.18 233.13 17.42 223.09 12.73" stroke-width="0" fill="#004254"/><g opacity="0.21"><g clip-path="url(#clippath-3)"><path d="M233.04 124.18C233.13 119.43 233.25 114.57 234.85 110.1 236.45 105.62 239.85 101.51 244.45 100.32 246.97 99.67 250.01 100.12 251.53 102.22 252.89 104.1 252.65 106.71 251.99 108.94 249.67 116.71 242.58 122.84 234.55 124.02" stroke-width="0" fill="#7E4831"/></g></g></g></g></g></svg>