<svg viewBox="0 0 185 185" xmlns="http://www.w3.org/2000/svg" xmlns:xlink="http://www.w3.org/1999/xlink" id="Layer_1" overflow="hidden"><defs></defs><circle cx="92.5" cy="92.5" r="92.5" stroke-width="0" fill="#00A99C"/><g><path d="M136.48 122.3 136.48 122.3 136.48 122.3 136.48 122.3 136.48 122.3Z" stroke-width="0" fill="#FFFFFF"/><path d="M136.48 122.3 136.47 122.3 136.47 122.3 136.48 122.3 136.48 122.3Z" stroke-width="0" fill="#FFFFFF"/><path d="M136.48 122.3 136.48 122.29 136.48 122.29 136.48 122.3 136.48 122.3Z" stroke-width="0" fill="#FFFFFF"/><path d="M136.48 122.31 136.48 122.31 136.48 122.3 136.48 122.3 136.48 122.31Z" stroke-width="0" fill="#FFFFFF"/><path d="M136.48 122.3 136.47 122.3 136.47 122.31 136.48 122.3 136.48 122.3Z" stroke-width="0" fill="#FFFFFF"/><path d="M139.41 121.69C139.18 120.54 138.26 119.66 137.31 119.05 136.22 118.35 134.96 117.98 133.69 117.84 132.22 117.68 130.75 117.57 129.28 117.47 126.26 117.27 123.23 117.16 120.2 117.15 108.03 117.1 95.83 118.58 84.02 121.52 83.21 121.72 82.41 121.95 81.61 122.16 77.45 121.85 73.28 121.51 69.13 121.07 66.18 120.76 63.24 120.43 60.29 120.06 57.94 119.76 55.23 119.62 53.23 118.2 52.55 117.72 51.9 116.91 51.65 116.15 51.35 115.24 51.44 114.55 51.94 113.79 52.37 113.13 53.19 112.58 54.01 112.14 55.06 111.57 55.97 111.24 57.08 110.8 64.67 107.81 72.49 105.43 80.46 103.68 82.46 103.68 84.46 103.68 86.46 103.7 99.34 103.76 112.22 103.71 125.1 103.7 127.24 103.7 130.69 102.76 130.7 100.06 130.7 99.35 130.4 98.46 129.76 98.08 129.09 97.69 127.94 97.77 127.17 97.7 125.72 97.57 124.27 97.46 122.82 97.37 116.86 97.01 110.88 96.99 104.92 97.32 96.64 97.78 88.38 98.9 80.27 100.66 77.54 100.63 74.81 100.6 72.08 100.55 67.49 100.46 62.86 100.25 58.38 99.19 56.31 98.7 54.18 98.11 52.39 97.04 50.97 96.19 49.53 94.92 49.27 93.38 49.2 92.93 49.38 92.18 49.7 91.75 50.18 91.12 50.82 90.75 51.6 90.42 53.34 89.68 55.61 89.3 57.57 88.91 62.21 87.98 66.91 87.4 71.63 87.01 81.22 86.21 90.85 86.15 100.45 85.5 105.33 85.17 110.21 84.68 115.03 83.88 117.03 83.55 119.18 83.32 120.99 82.35 122.73 81.42 123.94 79.46 123.18 77.48 122.5 75.69 120.66 74.75 118.91 74.27 116.66 73.65 114.25 73.4 111.94 73.06 106.97 72.32 101.97 71.77 96.96 71.44 92 71.11 87.02 70.98 82.05 71.06 79.59 71.1 77.12 71.2 74.66 71.32 72.38 71.43 70.04 71.52 67.81 70.94 66.08 70.49 64.51 69.63 63.37 68.2 62.4 66.99 62.03 65.46 62.44 64 62.87 62.49 64.06 61.19 65.37 60.17 66.9 58.98 68.72 58.08 70.49 57.27 78.47 53.6 87.39 52.05 96.14 52.63 98.26 52.77 100.37 53.05 102.46 53.45 103.25 53.6 104.08 53.23 104.31 52.4 104.51 51.66 104.06 50.71 103.26 50.55 91.87 48.34 79.96 49.73 69.38 54.49 65.01 56.46 59.51 59.53 59.28 64.96 59.17 67.5 60.53 69.93 62.47 71.51 64.74 73.36 67.48 74.13 70.37 74.32 73.44 74.53 76.54 74.18 79.61 74.1 82.79 74.01 85.97 74 89.15 74.08 95.47 74.23 101.77 74.71 108.04 75.52 111.12 75.92 114.21 76.37 117.26 76.97 118.29 77.17 119.13 77.39 119.92 77.97 119.95 78 120 78.03 120.01 78.04 120.1 78.12 120.18 78.21 120.26 78.3 120.23 78.3 120.35 78.51 120.36 78.49 120.38 78.56 120.39 78.65 120.4 78.67 120.4 78.71 120.4 78.76 120.4 78.8 120.4 78.84 120.39 78.9 120.38 78.92 120.37 78.96 120.36 78.98 120.35 79.01 120.32 79.06 120.29 79.11 120.26 79.16 120.23 79.2 120.22 79.21 120.22 79.21 120.2 79.23 120.19 79.24 120.17 79.26 120.11 79.32 120.05 79.37 119.99 79.43 119.96 79.45 119.84 79.54 119.81 79.56 119.7 79.63 119.58 79.7 119.46 79.76 119.1 79.95 118.63 80.11 118.1 80.25 116.72 80.61 115.28 80.81 113.87 81.04 110.94 81.52 107.98 81.86 105.02 82.13 92.77 83.25 80.44 83.05 68.2 84.32 65.1 84.64 62.01 85.05 58.95 85.6 57.44 85.87 55.94 86.17 54.45 86.51 53.2 86.79 51.94 87.07 50.75 87.55 48.35 88.51 46.15 90.39 46.23 93.21 46.31 95.91 48.37 98.05 50.52 99.43 52.89 100.96 55.82 101.74 58.56 102.32 61.53 102.94 64.56 103.25 67.58 103.41 68.13 103.44 68.67 103.45 69.22 103.47 66.45 104.28 63.71 105.17 60.99 106.14 58.3 107.1 55.52 108.04 52.95 109.31 50.66 110.44 48.62 112.28 48.46 114.98 48.3 117.71 50.31 120.22 52.66 121.37 55.38 122.7 58.53 122.86 61.49 123.23 64.68 123.62 67.87 123.97 71.07 124.29 71.93 124.38 72.8 124.44 73.67 124.52 71.56 125.2 69.45 125.92 67.45 126.86 65.39 127.82 63.33 129.1 61.9 130.9 60.36 132.82 59.67 135.15 60.14 137.59 60.22 138.03 60.35 138.45 60.51 138.85 55.74 138.8 50.97 138.61 46.21 138.26 45.4 138.2 44.71 138.99 44.71 139.76 44.71 140.62 45.4 141.2 46.21 141.26 51.64 141.66 57.09 141.86 62.54 141.86 64.5 143.78 67.3 145.02 69.78 145.74 72.48 146.52 75.35 146.83 78.15 147.1 81.27 147.39 84.41 147.48 87.54 147.41 93.87 147.27 100.16 146.5 106.4 145.46 109.53 144.94 112.65 144.35 115.76 143.74 117.35 143.42 118.94 143.1 120.53 142.78 121.75 142.53 122.91 142.25 124.06 141.75 126.22 140.81 128.23 138.98 127.81 136.42 127.64 135.4 126.86 135.11 125.99 134.78 125.31 134.52 124.62 134.3 123.92 134.12 122.5 133.75 121.04 133.53 119.57 133.41 113.7 132.94 107.85 134.31 102.12 135.34 89.7 137.59 77.09 138.75 64.47 138.85 64.29 138.85 64.1 138.85 63.92 138.85 63.88 138.79 63.84 138.75 63.84 138.74 63.73 138.58 63.63 138.41 63.53 138.23 63.47 138.12 63.42 138.01 63.36 137.9 63.34 137.85 63.34 137.86 63.34 137.87 63.34 137.85 63.33 137.84 63.31 137.79 62.97 136.89 62.88 136.34 63.01 135.36 63.01 135.33 63.04 135.23 63.04 135.21 63.07 135.08 63.1 134.95 63.13 134.82 63.19 134.6 63.26 134.38 63.35 134.17 63.37 134.15 63.53 133.81 63.55 133.78 63.68 133.55 63.82 133.32 63.97 133.1 64.1 132.91 64.44 132.52 64.73 132.22 65.06 131.89 65.49 131.51 65.77 131.3 66.62 130.67 67.54 130.14 68.48 129.67 70.49 128.68 72.73 127.97 74.94 127.25 77.22 126.5 79.53 125.83 81.85 125.19 84.62 125.39 87.39 125.58 90.16 125.73 102.95 126.41 115.77 126.5 128.57 126.01 130.22 125.95 131.86 125.87 133.51 125.79 134.88 125.72 136.37 125.77 137.63 125.15 138.91 124.53 139.68 123.1 139.4 121.7ZM120.99 100.27C122.71 100.35 124.43 100.48 126.15 100.62 125.82 100.67 125.46 100.69 125.1 100.69 122.58 100.69 120.05 100.69 117.53 100.69 112.48 100.69 107.43 100.69 102.38 100.7 101.47 100.7 100.57 100.7 99.66 100.7 106.75 100.06 113.89 99.91 120.99 100.26ZM94.63 139.55C99.76 138.82 104.83 137.76 109.94 136.95 114.8 136.18 120.08 135.75 124.79 137.49 124.73 137.6 124.67 137.71 124.59 137.81 124.56 137.84 124.52 137.88 124.51 137.9 124.41 138.01 124.3 138.11 124.19 138.21 124.15 138.24 124.14 138.25 124.12 138.27 124.04 138.33 123.95 138.39 123.87 138.44 123.66 138.57 123.45 138.7 123.23 138.81 122.76 139.05 122.5 139.16 121.95 139.33 120.77 139.71 119.52 139.9 118.3 140.15 116.91 140.43 115.51 140.71 114.12 140.99 108.47 142.1 102.79 143.11 97.07 143.74 91.39 144.36 85.65 144.62 79.95 144.22 77.28 144.04 74.57 143.76 71.96 143.18 70.45 142.84 69.09 142.41 67.78 141.78 71.31 141.7 74.84 141.54 78.36 141.3 83.8 140.92 89.23 140.33 94.63 139.56ZM136.48 122.32C136.48 122.32 136.48 122.32 136.48 122.32 136.48 122.32 136.48 122.32 136.48 122.32 136.48 122.33 136.47 122.34 136.46 122.35 136.48 122.33 136.48 122.33 136.48 122.32 136.48 122.32 136.48 122.32 136.48 122.32 136.46 122.35 136.4 122.42 136.39 122.43 136.48 122.32 136.32 122.47 136.29 122.49 136.02 122.63 135.54 122.69 135.1 122.71 133.63 122.8 132.16 122.86 130.69 122.93 127.77 123.06 124.85 123.15 121.92 123.22 116.03 123.35 110.14 123.36 104.26 123.25 100.21 123.17 96.15 123.01 92.1 122.81 97.15 121.82 102.26 121.1 107.39 120.67 112.93 120.2 118.49 120.05 124.04 120.22 126.8 120.31 129.55 120.47 132.3 120.71 133.38 120.81 134.29 120.85 135.21 121.31 135.61 121.51 136.01 121.76 136.19 121.95 136.26 122.02 136.33 122.09 136.4 122.16 136.58 122.37 136.18 121.92 136.45 122.25 136.45 122.25 136.45 122.25 136.45 122.26 136.45 122.26 136.45 122.25 136.45 122.24 136.45 122.25 136.45 122.26 136.45 122.27 136.45 122.27 136.45 122.28 136.46 122.29 136.46 122.27 136.46 122.25 136.46 122.24 136.46 122.25 136.46 122.27 136.46 122.29 136.46 122.29 136.46 122.29 136.46 122.29 136.46 122.29 136.46 122.29 136.46 122.29L136.46 122.29C136.46 122.29 136.46 122.29 136.46 122.29 136.46 122.29 136.46 122.29 136.46 122.29 136.46 122.29 136.46 122.29 136.46 122.29L136.46 122.29C136.46 122.29 136.46 122.29 136.46 122.29 136.46 122.29 136.46 122.29 136.46 122.29 136.46 122.29 136.46 122.29 136.46 122.29 136.46 122.29 136.46 122.29 136.46 122.3L136.46 122.3C136.46 122.3 136.46 122.3 136.46 122.31 136.46 122.31 136.46 122.31 136.46 122.3 136.46 122.3 136.46 122.3 136.46 122.3 136.46 122.3 136.46 122.3 136.46 122.3Z" stroke-width="0" fill="#FFFFFF"/><path d="M136.47 122.31C136.47 122.31 136.47 122.31 136.47 122.31 136.47 122.31 136.47 122.31 136.47 122.3 136.47 122.3 136.47 122.3 136.47 122.3Z" stroke-width="0" fill="#FFFFFF"/><path d="M136.47 122.3 136.47 122.31 136.47 122.31 136.47 122.3 136.47 122.3Z" stroke-width="0" fill="#FFFFFF"/><path d="M136.46 122.27C136.46 122.27 136.46 122.27 136.45 122.25 136.45 122.27 136.45 122.29 136.47 122.3 136.47 122.3 136.47 122.3 136.47 122.3 136.47 122.3 136.47 122.28 136.47 122.27Z" stroke-width="0" fill="#FFFFFF"/><path d="M136.47 122.31 136.47 122.31 136.47 122.31 136.47 122.31 136.47 122.31Z" stroke-width="0" fill="#FFFFFF"/></g><g><path d="M151.49 62.75C145.53 56.79 139.58 50.84 133.62 44.88 131.95 43.21 128.9 43.09 127.26 44.88 125.61 46.68 125.48 49.47 127.26 51.24 133.22 57.2 139.17 63.15 145.13 69.11 146.8 70.78 149.85 70.9 151.49 69.11 153.14 67.31 153.27 64.52 151.49 62.75Z" stroke-width="0" fill="#FFFFFF"/><path d="M127.25 62.75C133.21 56.79 139.16 50.84 145.12 44.88 146.79 43.21 149.84 43.09 151.48 44.88 153.13 46.68 153.26 49.47 151.48 51.24 145.52 57.2 139.57 63.15 133.61 69.11 131.94 70.78 128.89 70.9 127.25 69.11 125.6 67.31 125.47 64.52 127.25 62.75Z" stroke-width="0" fill="#FFFFFF"/></g><g><path d="M39.37 119.69C36.47 116.79 33.58 113.9 30.68 111 29.87 110.19 28.39 110.13 27.59 111 26.79 111.87 26.73 113.23 27.59 114.09 30.49 116.99 33.38 119.88 36.28 122.78 37.09 123.59 38.57 123.65 39.37 122.78 40.17 121.91 40.23 120.55 39.37 119.69Z" stroke-width="0" fill="#FFFFFF"/><path d="M27.59 119.69C30.49 116.79 33.38 113.9 36.28 111 37.09 110.19 38.57 110.13 39.37 111 40.17 111.87 40.23 113.23 39.37 114.09 36.47 116.99 33.58 119.88 30.68 122.78 29.87 123.59 28.39 123.65 27.59 122.78 26.79 121.91 26.73 120.55 27.59 119.69Z" stroke-width="0" fill="#FFFFFF"/></g></svg>