<svg viewBox="0 0 185 185" xmlns="http://www.w3.org/2000/svg" xmlns:xlink="http://www.w3.org/1999/xlink" id="Layer_1" overflow="hidden"><defs></defs><g><circle cx="92.5" cy="92.5" r="92.5" stroke-width="0" fill="#004254"/><path d="M124.56 111C124.74 109.97 124.92 109.12 125.01 108.27 125.06 107.78 125.24 107.59 125.73 107.59 130.6 107.59 135.46 107.59 140.33 107.59 140.83 107.59 141.04 107.78 141.01 108.28 141 108.46 141.01 108.64 141.01 108.82 141.01 120.22 141.01 131.62 141.01 143.02 141.01 143.833 140.607 144.243 139.8 144.25 135.29 144.25 130.79 144.23 126.28 144.27 125.48 144.27 125.14 144.01 125.05 143.27 125.01 142.92 124.92 142.57 124.84 142.22 124.6 141.16 124.32 140.93 123.22 141.14 117.33 142.3 111.43 143.34 105.93 145.97 103.18 147.29 100.15 147.81 97.09 147.9 94.62 147.98 92.14 148.07 89.68 147.88 83.01 147.36 76.36 146.65 70.17 143.76 65.17 141.43 60.85 138.18 57.26 134.04 52.4 128.44 48.45 122.18 44.73 115.79 43.72 114.04 43.35 112.05 43.71 110.01 44.35 106.37 47.83 104.32 51.24 105.76 54 106.92 56.62 108.4 59.28 109.79 61.21 110.8 63.12 111.83 64.98 112.97 66.82 114.1 68.82 114.57 70.93 114.59 76.48 114.64 82.03 114.71 87.58 114.65 89.65 114.63 91.66 113.99 93.38 112.8 96.05 110.96 98.59 108.92 101.26 107.08 105.93 103.86 110.9 103.53 115.95 106.07 118.58 107.39 121.07 108.99 123.62 110.47 123.9 110.63 124.17 110.79 124.56 111.01ZM66.72 122.11C67.59 123.09 68.4 124.17 69.39 125.06 69.89 125.51 70.71 125.78 71.39 125.81 72.89 125.87 74.4 125.66 75.91 125.67 80.68 125.7 85.46 125.89 90.23 125.79 92.45 125.74 93.95 126.71 95.34 128.18 93.94 129.58 92.44 130.48 90.32 130.45 84.23 130.37 78.14 130.53 72.06 130.42 70.25 130.39 68.38 129.97 66.66 129.37 64.04 128.46 62.51 126.43 62.4 123.63 62.33 121.87 62.58 120.07 62.89 118.33 63.04 117.45 62.94 117.05 62.13 116.62 58.76 114.84 55.47 112.91 52.08 111.17 51.07 110.65 49.84 110.57 48.56 110.25 48.68 111.78 48.27 113.08 49.07 114.25 52.18 118.84 55.19 123.5 58.4 128.01 63.38 135.03 69.92 139.91 78.47 141.66 82.38 142.46 86.36 142.9 90.31 143.44 94.38 144 98.37 143.73 102.31 142.39 108.67 140.22 115.08 138.18 121.46 136.08 122.61 135.7 123.76 135.32 124.89 134.95 124.89 134.28 124.89 133.71 124.89 133.15 124.95 130.05 124.87 126.94 125.12 123.86 125.46 119.65 124.1 116.3 120.51 114.08 117.88 112.46 115.11 111.05 112.34 109.67 109.94 108.47 107.51 108.7 105.28 110.19 103.35 111.48 101.46 112.85 99.62 114.26 94.88 117.89 89.66 119.85 83.57 119.39 80.19 119.13 76.77 119.19 73.37 119.25 69.52 119.32 69.53 119.39 66.89 121.86 66.85 121.9 66.82 121.95 66.72 122.1Z" stroke-width="0" fill="#FFFFFF"/></g><g><path d="M120 65.5C120 72.51 120 79.52 120 86.53 120 90.12 118.64 91.07 115.13 91.57 110.53 92.22 105.95 93.28 101.49 94.58 92.88 97.08 84.36 99.86 75.79 102.53 72.65 103.51 70.8 102.59 69.83 99.47 65.58 85.86 61.34 72.25 57.12 58.63 56.17 55.56 57.16 53.74 60.3 52.73 61.79 52.25 63.27 51.77 64.77 51.35 66.57 50.84 68.24 50.47 68.9 48.16 69.16 47.24 70.92 46.48 72.13 46.15 74.08 45.61 76.14 45.43 78.16 45.21 79.23 45.09 79.62 44.71 79.7 43.57 79.91 40.63 81.26 39.45 84.15 39.45 94.56 39.45 104.98 39.44 115.39 39.45 118.56 39.45 119.99 40.88 119.99 44.05 120.01 51.2 119.99 58.35 119.99 65.49ZM117.67 65.48C117.67 58.4 117.63 51.33 117.69 44.25 117.71 42.31 116.93 41.58 115.03 41.59 104.89 41.63 94.75 41.61 84.61 41.62 82.31 41.62 81.94 42.02 81.94 44.43 81.93 58.45 81.93 72.47 81.94 86.48 81.94 88.93 82.31 89.29 84.81 89.29 94.81 89.3 104.82 89.31 114.82 89.31 117.33 89.31 117.67 88.98 117.67 86.49 117.68 79.48 117.67 72.47 117.67 65.46ZM88.44 96.24C88.41 96.14 88.38 96.04 88.36 95.94 88.16 95.93 87.96 95.88 87.76 95.91 85.27 96.29 82.79 96.68 80.31 97.07 77.02 97.58 75.26 96.43 74.77 93.26 73.21 83.12 71.7 72.97 70.16 62.82 69.64 59.42 69.1 56.03 68.56 52.56 66.02 53.33 63.74 54.01 61.48 54.71 58.93 55.5 58.7 55.93 59.51 58.55 62.03 66.73 64.58 74.9 67.12 83.07 68.71 88.19 70.27 93.33 71.9 98.44 72.28 99.63 72.6 101.12 74.47 100.55 79.13 99.12 83.79 97.67 88.44 96.23ZM79.66 47.25C77.22 47.6 75.14 47.88 73.06 48.2 70.69 48.57 70.3 49.11 70.66 51.47 71.17 54.83 71.72 58.18 72.23 61.54 73.84 72.01 75.46 82.49 77.04 92.96 77.29 94.6 78.05 95.11 79.7 94.83 83.92 94.13 88.17 93.57 92.4 92.93 94.67 92.59 96.93 92.18 99.2 91.8 94.39 91.48 89.62 91.49 84.86 91.48 80.85 91.48 79.67 90.28 79.67 86.23 79.67 74.12 79.67 62 79.67 49.89 79.67 49.09 79.67 48.29 79.67 47.25Z" stroke-width="0" fill="#FFFFFF"/><path d="M99.59 50.18C95.44 50.18 91.29 50.23 87.14 50.13 87.08 50.13 87.02 50.13 86.96 50.11 85.94 49.88 85.96 48.31 86.99 48.09 87.06 48.07 87.13 48.07 87.2 48.07 91.35 48.04 95.5 48.02 99.64 48.02 103.78 48.02 108.21 48.04 112.5 48.07 112.62 48.07 112.75 48.1 112.87 48.15 113.69 48.48 113.69 49.72 112.87 50.05 112.73 50.11 112.59 50.14 112.45 50.15 108.17 50.24 103.88 50.2 99.59 50.2L99.59 50.2Z" stroke-width="0" fill="#FFFFFF"/><path d="M99.81 56.73C95.59 56.73 91.37 56.77 87.15 56.68 87.09 56.68 87.03 56.68 86.96 56.66 85.93 56.44 85.94 54.84 86.96 54.63 87.02 54.62 87.08 54.61 87.15 54.61 91.3 54.58 95.45 54.56 99.6 54.56 103.89 54.56 108.17 54.58 112.46 54.61 112.58 54.61 112.71 54.64 112.83 54.69 113.68 55.02 113.67 56.29 112.83 56.62 112.71 56.67 112.58 56.7 112.46 56.7 108.24 56.79 104.02 56.75 99.8 56.75L99.8 56.75Z" stroke-width="0" fill="#FFFFFF"/><path d="M99.8 63.29C95.65 63.29 91.5 63.34 87.35 63.24 87.28 63.24 87.21 63.24 87.14 63.22 86.09 63.01 86.11 61.39 87.16 61.19 87.23 61.18 87.3 61.17 87.37 61.17 91.47 61.13 95.57 61.12 99.67 61.12 103.87 61.12 108.07 61.14 112.26 61.17 112.33 61.17 112.4 61.17 112.46 61.19 113.5 61.39 113.51 62.97 112.48 63.21 112.4 63.23 112.31 63.24 112.22 63.24 108.07 63.34 103.92 63.29 99.77 63.29Z" stroke-width="0" fill="#FFFFFF"/><path d="M99.59 69.81C95.44 69.81 91.29 69.85 87.14 69.76 87.08 69.76 87.02 69.76 86.96 69.74 85.94 69.51 85.96 67.95 86.98 67.72 87.05 67.7 87.12 67.7 87.19 67.7 95.63 67.63 104.06 67.63 112.5 67.7 112.63 67.7 112.75 67.73 112.88 67.78 113.7 68.12 113.7 69.34 112.88 69.68 112.74 69.74 112.59 69.78 112.45 69.78 108.17 69.87 103.88 69.83 99.59 69.83L99.59 69.81Z" stroke-width="0" fill="#FFFFFF"/><path d="M99.8 76.38C95.65 76.38 91.5 76.43 87.35 76.33 87.28 76.33 87.21 76.33 87.14 76.31 86.08 76.1 86.1 74.47 87.16 74.27 87.23 74.26 87.3 74.25 87.37 74.25 91.45 74.21 95.52 74.2 99.6 74.19 103.82 74.19 108.04 74.21 112.27 74.24 112.34 74.24 112.41 74.24 112.48 74.26 113.53 74.47 113.53 76.06 112.48 76.3 112.4 76.32 112.32 76.33 112.24 76.33 108.09 76.43 103.94 76.38 99.79 76.38Z" stroke-width="0" fill="#FFFFFF"/><path d="M94.28 80.74C96.66 80.74 99.04 80.67 101.42 80.79 101.55 80.79 101.68 80.83 101.81 80.89 102.6 81.25 102.6 82.44 101.81 82.78 101.7 82.83 101.59 82.86 101.48 82.86 96.65 82.94 91.82 82.94 87 82.86 86.93 82.86 86.86 82.85 86.79 82.83 85.83 82.57 85.81 81.1 86.76 80.83 86.82 80.81 86.88 80.8 86.94 80.8 89.38 80.68 91.83 80.75 94.28 80.75L94.28 80.75Z" stroke-width="0" fill="#FFFFFF"/></g></svg>