<svg viewBox="0 0 267 267" xmlns="http://www.w3.org/2000/svg" xmlns:xlink="http://www.w3.org/1999/xlink" id="Layer_1" overflow="hidden"><defs></defs><circle cx="133.5" cy="133.5" r="133.5" stroke-width="0" fill="#FFA500"/><path d="M107.65 83.35 107.65 91.32C96.25 97.28 88.08 103.5 83.16 109.98 78.24 116.46 75.77 123.52 75.77 131.17 75.77 135.71 76.42 138.82 77.71 140.5 78.88 142.31 80.3 143.22 81.99 143.22 83.68 143.22 85.94 142.73 88.79 141.76 91.64 140.79 94.23 140.3 96.57 140.3 101.88 140.3 106.52 142.28 110.47 146.23 114.42 150.18 116.4 155.01 116.4 160.71 116.4 166.93 114 172.28 109.21 176.75 104.42 181.22 98.45 183.46 91.33 183.46 82.65 183.46 74.81 179.7 67.81 172.19 60.81 164.67 57.31 155.41 57.31 144.39 57.31 131.43 61.62 119.35 70.24 108.14 78.86 96.93 91.33 88.67 107.66 83.36ZM200.37 83.93 200.37 91.32C187.28 98.84 178.66 105.57 174.52 111.54 170.37 117.5 168.3 124.5 168.3 132.53 168.3 136.16 169.01 138.88 170.44 140.69 171.87 142.5 173.36 143.41 174.91 143.41 176.34 143.41 178.47 142.89 181.32 141.85 184.17 140.81 187.02 140.29 189.87 140.29 195.18 140.29 199.82 142.2 203.77 146.02 207.72 149.84 209.7 154.54 209.7 160.11 209.7 166.46 207.21 171.97 202.22 176.63 197.23 181.3 191.11 183.63 183.85 183.63 175.3 183.63 167.59 179.94 160.72 172.55 153.85 165.16 150.42 155.96 150.42 144.95 150.42 131.34 154.76 118.94 163.44 107.73 172.12 96.52 184.43 88.58 200.37 83.92Z" stroke-width="0" fill="#FFFFFF"/></svg>