<svg viewBox="0 0 175 175" xmlns="http://www.w3.org/2000/svg" xmlns:xlink="http://www.w3.org/1999/xlink" id="Layer_1" overflow="hidden"><defs></defs><circle cx="87.5" cy="87.5" r="87.5" stroke-width="0" fill="#F04C86"/><path d="M72.5 105.55C73.13 104.69 73.39 104.19 73.77 103.81 90.69 86.87 107.66 69.99 124.51 52.98 128.7 48.76 135.51 49.67 137.95 54.74 139.35 57.64 139.09 60.47 137.26 63.14 136.98 63.55 136.64 63.92 136.28 64.28 117.01 83.56 97.74 102.85 78.45 122.12 75.43 125.13 71.36 125.53 67.99 123.28 67.43 122.9 66.91 122.44 66.43 121.96 57.22 112.76 48.01 103.56 38.82 94.35 35.52 91.05 35.24 86.33 38.09 83.03 41.29 79.32 46.59 79.15 50.17 82.71 57.24 89.74 64.27 96.8 71.31 103.86 71.69 104.24 71.93 104.75 72.49 105.58Z" stroke-width="0" fill="#F04C86"/></svg>