<svg viewBox="0 0 739.56 782.89" xmlns="http://www.w3.org/2000/svg" xmlns:xlink="http://www.w3.org/1999/xlink" id="Layer_1" overflow="hidden"><defs></defs><ellipse cx="358.59" cy="758.66" rx="358.59" ry="24.23" stroke-width="0" fill="#CCF2E6"/><path d="M314.2 2.72C314.2 2.72 280.79-2.66 271.84 57.12 261.89 123.61 235.25 112.68 192.99 166.64 168.29 198.18 194.29 253.89 247.11 252.8 299.93 251.71 347.64 236.22 378.03 242.86 408.42 249.5 410.1 170.55 380.11 146.2 350.12 121.85 414.06 51.92 375.1 20.78 336.14-10.35 314.2 2.7 314.2 2.7Z" stroke-width="0" fill="#591A03"/><g><path d="M414.05 187.9 448.55 314.06 436.25 299.88C440.81 302.3 446.08 304.16 451.92 305.47 457.75 306.78 464.12 307.54 470.77 307.89 477.42 308.24 484.36 308.18 491.45 307.89 498.54 307.59 505.79 307.06 513.14 306.44L513.18 306.44C524.03 305.51 533.58 313.56 534.5 324.41 535.38 334.76 528.04 343.92 517.96 345.56 510.37 346.77 502.66 347.91 494.74 348.83 486.83 349.74 478.71 350.43 470.31 350.62 461.91 350.8 453.21 350.49 444.21 349.18 435.23 347.88 425.91 345.54 416.81 341.61 410.98 339.1 406.83 334.31 404.95 328.74L404.51 327.43 363.12 203.36C358.47 189.41 366 174.34 379.95 169.68 393.9 165.03 408.97 172.56 413.63 186.51 413.78 186.95 413.93 187.47 414.06 187.91Z" stroke-width="0" fill="#FB8F61"/><g><g><path d="M242.37 336.78C242.37 336.78 241.1 346.26 253.82 348.76L386.13 351.48C386.13 351.48 395.01 346.87 393.26 335.82 393.26 335.82 337.02 305.17 242.37 336.78Z" stroke-width="0" fill="#AA3905"/><g><path d="M387.68 399.26C305.81 411.37 244.77 387.85 244.77 387.85 248.31 377.8 250.88 366.48 252.72 356.19 254.86 344.22 256 333.66 256.52 328.11 285.7 326.13 357.24 322.17 385.37 328.47L385.74 339.71 387.68 399.26Z" stroke-width="0" fill="#FB8F61"/><path d="M337.35 361.2C336.89 364.75 335.32 367.46 333.86 367.27 332.39 367.08 331.58 364.05 332.04 360.5 332.5 356.95 334.07 354.23 335.53 354.43 337 354.62 337.81 357.65 337.35 361.2Z" stroke-width="0" fill="#EA745F"/><path d="M385.75 339.71C356.5 338.31 298.96 338.43 252.73 356.2 254.87 344.23 256.01 333.67 256.53 328.12 285.71 326.14 357.25 322.18 385.38 328.48L385.75 339.72Z" stroke-width="0" fill="#EA745F"/></g><g><path d="M393.84 312.13C393.84 312.19 393.84 312.25 393.83 312.33 393.78 312.83 393.75 313.37 393.71 313.94 393.57 316.11 393.46 318.68 393.4 321.61 393.33 323.98 393.3 326.57 393.28 329.35 393.27 331.42 393.26 333.57 393.26 335.81 354.24 318.99 274.49 330.94 242.37 336.77 242.69 335.16 243 333.58 243.28 332.01 243.5 330.86 243.7 329.71 243.89 328.58 246.01 316.28 247.14 305.21 247.52 295.31 247.55 294.45 247.58 293.57 247.6 292.66 247.91 277.98 246.34 257.11 243.11 235.6 242.89 234.12 242.65 232.64 242.43 231.17 242.27 230.19 242.11 229.24 241.95 228.27 240.76 221.1 239.39 213.93 237.84 206.97 237.31 204.59 236.85 202.2 236.46 199.82 236.03 197.18 235.69 194.54 235.45 191.93 234.85 185.31 234.9 178.84 235.77 172.84 237.32 162.14 241.48 152.93 249.22 147.01 253.59 143.66 259.12 141.36 265.96 140.44 268.2 140.13 270.41 139.85 272.54 139.6 279.26 138.8 285.42 138.21 290.43 137.81 292.08 137.67 293.61 137.56 294.99 137.46 298.5 137.21 301.07 137.07 302.36 137 302.96 136.96 303.28 136.95 303.28 136.95L365.21 145.87C365.21 145.87 375.61 148.92 377.77 149.63 383.04 151.38 387.55 153.05 391.42 154.7 396.23 156.75 400.8 158.36 403.82 160.45 417.03 169.58 412.32 188.15 412.26 208.89 412.26 209.24 412.26 209.6 412.26 209.97 412.26 210.09 412.26 210.21 412.26 210.32 412.27 211.89 412.29 213.45 412.35 215.01 412.41 216.97 412.52 218.91 412.66 220.86 412.94 224.77 413.34 228.66 413.81 232.47 416.66 255.8 422.01 276.6 416.7 287.36 411.03 298.88 399.42 308.06 395.33 311.06 394.4 311.75 393.84 312.11 393.84 312.11Z" stroke-width="0" fill="#E34C07"/><path d="M304.01 303.84C304.18 304.34 304.61 304.68 305.1 304.77 305.34 304.82 305.59 304.8 305.83 304.72 306.09 304.63 331.37 296.08 358.22 306.81 371.87 312.26 383.96 314.26 393.71 313.94 393.74 313.37 393.78 312.83 393.83 312.33 393.83 312.26 393.84 312.19 393.85 312.13 393.85 312.13 394.4 311.77 395.33 311.08 385.75 311.67 373.42 309.8 359.28 304.16 331.4 293.03 305.95 301.65 304.89 302.02 304.14 302.28 303.75 303.09 304.01 303.84Z" stroke-width="0" fill="#AA3905"/><path d="M352.33 204.18C370.13 207.55 377.66 189.1 377.73 188.91 378.02 188.18 377.66 187.35 376.93 187.06 376.19 186.77 375.37 187.13 375.08 187.86 374.8 188.56 368.31 204.3 352.87 201.38 336.66 198.31 306.09 166.88 305.78 166.56 305.23 165.99 304.33 165.98 303.76 166.53 303.19 167.08 303.18 167.98 303.73 168.55 305.01 169.87 335.25 200.95 352.34 204.19Z" stroke-width="0" fill="#AA3905"/></g><path d="M283.84 326.3C283.32 326.2 282.89 325.8 282.79 325.25 282.65 324.53 283.12 323.84 283.83 323.69 311.11 318.31 330.75 308.68 330.94 308.58 331.59 308.25 332.39 308.52 332.71 309.18 333.04 309.84 332.77 310.63 332.11 310.96 331.91 311.06 311.98 320.84 284.33 326.29 284.16 326.32 283.99 326.32 283.83 326.29Z" stroke-width="0" fill="#AA3905"/><g><g><path d="M369.03 55.35C369.03 55.35 374.6 54.92 376.83 61.75 379.05 68.59 377.47 80.87 370.14 80.62 362.81 80.37 369.03 55.35 369.03 55.35Z" stroke-width="0" fill="#EA745F"/><path d="M355.92 91.42C355.39 82.87 361.91 75.47 370.47 74.94 379.02 74.41 386.42 80.93 386.95 89.49 387.48 98.04 380.96 105.44 372.4 105.97 363.85 106.5 356.45 99.98 355.92 91.42ZM358.73 91.25C359.17 98.26 365.22 103.6 372.23 103.16 379.24 102.72 384.58 96.67 384.14 89.66 383.7 82.65 377.65 77.31 370.64 77.75 363.63 78.19 358.29 84.24 358.73 91.25Z" stroke-width="0" fill="#FFFFFF"/><g><line x1="358.68" y1="113.03" x2="358.68" y2="113.04" stroke-width="0" fill="#FB8F61"/><path d="M305.3 138.35C305.3 138.35 316.25 156.25 337.27 155.83 363.97 155.28 365.22 145.89 365.22 145.89 363.53 142.53 362.29 139.14 361.36 135.43 361.01 134.03 360.7 132.57 360.43 131.06 359.69 126.94 359.22 122.38 358.9 117.07 358.82 115.83 358.75 114.54 358.69 113.2L358.69 113.04C339.91 111.74 323.81 106.17 311.49 94.51L308.51 93.34 306.5 92.55 306.34 93.66 307.24 96.96C311.52 112.47 311.61 122.36 305.3 138.35Z" stroke-width="0" fill="#FB8F61"/><path d="M355.95 172.75C356.53 172.69 357.09 172.6 357.65 172.47 362.86 171.29 366.52 168.52 368.52 164.26 374.34 151.83 363.81 130.94 363.36 130.06 363 129.36 362.14 129.08 361.44 129.44 360.74 129.8 360.46 130.66 360.82 131.36 360.93 131.56 371.16 151.89 365.94 163.05 364.31 166.53 361.4 168.7 357.03 169.69 338.76 173.84 304.63 134.83 304.28 134.43 303.76 133.83 302.86 133.77 302.26 134.29 301.67 134.81 301.6 135.71 302.12 136.31 303.53 137.93 335.87 174.84 355.95 172.76Z" stroke-width="0" fill="#FFFFFF"/></g><path d="M326.29 106.33C331.53 114.32 342.9 128.11 360.42 131.05 359.68 126.93 359.21 122.37 358.89 117.06 358.81 115.82 358.74 114.53 358.68 113.19 358.33 113.29 357.97 113.38 357.61 113.47 347.88 115.75 336.35 112.44 326.29 106.33Z" stroke-width="0" fill="#EA745F"/><path d="M280.24 70.15C281.24 80.04 290.83 91.31 303.81 90.36L303.88 90.36C303.88 90.36 304.16 90.34 304.16 90.34 304.43 90.89 304.72 91.42 305.03 91.97 305.16 92.2 305.3 92.44 305.44 92.68 305.45 92.7 305.47 92.72 305.48 92.75 315.23 108.74 340.17 116.21 353.16 115.26 357.8 114.92 360.8 113.56 361.78 113.25 375.21 108.88 375.9 90.08 372.32 76.12 371.79 74.09 371.18 72.18 370.51 70.41 370.46 70.29 370.42 70.17 370.37 70.05 370.37 70.05 372.97 49.75 373.18 40.99 373.57 24.01 362.23 7.95 325.12 8.3 288.01 8.66 281.5 32.37 280.13 44.74 279.9 46.8 281.52 58.78 283.72 60.52 280.41 62.65 279.9 66.84 280.24 70.17Z" stroke-width="0" fill="#FB8F61"/><path d="M343.07 83.8C343.07 83.8 344.51 95.41 354.35 95.32 364.18 95.23 364.57 85.56 364.57 85.56L343.08 83.8Z" stroke-width="0" fill="#FFFFFF"/><path d="M352.68 99.85C350.75 99.59 349.64 98.33 349.57 98.25 349.25 97.88 349.29 97.32 349.66 97 350.03 96.68 350.58 96.72 350.9 97.09 350.97 97.17 352.41 98.73 354.83 97.84 355.29 97.67 355.8 97.91 355.96 98.37 356.13 98.83 355.89 99.34 355.43 99.5 354.38 99.88 353.45 99.95 352.66 99.84Z" stroke-width="0" fill="#EA745F"/><path d="M303.81 90.36 303.88 90.36C303.88 90.36 304.16 90.34 304.16 90.34 304.43 90.89 304.72 91.42 305.03 91.97 305.16 92.2 305.3 92.44 305.44 92.68 305.45 92.7 305.47 92.72 305.48 92.75 306.93 92.37 308.73 91.63 310.28 90.27 311.19 89.47 312.02 88.45 312.63 87.15 312.95 86.48 312.66 85.68 311.99 85.37 311.32 85.05 310.52 85.33 310.2 86.01 309.51 87.46 308.43 88.44 307.3 89.12 306.53 89.57 305.75 89.88 305.04 90.08 304.58 90.22 304.16 90.31 303.81 90.38Z" stroke-width="0" fill="#EA745F"/><path d="M364.52 74.02C364.7 75.49 368.04 76.33 372.33 76.1 371.8 74.07 371.19 72.16 370.52 70.39 366.88 71.23 364.36 72.68 364.52 74.02Z" stroke-width="0" fill="#EA745F"/><path d="M289.43 85.97C290.31 86.5 291.18 87.05 292.07 87.55 288.22 89.95 285.77 94.32 286.08 99.15 286.52 106.16 292.57 111.5 299.58 111.06 306.59 110.62 311.93 104.57 311.49 97.56 311.08 90.94 305.64 85.8 299.12 85.63 298.13 85.42 297.28 84.31 297.09 82.9 297.33 82.87 297.57 82.85 297.82 82.84 306.37 82.31 313.77 88.83 314.3 97.39 314.83 105.94 308.31 113.34 299.75 113.87 291.2 114.4 283.8 107.88 283.27 99.32 282.93 93.92 285.41 89 289.43 85.96Z" stroke-width="0" fill="#FFFFFF"/><path d="M356.33 79.54C356.54 79.53 356.74 79.46 356.92 79.33L361.66 75.87C361.98 75.63 362.16 75.25 362.12 74.85 362.08 74.45 361.83 74.11 361.47 73.94 357.26 72 354.5 68.63 352.78 63.34 352.59 62.75 351.95 62.43 351.36 62.62 350.77 62.81 350.45 63.45 350.64 64.04 352.34 69.26 354.98 72.82 358.87 75.12L355.59 77.51C355.09 77.88 354.98 78.58 355.34 79.08 355.58 79.4 355.95 79.56 356.32 79.54Z" stroke-width="0" fill="#EA745F"/><path d="M342.18 48.55C345.18 48.73 346.26 44.6 343.53 43.35 342.1 42.7 340.27 42.41 337.97 43.04 328.02 45.77 324.98 54.99 324.98 54.99 324.98 54.99 333.89 49.36 339.11 48.65 340.32 48.49 341.32 48.48 342.17 48.54Z" stroke-width="0" fill="#1E2144"/><path d="M358.14 48.05C355.19 48.61 353.6 44.64 356.15 43.06 357.48 42.23 359.27 41.73 361.63 42.07 371.84 43.55 372.94 50.71 372.94 50.71 372.94 50.71 366.47 47.85 361.2 47.79 359.98 47.78 358.98 47.9 358.15 48.06Z" stroke-width="0" fill="#1E2144"/><path d="M341.69 76.52C341.89 78.19 337.88 80.04 332.75 80.66 327.61 81.27 323.28 80.41 323.09 78.74 322.89 77.07 326.9 75.22 332.03 74.6 337.17 73.99 341.5 74.85 341.69 76.52Z" stroke-width="0" fill="#EA745F"/><path d="M304.26 82.52C303.71 82.49 303.22 82.12 303.06 81.56 300.34 72.43 288.83 69.52 288.71 69.5 287.99 69.32 287.55 68.6 287.72 67.88 287.89 67.16 288.62 66.72 289.34 66.89 289.87 67.02 302.46 70.18 305.62 80.79 305.83 81.5 305.43 82.25 304.72 82.46 304.57 82.51 304.41 82.52 304.25 82.51Z" stroke-width="0" fill="#EA745F"/><path d="M292.12 78.5C291.95 78.49 291.78 78.45 291.62 78.37 290.95 78.05 290.67 77.25 290.99 76.58 291.08 76.4 293.2 72.11 298.65 71.78 299.39 71.74 300.03 72.3 300.07 73.04 300.11 73.78 299.55 74.42 298.81 74.46 294.92 74.69 293.42 77.71 293.41 77.74 293.17 78.25 292.65 78.53 292.12 78.5Z" stroke-width="0" fill="#EA745F"/><g><path d="M364.35 60.5C364.23 62.78 363.17 64.57 361.99 64.51 360.81 64.45 359.95 62.55 360.07 60.27 360.19 57.99 361.25 56.2 362.43 56.26 363.61 56.32 364.47 58.22 364.35 60.5Z" stroke-width="0" fill="#1E2144"/><path d="M356 58.73C355.88 58.69 355.78 58.62 355.7 58.51 355.5 58.24 355.56 57.86 355.83 57.67 356.06 57.51 361.4 53.69 366.31 56.95 366.59 57.13 366.66 57.51 366.48 57.79 366.3 58.07 365.92 58.14 365.64 57.96 361.43 55.15 356.59 58.61 356.54 58.65 356.38 58.77 356.18 58.79 356 58.74Z" stroke-width="0" fill="#1E2144"/></g><g><path d="M341.83 60.81C341.71 63.09 340.65 64.88 339.47 64.82 338.29 64.76 337.43 62.86 337.55 60.58 337.67 58.3 338.73 56.51 339.91 56.57 341.09 56.63 341.95 58.53 341.83 60.81Z" stroke-width="0" fill="#1E2144"/><path d="M332.54 59.83C332.42 59.81 332.3 59.75 332.21 59.65 331.98 59.41 331.99 59.03 332.23 58.8 332.43 58.61 337.25 54.14 342.53 56.76 342.83 56.91 342.95 57.27 342.8 57.57 342.65 57.87 342.29 57.99 341.99 57.84 337.46 55.59 333.09 59.63 333.05 59.67 332.9 59.81 332.71 59.86 332.52 59.82Z" stroke-width="0" fill="#1E2144"/></g></g><path d="M324.51 28.49C324.51 28.49 327.59 38.73 319.37 45.64 312.56 51.36 308.31 53.18 308.31 53.18 308.31 53.18 323.3 80.63 312.85 85.9 302.4 91.16 300.5 59.63 283.73 60.51 283.73 60.51 277.58 59.87 277.11 49.29 276.64 38.71 282.4 9.01 319.1 5.8 346.63 3.39 372.47 15.64 375.41 34.82 378.35 54 373.82 50.65 373.82 50.65 373.82 50.65 374.61 39.23 360.49 32.18 348.78 26.33 324.5 28.5 324.5 28.5Z" stroke-width="0" fill="#591A03"/></g></g><g><path d="M427.33 645.28C426.82 645.28 426.29 645.19 425.78 645.01L245.02 579.84C242.65 578.99 241.42 576.37 242.28 574 243.13 571.63 245.75 570.4 248.12 571.26L428.88 636.43C431.25 637.28 432.48 639.9 431.62 642.27 430.95 644.13 429.2 645.28 427.33 645.28Z" stroke-width="0" fill="#003A49"/><path d="M239.07 645.28C237.21 645.28 235.46 644.13 234.78 642.27 233.92 639.9 235.15 637.29 237.51 636.43L420.41 570.19C422.78 569.33 425.39 570.56 426.25 572.92 427.11 575.29 425.88 577.9 423.52 578.76L240.62 645C240.11 645.19 239.58 645.27 239.07 645.27Z" stroke-width="0" fill="#003A49"/><path d="M443.41 761.75C439.56 761.75 436.21 758.9 435.69 754.98L403.04 511.2 266.42 511.2 234.28 754.96C233.72 759.23 229.8 762.24 225.52 761.68 221.25 761.12 218.24 757.2 218.8 752.92L251.83 502.38C252.34 498.5 255.65 495.6 259.57 495.6L409.86 495.6C413.77 495.6 417.08 498.49 417.59 502.37L451.15 752.91C451.72 757.18 448.72 761.11 444.45 761.68 444.1 761.73 443.75 761.75 443.4 761.75Z" stroke-width="0" fill="#003A49"/><path d="M366.33 503.4 268.72 503.4C237.8 503.4 204.68 486.48 199.93 455.92 193.58 415.06 192.01 375.49 193.78 339.17 195.78 298.1 215.4 259.89 247.68 234.43L247.68 234.43C247.68 234.43 267.18 319.4 242.66 436.68 252.02 481.24 366.32 503.4 366.32 503.4Z" stroke-width="0" fill="#003A49"/></g><g><g><g><path d="M592.16 657.29 548.56 657.29C548.56 657.29 538.47 608.9 535.09 581.76 531.7 554.62 529.95 490.29 529.95 490.29 529.95 490.29 495.2 501.58 422.48 497.32 261.33 487.91 322.44 369.51 322.44 369.51 327.88 377.03 361.24 371.81 384.03 375.41 454 382.13 514.67 409.58 551.09 425.3 559.86 429.08 567.65 433.08 574.48 437.29 583.26 442.7 588.75 459.12 592.06 480.72 602.01 545.63 592.17 657.29 592.17 657.29Z" stroke-width="0" fill="#001D25"/><path d="M553.97 633.97C553.24 633.97 552.59 633.46 552.44 632.72 546.15 601.59 544.04 562.84 542.34 531.71 540.93 505.89 539.6 481.51 536.29 478.58 533.6 476.21 522.45 478.06 508.33 480.4 480.24 485.06 437.8 492.11 390.99 481.22 365.49 475.29 346.75 462.9 335.28 444.41 315.5 412.52 324.52 372.98 324.61 372.58 324.81 371.74 325.65 371.22 326.49 371.42 327.33 371.62 327.85 372.46 327.65 373.3 327.56 373.68 318.84 412.01 337.95 442.79 348.97 460.54 367.05 472.45 391.7 478.18 437.9 488.93 479.98 481.94 507.82 477.32 524.49 474.55 534.56 472.88 538.36 476.24 542.46 479.87 543.62 497.7 545.46 531.54 547.15 562.57 549.26 601.19 555.5 632.1 555.67 632.94 555.12 633.77 554.28 633.94 554.18 633.96 554.07 633.97 553.97 633.97Z" stroke-width="0" fill="#003A49"/><path d="M592.99 634.79C592.99 634.79 592.97 634.79 592.96 634.79L544.48 633.75C543.62 633.73 542.93 633.02 542.95 632.16 542.97 631.3 543.67 630.6 544.54 630.63L593.02 631.67C593.88 631.69 594.57 632.4 594.55 633.26 594.53 634.11 593.84 634.79 592.99 634.79Z" stroke-width="0" fill="#003A49"/></g><g><path d="M590.95 713.15 560.18 713.15 554.26 677.04 551.01 657.29 589.24 657.29 589.85 677.04 590.95 713.15Z" stroke-width="0" fill="#FB8F61"/><path d="M590.95 713.15 560.18 713.15 555.77 686.27 554.26 677.04 589.85 677.04 590.14 686.61 590.95 713.15Z" stroke-width="0" fill="#FFFFFF"/><g><path d="M666.89 761.75 550.5 761.75C549.64 760.18 549.16 757.95 548.97 755.29 548.24 745.44 551.38 729.73 552.92 719.82 553.11 718.66 553.27 717.58 553.39 716.61 553.6 714.95 553.74 713.57 553.74 712.56 553.74 704.48 560.9 705.86 560.9 705.86 572.68 717.41 586.01 700.09 593.8 705.77 593.8 705.77 594.12 706 594.83 706.56 595.48 707.08 596.48 707.87 597.86 709.03 599.84 710.69 602.63 713.1 606.4 716.49 615.64 724.8 631.35 730.29 644.73 735.89 646.44 736.6 648.02 737.32 649.49 738.02 650.61 738.56 651.66 739.1 652.65 739.63 663.59 745.54 667.07 751.18 667.86 755.28 668.62 759.22 666.9 761.74 666.9 761.74Z" stroke-width="0" fill="#003A49"/><path d="M652.64 739.63C649.64 742.02 642.97 746.79 637.63 746.79 637.39 746.79 637.16 746.79 636.93 746.76 633.15 746.44 619.28 739.63 608 733.43 601.53 729.87 595.63 726.38 591.38 723.57 584.41 718.98 583.21 717.22 582.93 716.01 581.91 711.42 589.51 708.22 594.83 706.56 595.48 707.08 596.48 707.87 597.86 709.03 591.25 710.83 585.81 713.66 586.06 715.27 586.71 716.63 593.6 721.88 610.07 730.9 622.64 737.78 634.56 743.34 637.2 743.56 640.78 743.85 646.05 740.59 649.49 738.02 650.61 738.56 651.66 739.1 652.65 739.63Z" stroke-width="0" fill="#001D25"/><path d="M666.89 761.75 550.5 761.75C549.63 760.18 549.16 757.95 548.97 755.29L667.85 755.29C668.61 759.23 666.89 761.75 666.89 761.75Z" stroke-width="0" fill="#001D25"/><path d="M562.38 761.75 558.92 761.75C562.37 757.81 565.6 751.76 565.18 743.11 564.62 731.61 557.72 723.86 552.92 719.82 553.11 718.66 553.27 717.58 553.39 716.61 558.56 720.56 567.27 729.21 567.95 742.98 568.35 751.24 565.64 757.4 562.38 761.76Z" stroke-width="0" fill="#001D25"/><path d="M604.42 723.35C603.56 723.35 602.78 722.77 602.56 721.89 602.3 720.86 602.93 719.82 603.96 719.57L611.23 717.77C612.26 717.51 613.3 718.14 613.55 719.17 613.81 720.2 613.18 721.24 612.15 721.49L604.88 723.29C604.72 723.33 604.57 723.35 604.42 723.35Z" stroke-width="0" fill="#FFFFFF"/><path d="M597.19 717.3C596.33 717.3 595.55 716.72 595.33 715.84 595.07 714.81 595.7 713.77 596.73 713.52L604 711.72C605.03 711.46 606.07 712.09 606.32 713.12 606.58 714.15 605.95 715.19 604.92 715.44L597.65 717.25C597.5 717.29 597.34 717.31 597.19 717.31Z" stroke-width="0" fill="#FFFFFF"/><path d="M611.69 727.58C610.83 727.58 610.05 727 609.83 726.12 609.57 725.09 610.2 724.05 611.23 723.8L618.5 721.99C619.53 721.73 620.57 722.36 620.82 723.39 621.08 724.42 620.45 725.46 619.42 725.71L612.15 727.51C611.99 727.55 611.84 727.57 611.69 727.57Z" stroke-width="0" fill="#FFFFFF"/><path d="M618.96 731.64C618.1 731.64 617.32 731.06 617.1 730.18 616.84 729.15 617.47 728.11 618.5 727.86L625.77 726.05C626.8 725.79 627.84 726.42 628.09 727.45 628.35 728.48 627.72 729.52 626.69 729.77L619.42 731.58C619.26 731.62 619.11 731.64 618.96 731.64Z" stroke-width="0" fill="#FFFFFF"/><path d="M626.89 735.4C626.03 735.4 625.25 734.82 625.03 733.94 624.77 732.91 625.4 731.87 626.43 731.62L633.7 729.81C634.73 729.55 635.77 730.18 636.02 731.21 636.28 732.24 635.65 733.28 634.62 733.53L627.35 735.34C627.19 735.38 627.04 735.4 626.89 735.4Z" stroke-width="0" fill="#FFFFFF"/><path d="M635.48 738.6C634.62 738.6 633.84 738.02 633.62 737.14 633.36 736.11 633.99 735.07 635.02 734.82L642.29 733.02C643.32 732.76 644.36 733.39 644.61 734.42 644.87 735.45 644.24 736.49 643.21 736.74L635.94 738.54C635.78 738.58 635.63 738.6 635.48 738.6Z" stroke-width="0" fill="#FFFFFF"/></g></g></g><g><path d="M295.88 170.88 335.7 316.49 321.51 300.13C326.77 302.92 332.85 305.07 339.59 306.58 346.32 308.09 353.67 308.97 361.34 309.37 369.02 309.77 377.02 309.7 385.21 309.36 393.39 309.02 401.76 308.41 410.25 307.68L410.3 307.68C422.82 306.61 433.84 315.89 434.91 328.42 435.93 340.36 427.45 350.94 415.82 352.83 407.07 354.23 398.16 355.55 389.03 356.6 379.9 357.65 370.53 358.45 360.83 358.67 351.14 358.88 341.09 358.52 330.71 357.01 320.35 355.5 309.59 352.8 299.09 348.27 292.36 345.37 287.58 339.85 285.4 333.42L284.9 331.91 237.13 188.72C231.76 172.62 240.46 155.22 256.55 149.85 272.65 144.48 290.05 153.18 295.42 169.27 295.59 169.78 295.77 170.38 295.91 170.89Z" stroke-width="0" fill="#FB8F61"/><g><path d="M313.7 311.82C313.29 311.82 312.89 311.61 312.67 311.22 312.35 310.65 312.54 309.93 313.11 309.61 313.48 309.4 322.19 304.48 331.3 303.78 331.96 303.73 332.52 304.22 332.57 304.86 332.62 305.51 332.13 306.08 331.49 306.13 322.92 306.79 314.38 311.61 314.29 311.66 314.11 311.76 313.91 311.81 313.71 311.81Z" stroke-width="0" fill="#EA745F"/><path d="M328.17 306.56C327.96 306.56 327.75 306.5 327.56 306.39 322.07 303.06 315.42 302.55 315.35 302.55 314.7 302.5 314.21 301.94 314.26 301.29 314.31 300.64 314.85 300.16 315.52 300.2 315.81 300.22 322.81 300.75 328.78 304.38 329.34 304.72 329.51 305.44 329.18 306 328.96 306.37 328.57 306.57 328.17 306.57Z" stroke-width="0" fill="#EA745F"/></g></g><g><path d="M516.25 657.44 472.65 657.44C472.65 657.44 462.56 609.05 459.18 581.91 455.79 554.77 454.04 490.44 454.04 490.44 454.04 490.44 419.29 501.73 346.57 497.47 185.42 488.06 246.53 369.66 246.53 369.66 251.97 377.18 292.81 387.54 315.61 391.14 385.57 397.86 438.76 409.74 475.18 425.45 483.95 429.23 491.74 433.23 498.57 437.44 507.35 442.85 512.84 459.27 516.15 480.87 526.1 545.78 516.26 657.44 516.26 657.44Z" stroke-width="0" fill="#001D25"/><path d="M478.07 634.12C477.34 634.12 476.69 633.61 476.54 632.87 470.25 601.74 468.14 562.99 466.44 531.86 465.03 506.04 463.7 481.66 460.39 478.73 457.7 476.36 446.55 478.21 432.43 480.55 404.34 485.21 361.9 492.26 315.09 481.37 289.59 475.44 270.85 463.05 259.38 444.56 239.6 412.67 248.62 373.13 248.71 372.73 248.91 371.89 249.75 371.37 250.59 371.57 251.43 371.77 251.95 372.61 251.75 373.45 251.66 373.83 242.94 412.16 262.05 442.94 273.07 460.69 291.15 472.6 315.8 478.33 362 489.08 404.08 482.09 431.92 477.47 448.59 474.7 458.66 473.03 462.46 476.39 466.56 480.02 467.72 497.85 469.56 531.69 471.25 562.72 473.36 601.34 479.6 632.25 479.77 633.09 479.22 633.92 478.38 634.09 478.28 634.11 478.17 634.12 478.07 634.12Z" stroke-width="0" fill="#003A49"/><path d="M517.09 634.94C517.09 634.94 517.07 634.94 517.06 634.94L468.58 633.9C467.72 633.88 467.03 633.17 467.05 632.31 467.07 631.45 467.77 630.75 468.64 630.78L517.12 631.82C517.98 631.84 518.67 632.55 518.65 633.41 518.63 634.26 517.94 634.94 517.09 634.94Z" stroke-width="0" fill="#003A49"/></g><g><path d="M515.05 713.29 484.28 713.29 478.35 677.19 475.11 657.44 513.34 657.44 513.95 677.19 515.05 713.29Z" stroke-width="0" fill="#FB8F61"/><path d="M515.05 713.29 484.28 713.29 479.87 686.42 478.35 677.19 513.95 677.19 514.24 686.76 515.05 713.29Z" stroke-width="0" fill="#FFFFFF"/><g><path d="M590.99 761.9 474.6 761.9C473.74 760.33 473.26 758.1 473.07 755.44 472.34 745.59 475.48 729.88 477.02 719.97 477.21 718.81 477.37 717.73 477.49 716.76 477.71 715.1 477.84 713.72 477.84 712.71 477.84 704.63 485 706.01 485 706.01 496.78 717.56 510.11 700.24 517.9 705.92 517.9 705.92 518.22 706.15 518.93 706.71 519.59 707.23 520.58 708.02 521.96 709.18 523.95 710.84 526.73 713.25 530.5 716.64 539.74 724.95 555.45 730.44 568.83 736.04 570.54 736.75 572.12 737.47 573.59 738.17 574.71 738.71 575.76 739.25 576.75 739.78 587.69 745.69 591.17 751.33 591.96 755.43 592.72 759.37 591.01 761.89 591.01 761.89Z" stroke-width="0" fill="#003A49"/><path d="M576.74 739.78C573.74 742.17 567.07 746.94 561.73 746.94 561.49 746.94 561.26 746.94 561.03 746.91 557.25 746.59 543.38 739.78 532.1 733.58 525.63 730.02 519.73 726.53 515.48 723.72 508.51 719.13 507.31 717.37 507.03 716.16 506.01 711.57 513.61 708.37 518.93 706.71 519.59 707.23 520.58 708.02 521.96 709.18 515.35 710.98 509.91 713.81 510.17 715.42 510.82 716.78 517.71 722.03 534.18 731.05 546.75 737.93 558.67 743.49 561.31 743.71 564.89 744 570.16 740.74 573.6 738.17 574.72 738.71 575.77 739.25 576.76 739.78Z" stroke-width="0" fill="#001D25"/><path d="M590.99 761.9 474.6 761.9C473.73 760.33 473.26 758.1 473.07 755.44L591.95 755.44C592.71 759.38 590.99 761.9 590.99 761.9Z" stroke-width="0" fill="#001D25"/><path d="M486.48 761.9 483.02 761.9C486.47 757.96 489.7 751.91 489.28 743.26 488.72 731.76 481.82 724.01 477.02 719.97 477.21 718.81 477.37 717.73 477.49 716.76 482.66 720.71 491.37 729.36 492.05 743.13 492.45 751.39 489.74 757.55 486.48 761.91Z" stroke-width="0" fill="#001D25"/><path d="M528.52 723.5C527.66 723.5 526.88 722.92 526.66 722.04 526.4 721.01 527.03 719.97 528.06 719.72L535.33 717.92C536.36 717.66 537.4 718.29 537.65 719.32 537.9 720.35 537.28 721.39 536.25 721.64L528.98 723.45C528.82 723.49 528.67 723.51 528.52 723.51Z" stroke-width="0" fill="#FFFFFF"/><path d="M521.29 717.45C520.43 717.45 519.65 716.87 519.43 715.99 519.18 714.96 519.8 713.92 520.83 713.67L528.1 711.87C529.13 711.61 530.17 712.24 530.42 713.27 530.68 714.3 530.05 715.34 529.02 715.59L521.75 717.39C521.6 717.43 521.44 717.45 521.29 717.45Z" stroke-width="0" fill="#FFFFFF"/><path d="M535.79 727.73C534.93 727.73 534.15 727.15 533.93 726.27 533.67 725.24 534.3 724.2 535.33 723.95L542.6 722.15C543.63 721.89 544.67 722.52 544.92 723.55 545.18 724.58 544.55 725.62 543.52 725.87L536.25 727.67C536.09 727.71 535.94 727.73 535.79 727.73Z" stroke-width="0" fill="#FFFFFF"/><path d="M543.06 731.79C542.2 731.79 541.42 731.21 541.2 730.33 540.95 729.3 541.57 728.26 542.6 728.01L549.87 726.21C550.9 725.95 551.94 726.58 552.19 727.61 552.45 728.64 551.82 729.68 550.79 729.93L543.52 731.73C543.36 731.77 543.21 731.79 543.06 731.79Z" stroke-width="0" fill="#FFFFFF"/><path d="M550.99 735.55C550.13 735.55 549.35 734.97 549.13 734.09 548.87 733.06 549.5 732.02 550.53 731.77L557.8 729.96C558.83 729.7 559.87 730.33 560.12 731.36 560.37 732.39 559.75 733.43 558.72 733.68L551.45 735.48C551.29 735.52 551.14 735.54 550.99 735.54Z" stroke-width="0" fill="#FFFFFF"/><path d="M559.58 738.75C558.72 738.75 557.94 738.17 557.72 737.29 557.46 736.26 558.09 735.22 559.12 734.97L566.39 733.16C567.42 732.9 568.46 733.53 568.71 734.56 568.97 735.59 568.34 736.63 567.31 736.88L560.04 738.68C559.88 738.72 559.73 738.74 559.58 738.74Z" stroke-width="0" fill="#FFFFFF"/></g></g></g><path d="M242.67 381.34 246.52 369.67 254.11 350.66C254.11 350.66 330.5 380.35 387.21 366L388.04 375.83C388.04 375.83 354.44 403.04 304.29 394.82 254.14 386.6 242.69 381.34 242.69 381.34Z" stroke-width="0" fill="#1E2144"/></g><g><path d="M739.56 367.93 739.56 377.59C739.56 383.15 735.45 387.66 730.38 387.66L91.98 387.66C86.91 387.66 82.81 383.16 82.81 377.59L82.81 367.93C82.81 362.37 86.92 357.87 91.98 357.87L730.38 357.87C735.45 357.87 739.56 362.38 739.56 367.93Z" stroke-width="0" fill="#E34C07"/><rect x="82.81" y="370.99" width="656.75" height="4.42" stroke-width="0" fill="#AA3905"/><path d="M720.38 412.5 120.28 412.5C117.59 412.5 115.42 410.72 115.42 408.52L115.42 387.54 725.24 387.54 725.24 408.52C725.24 410.72 723.06 412.5 720.38 412.5Z" stroke-width="0" fill="#AA3905"/><rect x="128.04" y="535.72" width="511.07" height="17.11" stroke-width="0" fill="#AA3905"/><path d="M87.85 764.94 172.85 412.5 143 412.5 57.99 764.94 87.85 764.94Z" stroke-width="0" fill="#E34C07"/><path d="M670.19 764.94 585.18 412.5 615.04 412.5 700.04 764.94 670.19 764.94Z" stroke-width="0" fill="#E34C07"/></g><g><path d="M356.53 357.96 539.47 357.96 541.46 351.06C542.71 346.72 539.45 342.39 534.93 342.39L366.13 342.39C363.1 342.39 360.44 344.39 359.6 347.3L356.53 357.96Z" stroke-width="0" fill="#00BD84"/><g><path d="M673.82 170.96 642.57 303.12 641.75 306.6 639.65 315.5C638.74 319.36 635.31 322.07 631.34 322.07L420.83 322.07C415.32 322.07 411.25 316.93 412.52 311.57L446.7 167.04C447.61 163.19 451.04 160.47 455.01 160.47L665.53 160.47C671.04 160.47 675.11 165.61 673.84 170.96Z" stroke-width="0" fill="#00BD84"/><path d="M642.56 303.11 641.74 306.59 423.16 306.59 423.16 303.11 642.56 303.11Z" stroke-width="0" fill="#FFFFFF"/><g><path d="M505.66 193.16C503.91 202.53 494.9 210.12 485.53 210.12 476.16 210.12 469.99 202.53 471.73 193.16 473.48 183.79 482.49 176.2 491.86 176.2 501.23 176.2 507.4 183.79 505.66 193.16Z" stroke-width="0" fill="#E34C07"/><g><path d="M486.5 189.92C486.15 191.79 485.21 193.31 484.39 193.31 483.57 193.31 483.2 191.79 483.55 189.92 483.9 188.05 484.84 186.53 485.66 186.53 486.48 186.53 486.85 188.05 486.5 189.92Z" stroke-width="0" fill="#1E2144"/><path d="M495.35 189.92C495 191.79 494.06 193.31 493.24 193.31 492.42 193.31 492.05 191.79 492.4 189.92 492.75 188.05 493.69 186.53 494.51 186.53 495.33 186.53 495.7 188.05 495.35 189.92Z" stroke-width="0" fill="#1E2144"/></g><path d="M487.3 201.42C480.01 201.42 479.7 194.13 479.69 194.06 479.68 193.66 480 193.27 480.42 193.18 480.83 193.09 481.18 193.35 481.19 193.74 481.19 194 481.48 199.94 487.57 199.94 493.66 199.94 496.16 193.99 496.27 193.73 496.43 193.33 496.87 193.08 497.25 193.17 497.63 193.26 497.81 193.65 497.65 194.05 497.62 194.12 494.59 201.41 487.3 201.41Z" stroke-width="0" fill="#1E2144"/></g><path d="M602.97 272.35C603.15 281.12 618.02 292.11 618.02 292.11 618.02 292.11 635.28 281.12 637.38 272.35 639.66 262.84 628.79 259.92 620.75 267.09 614.27 259.92 602.77 262.84 602.97 272.35Z" stroke-width="0" fill="#E34C07"/><path d="M571.53 246.91C570.53 256.01 562.34 263.38 553.24 263.38 544.14 263.38 537.58 256.01 538.58 246.91 539.58 237.81 547.77 230.44 556.87 230.44 565.97 230.44 572.53 237.81 571.53 246.91Z" stroke-width="0" fill="#FFFFFF"/><path d="M463.33 160.46 426.95 322.06 420.82 322.06C415.31 322.06 411.24 316.92 412.51 311.56L446.68 167.03C447.59 163.18 451.03 160.46 454.99 160.46L463.33 160.46Z" stroke-width="0" fill="#FFFFFF"/><path d="M524.31 322.06 517.92 357.97 539.02 357.97 545.4 322.06 524.31 322.06Z" stroke-width="0" fill="#FFFFFF"/><path d="M486.36 351.79 490.68 345.72C492.22 343.55 494.72 342.27 497.38 342.27L555.21 342.27C558.27 342.27 561.08 343.97 562.49 346.68L565.4 352.25C566.76 354.85 564.87 357.97 561.93 357.97L489.54 357.97C486.36 357.97 484.51 354.38 486.35 351.79Z" stroke-width="0" fill="#00BD84"/></g></g></g></svg>