<svg viewBox="0 0 429.65 745.3" xmlns="http://www.w3.org/2000/svg" xmlns:xlink="http://www.w3.org/1999/xlink" id="Layer_1" overflow="hidden"><defs><clipPath id="clippath"><rect x="0" y="0" width="429.65" height="745.3" stroke-width="0" fill="none"/></clipPath><clipPath id="clippath-2"><rect x="104.85" y="160.77" width="219.29" height="152.41" stroke-width="0" fill="none"/></clipPath></defs><g clip-path="url(#clippath)"><path d="M217.35 144C98.71 142.6 1.41 238.09 0.02 357.28-0.74 421.96 27.42 483.57 76.74 525.15 85.82 532.67 99.68 541.77 99.37 560.62 99.37 561.2 100.32 607.78 100.32 607.78L326.27 607.78C326.27 607.78 327.23 559.38 327.23 558.83 327.23 542.23 340.02 535.07 349.44 527.59 399.42 487.33 428.84 426.71 429.63 362.35 431.03 243.16 335.99 145.4 217.35 144" stroke-width="0" fill="#FFA500"/><g opacity="0.2"><g clip-path="url(#clippath-2)"><path d="M324.14 237.01C324.14 279.03 275.19 313.18 214.49 313.18 153.79 313.18 104.85 279.03 104.85 237.01 104.85 194.99 153.79 160.77 214.49 160.77 275.19 160.77 324.14 194.92 324.14 237.01" stroke-width="0" fill="#FFFFFF"/></g></g><path d="M49.66 442.73C30.67 410.01 23.24 371.34 28.75 333.86 34.25 296.39 52.48 261.53 80.08 235.71L82.41 238.23C55.38 263.52 37.53 297.65 32.14 334.37 26.75 371.07 34.02 408.94 52.63 441L49.67 442.74Z" stroke-width="0" fill="#FFFFFF"/><path d="M277.27 561.67C266.31 532.65 257.17 502.78 249.95 472.31 238.88 482.07 226.73 487.09 214.99 486.48 205.51 486.01 196.04 482.03 186.28 474.38 184.82 503.94 179.93 533.27 171.65 561.59L165.08 559.65C173.71 530.15 178.59 499.5 179.66 468.68 178.08 467.2 176.49 465.63 174.9 463.95 150.87 438.81 139.63 407.66 144.84 380.63 146.82 370.38 152.97 360.38 162.34 360.38 170.85 360.59 177.13 369.01 180.01 384.07 185.15 410.98 187.34 438.41 186.62 465.71 196.65 474.58 206.1 479.13 215.33 479.59 229.21 480.3 241 471.56 248.16 464.58 242.91 441.36 238.76 417.8 235.74 394.02 234.64 385.42 233.82 377.02 235.69 368.86 237.98 358.85 244.39 351.32 252.03 349.68 265.29 346.79 276.02 361.01 279.7 376.52 287.01 407.36 277.8 442.53 256.24 466.11 256.05 466.32 255.86 466.52 255.68 466.72 262.99 498.28 272.34 529.21 283.69 559.22L277.28 561.66ZM162.04 367.27C157.02 367.27 152.99 374.62 151.58 381.95 146.79 406.78 157.36 435.65 179.84 459.19 179.85 459.19 179.87 459.21 179.87 459.22 180.12 434.5 177.93 409.72 173.27 385.38 172.47 381.17 169.3 367.45 162.16 367.27L162.04 367.27M255.31 356.21C254.69 356.21 254.08 356.27 253.46 356.4 247.72 357.63 243.75 364.32 242.36 370.4 240.74 377.46 241.52 385.19 242.53 393.15 245.33 415.14 249.1 436.94 253.8 458.45 271.71 436.82 279.42 405.08 273.03 378.12 270.36 366.88 263.19 356.22 255.31 356.22" stroke-width="0" fill="#563B09"/><path d="M341.14 621.49 86.62 621.49C80.55 621.49 75.63 616.55 75.63 610.45L75.63 605.13C75.63 599.03 80.55 594.09 86.62 594.09L341.13 594.09C347.2 594.09 352.12 599.03 352.12 605.13L352.12 610.45C352.12 616.55 347.2 621.49 341.13 621.49" stroke-width="0" fill="#563B09"/><path d="M336.65 645.53 91.1 645.53C85.03 645.53 80.11 640.59 80.11 634.49L80.11 630.07C80.11 623.97 85.03 619.03 91.1 619.03L336.65 619.03C342.72 619.03 347.64 623.97 347.64 630.07L347.64 634.49C347.64 640.59 342.72 645.53 336.65 645.53" stroke-width="0" fill="#563B09"/><path d="M129.03 683.34C145.98 714.49 181.64 747.3 216.91 745.21 252.18 743.12 285.27 713.01 298.46 680.08L129.03 683.34Z" stroke-width="0" fill="#AA3905"/><path d="M320.32 693.33 107.44 693.33C101.37 693.33 96.45 688.39 96.45 682.29L96.45 677.86C96.45 671.76 101.37 666.82 107.44 666.82L320.32 666.82C326.39 666.82 331.31 671.76 331.31 677.86L331.31 682.29C331.31 688.39 326.39 693.33 320.32 693.33" stroke-width="0" fill="#563B09"/><path d="M333.04 669.01 94.72 669.01C88.65 669.01 83.73 664.07 83.73 657.97L83.73 653.54C83.73 647.44 88.65 642.5 94.72 642.5L333.04 642.5C339.11 642.5 344.03 647.44 344.03 653.54L344.03 657.97C344.03 664.07 339.11 669.01 333.04 669.01" stroke-width="0" fill="#563B09"/></g></svg>