<svg viewBox="0 0 266.19 266.19" xmlns="http://www.w3.org/2000/svg" xmlns:xlink="http://www.w3.org/1999/xlink" id="Layer_1" overflow="hidden"><defs></defs><circle cx="133.09" cy="133.09" r="133.09" stroke-width="0" fill="#E34C07"/><path d="M56.79 151.49C56.79 150.99 56.79 150.49 56.79 149.98 59.81 148.68 62.89 147.52 65.82 146.01 66.71 145.55 67.71 144.17 67.78 143.15 68.22 136.35 68.31 129.62 60.98 126.63 60.27 126.34 59.6 124.99 59.52 124.07 59.48 123.55 60.62 122.7 61.36 122.36 62.96 121.62 64.65 121.12 66.4 120.49 62.44 114.1 60.79 106.73 61.55 99.47 62.38 91.61 65.76 87.47 72.83 86.35 96.52 82.61 120.22 78.98 143.92 75.37 147.81 74.78 152.05 73.21 155.6 74.28 172.13 79.27 188.47 85.02 204.86 90.56 205.6 90.81 206.71 91.78 206.67 92.32 206.6 93.24 205.91 94.61 205.2 94.88 198.67 97.37 198.29 103.3 198.16 109.55 198.1 112.67 199.17 114.19 201.96 114.95 204.53 115.65 206.93 117.18 209.4 118.34L209.4 119.85C206.82 120.54 204.23 121.23 201.71 121.91 206.51 133.34 205.8 143.71 199.03 153.1 200.05 154.09 201.21 155.06 202.11 156.27 202.22 156.42 201.11 158.28 200.33 158.58 193.9 161.03 193.69 166.94 193.54 172.99 193.47 175.97 194.32 177.72 197.22 178.49 199.86 179.19 202.3 180.81 204.83 182.02 204.71 182.4 204.59 182.77 204.47 183.15 203.74 183.42 203.03 183.75 202.29 183.95 176.13 190.99 149.97 198.06 123.78 204.98 121.83 205.49 119.51 205.42 117.61 204.75 101.08 198.93 84.67 192.67 68.09 187.07 61.66 184.9 58.68 180.33 57.47 173.57 57.28 172.48 57.02 171.41 56.8 170.33 56.8 167.57 56.8 164.81 56.8 162.04 58.01 158.94 59.21 155.84 60.47 152.61 59.33 152.26 58.06 151.88 56.8 151.5ZM125.96 133.8C125.96 127.03 126.04 120.8 125.86 114.58 125.84 113.81 124.57 112.72 123.69 112.4 106.81 106.22 89.91 100.11 72.99 94.03 69.79 92.88 67.94 93.83 67.01 97.36 65.61 102.67 65.7 108.12 67.94 113.07 68.77 114.9 70.9 116.52 72.75 117.17 80.04 119.74 87.44 121.89 94.81 124.18 104.86 127.29 114.92 130.39 125.96 133.79ZM140.65 165.46C159.17 159.69 176.94 154.22 194.66 148.54 196.08 148.09 197.6 146.46 198.25 144.95 200.36 140.05 200.53 134.77 199.28 129.57 198.32 125.57 196.46 124.61 192.94 125.86 187.15 127.91 181.38 130 175.61 132.09 163.86 136.35 152.11 140.63 140.65 144.8L140.65 165.46ZM121.34 197.31C121.34 190.48 121.43 184.48 121.24 178.49 121.21 177.58 120 176.25 119.09 175.92 102.21 169.71 85.3 163.61 68.38 157.51 65.3 156.4 63.3 157.42 62.35 160.83 60.87 166.16 61.08 171.6 63.29 176.55 64.11 178.38 66.24 180.05 68.08 180.67 77.44 183.84 86.9 186.65 96.33 189.58 104.33 192.06 112.33 194.52 121.34 197.31ZM195.12 115.28C195.53 109.21 195.9 103.71 196.28 98.02 174.08 103.09 151.53 108.25 128.78 113.44L128.78 133.61C151.08 127.45 173.24 121.33 195.12 115.28ZM191.63 161.52C179.4 164.32 166.93 167.08 154.49 170.06 149.99 171.14 145.63 172.97 141.12 173.99 136.31 175.08 131.39 175.52 126.55 176.46 125.7 176.62 124.38 177.79 124.35 178.53 124.17 184.62 124.25 190.72 124.25 197.1 146.53 190.94 168.78 184.79 190.49 178.78 190.89 172.67 191.24 167.24 191.62 161.53ZM71.11 147.05C92.92 153.06 115.13 159.19 137.41 165.33 137.41 159.37 137.31 154.12 137.45 148.87 137.52 146.2 136.94 144.97 134.3 144.4 119.24 141.15 104.24 137.62 89.21 134.19 82.62 132.69 76.03 131.18 69.88 129.78 70.28 135.44 70.67 140.87 71.1 147.05Z" stroke-width="0" fill="#FFFFFF"/></svg>