<svg viewBox="0 0 139.34 277.8" xmlns="http://www.w3.org/2000/svg" xmlns:xlink="http://www.w3.org/1999/xlink" id="Isolation_Mode" overflow="hidden"><defs></defs><path d="M37.45 238.97C48.16 229.82 65.26 232.11 72.38 244.64 79.51 257.18 78.3 281.24 50.66 277.38 23.02 273.52 24.12 250.34 37.44 238.97Z" stroke-width="0" fill="#00A99C"/><path d="M0.19 67.92C-3.11 63.72 36.75-23.25 90.55 6 204.87 68.14 84.03 128.04 72.14 137.4 60.25 146.75 75.07 213.5 70.32 217.24 65.56 220.98 43.34 216.17 41.47 213.79 39.6 211.41 39.6 130.27 46.05 121.35 52.5 112.42 126.31 83.9 98.38 47.16 70.45 10.42 35.91 61.7 29.17 80.91 28.08 84.01 2.06 70.31 0.19 67.93Z" stroke-width="0" fill="#00A99C"/><path d="M61.81 123.07C64.76 119.52 68.72 117.22 72.4 114.56 76.11 112.01 79.84 109.48 83.47 106.84 103.76 92.48 123.88 71.92 108.29 46.3 88.17 13.86 60.92 17.26 38.38 45.16 32.77 52.13 27.95 59.84 24.8 68.23 24.74 68.4 24.55 68.49 24.38 68.43 24.22 68.37 24.13 68.19 24.19 68.02 25.7 63.75 27.71 59.67 29.97 55.75 49.79 22.35 83.11 5.47 108.59 44.14 118.75 60.04 116.61 75.81 104.45 89.83 94.08 101.98 80.23 110.04 67.32 119.06 65.52 120.37 63.7 121.75 62.34 123.44 62.23 123.59 62.02 123.63 61.87 123.51 61.73 123.4 61.71 123.2 61.82 123.06L61.82 123.06Z" stroke-width="0" fill="#1D1D1B"/><path d="M36.41 250.52C36.78 264.86 41.83 275.89 58.1 270.97 62.08 269.82 65.88 268.04 69.59 266.11 69.75 266.03 69.94 266.09 70.03 266.24 70.11 266.39 70.06 266.58 69.91 266.67 68.11 267.77 66.26 268.79 64.36 269.73 54.22 274.82 41.37 276.27 37.24 263.14 35.91 259.03 35.66 254.73 35.77 250.52 35.78 250.12 36.41 250.11 36.41 250.52L36.41 250.52Z" stroke-width="0" fill="#1D1D1B"/></svg>