<svg viewBox="0 0 576.11 869.58" xmlns="http://www.w3.org/2000/svg" xmlns:xlink="http://www.w3.org/1999/xlink" id="Isolation_Mode" overflow="hidden"><defs><clipPath id="clippath"><rect x="0" y="0" width="576.11" height="869.58" stroke-width="0" fill="none"/></clipPath><clipPath id="clippath-1"><rect x="15.01" y="546.33" width="473.74" height="213.06" stroke-width="0" fill="none"/></clipPath><clipPath id="clippath-2"><rect x="15.01" y="546.33" width="473.74" height="213.06" stroke-width="0" fill="none"/></clipPath><clipPath id="clippath-3"><rect x="141.51" y="597.14" width="200.08" height="154.8" stroke-width="0" fill="none"/></clipPath><clipPath id="clippath-4"><rect x="305.11" y="682.81" width="166.26" height="76.42" stroke-width="0" fill="none"/></clipPath><clipPath id="clippath-5"><rect x="0" y="0" width="576.11" height="869.58" stroke-width="0" fill="none"/></clipPath><clipPath id="clippath-6"><rect x="358.94" y="738.41" width="42.56" height="131.17" stroke-width="0" fill="none"/></clipPath><clipPath id="clippath-8"><rect x="284.65" y="294.49" width="16.8" height="87.29" stroke-width="0" fill="none"/></clipPath><clipPath id="clippath-9"><rect x="457.69" y="301.41" width="38.42" height="102.56" stroke-width="0" fill="none"/></clipPath><clipPath id="clippath-11"><rect x="30.53" y="432.5" width="361.02" height="164.27" stroke-width="0" fill="none"/></clipPath><clipPath id="clippath-12"><rect x="181.59" y="432.5" width="82.02" height="149.07" stroke-width="0" fill="none"/></clipPath><clipPath id="clippath-13"><rect x="380.74" y="183.6" width="38.07" height="21.92" stroke-width="0" fill="none"/></clipPath><clipPath id="clippath-14"><rect x="440.16" y="126.62" width="24.52" height="13.95" stroke-width="0" fill="none"/></clipPath><clipPath id="clippath-16"><rect x="467.28" y="18.32" width="29.13" height="28.46" stroke-width="0" fill="none"/></clipPath><clipPath id="clippath-17"><rect x="412.68" y="35.02" width="74.19" height="70.35" stroke-width="0" fill="none"/></clipPath><clipPath id="clippath-18"><rect x="0" y="668.97" width="72.12" height="119.16" stroke-width="0" fill="none"/></clipPath><clipPath id="clippath-19"><rect x="409.08" y="681.24" width="90.02" height="48.45" stroke-width="0" fill="none"/></clipPath></defs><g clip-path="url(#clippath)"><g><g clip-path="url(#clippath-1)"><path d="M421.66 580.97C421.66 580.97 32.34 501.78 16.32 582.86-6.54 698.59 274.71 767.7 423.16 758.59 571.61 749.47 421.66 580.97 421.66 580.97" stroke-width="0" fill="#1A2E35"/></g></g><g opacity="0.2"><g clip-path="url(#clippath-2)"><path d="M421.66 580.97C421.66 580.97 32.34 501.78 16.32 582.86-6.54 698.59 274.71 767.7 423.16 758.59 571.61 749.47 421.66 580.97 421.66 580.97" stroke="#1D1D1B" stroke-width="1.37" stroke-linecap="round" stroke-linejoin="round" fill="none"/></g></g><g opacity="0.2"><g clip-path="url(#clippath-3)"><path d="M143.92 603.97 328.9 714.01 305.68 749.16C305.68 749.16 319 767.7 341.59 708.88L227.06 637.93C227.06 637.93 262.12 633.36 261.07 627.89 259.31 618.9 181.56 604.01 146.1 597.31 144.26 596.7 142.29 597.71 141.68 599.55 141.08 601.39 142.08 603.36 143.92 603.97" stroke-width="0"/></g></g><g opacity="0.2"><g clip-path="url(#clippath-4)"><path d="M335.1 700.81 305.11 752.78C344.15 758.42 383.69 760.36 423.16 758.58 436.14 758.12 448.92 755.41 460.9 750.59L471.37 730.03 446.13 682.8 335.11 700.81Z" stroke-width="0"/></g></g></g><path d="M274.39 682.29 356.66 731.13 343.34 770.75 247.26 730.94 274.39 682.29Z" stroke-width="0" fill="#FCB370"/><g clip-path="url(#clippath-5)"><path d="M401.5 742.95 394.4 771.38C394.4 771.38 388.48 772.81 386.81 778.79 385.87 782.16 388.59 791.27 388.59 791.27L369.65 869.58C369.53 869.55 364.28 868.3 362.17 866.87 359.59 865.12 357.5 863.32 355.8 861.47 349.87 855.01 348.96 845.43 348.53 838.32 347.82 826.41 339.94 791.79 339.94 791.79 339.94 791.79 337.06 782.79 327.25 775.09 321.78 770.79 319.14 765.24 319.54 761.74 320.34 754.6 325.36 751.79 332.03 752.39L339.77 753.1C345.17 748.83 346.65 741.83 342.96 735.24 342.96 735.24 337.9 718.45 345.08 721.09 349.18 722.6 367.24 730.03 381.69 735.47 385.06 736.74 388.24 737.94 391.04 738.99L391.04 738.99C397.25 741.33 401.51 742.94 401.51 742.94" stroke-width="0" fill="#1A2E35"/><path d="M343.47 810.28C343.24 809.85 343.34 809.3 343.69 808.96 345.31 807.38 347.34 806.22 349.65 805.66 350.87 805.37 351.49 807.32 350.26 807.62 348.2 808.11 346.42 809.13 345 810.51 344.53 810.97 343.8 810.88 343.49 810.31 343.49 810.31 343.49 810.3 343.48 810.29" stroke-width="0" fill="#00A99C"/><path d="M341.68 803.45C341.45 803.02 341.55 802.47 341.9 802.13 343.52 800.55 345.55 799.39 347.86 798.83 349.08 798.54 349.7 800.49 348.47 800.79 346.41 801.28 344.63 802.3 343.21 803.68 342.74 804.14 342.01 804.05 341.7 803.48 341.7 803.48 341.7 803.47 341.69 803.46" stroke-width="0" fill="#00A99C"/><path d="M340.16 796.48C339.93 796.05 340.03 795.5 340.38 795.16 342 793.58 344.03 792.42 346.34 791.86 347.56 791.57 348.18 793.52 346.95 793.82 344.89 794.31 343.11 795.33 341.69 796.71 341.22 797.17 340.49 797.08 340.18 796.51 340.18 796.51 340.18 796.5 340.17 796.49" stroke-width="0" fill="#00A99C"/><g opacity="0.2"><g clip-path="url(#clippath-6)"><path d="M391.04 738.99 391.04 738.99C397.25 741.33 401.51 742.94 401.51 742.94L394.41 771.37C394.41 771.37 388.49 772.8 386.82 778.79 385.88 782.15 388.6 791.27 388.6 791.27L369.66 869.58C369.54 869.55 364.29 868.3 362.18 866.87 360.99 866.07 359.94 865.25 358.95 864.42L389.48 738.41C389.99 738.6 390.55 738.81 391.04 739" stroke-width="0" fill="#FFFFFF"/></g></g><path d="M329.19 802.41C327.19 802.41 325.31 801.88 323.8 800.87 322.59 800.07 321.41 798.63 321.7 797.01 321.98 795.43 323.48 794.53 324.68 794.05 327.12 793.07 329.99 792.83 333.21 793.31 336.02 793.73 338.75 794.64 341.38 795.53L342.21 795.81 341.53 796.35C339.96 797.54 334.63 801.5 331.76 802.12 330.9 802.31 330.04 802.4 329.19 802.4M330.12 794C328.25 794 326.54 794.3 325.01 794.91 324.21 795.23 322.83 795.95 322.61 797.16 322.4 798.33 323.35 799.43 324.31 800.08 326.26 801.38 328.91 801.79 331.55 801.2 333.91 800.68 338.34 797.53 340.24 796.13 337.9 795.35 335.49 794.59 333.05 794.23 332.03 794.08 331.05 794 330.11 794" stroke-width="0" fill="#00A99C"/><path d="M341.75 796.55 341.04 796.02 341.32 795.64 341.03 796.01C338.8 794.35 336.49 792.62 334.55 790.55 332.33 788.18 330.89 785.67 330.3 783.12 330.01 781.86 329.9 780.12 331.04 778.99 332.2 777.84 334.06 777.99 335.41 778.52 337.81 779.47 339.85 781.59 340.98 784.35 342.09 787.06 341.88 793.7 341.79 795.67L341.75 796.55ZM333.38 779.05C332.75 779.05 332.14 779.22 331.7 779.66 330.82 780.53 331.02 782.07 331.21 782.91 331.76 785.31 333.12 787.67 335.23 789.91 336.92 791.71 338.91 793.26 340.89 794.74 341.02 790.96 340.88 786.57 340.11 784.7 339.07 782.18 337.23 780.24 335.06 779.39 334.55 779.19 333.95 779.05 333.37 779.05" stroke-width="0" fill="#00A99C"/><path d="M254.66 339.67C254.66 339.67 244.25 465.8 240.67 472.65 228.58 495.83 145.2 537.43 145.2 537.43L101.83 529.67 71.7 556.38 92.54 571.73 116.16 562C129.27 563.94 142.53 564.71 155.77 564.3 178.03 563.65 288.99 535.89 306.02 505.43 323.06 474.97 322.82 333.48 322.82 333.48L254.65 339.68Z" stroke-width="0" fill="#FCB370"/><path d="M326.23 387.01C326.23 387.01 356.1 275.63 313.92 246.2 271.75 216.77 243.4 369.52 243.4 369.52L326.23 387Z" stroke-width="0" fill="#039180"/><path d="M306.05 589.72 302.06 443.39 299.3 242.94 385.2 221.63 445.36 221.06 547.11 252.75 550.56 301.85C550.56 301.85 547.42 527.88 548.17 534.67 549.09 542.99 574.92 594.64 574.92 594.64 467.48 622.48 304.56 597.23 306.05 589.72" stroke-width="0" fill="#00A99C"/><g opacity="0.2"><g clip-path="url(#clippath-8)"><path d="M301.45 381.78 300 294.49 284.65 378.23 301.45 381.78Z" stroke-width="0"/></g></g><g opacity="0.2"><g clip-path="url(#clippath-9)"><path d="M484.89 390.13C482.21 389.69 471.28 386.46 471.28 386.46L496.1 301.41 457.68 394.86 482.7 403.98 484.88 390.14Z" stroke-width="0"/></g></g><path d="M494.44 320.65C494.44 320.65 477.58 460.83 465.85 474.23 446.03 496.88 346.35 558.37 346.35 558.37L295.21 542.11C291.63 541.05 287.73 541.8 284.89 544.1L251.06 571.53 254.45 574.22C255.91 575.38 257.99 575.56 259.64 574.68L264.94 571.85 259.1 577.92 261.05 579.47C262.99 581.01 265.64 581.51 268.05 580.78L283.4 576.17 269.4 586.1C272.67 588.69 277.13 589.5 281.17 588.21L303.62 581.09C319.16 584.17 334.96 585.96 350.82 586.44 377.53 587.3 502.11 539.6 524.63 506.71 547.14 473.82 567.4 339.38 567.4 339.38L494.44 320.64Z" stroke-width="0" fill="#FCB370"/><path d="M564.16 411.52C564.16 411.52 591.8 284.11 549.63 254.68 507.46 225.25 471.29 386.47 471.29 386.47L564.16 411.52Z" stroke-width="0" fill="#039180"/><path d="M231.09 582.25 308.94 579.95 391.55 577.52C391.55 577.52 391.55 577.56 391.55 577.57 391.69 583.7 385 588.84 376.59 589.06L294.05 591.49 246.84 592.88C246.77 592.88 246.69 592.88 246.62 592.88L246.61 592.88 115.22 596.75C106.89 596.94 100.04 592.18 99.9 586.1L231.09 582.23Z" stroke-width="0" fill="#1A2E35"/><path d="M112.79 596.22 259.38 591.9C261.91 591.81 263.89 590.09 263.81 588.06 263.8 587.68 263.71 587.3 263.55 586.95L193.93 439.37C192.15 435.15 187.16 432.37 181.59 432.52L34.91 436.85C32.43 436.92 30.47 438.6 30.53 440.59 30.54 441.01 30.65 441.42 30.83 441.81L100.45 589.39C102.25 593.6 107.23 596.36 112.79 596.24" stroke-width="0" fill="#1A2E35"/><g opacity="0.7"><g clip-path="url(#clippath-11)"><path d="M34.91 436.83 181.59 432.51C187.16 432.36 192.15 435.14 193.93 439.36L260.92 581.37 308.93 579.95 391.54 577.52 391.54 577.57C391.68 583.7 384.99 588.84 376.58 589.06L294.04 591.49 246.83 592.88C246.76 592.88 246.68 592.88 246.61 592.88L246.6 592.88 115.2 596.75C112.56 596.81 110.1 596.33 107.92 595.5 104.48 594.45 101.68 592.26 100.43 589.34L30.83 441.79C30.64 441.4 30.54 440.99 30.53 440.57 30.47 438.58 32.43 436.91 34.91 436.83" stroke-width="0" fill="#FFFFFF"/></g></g><path d="M125.35 513.83C128.73 520.91 135.3 525.65 140.05 524.51 144.8 523.37 145.89 516.79 142.6 509.69 139.31 502.59 132.68 497.96 127.92 499.11 123.16 500.25 121.92 506.57 125.34 513.84" stroke-width="0" fill="#FFFFFF"/><g opacity="0.3"><g clip-path="url(#clippath-12)"><line x1="263.61" y1="581.29" x2="260.92" y2="581.37" stroke="#000000" stroke-width="0" stroke-linecap="round" stroke-linejoin="round" fill="none"/><path d="M193.93 439.36 260.92 581.37 254.13 581.57 181.59 432.51C187.16 432.37 192.16 435.14 193.93 439.36" stroke-width="0"/></g></g><path d="M447.92 231.68C447.92 231.68 432.36 200.89 442.44 149.88 436.27 147 444.43 134.23 444.17 129.13L379.8 177.12C382.79 192.89 379.76 224.13 377.49 237.4L402.31 259.95 447.91 231.67Z" stroke-width="0" fill="#FCB370"/><g opacity="0.2"><g clip-path="url(#clippath-13)"><path d="M381.48 186.57 418.81 183.6C412.52 194.67 408.09 204.39 380.76 205.51 380.76 205.51 380.53 191.85 381.48 186.57" stroke-width="0"/></g></g><path d="M355.77 34.65C344.3 48.17 339.31 87.2 365.47 85.96 391.63 84.72 375.48 11.41 355.77 34.65" stroke-width="0" fill="#004254"/><path d="M463.42 107.28C448.95 148.35 441.61 171.8 414.41 187.04 300.5 233.26 312.9 38.19 400.98 27.02 445.93 22.52 477.9 66.21 463.43 107.28" stroke-width="0" fill="#FCB370"/><path d="M497.15 55.2C491.25 15.15 426.19 17.16 406.72 24.34 403.81 25.41 433.11 52.33 431.25 50.98L445.77 61.13C466.22 71.49 429.33 104.46 446.91 140.23 485.83 135.2 500.15 84.41 497.15 55.2" stroke-width="0" fill="#004254"/><path d="M470.01 146.83C458.75 167.81 417.93 173.36 428.53 140.97 436.87 109.1 486.34 109.32 470.01 146.83" stroke-width="0" fill="#FCB370"/><path d="M401.1 102.47C398.3 112.6 388.02 109.46 390.99 99.48 393.79 89.35 404.06 92.49 401.1 102.47" stroke-width="0" fill="#1A2E35"/><path d="M357.7 91.15C354.9 101.28 344.62 98.14 347.59 88.16 350.39 78.03 360.66 81.17 357.7 91.15" stroke-width="0" fill="#1A2E35"/><path d="M372.29 92.71C372.29 92.71 352.7 110.11 345.89 117.53 350.31 124.6 361.27 125.05 361.27 125.05L372.29 92.72Z" stroke-width="0" fill="#FD8735"/><path d="M416.35 85.13C415.63 85.21 414.88 84.91 414.42 84.27 408.92 76.74 401.26 77.01 401.18 77.01 392.87 71.51 410.16 70.33 417.78 81.85 418.74 83.08 417.89 85 416.35 85.13" stroke-width="0" fill="#1A2E35"/><g opacity="0.2"><g clip-path="url(#clippath-14)"><path d="M441.1 140.57C441.01 140.57 440.91 140.56 440.82 140.53 440.33 140.37 440.06 139.85 440.21 139.36 442.18 133.16 449.52 127.1 455.6 126.65 458.43 126.45 462.19 127.24 464.59 132.14 464.82 132.6 464.63 133.16 464.16 133.39 463.69 133.61 463.14 133.43 462.91 132.96 461.35 129.77 458.93 128.27 455.74 128.51 450.42 128.9 443.73 134.44 441.99 139.92 441.86 140.32 441.5 140.57 441.1 140.57" stroke-width="0"/></g></g><path d="M344.59 67.87C343.16 67.16 343.12 64.92 344.56 64.19 354.63 58.68 363.05 63.24 363.45 63.39 365.81 64.63 363.87 68.38 361.5 67.07 360.4 65.29 352.28 65.45 344.58 67.87" stroke-width="0" fill="#1A2E35"/><path d="M480.36 119.28C480.36 119.28 451.49 78.05 416.24 58.83 377.22 37.55 348.62 43.88 348.62 43.88 348.62 43.88 341.93 37.33 346.23 33.62 350.53 29.91 354.53 33.16 354.53 33.16 354.53 33.16 396.39-11.44 446.38 2.81 496.37 17.07 513.01 47.94 510.98 50.18 500.7 61.58 494.8 43.89 494.8 43.89 494.8 43.89 506.95 60.1 492.95 93.21L488.81 106.17C488.81 106.17 492.24 121.3 480.36 119.28" stroke-width="0" fill="#E34C07"/><path d="M415.41 56.97C410.07 55.16 406.12 49.82 405.95 44.19 405.84 40.48 407.2 36.92 408.14 33.33 409.09 29.74 409.59 25.76 407.9 22.46 406.45 19.64 403.41 17.71 400.25 17.6 397.08 17.49 393.92 19.2 392.27 21.92 393.46 19.69 392.64 16.82 390.98 14.91 389.32 13.01 386.99 11.85 384.72 10.74 380.63 8.75 376.05 6.71 371.69 8.01 367.33 9.31 364.57 13.63 363.05 17.92 361.09 23.45 360.57 29.66 362.56 35.18 365.23 42.57 372.07 47.83 379.44 50.51 386.82 53.19 394.79 53.67 402.63 54.12" stroke-width="0" fill="#004254"/><g opacity="0.2"><g clip-path="url(#clippath-16)"><path d="M496.41 46.78C496.41 46.78 490.72 27.82 467.28 18.32L496.41 46.78Z" stroke-width="0"/></g></g><g opacity="0.3"><g clip-path="url(#clippath-17)"><path d="M486.04 105.37C471.94 77.7 442.46 49.76 412.68 35.87L413.07 35.02C443.02 49 472.68 77.1 486.87 104.95L486.04 105.37Z" stroke-width="0"/></g></g><path d="M364.6 140.61C367.66 146.01 370.33 151.63 372.58 157.41 373.64 157.19 374.74 156.99 375.79 156.71 390.29 153.46 395.97 147.19 397.8 141.17 398.64 138.21 398.78 135.1 398.19 132.08 397.9 130.37 397.37 128.71 396.63 127.14 389.96 133.46 376.72 137.53 369.52 139.4 366.38 140.06 364.6 140.61 364.6 140.61" stroke-width="0" fill="#1A2E35"/><path d="M369.36 139.3 371.85 144.2C385.47 141.11 394.65 137.15 398.02 131.98 397.73 130.27 397.2 128.61 396.46 127.04 389.75 133.43 376.54 137.43 369.35 139.3" stroke-width="0" fill="#FFFFFF"/><path d="M375.64 156.61C390.14 153.36 395.82 147.09 397.65 141.07 392.16 142.4 386.95 144.7 382.26 147.85 379.19 150.01 376.88 153.07 375.64 156.61" stroke-width="0" fill="#DC5753"/><path d="M195.49 749.26 101.51 767.25 85.21 728.75 183.54 694.86 195.49 749.26Z" stroke-width="0" fill="#FCB370"/><path d="M60.11 788.13 46.58 762.14C46.58 762.14 50.06 757.15 47.35 751.55 45.83 748.41 37.74 743.39 37.74 743.39L0 672.21C0.1 672.16 4.87 669.61 7.4 669.28 10.48 668.88 13.25 668.84 15.75 669.09 24.47 669.99 31.51 676.56 36.54 681.6 44.97 690.05 73.82 710.74 73.82 710.74 73.82 710.74 81.94 715.56 94.4 714.83 101.35 714.42 107 716.83 109.03 719.71 113.16 725.58 111.27 731.02 105.87 734.99L99.6 739.59C98.4 746.37 101.92 752.59 109.05 755.08 109.05 755.08 123.97 764.29 116.85 767.08 112.78 768.67 94.33 775.08 79.91 780.59 76.55 781.87 73.37 783.09 70.58 784.15L70.58 784.15C64.39 786.51 60.13 788.13 60.13 788.13" stroke-width="0" fill="#1A2E35"/><path d="M58.92 699.25C59.38 699.42 59.67 699.9 59.63 700.39 59.46 702.65 58.72 704.86 57.35 706.81 56.63 707.83 54.87 706.78 55.6 705.74 56.81 704.01 57.48 702.07 57.63 700.09 57.68 699.43 58.28 699.01 58.9 699.24 58.9 699.24 58.91 699.24 58.92 699.24" stroke-width="0" fill="#00A99C"/><path d="M64.78 703.17C65.24 703.34 65.53 703.82 65.49 704.31 65.32 706.57 64.58 708.78 63.21 710.73 62.49 711.76 60.73 710.71 61.46 709.67 62.67 707.94 63.34 706 63.49 704.02 63.54 703.36 64.14 702.94 64.76 703.17 64.76 703.17 64.77 703.17 64.78 703.17" stroke-width="0" fill="#00A99C"/><path d="M70.54 707.38C71 707.55 71.29 708.03 71.25 708.52 71.08 710.78 70.34 712.99 68.97 714.94 68.25 715.97 66.49 714.92 67.22 713.88 68.43 712.15 69.1 710.21 69.25 708.23 69.3 707.57 69.9 707.15 70.52 707.38 70.52 707.38 70.53 707.38 70.54 707.38" stroke-width="0" fill="#00A99C"/><g opacity="0.2"><g clip-path="url(#clippath-18)"><path d="M47.35 751.55C45.83 748.41 37.74 743.39 37.74 743.39L0 672.21C0.1 672.16 4.87 669.61 7.4 669.28 8.82 669.1 10.15 669.01 11.43 668.97L72.11 783.55C71.6 783.74 71.04 783.96 70.56 784.14L70.56 784.14C64.37 786.5 60.11 788.12 60.11 788.12L46.58 762.13C46.58 762.13 50.06 757.14 47.35 751.54" stroke-width="0" fill="#FFFFFF"/></g></g><path d="M69.45 709.24 69.6 708.38C69.99 706.44 71.36 699.95 73.09 697.58 74.84 695.16 77.32 693.58 79.88 693.24 81.3 693.05 83.15 693.34 84.01 694.74 84.66 695.8 84.57 697.29 83.74 698.93 82.55 701.28 80.57 703.37 77.85 705.13 75.46 706.68 72.82 707.8 70.26 708.89L69.45 709.23ZM80.7 694.13C80.46 694.13 80.23 694.15 80.01 694.18 77.7 694.49 75.45 695.93 73.85 698.14 72.66 699.77 71.48 704 70.7 707.7 72.97 706.73 75.28 705.71 77.35 704.36 79.93 702.68 81.8 700.72 82.92 698.52 83.31 697.75 83.87 696.29 83.22 695.24 82.72 694.42 81.69 694.13 80.7 694.13" stroke-width="0" fill="#00A99C"/><path d="M82.93 718.2C81.3 718.2 79.59 717.8 77.97 717 75.36 715.71 71.1 710.6 69.86 709.07L69.31 708.39 70.18 708.31 70.22 708.78 70.22 708.31C72.98 708.08 75.83 707.84 78.67 708.1 81.9 708.4 84.63 709.32 86.77 710.85 88.26 711.91 89.04 713.18 88.96 714.43 88.85 716.07 87.36 717.18 86 717.68 85.04 718.04 83.99 718.21 82.92 718.21M71.14 709.17C73.56 712.09 76.57 715.28 78.38 716.17 80.83 717.38 83.48 717.6 85.68 716.81 86.76 716.41 87.95 715.57 88.02 714.38 88.1 713.14 86.93 712.12 86.23 711.62 84.22 710.19 81.65 709.32 78.58 709.04 76.12 708.81 73.61 708.98 71.15 709.18" stroke-width="0" fill="#00A99C"/><path d="M549.02 695.75C568.43 662.72 611.86 573.47 517.95 559.11 424.04 544.74 116.35 702.24 116.35 702.24L137.88 761.21 426.99 706.86C426.99 706.86 388.81 761.09 436.94 757.25 506.86 748.25 523.2 730.97 549.02 695.75" stroke-width="0" fill="#003A49"/><g opacity="0.2"><g clip-path="url(#clippath-19)"><path d="M420.15 708.66 499.1 681.24C499.1 681.24 433.45 724.11 409.08 729.69L420.16 708.66Z" stroke-width="0"/></g></g></g></svg>