<svg viewBox="0 0 266.19 266.19" xmlns="http://www.w3.org/2000/svg" xmlns:xlink="http://www.w3.org/1999/xlink" id="Layer_1" overflow="hidden"><defs></defs><circle cx="133.09" cy="133.09" r="133.09" stroke-width="0" fill="#FFA500"/><g><path d="M58.79 81.76C60.9 75.8 65.53 72.13 71.1 70.31 79.22 67.65 87.54 65.09 95.97 63.97 113.78 61.61 131.67 62.03 149.09 66.99 154.58 68.55 159.85 71.23 164.83 74.08 168.95 76.44 170.83 80.48 170.72 85.53 170.51 95 170.66 104.48 170.66 113.96L170.66 117.58 163.99 117.58 163.99 95.13C131.16 108.14 98.68 107.92 65.9 95.39 65.9 102.6 65.64 110.32 66.1 117.99 66.2 119.7 68.52 121.97 70.35 122.74 75.95 125.12 81.67 127.52 87.58 128.75 95.75 130.44 104.13 131.06 112.69 132.17L112.69 138.39C96.53 137.87 80.72 136.5 65.9 128.2 65.9 135.25 65.61 141.99 66.1 148.68 66.23 150.41 68.49 152.41 70.25 153.53 76.61 157.57 83.85 159.38 91.2 160.46 98.29 161.5 105.46 162.06 112.73 162.84L112.73 168.75C104.24 169.92 79.25 167.23 65.89 159.09 65.89 162.34 65.89 165.25 65.89 168.17 65.89 171.08 66.13 174.01 65.83 176.89 65.45 180.56 67.17 182.77 70.1 184.47 77.01 188.48 84.61 190.38 92.39 191.51 99.07 192.48 105.82 192.93 112.73 193.64L112.73 200.19C108.41 199.92 104.16 199.79 99.94 199.36 89 198.24 78.2 196.49 68.38 191.1 64.37 188.9 60.74 186.29 58.82 181.91L58.82 81.75ZM118.28 98.05C123.51 97.43 132.65 96.82 141.58 95.11 147.5 93.98 153.37 91.78 158.81 89.13 165.47 85.89 165.25 81.72 158.73 78.02 156.78 76.91 154.69 76.01 152.59 75.23 143.34 71.8 133.68 70.42 123.9 69.85 107.8 68.9 91.89 69.95 76.54 75.37 73.55 76.43 70.64 78 68.06 79.85 64.94 82.09 64.97 84.95 67.94 87.35 69.75 88.81 71.87 89.99 74.01 90.91 86.9 96.47 100.58 97.5 118.28 98.04Z" stroke-width="0" fill="#FFFFFF"/><path d="M207.4 194.85C204.89 201.51 199.99 203.7 193.04 203.59 175.18 203.3 157.32 203.5 139.45 203.49 130.17 203.49 126.09 199.38 126.09 190.1 126.09 174.39 126.08 158.67 126.09 142.96 126.09 134.01 130.43 129.66 139.33 129.65 157.3 129.65 175.27 129.79 193.24 129.57 200.2 129.49 205.06 131.88 207.4 138.63L207.4 194.85ZM168.95 197.14 201.33 197.14 201.33 182.89 168.95 182.89 168.95 197.14ZM168.98 158.41 201.39 158.41 201.39 144.29 168.98 144.29 168.98 158.41ZM201.42 163.56 169.04 163.56 169.04 177.81 201.42 177.81 201.42 163.56ZM164.04 144.24 131.77 144.24 131.77 158.4 164.04 158.4 164.04 144.24ZM131.75 177.8 163.9 177.8 163.9 163.52 131.75 163.52 131.75 177.8ZM164.02 182.83 131.74 182.83 131.74 197.15 164.02 197.15 164.02 182.83Z" stroke-width="0" fill="#FFFFFF"/></g></svg>