<svg viewBox="0 0 266.19 266.19" xmlns="http://www.w3.org/2000/svg" xmlns:xlink="http://www.w3.org/1999/xlink" id="Layer_1" overflow="hidden"><defs></defs><circle cx="133.09" cy="133.09" r="133.09" stroke-width="0" fill="#FFA500"/><g><path d="M126.98 115.13C118.38 108.53 115.94 102.71 118.48 95.28 120.61 89.04 126.65 84.88 133.43 84.97 140.12 85.06 145.9 89.45 147.86 95.93 150.09 103.28 147.51 109.12 139.14 114.99 150.75 146.87 162.42 178.9 174.49 212.05 160.89 204.72 147.61 200.89 133.26 200.89 118.87 200.89 105.53 204.58 91.68 212.12 97.96 194.95 103.83 178.97 109.65 162.98 115.47 147.01 121.24 131.02 126.99 115.14ZM133.09 128.44C124.96 150.73 117.29 171.78 109.28 193.76 125.55 189.6 140.83 189.63 156.9 193.73 148.86 171.68 141.17 150.58 133.09 128.44Z" stroke-width="0" fill="#FFFFFF"/><path d="M70.88 54.08C73.63 56.1 76.13 57.95 78.71 59.84 60.93 86.9 60.93 113.79 78.62 140.75 77.86 141.42 77.19 142.08 76.44 142.64 74.69 143.96 72.9 145.23 71.14 146.5 51.69 124.17 48.73 82.17 70.88 54.08Z" stroke-width="0" fill="#FFFFFF"/><path d="M187.27 59.96C190.16 57.83 192.55 56.07 194.91 54.33 214.98 76.42 217.11 120.49 195.08 146.55 192.6 144.7 190.11 142.85 187.28 140.73 196.05 128.58 200.7 115.23 200.72 100.46 200.74 85.65 196.16 72.26 187.27 59.95Z" stroke-width="0" fill="#FFFFFF"/><path d="M96.08 72.74C98.56 74.59 101.05 76.45 103.78 78.48 94.18 93.05 94.25 107.55 103.74 122.25 101.04 124.24 98.56 126.08 96.1 127.89 83.37 114.88 83.38 86.36 96.08 72.74Z" stroke-width="0" fill="#FFFFFF"/><path d="M170.13 127.97C167.53 126.01 165.16 124.23 162.48 122.22 171.85 107.73 172.11 93.23 162.39 78.52 165.01 76.56 167.5 74.69 169.98 72.83 182.74 84.66 182.94 113.57 170.13 127.98Z" stroke-width="0" fill="#FFFFFF"/></g></svg>