<svg viewBox="0 0 266.19 266.19" xmlns="http://www.w3.org/2000/svg" xmlns:xlink="http://www.w3.org/1999/xlink" id="Layer_1" overflow="hidden"><defs></defs><circle cx="133.09" cy="133.09" r="133.09" stroke-width="0" fill="#E34C07"/><g><path d="M128.47 172.03C122.83 172.03 117.06 171.91 111.31 172.06 104.79 172.23 99.92 169.7 96.2 164.29 92.95 159.55 88.16 163.63 83.67 161.62 83.67 166.67 83.49 170.57 83.79 174.43 83.87 175.46 85.24 176.63 86.3 177.31 92.31 181.17 94.72 186.7 92.93 192.89 91.17 198.94 85.84 203.02 79.71 202.99 73.85 202.97 68.28 198.84 66.61 193.28 64.72 187 67.3 181.22 73.34 177.19 74.57 176.37 75.6 174.42 75.71 172.92 76.02 168.55 75.92 164.14 75.79 159.74 75.67 155.69 77.57 154.02 81.48 154.11 85.39 154.19 89.3 154.13 93.61 154.13L93.61 137.19C86.54 137.19 79.51 137.01 72.51 137.35 71.21 137.41 69.8 139.44 68.81 140.82 65 146.15 58.59 148.35 52.63 146.19 46.74 144.05 43.1 138.1 43.75 131.67 44.37 125.49 49.37 120.38 55.79 119.7 61.65 119.08 66.34 121.4 69.17 126.54 70.44 128.84 71.83 129.52 74.3 129.46 80.69 129.31 87.08 129.41 93.73 129.41L93.73 112.25C89.69 112.25 85.68 112.19 81.68 112.27 77.59 112.35 75.48 110.67 75.78 106.36 75.93 104.17 75.71 101.96 75.82 99.77 76.08 94.63 75.93 90.39 70.55 86.81 64.27 82.64 64.62 73.13 69.95 67.65 75.4 62.04 84.38 62.08 89.72 67.75 94.96 73.31 95.33 83.08 88.96 86.91 81.34 91.5 84.25 97.64 83.73 104.08 87.21 104.08 90.32 104.23 93.39 103.99 94.37 103.91 95.61 102.99 96.16 102.1 99.86 96.14 105.33 93.89 112.1 94.01 117.7 94.1 123.3 94.03 129.37 94.03 129.37 88.59 129.58 83.75 129.23 78.94 129.14 77.7 127.5 76.29 126.24 75.47 120.52 71.74 118.1 65.31 120.31 59.12 122.48 53.03 128.61 49.4 135.26 50.26 141.48 51.06 146.37 56.13 146.88 62.61 147.32 68.32 144.67 72.44 140.03 75.66 138.67 76.6 137.41 78.59 137.27 80.2 136.89 84.53 137.14 88.92 137.14 94.03 142.77 94.03 148.04 94.14 153.3 94 160.54 93.81 166.53 95.78 170.49 102.43 171.11 103.47 173.29 103.85 174.81 104.03 177.11 104.29 179.47 104.1 182.49 104.1 182.49 99.82 182.67 95.81 182.36 91.83 182.28 90.83 180.79 89.75 179.72 89.03 173.93 85.16 171.53 79.28 173.43 73.25 175.33 67.19 180.57 63.39 186.87 63.5 192.85 63.61 198.1 67.62 199.79 73.38 201.55 79.37 198.93 85.34 193.33 89.2 192 90.12 190.86 92.2 190.73 93.83 190.37 98.2 190.59 102.61 190.61 107 190.62 110.5 188.86 112.21 185.41 112.23 181.2 112.25 176.99 112.23 172.51 112.23L172.51 129.38C179.85 129.38 186.88 129.56 193.89 129.22 195.18 129.16 196.62 127.18 197.56 125.8 201.96 119.28 210.52 117.54 216.85 122.09 223.01 126.52 224.36 135.33 219.81 141.4 215.08 147.72 206.27 148.83 200.24 143.86 199.76 143.46 199.08 143.09 198.9 142.57 196.76 136.25 191.61 137 186.6 137.14 181.93 137.27 177.26 137.17 171.99 137.17L171.99 154.12C176.16 154.12 180.01 154.1 183.86 154.12 189.37 154.16 190.33 155.15 190.4 160.79 190.43 162.99 190.43 165.19 190.4 167.38 190.35 172.14 190.02 176.21 195.49 179.52 201.88 183.39 201.62 193.02 196.35 198.63 191.08 204.23 182.51 204.45 176.92 199.11 171.36 193.8 170.56 184.08 176.84 180.03 182.99 176.07 182.41 171.19 182.33 165.72 182.32 164.79 182.24 163.87 182.17 162.34 176.93 162.56 171.93 160.4 167.69 166.47 165.59 169.48 160.39 171.19 156.35 171.76 150.22 172.63 143.88 171.99 137.02 171.99 137.02 177.33 136.85 182.3 137.15 187.24 137.22 188.36 138.7 189.67 139.85 190.4 145.57 194.06 148.04 200.02 146.2 206.2 144.49 211.94 138.61 216.2 132.68 216.01 126.31 215.81 120.81 211.03 119.51 204.56 118.43 199.22 120.86 193.63 126.16 190.69 128.67 189.3 129.31 187.68 129.19 185.1 129.02 181.34 129.12 177.57 129.07 173.8 129.07 173.37 128.78 172.94 128.45 172.01ZM164.23 133.34C164.23 125.97 164.31 118.59 164.21 111.22 164.13 105.59 161.34 102.43 156.02 102.38 140.81 102.24 125.59 102.25 110.37 102.38 105.17 102.42 102.25 105.49 102.22 110.7 102.14 125.76 102.14 140.82 102.22 155.88 102.25 161.42 105.13 164.33 110.65 164.36 125.71 164.44 140.77 164.44 155.83 164.36 161.55 164.33 164.25 161.33 164.25 155.46 164.25 148.09 164.25 140.71 164.24 133.34ZM181.04 77.13C181.18 80.85 183.2 82.89 186.61 82.89 190.06 82.89 192.21 80.67 192.13 77.21 192.06 74.05 190.18 71.92 186.79 71.86 183.24 71.8 181.34 73.73 181.04 77.13ZM79.86 183.89C76.22 184.23 74.28 186.28 74.4 189.72 74.51 192.96 76.63 195 79.85 194.99 83.25 194.98 85.46 193 85.42 189.41 85.38 185.85 83.26 184.1 79.85 183.89ZM85.34 77.2C84.98 73.86 83.16 71.82 79.59 71.86 76.23 71.9 74.27 73.97 74.15 77.14 74.03 80.6 76.12 82.83 79.62 82.86 83.06 82.89 85.08 80.9 85.33 77.2ZM133.12 197.06C129.73 197.49 127.62 199.37 127.72 202.86 127.81 206.13 129.93 208.12 133.14 208.15 136.57 208.18 138.82 206.14 138.82 202.64 138.82 199.17 136.67 197.3 133.12 197.05ZM133.17 69.5C136.76 69.16 138.78 67.13 138.65 63.7 138.53 60.51 136.41 58.41 133.17 58.42 129.76 58.43 127.54 60.37 127.57 63.98 127.6 67.56 129.75 69.28 133.17 69.51ZM209.32 139.07C212.6 138.61 214.58 136.74 214.45 133.18 214.32 129.82 212.18 127.91 209.04 127.89 205.6 127.87 203.41 130.08 203.45 133.53 203.49 136.96 205.6 138.9 209.32 139.07ZM186.87 195.09C190.14 194.66 192.44 192.82 192.35 189.37 192.26 185.99 190.14 183.85 186.57 183.97 183.28 184.08 181.32 186 181.26 189.31 181.19 192.89 183.33 194.65 186.88 195.09ZM57.45 139.08C60.97 138.72 63.09 136.8 63.04 133.35 62.99 129.89 60.73 127.79 57.31 127.89 54.16 127.99 52.07 129.96 52.05 133.3 52.02 136.83 54.08 138.65 57.45 139.08Z" stroke-width="0" fill="#FFFFFF"/><path d="M133.54 114.76C137.77 114.76 141.99 114.81 146.22 114.75 149.86 114.69 151.8 116.26 151.79 120.04 151.76 128.81 151.76 137.57 151.79 146.34 151.8 150.02 150.08 151.83 146.37 151.82 137.6 151.79 128.84 151.79 120.07 151.82 116.33 151.82 114.7 149.95 114.72 146.28 114.77 137.67 114.78 129.06 114.72 120.45 114.69 116.53 116.45 114.68 120.39 114.74 124.77 114.82 129.16 114.76 133.54 114.76ZM143.45 143.56 143.45 123.11 123.08 123.11 123.08 143.56 143.45 143.56Z" stroke-width="0" fill="#FFFFFF"/></g></svg>