<svg viewBox="0 0 266.19 266.19" xmlns="http://www.w3.org/2000/svg" xmlns:xlink="http://www.w3.org/1999/xlink" id="Layer_1" overflow="hidden"><defs></defs><circle cx="133.09" cy="133.09" r="133.09" stroke-width="0" fill="#00BD84"/><g><path d="M119.47 176.64C117.29 176.64 115.77 176.64 114.25 176.64 98.74 176.64 83.23 176.66 67.73 176.63 61.01 176.61 58.18 173.8 58.17 167.12 58.15 137.8 58.14 108.47 58.17 79.15 58.17 72.39 61.15 69.5 68.11 69.6 111.5 70.2 154.88 69.9 198.27 69.6 205.1 69.55 208.01 72.46 208.02 79.18 208.05 108.5 208.05 137.83 208.02 167.15 208.02 173.82 205.18 176.62 198.44 176.63 182.93 176.67 167.42 176.64 151.92 176.64 150.4 176.64 148.88 176.64 146.83 176.64 147.3 182.81 146.29 188.87 152.34 192.75 153 193.17 153.71 194.46 153.51 195.03 153.27 195.7 152.1 196.12 151.26 196.48 150.78 196.68 150.15 196.55 149.58 196.55 138.58 196.55 127.59 196.6 116.59 196.49 115.23 196.48 113.88 195.58 112.52 195.09 113.31 194.1 113.97 192.98 114.9 192.15 119.45 188.07 118.97 182.62 119.46 176.65ZM203.79 151.69C203.87 150.06 203.97 148.94 203.97 147.83 203.97 125.29 203.99 102.75 203.97 80.21 203.97 76.53 200.99 73.56 197.31 73.55 154.48 73.55 111.64 73.55 68.81 73.55 63.23 73.55 62.22 74.57 62.21 80.25 62.2 102.65 62.2 125.06 62.21 147.46 62.21 148.81 62.36 150.17 62.45 151.68L203.77 151.68ZM62.21 156.01C62.21 159.37 62.21 162.31 62.21 165.25 62.21 172.13 62.72 172.63 69.74 172.63 112.02 172.63 154.29 172.63 196.57 172.63 197.84 172.63 199.25 172.91 200.33 172.45 201.62 171.9 203.52 170.76 203.6 169.75 203.95 165.23 203.75 160.66 203.75 156.01L62.21 156.01ZM123.53 176.81C123.41 179.29 123.31 181.32 123.21 183.4L142.99 183.4C142.84 180.96 142.72 178.93 142.6 176.81L123.54 176.81ZM145.36 192.45C144.447 189.337 142.65 187.773 139.97 187.76 135.33 187.75 130.69 187.96 126.07 187.69 122.47 187.48 120.91 188.81 120.99 192.45L145.36 192.45Z" stroke="#FFFFFF" stroke-width="4" stroke-miterlimit="10" fill="#FFFFFF"/><path d="M74.89 114.11C75.49 113.24 75.47 112.08 74.83 111.23 73.54 109.51 72.25 107.85 71.21 106.04 66.89 98.46 70.16 92.83 78.83 92.9 80.91 92.92 82.98 93.24 85.11 93.52 86.19 93.66 87.24 93.08 87.69 92.08 89.96 87.03 91.2 80.67 98.39 80.99 104.78 81.28 106.07 87.09 108.18 92.04 108.6 93.03 109.64 93.62 110.71 93.5 116.14 92.91 122.29 90.71 125.5 97.22 128.24 102.77 124.26 106.97 120.94 111.19 120.26 112.06 120.24 113.27 120.89 114.16 122.16 115.9 123.47 117.63 124.52 119.5 128.62 126.85 125.34 132.53 116.99 132.57 114.93 132.57 112.87 132.29 110.84 132.04 109.8 131.91 108.79 132.46 108.33 133.41 107.09 135.98 105.96 138.55 104.39 140.82 100.77 146.05 95.13 146.06 91.52 140.85 89.94 138.57 88.81 135.98 87.58 133.44 87.13 132.52 86.16 131.97 85.14 132.06 82.53 132.31 79.88 132.65 77.27 132.48 70.38 132.02 67.54 127.16 70.52 120.97 71.67 118.58 73.29 116.43 74.89 114.11ZM103.13 95.8C104.19 95.16 104.65 93.78 104.08 92.69 104.03 92.6 103.98 92.52 103.93 92.44 102.65 90.67 101.32 88.93 99.98 87.21 99.01 85.96 97.14 85.93 96.13 87.14 94.75 88.8 93.37 90.46 92.07 92.18 91.87 92.44 91.74 92.76 91.64 93.1 91.33 94.15 91.78 95.29 92.71 95.87 96.24 98.05 99.67 97.91 103.13 95.81ZM115.01 108.72C116 109.31 117.27 109.1 118.05 108.25 118.92 107.31 119.82 106.3 120.4 105.12 121.33 103.24 122.5 100.53 121.78 99.07 121.13 97.76 118.08 97.34 116.02 97.14 114.71 97.02 113.37 97.25 112.07 97.49 110.92 97.7 110.05 98.7 110.06 99.88 110.08 103.83 111.64 106.69 115 108.71ZM110.12 125.51C110.04 126.85 111.04 128.01 112.38 128.13 114.46 128.31 116.46 128.49 118.43 128.37 122.16 128.13 123.34 126.02 121.6 122.63 120.68 120.83 119.46 119.19 118.26 117.53 117.45 116.43 115.9 116.19 114.8 117 110.96 119.83 110.42 120.82 110.13 125.51ZM80.85 108.62C84.11 106.56 85.83 103.87 85.82 99.95 85.82 98.65 84.82 97.56 83.52 97.47 81.28 97.31 78.98 97.13 76.7 97.21 73.75 97.32 72.62 99.39 73.78 101.88 74.78 104.03 76.17 105.99 77.5 107.93 78.25 109.03 79.73 109.33 80.86 108.62ZM80.93 117C79.88 116.29 78.47 116.5 77.65 117.46 75.16 120.37 72.08 123.15 74.15 126.62 76.38 130.36 81.49 128.47 85.42 127.53 85.63 127.48 85.78 127.13 85.95 126.92 85.33 120.63 85.26 119.9 80.94 116.99ZM103.01 129.68C99.55 127.7 96.27 127.61 92.83 129.66 91.75 130.3 91.29 131.73 91.84 132.87 92.78 134.82 93.71 136.83 94.92 138.64 96.76 141.39 99.23 141.31 101.03 138.61 102.23 136.81 103.14 134.82 104.05 132.88 104.6 131.71 104.14 130.32 103.02 129.67ZM88.79 112.95C88.8 117.26 94.21 122.86 98.15 122.64 102.34 122.41 107.12 117.24 107.13 112.95 107.13 108.26 101.87 102.61 97.74 102.86 93.25 103.13 88.78 108.17 88.8 112.95Z" stroke="#FFFFFF" stroke-width="2" stroke-miterlimit="10" fill="#FFFFFF"/><path d="M168.23 84.41C176.53 84.41 184.83 84.33 193.12 84.5 193.22 84.5 193.33 84.51 193.43 84.53 195.44 84.86 195.6 87.8 193.66 88.44 193.46 88.51 193.26 88.55 193.05 88.55 176.32 88.7 159.58 88.69 142.84 88.56 142.75 88.56 142.67 88.56 142.58 88.54 140.55 88.25 140.35 85.29 142.3 84.63 142.5 84.56 142.71 84.52 142.91 84.52 151.34 84.33 159.78 84.42 168.22 84.42Z" stroke="#FFFFFF" stroke-width="4" stroke-miterlimit="10" fill="#FFFFFF"/><path d="M167.78 140.99C159.61 140.99 151.43 141.08 143.26 140.9 143.11 140.9 142.96 140.88 142.81 140.85 140.69 140.43 140.63 137.29 142.77 136.96 142.86 136.95 142.95 136.94 143.05 136.94 159.68 136.8 176.31 136.8 192.94 136.94 193.03 136.94 193.13 136.94 193.22 136.96 195.37 137.27 195.31 140.44 193.18 140.85 193.03 140.88 192.88 140.9 192.73 140.9 184.42 141.08 176.1 140.99 167.78 140.99Z" stroke="#FFFFFF" stroke-width="4" stroke-miterlimit="10" fill="#FFFFFF"/><path d="M167.92 102.08C176.22 102.08 184.53 101.99 192.83 102.17 192.93 102.17 193.03 102.18 193.13 102.2 195.22 102.51 195.19 105.65 193.1 105.96 192.98 105.98 192.87 105.99 192.75 105.99 176.14 106.12 159.54 106.11 142.93 105.99 142.83 105.99 142.72 105.99 142.62 105.97 140.7 105.68 140.55 102.86 142.41 102.29 142.61 102.23 142.81 102.19 143.02 102.19 151.32 102 159.62 102.09 167.93 102.09Z" stroke="#FFFFFF" stroke-width="4" stroke-miterlimit="10" fill="#FFFFFF"/><path d="M167.95 123.59C159.65 123.59 151.34 123.68 143.05 123.5 142.83 123.5 142.6 123.45 142.38 123.38 140.57 122.8 140.69 120.09 142.57 119.8 142.67 119.78 142.78 119.78 142.88 119.77 159.62 119.66 176.37 119.65 193.11 119.77 193.21 119.77 193.32 119.77 193.42 119.8 195.3 120.09 195.39 122.82 193.57 123.38 193.33 123.45 193.09 123.5 192.86 123.5 184.56 123.68 176.26 123.59 167.96 123.59Z" stroke="#FFFFFF" stroke-width="4" stroke-miterlimit="10" fill="#FFFFFF"/><path d="M133.1 166.43C131.98 166.43 130.79 166.68 129.77 166.36 129.55 166.29 129.34 166.21 129.14 166.11 127.57 165.36 127.6 162.99 129.27 162.5 129.36 162.47 129.44 162.46 129.53 162.44 131.86 162.13 134.29 162.13 136.62 162.44 136.71 162.45 136.8 162.47 136.89 162.5 138.56 163 138.61 165.36 137.04 166.11 136.84 166.21 136.63 166.29 136.42 166.36 135.4 166.68 134.21 166.43 133.09 166.43Z" stroke="#FFFFFF" stroke-width="4" stroke-miterlimit="10" fill="#FFFFFF"/></g></svg>