<svg viewBox="0 0 266.19 266.19" xmlns="http://www.w3.org/2000/svg" xmlns:xlink="http://www.w3.org/1999/xlink" id="Layer_1" overflow="hidden"><defs></defs><circle cx="133.09" cy="133.09" r="133.09" stroke-width="0" fill="#004254"/><g><path d="M173.91 168.83C168.53 176.71 161.31 179.95 152.04 179.39 152.04 187.98 152.04 196.24 152.04 204.5 152.04 209.2 151.62 209.63 146.93 209.63 120.89 209.63 94.84 209.66 68.8 209.63 59.39 209.62 53.89 204.06 53.89 194.64 53.88 160.82 53.88 127 53.89 93.18 53.89 83.89 59.3 78.44 68.55 78.39 78.9 78.34 89.25 78.38 100.26 78.38 100.26 75.23 100.38 72.31 100.23 69.4 100.06 66.15 101.17 64.59 104.68 64.81 108.42 65.04 112.21 64.67 115.94 64.98 117.11 65.08 118.17 66.52 119.28 67.35 118.22 68.23 117.22 69.76 116.08 69.88 112.77 70.22 109.39 70 105.77 70L105.77 78.37C107.99 78.37 110.21 78.05 112.27 78.48 113.6 78.76 114.71 80.14 115.91 81.03 114.73 81.92 113.65 83.31 112.35 83.58 110.28 84.01 108.05 83.7 105.48 83.7 105.48 89.03 105.66 93.93 105.36 98.81 105.27 100.21 103.79 101.52 102.95 102.87 102.05 101.55 100.46 100.28 100.38 98.91 100.06 94.02 100.26 89.1 100.26 83.7 98.54 83.7 97.16 83.7 95.78 83.7 86.71 83.7 77.64 83.66 68.57 83.71 62.49 83.75 59.3 86.92 59.02 93.03 58.98 93.94 59.01 94.84 59.01 95.75 59.01 123.87 59.01 151.99 59.01 180.1 59.01 181.49 59.01 182.88 59.01 183.63 63.86 183.18 68.38 182.43 72.91 182.41 95.97 182.29 119.04 182.35 142.1 182.35 143.5 182.35 144.9 182.35 146.18 182.35 147.24 179.27 146.36 177.64 143.76 176.14 135.32 171.26 131.3 160.96 134.01 152.06 135.09 148.51 136.81 147.98 139.55 150.51 143.17 153.85 146.68 157.3 150.25 160.69 152.02 162.37 156.83 162.43 158.35 160.83 159.77 159.34 159.47 154.35 157.85 152.78 154.41 149.44 150.92 146.15 147.52 142.78 144.58 139.87 145.05 137.87 148.87 136.67 163.55 132.06 178.85 144.88 176.6 160.14 176.19 162.9 176.99 164.43 178.75 166.17 188.7 176.01 198.63 185.87 208.45 195.83 214.93 202.41 212.99 211.77 204.7 214.56 200.61 215.94 196.92 214.95 193.95 212.04 184.88 203.15 175.9 194.18 167.05 185.07 166.21 184.21 166.55 182.21 166.34 180.73 167.9 181.01 170 180.73 170.95 181.65 179.16 189.56 187.16 197.68 195.23 205.74 195.96 206.47 196.66 207.25 197.45 207.91 200.12 210.17 203.39 210.15 205.39 207.7 207.52 205.11 207.31 202.41 204.98 200.04 199.89 194.87 194.72 189.78 189.6 184.63 184.48 179.49 179.39 174.33 173.91 168.8ZM146.32 204.07 146.32 187.72C119.73 187.72 93.44 187.68 67.14 187.81 65.38 187.81 63.33 188.77 61.92 189.9 59.16 192.14 58.39 195.33 59.64 198.68 61.07 202.51 64.07 204.19 68.13 204.19 93.39 204.17 118.65 204.19 143.91 204.18 144.66 204.18 145.41 204.11 146.31 204.07ZM138.94 157.43C138.82 164.93 142.97 170.73 149.63 173.11 156.36 175.51 164.22 173.19 168.42 167.56 172.65 161.89 172.83 154.14 168.88 148.31 165.5 143.32 159.28 140.51 154.32 141.95 157.41 144.88 160.48 147.64 163.34 150.59 164.25 151.52 165.16 152.96 165.18 154.18 165.31 163.71 163.47 165.76 154.03 167.7 151.51 168.22 149.61 167.87 147.78 165.91 145.15 163.1 142.23 160.56 138.94 157.43Z" stroke="#FFFFFF" stroke-width="2" stroke-miterlimit="10" fill="#FFFFFF"/><path d="M184.66 65.88C180.46 67.56 177.72 71.32 172.34 68.21 166.99 65.12 169.36 60.62 168.16 56.44 164.14 56.44 160.16 56.44 156.17 56.44 154.91 56.44 153.65 56.44 152.44 56.44 151.11 60.59 153.76 65.1 148.27 68.22 142.85 71.3 140.16 67.47 135.93 65.89 133.27 70.48 130.59 75.1 127.85 79.81 131.05 82.74 136.09 83.03 136.01 89.45 135.93 95.71 130.89 95.78 127.9 98.83 130.52 103.37 133.14 107.92 135.8 112.54 139.99 111.64 142.67 107.05 148.22 110.36 153.65 113.59 151.15 117.96 152.39 122.26L168.05 122.26C169.48 118.07 166.9 113.41 172.53 110.25 178.04 107.16 180.54 111.58 184.77 112.55 187.38 108.05 190.01 103.51 192.74 98.78 191.73 98.1 190.97 97.3 190.05 97.01 184.56 95.33 184.4 91.01 184.85 86.5 184.95 85.51 185.74 84.28 186.59 83.72 189.29 81.95 192.08 80.27 195.02 78.95 195.98 78.52 197.48 79.31 198.73 79.54 198.34 80.86 198.34 82.61 197.47 83.42 196 84.8 193.95 85.54 192.19 86.64 189.43 88.36 189.37 90.1 191.96 91.84 197.227 95.3933 198.24 99.9833 195 105.61 193 109.08 190.84 112.48 189.05 116.06 187.34 119.46 185.26 119.89 182.28 117.75 181.03 116.85 179.64 116.12 178.25 115.43 175.8 114.2 174.05 115.24 173.84 118 173.78 118.77 173.83 119.55 173.83 120.33 173.83 125.037 171.413 127.39 166.58 127.39 161.4 127.39 156.21 127.25 151.04 127.44 147.61 127.56 146.31 126.13 146.57 122.83 146.7 121.16 146.68 119.46 146.57 117.78 146.39 115.02 144.96 114.19 142.43 115.38 142.2 115.49 141.97 115.61 141.74 115.74 133.7 120.4 134.68 121.58 129.33 112.1 127.17 108.27 125.01 104.44 122.67 100.71 120.8 97.73 121.32 95.67 124.51 94.2 125.68 93.66 126.77 92.95 127.89 92.29 131.22 90.32 131.28 88.35 128.04 86.41 126.6 85.54 125.16 84.67 123.67 83.9 121.33 82.68 120.96 81.01 122.25 78.79 125.63 72.97 129 67.16 132.33 61.31 133.46 59.32 134.93 58.98 136.85 60.08 138.76 61.17 140.62 62.35 142.58 63.34 144.93 64.53 146.34 63.54 146.57 61.08 146.76 59.03 146.64 56.94 146.61 54.87 146.58 52.33 147.73 51.01 150.34 51.02 156.95 51.04 163.55 51.06 170.16 51.01 172.79 50.99 173.95 52.18 173.86 54.78 173.79 56.72 173.77 58.67 173.86 60.61 173.99 63.33 175.83 64.41 178.2 63.27 178.43 63.16 178.62 62.96 178.86 62.86 181.53 61.82 185.86 59.26 186.6 60.05 189.6 63.27 191.6 67.46 193.71 71.43 193.99 71.95 192.91 73.91 192.21 74.07 191.22 74.29 189.54 73.79 188.95 73.01 187.33 70.87 186.13 68.42 184.65 65.91Z" stroke="#FFFFFF" stroke-width="2" stroke-miterlimit="10" fill="#FFFFFF"/><path d="M105.87 114.08 99.95 114.08C101.31 118.83 97.98 119.95 94.77 121.64 91.67 123.28 89.1 126.31 85.55 122.15 84.4 124.07 83.56 125.46 83.09 126.25 84.51 127.95 86.4 129.19 86.61 130.66 87.08 134.07 87.83 138.17 86.39 140.91 85.13 143.32 81.09 144.32 78.19 145.76 77.94 145.88 76.48 144.61 76.53 144.08 76.65 142.96 77.1 141.54 77.93 140.88 82.53 137.2 82.45 134.51 77.93 130.59 77.01 129.79 76.72 127.35 77.19 126.04 78.11 123.53 79.91 121.35 81.1 118.91 82.63 115.77 84.67 115.55 87.35 117.33 87.99 117.76 88.7 118.07 89.35 118.42 92.31 116.82 95.68 115.74 94.96 111.19 94.84 110.46 96.59 108.75 97.58 108.66 101.05 108.34 104.59 108.28 108.04 108.68 109.11 108.81 110.65 110.64 110.82 111.85 111.51 116.89 114.89 119.13 119.23 116.9 121.5 115.73 123.13 115.98 124.36 118.32 125.32 120.15 126.4 121.92 127.44 123.71 129.273 126.87 128.767 129.61 125.92 131.93 124 133.49 124.19 138.72 126.48 139.88 130.21 141.77 130.04 144.09 127.95 147.05 127.06 148.31 126.36 149.71 125.59 151.06 123.723 154.293 121.097 155.183 117.71 153.73 115.33 152.71 110.85 155.64 111.01 158.38 111.22 161.98 109.81 163.34 106.27 163.05 103.7 162.84 101.09 162.93 98.5 163.03 95.82 163.14 94.86 161.86 94.74 159.3 94.51 154.51 90.95 152.7 86.41 154.54 85.23 155.02 83.54 154.23 82.08 154.02 82.7 152.65 82.96 150.86 84 149.98 87.31 147.18 90.48 146.46 94.58 149.68 99.52 153.57 99.89 153.1 100.3 157.35 101.1 157.44 101.96 157.6 102.82 157.61 103.7 157.63 104.59 157.5 105.42 157.45 106.35 150.41 113.98 146.08 120.62 148.78 121.41 147.49 122.21 146.17 123.29 144.39 118.89 142.99 118.8 139.8 119.24 135.89 119.62 132.55 117.75 128.64 123.34 127.55 122.34 125.72 121.57 124.31 120.49 122.31 117 125.8 114.26 123.66 111.03 121.7 107.97 119.84 104.49 118.85 105.88 114.06Z" stroke="#FFFFFF" stroke-width="2" stroke-miterlimit="10" fill="#FFFFFF"/><path d="M160.23 75.8C167.87 75.78 173.78 81.57 173.86 89.13 173.94 96.83 167.78 103.07 160.2 102.95 152.82 102.84 146.64 96.61 146.63 89.28 146.63 81.91 152.78 75.81 160.23 75.8ZM168.5 89.33C168.51 84.82 164.91 81.14 160.43 81.09 155.96 81.03 152.19 84.64 152.07 89.09 151.95 93.61 155.89 97.63 160.39 97.59 164.78 97.55 168.49 93.78 168.5 89.33Z" stroke="#FFFFFF" stroke-width="2" stroke-miterlimit="10" fill="#FFFFFF"/><path d="M201.16 145.56C201.16 154.48 201.16 163.4 201.16 172.32 201.16 174.31 201.32 176.61 198.55 176.58 195.8 176.55 195.99 174.2 195.98 172.24 195.98 154.27 195.98 136.31 195.98 118.34 195.98 116.39 195.81 114.06 198.62 114.1 201.43 114.14 201.14 116.49 201.14 118.42 201.14 127.47 201.14 136.52 201.14 145.56Z" stroke="#FFFFFF" stroke-width="2" stroke-miterlimit="10" fill="#FFFFFF"/><path d="M102.92 146.65C96.89 146.65 92.11 141.86 92.1 135.79 92.1 129.74 96.89 124.9 102.89 124.88 108.77 124.87 113.83 129.89 113.84 135.76 113.84 141.66 108.84 146.65 102.92 146.65ZM102.9 130.33C99.87 130.33 97.51 132.67 97.46 135.69 97.41 138.73 99.69 141.11 102.73 141.2 105.89 141.29 108.5 138.76 108.43 135.67 108.36 132.75 105.85 130.33 102.9 130.33Z" stroke="#FFFFFF" stroke-width="2" stroke-miterlimit="10" fill="#FFFFFF"/><path d="M103.08 171.47C105.66 171.47 108.28 171.23 110.82 171.58 111.89 171.73 112.8 173.11 113.78 173.93 112.89 174.85 112.03 176.51 111.1 176.56 105.69 176.82 100.25 176.82 94.84 176.58 93.9 176.54 93.04 174.9 92.14 174 93.08 173.16 93.94 171.73 94.96 171.59 97.63 171.25 100.37 171.47 103.08 171.47Z" stroke="#FFFFFF" stroke-width="2" stroke-miterlimit="10" fill="#FFFFFF"/></g></svg>