<svg viewBox="0 0 867 426" xmlns="http://www.w3.org/2000/svg" xmlns:xlink="http://www.w3.org/1999/xlink" id="Layer_1" overflow="hidden"><defs><clipPath id="clippath"><rect x="12" y="7" rx="25.97" ry="25.97" width="854" height="418" stroke="#F04C86" stroke-width="2" stroke-miterlimit="10" fill="#FFFFFF"/></clipPath><clipPath id="clippath-1"><path d="M758 58.75 839.72 58.75 839.72 28.79 758 28.79 758 58.75 758 58.75Z" stroke-width="0" fill="none" clip-rule="evenodd"/></clipPath><clipPath id="clippath-2"><path d="M810.13 28.79 839.72 28.79 839.72 58.75 810.13 58.75 810.13 28.79 810.13 28.79Z" stroke-width="0" fill="none" clip-rule="evenodd" clip-path="url(#clippath-1)"/></clipPath><clipPath id="clippath-3"><path d="M810.13 58.75 839.72 58.75 839.72 28.79 810.13 28.79 810.13 58.75 810.13 58.75Z" stroke-width="0" fill="none"/></clipPath><clipPath id="clippath-4"><path d="M758 58.75 839.72 58.75 839.72 28.79 758 28.79 758 58.75 758 58.75Z" stroke-width="0" fill="none" clip-rule="evenodd"/></clipPath></defs><g><rect x="12" y="7" rx="25.97" ry="25.97" width="854" height="418" fill="#FFFFFF"/><g clip-path="url(#clippath)"><rect x="0" y="0" width="866" height="81" stroke-width="0" fill="#F04C86"/></g><rect x="12" y="7" rx="25.97" ry="25.97" width="854" height="418" stroke="#F04C86" stroke-width="2" stroke-miterlimit="10" fill="none"/></g><g><g><g clip-path="url(#clippath-2)"><g clip-path="url(#clippath-3)"><path d="M825.16 38.82C827.85 36.04 830.37 33.41 832.94 30.82 834.92 28.82 837.12 28.67 838.71 30.36 840.24 31.99 840.05 34.1 838.13 36.06 835.57 38.66 832.97 41.22 830.23 43.96 833.03 46.77 835.78 49.44 838.42 52.19 840.48 54.33 840.05 57.2 837.57 58.38 835.86 59.19 834.42 58.64 833.18 57.37 830.54 54.67 827.91 51.95 825.11 49.08 822.32 51.96 819.69 54.75 816.97 57.44 814.87 59.52 811.99 59.04 810.86 56.51 810.09 54.78 810.65 53.34 811.91 52.07 814.57 49.39 817.23 46.71 820.03 43.89 817.22 41.1 814.45 38.44 811.78 35.68 809.63 33.46 810.35 30.23 813.11 29.37 814.71 28.87 816.01 29.47 817.14 30.63 819.73 33.29 822.33 35.94 825.14 38.83L825.14 38.83Z" stroke-width="0" fill="#FFFFFF"/></g></g><g clip-path="url(#clippath-4)"><path d="M758 41.39C758 40.73 758.53 40.2 759.17 40.2L789.23 40.2C789.88 40.2 790.4 40.73 790.4 41.39L790.4 46.15C790.4 46.81 789.87 47.34 789.23 47.34L759.17 47.34C758.52 47.34 758 46.81 758 46.15L758 41.39Z" stroke-width="0" fill="#FFFFFF" fill-rule="evenodd"/></g></g><path d="M54.63 21.27C67.23 21.21 77.39 31.26 77.38 43.77 77.38 56.21 67.36 66.21 54.85 66.27 42.35 66.33 32.3 56.36 32.27 43.88 32.24 31.34 42.14 21.33 54.64 21.27ZM49.5 39.93 49.62 40.77C49.79 40.89 49.98 41.12 50.13 41.1 52.78 40.72 52.55 42.15 52.03 43.94 51.14 47.01 50.28 50.1 49.57 53.21 48.77 56.77 51.51 59.2 54.87 57.79 56.39 57.15 57.67 55.82 58.9 54.63 59.35 54.2 59.31 53.26 59.49 52.56 58.91 52.83 58.34 53.15 57.73 53.36 57.02 53.6 56.27 53.74 55.53 53.93 55.47 53.21 55.25 52.46 55.37 51.77 55.57 50.56 55.98 49.38 56.28 48.18 57.02 45.25 57.76 42.32 58.63 38.87 55.3 39.26 52.4 39.59 49.5 39.93ZM56.84 36.13C58.6 36.09 60.21 34.47 60.21 32.73 60.21 30.9 58.46 29.27 56.61 29.37 54.8 29.47 53.32 31.07 53.39 32.86 53.46 34.65 55.06 36.17 56.85 36.13Z" stroke-width="0" fill="#FFFFFF"/></g></svg>