<svg viewBox="0 0 13.78 47.44" xmlns="http://www.w3.org/2000/svg" xmlns:xlink="http://www.w3.org/1999/xlink" id="Layer_1" overflow="hidden"><defs></defs><path d="M7.82 0.04C7.13 0.15 6.46 0.41 5.62 0.87 4.8 1.34 4.02 1.96 3.29 2.71 1.94 4.11 0.97 6.05 0.44 8.5 0.21 9.56 0.07 10.71 0.02 12.1-0.03 13.34 0.01 14.62 0.13 16 0.34 18.5 0.8 21.18 1.59 24.44 2.53 28.31 3.83 32.48 5.69 37.55 6.36 39.37 7.06 41.19 7.76 42.99L8.1 43.86C8.55 44.99 8.99 46.12 9.4 47.25 9.42 47.32 9.46 47.38 9.5 47.43 9.9 46.11 10.26 44.78 10.59 43.44 11.1 40.95 11.57 38.45 11.98 35.94 11.98 35.97 11.98 36 11.97 36.03 12.31 33.98 12.62 31.94 12.91 29.88 13.3 26.34 13.56 22.78 13.68 19.22 13.75 17.17 13.79 15.13 13.77 13.08 13.75 10.99 13.71 8.91 13.47 6.84 13.37 6.29 13.25 5.76 13.12 5.25 12.67 3.47 12.05 2.19 11.17 1.24 10.75 0.78 10.26 0.43 9.72 0.23 9.31 0.07 8.87-0.01 8.41-0.01 8.21-0.01 8.01 0.01 7.81 0.03" stroke-width="0" fill="#F04C86"/></svg>