<svg viewBox="0 0 57.87 24.78" xmlns="http://www.w3.org/2000/svg" xmlns:xlink="http://www.w3.org/1999/xlink" id="Layer_1" overflow="hidden"><defs></defs><path d="M44.81 0.04C42.46 0.19 39.97 0.71 37.19 1.64 34.73 2.47 32.19 3.56 29.19 5.09 26.71 6.35 24.17 7.81 21.18 9.69 16.66 12.52 12.23 15.66 7.96 18.69L6.56 19.69 5.96 20.11C5.57 20.39 5.18 20.66 4.79 20.94 3.2 22.23 1.61 23.52 6.21725e-15 24.78 1.69 24.71 3.38 24.62 5.08 24.49 6.23 24.38 7.4 24.27 8.55 24.14 10.57 23.85 12.58 23.54 14.59 23.21 19.47 22.41 24.2 21.55 28.63 20.63 31.74 19.99 34.74 19.29 37.57 18.53 42.68 17.16 46.51 15.86 50 14.31 52.06 13.4 53.55 12.56 54.83 11.61 55.87 10.84 57.13 9.74 57.67 8.17 57.88 7.57 57.91 6.9 57.77 6.16 57.64 5.54 57.32 4.94 56.73 4.22 56.15 3.51 55.38 2.95 54.69 2.5 53.8 1.91 52.77 1.39 51.63 0.95 50 0.31 48.12-0.01 46.07-0.01 45.65-0.01 45.22-2.67321e-15 44.8 0.03" stroke-width="0" fill="#F04C86"/></svg>