<svg viewBox="0 0 200.63 72" xmlns="http://www.w3.org/2000/svg" xmlns:xlink="http://www.w3.org/1999/xlink" id="Layer_1" overflow="hidden"><defs></defs><path d="M191.63 72 9 72C4.03 72 0 67.97 0 63L0 9C0 4.03 4.03 0 9 0L191.63 0C196.6 0 200.63 4.03 200.63 9L200.63 63C200.63 67.97 196.6 72 191.63 72" stroke-width="0" fill="#FFEDCC"/><path d="M200.63 11.52 200.63 9C200.63 4.03 196.6 0 191.63 0L9 0C4.03 0 0 4.03 0 9L0 11.52 200.63 11.52Z" stroke-width="0" fill="#FFA500"/><line x1="12.48" y1="22.99" x2="184.64" y2="22.99" stroke="#FFA500" stroke-miterlimit="10" fill="none"/><line x1="12.48" y1="41.76" x2="184.64" y2="41.76" stroke="#FFA500" stroke-miterlimit="10" fill="none"/><line x1="12.48" y1="60.52" x2="184.64" y2="60.52" stroke="#FFA500" stroke-miterlimit="10" fill="none"/></svg>