<svg viewBox="0 0 548.57 713.01" xmlns="http://www.w3.org/2000/svg" xmlns:xlink="http://www.w3.org/1999/xlink" id="Isolation_Mode" overflow="hidden"><defs><clipPath id="clippath"><rect x="0" y="0" width="548.57" height="713.01" stroke-width="0" fill="none"/></clipPath></defs><g clip-path="url(#clippath)"><path d="M300.98 210.63C300.98 210.63 389.75 190.4 407.09 157.11 433.69 106.06 400.33 100.44 400.33 100.44L370.76 100.44C370.76 100.44 383.98 124.2 366.09 139.67 355.35 148.95 323.51 155.72 298.27 155.72 298.27 155.72 302.16 152.37 300.98 210.64" stroke-width="0" fill="#00A99C"/><path d="M0 149.71 476.04 81.78 483.66 135.78 7.62 203.71 0 149.71Z" stroke-width="0" fill="#E34C07"/><path d="M548.57 97.85 521.12 113.87 516.99 116.3 483.65 135.78 476.05 81.78 513.35 90.02 515.92 90.59 548.57 97.85Z" stroke-width="0" fill="#FCB370"/><path d="M60.28 196.2 52.66 142.2 70.56 139.64 78.19 193.64 60.28 196.2Z" stroke-width="0" fill="#FFFFFF"/><path d="M0 149.71 53.71 142.05 61.33 196.05 7.62 203.71 0 149.71Z" stroke-width="0" fill="#C16800"/><path d="M548.57 97.85 521.12 113.87 515.92 90.59 548.57 97.85Z" stroke-width="0" fill="#C16800"/><path d="M287.24 679.86 288.48 643.73 301.43 644.18 311.94 685.7C311.94 685.7 303.41 692.32 287.24 679.86" stroke-width="0" fill="#FCB370"/><path d="M343.64 710.08C342.52 709.16 341.27 708.18 339.94 707.17 329.09 699 312.51 689.08 312.51 689.08L311.94 685.71C308.16 686.28 304.38 686.39 300.76 685.6 295.64 684.49 291.19 682.53 287.24 679.86 286.76 682.81 286.28 685.43 285.85 688.47 285.34 692.08 284.89 695.13 284.6 697.94 284.18 701.97 284.06 704.39 284.49 704.71 286.26 706.05 353.87 718.56 343.64 710.07" stroke-width="0" fill="#FCB370"/><path d="M284.49 704.72C286.26 706.06 353.87 718.57 343.64 710.08 342.52 709.16 341.27 708.18 339.94 707.17 331.88 707.54 315.2 706.45 284.59 697.58 284.17 701.61 284.05 704.39 284.48 704.71" stroke-width="0" fill="#7D5D1C"/><path d="M307.89 687.31C308.53 688.11 310.5 689.59 311.67 689.5 311.51 689.59 311.41 689.78 311.47 689.97 312.23 692.2 315.62 691.64 317.91 691.92 316.65 692.95 315.21 693.74 314.11 694.98 313.72 695.43 313.81 696.3 314.49 696.42 317.48 696.96 320.9 695.38 323.25 697.38 322.85 697.66 322.66 698.27 323.1 698.62 324.79 699.96 326.82 700.58 328.97 700.62 329.47 700.62 329.72 699.86 329.24 699.63 328.09 699.08 326.82 698.82 325.67 698.31 325.75 698.09 325.75 697.85 325.61 697.63 323.25 693.82 320.19 694.99 316.72 694.93 317.9 694.01 319.2 693.25 320.21 692.1 320.54 691.72 320.57 691 320.04 690.76 318.07 689.85 315.88 690.03 313.75 689.79 319.57 688.33 322.86 678.39 320.17 673.46 318.47 670.35 316.4 671.61 315.09 674.3 313.51 677.56 312.71 681.65 312.16 685.48 311.93 682.94 312.12 680.34 311.22 677.94 310.59 676.24 309.78 674.59 308.62 673.18 307.28 671.56 304.65 670.15 304.11 673.29 303.26 678.29 304.76 683.39 307.88 687.32M312.9 688.82C313.4 684.98 314.27 681.07 315.29 677.33 315.62 676.11 315.99 674.8 316.73 673.75 318.43 671.32 319.57 674.73 319.64 676.38 319.83 680.99 318.03 687.74 312.9 688.81M305.19 675.94C305.22 674.89 305.22 671.4 306.99 673.29 308.96 675.41 310.26 678.17 310.48 681.06 310.67 683.47 310.69 685.83 311.35 688.14 309.39 688.49 306.28 681.98 306.09 681.39 305.55 679.62 305.15 677.8 305.19 675.94" stroke-width="0" fill="#7D5D1C"/><path d="M188.8 683.73 196.48 646.86 183.97 645.07 163.8 679.3C163.8 679.3 169.01 688.75 188.79 683.72" stroke-width="0" fill="#FCB370"/><path d="M125.04 689.13C126.44 688.73 127.97 688.32 129.59 687.92 142.79 684.72 161.95 682.18 161.95 682.18L163.81 679.31C167.06 681.33 170.48 682.92 174.12 683.64 179.26 684.65 184.13 684.62 188.81 683.73 188.09 686.63 187.49 689.23 186.67 692.19 185.71 695.71 184.91 698.69 184.07 701.38 182.86 705.25 182.01 707.52 181.48 707.64 179.32 708.17 112.29 692.87 125.05 689.13" stroke-width="0" fill="#FCB370"/><path d="M181.48 707.64C179.32 708.17 112.29 692.86 125.05 689.13 126.44 688.73 127.98 688.32 129.59 687.92 136.84 691.45 152.59 697.07 184.21 701.04 183 704.91 182.01 707.51 181.48 707.63" stroke-width="0" fill="#7D5D1C"/><path d="M175.91 670.99C176.66 667.9 173.69 668.14 171.82 669.11 170.2 669.94 168.8 671.14 167.54 672.45 165.77 674.3 164.9 676.76 163.69 679 164.7 675.26 165.59 671.19 165.43 667.57 165.3 664.58 163.9 662.6 161.1 664.78 156.67 668.24 155.75 678.68 160.52 682.32 158.47 681.7 156.53 680.66 154.36 680.72 153.78 680.73 153.52 681.41 153.67 681.89 154.14 683.34 155.03 684.55 155.75 685.87 152.54 684.55 150.18 682.26 146.51 684.82 146.3 684.97 146.2 685.19 146.19 685.42 144.93 685.43 143.66 685.17 142.39 685.22 141.85 685.24 141.78 686.04 142.24 686.23 144.23 687.04 146.34 687.27 148.42 686.72 148.96 686.57 149.03 685.94 148.78 685.52 151.73 684.62 154.24 687.42 157.21 688.11 157.88 688.27 158.31 687.5 158.12 686.94 157.61 685.37 156.59 684.07 155.84 682.63 158.06 683.28 160.95 685.14 162.53 683.39 162.67 683.24 162.65 683.03 162.53 682.88 163.57 683.43 165.97 682.86 166.87 682.37 171.29 680 174.69 675.9 175.89 670.98M160.4 667.67C161.11 666.18 163.5 663.5 164.11 666.41 164.37 667.66 164.19 669.01 164.02 670.27 163.48 674.11 162.74 678.04 161.66 681.76 157.37 678.74 158.4 671.83 160.4 667.67M170.85 677.64C170.45 678.11 165.01 682.85 163.35 681.76 164.86 679.9 165.82 677.74 166.95 675.6 168.3 673.04 170.59 671.02 173.24 669.86 175.61 668.82 174.24 672.02 173.84 673 173.14 674.73 172.05 676.23 170.85 677.65" stroke-width="0" fill="#7D5D1C"/><path d="M69.48 222.72C67.27 221.07 65.75 218.87 66.75 215.83 67.46 213.65 69.26 212.53 71.32 212.08 71.23 211.28 71.32 210.43 71.6 209.56 72.78 206.02 76.58 205.16 79.83 205.62 76.08 200.47 74.18 194.11 78.57 188.34 79.43 187.21 81.23 186.88 82.02 188.34 82.93 190 82.87 191.52 82.64 193.38 82.33 195.92 82.61 197.92 83.68 200.25 85.47 204.15 88.7 207.2 91.25 210.59 94.12 214.42 96.6 218.77 98.5 223.16 100.8 228.48 104.58 235.24 101.68 241 101.42 244.45 97.48 246.6 93.43 246.39 88.56 246.14 83.23 243.41 79.58 239.79 78.94 239.64 78.31 239.49 77.7 239.35 73.3 238.35 67.82 236.53 67.31 231.32 67.23 230.55 67.58 229.89 68.11 229.43 67.16 226.99 67.87 224.44 69.46 222.71" stroke-width="0" fill="#FCB370"/><path d="M102.35 223.13C114.98 237.06 132.63 256.12 134.62 256.12 137.77 256.12 169.01 166.34 188.51 162.89 208.01 159.44 199.72 209.84 199.72 209.84 199.72 209.84 166.12 290.83 143.02 300.3 126.09 307.24 97.49 269.74 81.07 244.55 87.59 234.65 95.39 232.66 102.35 223.12" stroke-width="0" fill="#00A99C"/><path d="M212.74 334.92C212.74 334.92 183.08 604.87 170.58 663.82L194.7 674.54C194.7 674.54 209.88 664.72 250.08 416.41 253.02 398.23 282.24 664.72 285.81 666.5 289.38 668.29 311.71 667.39 311.71 667.39 311.71 667.39 308.75 375.85 294.15 334.5L212.75 334.91Z" stroke-width="0" fill="#98ACB2"/><path d="M294.24 337.1C298.74 300.62 308.93 160.98 308.93 160.98 250.32 150.91 188.63 162.53 188.63 162.53 187.97 181.02 208.75 306.95 212 339.97L294.25 337.1Z" stroke-width="0" fill="#00A99C"/><path d="M250.34 175.87C242.4 175.87 230.02 174.1 230.02 168.24L232.07 148.72 233.86 131.65C233.86 125.79 240.3 121.05 248.24 121.05 252.21 121.05 255.81 122.23 258.41 124.15 261.01 126.07 262.62 128.72 262.62 131.65L264.38 148.75 266.07 165.14C268.37 175.03 250.34 175.88 250.34 175.88" stroke-width="0" fill="#FCB370"/><path d="M392.44 91.89C392.44 91.89 392.34 91.84 392.29 91.81 391.37 90.38 389.81 89.19 388.55 88.43 385.78 86.74 382.35 86.08 379.15 86.07 372.49 86.05 365.04 90.48 365.7 97.97 366.1 102.54 369.96 106.14 373.1 109.02 376.21 111.88 381.57 110.57 384.53 108.18 387.99 105.38 398.8 96.57 392.43 91.89" stroke-width="0" fill="#FCB370"/><path d="M364.5 97.85C363.75 96.35 362.43 95.42 360.81 95.13 360.67 95.1 360.52 95.1 360.37 95.09 359.6 94.72 358.62 94.71 357.75 95.04 355.98 95.7 354.9 97.71 354.63 99.48 354.03 103.42 359.04 106.85 362.55 105.26 365.26 104.03 365.71 100.27 364.5 97.84" stroke-width="0" fill="#FCB370"/><path d="M296.06 32.67C291.27 26.7 285.28 28.03 278.76 25.89 270.02 23.01 268.09 16.11 262.48 9.59 243.61-12.37 213.28 7.55 203.05 27.77 196.35 41.02 199.54 54.9 202.63 68.7 204.65 77.74 205.85 87.89 209.55 96.26L242.42 104.33C255.53 107.01 268.44 102.52 279.47 95.68 296.87 84.89 310.9 51.18 296.05 32.68" stroke-width="0" fill="#3F2D1C"/><path d="M208.34 80.76C208.34 80.76 196.91 61.34 192.16 77.98 187.43 94.63 198.87 102.56 206.37 100.97 213.87 99.39 208.34 80.77 208.34 80.77" stroke-width="0" fill="#FCB370"/><path d="M206.96 83.92C206.96 83.92 199.07 71.64 196.31 76.59 193.55 81.54 194.34 87.87 194.34 87.87 194.34 87.87 195.91 80.94 201.05 84.9 201.05 84.9 196.12 96 206.18 92.82 206.18 92.82 210.32 89.46 206.97 83.9" stroke-width="0" fill="#FCB370"/><path d="M283.69 80.76C283.69 80.76 295.12 61.34 299.86 77.98 304.6 94.63 293.16 102.56 285.66 100.97 278.17 99.39 283.69 80.77 283.69 80.77" stroke-width="0" fill="#FCB370"/><path d="M285.07 83.92C285.07 83.92 292.96 71.64 295.72 76.59 298.49 81.54 297.69 87.87 297.69 87.87 297.69 87.87 296.12 80.94 290.98 84.9 290.98 84.9 295.91 96 285.85 92.82 285.85 92.82 281.71 89.46 285.06 83.9" stroke-width="0" fill="#FCB370"/><path d="M262.31 48.64C260.2 50.84 257.72 52.65 254.78 53.51 250.87 54.65 246.79 54.22 243.08 52.55 236.06 49.39 230.39 42.83 222.89 40.82 220.17 40.08 218.24 40.51 216.32 42.05 214.28 43.7 212.49 46.26 211.21 48.89 211.08 49.14 210.98 49.41 210.85 49.66 208.39 58.4 207.77 69.02 207.7 80.76 207.7 81.63 207.7 82.49 207.7 83.37 207.7 115.16 216.14 139.45 249.34 139.45 282.54 139.45 284.91 109.11 285.1 78.52 285.1 77.29 285.1 76.04 285.1 74.82 285.1 69.43 284.66 64.39 283.79 59.75 275.73 58.63 267.91 54.57 262.3 48.64" stroke-width="0" fill="#FCB370"/><path d="M254.85 93.46C253.76 93.39 251.86 94.18 250.15 95.34 250.5 93.04 250.76 90.73 250.85 88.41 250.96 85.36 250.96 81.61 249.19 78.97 248.81 78.41 248.07 78.28 247.56 78.76 243.04 82.97 244.37 90.03 245.44 96.02 244.94 95.41 244.34 94.96 243.57 94.84 241.4 94.49 240.04 95.95 240.97 98.06 241.97 100.31 244.22 102.77 246.46 103.78 248.28 104.6 249.55 104.7 250.97 103.72 252.82 102.44 255.53 99.2 256.54 97.15 257.27 95.67 256.75 93.58 254.84 93.46" stroke-width="0" fill="#BD8654"/><path d="M241.8 57.59C241.08 56.52 240.9 56.28 238.32 55.48 233.98 54.16 228.09 54.01 225.36 54.73 221.69 55.7 215.35 60.43 215.21 64.82 215.18 65.42 215.87 65.75 216.36 65.48 220.03 63.49 223.26 61.12 227.39 60.15 230.23 59.47 233.02 60.08 235.75 60.87 237.8 61.46 239.38 61.94 241.33 60.99 242.1 60.61 242.25 58.28 241.79 57.59" stroke-width="0" fill="#3F2D1C"/><path d="M253.54 61.05C254.26 59.98 254.44 59.74 257.02 58.94 261.36 57.62 267.25 57.47 269.98 58.19 273.65 59.16 279.99 63.89 280.13 68.28 280.16 68.89 279.47 69.2 278.98 68.94 275.31 66.95 272.08 64.58 267.95 63.6 265.11 62.92 262.32 63.53 259.59 64.32 257.54 64.92 255.96 65.39 254 64.44 253.23 64.06 253.08 61.73 253.54 61.04" stroke-width="0" fill="#3F2D1C"/><path d="M229.72 103.18C229.72 103.18 249.37 116.91 263.1 108.83 263.1 108.83 242.79 148.22 229.72 103.18" stroke-width="0" fill="#FFFFFF"/><path d="M208.07 84.01C208.07 84.01 212.54 115.33 222.99 125.78 230.17 132.96 253.92 143.78 269.98 128.01 277.28 120.85 281.59 108.67 284.49 87.34 284.49 87.34 290.87 113.09 284.15 132.5 279.35 146.38 261.03 151.14 254.31 150.4 247.6 149.65 199.85 157.11 208.06 84.01" stroke-width="0" fill="#3F2D1C"/><path d="M230.2 70.59C224.77 70.1 217.09 75.65 217.43 81.54 217.45 81.97 217.94 82.19 218.27 81.89 222.34 78.17 224.25 72.22 230.97 73.14 235.72 73.79 238.42 79.36 240.81 82.8 240.94 82.98 241.27 82.87 241.19 82.64 239.57 78.01 235.78 71.1 230.19 70.59" stroke-width="0" fill="#3F2D1C"/><path d="M266.78 70.59C272.21 70.1 279.89 75.65 279.55 81.54 279.53 81.97 279.04 82.19 278.71 81.89 274.64 78.17 272.73 72.22 266.01 73.14 261.26 73.79 258.56 79.36 256.17 82.8 256.04 82.98 255.71 82.87 255.79 82.64 257.41 78.01 261.2 71.1 266.79 70.59" stroke-width="0" fill="#3F2D1C"/></g></svg>