<svg viewBox="0 0 232.54 385.4" xmlns="http://www.w3.org/2000/svg" xmlns:xlink="http://www.w3.org/1999/xlink" id="Layer_1" overflow="hidden"><defs><clipPath id="clippath"><rect x="0" y="0" width="232.54" height="385.4" stroke-width="0" fill="none"/></clipPath></defs><g clip-path="url(#clippath)"><path d="M141.71 0C139.68 0 137.68 0.24 135.77 0.7 132.73 1.44 129.95 2.79 127.73 4.6 125.38 6.51 123.58 9.08 122.54 12.01L122.49 12.16 122.44 12.31C121.94 11.93 121.37 11.59 120.73 11.25 119.34 10.53 117.76 10.08 116.16 9.95 115.82 9.92 115.49 9.91 115.15 9.91 114.7 9.91 114.24 9.93 113.79 9.98 113.09 10.05 112.35 10.2 111.47 10.44 110.07 10.83 108.62 11.48 107.17 12.38 104.51 14.03 102.22 16.44 100.53 19.36 98.88 22.2 98.11 25.41 98.34 28.38 98.47 30.01 98.95 31.64 99.73 33.09 100.41 34.35 101.34 35.53 102.49 36.59 101.93 36.85 101.39 37.18 100.88 37.54 100.14 38.06 99.45 38.72 98.82 39.48 97.73 40.82 96.98 42.52 96.65 44.39 96.51 45.21 96.46 46.12 96.52 47.1 96.56 47.93 96.71 48.78 96.99 49.8 97.47 51.53 98.36 53.2 99.58 54.61 99.97 55.06 100.4 55.49 100.86 55.88 98.98 59.93 97.78 64.44 97.3 69.27 96.79 74.48 97.14 79.82 98.34 85.13 98.39 85.36 98.48 85.51 98.63 85.63 98.7 85.68 98.77 85.72 98.87 85.76 102.39 88.36 106.7 90.51 112.45 92.5 116.69 93.98 121.11 95.14 125.38 96.28L127.78 96.92C129.01 97.25 130.24 97.59 131.47 97.93 132.56 98.24 133.64 98.57 134.72 98.9L135.24 99.05C138.19 99.95 141.24 100.78 144.55 101.6 150.51 103.07 156.71 104.32 163.5 105.41L163.74 105.45C165.37 105.71 167.07 105.98 168.74 106.18 170.46 106.39 172.21 106.53 173.84 106.66L174.82 106.74C177.85 106.98 180.99 107.22 184.03 107.77 184.58 107.87 185.13 107.99 185.68 108.11 185.88 108.16 186.08 108.21 186.28 108.26 186.49 108.32 186.7 108.37 186.92 108.42 187.03 108.57 187.2 108.67 187.38 108.71 187.42 108.71 187.47 108.72 187.53 108.72 187.7 108.72 187.86 108.67 187.95 108.59 189.82 106.93 191.62 105.1 193.28 103.13 194.89 101.22 196.44 99.13 198.01 96.73 200.9 92.32 203.35 87.47 205.29 82.33 206.23 79.84 207.03 77.32 207.65 74.87 209.05 74.6 210.41 74.09 211.67 73.38 214.1 72 216.12 69.89 217.52 67.27 218.87 64.75 219.56 62.02 219.52 59.37 219.5 57.41 219.06 54.6 217.12 52.3 216.23 51.25 215.05 50.4 213.69 49.83 214.27 49.1 214.71 48.27 215.02 47.4 215.9 44.89 215.57 41.89 214.11 38.95 212.72 36.15 210.4 33.65 207.6 31.93 206.14 31.03 204.61 30.38 203.04 30 201.93 29.73 200.79 29.59 199.64 29.59 199.73 28.38 199.76 27.15 199.64 25.92 199.36 22.96 198.13 20.06 196.07 17.52 194.19 15.21 191.65 13.28 188.52 11.76 185.64 10.37 182.37 9.49 179.05 9.22 178.35 9.16 177.67 9.14 177.02 9.14 174.35 9.14 171.78 9.57 169.38 10.42 167.9 10.94 166.46 11.68 165.1 12.6 164.51 13 163.94 13.45 163.41 13.94 163.32 13.61 163.2 13.28 163.07 12.95 162.52 11.56 161.75 10.18 160.78 8.85 159.06 6.51 156.66 4.49 153.84 3 151.12 1.56 148.12 0.63 144.91 0.23 143.84 0.1 142.76 0.03 141.67 0.03M197.94 29.71C198.02 29.38 198.08 29.04 198.13 28.69 198.1 29.03 198.06 29.36 198 29.7L197.94 29.7Z" stroke-width="0" fill="#722604"/><path d="M98.85 67.8C98.65 67.8 98.46 67.8 98.26 67.82 97.69 67.85 97.09 67.97 96.43 68.19 95.37 68.54 94.36 69.2 93.49 70.1 91.82 71.83 90.68 74.25 89.99 77.52 89.38 80.41 89.29 83.56 89.71 86.89 89.91 88.45 90.24 89.99 90.71 91.48 91.17 92.96 91.72 94.23 92.39 95.37 93.43 97.14 94.65 98.46 96.04 99.29 96.21 99.39 96.35 99.43 96.49 99.43 96.53 99.43 96.57 99.43 96.62 99.42 96.81 99.39 96.99 99.28 97.1 99.12 97.25 98.91 97.29 98.6 97.19 98.36 97.45 98.3 97.72 98.23 97.98 98.12 98.33 97.99 98.66 97.83 99 97.66 99.66 97.32 100.31 96.89 100.96 96.39 102.15 95.47 103.29 94.26 104.36 92.81 105.34 91.48 106.22 89.93 106.99 88.21 107.7 86.6 108.23 84.88 108.59 83.1 108.93 81.4 109.05 79.68 108.93 78 108.82 76.37 108.42 74.79 107.77 73.43 107.1 72.01 106.08 70.77 104.82 69.83 103.57 68.9 102.02 68.24 100.32 67.93 99.86 67.84 99.38 67.8 98.87 67.8" stroke-width="0" fill="#AF5652"/><path d="M95.78 70.82C95.74 70.97 95.83 71.08 95.96 71.13 96.01 71.15 96.05 71.17 96.1 71.18L96.04 71.16C96.26 71.25 96.48 71.36 96.69 71.48 96.92 71.61 97.14 71.78 97.35 71.94 97.8 72.3 98.19 72.71 98.56 73.15 98.84 73.52 99.07 73.91 99.29 74.31 99.5 74.69 99.69 75.08 99.86 75.47 100.16 76.18 100.41 76.91 100.64 77.65 100.89 78.46 101.02 79.29 101.17 80.11 101.21 80.26 101.29 80.38 101.39 80.49 101.55 80.65 101.78 80.75 102.01 80.75 102.49 80.75 102.87 80.35 102.88 79.88 102.88 79.36 102.84 78.84 102.77 78.33 102.7 77.79 102.6 77.25 102.46 76.72 102.19 75.74 101.74 74.8 101.12 73.99 100.81 73.58 100.47 73.22 100.09 72.88 99.72 72.56 99.33 72.27 98.92 72 98.05 71.42 97.07 71.03 96.1 70.64 96.08 70.64 96.05 70.63 96.03 70.63 95.92 70.63 95.82 70.72 95.79 70.82" stroke-width="0" fill="#994843"/><path d="M140.05 29.13C139.59 29.13 139.14 29.14 138.68 29.16 136.44 29.26 134.18 29.59 132.08 29.94 131.43 30.05 130.77 30.16 130.12 30.27 127.07 30.8 123.91 31.34 120.77 31.34 120.34 31.34 119.9 31.33 119.47 31.31 118.94 31.27 118.4 31.22 117.87 31.15 117.83 31.15 117.79 31.15 117.75 31.15 117.51 31.15 117.29 31.25 117.15 31.42 117.1 31.44 117.04 31.48 116.99 31.53 115.02 33.61 113.22 35.93 111.65 38.42 110.15 40.8 108.79 43.45 107.61 46.29 106.53 48.88 105.6 51.69 104.85 54.64 104.5 56.02 104.19 57.48 103.91 59 103.63 60.55 103.41 62.09 103.17 63.93L103.07 64.66C102.73 67.25 102.39 69.92 101.83 72.52L101.83 72.54C101.83 72.54 101.83 72.54 101.83 72.54L101.83 72.54C101.83 72.54 101.81 72.64 101.81 72.64 101.45 74.22 100.99 75.77 100.45 77.28 100.03 78.46 99.59 79.64 99.15 80.82L98.82 81.72C97.67 84.82 96.64 87.62 95.79 90.47 94.83 93.67 94.23 96.59 93.94 99.4 93.62 102.5 93.73 105.63 94.27 108.72 94.7 111.16 95.4 113.57 96.37 115.89 97.26 118.03 98.44 120.14 99.88 122.16 102.55 125.89 106.22 129.17 110.49 131.63 115.24 134.37 120.83 136.17 126.65 136.84L126.77 136.84C126.77 136.84 126.89 136.87 126.89 136.87 126.67 138.85 126.22 140.89 125.56 142.93L125.51 143.12 125.51 143.12C124.6 145.77 123.39 148.27 121.9 150.53 120.62 152.44 119.18 154.11 117.62 155.52 116.8 156.24 115.93 156.9 115.04 157.47 114.88 157.57 114.77 157.74 114.73 157.93 114.69 158.14 114.73 158.35 114.84 158.52 114.86 158.56 114.89 158.59 114.92 158.62 114.86 160.7 115.24 162.72 116.05 164.63 116.8 166.38 117.95 168.07 119.48 169.66 120.8 171.03 122.42 172.29 124.42 173.5 126.11 174.52 128.03 175.42 130.12 176.18 132.06 176.88 134.04 177.41 135.99 177.76 137.9 178.1 139.88 178.27 141.87 178.27 142.39 178.27 142.9 178.26 143.41 178.24 145.84 178.13 148.32 177.72 150.77 177 153 176.35 155.27 175.38 157.51 174.12 160.38 172.51 163.18 170.35 165.85 167.68 168.86 164.68 171.38 161.35 173.33 157.81 173.43 157.63 173.44 157.41 173.35 157.2 173.35 157.16 173.35 157.12 173.35 157.08 173.34 156.91 173.25 156.68 173.09 156.57 172.05 155.84 171.05 154.94 169.94 153.71 168.47 152.05 167.19 150.17 166.14 148.1 165.04 145.88 164.21 143.51 163.68 141.06L163.68 141.06C163.17 138.61 162.97 136.13 163.08 133.69L163.08 133.69C163.21 131.35 163.62 129.1 164.31 127 164.81 125.55 165.43 124.16 166.17 122.87 167.29 123.11 168.49 123.27 169.73 123.35 170.29 123.39 170.85 123.4 171.41 123.4 172.83 123.4 174.29 123.28 175.77 123.05 180.06 122.37 183.92 120.77 186.92 118.43 187.7 117.82 188.44 117.14 189.11 116.42 189.74 115.74 190.33 114.97 190.9 114.06 191.94 112.44 192.66 110.51 193.05 108.33 193.86 103.78 192.92 99.53 190.47 96.68 189.71 95.8 188.79 95.03 187.75 94.41 186.71 93.8 185.49 93.34 184.11 93.06 183.36 92.9 182.59 92.84 182.01 92.81 181.74 92.79 181.47 92.78 181.21 92.78 180.64 92.78 180.05 92.82 179.47 92.89 178.59 93 177.7 93.21 176.73 93.52 177.25 92.44 177.77 91.35 178.29 90.25 180.11 86.41 181.99 82.43 183.48 78.37 184.6 75.3 185.38 72.5 185.85 69.82 186.31 67.19 186.47 64.43 186.3 61.61 186.04 57.06 184.88 52.65 182.96 48.86 182.01 46.99 180.86 45.21 179.54 43.57 178.24 41.95 176.73 40.44 175.07 39.06 171.82 36.37 167.88 34.16 163.36 32.49 161.96 31.98 160.55 31.54 159.18 31.2 157.83 30.86 156.33 30.57 154.59 30.32 151.65 29.88 148.63 29.67 145.7 29.47L145.26 29.44C144.7 29.4 144.15 29.36 143.59 29.32 143.03 29.28 142.48 29.24 141.92 29.2 141.3 29.16 140.69 29.14 140.07 29.14" stroke-width="0" fill="#BC5C58"/><path d="M138.67 29.14C136.42 29.24 134.16 29.57 132.07 29.92 131.47 30.02 130.87 30.12 130.26 30.23L130.11 30.25C127.06 30.78 123.9 31.33 120.76 31.33 120.33 31.33 119.89 31.32 119.46 31.3 118.93 31.26 118.39 31.21 117.86 31.14 117.82 31.14 117.78 31.13 117.74 31.13 117.5 31.13 117.27 31.24 117.12 31.41 117.07 31.43 117.01 31.47 116.96 31.51 114.99 33.58 113.2 35.91 111.62 38.41 111.51 38.58 111.4 38.76 111.3 38.93 111.52 39.27 111.75 39.59 111.99 39.9 111.98 39.88 111.96 39.86 111.95 39.85 112.33 40.33 112.74 40.79 113.18 41.21 113.62 41.63 114.08 42.01 114.56 42.38 114.54 42.37 114.52 42.35 114.51 42.34 115.08 42.76 115.68 43.14 116.31 43.48 116.91 43.8 117.52 44.08 118.15 44.32L118.15 44.32C119.74 44.92 121.4 45.28 123.09 45.46 123.07 45.46 123.05 45.46 123.03 45.46 125.09 45.66 127.17 45.58 129.21 45.27 129.19 45.27 129.17 45.27 129.14 45.28 131.3 44.94 133.4 44.34 135.41 43.47 135.41 43.47 135.41 43.47 135.4 43.47 135.69 43.34 135.97 43.21 136.25 43.07 136.33 43.03 136.42 43.02 136.5 43.07 136.57 43.11 136.63 43.19 136.63 43.28 136.63 43.93 136.67 44.58 136.76 45.22 136.76 45.2 136.76 45.18 136.75 45.16 136.83 45.64 136.93 46.12 137.08 46.59 137.21 47.01 137.37 47.43 137.54 47.84L137.52 47.78C137.93 48.71 138.46 49.57 139.08 50.37 139.08 50.37 139.08 50.37 139.08 50.37 139.9 51.41 140.87 52.31 141.94 53.11 141.94 53.11 141.96 53.12 141.96 53.13 141.96 53.13 141.96 53.13 141.97 53.13L141.97 53.13C141.97 53.13 141.97 53.13 141.97 53.13 143.35 54.13 144.86 54.92 146.44 55.54 146.44 55.54 146.42 55.54 146.41 55.53L146.47 55.55C148.28 56.23 150.18 56.69 152.1 56.89 152.08 56.89 152.06 56.89 152.03 56.89 153.7 57.06 155.38 57.04 157.03 56.8 157.02 56.8 157.01 56.8 157 56.8 157 56.8 157.02 56.8 157.03 56.8L157.03 56.8C157.03 56.8 157.04 56.8 157.05 56.8 157.05 56.8 157.05 56.8 157.04 56.8 158.28 56.6 159.49 56.28 160.64 55.78 160.64 55.78 160.64 55.78 160.65 55.78 160.65 55.78 160.65 55.78 160.65 55.78 160.65 55.78 160.67 55.78 160.68 55.77 160.68 55.77 160.68 55.77 160.68 55.77 161.15 55.56 161.61 55.32 162.06 55.06 162.09 55.04 162.13 55.03 162.17 55.03 162.19 55 162.22 54.98 162.24 54.97 162.28 54.95 162.33 54.93 162.37 54.93 162.38 54.93 162.41 54.93 162.42 54.93 162.48 54.95 162.54 54.99 162.58 55.05 162.62 55.11 162.62 55.17 162.61 55.23 162.61 55.28 162.6 55.33 162.59 55.38 162.59 55.36 162.59 55.34 162.59 55.31 162.54 55.76 162.52 56.2 162.54 56.65 162.56 57.1 162.6 57.55 162.67 57.99 162.67 57.97 162.67 57.95 162.66 57.93 162.75 58.48 162.87 59.02 163.04 59.56 163.21 60.1 163.41 60.63 163.63 61.16L163.61 61.1C163.97 61.92 164.39 62.72 164.87 63.48 165.32 64.21 165.82 64.91 166.35 65.58 166.34 65.56 166.32 65.55 166.31 65.53 167.73 67.31 169.37 68.91 171.19 70.27 171.19 70.27 171.19 70.27 171.18 70.27 171.19 70.27 171.2 70.28 171.21 70.29 171.21 70.29 171.2 70.29 171.19 70.28 171.19 70.28 171.2 70.29 171.21 70.3 171.21 70.3 171.21 70.3 171.21 70.3 172 70.87 172.82 71.4 173.67 71.86 174.49 72.3 175.34 72.68 176.21 73.02L176.21 73.02C177.28 73.43 178.37 73.77 179.49 74.02 180.62 74.28 181.77 74.47 182.93 74.6 182.93 74.6 182.93 74.6 182.92 74.6 183.5 74.66 184.09 74.7 184.67 74.73 185.17 73.04 185.55 71.42 185.83 69.85 186.29 67.22 186.44 64.46 186.28 61.64 186.02 57.09 184.86 52.68 182.94 48.89 181.99 47 180.84 45.23 179.52 43.6 178.22 41.99 176.72 40.48 175.05 39.09 171.8 36.39 167.85 34.18 163.33 32.52 161.93 32 160.53 31.57 159.15 31.23 157.8 30.89 156.3 30.6 154.55 30.34 151.59 29.9 148.57 29.69 145.66 29.49L145.22 29.46C144.66 29.42 144.11 29.38 143.55 29.34L142.97 29.3 141.88 29.22C141.26 29.18 140.64 29.16 140.03 29.16 139.57 29.16 139.12 29.17 138.66 29.19" stroke-width="0" fill="#AF5652"/><path d="M141.95 53.08C141.95 53.08 141.95 53.08 141.95 53.08 141.95 53.08 141.94 53.08 141.93 53.07 141.93 53.07 141.94 53.07 141.95 53.08" stroke-width="0" fill="#AF5652"/><path d="M141.97 53.1C141.97 53.1 141.96 53.09 141.95 53.08 141.95 53.08 141.96 53.09 141.97 53.1" stroke-width="0" fill="#AF5652"/><path d="M160.67 55.75 160.65 55.75 160.68 55.74 160.67 55.75Z" stroke-width="0" fill="#AF5652"/><path d="M157.06 56.77C157.06 56.77 157.06 56.77 157.07 56.77L157.06 56.77Z" stroke-width="0" fill="#AF5652"/><path d="M171.22 70.24 171.22 70.24C171.22 70.24 171.22 70.24 171.22 70.24Z" stroke-width="0" fill="#AF5652"/><path d="M177.55 97.78C177.07 97.87 176.68 98.37 176.8 98.87 177.04 99.91 177.24 100.94 177.31 102.01 177.35 103.16 177.26 104.31 177.02 105.44 176.75 106.56 176.34 107.64 175.82 108.67 175.15 109.9 174.33 111.03 173.39 112.07 172.6 112.91 171.71 113.65 170.75 114.28 170.54 114.42 170.54 114.75 170.69 114.93 170.86 115.14 171.13 115.13 171.34 114.99 172.69 114.09 173.96 113.06 175.07 111.88 175.62 111.3 176.12 110.68 176.58 110.03 177.04 109.37 177.43 108.67 177.79 107.96 178.5 106.54 178.95 104.99 179.14 103.41 179.24 102.59 179.22 101.76 179.16 100.94 179.09 100.03 178.88 99.15 178.58 98.3 178.51 98.15 178.41 98.03 178.27 97.93 178.11 97.81 177.92 97.75 177.73 97.75 177.68 97.75 177.62 97.75 177.56 97.77M175.85 108.61C175.85 108.61 175.83 108.65 175.82 108.67 175.82 108.65 175.84 108.63 175.85 108.61M175.82 108.67C175.82 108.67 175.78 108.74 175.76 108.78 175.78 108.74 175.8 108.71 175.82 108.67" stroke-width="0" fill="#994843"/><path d="M180.79 96.59C180.11 96.65 179.42 96.79 178.77 97 178.45 97.1 178.15 97.24 177.85 97.4 177.53 97.57 177.25 97.77 177 98.04 176.75 98.29 176.75 98.72 176.94 99 177.14 99.3 177.52 99.42 177.85 99.3 178.33 99.14 178.78 98.9 179.25 98.72 179.72 98.53 180.21 98.39 180.71 98.28 181.58 98.11 182.46 98.06 183.34 98.1 184.21 98.17 185.06 98.32 185.89 98.59 185.88 98.59 185.86 98.58 185.85 98.57L185.9 98.59C185.9 98.59 185.97 98.61 186 98.62 185.97 98.62 185.94 98.6 185.91 98.59 186.48 98.8 187.03 99.06 187.55 99.39 188.01 99.71 188.44 100.07 188.82 100.49 189.09 100.81 189.32 101.15 189.52 101.52 189.59 101.67 189.66 101.81 189.72 101.96 189.81 102.2 190.07 102.34 190.32 102.25 190.56 102.17 190.71 101.89 190.61 101.65 190.15 100.48 189.38 99.48 188.4 98.7 187.33 97.86 186.08 97.3 184.79 96.93 183.85 96.66 182.85 96.53 181.86 96.53 181.51 96.53 181.16 96.55 180.81 96.58M180.91 98.23C180.91 98.23 180.83 98.25 180.79 98.25 180.83 98.25 180.87 98.23 180.91 98.23M187.59 99.4C187.59 99.4 187.62 99.42 187.64 99.43 187.62 99.42 187.6 99.41 187.59 99.4M189.5 101.44C189.5 101.44 189.52 101.48 189.53 101.51 189.52 101.49 189.51 101.47 189.5 101.44M189.54 101.52C189.54 101.52 189.55 101.54 189.56 101.55 189.56 101.55 189.55 101.53 189.54 101.52M185.93 98.59C185.93 98.59 185.93 98.59 185.93 98.59 185.93 98.59 185.93 98.59 185.93 98.59 185.93 98.59 185.93 98.59 185.94 98.59" stroke-width="0" fill="#994843"/><path d="M152.5 131.97C151.15 132.61 149.77 133.21 148.36 133.71 145.53 134.71 142.6 135.42 139.63 135.86 138.5 136.03 137.36 136.16 136.23 136.26 136.12 136.27 136.02 136.29 135.91 136.3 135.87 136.33 135.83 136.35 135.78 136.35 135.63 136.35 135.49 136.37 135.34 136.37 132.84 136.73 130.3 136.88 127.77 136.81 127.31 136.81 126.86 136.82 126.4 136.81 126.47 136.81 126.54 136.83 126.62 136.83L126.74 136.83C126.74 136.83 126.86 136.86 126.86 136.86 126.61 138.85 126.17 140.88 125.52 142.89L125.47 143.08C125.11 144.1 124.72 145.1 124.28 146.07 126.37 146.19 128.47 146 130.54 145.65L130.54 145.65C130.54 145.65 130.56 145.65 130.57 145.65L130.57 145.65C130.57 145.65 130.59 145.65 130.6 145.65 134.37 144.98 138.03 143.74 141.49 142.12 144.72 140.59 147.79 138.72 150.53 136.42 150.52 136.43 150.5 136.45 150.48 136.46 152.19 135.02 153.76 133.42 155.06 131.6 155.06 131.6 155.06 131.6 155.06 131.6 155.06 131.6 155.06 131.6 155.06 131.61 155.06 131.61 155.06 131.61 155.06 131.6 155.41 131.09 155.74 130.58 156.05 130.04 154.92 130.76 153.74 131.39 152.52 131.97M155.06 131.61C155.06 131.61 155.04 131.63 155.04 131.64 155.04 131.63 155.05 131.62 155.06 131.61" stroke-width="0" fill="#994843"/><path d="M155.05 131.6 155.05 131.6 155.05 131.6" stroke-width="0" fill="#994843"/><path d="M130.57 145.66C130.57 145.66 130.57 145.66 130.57 145.66 130.57 145.66 130.57 145.66 130.57 145.66 130.57 145.66 130.58 145.66 130.59 145.66L130.59 145.66Z" stroke-width="0" fill="#994843"/><path d="M130.54 145.66C130.54 145.66 130.54 145.66 130.55 145.66 130.55 145.66 130.55 145.66 130.54 145.66" stroke-width="0" fill="#994843"/><path d="M135.4 20.14C132.16 20.14 129.04 20.38 126.13 20.85 119.99 21.85 114.74 23.93 110.51 27.03 110.43 27 110.35 26.99 110.27 26.99 110.23 26.99 110.18 26.99 110.14 27 109.73 27.08 109.46 27.48 109.53 27.89 109.87 29.83 110.5 31.61 111.39 33.18 111.82 33.94 112.33 34.67 112.9 35.35 113.4 35.96 114 36.55 114.74 37.18 117.17 39.25 120.38 40.57 124.02 40.98 124.75 41.06 125.51 41.11 126.26 41.11 128.93 41.11 131.68 40.57 134.21 39.55 136.22 38.74 138.06 37.6 139.67 36.17 139.82 36.87 140.05 37.59 140.34 38.37 141.02 40.18 142.05 41.96 143.39 43.65 144.65 45.22 146.16 46.64 147.88 47.86 149.55 49.04 151.38 49.96 153.32 50.61 155.13 51.21 156.99 51.52 158.84 51.52 159.57 51.52 160.3 51.47 161.02 51.38 162.18 51.23 163.33 50.92 164.43 50.48L164.4 50.6 164.4 50.72C164.25 52.47 164.41 54.35 164.88 56.29 165.33 58.16 166.04 60 166.99 61.75 167.95 63.51 169.11 65.06 170.43 66.38 171.97 67.91 173.67 69.03 175.48 69.72 176.69 70.18 177.98 70.42 179.3 70.42L179.46 70.42C178.72 72.12 178.14 73.54 177.63 74.87 176.5 77.82 175.55 80.75 174.81 83.57 174.42 85.04 174.09 86.56 173.81 88.09 173.55 89.48 173.43 90.61 173.42 91.67 173.42 92.5 173.39 95 175.17 95.27 175.25 95.28 175.33 95.29 175.4 95.29 175.9 95.29 176.45 95.06 177.08 94.58 177.44 94.31 177.76 93.98 178.09 93.65 178.53 93.19 178.92 92.7 179.28 92.23 179.96 91.34 180.55 90.44 181.26 89.35 181.78 88.54 182.31 87.67 182.94 86.6 185.06 82.98 186.81 79.19 188.15 75.32 190.95 67.27 191.78 59.28 190.55 52.21 189.89 48.44 188.65 44.93 186.85 41.76 185.9 40.09 184.8 38.52 183.58 37.07 182.33 35.59 180.88 34.18 179.29 32.88 176.11 30.29 172.19 28.1 167.64 26.38 163.63 24.87 159.34 23.58 154.89 22.54 150.03 21.4 145.21 20.66 140.56 20.33 138.8 20.21 137.07 20.14 135.42 20.14" stroke-width="0" fill="#722604"/><path d="M151.12 313.09C150.69 313.09 150.27 313.09 149.85 313.09 142.61 313.15 135.08 313.75 126.85 314.93 124.65 315.24 122.83 315.54 121.11 315.88 119.28 316.24 117.38 316.68 115.45 317.18 112.1 318.05 108.55 319.17 104.62 320.59 100.92 321.92 97.24 323.4 94.14 324.68L93.14 325.08 92.85 325.2C92.85 325.2 92.76 325.23 92.72 325.26 91.46 325.78 90.21 326.3 88.95 326.82L88.64 326.95 88.32 327.08 88.18 327.13C88.1 327.16 88.01 327.19 87.93 327.23L87.64 327.35 87.23 327.52 86.49 327.82 85.76 328.12C84.7 328.55 83.64 328.98 82.58 329.4 80.88 330.08 79.17 330.74 77.46 331.37 77.73 329.89 77.98 328.39 78.23 326.9 78.26 326.72 78.27 326.52 78.16 326.32 78.06 326.15 77.9 326.02 77.7 325.97 77.64 325.95 77.57 325.94 77.5 325.94 77.37 325.94 77.24 325.97 77.12 326.04 76.97 326.13 76.8 326.3 76.77 326.5 76.46 328.34 76.15 330.18 75.84 332.02 75.77 332.07 75.71 332.13 75.67 332.21 75.57 332.39 75.54 332.6 75.59 332.8 75.61 332.88 75.64 332.94 75.68 333L74.88 337.58C73.34 346.41 71.75 355.55 70.67 364.61 69.84 371.54 69.39 377.86 69.29 383.93 69.29 384.28 69.55 384.6 69.91 384.68 69.92 385.01 70.22 385.39 70.62 385.39 76.09 384.98 81.94 384.79 89.06 384.79 92.6 384.79 96.05 384.84 98.96 384.88L102.82 384.94C106.25 385 109.69 385.05 113.12 385.08 114.16 385.08 115.21 385.09 116.25 385.09 119.61 385.09 123.17 385.05 127.45 384.98 131.49 384.91 135.54 384.81 139.58 384.71 145.1 384.58 150.81 384.44 156.42 384.37 158.74 384.34 161.07 384.33 163.39 384.33 171.16 384.33 178.88 384.47 185.42 384.61 190.54 384.72 195.67 384.85 200.79 384.99L205.06 385.11C208.84 385.22 212.62 385.32 216.41 385.4 216.83 385.4 217.17 385.05 217.17 384.64 217.17 384.29 216.93 383.99 216.58 383.9 215.5 371.81 213.6 359.07 210.94 346.03 209.41 338.55 207.65 330.98 205.55 322.89 205.47 322.57 205.16 322.33 204.81 322.33 204.74 322.33 204.68 322.33 204.61 322.35 204.21 322.46 203.97 322.88 204.08 323.28 204.4 324.5 204.71 325.72 205.01 326.94 204.7 326.62 204.33 326.31 203.87 325.95 202.89 325.19 201.74 324.48 200.38 323.77 197.71 322.38 194.85 321.34 192.16 320.43 191.26 320.12 190.37 319.83 189.47 319.54L188.33 319.17C187.72 318.97 187.12 318.76 186.52 318.56 185.72 318.29 184.92 318.01 184.11 317.75 180.65 316.65 176.91 315.72 172.97 314.98 166.25 313.73 158.9 313.09 151.12 313.09" stroke-width="0" fill="#021621"/><path d="M120.31 356.61C120.22 356.7 120.21 356.87 120.31 356.97 122.91 359.38 125.83 361.52 129.08 362.95 130.74 363.68 132.46 364.25 134.23 364.57 136.02 364.89 137.85 364.99 139.66 364.77 139.75 364.76 139.84 364.74 139.93 364.73 140.11 364.68 140.26 364.59 140.39 364.46 140.58 364.27 140.69 364 140.69 363.73 140.69 363.46 140.58 363.19 140.39 363 140.21 362.82 139.92 362.67 139.66 362.69 138.69 362.8 137.72 362.87 136.74 362.86 135.79 362.86 134.84 362.78 133.9 362.66 132.77 362.5 131.65 362.27 130.55 361.97 129.49 361.68 128.45 361.3 127.44 360.88 127.44 360.88 127.44 360.88 127.44 360.88 127.44 360.88 127.44 360.88 127.43 360.88 127.39 360.87 127.35 360.85 127.31 360.83 127.34 360.84 127.37 360.85 127.4 360.87 125.52 360.07 123.73 359.06 122.11 357.83 122.11 357.83 122.12 357.84 122.13 357.85 122.12 357.84 122.1 357.83 122.09 357.81 122.09 357.81 122.09 357.81 122.08 357.81 122.08 357.81 122.08 357.81 122.08 357.81 121.59 357.42 121.12 357.03 120.66 356.61 120.61 356.56 120.55 356.54 120.48 356.54 120.41 356.54 120.36 356.56 120.3 356.61M127.42 360.89C127.42 360.89 127.42 360.89 127.42 360.89 127.41 360.89 127.39 360.88 127.38 360.88 127.39 360.88 127.4 360.88 127.41 360.89M122.07 357.82C122.07 357.82 122.09 357.83 122.09 357.84 122.09 357.84 122.07 357.82 122.06 357.82 122.06 357.82 122.06 357.82 122.06 357.82" stroke-width="0" fill="#04293E"/><path d="M138.89 364.07C139.13 367.02 139.16 369.98 139.1 372.94 139.07 374.46 139.01 375.97 138.95 377.49 138.89 379 138.84 380.51 138.76 382.02 138.72 382.65 139.31 383.17 139.91 383.17 140.51 383.17 141.09 382.65 141.06 382.02 140.99 380.58 140.97 379.13 140.96 377.68 140.94 376.17 140.94 374.65 140.93 373.13 140.91 370.11 140.85 367.08 140.6 364.06 140.56 363.59 140.24 363.2 139.74 363.2 139.3 363.2 138.84 363.59 138.88 364.06" stroke-width="0" fill="#04293E"/><path d="M169.55 152.59C169.35 152.65 169.24 152.77 169.11 152.94L169 153.09C167.85 154.59 166.37 156.07 164.47 157.61L164.36 157.7C162.6 159.08 160.54 160.3 158.08 161.41 154.65 162.94 150.92 164.04 147 164.68 144.69 165.05 142.41 165.24 140.22 165.24 138.92 165.24 137.63 165.17 136.39 165.04L136.59 165.08C134.04 164.78 131.69 164.23 129.59 163.42 128.02 162.8 126.58 162.01 125.3 161.08 124.21 160.26 123.23 159.32 122.38 158.29L122.35 158.25C121.54 157.22 120.85 156.08 120.29 154.87 120.1 154.44 119.93 154 119.77 153.55 119.66 153.23 119.36 153.01 119.04 153.01 118.97 153.01 118.9 153.02 118.82 153.04 118.49 153.14 118.25 153.49 118.27 153.82L116.75 154.65C110.17 158.29 103.36 162.06 97.05 166.38 93.06 169.11 89.74 171.75 86.9 174.43 83.72 177.43 81.29 180.44 79.49 183.61 77.1 187.82 75.17 192.55 73.74 197.66 72.49 202.12 71.65 206.97 71.17 212.46 70.27 222.69 70.98 232.98 71.86 243.49 72.08 246.14 72.31 248.78 72.54 251.42 73.27 259.87 74.03 268.61 74.45 277.23 74.74 283.28 74.84 288.8 74.74 294.11 74.68 297.1 74.57 299.79 74.39 302.34 74.21 304.89 73.92 307.66 73.5 310.8 72.92 315.07 72.18 319.39 71.46 323.56 71.11 325.62 70.75 327.67 70.42 329.72 70.42 329.76 70.41 329.8 70.4 329.83 70.37 329.93 70.35 330.04 70.36 330.15 70.52 330.35 70.68 330.55 70.84 330.75 71.17 331.08 71.5 331.4 71.84 331.71 74.34 333.78 77 335.69 79.77 337.42 82.76 339.29 86.05 341.01 89.56 342.53 95.81 345.24 102.69 347.26 110.58 348.68 114.02 349.3 117.65 349.8 121.68 350.21 125.35 350.58 129.2 350.85 133.13 351.03 135.06 351.12 137.02 351.16 138.95 351.16 145.28 351.16 151.57 350.7 157.66 349.79 165.79 348.58 173.71 346.52 181.19 343.67 184.89 342.26 188.66 340.56 192.37 338.63 193.76 337.91 195.12 337.15 196.49 336.4L197.66 335.75C199.24 334.88 201.1 333.85 202.89 332.77 205.71 331.06 207.93 329.48 209.87 327.79 209.94 327.72 210.02 327.65 210.07 327.57 210 327.08 209.93 326.59 209.87 326.09L209.87 326C209.87 326 209.78 325.41 209.78 325.41L209.76 325.27C209.19 321.01 208.74 316.7 208.3 312.52 208.15 311.12 208 309.72 207.85 308.33 207.27 303.05 206.73 297.48 206.24 291.77 205.59 284.17 205.03 276.45 204.49 268.97 204.23 265.45 203.98 261.92 203.71 258.4 202.97 248.49 202.01 236.79 200.62 225.09 199.26 213.7 197.57 203.41 195.48 193.63 193.94 186.44 191.81 178.04 187.75 170.31 186.8 168.51 185.73 166.77 184.55 165.12 183.93 164.26 183.29 163.44 182.64 162.7 182.02 161.99 181.3 161.26 180.38 160.41 178.81 158.96 177.11 157.69 175.49 156.5 174.93 156.09 174.37 155.68 173.81 155.28 172.63 154.43 171.46 153.58 170.31 152.69 170.22 152.62 170.09 152.58 169.94 152.58 169.87 152.57 169.81 152.56 169.75 152.56 169.66 152.56 169.6 152.57 169.53 152.59" stroke-width="0" fill="#FFA500"/><path d="M72.53 251.43 72.55 251.64 72.57 251.83C73.28 260.15 74.03 268.76 74.44 277.24 74.49 278.29 74.54 279.32 74.58 280.33 76.47 282.57 78.34 284.83 80.22 287.08 82.65 289.99 85.1 292.9 87.61 295.73 90.09 298.53 92.65 301.26 95.32 303.88 96.68 305.21 98.07 306.51 99.5 307.77 100.88 308.98 102.29 310.15 103.73 311.28 103.71 311.27 103.69 311.25 103.67 311.24 106.48 313.43 109.42 315.47 112.5 317.27 114.09 318.2 115.71 319.09 117.36 319.9 119.03 320.72 120.73 321.49 122.45 322.22 122.45 322.22 122.43 322.21 122.42 322.21 126.48 323.92 130.63 325.38 134.87 326.55 136.94 327.12 139.04 327.64 141.15 328.08 143.25 328.52 145.37 328.89 147.5 329.2 147.48 329.2 147.46 329.2 147.44 329.19 151.34 329.74 155.27 330.07 159.21 330.13 161.18 330.16 163.16 330.13 165.12 330.04 167.07 329.94 169.03 329.78 170.97 329.57 170.97 329.57 170.98 329.57 170.98 329.57 170.99 329.57 171 329.57 171.01 329.57 171.01 329.57 171.01 329.57 171.01 329.57 171.01 329.57 171.01 329.57 171.01 329.57 171.01 329.57 171.01 329.57 171.01 329.57 174.86 329.12 178.67 328.44 182.43 327.49 184.14 327.05 185.85 326.57 187.54 326.03 189.09 325.53 190.63 324.98 192.15 324.39 192.15 324.39 192.14 324.39 192.13 324.39 195.11 323.21 198.02 321.87 200.82 320.33 202.24 319.54 203.65 318.72 205.02 317.83 206.25 317.04 207.44 316.22 208.62 315.36 208.52 314.41 208.42 313.47 208.32 312.53L208.07 310.21 207.87 308.34C207.28 302.93 206.73 297.36 206.26 291.78 206.22 291.34 206.19 290.9 206.15 290.46 206.01 290.55 205.86 290.64 205.71 290.73 203.18 292.3 200.52 293.66 197.78 294.81 195.04 295.95 192.23 296.9 189.35 297.65 186.4 298.41 183.4 298.99 180.37 299.37 174.23 300.14 168.01 300.19 161.86 299.59 155.65 298.98 149.51 297.75 143.55 295.91 140.62 295 137.74 293.97 134.93 292.77 131.47 291.31 128.11 289.62 124.85 287.76 120.75 285.42 116.79 282.85 112.96 280.1 109.17 277.39 105.49 274.54 101.87 271.61 98.19 268.64 94.56 265.61 90.93 262.58 89.99 261.79 89.05 261.01 88.11 260.23 87.27 259.53 86.42 258.84 85.58 258.14 83.95 256.78 82.33 255.41 80.66 254.09 80.66 254.09 80.65 254.09 80.64 254.08 80.64 254.08 80.63 254.08 80.62 254.07 79.34 253.07 78.02 252.1 76.65 251.23 75.92 250.77 75.19 250.32 74.42 249.92 73.75 249.57 73.06 249.24 72.36 248.94 72.35 248.94 72.33 248.93 72.32 248.92 72.39 249.76 72.46 250.6 72.54 251.44M122.4 322.21C122.4 322.21 122.42 322.21 122.43 322.22 122.42 322.22 122.41 322.22 122.4 322.21" stroke-width="0" fill="#F1A22B"/><path d="M72.35 248.92C72.35 248.92 72.37 248.92 72.39 248.93L72.33 248.91C72.33 248.91 72.34 248.91 72.35 248.91" stroke-width="0" fill="#F1A22B"/><path d="M170.99 329.56C170.99 329.56 170.98 329.56 170.97 329.56 170.97 329.56 170.97 329.56 170.97 329.56 170.98 329.56 171 329.56 171.01 329.56 171.01 329.56 171 329.56 170.99 329.56" stroke-width="0" fill="#F1A22B"/><path d="M202.62 318.29C200.25 319.82 197.9 321.37 195.5 322.85 193.47 324.1 191.4 325.28 189.29 326.38 185.23 328.52 181.01 330.36 176.71 331.95 176.77 331.93 176.83 331.9 176.89 331.88 167.12 335.47 156.87 337.69 146.5 338.61 146.57 338.61 146.63 338.6 146.7 338.59 136.08 339.51 125.34 339.06 114.85 337.17 105.49 335.46 96.35 332.6 87.76 328.51L87.94 328.59C84.75 327.06 81.64 325.36 78.63 323.5 78.28 323.28 77.82 323.37 77.59 323.72 77.37 324.06 77.47 324.54 77.81 324.76 88.66 331.49 100.8 335.98 113.31 338.39 126.06 340.85 139.19 341.17 152.07 339.49 164.81 337.83 177.33 334.11 188.8 328.31 191.04 327.18 193.23 325.96 195.37 324.66 198.06 323.04 200.68 321.3 203.32 319.6 203.49 319.49 203.62 319.37 203.68 319.17 203.74 318.98 203.73 318.77 203.63 318.59 203.5 318.35 203.22 318.18 202.94 318.18 202.83 318.18 202.71 318.21 202.61 318.27M114.71 337.13C114.71 337.13 114.79 337.14 114.83 337.15 114.79 337.15 114.75 337.14 114.71 337.13M114.85 337.15C114.85 337.15 114.88 337.15 114.9 337.16 114.88 337.16 114.87 337.16 114.85 337.15" stroke-width="0" fill="#E38907"/><path d="M141.56 257.21C141.56 257.21 141.5 257.19 141.47 257.18 141.5 257.19 141.53 257.2 141.56 257.21" stroke-width="0" fill="#E38907"/><path d="M141.63 257.23C141.63 257.23 141.59 257.22 141.56 257.21 141.58 257.21 141.6 257.22 141.63 257.23" stroke-width="0" fill="#E38907"/><path d="M141.86 257.3C141.86 257.3 141.85 257.3 141.84 257.3 141.84 257.3 141.85 257.3 141.86 257.3" stroke-width="0" fill="#E38907"/><path d="M142.01 257.35C141.96 257.33 141.9 257.32 141.85 257.3 141.9 257.32 141.95 257.34 142.01 257.35" stroke-width="0" fill="#E38907"/><path d="M197.46 307.89C197.46 307.89 197.47 307.89 197.47 307.88L197.46 307.88Z" stroke-width="0" fill="#E38907"/><path d="M197.45 307.89C197.45 307.89 197.45 307.89 197.46 307.89 197.46 307.89 197.46 307.89 197.45 307.89" stroke-width="0" fill="#E38907"/><path d="M197.47 307.87C197.47 307.87 197.47 307.87 197.48 307.86 197.48 307.86 197.48 307.86 197.47 307.87" stroke-width="0" fill="#E38907"/><path d="M197.49 307.86C197.49 307.86 197.51 307.85 197.52 307.84 197.52 307.84 197.5 307.85 197.49 307.86" stroke-width="0" fill="#E38907"/><path d="M175.8 162.86C175.38 163.6 174.92 164.32 174.44 165.03L174.44 165.01C172.57 167.72 170.31 170.14 167.81 172.29 167.86 172.25 167.91 172.2 167.96 172.17 165.17 174.55 162.1 176.58 158.8 178.21 158.82 178.2 158.85 178.19 158.87 178.18 156.03 179.56 153.02 180.56 149.92 181.18 149.99 181.17 150.05 181.16 150.11 181.14 146.65 181.82 143.11 182.02 139.6 181.77 139.64 181.77 139.67 181.77 139.71 181.77 136.19 181.5 132.72 180.79 129.38 179.64 126.21 178.52 123.19 177.01 120.41 175.13 117.94 173.42 115.69 171.43 113.72 169.16 112.25 167.43 110.95 165.56 109.85 163.58 109.66 163.22 109.14 163.15 108.81 163.36 108.65 163.47 108.53 163.64 108.49 163.84 108.45 164.04 108.49 164.22 108.6 164.4 110.76 168.3 113.68 171.74 117.13 174.55 120.55 177.33 124.47 179.48 128.61 180.96 136.97 183.94 146.28 184.21 154.74 181.46 156.79 180.8 158.75 179.93 160.66 178.93 162.88 177.77 164.99 176.4 166.98 174.88 171.03 171.78 174.59 167.98 177.14 163.54 177.34 163.18 177.16 162.71 176.81 162.53 176.7 162.48 176.59 162.45 176.48 162.45 176.21 162.45 175.95 162.61 175.8 162.86M174.4 165.08C174.4 165.08 174.36 165.14 174.34 165.17 174.36 165.14 174.38 165.11 174.4 165.08M113.59 169.03C113.59 169.03 113.63 169.07 113.65 169.1 113.63 169.08 113.61 169.06 113.59 169.03" stroke-width="0" fill="#E38907"/><path d="M134.06 104.53C133.85 104.53 133.66 104.61 133.52 104.76 133.36 104.92 133.32 105.1 133.29 105.3 133.2 105.87 133.06 106.39 132.86 106.91 132.61 107.47 132.3 107.99 131.96 108.46 131.57 108.95 131.13 109.39 130.64 109.79 130.22 110.11 129.76 110.38 129.23 110.62 128.74 110.81 128.25 110.95 127.76 111.02 127.53 111.05 127.3 111.06 127.08 111.06 126.86 111.06 126.65 111.05 126.43 111.02 126.12 110.97 125.8 110.89 125.45 110.78 125.39 110.76 125.32 110.75 125.25 110.75 124.91 110.75 124.59 110.99 124.51 111.32 124.4 111.72 124.62 112.13 125.04 112.27 125.54 112.44 126.1 112.55 126.74 112.6 126.85 112.6 126.97 112.61 127.09 112.61 127.48 112.61 127.91 112.57 128.42 112.47 129.41 112.29 130.45 111.83 131.42 111.12 132.33 110.45 133.1 109.61 133.72 108.63 133.98 108.21 134.21 107.72 134.45 107.09 134.69 106.46 134.79 105.8 134.86 105.29 134.88 105.1 134.76 104.87 134.63 104.74 134.48 104.59 134.29 104.51 134.08 104.51" stroke-width="0" fill="#561C03"/><path d="M129.74 72.85C129.64 72.85 129.55 72.9 129.52 72.98 128.96 73.99 128.35 74.98 127.72 76L127.44 76.45 127.14 76.93 126.84 77.41C126.09 78.62 125.34 79.82 124.61 81.04 123.41 83.03 122.48 84.69 121.69 86.24 120.64 88.3 119.89 89.99 119.32 91.57 118.8 93.01 118.46 94.35 118.27 95.67 118.08 97.01 118.13 98.26 118.4 99.4 118.68 100.59 119.28 101.66 120.14 102.48 120.83 103.15 121.7 103.67 122.8 104.08 123.22 104.24 123.71 104.37 124.27 104.47 124.94 104.59 125.46 104.65 125.95 104.65 126.37 104.65 126.66 104.54 126.9 104.33 127.14 104.11 127.28 103.8 127.29 103.49 127.3 103.18 127.18 102.86 126.97 102.62 126.79 102.43 126.47 102.23 126.17 102.23 125.85 102.24 125.58 102.26 125.3 102.26 124.8 102.26 124.34 102.23 123.88 102.17 123.3 102.06 122.79 101.91 122.31 101.69 121.99 101.53 121.71 101.35 121.45 101.14 121.17 100.9 120.92 100.62 120.69 100.32 120.47 99.99 120.29 99.64 120.14 99.28 119.96 98.76 119.83 98.2 119.77 97.62 119.7 96.7 119.75 95.68 119.94 94.52 120.36 92.1 121.22 89.56 122.61 86.55 123.73 84.15 125.02 81.71 126.66 78.88 127.21 77.94 127.77 77 128.33 76.06L128.54 75.71 128.67 75.5C129.11 74.76 129.55 74.02 129.96 73.27 130.03 73.13 130 72.97 129.88 72.9 129.84 72.87 129.79 72.86 129.73 72.86" stroke-width="0" fill="#994843"/><path d="M109.14 80.51C107.77 80.51 106.46 82.55 106.16 85.16 106.01 86.48 106.13 87.75 106.5 88.74 106.87 89.73 107.46 90.32 108.15 90.41 108.2 90.41 108.26 90.41 108.31 90.41 109.68 90.41 110.99 88.37 111.3 85.76 111.52 83.91 111.18 82.17 110.43 81.21 110.11 80.81 109.72 80.57 109.31 80.52 109.26 80.52 109.21 80.52 109.15 80.52" stroke-width="0" fill="#2B0E02"/><path d="M146.14 86.79C144.73 86.79 143.38 88.9 143.06 91.6 142.84 93.52 143.18 95.32 143.96 96.3 144.29 96.72 144.69 96.96 145.12 97.01 145.18 97.01 145.23 97.01 145.29 97.01 146.7 97.01 148.05 94.9 148.37 92.21 148.7 89.4 147.78 86.97 146.31 86.79 146.25 86.79 146.2 86.79 146.15 86.79" stroke-width="0" fill="#2B0E02"/><path d="M148.2 63.08C145.75 63.08 143.98 63.91 143.36 65.36 142.82 66.61 143.19 68.17 144.42 69.75 145.64 71.33 147.56 72.73 149.82 73.71 151.75 74.54 153.7 74.98 155.48 74.98 157.93 74.98 159.7 74.15 160.32 72.71 160.86 71.46 160.49 69.9 159.26 68.32 158.04 66.74 156.12 65.34 153.86 64.36 151.94 63.53 149.98 63.09 148.2 63.09" stroke-width="0" fill="#561C03"/><path d="M114.52 57.35C113.59 57.35 112.64 57.44 111.71 57.62 109.49 58.05 107.49 58.93 106.08 60.11 104.67 61.28 104.02 62.6 104.26 63.83 104.64 65.78 107.22 67.09 110.68 67.09 111.59 67.09 112.53 67 113.49 66.82 118.09 65.93 121.43 63.14 120.94 60.61 120.56 58.66 117.98 57.36 114.53 57.36" stroke-width="0" fill="#561C03"/><path d="M103.34 286.46 29.71 300.94C25.39 301.79 21.21 298.98 20.36 294.66L0.15 191.9C-0.7 187.58 2.11 183.39 6.43 182.55L80.06 168.07C84.38 167.22 88.56 170.03 89.41 174.35L109.62 277.12C110.47 281.44 107.66 285.62 103.34 286.47" stroke-width="0" fill="#004254"/><path d="M81.12 168 104.35 286.12C108.08 284.71 110.42 281.19 109.73 277.66L89.31 173.81C88.61 170.27 85.12 167.91 81.13 168.01" stroke-width="0" fill="#021621"/><path d="M51.71 199.94C52.87 205.83 50.06 211.34 45.43 212.25 40.81 213.16 36.12 209.12 34.96 203.23 33.8 197.34 36.61 191.83 41.24 190.92 45.86 190.01 50.55 194.05 51.71 199.94" stroke-width="0" fill="#021621"/><path d="M56.94 189.57C57.36 191.69 56.34 193.68 54.68 194.01 53.01 194.34 51.32 192.88 50.9 190.76 50.48 188.64 51.5 186.65 53.16 186.32 54.83 185.99 56.52 187.45 56.94 189.57" stroke-width="0" fill="#021621"/><path d="M100.3 226.6C100.16 226.6 100.02 226.6 99.88 226.62 99.62 226.64 99.36 226.72 99.11 226.8 98.71 226.93 98.34 227.17 97.96 227.51 97.62 227.83 97.33 228.23 97.04 228.8 96.8 229.28 96.69 229.81 96.61 230.26 96.52 230.79 96.51 231.38 96.6 232.1 96.63 232.33 96.67 232.56 96.72 232.78 96.43 232.57 96.11 232.37 95.79 232.18 94.67 231.5 93.45 230.85 91.95 230.13 90.18 229.28 88.56 228.63 87 228.14 85.22 227.58 83.85 227.33 82.56 227.33 82.33 227.33 82.11 227.33 81.88 227.36 81.13 227.42 80.43 227.62 79.87 227.95 79.55 228.14 79.29 228.35 79.08 228.58 78.8 228.88 78.59 229.21 78.4 229.61 78.15 230.14 78.07 230.78 78.18 231.41 78.3 232.11 78.67 232.73 78.97 233.19 79.39 233.83 79.93 234.37 80.35 234.77 80.76 235.15 81.2 235.53 81.71 235.94 80.94 235.75 80.21 235.64 79.51 235.59 79.26 235.57 79.01 235.56 78.76 235.56 77.93 235.56 77.16 235.66 76.47 235.87 76 236.01 75.63 236.17 75.3 236.36 75.12 236.47 74.94 236.59 74.77 236.72 74.6 236.85 74.46 237.01 74.33 237.17 74.08 237.46 73.9 237.79 73.77 238.17 73.61 238.63 73.61 239.1 73.63 239.49 73.65 239.94 73.79 240.37 73.94 240.76 74.14 241.31 74.45 241.81 74.76 242.27 75.55 243.45 76.62 244.42 77.56 245.25 78.62 246.17 79.75 246.98 80.82 247.71 81.35 248.07 81.88 248.43 82.41 248.78L83.47 249.49C83 249.26 82.51 249.07 82.03 248.88 80.25 248.2 78.87 247.82 77.55 247.65 77.24 247.61 76.91 247.58 76.58 247.58 75.53 247.58 74.72 247.84 74.16 248.36 73.86 248.64 73.63 249 73.5 249.41 73.37 249.84 73.33 250.32 73.39 250.94 73.52 252.33 74.27 253.47 74.91 254.32 75.85 255.57 76.99 256.64 78.17 257.71 78.9 258.38 79.65 259.03 80.4 259.68 80.86 260.08 81.31 260.47 81.77 260.87 81.77 260.87 81.81 260.91 81.82 260.91L81.82 260.91C81.82 260.91 81.82 260.91 81.82 260.91 81.82 260.91 81.86 260.93 81.86 260.93L81.86 260.93C82.43 261.47 83.08 262.07 83.67 262.7 84.24 263.31 84.72 264.02 85.12 264.62 85.68 265.5 86.21 266.39 86.74 267.29 87.53 268.62 88.34 270 89.26 271.27 91.05 273.74 92.96 275.23 95.1 275.84 95.18 275.86 95.26 275.87 95.35 275.87 95.69 275.87 95.97 275.68 96.08 275.38 96.15 275.18 96.13 274.95 96.03 274.75 95.94 274.58 95.79 274.45 95.62 274.4 95.16 274.27 94.72 274.1 94.29 273.9 98.07 273.55 101.98 271.57 105.25 268.31 106.84 266.73 108.23 264.92 109.38 262.94 110.54 260.95 111.41 258.88 111.96 256.79 112.36 255.27 112.59 253.78 112.64 252.34 112.67 252.35 112.7 252.36 112.74 252.36 112.85 252.36 112.96 252.34 113.06 252.29 113.25 252.2 113.41 252.01 113.47 251.8 113.53 251.61 113.51 251.43 113.42 251.28 113.11 250.76 112.81 250.23 112.52 249.7L112.49 249.53 112.49 249.53C112.46 249.33 112.34 249.14 112.16 249.02 111.3 247.35 110.63 245.76 110.12 244.15L110.12 244.25C109.72 242.88 109.35 241.47 109 240.1 108.72 239.02 108.44 237.94 108.12 236.87 107.7 235.44 107.29 234.26 106.83 233.18 106.33 232 105.71 230.87 104.99 229.83 104.08 228.51 103.14 227.61 102.13 227.08 101.63 226.82 101.13 226.66 100.62 226.59 100.52 226.58 100.42 226.57 100.31 226.57" stroke-width="0" fill="#BC5C58"/><path d="M83.6 249.69C83.54 249.82 83.6 249.95 83.72 250.02 84 250.17 84.26 250.34 84.53 250.51 85.01 250.83 85.48 251.17 85.92 251.54 86.41 251.95 86.86 252.4 87.3 252.87L87.23 252.8C88.18 253.83 88.99 254.96 89.74 256.14 89.88 256.36 90.21 256.4 90.42 256.26 90.64 256.1 90.68 255.8 90.54 255.58 90.13 254.95 89.67 254.34 89.18 253.76 88.71 253.21 88.19 252.69 87.66 252.2 86.54 251.18 85.27 250.3 83.94 249.57 83.91 249.55 83.88 249.55 83.84 249.55 83.74 249.55 83.65 249.61 83.61 249.69M84.56 250.52C84.56 250.52 84.56 250.52 84.57 250.52 84.57 250.52 84.56 250.52 84.56 250.52" stroke-width="0" fill="#994843"/><path d="M82.11 236.07C82.09 236.21 82.18 236.33 82.31 236.36 82.68 236.45 83.04 236.55 83.41 236.67 83.41 236.67 83.41 236.67 83.41 236.67 84.98 237.19 86.47 237.95 87.87 238.84L87.8 238.79C88.27 239.09 88.72 239.41 89.17 239.74 89.66 240.11 90.13 240.5 90.6 240.89 91.45 241.61 92.26 242.39 93.03 243.21 93.75 243.99 94.42 244.81 95.03 245.68 95.21 245.93 95.56 245.99 95.81 245.82 96.06 245.64 96.12 245.29 95.95 245.04 95.18 243.95 94.28 242.95 93.32 242.03 92.8 241.54 92.26 241.08 91.71 240.63 91.14 240.18 90.55 239.76 89.94 239.35 87.65 237.81 85.12 236.53 82.43 235.87 82.41 235.87 82.39 235.87 82.38 235.87 82.27 235.87 82.16 235.97 82.14 236.08" stroke-width="0" fill="#994843"/><path d="M96.95 233.2C96.87 233.3 96.87 233.47 96.98 233.55 97.3 233.78 97.61 234.01 97.91 234.27 98.2 234.51 98.47 234.79 98.74 235.06 98.74 235.06 98.72 235.05 98.71 235.04 99.09 235.46 99.45 235.89 99.78 236.36 100.12 236.84 100.42 237.34 100.7 237.86 100.7 237.86 100.7 237.86 100.7 237.85 100.7 237.85 100.7 237.87 100.71 237.87 100.71 237.88 100.72 237.9 100.73 237.91 100.74 237.94 100.76 237.96 100.77 237.99 100.79 238.02 100.81 238.06 100.82 238.1 100.87 238.16 100.92 238.21 100.99 238.24 101.09 238.29 101.21 238.3 101.32 238.26 101.58 238.17 101.69 237.83 101.53 237.6 100.36 235.92 99 234.35 97.3 233.17 97.25 233.13 97.19 233.11 97.13 233.11 97.06 233.11 97 233.14 96.95 233.2M100.73 237.92C100.73 237.92 100.73 237.94 100.74 237.95 100.74 237.95 100.73 237.93 100.73 237.92" stroke-width="0" fill="#994843"/><path d="M170.09 153.89C169.93 154.19 170 154.57 170.25 154.8 174.06 163.28 176.96 170.91 179.11 178.14 180.53 182.98 181.65 187.79 182.43 192.43 183.25 197.28 183.72 202.21 183.82 207.07 183.9 211.41 183.71 215.69 183.26 219.78 182.81 223.88 182.06 228.05 181.03 232.17L181.07 232.08C179.98 236.3 178.57 240.56 176.86 244.76 175.18 248.88 173.11 253.14 170.7 257.43L170.81 257.27C170.07 258.54 169.33 259.82 168.58 261.1 167.98 262.13 167.17 263.48 166.28 264.76 162.13 262.87 157.57 261.16 151.92 259.38 147.27 257.91 142.49 256.61 137.86 255.35 131.65 253.65 125.24 251.9 119.05 249.74 118.51 249.55 117.97 249.36 117.44 249.17 115.65 248.51 113.9 247.83 112.24 247.14 111.88 249.09 111.23 250.98 110.43 252.78 109.26 255.44 107.79 257.97 106.18 260.39 104.68 262.65 103.03 264.82 101.21 266.83 99.39 268.84 97.41 270.71 95.26 272.38 94.18 273.22 93.06 274.01 91.9 274.73 91.45 275.01 91 275.28 90.54 275.54 91.18 276.4 91.8 277.18 92.42 277.94 93.16 278.84 93.98 279.76 95.07 280.91 96.73 282.67 98.5 284.46 100.32 286.25 104.07 289.9 107.91 293.27 111.75 296.29 115.8 299.48 119.95 302.3 124.07 304.69 129.25 307.68 133.28 309.87 137.14 311.78 141.98 314.17 146.48 316.02 150.89 317.44 153.22 318.19 155.63 318.82 158.05 319.3 160.36 319.76 162.77 320.07 165.23 320.23 166.17 320.29 167.14 320.32 168.08 320.32 171.94 320.32 175.76 319.82 179.42 318.84 183.25 317.81 187.14 316.11 190.98 313.78 194.38 311.71 197.78 309.06 201.07 305.89 204 303.07 206.85 299.76 209.52 296.06 211.95 292.7 214.16 289.1 216.09 285.34 217.07 283.44 218.08 281.36 219.25 278.79 220.27 276.58 221.26 274.3 222.27 271.82 226.48 261.54 229.33 251.96 230.98 242.53 231.73 238.23 232.21 233.76 232.41 229.22 232.59 224.99 232.48 220.76 232.09 216.64 231.67 212.4 230.91 208.26 229.81 204.35 228.69 200.33 227.14 196.48 225.2 192.91 223.24 189.29 220.77 185.94 217.86 182.94 214.96 179.95 211.34 177.18 206.47 174.21 203.8 172.58 201.01 171.06 198.3 169.6L198.21 169.55C196.76 168.76 195.3 167.97 193.86 167.15 192.29 166.26 190.73 165.33 189.18 164.4 187.43 163.35 185.69 162.28 183.95 161.2 179.78 158.63 175.46 155.97 171.08 153.6 170.98 153.54 170.86 153.51 170.74 153.51 170.45 153.51 170.19 153.67 170.06 153.92" stroke-width="0" fill="#FFA500"/><path d="M112.17 247.51C112.7 247.7 113.23 247.92 113.76 248.13 114.35 248.36 114.94 248.58 115.52 248.8 116.76 249.26 118.01 249.7 119.26 250.14 121.69 250.99 124.15 251.79 126.6 252.56 131.61 254.14 136.64 255.63 141.64 257.24L141.62 257.24C141.69 257.25 141.76 257.28 141.83 257.3 141.83 257.3 141.83 257.3 141.83 257.3 143.81 257.94 145.79 258.57 147.78 259.19 149.78 259.81 151.78 260.43 153.77 261.07 153.71 261.05 153.65 261.03 153.59 261.01 157.64 262.32 161.66 263.72 165.57 265.4 169.5 267.09 173.33 269.05 176.91 271.39 176.89 271.37 176.86 271.36 176.84 271.34 179.69 273.21 182.38 275.32 184.84 277.69 184.94 277.78 185.11 277.76 185.19 277.66 185.28 277.56 185.26 277.4 185.16 277.31 183.15 275.36 181.01 273.54 178.75 271.88 176.57 270.28 174.3 268.81 171.95 267.47 169.6 266.13 167.16 264.94 164.69 263.85 162.2 262.75 159.68 261.75 157.13 260.81 151.89 258.88 146.54 257.22 141.17 255.65 135.11 253.88 129.01 252.22 123 250.29 122.94 250.27 122.88 250.25 122.82 250.23 122.87 250.24 122.91 250.26 122.96 250.27 121.15 249.69 119.36 249.08 117.58 248.44 116.69 248.12 115.81 247.79 114.93 247.45 114.46 247.27 114 247.08 113.53 246.9 113.29 246.8 113.06 246.71 112.83 246.61 112.68 246.55 112.52 246.49 112.37 246.44 112.32 246.8 112.25 247.16 112.18 247.52" stroke-width="0" fill="#E38907"/><path d="M183.22 218.12C182.98 221.35 182.51 224.55 181.87 227.72 181.22 230.92 180.36 234.06 179.35 237.16 179.35 237.13 179.37 237.1 179.38 237.08 178.76 238.97 178.07 240.85 177.33 242.7 176.97 243.6 176.6 244.49 176.22 245.38 175.82 246.32 175.38 247.25 174.95 248.18 174.11 249.97 173.21 251.74 172.28 253.49 171.83 254.33 171.38 255.17 170.92 256 170.44 256.86 169.94 257.71 169.41 258.54 169.41 258.54 169.42 258.52 169.43 258.51L169.39 258.57C169.39 258.57 169.34 258.64 169.32 258.68 169.32 258.67 169.34 258.65 169.34 258.64 168.72 259.56 168.07 260.46 167.42 261.36 167.1 261.81 166.77 262.27 166.46 262.72 166.11 263.23 165.73 263.75 165.52 264.35 165.47 264.46 165.44 264.57 165.46 264.7 165.48 264.87 165.56 265.03 165.69 265.15 165.92 265.34 166.25 265.36 166.5 265.19 167.11 264.78 167.58 264.17 168.03 263.59 168.53 262.95 168.98 262.26 169.42 261.58 170.25 260.28 171.01 258.94 171.76 257.6 173.23 254.99 174.55 252.3 175.75 249.56 176.36 248.18 176.92 246.78 177.47 245.37 178.02 243.96 178.52 242.53 179.01 241.09 179.97 238.25 180.79 235.35 181.49 232.43 182.05 230.09 182.53 227.72 182.91 225.34 183.29 222.98 183.56 220.6 183.73 218.21 183.74 218.08 183.67 217.95 183.53 217.92 183.52 217.92 183.5 217.92 183.49 217.92 183.38 217.92 183.25 218 183.24 218.12M169.34 258.65C169.34 258.65 169.37 258.6 169.39 258.58 169.39 258.57 169.4 258.56 169.41 258.54 169.39 258.57 169.36 258.61 169.34 258.65" stroke-width="0" fill="#E38907"/><path d="M90.08 275.8C89.9 275.9 89.72 275.99 89.54 276.09 91.52 278.83 93.63 281.46 95.93 283.93 98.35 286.54 100.94 288.97 103.62 291.31 108.98 295.97 114.72 300.18 120.6 304.15 126.4 308.07 132.47 311.6 138.85 314.48 145.32 317.39 152.12 319.62 159.17 320.59 162.65 321.07 166.15 321.25 169.66 321.04 173.14 320.83 176.62 320.23 179.96 319.23 183.07 318.3 186.06 316.98 188.91 315.43 190.36 314.64 191.78 313.78 193.15 312.86 194.54 311.93 195.87 310.93 197.18 309.9 200.43 307.34 203.43 304.44 206.14 301.31 206.84 300.5 207.52 299.69 208.18 298.84 208.71 298.13 209.22 297.4 209.71 296.66 209.81 296.5 209.92 296.35 210.02 296.19 210.16 295.96 210.29 295.74 210.43 295.52 210.69 295.08 210.95 294.64 211.21 294.2 211.81 293.07 212.39 291.93 212.95 290.77 212.93 290.77 212.91 290.76 212.88 290.75 212.48 291.29 212.08 291.82 211.67 292.35 211.41 292.71 211.14 293.07 210.87 293.43 210.15 294.52 209.39 295.58 208.6 296.61 205.38 300.76 201.68 304.53 197.54 307.77 197.51 307.79 197.48 307.82 197.45 307.84L197.44 307.84C197.44 307.84 197.43 307.86 197.43 307.86 196.47 308.6 195.5 309.33 194.49 310.01 193.44 310.72 192.38 311.4 191.3 312.06 189.11 313.39 186.82 314.56 184.46 315.56 184.53 315.53 184.61 315.5 184.68 315.47 182.91 316.22 181.09 316.86 179.25 317.4 177.27 317.97 175.24 318.39 173.19 318.68 168.9 319.23 164.56 319.18 160.26 318.61L160.54 318.64C154.39 317.81 148.39 315.98 142.68 313.58L142.96 313.7C137.17 311.25 131.64 308.22 126.33 304.86 123.77 303.24 121.28 301.52 118.8 299.77 116.2 297.95 113.64 296.07 111.12 294.13 111.21 294.2 111.3 294.27 111.38 294.34 104.03 288.66 97.07 282.37 91.31 275.06 90.89 275.31 90.47 275.55 90.05 275.79M208.6 296.63 208.55 296.69 208.6 296.63Z" stroke-width="0" fill="#E38907"/></g></svg>