<svg viewBox="0 0 897.42 688" xmlns="http://www.w3.org/2000/svg" xmlns:xlink="http://www.w3.org/1999/xlink" id="Layer_1" overflow="hidden"><defs><clipPath id="clippath"><rect x="12.42" y="7" rx="25.97" ry="25.97" width="884" height="680" stroke="#F04C86" stroke-width="2" stroke-miterlimit="10" fill="#FFFFFF"/></clipPath><clipPath id="clippath-1"><path d="M776.43 58.11 858.15 58.11 858.15 28.14 776.43 28.14 776.43 58.11 776.43 58.11Z" stroke-width="0" fill="none" clip-rule="evenodd"/></clipPath><clipPath id="clippath-2"><path d="M828.56 28.14 858.15 28.14 858.15 58.11 828.56 58.11 828.56 28.14 828.56 28.14Z" stroke-width="0" fill="none" clip-rule="evenodd" clip-path="url(#clippath-1)"/></clipPath><clipPath id="clippath-3"><path d="M828.56 58.11 858.15 58.11 858.15 28.14 828.56 28.14 828.56 58.11 828.56 58.11Z" stroke-width="0" fill="none"/></clipPath><clipPath id="clippath-4"><path d="M776.43 58.11 858.15 58.11 858.15 28.14 776.43 28.14 776.43 58.11 776.43 58.11Z" stroke-width="0" fill="none" clip-rule="evenodd"/></clipPath></defs><g><rect x="12.42" y="7" rx="25.97" ry="25.97" width="884" height="680" fill="#FFFFFF"/><g clip-path="url(#clippath)"><rect x="0" y="0" width="896.42" height="81" stroke-width="0" fill="#F04C86"/></g><rect x="12.42" y="7" rx="25.97" ry="25.97" width="884" height="680" stroke="#F04C86" stroke-width="2" stroke-miterlimit="10" fill="none"/></g><g><g><g clip-path="url(#clippath-2)"><g clip-path="url(#clippath-3)"><path d="M843.59 38.18C846.28 35.4 848.8 32.77 851.37 30.18 853.35 28.18 855.55 28.03 857.14 29.72 858.67 31.35 858.48 33.46 856.56 35.42 854 38.02 851.4 40.58 848.66 43.32 851.46 46.13 854.21 48.8 856.85 51.55 858.91 53.69 858.48 56.56 856 57.74 854.29 58.55 852.85 58 851.61 56.73 848.97 54.03 846.34 51.31 843.54 48.44 840.75 51.32 838.12 54.11 835.4 56.8 833.3 58.88 830.42 58.4 829.29 55.87 828.52 54.14 829.08 52.7 830.34 51.43 833 48.75 835.66 46.07 838.46 43.25 835.65 40.46 832.88 37.8 830.21 35.04 828.06 32.82 828.78 29.59 831.54 28.73 833.14 28.23 834.44 28.83 835.57 29.99 838.16 32.65 840.76 35.3 843.57 38.19L843.57 38.19Z" stroke-width="0" fill="#FFFFFF"/></g></g><g clip-path="url(#clippath-4)"><path d="M776.43 40.75C776.43 40.09 776.96 39.56 777.6 39.56L807.66 39.56C808.31 39.56 808.83 40.09 808.83 40.75L808.83 45.51C808.83 46.17 808.3 46.7 807.66 46.7L777.6 46.7C776.95 46.7 776.43 46.17 776.43 45.51L776.43 40.75Z" stroke-width="0" fill="#FFFFFF" fill-rule="evenodd"/></g></g><path d="M73.06 20.63C85.66 20.57 95.82 30.62 95.81 43.13 95.81 55.57 85.79 65.57 73.28 65.63 60.78 65.69 50.73 55.72 50.7 43.24 50.67 30.7 60.57 20.69 73.07 20.63ZM67.93 39.29 68.05 40.13C68.22 40.25 68.41 40.48 68.56 40.46 71.21 40.08 70.98 41.51 70.46 43.3 69.57 46.37 68.71 49.46 68 52.57 67.2 56.13 69.94 58.56 73.3 57.15 74.82 56.51 76.1 55.18 77.33 53.99 77.78 53.56 77.74 52.62 77.92 51.92 77.34 52.19 76.77 52.51 76.16 52.72 75.45 52.96 74.7 53.1 73.96 53.29 73.9 52.57 73.68 51.82 73.8 51.13 74 49.92 74.41 48.74 74.71 47.54 75.45 44.61 76.19 41.68 77.06 38.23 73.73 38.62 70.83 38.95 67.93 39.29ZM75.27 35.49C77.03 35.45 78.64 33.83 78.64 32.09 78.64 30.26 76.89 28.63 75.04 28.73 73.23 28.83 71.75 30.43 71.82 32.22 71.89 34.01 73.49 35.53 75.28 35.49Z" stroke-width="0" fill="#FFFFFF"/></g></svg>