<svg viewBox="0 0 134.09 87.35" xmlns="http://www.w3.org/2000/svg" xmlns:xlink="http://www.w3.org/1999/xlink" id="Layer_1" overflow="hidden"><defs></defs><path d="M124.95 87.35 9.15 87.35C4.1 87.35 0 83.26 0 78.21L0 9.15C0 4.1 4.1 0 9.15 0L124.95 0C130 0 134.1 4.09 134.1 9.15L134.1 78.21C134.1 83.26 130 87.36 124.95 87.36" stroke-width="0" fill="#CCE5E3"/><path d="M134.09 14.88 134.09 9.15C134.09 4.1 129.99 0 124.94 0L9.15 0C4.1 0 0 4.1 0 9.15L0 14.88 134.09 14.88Z" stroke-width="0" fill="#007F75"/><line x1="12.48" y1="31.68" x2="119.99" y2="31.68" stroke="#2FC3B0" stroke-linecap="round" stroke-miterlimit="10" fill="none"/><line x1="12.48" y1="50.44" x2="119.99" y2="50.44" stroke="#2FC3B0" stroke-linecap="round" stroke-miterlimit="10" fill="none"/><line x1="12.48" y1="69.21" x2="119.99" y2="69.21" stroke="#2FC3B0" stroke-linecap="round" stroke-miterlimit="10" fill="none"/></svg>