<svg viewBox="0 0 50.78 57.7" xmlns="http://www.w3.org/2000/svg" xmlns:xlink="http://www.w3.org/1999/xlink" id="Layer_1" overflow="hidden"><defs></defs><path d="M42.86 0.14C41.63 0.35 40.33 0.77 38.92 1.42 36.69 2.43 34.48 3.82 32.33 5.55 30.19 7.29 28.03 9.39 25.55 12.17 23.37 14.62 21.2 17.39 18.92 20.65 15.03 26.2 11.44 32.28 7.93 39.23 5.7 43.67 3.79 47.88 2.17 52 2.19 52.08 2.17 52.16 2.13 52.25 1.7 53.41 1.25 54.56 0.77 55.7L0.52 56.41 0.45 56.48C0.4 56.6 0.35 56.72 0.3 56.85 0.2 57.13 0.11 57.42 0.01 57.7 1.49 56.59 2.99 55.5 4.5 54.42 5.57 53.57 6.64 52.72 7.71 51.88 8.29 51.39 8.87 50.9 9.45 50.42L11.28 48.88 12.91 47.5C15.88 44.99 18.86 42.48 21.8 39.93 25.28 36.91 28.74 33.81 32.06 30.7L33.1 29.72C33.71 29.14 34.33 28.55 34.96 27.98L37.46 25.68C39.87 23.45 41.77 21.55 43.44 19.71 45.71 17.24 47.38 15.05 48.72 12.82 50.2 10.34 50.89 8.13 50.81 6.07 50.77 4.95 50.38 3.82 49.67 2.68 48.97 1.58 47.88 0.72 46.69 0.32 46.02 0.1 45.28-0.01 44.49-0.01 43.98-0.01 43.46 0.04 42.9 0.13" stroke-width="0" fill="#F04C86"/></svg>