<svg viewBox="0 0 523.12 797.51" xmlns="http://www.w3.org/2000/svg" xmlns:xlink="http://www.w3.org/1999/xlink" id="Layer_1" overflow="hidden"><defs></defs><path d="M11.41 218.42C11.41 218.42 0.51 222.94 0.1 224.29-0.31 225.64 0.51 227 1.86 226.86 3.21 226.72 17.03 225.51 17.03 225.51" stroke-width="0" fill="#FE8E5E"/><g><path d="M188.02 335.28C188.02 335.28 102.45 525.35 104.94 559.78 107.42 594.22 149.9 592.15 156.08 575.34 162.26 558.54 268.53 386.44 268.53 386.44L188.02 335.28Z" stroke-width="0" fill="#FE8E5E"/><g><path d="M150.79 774.36C155.71 769.85 150.7 761.38 149.78 744.8 149.12 732.82 151.46 732.36 162.25 683.68 166.55 664.28 167.65 656.64 168.6 646.84 169.31 639.49 169.45 630.93 168.58 619.06 167.24 600.83 162.76 574.7 148.04 543.58 144.75 541.47 137.67 537.64 128.36 537.99 124.21 538.15 113.67 538.83 108.15 546.84 106.13 549.77 105.29 553.81 105.96 559.61 105.84 559.75 126.52 713.27 126.01 743.89 125.63 766.81 121.24 768.4 120.09 768.42 130.77 773.94 144.89 779.75 150.78 774.35Z" stroke-width="0" fill="#FE8E5E"/><path d="M160.2 763.98C158.98 759.88 157.28 755.89 155.58 757 152.73 758.86 150.58 761.81 147.76 763.79 141.42 768.24 131.77 765.68 125.77 761.71 121.89 759.14 118.41 761.98 115.07 763.9 111.51 765.95 107.9 767.91 104.28 769.85 99.7 772.3 95.1 774.71 90.47 777.06 90.47 777.06 83.21 779.59 82.11 781.08 81.29 782.19 80.46 787.96 80.79 788.55 81.12 789.14 89.16 794.01 98.32 795.32 107.64 796.65 124.71 794.73 131.43 792.42 135.76 790.93 140.2 789.73 144.61 788.47 149.94 786.94 159.57 786.39 161.79 780.35 163.68 775.23 161.68 768.98 160.2 764Z" stroke-width="0" fill="#591A03"/><path d="M82.11 781.06C78.35 783.86 77.43 790.29 82.38 793.02 87.33 795.75 112.45 799.64 126.14 796.08 139.82 792.52 165.92 786.74 165.04 777.47L162.38 773.12C162.38 773.12 152.93 787.89 124.68 790.6 96.42 793.31 83.08 788.07 83.96 786.23 84.84 784.39 101.14 791.49 109.08 783.59 117.01 775.69 100.01 767.79 82.12 781.07Z" stroke-width="0" fill="#FFFFFF"/></g><path d="M187.35 333.03 186.62 334.65C183.12 342.42 100.93 525.47 103.4 559.89 103.68 563.81 104.51 567.48 105.85 570.79 110.53 593.94 114.38 620.8 115.84 650.76 116.87 671.99 116.56 691.66 115.46 709.49 136.65 708.53 146.32 708.09 167.51 707.12 172.17 680.23 175.31 650.49 170.12 618.95 167.28 601.71 163.94 585.4 160.29 570.05 178.24 535.62 268.92 388.72 269.84 387.24L270.63 385.95 187.34 333.03Z" stroke-width="0" fill="#016066"/><path d="M173.61 709.88C173.61 711.81 172.31 713.49 170.44 713.97 163.06 715.86 153.31 717.55 141.82 717.44 131.31 717.34 122.33 715.75 115.36 713.97 113.49 713.49 112.2 711.81 112.2 709.88L112.2 695.13C112.2 693.02 113.76 691.21 115.86 690.95 123.62 689.98 132.32 689.32 141.82 689.27 152.18 689.22 161.62 689.91 169.95 690.95 172.05 691.21 173.61 693.02 173.61 695.13L173.61 709.88Z" stroke-width="0" fill="#016066"/><path d="M154.47 703.36C153.75 699.39 161.41 596.69 142.91 552.62L251.97 385.82" stroke="#205ABD" stroke-width="0.75" stroke-linecap="round" stroke-linejoin="round" fill="none"/><g><path d="M204.41 376.81C204.41 376.81 257.62 578.34 281.23 603.53 304.84 628.72 336.54 600.36 330.76 583.42 324.98 566.48 299.17 365.86 299.17 365.86L204.41 376.81Z" stroke-width="0" fill="#FE8E5E"/><g><path d="M498.16 492.88C492.21 489.86 486.04 497.53 470.84 504.21 459.86 509.04 458.6 507 409.23 513.98 389.55 516.76 382.02 518.41 372.51 520.96 365.38 522.87 357.31 525.75 346.51 530.73 329.91 538.38 307.02 551.75 283.04 576.45 282.22 580.27 281.12 588.24 284.71 596.84 286.31 600.68 290.65 610.3 300.09 612.66 303.55 613.52 307.62 612.89 312.82 610.22 312.99 610.28 449.49 537.03 478.33 526.75 499.92 519.06 502.95 522.61 503.38 523.69 504.8 511.75 505.28 496.49 498.16 492.87Z" stroke-width="0" fill="#FE8E5E"/><g><path d="M485.06 492.2C481.09 493.78 477.26 495.82 478.52 497.42 480.62 500.1 483.75 501.98 485.97 504.61 490.96 510.53 489.27 520.37 485.84 526.7 483.63 530.79 486.76 534.01 488.97 537.16 491.33 540.52 493.6 543.94 495.85 547.38 498.69 551.73 501.5 556.1 504.26 560.5 504.26 560.5 507.42 567.51 509 568.47 510.18 569.19 516 569.51 516.56 569.12 517.12 568.74 521.26 560.3 521.75 551.06 522.25 541.66 518.83 524.82 515.93 518.33 514.06 514.15 512.48 509.83 510.83 505.56 508.83 500.39 507.43 490.85 501.22 489.17 495.95 487.74 489.9 490.28 485.07 492.2Z" stroke-width="0" fill="#591A03"/><path d="M508.99 568.47C512.11 571.97 518.59 572.32 520.88 567.15 523.17 561.98 524.81 536.61 520.05 523.29 515.29 509.98 507.22 484.49 498.07 486.19L493.97 489.22C493.97 489.22 509.51 497.32 514.72 525.23 519.92 553.14 515.89 566.89 513.97 566.18 512.06 565.47 517.69 548.6 509.12 541.39 500.55 534.19 494.18 551.83 509 568.47Z" stroke-width="0" fill="#FFFFFF"/></g></g><path d="M441.62 501.81C414.01 504.98 380.62 512.48 345.86 529.34 338.35 532.98 331.3 536.81 324.7 540.72 315.11 477.64 300.83 366.79 300.69 365.66L300.5 364.16 202.47 375.49 202.92 377.2C205.1 385.44 256.5 579.4 280.1 604.58 287.11 612.05 294.87 615.11 302.29 615.11 310.21 615.11 317.73 611.63 323.51 606.32 345.8 592.54 371.91 578.35 401.82 565.33 421.09 556.94 439.52 550.08 456.79 544.44 453.96 538.03 451.14 531.07 448.47 523.57 445.75 515.95 443.5 508.67 441.62 501.82Z" stroke-width="0" fill="#016066"/><path d="M442.54 492.32C444.42 491.86 446.36 492.72 447.27 494.43 450.86 501.15 454.81 510.23 457.42 521.41 459.81 531.64 460.4 540.75 460.31 547.94 460.29 549.87 458.96 551.52 457.09 551.98L442.76 555.48C440.71 555.98 438.58 554.89 437.83 552.92 435.05 545.61 432.34 537.31 430.05 528.1 427.54 518.05 425.98 508.71 425.02 500.37 424.78 498.27 426.16 496.33 428.22 495.83L442.55 492.34Z" stroke-width="0" fill="#016066"/></g></g><g><path d="M24.29 227.65C28.06 227.37 31.94 226.56 34.88 226.28 41.6 225.64 48.33 223.25 49.28 215.66 50.09 209.27 46.59 203.5 42.4 199.01 38.43 194.76 33.57 189.64 27.73 188.15 25.25 187.52 22.65 187.63 20.1 187.75 18.75 187.81 17.38 187.88 16.13 188.4 14.71 188.99 13.45 190.61 14.12 192.01 14.75 193.33 16.53 193.48 18 193.55 19.46 193.62 21.29 194.15 21.47 195.61 18.4 196.54 15.16 196.93 11.95 196.75 9.34 196.61 5.73 196.63 5.15 200.01 4.64 202.98 9.08 205.17 8.45 208.11 8.07 209.86 6.13 211.06 6.13 212.91 6.13 215.48 9.3 216.67 10.6 218.51 12.33 220.97 12.11 224.55 14.98 226.26 17.43 227.72 20.82 227.91 24.3 227.65Z" stroke-width="0" fill="#FE8E5E"/><path d="M174.12 130.77C158.14 119.93 133.33 157.44 125.98 177.48 113.64 202.22 101.27 255.98 94.39 276.98 91.14 286.91 97.02 297.62 107.4 300.04 116.4 302.14 125.44 296.58 128.56 287.89 136.62 265.43 201.07 149.05 174.11 130.77Z" stroke-width="0" fill="#FE8E5E"/><path d="M18.43 209.63C21.03 212.93 68.41 272.28 94.36 295.95 101.48 302.45 112.46 302.15 119.22 295.28L119.22 295.28C126.21 288.17 126.06 276.73 118.89 269.81L34.86 196.34 18.43 209.63Z" stroke-width="0" fill="#FE8E5E"/><path d="M166.93 116.72C138.41 122.57 125.13 127.34 110.67 201.52 110.67 201.52 139.22 219.92 166.83 216.69 166.83 216.69 185.17 147.16 175.97 132.3" stroke-width="0" fill="#FFA401"/></g><path d="M256.61 141.9C253.94 123.79 218.19 104.44 186.24 109.3 154.3 114.15 136.31 131.81 138.98 149.92L157.61 399.8C160.02 413.75 286.3 397.14 314.94 406.59 320.87 408.55 256.6 141.9 256.6 141.9Z" stroke-width="0" fill="#FFA401"/><path d="M216.12 123.26C208.3 140.91 249.61 158.67 270.64 162.33 297.18 170.07 352.28 172.7 374.17 175.74 384.52 177.18 394.01 169.48 394.55 158.84 395.02 149.61 387.94 141.7 378.84 140.17 355.3 136.23 229.33 93.47 216.13 123.25Z" stroke-width="0" fill="#FE8E5E"/><path d="M131.79 134.8C145.24 109.3 217.13 101.98 291.63 108.47 292.97 108.59 294.12 109.43 294.6 110.69 297.38 118.04 306.02 144.02 298.18 165.49 297.71 166.76 296.54 167.63 295.18 167.74 283.06 168.72 224.07 173.45 211.19 174.06" stroke-width="0" fill="#FFA401"/><g><path d="M171.36 6.32C172.06 6.96 201.34-4.56 202.02 32.36 202.22 42.94 161.06 28.38 163.96 25.81 166.86 23.25 171.36 6.32 171.36 6.32Z" stroke-width="0" fill="#591A03"/><g><g><path d="M219.99 131.4C221.12 142.13 193.16 183.66 173.65 185.72 154.14 187.78 150.46 149.59 149.32 138.86 148.19 128.13 163.09 117.76 182.6 115.7 202.12 113.64 218.85 120.67 219.99 131.4Z" stroke-width="0" fill="#FE8E5E"/><path d="M196.16 120.78 179.3 129.54 158.41 89.36 178.7 87.17 196.16 120.78Z" stroke-width="0" fill="#FE8E5E"/><path d="M194.12 116.84 178.7 87.17 160.6 89.78C168.33 100 181.9 113.4 194.12 116.84Z" stroke-width="0" fill="#591A03"/></g><path d="M159.15 91.42C159.15 91.42 161.97 93.47 166.45 96.14 178.81 103.52 199.76 108.25 212.51 95.1 229.87 77.18 207.09 19.68 192.77 18.82 116.18 14.18 125.23 43.26 159.15 91.42Z" stroke-width="0" fill="#FE8E5E"/><path d="M208.09 69.84C204.04 70.95 195.13 79.16 195.48 80.93 195.83 82.7 198.66 83.75 199.85 82.44 202.08 79.99 199.51 79.1 202.75 76.45 204.16 75.29 211.51 68.9 208.08 69.84Z" stroke-width="0" fill="#591A03"/><path d="M144.62 85.44C155.45 84.92 158.64 83.06 159.1 81.15 159.68 78.73 155.82 76.23 156.82 72.98 157.53 70.67 159.86 70.68 160.34 69.19 161.92 64.3 136.89 57.3 136.77 48.87 136.75 47.35 137.49 42.52 166.75 31.17 193.08 20.96 204.79 20.1 205.31 15.01 205.87 9.45 192.76 1.94 180.16 0.34 154.96-2.87 128.08 17.63 123.97 41.06 122.08 51.85 125.46 61.35 126.08 63.02 130.93 76.14 140.87 83.08 144.63 85.44Z" stroke-width="0" fill="#591A03"/><path d="M195.18 54.25C195.18 54.25 197.33 61.8 199 61.6 200.67 61.4 203.19 58.53 203.73 59.14 204.27 59.75 203.35 63.12 201.08 64.74" stroke="#381905" stroke-width="0.75" stroke-linecap="round" stroke-linejoin="round" fill="none"/><path d="M184.49 66.59C185.45 68.43 185.36 70.37 184.3 70.92 183.24 71.47 181.6 70.43 180.64 68.59 179.68 66.75 179.77 64.81 180.83 64.26 181.89 63.71 183.53 64.75 184.49 66.59Z" stroke-width="0" fill="#591A03"/><path d="M209.08 50.2C210.04 52.04 209.95 53.98 208.89 54.53 207.83 55.08 206.19 54.04 205.23 52.2 204.27 50.36 204.36 48.42 205.42 47.87 206.48 47.32 208.12 48.36 209.08 50.2Z" stroke-width="0" fill="#591A03"/><path d="M159.1 81.15C163.28 85 164.3 90.71 161.37 93.88 158.44 97.06 152.67 96.51 148.49 92.66 144.31 88.81 143.29 83.1 146.22 79.92 149.15 76.74 154.91 77.29 159.1 81.14Z" stroke-width="0" fill="#FE8E5E"/><path d="M149.59 82.86C153.34 80.67 158.51 86.65 157.57 89.81 157.57 89.81 155.99 86.63 154.52 88.28 153.05 89.93 155.79 90.73 155.79 90.73" stroke="#381905" stroke-width="0.75" stroke-linecap="round" stroke-linejoin="round" fill="none"/></g><path d="M195.5 39.38C195.61 40.14 199.08 40.6 203.18 39.99 207.28 39.38 210.46 37.94 210.35 37.19 210.24 36.43 206.67 35.26 202.57 35.87 198.47 36.48 195.39 38.62 195.5 39.38Z" stroke-width="0" fill="#591A03"/><path d="M179.63 49.45C180.19 49.98 178.57 53.08 175.72 56.08 172.87 59.09 169.86 60.87 169.3 60.34 168.74 59.81 169.84 56.22 172.69 53.21 175.54 50.2 179.07 48.92 179.63 49.44Z" stroke-width="0" fill="#591A03"/></g><g><g><path d="M165.42 135.31C91.9 118.42 18.62 165.8 4.41 240.6-7.83 305.07 36.99 376.8 100.3 394.06 125.72 400.99 151.26 400.1 174.51 392.94 234.9 374.34 297.18 362.55 360.35 364.17L365.94 364.31 386.03 276.9 380.92 274.58C325.63 249.48 273.59 216.52 231.53 172.73 214.21 154.69 191.62 141.32 165.42 135.3Z" stroke="#FFFFFF" stroke-miterlimit="10" fill="none"/><path d="M135.57 392.67C124.28 392.67 112.96 391.14 101.93 388.13 41.51 371.67-1.23 303.26 10.45 241.75 21.86 181.65 74.42 138.04 135.42 138.04 144.99 138.04 154.62 139.14 164.04 141.3 188.19 146.85 210 159.19 227.1 177 266.12 217.61 317.01 252.33 378.38 280.19L378.92 280.43 361.08 358.05 360.5 358.03C356.57 357.93 352.65 357.88 348.72 357.88 294.06 357.88 236.48 367.43 172.69 387.08 160.63 390.79 148.13 392.68 135.55 392.68Z" stroke-width="0" fill="#FFFFFF"/></g><path d="M401.2 326.4 401.2 326.4C398.39 338.65 386.17 346.3 373.93 343.48L282.54 322.48C270.29 319.67 262.64 307.45 265.46 295.21L265.46 295.21C268.27 282.96 280.49 275.31 292.73 278.13L384.12 299.13C396.37 301.94 404.02 314.16 401.2 326.4Z" stroke-width="0" fill="#013033"/><path d="M287.87 307.12 202.71 334.49C193.58 337.42 183.58 331.79 182.1 322.32 181.87 320.87 181.89 319.48 182.27 318.24 184.51 310.79 192.6 305.6 200.31 306.66 205.8 307.42 211.42 312.17 209.35 318.08 208.67 320.01 207.2 321.6 205.39 322.55 200.98 324.88 195.91 323.6 191.95 321.04 186.46 317.49 182.69 311.39 181.98 304.88 181.27 298.38 183.63 291.6 188.22 286.95 192.95 282.16 200.66 279.64 206.6 283.71 209.08 285.41 210.69 288.24 210.78 291.25 210.99 297.85 204.74 300.83 199.5 299.87 195.79 299.19 192.57 296.84 190.06 294.03 184.5 287.82 181.96 278.6 184.95 270.82 187.94 263.04 197.08 257.73 205.03 260.23 210.51 261.95 215.13 268.3 211.09 273.73 210.27 274.83 209.15 275.69 207.9 276.25 203.56 278.18 198.86 276.76 195.22 274.18 187.17 268.49 184.18 256.39 189.32 247.99 195.19 238.4 211.18 236.35 217.79 246.49 219.51 249.13 219.84 252.58 218.1 255.2 215.13 259.68 208.84 258.39 205.05 255.26 199.22 250.45 196.9 241.83 199.53 234.75 199.69 234.31 199.88 233.87 200.08 233.45 204.39 224.28 216.76 222.48 224.09 229.49L291.02 293.45" stroke="#381905" stroke-miterlimit="10" fill="none"/><path d="M465.91 320.59 469.43 305.27C470.6 300.2 467.43 295.14 462.36 293.97L462.36 293.97C457.29 292.8 454.12 287.75 455.29 282.67L455.31 282.59C456.48 277.52 453.31 272.46 448.24 271.29 443.17 270.12 438.11 273.29 436.94 278.36L436.92 278.44C435.75 283.51 430.7 286.68 425.62 285.51L425.62 285.51C424.28 285.2 423.08 284.61 422.05 283.83 419.19 281.66 417.69 277.95 418.55 274.22L418.57 274.14C419.3 270.97 418.33 267.81 416.27 265.59 415.86 265.15 415.4 264.74 414.9 264.38 413.91 263.66 412.76 263.13 411.49 262.84 410.86 262.69 410.22 262.62 409.6 262.6 405.22 262.49 401.22 265.47 400.2 269.91L400.18 269.99C399.01 275.06 393.96 278.23 388.88 277.06L388.88 277.06C383.81 275.89 380.64 270.84 381.81 265.76L381.83 265.68C383 260.61 379.83 255.55 374.76 254.38 369.69 253.21 364.63 256.38 363.46 261.45L338.91 368.28C337.74 373.35 340.91 378.41 345.98 379.58 351.05 380.75 356.11 377.58 357.28 372.51L357.3 372.43C358.47 367.36 363.52 364.19 368.6 365.36L368.6 365.36C373.67 366.53 376.84 371.58 375.67 376.66L375.65 376.74C375.07 379.28 375.57 381.81 376.85 383.85 378.13 385.89 380.19 387.45 382.73 388.03 383.36 388.18 384 388.25 384.62 388.27 389 388.38 393 385.4 394.02 380.96L394.04 380.88C395.06 376.44 399.06 373.46 403.44 373.57 404.07 373.59 404.7 373.66 405.33 373.81L405.33 373.81C410.4 374.98 413.57 380.03 412.4 385.11L412.38 385.19C411.21 390.26 414.38 395.32 419.45 396.49 424.52 397.66 429.58 394.49 430.75 389.42L430.77 389.34C431.94 384.27 436.99 381.1 442.07 382.27L442.07 382.27C447.14 383.44 452.2 380.27 453.37 375.2L453.6 374.19 456.89 359.88C467.74 362.37 478.56 355.6 481.05 344.75 483.54 333.9 476.77 323.08 465.92 320.59Z" stroke-width="0" fill="#013033"/></g><path d="M307.86 249.82C311.02 247.05 367.78 196.6 390.06 169.44 396.17 161.99 395.3 151.03 388.08 144.65L388.08 144.65C380.61 138.04 369.19 138.8 362.66 146.33L293.73 234.12 307.87 249.82Z" stroke-width="0" fill="#FE8E5E"/><path d="M311.62 222.16C310.77 221.03 309.52 220.41 308.11 220.03 305.32 218.75 300.23 218.64 294.53 217.82 288.44 216.94 281.05 215.8 280.27 216.18 271.32 220.56 279.8 224.52 283.33 227.71 270.91 234.69 259.27 243.73 258.97 244.44 258.11 246.52 260.42 249.02 260.95 250.25 261.42 251.35 259.08 251.73 260.49 254.55 261.57 255.88 262.83 257.07 264.27 258.12 265.82 258.65 267.15 258.3 267.58 257.91 268.3 257.27 269.32 260.88 271.65 261.73 271.76 261.76 271.88 261.76 271.99 261.79 274.3 262.29 276.44 259.61 277.51 259.19 278.42 258.83 279.14 262.44 284.13 262.11 290.2 261.06 296.84 258.31 303.71 253.09 325.59 236.46 319.22 232.25 311.62 222.17Z" stroke-width="0" fill="#FE8E5E"/><path d="M282.21 412.9C282.21 412.9 303.6 568.55 311.03 571.07 317.53 573.27 370.08 534.33 436.73 529.02" stroke="#205ABD" stroke-width="0.75" stroke-linecap="round" stroke-linejoin="round" fill="none"/><path d="M212.65 412.9C212.65 412.9 222.43 452.76 224.2 453.42 225.97 454.08 229.29 453.42 229.29 453.42" stroke="#205ABD" stroke-width="0.75" stroke-linecap="round" stroke-linejoin="round" fill="none"/><path d="M248.45 417.24C248.45 417.24 248.45 437.83 255.76 439.18 263.07 440.53 274.72 439.18 274.72 439.18" stroke="#205ABD" stroke-width="0.75" stroke-linecap="round" stroke-linejoin="round" fill="none"/><path d="M9.43 198.17C9.97 198.35 20.81 197.09 21.17 201.6 21.53 206.11 11.42 205.57 11.42 205.57 11.42 205.57 18.23 205.39 18.43 208.82 18.64 212.25 12.5 212.43 10.51 212.43" stroke-width="0" fill="#FE8E5E"/></svg>