<svg viewBox="0 0 146.83 134.49" xmlns="http://www.w3.org/2000/svg" xmlns:xlink="http://www.w3.org/1999/xlink" id="Layer_1" overflow="hidden"><defs></defs><path d="M73.42 0C32.93 0 0 25.02 0 55.79 0 82.81 25.36 105.9 60.31 110.69 61.8 116.26 64.65 121.42 68.53 125.59 70.79 128.03 73.38 130.04 76.22 131.56 79.12 133.11 82.23 134.05 85.45 134.38 86.17 134.45 86.93 134.49 87.7 134.49 88.85 134.49 90.06 134.41 91.39 134.25 91.65 134.22 91.87 133.98 91.9 133.7 91.92 133.43 91.76 133.17 91.5 133.07L90.82 132.83C90.53 132.73 90.24 132.63 89.95 132.51 89.43 132.31 88.91 132.07 88.41 131.82 86.98 131.07 85.75 130.22 84.69 129.26 83.67 128.31 82.86 127.36 82.21 126.34 81.48 125.15 80.88 123.81 80.37 122.24 79.91 120.65 79.64 118.9 79.55 116.89 79.5 115.1 79.62 113.23 79.93 111.33 117.44 108.83 146.83 84.42 146.83 55.77 146.83 25.02 113.9 0 73.42 0" stroke-width="0" fill="#016066"/><path d="M44.08 57.21C44.08 62.34 39.92 66.5 34.79 66.5 29.66 66.5 25.5 62.34 25.5 57.21 25.5 52.08 29.66 47.92 34.79 47.92 39.92 47.92 44.08 52.08 44.08 57.21" stroke-width="0" fill="#FFFFFF"/><path d="M82.18 57.21C82.18 62.34 78.02 66.5 72.89 66.5 67.76 66.5 63.6 62.34 63.6 57.21 63.6 52.08 67.76 47.92 72.89 47.92 78.02 47.92 82.18 52.08 82.18 57.21" stroke-width="0" fill="#FFFFFF"/><path d="M120.28 57.21C120.28 62.34 116.12 66.5 110.99 66.5 105.86 66.5 101.7 62.34 101.7 57.21 101.7 52.08 105.86 47.92 110.99 47.92 116.12 47.92 120.28 52.08 120.28 57.21" stroke-width="0" fill="#FFFFFF"/></svg>