<svg viewBox="0 0 45.12 45" xmlns="http://www.w3.org/2000/svg" xmlns:xlink="http://www.w3.org/1999/xlink" id="Isolation_Mode" overflow="hidden"><defs></defs><path d="M22.37 0C34.97-0.06 45.13 9.99 45.12 22.5 45.12 34.94 35.1 44.94 22.59 45 10.09 45.06 0.03 35.09 0 22.61-0.03 10.06 9.87 0.06 22.37 0ZM17.24 18.66 17.36 19.5C17.53 19.62 17.72 19.85 17.87 19.83 20.52 19.45 20.29 20.88 19.77 22.67 18.88 25.74 18.02 28.83 17.31 31.94 16.51 35.5 19.25 37.93 22.61 36.52 24.13 35.88 25.41 34.55 26.64 33.36 27.09 32.93 27.05 31.99 27.23 31.29 26.65 31.56 26.08 31.88 25.47 32.09 24.76 32.33 24.01 32.47 23.27 32.66 23.21 31.94 22.99 31.19 23.11 30.5 23.31 29.29 23.72 28.11 24.02 26.91 24.76 23.98 25.5 21.05 26.37 17.6 23.04 17.99 20.14 18.32 17.24 18.66ZM24.58 14.86C26.34 14.82 27.95 13.2 27.95 11.46 27.95 9.63 26.2 8 24.35 8.1 22.54 8.2 21.06 9.8 21.13 11.59 21.2 13.38 22.8 14.9 24.59 14.86Z" stroke-width="0" fill="#FFFFFF"/></svg>