<svg viewBox="0 0 279.97 388.38" xmlns="http://www.w3.org/2000/svg" xmlns:xlink="http://www.w3.org/1999/xlink" id="Layer_1" overflow="hidden"><defs></defs><path d="M277.09 2.5C277.09 2.5 275.36 63.53 276.51 123.41 277.66 183.29 279.97 385.5 279.97 385.5 279.97 385.5 175.76 386.08 119.33 387.23 62.9 388.38 3.6 388.38 3.6 388.38 3.6 388.38 1.87 167.17 0.72 96.35-0.43 25.53 0.14 0.2 0.14 0.2 0.14 0.2 99.44-0.3 150.68 0.28 201.92 0.86 277.09 2.5 277.09 2.5" stroke-width="0" fill="#E6E6E6"/><path d="M244.67 150.72C244.67 150.72 117.89 150.72 88.77 151.12 59.65 151.52 26.52 152.7 26.52 152.7L26.52 155.07C26.52 155.07 80.77 153.1 139.02 153.1 197.27 153.1 244.67 152.31 244.67 152.31L244.67 150.73Z" stroke="#FFFFFF" stroke-width="13" stroke-miterlimit="10" fill="#F2F2F2"/><path d="M253.92 27.08C253.92 27.08 143.58 27.08 103.22 28.11 62.85 29.14 26.52 31.2 26.52 31.2L26.52 33.26C26.52 33.26 119.36 30.17 140 29.65 160.63 29.13 253.48 29.13 253.48 29.13L253.93 27.07Z" stroke="#FFFFFF" stroke-width="13" stroke-miterlimit="10" fill="#F2F2F2"/><path d="M245.53 70.87C245.53 70.87 168.05 68.81 113.51 70.36 58.97 71.91 23.91 73.45 23.91 73.45L24.34 76.03C24.34 76.03 113.07 72.42 121.3 72.42 129.53 72.42 245.53 72.93 245.53 72.93L245.53 70.87Z" stroke="#FFFFFF" stroke-width="13" stroke-miterlimit="10" fill="#F2F2F2"/><path d="M115.12 234.15C115.12 234.15 71.15 234.84 50.83 235 30.51 235.16 25.14 234.41 25.14 234.41L25.4 232.85C25.4 232.85 61.71 231.85 68.94 232.68 76.17 233.51 114.99 232.06 114.99 232.06L115.12 234.15Z" stroke="#FFFFFF" stroke-width="13" stroke-miterlimit="10" fill="#F2F2F2"/><path d="M244.23 111.57C244.23 111.57 133.86 110.54 92.3 112.09 50.75 113.64 24.78 114.15 24.78 114.15L23.91 111.57C23.91 111.57 90.13 109.51 110.04 109.51L244.65 109.51 244.22 111.57Z" stroke="#FFFFFF" stroke-width="13" stroke-miterlimit="10" fill="#F2F2F2"/><path d="M245.1 187.69C245.1 187.69 143.38 189.09 100.53 190.03 57.68 190.96 26.51 192.36 26.51 192.36L27.38 194.69C27.38 194.69 123.9 190.95 132.13 191.42 140.35 191.89 245.1 190.02 245.1 190.02L245.1 187.68Z" stroke="#FFFFFF" stroke-width="13" stroke-miterlimit="10" fill="#F2F2F2"/></svg>