<svg viewBox="0 0 81.74 29.96" xmlns="http://www.w3.org/2000/svg" xmlns:xlink="http://www.w3.org/1999/xlink" id="Isolation_Mode" overflow="hidden"><defs><clipPath id="clippath"><path d="M0 29.96 81.72 29.96 81.72 0 0 0 0 29.96 0 29.96Z" stroke-width="0" fill="none" clip-rule="evenodd"/></clipPath><clipPath id="clippath-1"><path d="M52.13 0 81.72 0 81.72 29.96 52.13 29.96 52.13 0 52.13 0Z" stroke-width="0" fill="none" clip-rule="evenodd" clip-path="url(#clippath)"/></clipPath><clipPath id="clippath-2"><path d="M52.13 29.96 81.72 29.96 81.72 0 52.13 0 52.13 29.96 52.13 29.96Z" stroke-width="0" fill="none"/></clipPath><clipPath id="clippath-3"><path d="M0 29.96 81.72 29.96 81.72 0 0 0 0 29.96 0 29.96Z" stroke-width="0" fill="none" clip-rule="evenodd"/></clipPath></defs><g clip-path="url(#clippath-1)"><g clip-path="url(#clippath-2)"><path d="M67.16 10.03C69.85 7.25 72.37 4.62 74.94 2.03 76.92 0.03 79.12-0.12 80.71 1.57 82.24 3.2 82.05 5.31 80.13 7.27 77.57 9.87 74.97 12.43 72.23 15.17 75.03 17.98 77.78 20.65 80.42 23.4 82.48 25.54 82.05 28.41 79.57 29.59 77.86 30.4 76.42 29.85 75.18 28.58 72.54 25.88 69.91 23.16 67.11 20.29 64.32 23.17 61.69 25.96 58.97 28.65 56.87 30.73 53.99 30.25 52.86 27.72 52.09 25.99 52.65 24.55 53.91 23.28 56.57 20.6 59.23 17.92 62.03 15.1 59.22 12.31 56.45 9.65 53.78 6.89 51.63 4.67 52.35 1.44 55.11 0.58 56.71 0.08 58.01 0.68 59.14 1.84 61.73 4.5 64.33 7.15 67.14 10.04L67.14 10.04Z" stroke-width="0" fill="#FFFFFF"/></g></g><g clip-path="url(#clippath-3)"><path d="M0 12.6C0 11.94 0.53 11.41 1.17 11.41L31.23 11.41C31.88 11.41 32.4 11.94 32.4 12.6L32.4 17.36C32.4 18.02 31.87 18.55 31.23 18.55L1.17 18.55C0.52 18.55 0 18.02 0 17.36L0 12.6Z" stroke-width="0" fill="#FFFFFF" fill-rule="evenodd"/></g></svg>