<svg viewBox="0 0 434.35 611.15" xmlns="http://www.w3.org/2000/svg" xmlns:xlink="http://www.w3.org/1999/xlink" id="Layer_1" overflow="hidden"><defs></defs><path d="M101.29 99.94C101.29 99.94 99.91 97.64 97.66 96.14 96.13 95.1 94.19 94.44 92.03 95.15 90.76 95.57 89.44 96.37 88.17 97.37 84.12 100.52 80.57 105.53 80.57 105.53L69.16 119.65C69.16 119.65 67.49 121.22 64.73 121.95 62.35 122.57 59.17 122.57 55.54 120.43 49.92 117.13 52.22 108.83 54.48 103.18 55.4 100.89 56.31 99.04 56.68 98.14 57.34 96.52 68.58 91.69 79.65 87.6 86.18 85.2 92.67 83.04 96.91 81.95 99.33 81.34 101.02 81.06 101.57 81.28 104.69 82.57 101.31 99.94 101.31 99.94" stroke-width="0" fill="#FFA99A"/><path d="M101.29 99.94C101.29 99.94 99.91 97.64 97.66 96.14 98.04 93.27 98.3 88.89 97.51 84.74 97.32 83.75 97.11 82.82 96.89 81.95 99.31 81.34 101 81.06 101.55 81.28 104.67 82.57 101.29 99.94 101.29 99.94" stroke-width="0" fill="#ED8474"/><path d="M88.16 97.36C84.11 100.51 80.56 105.52 80.56 105.52L69.15 119.64C69.15 119.64 67.48 121.21 64.72 121.94 63.92 120.31 62.7 117.82 61.43 115.02 59.54 110.87 55.62 104.93 54.46 103.18 55.38 100.89 56.28 99.05 56.66 98.14 57.32 96.52 68.56 91.69 79.63 87.6L88.17 97.37Z" stroke-width="0" fill="#ED8474"/><path d="M46.22 97.41 38.23 108.03C38.23 108.03 25.36 107.26 14.56 106.47 7.02 105.92 0.48 105.34 0.04 105-0.45 104.63 3.41 97.81 7.73 90.54 12.83 81.97 18.57 72.77 18.57 72.77L34.07 72.67 46.21 97.41Z" stroke-width="0" fill="#B97465"/><path d="M183.14 0.55C183.14 0.55 186.97-2.72 199.15 6.65 212.68 17.06 214.28 38.97 208.8 40.53 203.33 42.09 188.89 37.64 185.1 21.64 181.31 5.64 183.14 0.55 183.14 0.55" stroke-width="0" fill="#B97465"/><path d="M187.41 143.68C187.41 143.68 154.74 91.38 145.9 76.05 137.06 60.72 122.5 35.39 106.93 29.88 91.36 24.37 71.53 28.97 61.54 34.68 51.55 40.4 43.33 46.94 42.35 55.54 41.37 64.14 51.77 60.35 56.9 59.06 62.03 57.77 82.09 45.73 88.3 45.81 94.52 45.9 101.11 86.51 100.68 95.8 100.24 105.09 95.86 110.82 95.86 110.82L148.54 140.48 187.42 143.66Z" stroke-width="0" fill="#FFA99A"/><path d="M18.58 72.77 184.12 0.16 183.7 6.53 185.42 16.07 189.77 24.35 196.28 32.88 202.82 38.3 208.8 40.53 38.24 108.02 40.73 97.09 30.34 95.29 32.69 85.59 22.31 83.79 26.36 75.53 18.58 72.77Z" stroke-width="0" fill="#FCC532"/><rect x="19.31" y="40.95" width="171.02" height="1.13" stroke-width="0" fill="#445AE4" transform="matrix(0.917477 -0.397789 0.397789 0.917477 -7.87 45.11)"/><rect x="26.48" y="53.33" width="167.91" height="1.13" stroke-width="0" fill="#445AE4" transform="matrix(0.926002 -0.377518 0.377518 0.926002 -12.17 45.69)"/><rect x="33.77" y="65.38" width="171.18" height="1.13" stroke-width="0" fill="#445AE4" transform="matrix(0.931691 -0.363251 0.363251 0.931691 -15.8 47.87)"/><path d="M204.12 21.47C204.12 21.47 202.21 16.7 198.86 14.33 195.51 11.96 193.63 11.05 193.32 14.75 193.01 18.45 198.37 25.83 201.21 27.56 204.05 29.29 206.31 28.96 204.12 21.47" stroke-width="0"/><path d="M14.56 106.47C7.02 105.92 0.48 105.34 0.04 105-0.45 104.63 3.41 97.81 7.74 90.54L14.56 106.47Z" stroke-width="0"/><path d="M113.41 109.72C113.41 109.72 99.53 111.26 87.74 99.95 75.95 88.64 55.66 58.93 47.12 57.33 38.58 55.74 34.19 61.46 39.63 73.92 45.07 86.37 66.04 115.54 69.63 127.79 73.22 140.03 79.48 150.71 88.83 156.14 98.18 161.56 106.65 163.77 106.65 163.77L120.33 185.88 187.42 143.68 113.42 109.72Z" stroke-width="0" fill="#FFA99A"/><path d="M434.35 578.36 335.49 600.44 287.56 611.15C287.56 611.15 221.19 368.61 220.49 367.59 218.11 364.12 211.95 355.11 203.88 342.98 201.26 339.05 198.45 334.79 195.49 330.28 190.4 322.49 184.88 313.97 179.29 305.15 176.42 300.61 173.51 295.99 170.65 291.34 165.36 282.8 160.14 274.16 155.3 265.83 154.86 265.07 154.42 264.33 153.99 263.57 151.74 259.69 149.56 255.89 147.46 252.22 141.6 241.94 136.36 232.5 131.84 224.13 129.15 219.17 126.71 214.58 124.54 210.43 116.22 194.52 111.9 184.98 112.66 184.83 114.1 184.54 189.19 140.28 189.19 140.28L195.66 136.82C195.66 136.82 203.74 145.67 215.48 159.25 218.19 162.39 221.09 165.77 224.12 169.37 230.07 176.37 236.55 184.16 243.18 192.35 244.91 194.5 246.65 196.67 248.4 198.87 249.84 200.68 251.41 202.63 253.09 204.71 258.81 211.76 265.82 220.19 273.37 229.19 276.8 233.29 280.36 237.51 283.98 241.76 291.01 250.07 298.22 258.52 305.1 266.58 308.85 270.97 312.53 275.25 316.01 279.29 321.76 285.98 329.93 295.01 338.11 303.91 341.98 308.11 345.85 312.3 349.46 316.19 359.97 327.49 368.34 336.34 368.34 336.34" stroke-width="0" fill="#F04C86"/><path d="M224.11 169.38 131.83 224.14C129.14 219.17 126.7 214.59 124.53 210.44L215.47 159.26C218.18 162.4 221.07 165.78 224.1 169.38" stroke-width="0" fill="#B43965"/><path d="M98.45 108.49 110.02 113.54 98.82 105.26 98.45 108.49Z" stroke-width="0" fill="#ED8474"/></svg>