<svg viewBox="0 0 402.29 653.21" xmlns="http://www.w3.org/2000/svg" xmlns:xlink="http://www.w3.org/1999/xlink" id="Layer_1" overflow="hidden"><defs></defs><g><path d="M161.13 0C158.04 0 154.91 0.14 151.84 0.42 145.06 1.04 138.34 2.37 131.87 4.38 125.56 6.33 119.64 8.97 114.27 12.22 111.51 13.89 108.76 15.84 105.86 18.2 103.17 20.37 100.56 22.79 97.89 25.58 93 30.69 88.73 36.52 85.21 42.9 81.78 49.11 79.22 55.79 77.6 62.77 75.98 69.72 75.44 76.9 75.99 84.1 76.54 91.34 78.29 98.51 81.19 105.4 84 112.09 87.82 118.26 92.55 123.74 94.91 126.47 97.52 129.01 100.3 131.3 103 133.53 106.01 135.57 109.23 137.34 111.75 138.74 114.42 139.94 117.18 140.91 117.26 141.25 117.44 141.49 117.69 141.64 117.85 141.74 118.02 141.78 118.22 141.78 118.32 141.78 118.42 141.77 118.54 141.75 125.59 140.76 132.45 138.45 139.08 136.22 140.84 135.63 142.59 135.04 144.35 134.47 146.72 133.71 148.81 133.08 150.75 132.56 152.48 132.09 154.22 131.67 155.96 131.24L156.74 131.05C160.33 130.17 163.94 129.32 167.54 128.48L168.82 128.18 170.92 127.69C186.45 124.06 202.51 120.31 217.73 114.69 222.71 112.85 227.44 110.85 231.78 108.75 231.85 108.79 231.92 108.83 232 108.85 232.1 108.88 232.19 108.89 232.29 108.89 232.77 108.89 233.19 108.57 233.35 108.08 234.14 105.61 234.98 103.15 235.81 100.7 237.78 94.88 239.83 88.85 241.26 82.76 242.25 78.57 242.89 74.29 243.18 70.04 243.41 66.66 243.54 63.4 243.58 60.33 243.66 52.2 243.05 45.26 241.71 39.12 240.95 35.66 239.88 32.41 238.52 29.46 237.06 26.31 235.12 23.48 232.75 21.07 230.76 19.05 228.36 17.38 225.81 16.24 224.6 15.7 223.32 15.26 222.01 14.92 220.82 14.61 219.49 14.36 217.84 14.16 216.05 13.94 214.1 13.84 211.72 13.84 210.96 13.84 210.19 13.85 209.43 13.86 208.97 13.86 208.51 13.88 208.05 13.89L207.35 13.91C198.2 6.91 186.14 2.34 172.48 0.68 168.82 0.23 165.01 0.01 161.15 0.01" stroke-width="0" fill="#792013"/><path d="M100.07 23.72C98.59 24.89 97.14 26.1 95.77 27.39 94.35 28.71 93.01 30.12 91.72 31.57 89.14 34.48 86.78 37.61 84.78 40.95 82.78 44.31 81.09 47.83 79.74 51.5 79.07 53.34 78.49 55.21 77.98 57.1 77.47 58.99 77.06 60.89 76.7 62.82 75.16 71.1 74.48 79.61 75.25 88.02 75.63 92.2 76.43 96.36 77.71 100.37 78.96 104.29 80.8 108.04 82.91 111.57 85.35 115.67 88.36 119.41 91.68 122.82 91.85 123 92.16 122.98 92.35 122.84 92.58 122.68 92.68 122.3 92.48 122.08 90.77 120.2 89.18 118.23 87.7 116.17 86.24 114.13 84.94 111.98 83.75 109.78L83.85 109.97C81.51 105.57 79.72 100.88 78.54 96.03 78.56 96.12 78.58 96.2 78.6 96.28 77.23 90.51 76.73 84.59 76.91 78.67 76.91 78.76 76.91 78.84 76.91 78.94 77.04 74.89 77.48 70.85 78.16 66.86 78.8 63.09 79.64 59.36 80.76 55.71 80.75 55.76 80.73 55.81 80.72 55.85 82.82 49.14 85.74 42.69 89.49 36.73 89.45 36.79 89.42 36.84 89.38 36.9 90.59 34.99 91.92 33.16 93.35 31.4 94.81 29.62 96.41 27.93 98.1 26.36 98.87 25.65 99.67 24.96 100.5 24.31 100.66 24.19 100.7 23.98 100.59 23.81 100.52 23.72 100.4 23.66 100.29 23.66 100.22 23.66 100.15 23.68 100.09 23.73M80.69 56.01C80.71 55.96 80.72 55.91 80.74 55.85 80.72 55.9 80.71 55.95 80.69 56.01" stroke-width="0" fill="#63190E"/><path d="M235.93 72.64C233.97 72.64 231.84 73.14 229.41 74.17 229.24 74.24 229.08 74.32 228.91 74.4 228.62 74.53 228.4 74.79 228.28 75.12 228.16 75.49 228.18 75.9 228.36 76.23 228.49 76.48 228.69 76.67 228.92 76.78 227.39 81.21 226.85 86.38 227.33 92.14 227.58 95.12 228.2 98.14 229.19 101.12 229.7 102.66 230.28 104.1 230.91 105.38 231.51 106.61 232.29 107.87 233.28 109.24 234.09 110.35 235.02 111.35 236.05 112.21 236.33 112.45 236.62 112.68 236.91 112.89L236.75 112.95C236.36 113.15 235.97 113.35 235.59 113.58 234.72 114.1 234.3 115.03 234.52 115.96 234.75 116.9 235.65 117.61 236.62 117.61 236.79 117.61 236.95 117.59 237.11 117.55 238.43 117.21 239.55 116.54 240.55 115.86 241.32 115.34 241.88 114.92 242.39 114.48 243.25 113.74 244.06 112.85 244.95 111.65 246.33 109.81 247.48 107.47 248.38 104.7 249.17 102.27 249.68 99.51 249.91 96.52 250.12 93.8 250.01 91 249.59 88.2 249.19 85.55 248.45 83.06 247.4 80.82 246.36 78.6 244.97 76.72 243.38 75.39 242.46 74.62 241.48 74.01 240.39 73.52 239.46 73.11 238.4 72.84 237.14 72.7 236.74 72.66 236.34 72.64 235.94 72.64" stroke-width="0" fill="#F0BEA9"/><path d="M238.35 78.33C237.54 78.47 236.78 78.73 236.03 79.07 234.42 79.81 233.01 80.93 231.87 82.28 231.29 82.96 230.8 83.7 230.36 84.47 229.89 85.29 229.53 86.17 229.23 87.06 228.68 88.68 228.52 90.47 228.83 92.16 228.87 92.38 228.92 92.56 229.09 92.71 229.25 92.86 229.47 92.93 229.68 92.92 229.89 92.9 230.09 92.81 230.23 92.65 230.37 92.5 230.47 92.27 230.44 92.06 230.34 91.39 230.32 90.72 230.36 90.04 230.45 88.99 230.68 87.96 231.02 86.96 231.44 85.83 231.98 84.76 232.66 83.76L232.66 83.76C233.34 82.79 234.12 81.91 235.02 81.13 234.98 81.17 234.93 81.2 234.9 81.24 235.55 80.69 236.24 80.21 237 79.84 236.96 79.86 236.91 79.88 236.88 79.9 237.53 79.6 238.18 79.37 238.88 79.22 239.43 79.12 239.99 79.08 240.55 79.11 240.51 79.11 240.47 79.11 240.43 79.1 240.49 79.1 240.55 79.11 240.61 79.11 240.73 79.12 240.84 79.12 240.94 79.05 241.04 78.99 241.11 78.88 241.14 78.76 241.18 78.54 241.03 78.25 240.79 78.23 240.51 78.21 240.24 78.2 239.96 78.2 239.42 78.2 238.89 78.24 238.35 78.34M231.02 86.97C231.02 86.97 230.99 87.05 230.98 87.08 230.99 87.04 231.01 87 231.02 86.97" stroke-width="0" fill="#DA8C67"/><path d="M193.33 26.06C191.61 26.06 189.81 26.13 188 26.27 182.77 26.65 177.35 27.54 171.43 29 166.3 30.26 161.07 31.9 155.88 33.88 151.07 35.71 146.84 37.61 142.93 39.66 137.64 42.44 132.85 45.8 128.67 49.66 123.69 54.25 119.62 59.79 116.88 65.67 115.56 68.51 114.51 71.51 113.74 74.58 113.01 77.48 112.52 80.61 112.28 83.91 111.84 89.87 112.34 96.38 113.77 103.25 115.07 109.5 117.16 115.89 120.15 122.79 121.55 126.04 123.12 129.26 124.8 132.38 126.75 135.97 129.08 139.33 131.51 142.74L132.9 144.69C136.55 149.79 140.33 155.06 142.85 160.92L142.85 160.9C142.85 160.9 142.88 160.98 142.88 160.98 143.1 161.52 143.3 162.03 143.49 162.56 143.61 162.87 143.76 163.08 144 163.22 144.05 163.25 144.11 163.28 144.17 163.3 144.34 163.67 144.51 164.05 144.67 164.44 145.92 167.5 146.79 170.85 147.32 174.66L147.34 174.82C147.93 179.47 147.92 184.18 147.32 188.82L147.38 188.53C146.83 192.34 145.91 195.86 144.62 198.99L144.62 198.99C143.64 201.29 142.46 203.36 141.12 205.14 140.24 206.25 139.3 207.25 138.33 208.1 138.13 208.28 138.02 208.53 138.01 208.82 138 209.13 138.12 209.45 138.33 209.66 138.46 209.79 138.61 209.88 138.79 209.94 143.23 216.32 148.08 222.55 153.19 228.46 158.69 234.82 164.51 240.77 170.48 246.14 176.83 251.86 183.34 256.86 189.82 261 193.15 263.12 196.57 265.07 199.99 266.77 201.44 267.49 202.57 267.97 203.66 268.34 204.62 268.66 205.64 268.89 206.76 269.03 207.22 269.09 207.69 269.12 208.16 269.12 209.47 269.12 210.71 268.89 211.85 268.44 213.39 267.82 214.77 266.84 215.95 265.52 217.06 264.27 218.02 262.76 218.86 260.9 219.66 259.14 220.32 257.2 220.89 254.97 221.39 252.99 221.8 250.88 222.16 248.33 222.48 246.1 222.73 243.75 222.92 241.16 223.24 236.94 223.35 232.78 223.42 227.82L223.44 226.04C223.46 224.26 223.48 222.48 223.55 220.7 223.6 219.22 223.67 217.75 223.73 216.27 223.95 211.29 224.17 206.13 224.02 201.06 224 200.45 223.52 199.96 222.92 199.96 222.66 199.96 222.42 200.05 222.21 200.22 220.49 199.91 218.79 199.43 217.19 198.79 217.17 198.78 217.15 198.77 217.13 198.76L217.13 198.76C217.13 198.76 217.13 198.76 217.12 198.76L217.12 198.76C215.36 198 213.69 197.02 212.13 195.85 210.45 194.53 208.9 192.96 207.53 191.2 205.97 189.14 204.62 186.8 203.51 184.24L203.4 184.01 203.41 184.01C202.11 180.81 201.2 177.4 200.71 173.88 200.45 171.91 200.32 169.92 200.33 167.97 203.89 167.05 207.49 165.8 211.02 164.28 214.31 162.87 217.51 161.17 220.54 159.24 223.75 157.2 226.64 154.91 229.12 152.43 231.59 149.97 233.77 147.17 235.61 144.11 237.32 141.27 238.74 138.11 239.81 134.73 241.82 128.4 242.5 121.41 241.81 113.93 241.42 109.78 240.56 105.7 239.77 102.26 238.92 98.58 237.88 94.67 236.42 89.6 235.6 86.75 234.74 83.91 233.89 81.08 232.71 77.16 231.49 73.1 230.38 69.09 228.16 61.07 226.73 54.4 225.89 48.09L225.89 48.38C225.74 46.97 225.58 45.56 225.45 44.14 225.43 43.88 225.37 43.6 225.13 43.36 225 43.23 224.84 43.14 224.67 43.09 223.83 41.09 222.8 39.27 221.63 37.68 220.91 36.7 220.12 35.77 219.29 34.93 218.54 34.17 217.69 33.42 216.61 32.59 213.18 29.96 208.82 28.1 203.67 27.06 200.49 26.42 197.02 26.09 193.34 26.09" stroke-width="0" fill="#F6CFBE"/><path d="M188 26.23C182.74 26.63 177.32 27.52 171.42 28.97 166.3 30.22 161.07 31.86 155.87 33.85 151.03 35.69 146.79 37.58 142.92 39.63 137.66 42.39 132.86 45.75 128.66 49.63 123.67 54.24 119.59 59.77 116.87 65.65 115.57 68.45 114.51 71.45 113.72 74.56 112.99 77.48 112.5 80.63 112.25 83.91 111.81 89.86 112.31 96.37 113.74 103.26 114.2 105.47 114.76 107.7 115.42 109.95 116.23 109.72 117.03 109.5 117.84 109.27 117.83 109.27 117.82 109.27 117.81 109.27 117.82 109.27 117.83 109.27 117.85 109.26 117.87 109.26 117.88 109.25 117.9 109.24 117.9 109.24 117.9 109.24 117.89 109.24 134.3 104.46 150.32 98.07 164.94 89.15L164.86 89.2C166.46 88.22 168.05 87.21 169.61 86.17 170.88 85.32 172.14 84.46 173.39 83.58 176 81.76 178.57 79.9 181.08 77.96 186.34 73.92 191.39 69.6 195.95 64.78L195.88 64.85C199.42 61.08 202.67 56.99 205.15 52.44 205.15 52.44 205.14 52.45 205.14 52.46 205.46 51.87 205.77 51.26 206.06 50.65 206.13 50.51 206.25 50.42 206.4 50.42 206.42 50.42 206.44 50.42 206.46 50.42 206.46 50.42 206.47 50.42 206.48 50.42 206.56 50.42 206.65 50.45 206.72 50.51 208.33 51.99 210.03 53.37 211.83 54.61 211.81 54.59 211.78 54.57 211.76 54.55 213.11 55.48 214.52 56.34 215.98 57.09 217.35 57.79 218.75 58.41 220.2 58.93 220.2 58.93 220.19 58.93 220.18 58.93 221.42 59.36 222.69 59.74 223.97 60.01 225.19 60.28 226.42 60.46 227.66 60.57 227.63 60.57 227.59 60.57 227.56 60.57 227.79 60.59 228.02 60.6 228.25 60.61 227.2 56.1 226.44 51.99 225.91 48.04L225.85 48.33C225.81 47.49 225.72 46.65 225.63 45.81L225.46 44.09C225.44 43.82 225.38 43.54 225.13 43.29 224.99 43.16 224.83 43.06 224.66 43.02 223.84 41.05 222.82 39.23 221.63 37.6 220.9 36.61 220.11 35.68 219.29 34.85 218.52 34.08 217.67 33.33 216.61 32.51 213.16 29.87 208.81 28.01 203.66 26.97 200.47 26.33 197 26 193.32 26 191.68 26 189.89 26.07 187.99 26.21M205.12 52.45C205.12 52.45 205.1 52.48 205.1 52.49 205.1 52.48 205.12 52.46 205.12 52.45" stroke-width="0" fill="#F0BEA9"/><path d="M159.1 164.06C159.1 164.06 159.11 164.08 159.12 164.08 159.12 164.08 159.12 164.08 159.12 164.07 159.12 164.07 159.12 164.08 159.13 164.08 163.36 167.94 168.1 171.22 173.18 173.86 173.15 173.85 173.12 173.83 173.09 173.82 177.69 176.2 182.55 178.05 187.62 179.15 187.59 179.15 187.55 179.14 187.52 179.13 189.39 179.52 191.28 179.82 193.18 179.98 194.95 180.12 196.73 180.15 198.5 180.07L198.49 180.07 198.51 180.07C198.51 180.07 198.53 180.07 198.54 180.07L198.57 180.07C199.7 180 200.83 179.88 201.95 179.7 201.42 177.81 201.01 175.86 200.73 173.88 200.47 171.94 200.34 169.95 200.35 167.97 200.59 167.91 200.83 167.85 201.06 167.79 200.23 167.94 199.39 168.06 198.55 168.14 197.91 168.2 197.27 168.26 196.63 168.28 194.93 168.5 193.22 168.65 191.5 168.74 187.63 168.96 183.75 168.88 179.89 168.55 176.05 168.22 172.23 167.66 168.47 166.81 165.25 166.08 162.07 165.16 158.98 163.96 159.02 163.99 159.06 164.03 159.09 164.06" stroke-width="0" fill="#DA8C67"/><path d="M198.54 180.06C198.54 180.06 198.52 180.06 198.5 180.06 198.5 180.06 198.5 180.06 198.5 180.06 198.52 180.06 198.54 180.06 198.57 180.06L198.54 180.06Z" stroke-width="0" fill="#DA8C67"/><path d="M189.84 19.91C186.92 19.91 183.84 20.07 180.44 20.4 166 21.77 151.97 25.87 139.85 32.26 133.51 35.61 127.69 39.64 122.56 44.24 117.28 48.98 112.8 54.4 109.22 60.34 108.2 62.04 107.27 63.87 106.37 65.94 105.43 68.12 104.6 70.33 103.91 72.54 103.18 74.85 102.6 77.17 102.19 79.46 101.74 81.98 101.52 84.22 101.52 86.32 101.52 91.13 102.72 94.7 105.09 96.94 106.4 98.18 108.14 99 110.11 99.31 110.81 99.42 111.55 99.47 112.3 99.47 113.9 99.47 115.65 99.23 117.62 98.72 117.93 98.64 118.18 98.43 118.32 98.13 122.78 97.32 126.71 96.41 130.31 95.37 133.64 94.41 137.13 93.2 141.3 91.57 148.18 88.88 154.95 85.61 161.44 81.87 174.95 74.06 186.43 64.48 195.57 53.38 199.13 49.05 202.34 44.44 205.09 39.68 206.24 41.5 207.61 43.29 209.16 45.01 211.35 47.43 213.77 49.54 216.35 51.29 219.12 53.16 221.95 54.48 224.77 55.22 226.45 55.65 228.12 55.87 229.75 55.87 231.12 55.87 232.47 55.71 233.76 55.4 234.1 55.32 234.32 55.19 234.48 54.96 234.65 54.72 234.72 54.43 234.68 54.15 234.67 54.07 234.65 54 234.62 53.94 234.62 53.86 234.6 53.78 234.57 53.7 232.04 46.92 229.45 41.7 226.4 37.27 224.84 34.99 223.11 32.91 221.28 31.07 219.48 29.27 217.46 27.65 215.27 26.25 211.03 23.52 205.97 21.65 200.22 20.71 196.97 20.17 193.57 19.91 189.83 19.91" stroke-width="0" fill="#792013"/><path d="M205.41 36.19C204.99 37.09 204.55 37.98 204.1 38.85L204.19 38.7C200.94 44.87 196.76 50.49 192.03 55.59 192.03 55.59 192.05 55.57 192.05 55.56 192.04 55.58 192.02 55.59 192.01 55.61 192.01 55.61 192.01 55.61 192 55.62 192 55.62 192 55.62 192 55.62 183.68 64.5 173.77 71.7 163.47 78.09 163.48 78.09 163.49 78.08 163.5 78.07 161.22 79.47 158.92 80.85 156.59 82.16 153.94 83.64 151.22 85.04 148.48 86.34 142.91 88.99 137.15 91.24 131.26 93.05 127.82 94.08 124.34 94.96 120.82 95.65 119.04 96 117.25 96.29 115.45 96.54 113.52 96.81 111.58 96.94 109.62 97.02 109.77 97.02 109.92 97 110.07 97 108.59 97.06 107.12 97.09 105.65 97.21 105.35 97.26 105.08 97.38 104.83 97.58 104.46 97.88 104.23 98.32 104.19 98.79 104.15 99.25 104.29 99.71 104.58 100.06 104.85 100.39 105.35 100.71 105.79 100.7 110.41 100.58 115.01 99.94 119.55 99.08 123.87 98.27 128.14 97.17 132.35 95.88 140.72 93.33 148.8 89.86 156.47 85.66 163.4 81.86 170.01 77.44 176.23 72.57 182.41 67.73 188.19 62.37 193.4 56.49 198.69 50.51 203.26 43.88 206.63 36.63 206.78 36.31 206.55 35.92 206.25 35.81 206.18 35.78 206.1 35.77 206.03 35.77 205.77 35.77 205.54 35.94 205.42 36.19M192.01 55.62C192.01 55.62 192.01 55.62 192.01 55.62L192.03 55.6 192 55.63Z" stroke-width="0" fill="#63190E"/><path d="M204.65 38.49C204.34 38.67 204.25 39.06 204.41 39.37 207.36 44.87 211.78 49.59 217.31 52.53 220.02 53.97 222.95 54.95 225.97 55.46 227.49 55.71 229.03 55.87 230.56 55.88 232.22 55.9 233.89 55.73 235.53 55.45 235.8 55.41 236.05 55.18 236.19 54.95 236.33 54.71 236.36 54.43 236.3 54.15 236.23 53.88 236.05 53.64 235.8 53.5 235.55 53.35 235.29 53.34 235.01 53.39 234.45 53.49 233.9 53.57 233.33 53.64 230.97 53.92 228.58 53.94 226.22 53.64 226.29 53.65 226.37 53.66 226.45 53.67 224.16 53.35 221.92 52.74 219.77 51.87 219.84 51.9 219.91 51.93 219.97 51.96 217.77 51.04 215.68 49.85 213.76 48.43 213.76 48.43 213.77 48.44 213.78 48.45 213.77 48.45 213.76 48.43 213.75 48.43 213.71 48.4 213.67 48.37 213.62 48.34 213.64 48.35 213.66 48.37 213.68 48.38 211.65 46.83 209.85 45.03 208.26 43.02 208.27 43.03 208.28 43.04 208.29 43.06 207.25 41.7 206.32 40.26 205.51 38.75 205.4 38.54 205.17 38.43 204.95 38.43 204.84 38.43 204.73 38.46 204.63 38.51M213.74 48.43C213.74 48.43 213.74 48.43 213.75 48.43 213.73 48.41 213.7 48.39 213.67 48.37 213.69 48.39 213.71 48.4 213.73 48.42" stroke-width="0" fill="#63190E"/><path d="M183.99 36.28C183.56 36.84 183.13 37.4 182.69 37.96 182.69 37.96 182.69 37.96 182.69 37.96 182.69 37.96 182.68 37.97 182.67 37.98L182.6 38.07C182.6 38.07 182.61 38.05 182.62 38.05 175.65 46.74 167.32 54.28 158.35 60.85 158.43 60.79 158.51 60.73 158.59 60.67 152.63 65.02 146.21 68.8 139.34 71.53 139.39 71.51 139.45 71.49 139.5 71.47 139.41 71.51 139.31 71.54 139.22 71.58 139.19 71.59 139.16 71.61 139.12 71.62 139.14 71.62 139.16 71.6 139.18 71.6 138.72 71.78 138.26 71.94 137.8 72.1 137.17 72.32 136.52 72.5 135.88 72.71 135.43 72.87 135.07 73.08 134.82 73.5 134.59 73.89 134.52 74.36 134.63 74.81 134.74 75.25 135.02 75.63 135.42 75.87 135.78 76.08 136.31 76.21 136.72 76.06 137.63 75.74 138.52 75.34 139.4 74.97 140.31 74.58 141.22 74.17 142.11 73.76 143.88 72.93 145.61 72.03 147.31 71.07 150.86 69.04 154.26 66.75 157.55 64.33 160.9 61.87 164.13 59.23 167.17 56.39 170.19 53.56 173.11 50.64 175.89 47.58 179.03 44.13 182.01 40.55 184.83 36.83 185 36.61 184.87 36.27 184.66 36.14 184.58 36.09 184.49 36.07 184.41 36.07 184.24 36.07 184.08 36.17 183.96 36.32M139.17 71.61C139.17 71.61 139.19 71.61 139.2 71.6 139.24 71.58 139.28 71.57 139.32 71.55 139.27 71.57 139.22 71.59 139.17 71.61M182.6 38.08C182.6 38.08 182.63 38.04 182.65 38.02 182.65 38.02 182.65 38.02 182.65 38.01 182.63 38.03 182.61 38.06 182.59 38.08" stroke-width="0" fill="#63190E"/><path d="M357.03 131.42C356.92 131.42 356.81 131.42 356.71 131.43 356.28 131.46 355.8 131.61 355.36 131.85 354.93 132.09 354.56 132.38 354.19 132.79 353.9 133.1 353.68 133.47 353.48 133.83 353.19 134.35 353 134.83 352.85 135.24 352.02 137.62 351.83 140.25 351.75 142.5 351.66 145.01 351.74 147.69 351.99 150.47 352.08 151.53 352.2 152.58 352.35 153.64 352.46 154.36 352.57 155.07 352.75 155.76 353.53 158.74 354.91 161.69 357 164.79 358.83 167.52 361.01 169.98 363.27 172.48L364.14 173.44C367.03 176.63 370.02 179.92 372.27 183.68 373.22 185.32 373.99 186.99 374.56 188.63 374.69 189.02 375.11 189.29 375.58 189.29 375.73 189.29 375.87 189.26 376 189.21 376.54 188.98 376.79 188.37 376.58 187.77 376.32 187.03 376.04 186.31 375.73 185.63L375.92 185.63C376.22 185.6 376.48 185.45 376.65 185.22 376.85 184.96 376.87 184.7 376.87 184.41 376.83 180.06 376.53 176.07 375.95 172.21 375.4 168.56 374.52 164.81 373.33 161.06 372.23 157.6 370.82 154.08 369.01 150.29 368.17 148.54 367.24 146.75 366.17 144.79 365.7 143.92 365.34 143.02 364.99 142.15L364.71 141.45C363.85 139.31 362.97 137.09 361.76 135.08 361.07 133.92 360.38 133.06 359.6 132.39 359.25 132.09 358.82 131.83 358.36 131.64 357.96 131.48 357.54 131.4 357.05 131.4" stroke-width="0" fill="#F6CFBE"/><path d="M379.4 139.73C379.11 139.73 378.84 139.75 378.58 139.95 378.35 140.13 378.21 140.38 378.17 140.67 378.13 140.96 378.21 141.26 378.39 141.49 378.47 141.59 378.59 141.69 378.72 141.78 378.57 142.46 378.49 143.22 378.47 144.15 378.44 145.22 378.5 146.34 378.64 147.48 378.93 149.85 379.55 152.17 380.48 154.37 381.45 156.64 382.71 158.46 384.23 159.79 385.01 160.46 385.91 160.99 386.86 161.31 387.54 161.54 388.26 161.67 389.01 161.68 389.03 161.84 389.1 161.99 389.21 162.13 389.38 162.35 389.64 162.5 389.92 162.54 389.94 162.54 389.96 162.54 389.98 162.54 390.31 162.54 390.57 162.48 390.74 162.31 391.02 162.04 391.28 161.76 391.52 161.46 391.75 161.16 391.94 160.81 392.09 160.51 392.46 159.8 392.55 159.04 392.57 158.52 392.61 157.34 392.25 156.16 391.51 155.09L391.69 154.99C392.12 154.7 392.51 154.28 392.83 153.78 393.14 153.29 393.36 152.75 393.52 152.06 393.68 151.38 393.63 150.65 393.57 150.09 393.5 149.43 393.31 148.72 393 147.91 392.75 147.23 392.35 146.61 392.03 146.14 391.71 145.66 391.29 145.17 390.73 144.61 389.77 143.65 388.61 142.79 387.2 141.98 386.02 141.3 384.7 140.75 383.26 140.33 381.84 139.92 380.58 139.72 379.39 139.72" stroke-width="0" fill="#F6CFBE"/><path d="M374.36 128.65C374.02 128.65 373.71 128.69 373.41 128.76 372.92 128.88 372.47 129.08 371.99 129.39 371.63 129.63 371.27 129.97 370.9 130.45 370.34 131.16 369.89 132.06 369.49 133.3 369.16 134.33 368.9 135.46 368.67 136.86 368.44 138.29 368.31 139.75 368.19 141.17 368.13 141.85 368.07 142.53 368 143.21 367.95 143.7 367.88 144.19 367.81 144.68L367.74 145.16 367.5 146.87 367.26 148.58C367 150.45 366.72 152.66 366.57 154.95 366.42 157.15 366.44 159.28 366.61 161.28 366.79 163.36 367.23 165.54 367.9 167.76 368.11 168.45 368.35 169.13 368.59 169.8L368.77 170.31 368.94 170.78C369.21 171.53 369.47 172.29 369.73 173.05 370.48 175.2 371.03 176.98 371.48 178.62L371.48 178.45C372.27 181.54 372.73 184.36 372.82 186.97 372.76 187.05 372.7 187.14 372.66 187.22 372.55 187.48 372.55 187.74 372.66 188.08L372.78 188.41C372.77 189.66 372.64 190.82 372.45 191.94 372.4 192.21 372.47 192.48 372.64 192.72 372.82 192.97 373.09 193.14 373.39 193.17 373.44 193.17 373.49 193.18 373.54 193.18 374.07 193.18 374.52 192.78 374.62 192.23 374.65 192.04 374.68 191.86 374.71 191.68 375.23 192.38 375.9 193.09 376.71 193.85 378.6 195.6 380.94 197.09 383.67 198.28 384.83 198.79 386.12 199.23 387.6 199.61 388.87 199.93 390.16 200.12 391.44 200.17 391.69 200.18 391.94 200.19 392.19 200.19 393.24 200.19 394.24 200.08 395.17 199.88 395.76 199.75 396.36 199.56 396.95 199.33 397.35 199.17 397.77 198.97 398.21 198.72 397.97 199.38 397.74 200.05 397.47 200.7 397.24 201.26 397.5 201.9 398.06 202.13 398.19 202.18 398.33 202.21 398.47 202.21 398.92 202.21 399.33 201.94 399.49 201.54 401.2 197.3 401.74 192.71 402.01 189.62 402.19 187.57 402.28 185.58 402.28 183.7 402.28 182.03 402.09 180.36 401.73 178.73 401.4 177.24 400.92 175.76 400.29 174.31 399.75 173.08 399.07 171.83 398.15 170.37 396.62 167.97 394.78 165.75 392.99 163.6L392.8 163.37C390.57 160.7 388.42 158.05 386.67 155.11 386.04 154.02 385.52 152.99 385.05 151.96 384.66 151.09 384.37 150.3 384.15 149.53 383.73 147.9 383.42 146.21 383.13 144.57 383.01 143.88 382.88 143.19 382.75 142.51 382.27 139.99 381.67 137.07 380.63 134.38 379.58 131.63 378.29 129.97 376.57 129.15 376.13 128.94 375.6 128.79 374.98 128.69 374.78 128.66 374.57 128.65 374.36 128.65" stroke-width="0" fill="#F6CFBE"/><path d="M367.1 148.14C366.91 149.57 366.73 151 366.61 152.45 366.49 153.9 366.45 155.35 366.53 156.8 366.68 159.7 367.36 162.63 368.86 165.14 368.94 165.28 369.04 165.38 369.2 165.43 369.35 165.48 369.52 165.47 369.66 165.4 369.94 165.26 370.08 164.89 369.92 164.6 369.4 163.6 368.95 162.57 368.58 161.5 368.6 161.55 368.62 161.6 368.64 161.66 368.32 160.67 368.08 159.66 367.89 158.64 367.71 157.61 367.6 156.57 367.54 155.53 367.54 155.58 367.54 155.63 367.54 155.68 367.4 153.18 367.51 150.67 367.82 148.19 367.84 148 367.67 147.82 367.49 147.81L367.46 147.81C367.27 147.81 367.12 147.96 367.1 148.14" stroke-width="0" fill="#DA8C67"/><path d="M382 138.78C381.8 138.81 381.68 139.01 381.71 139.2 382.21 141.96 382.8 144.71 383.59 147.41 384.31 149.87 385.22 152.27 386.34 154.58 387.47 156.91 388.82 159.13 390.33 161.23 391.21 162.45 392.16 163.62 393.14 164.76 393.64 165.33 394.13 165.9 394.61 166.48 395.15 167.12 395.65 167.78 396.13 168.48 396.13 168.48 396.13 168.47 396.12 168.46 396.43 168.93 396.71 169.4 396.97 169.89 397.06 170.07 397.27 170.14 397.45 170.05 397.62 169.96 397.7 169.74 397.61 169.57 397.13 168.66 396.56 167.8 395.93 166.98 395.27 166.12 394.55 165.29 393.87 164.45 393.2 163.63 392.58 162.78 391.96 161.93 391.34 161.08 390.74 160.23 390.15 159.36 389.04 157.69 388.01 155.98 387.1 154.19 386.17 152.37 385.4 150.48 384.75 148.56 384.76 148.59 384.77 148.62 384.78 148.66 383.73 145.53 382.99 142.3 382.4 139.06 382.37 138.89 382.22 138.77 382.05 138.77 382.03 138.77 382 138.77 381.98 138.77" stroke-width="0" fill="#DA8C67"/><path d="M370.76 187.96C369.24 192.29 367.55 196.68 365.61 201.3 365.59 201.36 365.56 201.41 365.54 201.47 360.14 214.22 353.74 226.7 347.54 238.78 345.85 242.07 344.16 245.37 342.48 248.67 337.93 257.66 334.6 264.6 331.68 271.19L331.36 270.93 330.69 270.09C329.28 268.34 327.87 266.58 326.48 264.81L325.06 263.01C324.12 261.8 323.18 260.6 322.23 259.4 319.51 255.99 316.62 252.48 313.39 248.66 308.16 242.48 302.48 236.04 294.98 227.79L294.48 227.23C289.25 221.48 283.85 215.53 277.69 210.58 274.36 207.89 270.98 205.67 267.65 203.99 263.97 202.15 259.81 200.8 255.29 199.99 250.96 199.22 246.54 199.02 242.41 198.9 241.03 198.87 239.66 198.84 238.29 198.81 235.42 198.77 232.45 198.71 229.55 198.54 226.53 198.51 223.53 198.28 220.53 197.9 218.48 197.73 216.43 197.52 214.38 197.22 214.32 197.37 214.3 197.52 214.31 197.69 214.47 200.83 214.49 204.11 214.38 207.43L214.38 207.43C214.38 207.43 214.38 207.66 214.38 207.66L214.37 207.66C214.1 214.69 213.3 221.87 211.92 229.6 210.62 236.88 208.86 244.12 206.71 251.1 206.71 251.1 206.69 251.19 206.69 251.2 206.69 251.2 206.69 251.27 206.69 251.27L206.69 251.27C206.29 252.47 205.9 253.67 205.49 254.87 198.83 250.84 192.21 246.3 185.28 240.98 179.17 236.28 172.9 231.02 165.54 224.42 159.34 218.86 153.18 213.05 147.22 207.44L142.56 203.05C142.42 202.91 142.18 202.84 141.91 202.84 141.13 203.69 140.33 204.52 139.46 205.27 139.16 205.54 138.85 205.79 138.53 206.03 138.12 206.39 137.7 206.74 137.27 207.07 137.14 207.17 137.02 207.26 136.89 207.36 136.46 207.74 136 208.11 135.51 208.48 135.51 208.48 135.51 208.48 135.51 208.48 135.47 208.51 135.42 208.54 135.38 208.58 135.36 208.59 135.35 208.61 135.33 208.62L135.33 208.62C135.33 208.62 135.31 208.63 135.31 208.64 135.29 208.66 135.27 208.68 135.27 208.69 135.27 208.69 135.23 208.74 135.23 208.74 135.09 208.84 134.94 208.93 134.8 209.03 133.5 210 132.19 210.96 130.81 211.82 129.97 212.34 129.11 212.83 128.2 213.25 128.14 213.28 128.08 213.3 128.02 213.33 127.73 213.53 127.44 213.74 127.14 213.95 126.25 214.59 125.36 215.33 124.26 216.36 120.97 219.4 118.08 223.32 115.66 228.02 114.65 229.99 113.7 232.13 112.66 234.77 111.7 237.21 110.79 239.75 109.88 242.53 108.2 247.67 106.78 253.06 105.52 259.02 101.42 278.5 100.54 298.72 99.67 318.28 99.54 321.29 99.41 324.3 99.26 327.3 98.59 341.24 97.64 356.14 95.17 370.7L95.23 370.55C93.64 379.64 91.91 386.58 89.63 392.92 89.5 393.3 89.61 393.74 89.93 394.05 90.02 394.58 90.47 394.95 91.04 394.95 98.92 394.45 107.09 394.21 116.1 394.21 118.56 394.21 121.03 394.23 123.49 394.26 124.05 394.26 124.62 394.27 125.18 394.28 125.27 394.29 125.35 394.29 125.44 394.29L125.81 394.29 126.78 394.31 127.75 394.33C129.16 394.36 130.57 394.39 131.97 394.43 136.84 394.56 142.15 394.74 148.23 394.99 152.92 395.18 157.6 395.39 162.28 395.6 168.44 395.88 174.59 396.15 180.75 396.38 186.82 396.6 192.12 396.75 196.97 396.84 199.65 396.89 202.34 396.93 205.02 396.94L207.61 396.94C209.33 396.95 211.05 396.95 212.77 396.97 213.03 396.97 213.3 396.97 213.56 396.98 215.84 397.02 218.01 397.07 220.2 397.12 224.42 397.22 228.78 397.32 233.07 397.32 233.74 397.32 234.41 397.32 235.09 397.31 243.81 397.24 250.38 396.7 256.41 395.53 256.73 395.47 256.96 395.35 257.13 395.13 257.3 394.92 257.4 394.64 257.38 394.36 257.72 394.06 257.82 393.56 257.63 393.13 256.38 390.19 255.31 387.24 254.45 384.35 252.94 379.15 252.11 374.04 251.97 369.17 251.91 365 252.33 361.06 253.22 357.3L253.25 357.13 253.26 357.13C253.83 354.93 254.56 352.76 255.45 350.67 256.36 348.52 257.46 346.48 258.33 344.94 260.04 341.92 261.98 338.88 263.86 335.96 266.06 332.52 268.35 328.97 270.32 325.3 272.27 321.66 273.76 318.05 274.76 314.57L274.85 314.23 274.95 313.89C285.51 321.84 294.1 327.13 302.77 331.04 310.16 334.37 317.43 336.57 324.4 337.57 327.38 338 330.3 338.22 333.1 338.22 333.47 338.22 333.84 338.22 334.21 338.21 337.29 338.15 340.39 337.8 343.41 337.19 349.11 336.03 354.74 333.67 359.67 330.37 362.13 328.72 364.5 326.78 366.72 324.61 368.89 322.5 370.93 320.13 372.97 317.35 374.89 314.73 376.65 311.9 378.34 308.7 380.19 305.18 381.74 301.49 383.01 298.34 385.9 291.16 388.46 283.5 390.81 274.91 395.07 259.33 398.06 242.87 399.93 224.58 400.91 215.01 401.49 205.35 401.65 195.85 400.8 195.89 399.96 195.88 399.12 195.82 397.62 195.72 396.13 195.51 394.67 195.18 391.76 194.54 388.94 193.53 386.22 192.31 384.85 191.69 383.49 191.03 382.15 190.34 380.87 189.67 379.6 188.99 378.37 188.25 376.25 186.99 374.2 185.59 372.32 183.99 371.8 185.3 371.29 186.61 370.76 187.92M332.86 272.75 333.13 273.03C334.13 274.3 335.11 275.53 336.06 276.74 335 275.42 333.94 274.1 332.86 272.76" stroke-width="0" fill="#F04C86"/><path d="M272.27 276.25C273.46 280.28 274.4 284.39 275.02 288.55 275.65 292.75 275.98 296.99 275.92 301.24 275.86 305.41 275.47 309.59 274.64 313.68 274.31 315.3 273.94 316.91 273.5 318.5 274 317.19 274.43 315.9 274.79 314.62L274.88 314.28 274.98 313.94C285.48 321.89 294.05 327.18 302.76 331.1 310.15 334.43 317.42 336.63 324.39 337.64 327.37 338.07 330.29 338.29 333.09 338.29 333.45 338.29 333.8 338.29 334.16 338.28 337.27 338.22 340.37 337.87 343.41 337.25 349.12 336.08 354.74 333.72 359.68 330.42 362.13 328.77 364.51 326.83 366.74 324.65 368.91 322.54 370.95 320.16 372.99 317.39 374.17 315.78 375.28 314.09 376.36 312.29 370.96 314.31 365.36 315.78 359.66 316.61 352.27 317.69 344.74 317.77 337.33 316.78 329.87 315.78 322.54 313.73 315.65 310.67 312.1 309.09 308.67 307.27 305.38 305.2 302.04 303.09 298.83 300.74 295.8 298.19 292.75 295.64 289.86 292.9 287.12 290 284.43 287.15 281.88 284.16 279.46 281.08 275.33 275.81 271.56 270.27 267.98 264.61 269.64 268.39 271.09 272.28 272.26 276.24" stroke-width="0" fill="#B43965"/><path d="M130.77 305.69C128.99 309.07 126.9 312.27 124.59 315.31 122.46 318.1 120.19 320.76 117.81 323.33 115.39 325.95 112.88 328.49 110.35 331.01 106.31 335.03 102.21 339 98.35 343.2 97.69 352.27 96.74 361.54 95.18 370.72L95.29 370.58C93.63 379.78 91.89 386.67 89.63 392.93 89.49 393.32 89.61 393.77 89.94 394.09 90.02 394.62 90.49 395 91.07 395 98.89 394.5 107.09 394.26 116.13 394.26 117.05 394.26 117.97 394.26 118.89 394.26 119.62 385.88 120.61 377.52 121.81 369.19 123.12 360.02 124.65 350.89 126.31 341.78 126.73 339.47 127.16 337.16 127.59 334.84 127.86 333.44 128.15 332.04 128.45 330.65 129.14 327.4 129.84 324.14 130.41 320.87 130.41 320.87 130.41 320.87 130.41 320.87 130.83 318.37 131.19 315.84 131.37 313.3 131.55 310.88 131.58 308.43 131.34 306.01L131.34 306.01C131.34 306.01 131.34 306.01 131.34 306.01L131.34 306.01C131.3 305.64 131.25 305.26 131.2 304.89 131.07 305.15 130.93 305.42 130.79 305.68" stroke-width="0" fill="#B43965"/><path d="M125.29 293.88 125.29 293.88 125.29 293.88 125.29 293.88" stroke-width="0" fill="#007F75"/><path d="M112.39 329.37C108.39 334.43 103.53 338.73 98.51 342.77 98.3 342.93 98.19 343.27 98.19 343.52 98.19 343.81 98.3 344.09 98.51 344.3 98.71 344.5 98.98 344.62 99.26 344.62 99.58 344.62 99.8 344.49 100.04 344.3 105.06 340.27 109.92 335.97 113.92 330.9 114.11 330.67 114.23 330.45 114.24 330.15 114.24 329.86 114.13 329.58 113.92 329.37 113.72 329.17 113.45 329.05 113.17 329.05L113.15 329.05C112.89 329.05 112.56 329.16 112.39 329.37" stroke-width="0" fill="#B43965"/><path d="M265.55 261.21C266.64 263.19 267.61 265.23 268.49 267.31 268.47 267.28 268.46 267.24 268.44 267.21 271.09 273.52 272.76 280.21 273.67 286.99L273.64 286.75C274.48 293.17 274.58 299.71 273.74 306.13 273.75 306.04 273.76 305.96 273.77 305.86 273.05 311.15 271.67 316.36 269.62 321.29 268.15 324.7 266.36 327.98 264.59 331.25 262.8 334.55 260.96 337.81 259.2 341.13 255.81 347.52 252.68 354.16 251.13 361.26 250.56 363.88 250.22 366.55 250.11 369.22 249.99 372.12 250.22 375.02 250.66 377.88 250.88 379.33 251.18 380.77 251.54 382.19 251.95 383.81 252.47 385.39 253.01 386.98 253.54 388.54 254.09 390.09 254.72 391.61 255.44 393.33 256.21 395.13 257.49 396.52 258.04 397.11 259 397.2 259.68 396.8 259.95 396.64 260.17 396.42 260.33 396.15 260.58 395.72 260.62 395.24 260.51 394.76 260.34 393.98 260 393.24 259.68 392.5 259.39 391.83 259.06 391.17 258.74 390.51 258.1 389.22 257.46 387.94 256.88 386.63 256.16 384.87 255.6 383.06 255.12 381.22 254.69 379.56 254.36 377.87 254.12 376.17 253.64 372.46 253.65 368.72 254.13 365.02 254.82 360.28 256.26 355.7 258.09 351.28 260.99 344.46 264.73 338.05 268.25 331.53 270.07 328.16 271.91 324.77 273.28 321.18 274.6 317.72 275.47 314.09 276 310.43 277.11 302.8 276.88 295.02 275.57 287.43 274.29 279.99 271.96 272.73 268.75 265.89 267.95 264.18 267.09 262.51 266.17 260.86 266.1 260.73 265.99 260.68 265.88 260.68 265.64 260.68 265.39 260.94 265.55 261.22M256.73 386.3C256.76 386.38 256.8 386.45 256.83 386.53 256.8 386.45 256.76 386.38 256.73 386.3" stroke-width="0" fill="#B43965"/><path d="M108.75 333.47C108.75 333.47 108.78 333.43 108.8 333.41 108.78 333.43 108.76 333.44 108.75 333.47" stroke-width="0" fill="#007F75"/><path d="M115.47 141.23C115.33 141.23 115.2 141.23 115.06 141.24 113.33 141.32 111.66 141.83 110.12 142.37 108.33 143 106.52 143.78 104.73 144.69 101.56 146.29 98.44 148.39 95.2 151.1 94.18 151.95 93.14 152.89 92.1 153.89 92.16 152.38 92.14 151.12 92.04 149.92 91.95 148.79 91.8 147.45 91.37 146.17 90.94 144.87 90.36 144.03 89.55 143.53 89.13 143.27 88.65 143.13 88.14 143.13 87.52 143.13 86.89 143.34 86.37 143.71 85.23 144.52 84.48 145.72 83.89 146.79 83.34 147.8 82.82 148.93 82.23 150.43 81.59 152.04 81.1 153.37 80.68 154.63 78.64 160.73 77.51 167.18 76.42 173.42 76.23 174.52 76.04 175.61 75.84 176.71 74.8 182.5 73.5 189.19 71.06 195.5 70.68 195.75 70.48 196.23 70.59 196.68 70.36 197.23 70.12 197.79 69.86 198.35 69.74 198.6 69.81 198.96 69.94 199.2 70.07 199.45 70.3 199.64 70.57 199.73 70.68 199.76 70.79 199.78 70.9 199.78 71.08 199.78 71.26 199.74 71.43 199.65 71.66 199.53 71.79 199.35 71.9 199.12 74.33 203.21 77.7 206.49 81.61 208.6 83.97 209.87 86.51 210.72 89.16 211.1 90.1 211.24 91.08 211.31 92.06 211.31 93.7 211.31 95.37 211.12 97.03 210.74 96.89 211.2 96.78 211.68 96.67 212.17 96.6 212.48 96.58 212.72 96.7 213 96.83 213.27 97.06 213.48 97.34 213.57 97.46 213.61 97.58 213.63 97.7 213.63 97.86 213.63 98.02 213.6 98.16 213.53 98.4 213.42 98.67 213.17 98.74 212.9 99.48 209.51 100.68 206.15 102.31 202.9L102.31 202.88C102.31 202.88 102.3 202.89 102.3 202.89L102.32 202.89C102.32 202.89 102.35 202.81 102.34 202.81 102.34 202.81 102.36 202.75 102.36 202.75 103.57 200.49 104.95 198.26 106.62 195.9 107.96 194 109.53 192.08 111.55 189.84L111.55 189.84C111.55 189.84 111.59 189.79 111.59 189.79L111.58 189.79C111.58 189.79 111.61 189.76 111.61 189.76 111.61 189.76 111.65 189.7 111.65 189.7 113.21 188.05 114.82 186.4 116.38 184.81 117.53 183.63 118.68 182.46 119.81 181.27 122.22 178.74 124.99 175.67 127.31 172.16 128.01 171.11 128.72 169.96 129.22 168.72 129.54 167.92 129.66 167.15 129.59 166.45 129.53 165.82 129.15 165.21 128.6 164.81 128.14 164.48 127.52 164.3 126.76 164.28 126.66 164.28 126.57 164.28 126.47 164.28 124.8 164.28 123.11 164.85 121.74 165.3 119.57 166.02 117.54 166.93 115.84 167.72 115.45 167.9 115.07 168.09 114.69 168.27L115.57 167.56C116.65 166.65 117.74 165.74 118.8 164.81 120.83 163.03 122.43 161.52 123.84 160.03 124.64 159.19 125.32 158.4 125.92 157.61 126.63 156.68 127.12 155.94 127.49 155.2 128 154.19 128.7 152.28 127.67 150.77 127.21 150.11 126.54 149.62 125.56 149.25 124.65 148.91 123.6 148.73 122.25 148.7L121.93 148.7C120.78 148.7 119.5 148.87 118.01 149.22L117.84 149.26C118 148.93 118.26 148.53 118.5 148.12 119.23 146.89 119.6 145.71 119.62 144.62 119.63 144.13 119.52 143.62 119.29 143.14 119.08 142.7 118.74 142.32 118.25 141.97 117.56 141.48 116.64 141.25 115.45 141.25" stroke-width="0" fill="#F6CFBE"/><path d="M116.65 148.81C113.18 150.47 109.64 152.02 106.31 153.98 104.7 154.93 103.16 155.98 101.71 157.17 100.17 158.45 98.77 159.92 97.55 161.51 97.36 161.75 97.45 162.12 97.68 162.29 97.94 162.46 98.27 162.39 98.45 162.15 98.91 161.55 99.38 160.98 99.88 160.42 99.88 160.42 99.88 160.42 99.88 160.42 100.87 159.34 101.94 158.33 103.08 157.4 104.23 156.46 105.46 155.61 106.71 154.81 106.71 154.81 106.69 154.82 106.68 154.82 109.96 152.78 113.45 151.13 116.93 149.46 117.11 149.37 117.19 149.16 117.1 148.98 117.04 148.85 116.91 148.77 116.77 148.77 116.72 148.77 116.67 148.78 116.62 148.8M106.7 154.8C106.7 154.8 106.75 154.77 106.78 154.75 106.75 154.77 106.73 154.78 106.7 154.8" stroke-width="0" fill="#DA8C67"/><path d="M113.88 168.23C112.98 168.8 112.1 169.41 111.24 170.06 110.33 170.76 109.47 171.54 108.67 172.36 108.57 172.46 108.51 172.55 108.5 172.69 108.49 172.81 108.53 172.94 108.61 173.03 108.69 173.13 108.81 173.19 108.94 173.2 109.12 173.21 109.27 173.13 109.37 173 109.5 172.84 109.64 172.68 109.78 172.52 110.44 171.79 111.17 171.13 111.93 170.5 112.69 169.87 113.51 169.31 114.34 168.78 114.42 168.73 114.46 168.62 114.47 168.53 114.47 168.43 114.45 168.34 114.39 168.27 114.33 168.2 114.24 168.15 114.14 168.14L114.12 168.14C114.03 168.14 113.96 168.17 113.88 168.23" stroke-width="0" fill="#DA8C67"/><path d="M91.42 154.23C91.32 154.25 91.25 154.3 91.18 154.38 90.44 155.24 89.71 156.1 89.01 156.99 88.27 157.95 87.59 158.96 86.96 160 86.85 160.19 86.87 160.42 87.06 160.55 87.15 160.61 87.26 160.63 87.36 160.61 87.43 160.6 87.49 160.57 87.54 160.52 87.6 160.48 87.64 160.41 87.66 160.35 87.7 160.28 87.73 160.2 87.77 160.12 87.76 160.15 87.74 160.18 87.72 160.22 87.97 159.76 88.24 159.31 88.53 158.88 88.87 158.37 89.23 157.89 89.6 157.4 90.29 156.5 91.03 155.65 91.77 154.79 91.9 154.64 91.83 154.39 91.68 154.29 91.62 154.25 91.55 154.23 91.48 154.23 91.46 154.23 91.43 154.23 91.41 154.23" stroke-width="0" fill="#DA8C67"/><path d="M65.16 200.25C52.03 217.68 41.68 232.82 32.86 247.45 26.96 257.23 21.7 266.96 17.21 276.37 12.37 286.54 8.34 296.64 5.23 306.39 3.63 311.43 2.56 315.35 1.76 319.1 1.02 322.61 0.49 326.2 0.21 329.78-0.08 333.41-0.08 337.06 0.21 340.63 0.5 344.23 1.14 347.69 2.1 350.91 2.61 352.58 3.21 354.21 3.89 355.74 4.53 357.16 5.32 358.63 6.32 360.21 8.11 363.03 10.4 365.55 13.14 367.71 15.9 369.88 19.2 371.61 22.94 372.86 25.02 373.55 27.27 374.08 29.81 374.48 31.74 374.77 33.77 374.93 35.85 374.93 36.45 374.93 37.05 374.92 37.65 374.89 48.75 374.45 59.1 369.66 66.87 365.53 69.4 364.19 71.88 362.78 73.75 361.7 75.98 360.43 78.29 359.11 80.52 357.73L81.25 357.27C81.26 357.15 81.34 357.03 81.46 356.97 82.15 356.61 82.82 356.21 83.47 355.79L83.52 355.76C83.52 355.76 83.5 355.77 83.49 355.78 83.5 355.78 83.51 355.77 83.52 355.76 83.51 355.64 83.55 355.52 83.64 355.45 86.66 353.21 89.6 350.86 92.48 348.44 93.39 347.63 94.31 346.83 95.25 346.06 95.28 346.04 95.31 346.02 95.34 346 98.13 343.59 100.87 341.12 103.58 338.62 104.8 337.22 106.11 335.91 107.44 334.62 108.25 333.82 109.07 333.02 109.86 332.21 110.9 331.05 111.93 329.88 112.97 328.71 113.04 328.64 113.1 328.58 113.21 328.56 113.31 328.54 113.4 328.56 113.47 328.62 113.5 328.64 113.54 328.68 113.56 328.72 113.8 328.47 114.03 328.21 114.26 327.95 116.02 325.89 117.72 323.77 119.4 321.64 120.09 320.66 120.75 319.66 121.39 318.65 121.45 318.55 121.57 318.5 121.68 318.5 121.74 318.5 121.81 318.51 121.86 318.55 121.89 318.51 121.92 318.48 121.95 318.44 121.95 318.38 121.98 318.32 122.02 318.27L122.46 317.73C122.32 317.61 122.29 317.41 122.4 317.26 123.04 316.32 123.72 315.42 124.41 314.52 124.35 314.52 124.3 314.49 124.25 314.46 124.09 314.35 124.05 314.12 124.16 313.96 124.59 313.35 125.01 312.74 125.43 312.12 125.43 312.08 125.43 312.04 125.43 312 125.43 311.88 125.43 311.75 125.41 311.62L125.41 311.47C125.41 311.47 125.36 310.65 125.36 310.65L125.3 309.38 125.27 308.74C125.07 303.46 125.09 299.16 125.33 295.21 125.48 292.89 125.72 290.56 126.05 288.31 126.34 286.31 126.7 284.3 127.05 282.35L127.24 281.27C127.98 277.06 128.85 272.47 129.87 267.23 131.03 261.33 132.23 255.45 133.43 249.55 134.12 246.2 134.8 242.86 135.47 239.5 135.95 237.14 136.28 235.33 136.55 233.63 136.84 231.82 137.09 229.99 137.34 228.17L137.42 227.57 137.48 227.12C138.02 223.22 138.57 219.19 139.4 215.27L139.39 215.27 139.35 215.41C140.08 212.11 140.96 209.18 142.01 206.61 142.16 206.25 142.06 205.79 141.76 205.48 141.96 205.26 142 204.91 141.96 204.66 141.91 204.38 141.74 204.12 141.51 203.96 141.38 203.86 141.22 203.8 141.05 203.77 140.24 204.65 139.4 205.5 138.5 206.3 137.42 207.26 136.27 208.15 135.03 208.9 133.87 209.81 132.65 210.69 131.35 211.51 126.07 214.79 120.4 217.02 114.56 219.21L113.31 219.68C110.81 220.62 108.21 221.59 105.69 222.63 104.2 223.23 102.74 223.87 101.37 224.51 100.42 224.96 99.47 225.44 98.54 225.92 98.67 224.87 98.78 223.81 98.89 222.75 99.27 219.08 99.62 215.41 99.96 211.74 99.97 211.06 99.99 210.38 100.03 209.7 100.03 209.64 100.03 209.59 100.03 209.54 99.88 209.38 99.7 209.29 99.49 209.25 96.77 208.86 94.04 208.16 91.38 207.17L91.51 207.25C87.73 205.79 84.05 203.77 80.26 201.07 77.43 199.01 74.53 196.56 71.44 193.6 71.34 193.5 71.22 193.43 71.09 193.38 69.12 195.7 67.12 197.99 65.14 200.29" stroke-width="0" fill="#F04C86"/><path d="M98.63 209.83C98.57 210.39 98.46 210.95 98.38 211.52 98.31 212.08 98.24 212.65 98.18 213.21 98.05 214.44 97.94 215.67 97.84 216.9 97.63 219.26 97.44 221.63 97.25 224 96.87 228.74 96.51 233.48 96.11 238.22 95.39 246.71 94.57 255.2 93.21 263.61 91.4 274.78 88.9 285.86 85.47 296.65L85.47 296.65C84.29 300.33 83.02 303.99 81.65 307.61 80.23 311.34 78.69 315.02 77.04 318.65 73.83 325.69 70.15 332.53 65.95 339.04 65.95 339.04 65.95 339.03 65.96 339.02 63.9 342.19 61.72 345.28 59.38 348.25 59.26 348.41 59.26 348.63 59.42 348.76 59.56 348.88 59.8 348.87 59.93 348.72 64.66 342.7 68.86 336.29 72.59 329.61 76.45 322.68 79.79 315.47 82.72 308.11 85.68 300.69 88.22 293.09 90.39 285.4 92.53 277.82 94.31 270.14 95.73 262.4 97.23 254.19 98.26 245.89 99.12 237.58 99.59 233.04 99.99 228.49 100.29 223.94 100.44 221.66 100.57 219.37 100.67 217.09 100.72 215.92 100.77 214.76 100.79 213.59 100.8 213.03 100.81 212.46 100.8 211.89 100.8 211.61 100.8 211.33 100.79 211.04 100.79 210.66 100.75 210.28 100.76 209.91 100.74 209.72 100.68 209.55 100.57 209.4 100.41 209.16 100.15 209 99.87 208.95 99.81 208.94 99.76 208.94 99.7 208.94 99.2 208.94 98.69 209.31 98.63 209.83M65.96 339.02C65.96 339.02 65.99 338.97 66.01 338.95 65.99 338.97 65.98 339 65.96 339.02" stroke-width="0" fill="#B43965"/><path d="M132.47 298.09C132.1 298.8 131.75 299.53 131.38 300.24 131.02 300.94 130.65 301.64 130.29 302.34 129.55 303.72 128.79 305.09 128.01 306.44 126.47 309.12 124.84 311.75 123.12 314.31 123.16 314.25 123.2 314.19 123.25 314.13 119.57 319.63 115.5 324.86 111.11 329.81 108.89 332.3 106.59 334.7 104.24 337.06 101.89 339.41 99.48 341.69 96.99 343.88 97.01 343.86 97.03 343.85 97.05 343.83 95.56 345.14 94.05 346.45 92.52 347.72 90.99 349 89.43 350.25 87.84 351.48 84.59 354.01 81.26 356.44 77.85 358.75 77.69 358.86 77.64 359.09 77.75 359.25 77.86 359.41 78.09 359.46 78.25 359.35 81.46 357.17 84.65 354.93 87.77 352.62 90.84 350.34 93.87 347.98 96.81 345.52 98.25 344.32 99.67 343.09 101.08 341.83 102.49 340.57 103.9 339.29 105.28 337.98 108.03 335.37 110.65 332.64 113.18 329.82 117.29 325.24 121.11 320.38 124.58 315.29 126.32 312.74 127.98 310.13 129.54 307.46 130.33 306.11 131.1 304.74 131.84 303.37 132.63 301.9 133.4 300.42 134.12 298.91 134.34 298.46 134.16 297.9 133.71 297.67 133.58 297.61 133.44 297.58 133.31 297.58 132.97 297.58 132.64 297.77 132.47 298.09M96.94 343.93C96.94 343.93 96.97 343.9 96.99 343.89 96.97 343.9 96.96 343.92 96.94 343.93" stroke-width="0" fill="#B43965"/><path d="M141.2 201.57C140.5 202.32 140.62 203.41 141.3 204.12 156.35 219.69 172.81 233.84 190.34 246.55 194.78 249.77 199.28 252.89 203.84 255.93 203.95 256.02 204.05 256.1 204.15 256.19 204.91 256.81 206 256.85 206.7 256.09 207.34 255.4 207.37 254.16 206.6 253.54 205.83 252.91 204.99 252.39 204.17 251.84 203.26 251.24 202.37 250.62 201.46 250.01 199.76 248.84 198.06 247.66 196.37 246.47 196.49 246.56 196.62 246.65 196.75 246.74 179.08 234.25 162.43 220.34 147.18 204.98 146.03 203.82 144.88 202.65 143.74 201.47 143.43 201.14 143 200.99 142.56 200.99 142.05 200.99 141.53 201.2 141.19 201.57" stroke-width="0" fill="#B43965"/><path d="M214.78 195.68C214.32 195.76 213.9 196.02 213.63 196.4 213.33 196.82 213.27 197.26 213.32 197.76 213.42 199.04 213.5 200.32 213.55 201.6 213.91 213.02 212.28 224.41 209.7 235.51 209.73 235.35 209.77 235.19 209.81 235.04 208.34 241.32 206.57 247.52 204.61 253.66 204.31 254.6 204.7 255.62 205.65 255.99 206.53 256.32 207.68 255.88 207.98 254.95 210.95 245.65 213.49 236.21 215.19 226.6 216.91 216.89 217.66 207 216.88 197.15 216.85 196.7 216.51 196.25 216.16 196 215.85 195.78 215.48 195.66 215.1 195.66 214.99 195.66 214.89 195.66 214.79 195.69" stroke-width="0" fill="#B43965"/><path d="M178.91 129.14C178.91 129.14 178.91 129.14 178.91 129.14L178.91 129.14C178.91 129.14 178.85 129.35 178.85 129.35 178.36 132.46 178.53 135.62 179.33 138.48 179.73 139.93 180.41 141.35 181.29 142.57 182.17 143.8 183.35 144.81 184.77 145.56 185.48 145.93 186.29 146.21 187.24 146.42 187.78 146.54 188.37 146.61 188.98 146.61 189.34 146.61 189.69 146.59 190.04 146.55 191.61 146.39 193.28 145.71 194.84 144.59 196.19 143.63 197.42 142.33 198.5 140.71 199.54 139.17 200.33 137.44 200.92 135.42 201.07 134.92 201.18 134.41 201.28 133.89 201.3 133.73 201.29 133.57 201.25 133.42 197.15 133.29 193.47 132.94 190 132.34 185.71 131.6 182.08 130.55 178.93 129.13 178.93 129.13 178.93 129.13 178.92 129.13" stroke-width="0" fill="#021621"/><path d="M191.98 82.17C191.83 82.17 191.66 82.25 191.55 82.37 191.45 82.48 191.4 82.61 191.42 82.74 191.67 85.66 191.99 88.29 192.42 90.79 192.97 93.99 193.7 96.71 194.65 99.08 195.17 100.38 195.74 101.52 196.39 102.56 196.7 103.08 197.07 103.56 197.47 104 197.85 104.41 198.28 104.76 198.8 105.16 199.74 105.87 200.77 106.47 201.77 107.04 202.78 107.61 203.76 108.18 204.66 108.85 205.12 109.22 205.5 109.58 205.81 109.95 206.03 110.25 206.21 110.55 206.35 110.87 206.45 111.14 206.52 111.41 206.57 111.68 206.59 111.99 206.59 112.29 206.57 112.6 206.5 113.01 206.39 113.4 206.25 113.75 206.02 114.25 205.73 114.73 205.36 115.22 204.85 115.84 204.25 116.44 203.57 116.99 202.5 117.79 201.44 118.42 200.34 118.92 199.96 119.07 199.56 119.2 199.17 119.31 198.38 119.54 197.92 120.36 198.14 121.13 198.3 121.76 198.9 122.22 199.56 122.22 199.69 122.22 199.82 122.2 199.96 122.16 200.95 121.86 201.96 121.39 202.96 120.74 204.03 120.06 205.02 119.22 205.92 118.23 207.03 117.01 208.86 114.52 208.64 111.57 208.55 110.44 208.2 109.45 207.59 108.61 207.02 107.81 206.26 107.12 205.12 106.37 204.32 105.84 203.47 105.4 202.52 104.91 201.44 104.36 200.34 103.79 199.36 103.06 198.91 102.7 198.5 102.3 198.13 101.82 197.25 100.63 196.48 99.28 195.79 97.67 194.47 94.48 193.54 90.8 192.95 86.41 192.8 85.27 192.66 84 192.56 82.74 192.53 82.41 192.29 82.17 192 82.17" stroke-width="0" fill="#DA8C67"/><path d="M179.61 135.74C179.32 135.74 179.04 135.74 178.75 135.76 178.88 136.69 179.06 137.6 179.31 138.49 179.72 139.94 180.39 141.35 181.27 142.58 182.15 143.82 183.33 144.82 184.75 145.57 185.46 145.94 186.27 146.22 187.23 146.43 187.78 146.55 188.36 146.62 188.97 146.62 189.33 146.62 189.68 146.6 190.03 146.56 191.52 146.41 193.1 145.78 194.59 144.77 194.56 144.73 194.54 144.68 194.51 144.63 194.1 143.94 193.65 143.28 193.17 142.64 192.7 142.03 192.18 141.43 191.64 140.89 191.08 140.33 190.5 139.81 189.88 139.32 189.28 138.86 188.66 138.42 188 138.04 187.32 137.65 186.62 137.3 185.89 136.99 185.91 137 185.93 137.01 185.95 137.02 185.28 136.74 184.61 136.51 183.92 136.32 183.21 136.13 182.49 135.99 181.76 135.88 181.79 135.88 181.83 135.89 181.86 135.9 181.15 135.81 180.44 135.75 179.72 135.75L179.62 135.75ZM185.94 137.01C185.94 137.01 185.95 137.01 185.96 137.01 185.95 137.01 185.94 137.01 185.94 137.01" stroke-width="0" fill="#F68677"/><path d="M161.65 100.79C161.53 100.79 161.41 100.8 161.29 100.82 160.28 101.01 159.46 101.94 158.99 103.45 158.53 104.95 158.46 106.85 158.81 108.8 159.49 112.59 161.52 115.45 163.55 115.45 163.67 115.45 163.79 115.44 163.91 115.42 164.93 115.23 165.75 114.3 166.22 112.79 166.68 111.27 166.75 109.37 166.4 107.44 165.72 103.65 163.68 100.79 161.66 100.79" stroke-width="0" fill="#021621"/><path d="M214.4 88.5C214.29 88.5 214.17 88.51 214.05 88.53 213.06 88.71 212.27 89.62 211.82 91.08 211.37 92.54 211.31 94.38 211.65 96.26 212.32 99.93 214.29 102.7 216.24 102.7 216.35 102.7 216.47 102.69 216.59 102.67 217.58 102.49 218.37 101.58 218.82 100.12 219.27 98.66 219.33 96.82 218.99 94.94 218.33 91.27 216.36 88.5 214.4 88.5" stroke-width="0" fill="#021621"/><path d="M205.75 56.85C202.04 56.85 199.45 57.86 199.15 59.42 198.73 61.67 203.06 64.37 208.79 65.45 210.38 65.75 211.91 65.9 213.36 65.9 217.07 65.9 219.65 64.89 219.95 63.33 220.05 62.82 219.9 62.27 219.51 61.71 218.26 59.87 214.56 58.1 210.31 57.29 208.73 56.99 207.19 56.84 205.74 56.84" stroke-width="0" fill="#792013"/></g><path d="M259.69 653.21 89.69 653.21C31.95 641.67 45.67 537.56 89.69 394.21L259.69 394.21C298.75 499.69 298.75 586.02 259.69 653.21Z" stroke-width="0" fill="#872B4C"/></svg>