<svg viewBox="0 0 577.23 264.86" xmlns="http://www.w3.org/2000/svg" xmlns:xlink="http://www.w3.org/1999/xlink" id="Isolation_Mode" overflow="hidden"><defs></defs><path d="M0.14 187.4 113.83 49.72 283.56 86.54 454.19 43.43 576.99 186.11C576.99 186.11 503.58 165.56 440.71 173.65 377.85 181.73 323.96 211.37 321.27 213.16 318.58 214.96 282.65 244.59 282.65 244.59 282.65 244.59 238.64 188.91 160.51 175.44 82.4 161.98 0.14 187.4 0.14 187.4Z" stroke-width="0" fill="#B3B3B3"/><path d="M3.99 194.46C3.99 194.46 174.67 129.65 277.34 245.79 277.34 245.79 280.55 250.28 286.97 246.43 293.39 242.58 376.8 136.06 573.79 191.89 573.79 191.89 578.28 189.32 577 186.11 575.72 182.9 469.2 157.88 401.83 176.49 301.91 204.09 282.48 241.3 282.48 241.3 282.48 241.3 204.2 127.73 0.15 187.4 0.15 187.4-1.13 195.1 4 194.46Z" stroke-width="0" fill="#808080"/><path d="M8.45 142.6 104.8 31.12C104.8 31.12 199.89 22.48 283.75 80.4L284.33 223.9C284.33 223.9 224.97 172.89 197.3 163.39 169.64 153.88 8.45 142.6 8.45 142.6Z" stroke-width="0" fill="#F2F2F2"/><path d="M130.12 30.91C122.34 30.58 116.08 30.63 111.72 30.76 97.25 50.8 55.82 114.7 58.33 115.54 61.29 116.53 209.87 126.23 284.33 223.9 284.33 223.9 277.58 117.05 261.26 99.31 248.22 85.14 163.6 46.05 130.13 30.91Z" stroke-width="0" fill="#CCCCCC"/><path d="M284.33 228.73 284.33 223.9C166.89 76.58 8.45 142.6 8.45 142.6L8.45 179.43C8.45 179.43 184.96 123.14 278.77 231.55 278.77 231.55 280.48 227.98 284.33 228.73Z" stroke-width="0" fill="#CCCCCC"/><path d="M283.75 80.4C283.75 80.4 361.55 6.92 466.15 29.39L569.63 148.28C569.63 148.28 452.32 144.37 428.98 147.82 405.64 151.28 309.68 202.28 309.68 202.28L284.32 223.89 283.74 80.39Z" stroke-width="0" fill="#F2F2F2"/><path d="M566.36 174.96 569.64 148.28C354.31 91.64 284.34 223.9 284.34 223.9L284.34 228.73C284.34 228.73 286.09 228.21 288.02 230.67 288.02 230.67 333.88 174.94 441.48 164.59 515.27 157.49 566.36 174.96 566.36 174.96Z" stroke-width="0" fill="#CCCCCC"/><path d="M52.94 101.14C52.94 101.14 226.13 126.21 284.33 223.9L283.75 80.4C283.75 80.4 205.95 1.73 123.82 0L52.94 101.14Z" stroke-width="0" fill="#F2F2F2"/><path d="M555.94 165.86C547.56 162.72 538.55 160.85 529.78 159.11 521.17 157.41 512.45 156.2 503.71 155.37 485.77 153.67 467.72 153.38 449.75 154.87 414.07 157.82 379.04 167.54 346.93 183.4 337.9 187.86 329.17 192.92 320.83 198.58 312.68 204.1 304.06 209.67 297.03 216.61 296.97 216.67 297.05 216.77 297.12 216.72 304.51 211.88 311.4 206.33 318.88 201.59 326.35 196.86 334.15 192.63 341.98 188.52 357.73 180.28 374.2 173.51 391.21 168.34 425.06 158.05 461.11 153.61 496.41 156.38 506.37 157.16 516.26 158.62 526.06 160.54 535.99 162.48 545.6 165.36 555.41 167.75 556.65 168.05 557.1 166.3 555.93 165.86Z" stroke-width="0" fill="#F2F2F2"/><path d="M546.79 154.96C539.85 152.05 532.01 150.67 524.65 149.18 517.38 147.72 510.05 146.57 502.69 145.73 487.53 143.99 472.22 143.58 456.98 144.46 427.01 146.2 397.07 152.81 369.38 164.47 361.47 167.8 353.74 171.51 346.22 175.63 339.04 179.57 331.49 183.64 325.23 188.95 325.05 189.1 325.28 189.36 325.47 189.26 332.26 185.82 338.65 181.55 345.39 177.99 351.86 174.57 358.47 171.43 365.19 168.55 378.83 162.69 392.94 157.9 407.35 154.32 436.26 147.13 466.37 144.73 496.04 147.36 504.49 148.11 512.89 149.27 521.22 150.85 529.66 152.45 537.88 155.16 546.31 156.68 547.46 156.89 547.83 155.4 546.78 154.96Z" stroke-width="0" fill="#F2F2F2"/><path d="M266.89 212.5C219.17 164.93 148.78 152.71 83.98 158.37 73.81 159.26 63.67 160.53 53.58 162.09 43.43 163.66 32.45 164.78 22.83 168.51 22.65 168.58 22.66 168.87 22.88 168.87 31.85 168.58 40.84 166.21 49.68 164.79 58.84 163.32 68.04 162.09 77.27 161.16 95.1 159.36 113.08 158.66 130.99 159.61 162.8 161.3 194.65 168.4 223.06 183.1 238.74 191.21 253.17 201.23 265.69 213.71 266.47 214.49 267.68 213.28 266.9 212.5Z" stroke-width="0" fill="#F2F2F2"/><path d="M236.69 182.33C231.55 178.34 225.2 175.52 219.37 172.67 213.39 169.75 207.25 167.12 201.05 164.7 188.5 159.79 175.58 155.8 162.43 152.86 136.03 146.96 108.74 144.96 81.77 147.04 74.47 147.6 67.19 148.47 59.96 149.63 52.29 150.86 44.19 152.12 36.99 155.13 36.72 155.24 36.71 155.74 37.07 155.7 43.48 155.07 49.8 153.46 56.14 152.37 63.01 151.19 69.92 150.24 76.86 149.59 89.95 148.36 103.13 148.11 116.25 148.8 143.05 150.21 169.68 155.61 194.93 164.69 202.27 167.33 209.48 170.3 216.55 173.58 223.13 176.62 229.45 180.53 236.17 183.21 236.65 183.4 237.09 182.65 236.68 182.33Z" stroke-width="0" fill="#F2F2F2"/><path d="M150.56 140.62C142.6 137.67 133.72 136.88 125.31 136.04 116.69 135.18 108.02 134.78 99.35 134.85 82.48 134.98 64.4 136.08 48.3 141.48 48.26 141.49 48.27 141.56 48.3 141.55 56.69 140.63 65 139.12 73.39 138.23 82.01 137.31 90.67 136.81 99.34 136.8 107.82 136.79 116.31 137.22 124.75 138.1 133.33 138.99 141.83 140.98 150.43 141.49 150.95 141.52 150.98 140.79 150.55 140.63Z" stroke-width="0" fill="#F2F2F2"/><path d="M286.52 197.92C286.51 192.54 286.42 187.16 286.37 181.78 286.26 170.64 286.14 159.5 286 148.36 285.85 137.22 285.7 126.08 285.56 114.94 285.49 109.56 285.42 104.18 285.35 98.8 285.31 96.11 285.28 93.42 285.24 90.73 285.21 88.39 285.51 85.67 284.21 83.62 284.06 83.38 283.7 83.37 283.55 83.62 282.29 85.71 282.66 88.36 282.69 90.73 282.72 93.42 282.75 96.11 282.78 98.8 282.84 104.18 282.9 109.56 282.95 114.94 283.07 126.27 283.19 137.61 283.32 148.94 283.44 160.08 283.6 171.22 283.75 182.36 283.9 193.24 283.24 204.6 284.87 215.37 284.98 216.12 286 215.83 286.08 215.21 286.8 209.5 286.54 203.67 286.53 197.92Z" stroke-width="0" fill="#CCCCCC"/><path d="M283.75 80.4C283.75 80.4 288.83 188.88 289.48 203.69 290.12 218.5 285.62 264.86 285.62 264.86L295.28 253.27 302.36 260.35C302.36 260.35 301.72 199.82 298.5 159.9 295.28 119.98 292.06 77.48 290.13 75.55 288.2 73.62 285.76 74.29 283.76 80.39Z" stroke-width="0" fill="#F04C86"/></svg>