<svg viewBox="0 0 564 426" xmlns="http://www.w3.org/2000/svg" xmlns:xlink="http://www.w3.org/1999/xlink" id="Layer_1" overflow="hidden"><defs><clipPath id="clippath"><rect x="12" y="7" rx="25.97" ry="25.97" width="547" height="418" stroke="#F04C86" stroke-width="2" stroke-miterlimit="10" fill="#FFFFFF"/></clipPath><clipPath id="clippath-1"><path d="M445.89 65.32 527.61 65.32 527.61 35.36 445.89 35.36 445.89 65.32 445.89 65.32Z" stroke-width="0" fill="none" clip-rule="evenodd"/></clipPath><clipPath id="clippath-2"><path d="M498.03 35.36 527.61 35.36 527.61 65.32 498.03 65.32 498.03 35.36 498.03 35.36Z" stroke-width="0" fill="none" clip-rule="evenodd" clip-path="url(#clippath-1)"/></clipPath><clipPath id="clippath-3"><path d="M498.03 65.32 527.61 65.32 527.61 35.36 498.03 35.36 498.03 65.32 498.03 65.32Z" stroke-width="0" fill="none"/></clipPath><clipPath id="clippath-4"><path d="M445.89 65.32 527.61 65.32 527.61 35.36 445.89 35.36 445.89 65.32 445.89 65.32Z" stroke-width="0" fill="none" clip-rule="evenodd"/></clipPath></defs><g><rect x="12" y="7" rx="25.97" ry="25.97" width="547" height="418" fill="#FFFFFF"/><g clip-path="url(#clippath)"><rect x="0" y="0" width="564" height="81" stroke-width="0" fill="#F04C86"/></g><rect x="12" y="7" rx="25.97" ry="25.97" width="547" height="418" stroke="#F04C86" stroke-width="2" stroke-miterlimit="10" fill="none"/></g><g><g><g clip-path="url(#clippath-2)"><g clip-path="url(#clippath-3)"><path d="M513.05 45.39C515.74 42.61 518.26 39.98 520.83 37.39 522.81 35.39 525.01 35.24 526.6 36.93 528.13 38.56 527.94 40.67 526.02 42.63 523.46 45.23 520.86 47.79 518.12 50.53 520.92 53.34 523.67 56.01 526.31 58.76 528.37 60.9 527.94 63.77 525.46 64.95 523.75 65.76 522.31 65.21 521.07 63.94 518.43 61.24 515.8 58.52 513 55.65 510.21 58.53 507.58 61.32 504.86 64.01 502.76 66.09 499.88 65.61 498.75 63.08 497.98 61.35 498.54 59.91 499.8 58.64 502.46 55.96 505.12 53.28 507.92 50.46 505.11 47.67 502.34 45.01 499.67 42.25 497.52 40.03 498.24 36.8 501 35.94 502.6 35.44 503.9 36.04 505.03 37.2 507.62 39.86 510.22 42.51 513.03 45.4L513.03 45.4Z" stroke-width="0" fill="#FFFFFF"/></g></g><g clip-path="url(#clippath-4)"><path d="M445.89 47.96C445.89 47.3 446.42 46.77 447.06 46.77L477.12 46.77C477.77 46.77 478.29 47.3 478.29 47.96L478.29 52.72C478.29 53.38 477.76 53.91 477.12 53.91L447.06 53.91C446.41 53.91 445.89 53.38 445.89 52.72L445.89 47.96Z" stroke-width="0" fill="#FFFFFF" fill-rule="evenodd"/></g></g><path d="M53.52 27.84C66.12 27.78 76.28 37.83 76.27 50.34 76.27 62.78 66.25 72.78 53.74 72.84 41.24 72.9 31.19 62.93 31.16 50.45 31.13 37.91 41.03 27.9 53.53 27.84ZM48.39 46.5 48.51 47.34C48.68 47.46 48.87 47.69 49.02 47.67 51.67 47.29 51.44 48.72 50.92 50.51 50.03 53.58 49.17 56.67 48.46 59.78 47.66 63.34 50.4 65.77 53.76 64.36 55.28 63.72 56.56 62.39 57.79 61.2 58.24 60.77 58.2 59.83 58.38 59.13 57.8 59.4 57.23 59.72 56.62 59.93 55.91 60.17 55.16 60.31 54.42 60.5 54.36 59.78 54.14 59.03 54.26 58.34 54.46 57.13 54.87 55.95 55.17 54.75 55.91 51.82 56.65 48.89 57.52 45.44 54.19 45.83 51.29 46.16 48.39 46.5ZM55.73 42.7C57.49 42.66 59.1 41.04 59.1 39.3 59.1 37.47 57.35 35.84 55.5 35.94 53.69 36.04 52.21 37.64 52.28 39.43 52.35 41.22 53.95 42.74 55.74 42.7Z" stroke-width="0" fill="#FFFFFF"/></g></svg>