<svg viewBox="0 0 1110.57 1032.85" xmlns="http://www.w3.org/2000/svg" xmlns:xlink="http://www.w3.org/1999/xlink" id="Layer_1" overflow="hidden"><defs></defs><g><path d="M363.94 25.4C307.93 69.18 304.91 104.14 309.25 139.33 311.37 156.5 317.6 173.82 313.64 190.66 310.59 203.62 301.9 214.38 294.52 225.46 283.48 242.05 274.83 260.83 273.55 280.72 272.27 300.61 279.3 321.71 294.92 334.09 311.17 346.97 333.59 348.63 354.26 347 374.93 345.37 395.7 341.02 416.23 343.97 432.31 346.28 448.06 353.05 464.19 351.17 474.89 349.92 484.74 344.96 494.34 340.07 505.54 334.37 517.13 328.34 524.69 318.3 538.39 300.1 535.14 274.21 544.55 253.46 549.64 242.23 558.28 232.92 563.49 221.75 571.58 204.44 570.74 184.27 567.2 165.49 557.25 112.76 552.07 61.37 508.96 29.62 490.82 16.25 413.97-13.74 363.92 25.38Z" stroke-width="0" fill="#110945"/><g><path d="M279.77 313.26C272.38 322.59 271.45 335.35 271.1 347.25 266.62 497.43 303.89 646.6 298.57 796.75 386.35 808.04 475.22 810.84 563.53 805.09 575.62 725.66 576.17 644.97 576.69 564.63 576.98 519.81 577.27 474.98 577.56 430.16 577.82 390.62 577.66 349.26 559.39 314.19 557.43 310.42 555.09 306.58 551.37 304.53 548.4 302.89 544.9 302.6 541.51 302.35 490.61 298.63 439.49 297.86 388.5 300.03 367.24 300.93 347.04 302.66 326.07 300.34 309.75 298.53 291.11 298.95 279.77 313.27Z" stroke-width="0" fill="#E1E5FF"/><path d="M394.31 456.03C405.93 478.67 420.21 499.56 437.7 518.08 450.53 531.66 469.29 553.35 490.11 550.85 492.05 550.62 492.93 547.56 490.62 547.09 467.77 542.49 451.44 525.63 436.29 508.83 421.25 492.15 408.43 473.75 397.67 454.05 396.46 451.84 393.17 453.79 394.31 456.02L394.31 456.02Z" stroke-width="0" fill="#CED4F2"/><path d="M405.73 547.76C414.25 568.18 432.82 584.85 449.16 599.17 463.85 612.03 483.51 630.34 504.45 627.73 506.94 627.42 507.78 623.96 505.07 623.14 483.13 616.52 467.02 606.31 449.8 591.1 435.22 578.22 418.85 563.52 410.13 545.91 408.94 543.5 404.67 545.23 405.73 547.76L405.73 547.76Z" stroke-width="0" fill="#CED4F2"/><path d="M438.71 643.99C447.34 647.96 456.44 652.29 465.93 653.55 468.29 653.86 469.13 650.14 467.13 649.13 459.01 645.03 450.07 642.54 441.79 638.73 438.25 637.1 435.16 642.35 438.72 643.99L438.72 643.99Z" stroke-width="0" fill="#CED4F2"/></g><g><path d="M371.01 261.88C357.71 280.39 335.44 292.13 312.65 292.63 326.59 321.68 341.02 351.35 364.07 373.86 387.12 396.37 421.6 407.48 457.58 400.39 480.16 395.94 503.92 382.33 515.02 362.17 526.12 342.01 529.12 325.41 521.42 292.56 499.01 292.6 481.62 272.38 473.1 251.65 464.58 230.92 461.43 207.95 450.06 188.63 426.42 183.69 402.78 178.75 379.15 173.81 384.34 203.79 390.09 235.32 371.01 261.88Z" stroke-width="0" fill="#E88989"/><path d="M432.45 241.26C454.98 252.12 476.69 253.55 496.89 238.8 518.79 222.82 530.78 193.85 532.22 166.78 533.44 143.91 533.36 120.98 531.99 98.12 530.9 79.85 528.35 60.18 515.79 46.87 508.93 39.6 499.73 35 490.4 31.43 458.91 19.38 420.01 18.8 394.69 41.06 331.72 96.42 363.78 208.16 432.46 241.25Z" stroke-width="0" fill="#FF9D9C"/><path d="M481.43 52.47C496.15 75.07 514.8 95.11 536.29 111.41 561.84 97.85 549.09 55.07 533.08 36.83 517.07 18.59 495.89 3.66 456.11 0.14 444.11-0.92 312.66 1.65 346.23 105.96 349.56 116.31 364.5 168.69 381.83 121.72 392.67 92.35 425.88 101.9 442.75 91.84 448.02 88.7 486.45 60.19 481.43 52.48Z" stroke-width="0" fill="#110945"/><path d="M378.51 136.4C373.14 123.06 364.35 111.42 349.97 111.42 328.21 121.22 339.21 153.94 356.14 167.81 391.16 196.51 378.51 136.4 378.51 136.4Z" stroke-width="0" fill="#FF9D9C"/><path d="M476.84 126.51C474.4 135.13 474.41 143.86 477.24 152.42 478.46 156.12 480.48 159.22 482.17 162.69 488 174.65 482.03 176.96 472.1 180.8 470.05 181.59 469.65 184.74 472.1 185.37 480.69 187.59 492.12 181.41 493.54 172 494.38 166.42 490.69 163.69 487.85 159.36 481.59 149.83 480.21 139.09 482.16 127.98 482.77 124.54 477.82 123.03 476.83 126.51L476.83 126.51Z" stroke-width="0" fill="#C96767"/><path d="M430.43 132.26C431.34 132.26 431.34 130.84 430.43 130.84 429.52 130.84 429.52 132.26 430.43 132.26L430.43 132.26Z" stroke-width="0" fill="#DD553E"/><path d="M428.22 136.14C432.8 134.29 437.52 133 442.46 132.56 446.5 132.2 450.36 133.35 453.61 130.59 454.83 129.55 454.58 127.61 453.61 126.53 450.48 123.05 444.8 124.39 440.61 125.04 435.34 125.85 430.39 127.61 425.61 129.92 422.19 131.57 424.64 137.58 428.23 136.13L428.23 136.13Z" stroke-width="0" fill="#110945"/><path d="M501.43 128.7C506.01 128.93 510.8 129.56 515.37 129.11 519.99 128.66 520 122.37 515.37 121.92 510.79 121.47 506.01 122.1 501.43 122.33 497.33 122.54 497.33 128.49 501.43 128.7L501.43 128.7Z" stroke-width="0" fill="#110945"/><path d="M416.45 116.87C429.58 109.78 442.45 108.17 456.55 104.47 458.49 103.96 457.87 101.4 456.11 101.2 441.82 99.61 426.4 106.11 414.13 112.89 411.53 114.33 413.85 118.27 416.45 116.86L416.45 116.86Z" stroke-width="0" fill="#110945"/><path d="M487.86 100.56C499.14 99.12 507.2 102.79 517.6 106.11 519.43 106.7 520.92 104.16 519.49 102.86 511.21 95.27 497.8 94.66 487.31 96.53 485.06 96.93 485.55 100.86 487.86 100.56L487.86 100.56Z" stroke-width="0" fill="#110945"/><path d="M481.58 194.24 441.51 188.33C441.98 226.21 454.08 230.55 465.96 230.67 477.26 230.78 481.58 213.52 481.58 194.24Z" stroke-width="0" fill="#FEFEFE"/><path d="M435.2 129.95C434.29 135.39 434.29 142.5 439.39 145.93 442.81 148.23 447.3 145.82 448.42 142.26 449.29 139.49 448.16 137.62 447.45 135.1 447.37 134.82 447.31 134.54 447.24 134.26 446.89 132.97 447.39 134.26 447.19 134.4 447.34 134.3 447.08 131.85 447.08 131.57 447.1 128.55 444.76 126.02 441.84 125.63 439.12 125.27 435.7 126.99 435.21 129.96L435.21 129.96Z" stroke-width="0" fill="#110945"/><path d="M501.94 128.4C501.31 130.92 501.24 133.6 501.29 136.2 501.33 138.28 502.41 140.56 504.35 141.54 506.53 142.64 508.41 142.64 510.59 141.54 512.53 140.56 513.61 138.28 513.65 136.2 513.7 133.6 513.63 130.92 513 128.4 511.64 122.94 503.3 122.93 501.94 128.4L501.94 128.4Z" stroke-width="0" fill="#110945"/><path d="M419.86 175.45C422.93 175.58 425.81 175.86 428.76 174.81 431.69 173.76 434.24 171.14 434.09 167.8 433.94 164.42 431.9 161.92 428.76 160.79 425.82 159.74 422.92 160.02 419.86 160.15 415.87 160.31 412.02 163.55 412.21 167.8 412.4 172.08 415.57 175.27 419.86 175.45L419.86 175.45Z" stroke-width="0" fill="#F46C6C"/><path d="M515.02 170.64C517.08 170.84 518.89 170.92 520.95 170.4 523.97 169.64 526.52 166.44 526.37 163.28 526.23 160.07 524.19 156.97 520.95 156.16 518.89 155.64 517.08 155.72 515.02 155.92 513.02 156.12 511.28 156.61 509.81 158.08 508.53 159.36 507.57 161.45 507.65 163.29 507.84 167.6 510.89 170.25 515.01 170.65L515.01 170.65Z" stroke-width="0" fill="#F46C6C"/><path d="M361.74 124.23C359.19 122.55 355.82 121.06 352.86 122.71 351.63 123.4 350.83 124.63 349.99 125.72 349.89 125.85 349.18 127.05 349.8 126.33 350.46 125.57 348.9 126.88 348.72 127.13 344.05 133.9 348.01 149.5 355.01 153.37 356.6 154.25 358.97 152.77 358.29 150.85 357.2 147.79 355.13 145.29 354.05 142.2 352.83 138.7 352.39 134.65 353.17 130.99 352.42 131.15 352.29 131.09 352.76 130.81 352.96 130.68 353.13 130.52 353.29 130.34 353.51 129.92 353.95 129.33 354.26 128.94 356.18 126.49 357.14 125.54 360.6 126.96 362.23 127.63 363.08 125.12 361.75 124.24L361.75 124.24Z" stroke-width="0" fill="#C96767"/><path d="M366.99 159.95C374.37 159.95 374.38 148.48 366.99 148.48 359.6 148.48 359.6 159.95 366.99 159.95L366.99 159.95Z" stroke-width="0" fill="#DD553E"/></g><g><path d="M854.77 299.6C860.85 289.07 862.2 278.74 862.45 265.49 862.6 257.82 856.66 233.97 853.51 236.37 847.91 231.93 854.77 259.45 847.91 268.01 844.94 258 837.26 207.19 831.23 207.11 822.17 206.99 831.23 231.94 829.72 260.46 822.65 255.59 811.89 195.89 803.35 204.07 797.81 209.38 814.61 249.65 811.28 265.77 810.4 259 788.04 214.13 781.38 215.65 778.08 224.76 791.49 249.47 793.46 258.95 795.43 268.43 795.19 285.7 785.96 288.64 781.63 280.77 777.99 278.73 769.5 275.79 761.01 272.85 753.41 278.21 753.18 283.44 753.04 286.53 760.71 290.22 763.78 290.63 785.89 293.55 791.98 329.61 794.66 332.2 800.64 337.97 798.2 349.02 804.14 354.83 807.06 357.68 811.32 358.55 815.34 359.3 832.92 362.56 835.81 348.44 837.27 334.31 839.01 317.46 847.96 311.4 854.77 299.61Z" stroke-width="0" fill="#FF9D9C"/><path d="M762 491.06C791.65 447.85 785.54 387.12 785.1 334.72 801.15 334.77 825.27 334.26 841.32 334.31 857.39 398.68 874.96 528.07 819.4 586.23 798.37 608.24 766.81 609.36 737.08 602.85 721.05 599.34 597.36 504.91 573.16 479.74 544.49 449.92 549.99 366.41 549.02 335.09 547.79 295.41 577.32 279.97 603.02 310.76 629.94 343 746.59 489.82 762 491.07Z" stroke-width="0" fill="#F04C86"/><path d="M757.61 517.41C759.34 511.5 762.85 504.15 761.82 497.93 761.54 496.25 758.93 495.55 757.86 496.88 753.91 501.78 753.35 509.86 751.95 515.84 751.09 519.52 756.55 521.04 757.62 517.4L757.62 517.4Z" stroke-width="0" fill="#F25D49"/></g><g><path d="M365.56 432.85C381.74 557.88 382.19 684.35 382.62 810.42 328.89 814.68 274.76 813.83 221.19 807.89 227.14 767.6 233.1 727.16 233.58 686.43 233.85 663.04 232.32 639.67 230.79 616.34 227.18 561.46 223.57 506.58 219.97 451.7 218.23 425.18 216.49 398.37 220.8 372.14 225.1 345.91 236.05 319.91 255.98 302.32 268.85 290.95 317.15 288.54 336.93 287.84 351.37 287.32 360.01 389.83 365.58 432.86Z" stroke-width="0" fill="#F04C86"/><path d="M531.13 475.46C532.1 599.14 536.14 694.42 531.43 818.02 567 819.19 602.78 813.79 636.41 802.16 649.4 681.86 635.73 560.43 621.52 440.27 616.23 395.51 613.46 357.33 596.67 315.5 594.5 310.1 585.49 295.95 579.77 294.95 560.4 291.54 504.66 288.65 504.66 288.65 512.21 299.36 520.03 347.3 521.41 355.63 527.59 392.84 530.83 437.85 531.12 475.47Z" stroke-width="0" fill="#F04C86"/></g><g><path d="M468.19 680.39C475.37 688.4 476.79 691.5 480.27 700.03 489.33 722.18 498.65 747.18 501.73 756.81 496.43 761.78 490.68 752.58 485.05 743.08 481.35 736.83 477.68 725.18 470.7 723.19 470.01 729.11 471.96 737.54 460.38 744.09 454.33 747.51 455.62 742.28 449.06 744.57 447.22 745.21 436.17 745.8 427.9 741.07 422.82 738.16 417.59 730.52 411.79 729.74 398.17 727.91 359.08 733.46 358.42 731.75 356.78 727.51 345.02 679.85 368.51 680.25 406.26 680.9 459.13 670.28 468.19 680.39Z" stroke-width="0" fill="#FF9D9C"/><path d="M169.6 477.57C153.71 529 145.44 557.63 135.68 610.57 128.74 648.23 121.52 676.06 147.62 704.08 176.66 735.26 404.55 742.71 407.55 736.92 423.49 706.15 416.33 683.73 406.26 671.83 346 656.42 299.67 634.71 248.91 617.95 254.89 570.44 263.34 557.66 276.86 511.73 289.67 468.21 297.67 440.24 304.55 395.4 306.91 380.02 307.77 358.5 305.52 343.11 302.47 322.28 288.33 299.96 265.05 299.61 245.97 299.32 232.67 321.86 224.5 336.49 197.9 384.12 185.72 425.44 169.61 477.57Z" stroke-width="0" fill="#F04C86"/></g></g><g><path d="M984.72 768.54 589.04 768.54 670.53 538.72C673.51 530.31 681.46 524.7 690.38 524.7L1043.62 524.7C1047.15 524.7 1050.66 525.19 1054.05 526.16L1054.05 526.16C1063.31 528.81 1068.38 538.76 1065.08 547.81L984.72 768.55Z" stroke-width="0" fill="#021E2C"/><path d="M986.98 768.54 601.63 768.54 680.86 545.09C683.84 536.68 691.79 531.07 700.71 531.07L1055.5 531.07C1063.15 531.07 1068.49 538.64 1065.94 545.85L986.98 768.55Z" stroke-width="0" fill="#03283B"/><rect x="589.04" y="768.54" width="395.68" height="24.63" stroke-width="0" fill="#021E2C"/><path d="M408.28 768.54 589.03 768.54 589.03 793.17 406.25 793.17 406.25 770.56C406.25 769.44 407.16 768.54 408.27 768.54Z" stroke-width="0" fill="#021E2C"/><path d="M868.07 636.32C863.32 634.68 859 636.12 855.5 638.3 849.82 641.84 842.39 640.66 837.63 635.95 833.71 632.07 828.57 630.37 823.55 634.8 811.61 645.35 823.6 677.13 839.46 680.27 863.81 685.1 893.14 644.97 868.07 636.31Z" stroke-width="0" fill="#FEFEFE"/></g><g><rect x="0" y="793.17" width="1110.57" height="25.88" stroke-width="0" fill="#FFC155"/><rect x="43.19" y="819.05" width="1024.19" height="213.8" stroke-width="0" fill="#E0993B"/></g></svg>