<svg viewBox="0 0 185 185" xmlns="http://www.w3.org/2000/svg" xmlns:xlink="http://www.w3.org/1999/xlink" id="Layer_1" overflow="hidden"><defs></defs><circle cx="92.5" cy="92.5" r="92.5" stroke-width="0" fill="#013033"/><g><path d="M92.48 53.5C106.61 53.5 120.75 53.5 134.88 53.5 139.66 53.5 141.84 55.42 141.84 59.69 141.86 81.55 141.86 103.4 141.84 125.26 141.84 129.55 139.67 131.49 134.93 131.49 106.56 131.49 78.19 131.49 49.83 131.49 45.45 131.49 43.18 129.52 43.17 125.58 43.14 103.55 43.14 81.51 43.17 59.48 43.17 55.52 45.42 53.53 49.78 53.53 64.01 53.51 78.25 53.53 92.48 53.53L92.48 53.53ZM62.49 59.06 62.49 125.87 122.57 125.87 122.57 59.06 62.49 59.06ZM126.48 59.09 126.48 68.8 136.26 68.8 136.26 59.09 126.48 59.09ZM136.24 87.77 136.24 77.84C133.3 77.84 130.54 77.77 127.78 77.9 127.27 77.92 126.4 78.7 126.37 79.15 126.24 81.98 126.3 84.81 126.3 87.77L136.23 87.77ZM58.66 63.97C58.66 63.17 58.56 62.35 58.68 61.57 59.02 59.4 57.97 58.86 55.66 58.88 48.37 58.94 48.37 58.86 48.4 65.46 48.4 65.99 48.45 66.53 48.4 67.06 48.24 68.57 48.98 69.19 50.64 69.05 51.42 68.98 52.22 69.05 53.01 69.05 56.7767 69.05 58.66 67.36 58.66 63.98ZM48.41 87.91C51.6 87.91 54.26 87.97 56.91 87.86 57.5 87.84 58.54 87.2 58.54 86.83 58.61 84 58.47 81.16 58.4 78.33 55.68 78.16 52.97 77.9 50.25 77.9 49.63 77.9 48.52 78.81 48.48 79.35 48.3 82.08 48.4 84.82 48.4 87.91ZM58.66 101.8C58.56 96.44 59.54 96.75 54.43 96.74 48.4 96.72 48.37 96.74 48.41 102.32 48.45 107.53 47.69 106.74 53.21 106.79 58.66 106.83 58.66 106.79 58.66 101.81ZM136.25 106.65 136.25 96.99 126.49 96.99 126.49 106.65 136.25 106.65ZM48.62 115.73 48.62 125.67C51.51 125.67 54.18 125.79 56.81 125.59 57.47 125.54 58.5 124.51 58.56 123.86 58.78 121.74 58.76 119.58 58.56 117.46 58.5 116.85 57.58 115.84 56.99 115.81 54.26 115.63 51.51 115.73 48.61 115.73ZM136.27 125.57 136.27 115.96 126.51 115.96 126.51 125.57 136.27 125.57Z" stroke-width="0" fill="#FFFFFF"/><path d="M82.5 92.5C82.5 87.75 82.35 83 82.59 78.26 82.66 76.86 83.48 74.78 84.53 74.32 85.75 73.79 87.91 74.24 89.11 75.06 95.59 79.52 101.91 84.23 108.27 88.87 111.54 91.26 111.54 93.72 108.27 96.11 101.91 100.75 95.6 105.46 89.12 109.93 87.92 110.76 85.75 111.21 84.54 110.68 83.49 110.22 82.68 108.14 82.61 106.73 82.38 101.99 82.52 97.24 82.52 92.49Z" stroke-width="0" fill="#FFFFFF"/></g></svg>