<svg viewBox="0 0 185 185" xmlns="http://www.w3.org/2000/svg" xmlns:xlink="http://www.w3.org/1999/xlink" id="Layer_1" overflow="hidden"><defs></defs><circle cx="92.5" cy="92.5" r="92.5" stroke-width="0" fill="#E34C07"/><g><path d="M85.07 108.31C87.35 108.12 89.01 106.09 88.68 103.83 87.19 93.55 85.74 83.62 84.3 73.68 83.46 67.91 82.41 62.16 81.93 56.36 81.92 56.21 81.92 56.07 81.93 55.92 82.1 53.07 85.46 51.53 87.88 53.05 88.36 53.35 88.82 53.68 89.25 54.05 93.12 57.39 96.64 61.14 100.58 64.39 104.29 67.45 108.62 69.78 112.21 72.97 120.52 80.35 123.71 95.08 119.22 104.76 118.7 105.88 116.79 106.77 115.45 106.9 114.87 106.95 113.86 104.85 113.47 103.6 113.2 102.73 113.68 101.64 113.79 100.65 115.09 88.55 109.06 81 97.63 80.25 95.18 80.09 93.19 82.24 93.51 84.67 94.74 94.07 95.74 103.5 97.61 112.76 100.77 128.37 85.36 140.52 72.65 139.39 62.79 138.52 58.21 130.72 63.07 122 67.85 113.42 75.25 109.13 85.08 108.31Z" stroke-width="0" fill="#FFFFFF"/><path d="M57.93 82.23C56.43 78.94 54.45 74.58 52.03 69.25 47.77 74.07 43.78 78.37 40.12 82.93 39.5 83.7 40 85.75 40.52 86.98 42.72 92.18 45.13 97.29 47.46 102.44 49.86 107.73 48.49 112.61 43.35 114.85 41.39 115.7 37.65 115.84 36.65 114.67 35.34 113.12 35.06 109.58 35.93 107.58 37.02 105.06 39.72 103.23 42.19 100.61 39.62 94.98 36.84 88.62 33.81 82.39 32.4 79.49 32.41 77.33 34.85 74.85 39.27 70.35 43.37 65.52 47.48 60.72 49.84 57.96 51.44 58.23 52.91 61.48 56.59 69.65 60.5 77.73 64.01 85.98 66.12 90.94 62.22 97.15 56.88 98 52.66 98.67 49.38 95.27 51.12 91.29 52.49 88.15 55.3 85.64 57.94 82.25Z" stroke-width="0" fill="#FFFFFF"/><path d="M129.46 119.07C130.33 119.33 131.24 118.79 131.43 117.9 133.3 109.33 134.98 101.43 136.84 93.56 137.02 92.81 137.46 92.12 137.97 91.45 138.61 90.59 139.9 90.6 140.52 91.48 140.89 92 141.25 92.52 141.58 93.06 143.65 96.44 145.55 99.92 147.72 103.23 151.76 109.41 151.99 116.09 147.96 121.88 147.96 121.89 147.95 121.9 147.94 121.91 147.01 123.21 144.93 122.25 145.18 120.68 145.68 117.52 146.19 114.64 145.58 112.04 145.12 110.09 142.81 108.57 140.37 106.61 139.47 105.89 138.11 106.36 137.86 107.49 136.59 113.21 135.52 118.09 134.39 122.97 132.55 130.91 125.4 135.26 117.85 132.6 115.82 131.89 113.35 129.69 112.97 127.79 112.58 125.87 113.96 122.86 115.56 121.42 119.46 117.9 124.21 117.5 129.47 119.06Z" stroke-width="0" fill="#FFFFFF"/><path d="M150.28 67.18C150.39 67.29 150.5 67.39 150.61 67.49 151.85 68.67 151.89 70.67 150.64 71.83 150.29 72.15 149.93 72.41 149.52 72.55 143.6 74.59 137.6 76.43 131.55 78.03 131.35 78.08 131.15 78.1 130.93 78.08 128.81 77.94 127.58 75.46 128.67 73.65 128.85 73.35 129.06 73.13 129.31 73.03 135.04 70.73 140.9 68.74 147.21 66.53 148.27 66.16 149.46 66.41 150.28 67.18Z" stroke-width="0" fill="#FFFFFF"/><path d="M143.27 47.9C143.96 48.93 143.8 50.32 142.98 51.25 142.62 51.66 142.24 52.07 141.83 52.45 137.61 56.37 133.46 60.37 129.05 64.06 128.75 64.31 128.41 64.5 128.04 64.66 125.93 65.58 123.55 63.66 124.15 61.43 124.24 61.11 124.37 60.84 124.57 60.64 129.06 56.07 133.83 51.75 138.76 47.64 140.33 46.33 142.09 46.09 143.29 47.89Z" stroke-width="0" fill="#FFFFFF"/><path d="M112.46 58.69C111.71 57.95 111.42 56.84 111.71 55.81 113.52 49.49 115.09 43.64 117.04 37.92 117.12 37.67 117.29 37.46 117.52 37.26 119.31 35.7 122.16 37.08 122.22 39.46 122.22 39.67 122.21 39.88 122.17 40.09 120.96 45.88 119.48 51.62 117.8 57.3 117.65 57.79 117.37 58.25 117.02 58.68 115.94 60.02 113.94 60.14 112.71 58.93L112.46 58.69Z" stroke-width="0" fill="#FFFFFF"/></g></svg>